<svg width="24" height="24" viewBox="0 0 24 24" fill="none" xmlns="http://www.w3.org/2000/svg">
<g clip-path="url(#clip0_1292_11044)">
<path d="M0.512151 11.8661C0.511588 13.8825 1.04259 15.8515 2.05228 17.5869L0.415588 23.5164L6.53109 21.9253C8.22255 22.839 10.1177 23.3178 12.0436 23.3179H12.0486C18.4063 23.3179 23.5816 18.1846 23.5843 11.8751C23.5855 8.81769 22.3867 5.94271 20.2085 3.77974C18.0307 1.61694 15.1342 0.425223 12.0482 0.423828C5.68978 0.423828 0.51487 5.55685 0.512245 11.8661" fill="url(#paint0_linear_1292_11044)"/>
<path d="M0.100313 11.8624C0.0996563 13.9514 0.649687 15.9908 1.69537 17.7884L0 23.9304L6.33478 22.2823C8.08022 23.2266 10.0454 23.7245 12.0451 23.7252H12.0502C18.636 23.7252 23.9972 18.4073 24 11.8719C24.0011 8.70465 22.7591 5.72632 20.5031 3.48586C18.2468 1.24567 15.2468 0.011068 12.0502 0.00976562C5.46337 0.00976562 0.102938 5.32698 0.100313 11.8624ZM3.87281 17.4788L3.63628 17.1062C2.64197 15.5375 2.11716 13.7247 2.11791 11.8632C2.12006 6.43107 6.57544 2.01163 12.054 2.01163C14.7071 2.01274 17.2005 3.03898 19.0759 4.90093C20.9512 6.76307 21.9831 9.23842 21.9824 11.8712C21.98 17.3033 17.5245 21.7233 12.0502 21.7233H12.0463C10.2638 21.7223 8.51569 21.2473 6.99113 20.3498L6.62831 20.1363L2.86912 21.1142L3.87281 17.4787V17.4788Z" fill="url(#paint1_linear_1292_11044)"/>
<path d="M9.06358 6.90747C8.8399 6.41417 8.60449 6.40422 8.39177 6.39556C8.21758 6.38812 8.01846 6.38868 7.81952 6.38868C7.6204 6.38868 7.29686 6.46301 7.0234 6.75929C6.74965 7.05584 5.97827 7.7725 5.97827 9.23008C5.97827 10.6878 7.04824 12.0964 7.1974 12.2943C7.34674 12.4918 9.26299 15.5786 12.2979 16.7662C14.8201 17.7531 15.3334 17.5568 15.8808 17.5073C16.4283 17.458 17.6474 16.7908 17.8961 16.099C18.1451 15.4073 18.1451 14.8144 18.0704 14.6904C17.9958 14.567 17.7967 14.4929 17.4981 14.3448C17.1994 14.1966 15.7315 13.4798 15.4578 13.381C15.1841 13.2822 14.985 13.2329 14.7859 13.5295C14.5868 13.8257 14.015 14.4929 13.8407 14.6904C13.6666 14.8885 13.4923 14.9131 13.1938 14.765C12.8951 14.6163 11.9335 14.3038 10.7926 13.2946C9.90499 12.5093 9.30574 11.5396 9.13155 11.2429C8.95736 10.9467 9.1129 10.7862 9.26261 10.6385C9.39677 10.5058 9.5613 10.2926 9.71074 10.1197C9.85961 9.94664 9.9093 9.82319 10.0089 9.62561C10.1085 9.42784 10.0586 9.25482 9.98412 9.10664C9.9093 8.95845 9.32908 7.49324 9.06358 6.90747Z" fill="white"/>
</g>
<defs>
<linearGradient id="paint0_linear_1292_11044" x1="1158.85" y1="2309.68" x2="1158.85" y2="0.423828" gradientUnits="userSpaceOnUse">
<stop stop-color="#1FAF38"/>
<stop offset="1" stop-color="#60D669"/>
</linearGradient>
<linearGradient id="paint1_linear_1292_11044" x1="1200" y1="2392.08" x2="1200" y2="0.00976562" gradientUnits="userSpaceOnUse">
<stop stop-color="#F9F9F9"/>
<stop offset="1" stop-color="white"/>
</linearGradient>
<clipPath id="clip0_1292_11044">
<rect width="24" height="24" fill="white" transform="translate(0 0.00976562)"/>
</clipPath>
</defs>
</svg>
