<svg width="36" height="36" viewBox="0 0 36 36" fill="none" xmlns="http://www.w3.org/2000/svg">
<path d="M36 4.51636V29.1905C35.9034 29.2541 35.8963 29.3625 35.8539 29.4568C35.7124 29.768 35.5215 30.0367 35.2363 30.2441C34.8592 30.5175 34.4443 30.6094 33.9918 30.6094C31.0525 30.6094 28.1155 30.6142 25.1762 30.6189C25.0536 30.6542 25.1196 30.7037 25.1644 30.7532C25.4261 31.2836 25.7584 31.7715 26.0601 32.2806C26.1426 32.4197 26.2605 32.4173 26.3925 32.4173C26.8262 32.4173 27.2599 32.3985 27.6912 32.4244C29.0112 32.5045 29.749 33.8457 29.1974 34.996C28.9428 35.5263 28.4809 35.7809 27.9859 36.0096H10.4113C10.2039 35.9176 9.99413 35.8375 9.80321 35.7078C9.188 35.2883 8.83444 34.4374 9.02301 33.7915C9.25872 32.9807 9.93285 32.4409 10.7484 32.4221C11.1703 32.4126 11.5922 32.415 12.0142 32.4197C12.1627 32.4197 12.2829 32.4008 12.3677 32.2547C12.6412 31.7833 12.924 31.3189 13.2045 30.8499C13.2917 30.7037 13.287 30.6094 13.0819 30.6094C12.8721 30.6094 12.66 30.6094 12.4502 30.6094C9.67357 30.6094 6.8969 30.6047 4.1226 30.6047C3.2104 30.6047 2.3972 29.6006 2.39956 28.8628C2.41606 25.478 2.40663 22.0932 2.40663 18.7061C2.40663 18.3266 2.63998 18.0131 2.94641 18.0249C3.31411 18.039 3.62525 18.263 3.60875 18.7108C3.58989 19.2482 3.60404 19.788 3.60404 20.3278C3.60404 22.237 3.60875 24.1463 3.59932 26.0555C3.59932 26.3289 3.67004 26.4374 3.95289 26.4138C4.23102 26.3902 4.51388 26.3973 4.79437 26.3902C5.16679 26.3973 5.54157 26.3973 5.91399 26.4114C6.36891 26.4279 6.55041 26.6047 6.55041 27.0149C6.55041 27.4226 6.36891 27.5994 5.91399 27.6183C5.54157 27.6324 5.16679 27.6324 4.79437 27.6395C4.48088 27.6324 4.16738 27.6324 3.85389 27.6183C3.64646 27.6089 3.59697 27.7079 3.60404 27.8941C3.61346 28.184 3.60404 28.4763 3.60875 28.7662C3.61582 29.1386 3.86096 29.3932 4.23574 29.4073C4.46673 29.4167 4.70009 29.4026 4.93344 29.4002C5.02772 29.405 5.11965 29.412 5.21393 29.412C14.5174 29.412 23.8209 29.412 33.1243 29.412C33.2422 29.412 33.3577 29.4026 33.4756 29.3979C33.6853 29.4026 33.8951 29.4167 34.1025 29.4097C34.541 29.4002 34.7932 29.1504 34.8073 28.712C34.8167 28.4338 34.8026 28.1533 34.812 27.8728C34.8167 27.6914 34.739 27.6206 34.5622 27.6254C34.2487 27.6348 33.9328 27.6371 33.6193 27.6419C33.4449 27.6348 33.2681 27.623 33.0937 27.623C25.0136 27.623 16.9311 27.623 8.85094 27.623C8.65294 27.623 8.44787 27.6277 8.25695 27.5853C8.00238 27.5287 7.82796 27.3708 7.81853 27.0809C7.80203 26.6472 8.01653 26.4256 8.52094 26.4209C9.4685 26.4091 10.4184 26.4209 11.366 26.4138C11.4838 26.4138 11.6205 26.4657 11.7337 26.3384C11.6606 26.2582 11.5899 26.1805 11.5215 26.105C10.5009 25.0043 10.0719 23.689 10.2251 22.2158C10.3218 21.28 10.68 20.3938 11.0195 19.5216C11.6771 17.834 12.4832 16.2123 13.5298 14.7226C13.5793 14.6519 13.6853 14.5788 13.6264 14.4822C13.5722 14.395 13.4544 14.4327 13.3671 14.4327C12.3724 14.4303 11.3754 14.428 10.3807 14.4327C8.51859 14.435 6.65648 14.4421 4.79437 14.4468C3.58754 14.4421 2.38306 14.4397 1.17622 14.4303C0.549236 14.4256 0.0188893 13.8976 0.0165322 13.2824C0.00474667 11.0549 0.0165322 8.84163 3.24677e-05 6.62832C-0.00468173 6.05083 0.504452 5.38377 1.21158 5.42148C1.52743 5.43798 1.84328 5.41441 2.15913 5.4262C2.34535 5.43327 2.39484 5.3602 2.40192 5.18106C2.40899 4.92885 2.3642 4.67664 2.4467 4.41971C2.7437 3.51223 3.39661 3.02667 4.37952 3.02431C8.4078 3.02431 12.4384 3.02431 16.4667 3.02431C16.561 3.02431 16.6553 3.02196 16.7472 3.02431C16.9334 3.03138 17.0018 2.97717 16.9287 2.77446C16.8132 2.44918 16.7166 2.11919 16.6294 1.78448C16.4054 0.909995 17.0277 0.0496543 17.9258 0.0260833C18.7225 0.0048694 19.5192 0.0025123 20.3159 0.0260833C21.0419 0.0472972 21.5769 0.51636 21.6971 1.12449C21.7985 1.6407 21.5769 2.05555 21.4496 2.50339C21.3058 3.0196 21.2964 3.02667 21.8338 3.02667C25.8857 3.02667 29.9399 3.02667 33.9918 3.02667C34.7437 3.02667 35.3565 3.28831 35.7454 3.95772C35.8491 4.13451 35.9151 4.3325 35.9976 4.52107L36 4.51636ZM1.21394 6.69667C1.21158 8.05436 1.20687 9.41205 1.20451 10.7697C1.20451 11.4957 1.21158 12.2217 1.1998 12.9477C1.19744 13.1646 1.26815 13.2376 1.48029 13.2258C1.78436 13.207 2.08842 13.2117 2.39249 13.207C2.54334 13.2117 2.69655 13.2211 2.84741 13.2211C6.27934 13.2211 9.70892 13.2235 13.1409 13.2211C13.5274 13.2211 13.9022 13.2777 14.2817 13.3437C15.0572 13.4804 15.703 13.8953 16.3583 14.296C16.8439 14.593 17.3247 14.9607 17.9022 14.9795C19.6912 15.0408 21.485 15.0219 23.274 14.9913C23.5192 14.9937 23.7667 15.0172 24.0094 14.996C24.3041 14.9724 24.5233 14.8334 24.5421 14.5034C24.5681 14.072 24.4738 13.9471 24.0849 13.8646C23.7313 13.7892 23.4414 13.643 23.3942 13.2306C23.4744 12.778 23.6394 12.6295 24.0849 12.6106C24.2122 12.6059 24.3394 12.6012 24.4691 12.5941C24.7024 12.5988 24.9358 12.613 25.1668 12.6036C25.518 12.5871 25.7891 12.3301 25.7961 12.0237C25.8055 11.722 25.5816 11.4816 25.2328 11.4156C24.7519 11.3237 24.6435 11.2034 24.5964 10.699C24.6741 10.4421 24.8533 10.2865 25.0984 10.1993C25.3318 10.2017 25.5651 10.2205 25.7961 10.2064C26.1568 10.1828 26.3736 9.93768 26.3689 9.59355C26.3642 9.2612 26.152 9.03963 25.7961 9.02077C25.5651 9.00899 25.3318 9.02313 25.0984 9.02784C24.8344 8.95713 24.6883 8.76856 24.5964 8.52814C24.6435 8.03079 24.7566 7.90586 25.2375 7.81629C25.5675 7.75265 25.7938 7.53109 25.7938 7.24116C25.7938 6.91588 25.6005 6.73203 25.2988 6.6566C25.0254 6.58825 24.7449 6.6236 24.4667 6.63774C24.3159 6.63303 24.1627 6.6236 24.0118 6.6236C21.9163 6.6236 19.8232 6.6236 17.7278 6.6236C17.6099 6.6236 17.4921 6.63303 17.3766 6.61417C17.0866 6.56703 16.8745 6.39968 16.8156 6.10976C16.7614 5.83869 16.9193 5.62184 17.1479 5.51105C17.3624 5.40734 17.4119 5.2942 17.3318 5.07735C17.2941 4.97363 17.3035 4.84871 17.3011 4.73321C17.2941 4.25708 17.1503 4.16279 16.7119 4.35607C16.6789 4.37022 16.6506 4.38907 16.6176 4.40322C16.2027 4.58943 15.9317 4.93121 15.696 5.2942C15.0642 6.26768 14.1803 6.64717 13.0254 6.63539C9.84328 6.60003 6.66119 6.6236 3.47675 6.6236C3.11376 6.6236 2.75077 6.63067 2.39013 6.63539C2.01535 6.63539 1.64057 6.63539 1.26579 6.63539C1.21865 6.63303 1.20215 6.65425 1.20687 6.69903L1.21394 6.69667ZM4.92873 4.23822C4.78966 4.2335 4.64823 4.22643 4.50916 4.22643C3.79496 4.22643 3.56868 4.47157 3.59932 5.1787C3.60639 5.35548 3.65354 5.43327 3.83975 5.4262C4.1556 5.41205 4.47145 5.41441 4.78494 5.4097C4.91458 5.41441 5.04187 5.42384 5.17151 5.42384C7.85389 5.42384 10.5363 5.41205 13.2163 5.43091C14.1096 5.43798 14.4891 5.03727 14.9134 4.22643C14.7743 4.22643 14.6447 4.22643 14.5174 4.22643C12.6435 4.22643 10.7696 4.22643 8.89572 4.22643C7.57339 4.22643 6.2487 4.2335 4.92637 4.23822H4.92873ZM14.8168 32.382C14.9865 32.4409 15.1656 32.4197 15.34 32.4197C18.079 32.4197 20.8179 32.4197 23.5545 32.4197C23.835 32.4197 24.1155 32.4126 24.396 32.4197C24.6624 32.4291 24.7071 32.3396 24.5681 32.118C24.3017 31.6913 24.0424 31.26 23.7902 30.8239C23.6959 30.6613 23.5804 30.6 23.3942 30.6C20.8674 30.6071 18.3383 30.6094 15.8115 30.6118C15.531 30.6094 15.2505 30.6071 14.9676 30.6047C14.8474 30.6047 14.7413 30.6071 14.6683 30.7344C14.3807 31.2246 14.0837 31.7126 13.7914 32.1981C13.7089 32.3348 13.7254 32.422 13.9069 32.4126C14.2086 32.3985 14.515 32.455 14.8144 32.3773L14.8168 32.382ZM11.5357 34.8027C11.6182 34.8074 11.6983 34.8145 11.7808 34.8145C16.7142 34.8145 21.6476 34.8145 26.581 34.8145C26.6753 34.8145 26.7672 34.8074 26.8615 34.8027C27.1185 34.8051 27.3754 34.8263 27.6299 34.8074C27.9812 34.7791 28.2169 34.5034 28.198 34.1781C28.1791 33.8575 27.9482 33.636 27.5969 33.6218C27.3542 33.6124 27.109 33.6265 26.8639 33.6289C26.7696 33.6242 26.6777 33.6171 26.5834 33.6171C21.6618 33.6171 16.7401 33.6171 11.8185 33.6171C11.7242 33.6171 11.6323 33.6242 11.538 33.6289C11.2929 33.6242 11.0501 33.6124 10.805 33.6195C10.4208 33.6289 10.2063 33.841 10.2063 34.1875C10.2063 34.5411 10.475 34.8098 10.838 34.8121C11.0713 34.8121 11.3023 34.8051 11.5357 34.8027ZM33.6146 26.3879C33.848 26.3926 34.0813 26.402 34.317 26.402C34.805 26.402 34.805 26.402 34.805 25.9023C34.805 19.0879 34.7932 12.2736 34.8144 5.4592C34.8191 4.21465 34.4962 4.16751 33.4685 4.24058C33.386 4.23586 33.3058 4.22408 33.2233 4.22408C29.9682 4.22408 26.7107 4.22408 23.4555 4.22408C23.4084 4.22408 23.3612 4.22643 23.3141 4.22408C23.1538 4.21936 23.109 4.283 23.1609 4.43857C23.2387 4.66721 23.3683 4.88406 23.3447 5.13863C23.3259 5.35784 23.4296 5.4262 23.6347 5.42384C24.1273 5.41677 24.6199 5.40498 25.1102 5.4262C25.5416 5.44505 25.9611 5.53934 26.3123 5.82219C26.8992 6.29832 27.1208 7.02195 26.8804 7.76208C26.8073 7.98836 26.8073 8.12743 27.0195 8.31129C27.7973 8.98306 27.7502 10.303 26.944 10.9583C26.8073 11.0714 26.7932 11.1539 26.8427 11.3095C26.9275 11.5829 27.0407 11.8611 26.9865 12.1581C26.8639 12.8346 26.5716 13.3908 25.8786 13.6478C25.7301 13.702 25.6901 13.775 25.7183 13.9589C25.7749 14.3054 25.8456 14.692 25.6523 15.0054C25.3766 15.4557 25.5321 15.8045 25.7938 16.1675C25.888 16.2995 25.954 16.4503 26.0271 16.5965C26.9652 18.4115 27.802 20.2618 28.132 22.303C28.2758 23.1987 28.0731 24.0261 27.7313 24.8393C27.4909 25.4144 27.0996 25.8882 26.6682 26.3407C26.8191 26.4374 26.9487 26.3997 27.0737 26.402C28.3159 26.4044 29.5581 26.4067 30.7979 26.402C31.7337 26.3997 32.6718 26.3902 33.6075 26.3832L33.6146 26.3879ZM19.1279 26.3973C19.1279 26.3973 19.1279 26.3949 19.1279 26.3926C20.6034 26.3926 22.079 26.4162 23.5545 26.3879C25.6806 26.3478 27.3589 24.3089 26.9228 22.2252C26.4844 20.1345 25.5887 18.2111 24.5186 16.3702C24.4125 16.1887 24.2617 16.2076 24.0943 16.2076C22.0318 16.2029 19.9717 16.1958 17.9093 16.1887C17.7678 16.1887 17.6358 16.1581 17.4968 16.1274C16.6435 15.9294 15.9364 15.4392 15.2104 14.9937C14.9865 14.8569 14.8733 14.8923 14.7295 15.095C13.2257 17.207 12.1391 19.5122 11.4885 22.0249C11.3872 22.4162 11.3565 22.8169 11.4155 23.2082C11.7125 25.2258 13.3719 26.4633 15.1232 26.4091C16.4573 26.3667 17.7938 26.402 19.1279 26.402V26.3973ZM19.1774 1.21642C18.8498 1.21642 18.5221 1.21406 18.1968 1.21642C17.7985 1.22113 17.749 1.29656 17.8716 1.68548C18.1945 2.70139 18.4585 3.72437 18.5103 4.79685C18.541 5.4262 18.5669 5.4262 19.2127 5.4262C19.3306 5.4262 19.4461 5.41913 19.564 5.4262C19.7572 5.43798 19.8397 5.35313 19.8397 5.15984C19.8397 4.90292 19.8397 4.646 19.8704 4.39143C19.9859 3.44152 20.1933 2.51046 20.5091 1.60298C20.6058 1.32249 20.4761 1.2117 20.2004 1.21406C19.8609 1.21878 19.5215 1.21406 19.1845 1.21406L19.1774 1.21642ZM21.6453 5.4262C21.7891 5.3602 22.086 5.55348 22.1685 5.32956C22.2558 5.09149 22.0766 4.84164 21.9046 4.64364C21.8739 4.60828 21.8386 4.57764 21.8079 4.54464C21.6264 4.36314 21.3718 4.217 21.1621 4.30186C21.0159 4.36079 21.0254 4.66485 21.0324 4.87935C21.0513 5.42855 21.0466 5.42855 21.6453 5.42855V5.4262Z" fill="#2E3192"/>
<path d="M24.4691 12.5941C24.3418 12.5988 24.2145 12.6036 24.0849 12.6106C23.6417 12.6295 23.4744 12.778 23.3942 13.2306H22.6329C23.4555 13.9518 23.5192 14.1333 23.274 14.9913C21.4826 15.0219 19.6912 15.0408 17.9022 14.9795C17.3223 14.9607 16.8415 14.5906 16.3583 14.296C15.703 13.8953 15.0572 13.4804 14.2817 13.3437C13.9046 13.2777 13.5274 13.2211 13.1409 13.2211C9.70892 13.2258 6.27934 13.2235 2.84741 13.2211C2.69655 13.2211 2.54334 13.2117 2.39249 13.207C2.39249 11.0172 2.39249 8.82513 2.39249 6.63539C2.75548 6.63067 3.11847 6.6236 3.47911 6.6236C6.66119 6.6236 9.84563 6.60003 13.0277 6.63539C14.1827 6.64717 15.0666 6.26768 15.6983 5.2942C15.934 4.93121 16.2051 4.58943 16.6199 4.40322C16.6529 4.38907 16.6812 4.37022 16.7142 4.35607C17.1526 4.16279 17.2964 4.25472 17.3035 4.73321C17.3035 4.84871 17.2964 4.97363 17.3341 5.07735C17.4143 5.29184 17.3648 5.40498 17.1503 5.51105C16.9216 5.62419 16.7637 5.83869 16.8179 6.10976C16.8769 6.39732 17.089 6.56468 17.3789 6.61417C17.4921 6.63303 17.6123 6.6236 17.7301 6.6236C19.8256 6.6236 21.9187 6.6236 24.0142 6.6236C24.165 6.6236 24.3182 6.63303 24.4691 6.63775C24.7661 7.4038 24.5327 7.98365 23.8091 8.38436C23.967 8.48807 24.1014 8.43857 24.2239 8.45978C24.3489 8.48335 24.4761 8.50692 24.6011 8.5305C24.693 8.77092 24.8391 8.95949 25.1031 9.0302C25.221 9.42148 25.1762 9.81276 25.1031 10.204C24.858 10.2912 24.6789 10.4468 24.6011 10.7037C24.4196 10.732 24.2357 10.758 24.0542 10.7862C23.9953 10.7957 23.9293 10.8051 23.9152 10.8711C23.901 10.9371 23.9647 10.9654 24.0094 11.0007C24.6223 11.4816 24.7119 11.7927 24.4738 12.6012L24.4691 12.5941Z" fill="#EAEAF4"/>
<path d="M33.6123 26.3879C32.6765 26.3949 31.7384 26.4044 30.8026 26.4067C29.5604 26.4091 28.3182 26.4067 27.0784 26.4067C26.9558 26.4067 26.8238 26.4421 26.673 26.3454C27.1043 25.8929 27.4956 25.4191 27.736 24.844C28.0778 24.0308 28.2805 23.2034 28.1367 22.3077C27.8067 20.2665 26.97 18.4162 26.0318 16.6012C25.9564 16.4574 25.8928 16.3042 25.7985 16.1722C25.5368 15.8069 25.3813 15.458 25.6571 15.0102C25.8503 14.6967 25.7796 14.3125 25.7231 13.9636C25.6924 13.7798 25.7348 13.7067 25.8833 13.6525C26.5763 13.3955 26.8662 12.8393 26.9912 12.1628C27.0454 11.8658 26.9346 11.5877 26.8474 11.3142C26.7979 11.1587 26.812 11.0738 26.9487 10.963C27.7549 10.3077 27.7997 8.98777 27.0242 8.316C26.812 8.13215 26.812 7.99072 26.8851 7.7668C27.1232 7.02667 26.904 6.30304 26.317 5.8269C25.9658 5.54169 25.5463 5.44977 25.1149 5.43091C24.6246 5.4097 24.132 5.42148 23.6394 5.42855C23.4343 5.43091 23.3306 5.36256 23.3495 5.14334C23.3707 4.89114 23.2434 4.67193 23.1656 4.44329C23.1114 4.28772 23.1562 4.22172 23.3188 4.22879C23.366 4.22879 23.4131 4.22879 23.4602 4.22879C26.7154 4.22879 29.9729 4.22879 33.2281 4.22879C33.3106 4.22879 33.3907 4.24058 33.4732 4.24529C33.6005 4.58 33.6193 4.92649 33.617 5.28006C33.6146 12.3184 33.617 19.3543 33.617 26.3926L33.6123 26.3879Z" fill="#EAEAF4"/>
<path d="M4.78966 26.3902C4.78966 22.4044 4.78966 18.4209 4.7873 14.435C6.64941 14.4303 8.51152 14.4256 10.3736 14.4209C11.3683 14.4209 12.3654 14.4209 13.3601 14.4209C13.4496 14.4209 13.5651 14.3832 13.6193 14.4704C13.6783 14.567 13.5722 14.6401 13.5227 14.7108C12.4762 16.2005 11.67 17.8198 11.0124 19.5099C10.673 20.382 10.3171 21.2683 10.2181 22.204C10.0648 23.6772 10.4938 24.9948 11.5145 26.0932C11.5852 26.1687 11.6535 26.2465 11.7266 26.3266C11.6135 26.4539 11.4767 26.402 11.3589 26.402C10.4113 26.4067 9.46143 26.3973 8.51387 26.4091C8.01181 26.4162 7.79496 26.6354 7.81146 27.0691C7.82324 27.359 7.99531 27.5169 8.24988 27.5735C8.4408 27.6159 8.64587 27.6112 8.84387 27.6112C16.924 27.6112 25.0065 27.6112 33.0866 27.6112C33.2611 27.6112 33.4378 27.623 33.6123 27.6301C33.5887 28.217 33.683 28.8133 33.4661 29.3838C33.3483 29.3885 33.2328 29.3979 33.1149 29.3979C23.8114 29.3979 14.508 29.3979 5.20451 29.3979C5.11022 29.3979 5.0183 29.3908 4.92401 29.3861C4.73544 28.811 4.7873 28.217 4.7873 27.6254C5.15972 27.6183 5.5345 27.6183 5.90692 27.6041C6.36184 27.5876 6.54334 27.4109 6.54334 27.0007C6.54334 26.5929 6.36184 26.4162 5.90692 26.3973C5.5345 26.3832 5.15972 26.3832 4.7873 26.3761L4.78966 26.3902Z" fill="#EAEAF4"/>
<path d="M19.1255 26.3973C17.7914 26.3973 16.4549 26.3643 15.1208 26.4044C13.3695 26.4586 11.7101 25.2211 11.4131 23.2034C11.3565 22.8122 11.3848 22.4115 11.4862 22.0202C12.1367 19.5099 13.2234 17.2023 14.7272 15.0903C14.8733 14.8876 14.9841 14.8522 15.208 14.9889C15.9364 15.4344 16.6411 15.9247 17.4944 16.1227C17.6335 16.1557 17.7655 16.184 17.9069 16.184C19.9694 16.1911 22.0295 16.1981 24.0919 16.2029C24.2569 16.2029 24.4101 16.184 24.5162 16.3655C25.5887 18.2064 26.4844 20.1298 26.9205 22.2205C27.3565 24.3042 25.6783 26.3431 23.5522 26.3832C22.0766 26.4114 20.6011 26.3879 19.1255 26.3879C19.1255 26.3879 19.1255 26.3902 19.1255 26.3926V26.3973ZM20.9546 22.1545C21.0018 21.8457 20.9028 21.5205 20.7001 21.214C20.3465 20.679 19.8232 20.4645 19.2151 20.4103C18.9134 20.382 18.6989 20.2476 18.64 19.9412C18.5858 19.6654 18.6659 19.4274 18.9322 19.2883C19.2198 19.1398 19.4626 19.2105 19.7289 19.5146C19.9788 19.8021 20.3324 19.8634 20.5964 19.6631C20.8604 19.4627 20.8957 19.0997 20.6741 18.7839C20.495 18.5293 20.2617 18.3407 19.9812 18.204C19.8798 18.1545 19.7596 18.131 19.7619 17.9707C19.7643 17.669 19.6135 17.4922 19.3094 17.4498C18.97 17.405 18.7225 17.544 18.6235 17.8599C18.5528 18.0838 18.416 18.197 18.2345 18.3101C17.6547 18.6754 17.2564 19.5381 17.3954 20.0826C17.6241 20.9736 18.244 21.5323 19.069 21.5983C19.1845 21.6077 19.3023 21.6218 19.4107 21.6619C19.6417 21.7467 19.7572 21.9117 19.7667 22.1687C19.7737 22.4162 19.7077 22.6094 19.4815 22.7226C19.2505 22.8404 19.0265 22.8192 18.8238 22.6566C18.7437 22.5906 18.6824 22.501 18.607 22.4279C18.3524 22.1805 18.0436 22.1592 17.7867 22.3737C17.5557 22.567 17.5086 22.8923 17.6853 23.1681C17.8338 23.3967 18.0201 23.5971 18.2628 23.7196C18.4726 23.8257 18.6117 23.9389 18.6588 24.2005C18.706 24.4551 18.9157 24.6318 19.1986 24.6059C19.4673 24.5823 19.7172 24.4692 19.7478 24.1604C19.7667 23.9648 19.8609 23.8846 20.0142 23.7974C20.6294 23.4509 21.0041 22.9512 20.9523 22.1475L20.9546 22.1545Z" fill="#7DA6D7"/>
<path d="M33.6123 26.3879C33.6123 19.3496 33.6099 12.3136 33.6123 5.27534C33.6123 4.92178 33.5958 4.57528 33.4685 4.24058C34.4938 4.16515 34.8167 4.21229 34.8144 5.4592C34.7932 12.2736 34.805 19.0879 34.805 25.9023C34.805 26.402 34.805 26.4044 34.317 26.402C34.0837 26.402 33.8503 26.3926 33.6146 26.3879H33.6123Z" fill="#A8C3E4"/>
<path d="M26.8568 34.8004C26.7625 34.8051 26.6706 34.8121 26.5763 34.8121C21.6429 34.8121 16.7095 34.8121 11.7761 34.8121C11.6936 34.8121 11.6135 34.8051 11.531 34.8004C11.3612 34.4091 11.366 34.0178 11.531 33.6265C11.6252 33.6218 11.7172 33.6147 11.8115 33.6147C16.7331 33.6147 21.6547 33.6147 26.5763 33.6147C26.6706 33.6147 26.7625 33.6218 26.8568 33.6265C27.0572 34.0178 27.0242 34.4091 26.8568 34.798V34.8004Z" fill="#EAEAF4"/>
<path d="M15.8115 30.6142C18.3383 30.6118 20.8674 30.6094 23.3942 30.6024C23.5804 30.6024 23.6959 30.6613 23.7902 30.8263C24.0401 31.2624 24.3017 31.6937 24.5681 32.1203C24.7071 32.3443 24.6624 32.4315 24.396 32.4221C24.1155 32.4126 23.835 32.4221 23.5545 32.4221C20.8156 32.4221 18.0766 32.4221 15.34 32.4221C15.1656 32.4221 14.9888 32.4433 14.8168 32.3843C14.8686 32.2806 14.9205 32.1769 14.9747 32.0732C15.2434 31.5829 15.5805 31.1304 15.8138 30.6165L15.8115 30.6142Z" fill="#7DA6D7"/>
<path d="M4.92637 4.23822C6.2487 4.2335 7.57339 4.22643 8.89572 4.22643C10.7696 4.22643 12.6435 4.22643 14.5174 4.22643C14.6447 4.22643 14.772 4.22643 14.9134 4.22643C14.4891 5.03963 14.1073 5.43798 13.2163 5.43091C10.5339 5.41205 7.85389 5.42384 5.17151 5.42384C5.04187 5.42384 4.91458 5.41441 4.78494 5.4097C4.75666 5.00899 4.82737 4.62243 4.92873 4.23822H4.92637Z" fill="#EAEAF4"/>
<path d="M19.175 1.21406C19.5145 1.21406 19.8539 1.21642 20.1909 1.21406C20.4667 1.2117 20.5964 1.32013 20.4997 1.60298C20.1862 2.51047 19.9764 3.43916 19.8609 4.39143C19.8303 4.646 19.8303 4.90292 19.8303 5.15984C19.8303 5.35313 19.7478 5.43798 19.5545 5.4262C19.439 5.41913 19.3212 5.4262 19.2033 5.4262C18.5575 5.4262 18.5315 5.4262 18.5009 4.79685C18.449 3.72437 18.185 2.69903 17.8621 1.68548C17.7396 1.29656 17.7891 1.22113 18.1874 1.21642C18.515 1.2117 18.8427 1.21642 19.168 1.21642L19.175 1.21406Z" fill="#7DA6D7"/>
<path d="M33.4661 29.3932C33.6806 28.8228 33.5887 28.2264 33.6123 27.6395C33.9258 27.6348 34.2416 27.6324 34.5551 27.623C34.7295 27.6183 34.8097 27.689 34.805 27.8705C34.7979 28.151 34.8097 28.4291 34.8002 28.7096C34.7861 29.148 34.5339 29.3955 34.0955 29.4073C33.8857 29.412 33.6759 29.4002 33.4685 29.3955L33.4661 29.3932Z" fill="#A8C3E4"/>
<path d="M24.5987 8.52814C24.4738 8.50457 24.3489 8.481 24.2216 8.45743C24.099 8.43621 23.967 8.48335 23.8067 8.382C24.5327 7.98129 24.7661 7.40145 24.4667 6.63539C24.7449 6.62125 25.023 6.58825 25.2988 6.65424C25.6005 6.72731 25.7914 6.91353 25.7938 7.23881C25.7938 7.52873 25.5698 7.7503 25.2375 7.81394C24.7566 7.90586 24.6435 8.03079 24.5964 8.52578L24.5987 8.52814Z" fill="#A8C3E4"/>
<path d="M24.4691 12.5941C24.7071 11.7856 24.6176 11.4745 24.0047 10.9937C23.9599 10.9583 23.8963 10.93 23.9104 10.864C23.9246 10.8004 23.9906 10.7886 24.0495 10.7792C24.231 10.7509 24.4149 10.725 24.5964 10.6967C24.6435 11.1987 24.7519 11.3213 25.2328 11.4132C25.5816 11.4792 25.8032 11.722 25.7961 12.0214C25.7867 12.3278 25.518 12.5847 25.1668 12.6012C24.9358 12.6106 24.7024 12.5965 24.4691 12.5918V12.5941Z" fill="#A8C3E4"/>
<path d="M23.2764 14.9913C23.5215 14.1333 23.4579 13.9518 22.6353 13.2306H23.3966C23.4437 13.6407 23.736 13.7892 24.0872 13.8646C24.4761 13.9495 24.5704 14.0744 24.5445 14.5034C24.5233 14.8334 24.3041 14.9724 24.0118 14.996C23.769 15.0149 23.5215 14.996 23.2764 14.9913Z" fill="#A8C3E4"/>
<path d="M26.8568 34.8004C27.0265 34.4091 27.0572 34.0202 26.8568 33.6289C27.102 33.6242 27.3471 33.61 27.5899 33.6218C27.9434 33.636 28.1744 33.8575 28.1909 34.1781C28.2098 34.5034 27.9741 34.7791 27.6229 34.8074C27.3683 34.8263 27.1114 34.8074 26.8545 34.8027L26.8568 34.8004Z" fill="#A8C3E4"/>
<path d="M25.1008 10.1993C25.1738 9.80804 25.2186 9.41677 25.1008 9.02549C25.3341 9.02313 25.5675 9.00663 25.7985 9.01841C26.1568 9.03727 26.3665 9.25648 26.3713 9.59119C26.376 9.93768 26.1591 10.1828 25.7985 10.204C25.5675 10.2182 25.3341 10.2017 25.1008 10.197V10.1993Z" fill="#A8C3E4"/>
<path d="M21.6429 5.42384C21.0419 5.42384 21.0489 5.42384 21.0301 4.87464C21.023 4.66014 21.0136 4.35843 21.1597 4.29715C21.3695 4.20993 21.6241 4.35843 21.8056 4.53993C21.8386 4.57293 21.8739 4.60357 21.9022 4.63893C22.0719 4.83928 22.2534 5.08677 22.1662 5.32484C22.0837 5.54877 21.7867 5.35548 21.6429 5.42148V5.42384Z" fill="#A8C3E4"/>
<path d="M25.1762 30.6189C25.1715 30.6637 25.1691 30.7084 25.1644 30.7532C25.1173 30.7037 25.0513 30.6542 25.1762 30.6189Z" fill="#EAEAF4"/>
<path d="M1.27287 6.63303C1.25401 6.65424 1.2328 6.67546 1.21394 6.69667C1.20922 6.65189 1.22572 6.63067 1.27287 6.63303Z" fill="#EAEAF4"/>
<path d="M3.00062 16.8181C2.69891 16.8251 2.39484 16.5234 2.39484 16.2194C2.39484 15.9059 2.64705 15.6371 2.95112 15.6254C3.29526 15.6112 3.57811 15.8516 3.59461 16.1746C3.61111 16.4951 3.31883 16.811 3.00062 16.8204V16.8181Z" fill="#2E3192"/>
<path d="M20.9523 22.1545C21.0041 22.9583 20.6294 23.458 20.0142 23.8045C19.8586 23.8917 19.7667 23.9718 19.7478 24.1675C19.7172 24.4763 19.4673 24.5894 19.1986 24.613C18.9157 24.6366 18.706 24.4621 18.6588 24.2076C18.6117 23.9483 18.4703 23.8328 18.2628 23.7267C18.0177 23.6041 17.8315 23.4038 17.6853 23.1752C17.5086 22.8994 17.5557 22.5741 17.7867 22.3808C18.0436 22.1663 18.35 22.1852 18.607 22.435C18.6824 22.5081 18.7437 22.5977 18.8238 22.6637C19.0265 22.8263 19.2505 22.8475 19.4815 22.7297C19.7077 22.6142 19.7737 22.4209 19.7667 22.1757C19.7596 21.9188 19.6417 21.7515 19.4107 21.669C19.3023 21.6289 19.1845 21.6148 19.069 21.6053C18.2416 21.537 17.6241 20.9807 17.3954 20.0897C17.254 19.5452 17.6547 18.6802 18.2345 18.3172C18.416 18.2017 18.5551 18.0909 18.6235 17.867C18.7225 17.5535 18.97 17.412 19.3094 17.4568C19.6158 17.4993 19.7667 17.676 19.7619 17.9777C19.7619 18.1357 19.8798 18.1616 19.9812 18.2111C20.2593 18.3478 20.495 18.5364 20.6741 18.7909C20.8934 19.1068 20.8604 19.4674 20.5964 19.6701C20.3324 19.8705 19.9812 19.8092 19.7289 19.5216C19.4626 19.2176 19.2198 19.1445 18.9322 19.2954C18.6635 19.4344 18.5858 19.6701 18.64 19.9483C18.6989 20.2547 18.9134 20.3891 19.2151 20.4173C19.8232 20.4716 20.3465 20.6861 20.7001 21.2211C20.9028 21.5275 21.0018 21.8528 20.9546 22.1616L20.9523 22.1545Z" fill="#2E3192"/>
</svg>
