<svg width="740" height="429" viewBox="0 0 740 429" fill="none" xmlns="http://www.w3.org/2000/svg">
<path d="M299.222 173.147C278.153 168.855 256.22 160.753 240.327 154.309C169.578 125.638 110.414 164.367 121.232 84.6007C121.745 80.8105 122.447 77.1809 123.322 73.7039C133.582 32.8915 167.592 13.4348 200.591 5.45698L200.864 5.38873C216.649 1.60258 232.181 0.434206 244.761 0.807601C266.825 1.46205 289.741 12.3507 308.908 28.0855C325.52 41.7164 339.311 58.993 347.28 76.394C391.437 172.814 347.597 183.016 299.218 173.151L299.222 173.147Z" fill="#6D89CF"/>
<path d="M299.222 173.148C278.153 168.855 256.22 160.753 240.327 154.309C169.578 125.638 110.414 164.367 121.232 84.6007C121.745 80.8105 122.447 77.181 123.322 73.704C143.056 69.3437 178.867 65.4933 197.706 88.4431C224.582 121.189 224.028 140.67 259.037 142.798C286.868 144.492 297.457 161.115 299.218 173.148H299.222Z" fill="#748FD1"/>
<path d="M734.825 251.805C734.476 257.92 733.878 263.927 733.052 269.813C730.411 288.651 725.444 306.281 718.835 322.433C718.286 323.786 717.72 325.127 717.142 326.452C710.834 341.059 703.187 354.393 694.732 366.261C691.819 370.352 688.806 374.271 685.724 378.005C673.562 392.728 660.253 404.588 647.128 413.06C636.631 419.841 626.251 424.446 616.673 426.618H86.044C-28.5891 216.642 105.846 148.082 234.362 172.413C263.332 177.897 292.006 188.103 317.457 202.473C318.396 203.003 319.343 203.469 320.29 203.874C320.422 203.93 320.559 203.991 320.695 204.043C320.827 204.099 320.968 204.155 321.104 204.208C353.385 216.815 393.341 161.757 425.682 129.781C433.936 121.623 442.029 114.087 449.946 107.161C449.958 107.153 449.97 107.137 449.982 107.129C453.063 104.431 456.121 101.825 459.154 99.3076C478.282 83.4363 496.402 71.1183 513.52 61.928C515.534 60.8439 517.532 59.808 519.518 58.8123C525.052 56.0379 530.485 53.5888 535.805 51.4608C558.062 42.5475 578.442 39.1509 596.952 40.1426C597.919 40.1948 598.878 40.259 599.833 40.3353C600.8 40.4116 601.759 40.4999 602.714 40.6003C628.43 43.3024 650.374 54.6126 668.599 71.3351C696.08 96.5453 715.092 134.057 725.749 172.878C727.863 180.571 729.649 188.316 731.11 196.025C733.172 206.938 734.416 217.622 734.921 228.041C734.966 228.924 735.006 229.807 735.038 230.686C735.078 231.726 735.11 232.762 735.134 233.798C735.134 233.995 735.142 234.188 735.146 234.384C735.266 240.282 735.154 246.092 734.821 251.801L734.825 251.805Z" fill="#2E3192"/>
<path d="M599.836 40.3353V259.217L592.951 267.978L479.991 331.547L414.154 367.666L149.441 222.962L234.362 172.409C263.332 177.893 292.006 188.099 317.457 202.469C318.396 202.999 319.343 203.465 320.29 203.87C320.422 203.926 320.562 203.987 320.695 204.039C320.831 204.095 320.968 204.147 321.104 204.203C353.292 216.706 392.065 160.404 425.682 129.777C426.717 128.838 427.756 127.886 428.796 126.927C429.105 126.642 429.422 126.353 429.731 126.068C430.3 125.542 430.874 125.016 431.444 124.486C432.002 123.972 432.559 123.45 433.117 122.928C433.679 122.41 434.237 121.888 434.798 121.366C435.36 120.844 435.922 120.318 436.484 119.792C437.611 118.74 438.735 117.684 439.87 116.62C440.207 116.303 440.548 115.986 440.885 115.669C441.567 115.03 442.25 114.384 442.936 113.742C443.048 113.637 443.164 113.529 443.273 113.424C444.071 112.674 444.87 111.923 445.672 111.172C447.089 109.839 448.517 108.498 449.95 107.157C449.962 107.149 449.974 107.133 449.986 107.125C453.067 104.427 456.125 101.821 459.158 99.3036C478.286 83.4323 496.406 71.1143 513.524 61.9239C515.538 60.8399 517.536 59.804 519.522 58.8083C548.22 44.4225 574.02 38.9099 596.952 40.1385C597.919 40.1907 598.877 40.2549 599.832 40.3312L599.836 40.3353Z" fill="#3662C1"/>
<path d="M596.957 40.1426C578.447 39.1509 558.072 42.5475 535.81 51.4608C530.542 53.5687 525.165 55.9857 519.684 58.732C519.628 58.7561 519.58 58.7882 519.524 58.8123C519.006 59.0733 518.488 59.3343 517.967 59.5993C516.49 60.3501 515.009 61.125 513.521 61.928C496.403 71.1183 478.283 83.4363 459.155 99.3076C456.122 101.825 453.064 104.431 449.983 107.129C449.971 107.137 449.959 107.153 449.947 107.161C448.514 108.502 447.086 109.843 445.669 111.176C445.441 111.389 445.216 111.598 444.991 111.81C444.414 112.352 443.844 112.89 443.27 113.428C443.158 113.533 443.041 113.641 442.933 113.746C442.247 114.388 441.565 115.034 440.883 115.673C440.546 115.99 440.208 116.307 439.867 116.624C438.736 117.688 437.608 118.744 436.481 119.796C435.919 120.326 435.353 120.848 434.796 121.37C434.234 121.892 433.676 122.414 433.114 122.932C432.557 123.454 431.999 123.972 431.441 124.49C430.558 125.309 429.676 126.124 428.797 126.931V262.216H599.834V40.3313C598.879 40.255 597.92 40.1907 596.953 40.1385L596.957 40.1426Z" fill="#4250CF"/>
<path d="M738.49 428.578H1.08064C0.542963 428.578 0.101562 428.136 0.101562 427.598C0.101562 427.06 0.542963 426.618 1.08064 426.618H738.49C739.027 426.618 739.469 427.06 739.469 427.598C739.469 428.136 739.027 428.578 738.49 428.578Z" fill="#2E3192"/>
<path d="M432.719 366.068L442.016 386.384L459.928 425.53C460.232 426.189 460.891 426.614 461.617 426.614H461.765C463.081 426.614 464.032 425.358 463.679 424.093L449.459 373.175L447.384 365.747L432.719 366.068Z" fill="#426BC5"/>
<path d="M442.016 386.384C441.129 377.146 449.459 373.175 449.459 373.175L447.384 365.747L432.719 366.068L442.016 386.384Z" fill="#3A49CD"/>
<path d="M528.754 366.068L538.051 386.384L555.967 425.53C556.272 426.189 556.93 426.614 557.656 426.614H557.804C559.12 426.614 560.071 425.358 559.718 424.093L545.498 373.175L543.424 365.747L528.758 366.068H528.754Z" fill="#426BC5"/>
<path d="M538.051 386.384C537.164 377.146 545.494 373.175 545.494 373.175L543.42 365.747L528.754 366.068L538.051 386.384Z" fill="#3A49CD"/>
<path d="M131.699 326.051H555.949C558.068 326.051 559.789 327.773 559.789 329.893V363.828C559.789 365.948 558.068 367.67 555.949 367.67H131.699C129.581 367.67 127.859 365.948 127.859 363.828V329.893C127.859 327.773 129.581 326.051 131.699 326.051Z" fill="#426BC5"/>
<path d="M147.056 365.747L144.982 373.175L130.762 424.093C130.409 425.362 131.36 426.614 132.676 426.614H132.824C133.55 426.614 134.208 426.189 134.513 425.53L152.429 386.388L161.726 366.068L147.06 365.747H147.056Z" fill="#3A49CD"/>
<path d="M222.724 365.747L220.65 373.175L206.43 424.093C206.077 425.362 207.028 426.614 208.344 426.614H208.492C209.218 426.614 209.876 426.189 210.181 425.53L228.093 386.388L237.39 366.068L222.724 365.747Z" fill="#3A49CD"/>
<path d="M127.262 222.962H284.592C287.441 222.962 289.752 225.274 289.752 228.125V362.503C289.752 365.354 287.441 367.666 284.592 367.666H127.262C124.413 367.666 122.102 365.354 122.102 362.503V228.125C122.102 225.274 124.413 222.962 127.262 222.962Z" fill="#3A49CD"/>
<path d="M131.699 222.962H291.674C293.792 222.962 295.514 224.684 295.514 226.804V343.018C295.514 345.138 293.792 346.86 291.674 346.86H131.699C129.581 346.86 127.859 345.138 127.859 343.018V226.804C127.859 224.684 129.581 222.962 131.699 222.962Z" fill="#6D89CF"/>
<path d="M295.514 298.897V343.018C295.514 345.13 293.784 346.86 291.674 346.86H131.699C129.589 346.86 127.859 345.13 127.859 343.018V226.804C127.859 224.692 129.589 222.962 131.699 222.962H149.447C160.617 237.191 201.272 282.464 272.955 292.14C282.485 293.429 289.884 295.762 295.51 298.893L295.514 298.897Z" fill="#426BC5"/>
<path d="M158.342 337.148C158.342 337.148 128.907 334.799 127.859 334.077V307.044C134.067 301.17 146.253 294.485 146.253 294.485L158.338 337.152L158.342 337.148Z" fill="#4250CF"/>
<path d="M167.215 257.539C167.215 256.302 168.218 255.298 169.454 255.298C170.69 255.298 171.693 256.302 171.693 257.539C171.693 258.775 170.69 259.779 169.454 259.779C168.218 259.779 167.215 258.775 167.215 257.539Z" fill="#4250CF"/>
<path d="M256.797 257.539C256.797 256.302 257.8 255.298 259.036 255.298C260.272 255.298 261.275 256.302 261.275 257.539C261.275 258.775 260.272 259.779 259.036 259.779C257.8 259.779 256.797 258.775 256.797 257.539Z" fill="#4250CF"/>
<path d="M167.215 299.797C167.215 298.56 168.218 297.556 169.454 297.556C170.69 297.556 171.693 298.56 171.693 299.797C171.693 301.033 170.69 302.037 169.454 302.037C168.218 302.037 167.215 301.033 167.215 299.797Z" fill="#4250CF"/>
<path d="M256.797 299.797C256.797 298.56 257.8 297.556 259.036 297.556C260.272 297.556 261.275 298.56 261.275 299.797C261.275 301.033 260.272 302.037 259.036 302.037C257.8 302.037 256.797 301.033 256.797 299.797Z" fill="#4250CF"/>
<path d="M418.051 329.893V363.828C418.051 365.94 416.298 367.67 414.159 367.67H127.631C125.488 367.67 123.734 365.94 123.734 363.828V329.893C123.734 327.781 125.488 326.051 127.631 326.051H414.159C416.302 326.051 418.051 327.781 418.051 329.893Z" fill="#3A49CD"/>
<path d="M217.124 295.316C217.124 295.316 214.243 319.008 217.124 326.902H227.898C227.898 326.902 224.912 299.584 217.124 295.316Z" fill="#010117"/>
<path d="M217.125 295.316C217.125 295.316 246.561 287.952 267.678 286.993C267.678 286.993 287.195 303.322 289.755 326.051L225.527 326.906C225.527 326.906 225.126 309.405 217.129 295.32L217.125 295.316Z" fill="#6D89CF"/>
<path d="M146.254 294.485C146.254 294.485 140.532 314.632 154.504 326.071L187.883 325.942C187.883 325.942 154.038 298.753 146.254 294.485Z" fill="#6D89CF"/>
<path d="M146.254 294.485C146.254 294.485 175.69 287.121 196.807 286.162C196.807 286.162 216.998 303.342 219.558 326.075H183.622C183.622 326.075 157.031 320.289 146.258 294.489L146.254 294.485Z" fill="#9CB9F5"/>
<path d="M217.027 290.57C208.461 292.457 204.055 288.651 200.592 284.732C200.307 284.407 200.03 284.09 199.758 283.769C196.463 279.906 180.835 266.721 172.577 276.474C171.794 277.397 171.076 278.525 170.442 279.89C170.442 279.89 167.77 280.862 167.056 281.797C167.056 281.797 167.866 281.267 168.56 281.292C167.132 282.516 165.298 284.479 164.572 286.957C164.171 288.31 164.592 290.478 165.619 293.06C166.883 296.239 169.07 300.05 171.778 303.747C177.504 311.557 185.569 318.864 192.242 318.703C190.465 318.049 187.696 316.515 183.627 312.946C184.197 313.395 189.51 317.547 194.008 318.487C206.679 316.094 228.391 330.576 231.208 334.085C231.208 334.085 237.262 320.426 237.688 314.973C238.486 304.659 235.276 286.563 217.039 290.578L217.027 290.57Z" fill="#9E332E"/>
<path d="M181.229 322.927C181.229 322.927 177.449 321.727 174.684 321.646C171.916 321.566 165.488 326.011 165.885 326.071C166.282 326.131 184.362 326.071 184.362 326.071L181.229 322.927Z" fill="#EA8888"/>
<path d="M193.24 318.611C193.216 318.663 196.028 324.629 200.623 320.968C203.64 318.563 207.621 309.906 205.089 307.666C203.885 306.602 199.138 305.02 193.208 297.849L192.75 298.411L185.07 307.907C185.07 307.907 187.695 310.629 189.974 313.351C191.888 315.636 193.561 317.924 193.24 318.607V318.611Z" fill="#FC9290"/>
<path d="M192.732 296.384C192.732 296.384 191.404 289.948 188.716 285.949C186.798 283.09 176.835 275.249 169.014 285.319C169.014 285.319 166.627 288.125 165.764 292.192C165.078 295.428 165.006 301.049 175.795 305.867L179.19 307.734L192.728 296.384H192.732Z" fill="#9E332E"/>
<path d="M186.508 312.187C186.508 312.187 198.096 301.358 191.246 294.24C184.397 287.121 181.279 280.93 173.587 287.543C165.899 294.156 167.095 298.235 168.804 301.17C170.514 304.101 183.314 314.821 186.504 312.187H186.508Z" fill="#FCA09E"/>
<path d="M168.22 292.385C168.22 292.385 179.39 297.709 185.373 294.316C191.356 290.919 192.194 287.627 192.194 287.627C192.194 287.627 185.698 288.253 180.016 283.889C180.016 283.889 166.747 286.138 168.22 292.385Z" fill="#9E332E"/>
<path d="M169.652 292.317C169.652 292.317 169.114 296.432 170.294 298.793C171.469 301.154 174.812 305.129 173.604 306.048C173.604 306.048 165.784 302.651 165.334 296.89C164.857 290.783 169.656 292.317 169.656 292.317H169.652Z" fill="#9E332E"/>
<path d="M181.261 309.75C181.261 309.75 182.464 310.183 183.62 309.69C185.237 308.999 185.317 306.217 184.968 305.381C184.968 305.381 182.545 306.947 182.521 307.955C182.513 308.381 180.996 308.533 181.257 309.75H181.261Z" fill="#EB8D8D"/>
<path d="M475.347 352.164C475.347 352.164 443.411 330.166 416.644 326.553C414.244 326.227 411.885 326.051 409.598 326.051C396.926 326.051 378.493 328.078 359.281 332.555C336.285 337.907 312.174 346.768 295.514 359.849C264.927 383.859 198.448 393.463 198.448 393.463C162.456 360.307 175.894 331.997 176.857 326.906C176.905 326.645 177.025 326.36 177.206 326.051C180.544 320.353 204.94 306.871 202.019 292.144C199.423 279.063 210.526 274.402 230.135 271.696C233.79 271.194 237.746 270.756 241.963 270.343C292.958 265.376 333.324 288.462 370.737 286.989C381.514 286.563 391.549 287.005 400.834 288.081H400.846C401.131 288.113 401.412 288.149 401.693 288.181C401.721 288.181 401.753 288.189 401.781 288.193C459.686 295.207 488.307 326.902 488.307 326.902C489.266 339.577 475.351 352.16 475.351 352.16L475.347 352.164Z" fill="#BED2FA"/>
<path d="M711.407 319.819C714.176 320.032 716.499 321.076 718.839 322.433C725.447 306.281 730.415 288.651 733.055 269.813C727.317 277.915 719.24 288.507 716.01 288.912C710.749 289.566 726.852 262.277 726.852 262.277C716.664 261.289 690.703 273.788 690.703 273.788C690.703 273.788 692.348 306.012 687.088 305.353C681.831 304.695 687.088 276.747 687.088 276.747C677.229 279.71 668.028 291.213 668.028 291.213C656.528 309.959 681.173 323.77 681.173 323.77C681.173 323.77 681.502 334.948 674.601 347.772C674.601 347.772 665.926 360.953 668.706 378.005H661.071C662.535 365.735 656.412 356.428 656.412 356.428C651.18 346.7 651.429 338.22 651.429 338.22C651.429 338.22 670.123 327.741 661.4 313.524C661.4 313.524 654.422 304.795 646.943 302.551C646.943 302.551 650.931 323.754 646.943 324.252C642.954 324.75 644.202 300.307 644.202 300.307C644.202 300.307 624.509 290.831 616.781 291.574C616.781 291.574 628.995 312.279 625.01 311.781C621.022 311.284 607.307 290.329 607.307 290.329C607.307 290.329 587.116 286.587 583.874 298.56C580.632 310.533 585.872 316.519 588.862 317.27C591.851 318.021 611.047 317.768 610.549 320.265C610.052 322.758 597.087 326.753 589.857 324.505C589.857 324.505 597.838 344.215 608.306 343.215C618.779 342.215 622.017 335.735 628.497 335.233C634.977 334.735 639.716 336.478 636.478 338.228C633.236 339.975 622.266 338.798 617.033 343.255C611.801 347.708 607.56 350.45 617.282 352.445C627.004 354.441 644.455 353.196 647.946 345.708C649.739 346.76 652.436 351.763 654.301 355.593C654.566 356.244 654.984 357.135 655.606 358.351C655.858 358.91 656.063 359.367 656.203 359.684C658.358 365.077 658.438 372.922 658.202 378.017H630.483V379.498H632.096C632.494 392.712 638.191 404.588 647.135 413.072C660.26 404.6 673.57 392.74 685.731 378.017H678.268C679.46 375.407 680.912 372.854 682.614 370.991C682.81 370.786 683.075 370.517 683.388 370.196C684.235 369.413 684.821 368.831 685.218 368.393C687.81 365.904 691.393 362.728 693.118 362.419C693.118 362.419 693.034 362.101 693.046 361.551C693.07 361.828 693.094 362.114 693.118 362.419C693.235 363.744 693.817 365.04 694.743 366.273C703.198 354.409 710.842 341.071 717.153 326.464C710.673 325.147 703.659 325.268 700.899 323.778C696.625 321.478 702.869 319.173 711.415 319.832L711.407 319.819ZM647.95 345.68C648.098 345.359 648.243 345.058 648.375 344.761C648.19 345.303 647.994 345.612 647.95 345.68ZM685.772 333.623C685.735 333.575 685.463 333.157 685.202 332.395C685.382 332.788 685.571 333.193 685.772 333.623ZM683.296 368.425C683.296 368.425 678.774 371.782 675.612 378.001H672.346C671.944 371.468 671.788 359.817 674.89 352.044C675.074 351.626 675.339 351.032 675.676 350.301C676.499 348.683 677.056 347.499 677.406 346.64C679.865 341.589 683.412 335.008 685.776 333.627C686.365 334.884 687.252 336.004 688.376 337.004C683.882 345.375 692.525 355.465 692.525 355.465C692.525 355.465 690.258 362.246 683.296 368.421V368.425ZM699.9 342.163C700.987 342.412 702.106 342.625 703.246 342.805C702.098 344.869 700.987 346.162 700.128 345.716C699.346 345.315 699.394 343.954 699.9 342.163Z" fill="#B0E4BD"/>
<path d="M183.308 45.4384L186.037 24.468L189.215 45.3259C189.403 46.5706 190.266 47.6105 191.453 48.024L200.233 50.5816L191.466 52.7416C190.089 53.1472 189.002 54.2071 188.556 55.5722L186.033 65.0436L183.754 55.3233C183.433 54.1991 182.482 53.372 181.322 53.2114L162.23 50.5816L181.153 47.6466C182.281 47.4699 183.16 46.5706 183.308 45.4384Z" fill="white"/>
<path d="M114.102 153.932L116.032 139.1L118.279 153.851C118.411 154.731 119.021 155.465 119.864 155.758L126.071 157.569L119.872 159.095C118.897 159.38 118.13 160.131 117.813 161.098L116.028 167.795L114.415 160.922C114.19 160.127 113.516 159.541 112.697 159.428L99.1914 157.569L112.577 155.493C113.376 155.369 113.997 154.735 114.098 153.932H114.102Z" fill="#F33333"/>
<path d="M159.557 192.235L164.701 185.024L161.76 193.359C161.584 193.857 161.7 194.411 162.057 194.8L164.798 197.478L161.13 196.543C160.54 196.422 159.93 196.599 159.497 197.013L156.696 200.016L157.772 195.973C157.876 195.495 157.687 195.001 157.29 194.712L150.754 189.966L158.325 192.62C158.779 192.777 159.28 192.62 159.557 192.231V192.235Z" fill="white"/>
<path d="M240.579 209.58L243.789 205.083L241.955 210.282C241.847 210.591 241.915 210.937 242.14 211.182L243.849 212.852L241.562 212.27C241.193 212.193 240.812 212.302 240.543 212.563L238.797 214.434L239.467 211.912C239.532 211.615 239.415 211.306 239.167 211.125L235.09 208.166L239.813 209.82C240.093 209.921 240.406 209.82 240.579 209.576V209.58Z" fill="#FA7269"/>
<path d="M388.123 46.7472L397.612 27.8527L393.736 48.5901C393.503 49.8267 393.977 51.0915 394.96 51.8784L402.403 57.1903L393.415 56.3351C391.983 56.2628 390.606 56.9052 389.736 58.0454L384.23 66.1557L385.282 56.2307C385.35 55.0623 384.724 53.9662 383.685 53.4362L366.527 44.6514L385.358 48.1244C386.481 48.3332 387.605 47.7711 388.119 46.7513L388.123 46.7472Z" fill="#F55454"/>
<path d="M315.124 139.783L317.853 118.812L321.031 139.67C321.22 140.915 322.082 141.955 323.27 142.368L332.049 144.926L323.282 147.086C321.906 147.492 320.818 148.552 320.373 149.917L317.849 159.388L315.57 149.668C315.249 148.544 314.298 147.716 313.138 147.556L294.047 144.926L312.97 141.987C314.097 141.81 314.976 140.911 315.124 139.779V139.783Z" fill="white"/>
<path d="M243.337 117.303L244.123 111.264L245.038 117.271C245.094 117.628 245.339 117.929 245.684 118.05L248.212 118.788L245.688 119.411C245.291 119.527 244.978 119.832 244.849 120.226L244.123 122.952L243.465 120.153C243.373 119.828 243.1 119.591 242.763 119.543L237.262 118.784L242.711 117.937C243.036 117.885 243.288 117.628 243.333 117.303H243.337Z" fill="white"/>
<path d="M160.656 105.149C160.656 104.282 161.358 103.576 162.229 103.576C163.1 103.576 163.802 104.278 163.802 105.149C163.802 106.021 163.1 106.723 162.229 106.723C161.358 106.723 160.656 106.021 160.656 105.149Z" fill="white"/>
<path d="M320.395 99.5927C320.395 98.2798 321.458 97.2158 322.77 97.2158C324.082 97.2158 325.145 98.2798 325.145 99.5927C325.145 100.906 324.082 101.97 322.77 101.97C321.458 101.97 320.395 100.906 320.395 99.5927Z" fill="white"/>
<path d="M280.855 47.0042C280.855 46.3819 281.357 45.88 281.979 45.88C282.601 45.88 283.102 46.3819 283.102 47.0042C283.102 47.6265 282.597 48.1284 281.979 48.1284C281.361 48.1284 280.855 47.6225 280.855 47.0042Z" fill="white"/>
<path d="M226.516 31.5826C226.516 31.3537 226.704 31.165 226.933 31.165C227.162 31.165 227.35 31.3537 227.35 31.5826C227.35 31.8114 227.162 32.0001 226.933 32.0001C226.704 32.0001 226.516 31.8114 226.516 31.5826Z" fill="white"/>
<path d="M495.102 310.87C487.467 303.23 472.215 304.089 465.614 304.908C466.016 302.968 465.799 300.941 464.671 299.728C464.663 299.7 464.656 299.676 464.647 299.644C462.746 293.858 460.539 293.477 460.539 293.477C459.247 295.043 458.673 296.721 458.428 298.138C457.345 298.155 456.301 298.251 455.395 298.367C453.613 293.806 451.747 293.477 451.747 293.477C448.858 296.978 449.568 301.033 449.464 301.471C449.464 301.471 450.03 301.74 450.832 302.037C449.488 307.77 458.556 310.565 461.75 310.019C462.457 309.898 463.111 309.485 463.676 308.887L469.731 326.051H500.319C500.319 326.051 504.933 320.707 495.098 310.87H495.102Z" fill="#7375B6"/>
<path d="M218.008 71.6403C218.008 71.1786 218.381 70.8052 218.842 70.8052C219.304 70.8052 219.677 71.1786 219.677 71.6403C219.677 72.102 219.304 72.4754 218.842 72.4754C218.381 72.4754 218.008 72.102 218.008 71.6403Z" fill="white"/>
<path d="M268.285 128.2C268.285 127.577 268.791 127.075 269.409 127.075C270.027 127.075 270.532 127.581 270.532 128.2C270.532 128.818 270.031 129.324 269.409 129.324C268.787 129.324 268.285 128.822 268.285 128.2Z" fill="white"/>
<path opacity="0.05" d="M602.719 40.6003V118.21C601.764 118.439 600.801 118.64 599.838 118.816C598.883 118.993 597.92 119.146 596.957 119.274C586.685 120.639 576.257 119.158 566.077 113.545C529.688 93.4939 530.306 67.8099 535.815 51.4608C558.072 42.5475 578.452 39.1509 596.961 40.1426C597.928 40.1948 598.887 40.259 599.842 40.3353C600.809 40.4116 601.768 40.4999 602.723 40.6003H602.719Z" fill="#93B3F4"/>
<path d="M400.825 288.085C383.852 286.856 325.964 318.595 302.743 297.556C279.065 276.108 230.125 271.696 230.125 271.696C233.78 271.194 237.737 270.756 241.954 270.343C292.949 265.376 333.314 288.462 370.727 286.989C381.505 286.563 391.54 287.005 400.825 288.081V288.085Z" fill="#DDE8FD"/>
<path d="M488.303 326.906C461.873 339.581 417.414 290.799 401.777 288.197C459.682 295.211 488.303 326.906 488.303 326.906Z" fill="#DDE8FD"/>
<path d="M359.281 332.551C336.285 337.903 312.174 346.764 295.514 359.845C264.927 383.855 198.448 393.458 198.448 393.458C162.456 360.303 175.894 331.993 176.857 326.902C176.905 326.641 177.025 326.356 177.206 326.047C177.206 326.047 189.809 343.656 219.562 345.254C241.53 346.435 310.762 338.569 359.289 332.547L359.281 332.551Z" fill="#6D89CF"/>
<path d="M416.644 326.051V326.553C414.244 326.227 411.885 326.051 409.598 326.051H416.644Z" fill="#100C57"/>
<path d="M554.945 74.8121C554.945 69.4159 559.315 65.0436 564.708 65.0436C570.101 65.0436 574.47 69.4159 574.47 74.8121C574.47 80.2082 570.101 84.5806 564.708 84.5806C559.315 84.5806 554.945 80.2082 554.945 74.8121Z" fill="#93B3F4"/>
<path opacity="0.9" d="M596.961 192.52V257.539H431.449V124.49C432.007 123.976 432.565 123.454 433.122 122.932C434.242 121.892 435.361 120.844 436.489 119.796C437.616 118.744 438.74 117.688 439.875 116.624C440.213 116.307 440.553 115.99 440.891 115.673C441.573 115.034 442.255 114.388 442.941 113.746C443.053 113.641 443.17 113.533 443.282 113.428C443.856 112.89 444.426 112.348 445.003 111.81C445.228 111.598 445.453 111.389 445.682 111.176C447.098 109.843 448.526 108.502 449.959 107.161C449.971 107.153 449.983 107.137 449.999 107.129C453.081 104.431 456.138 101.825 459.172 99.3076C469.275 123.361 486.099 151.266 513.537 170.265C515.483 171.614 517.481 172.915 519.536 174.167C539.658 186.445 565.033 193.985 596.965 192.52H596.961Z" fill="#3A49CD"/>
<path d="M599.838 40.3353C598.883 40.259 597.924 40.1948 596.957 40.1426V262.216H431.445V124.486C430.563 125.305 429.68 126.12 428.801 126.927L425.688 129.777V267.978H602.719V40.5963C601.764 40.4919 600.805 40.4076 599.838 40.3313V40.3353Z" fill="#100C57"/>
<path d="M618.389 267.982H408.676C408.676 262.212 413.35 257.539 419.112 257.539H607.953C613.719 257.539 618.389 262.216 618.389 267.982Z" fill="#100C57"/>
<path d="M519.53 58.8124V257.539H513.531V61.928C515.546 60.844 517.544 59.8081 519.53 58.8124Z" fill="#100C57"/>
<path d="M247.25 80.9831C232.496 86.303 223.063 91.2655 220.763 92.5182C220.442 92.6949 220.294 93.0562 220.402 93.3894C220.575 93.9114 221.233 94.1242 221.71 93.815C224.539 91.9721 233.531 86.4636 247.451 81.4448C263.099 75.8037 288.306 68.649 318.44 65.7703C287.058 68.7695 262.927 75.3259 247.242 80.9831H247.25Z" fill="white"/>
<path d="M200.594 284.728C200.594 284.728 188.841 279.842 184.363 277.068C179.885 274.293 172.574 276.469 172.574 276.469C180.832 266.717 196.465 279.906 199.755 283.765C200.028 284.086 200.305 284.403 200.59 284.728H200.594Z" fill="#ED6966"/>
<path d="M584.402 96.1839C584.402 95.7704 584.735 95.4371 585.149 95.4371C585.562 95.4371 585.895 95.7704 585.895 96.1839C585.895 96.5975 585.562 96.9307 585.149 96.9307C584.735 96.9307 584.402 96.5975 584.402 96.1839Z" fill="#93B3F4"/>
<path d="M528.465 76.683C528.465 76.2253 528.834 75.856 529.291 75.856C529.749 75.856 530.122 76.2253 530.122 76.683C530.122 77.1408 529.753 77.5142 529.291 77.5142C528.83 77.5142 528.465 77.1448 528.465 76.683Z" fill="#93B3F4"/>
<path d="M565.008 113.545C565.008 113.252 565.245 113.011 565.542 113.011C565.838 113.011 566.075 113.248 566.075 113.545C566.075 113.842 565.834 114.079 565.542 114.079C565.249 114.079 565.008 113.842 565.008 113.545Z" fill="#93B3F4"/>
<path d="M490.766 105.362C490.766 104.949 491.099 104.615 491.512 104.615C491.925 104.615 492.258 104.949 492.258 105.362C492.258 105.776 491.925 106.109 491.512 106.109C491.099 106.109 490.766 105.776 490.766 105.362Z" fill="#93B3F4"/>
<path d="M501.645 136.523C501.645 136.23 501.881 135.989 502.178 135.989C502.475 135.989 502.712 136.23 502.712 136.523C502.712 136.816 502.475 137.057 502.178 137.057C501.881 137.057 501.645 136.82 501.645 136.523Z" fill="#93B3F4"/>
<path d="M472.071 359.239C471.734 358.978 473.066 352.562 475.341 352.164C477.617 351.767 479.964 359.239 479.964 359.239C479.964 359.239 475.911 362.226 472.071 359.239Z" fill="#6D89CF"/>
<path d="M198.444 393.458C198.444 393.458 193.934 395.093 193.188 399.043C193.188 399.043 195.105 403.524 200.013 403.099C200.013 403.099 201.249 400.043 198.444 393.458Z" fill="#6D89CF"/>
<path d="M734.881 228.049C726.455 229.353 722.872 238.162 709.281 240.523C695.691 242.884 683.276 217.923 683.276 217.923C692.954 220.127 709.502 213.603 709.903 210.286C710.304 206.974 685.23 209.238 681.242 208.56C677.253 207.885 669.806 200.582 672.836 184.598C675.869 168.615 702.653 171.469 702.653 171.469C702.653 171.469 722.687 197.486 727.955 197.735C733.22 197.98 715.159 172.144 715.159 172.144C717.8 171.682 721.596 172.063 725.753 172.878C727.867 180.571 729.653 188.316 731.113 196.025C733.176 206.938 734.419 217.622 734.925 228.041C734.909 228.041 734.897 228.041 734.881 228.049Z" fill="#00A82A"/>
<path d="M431.444 124.49V257.539H429.73V126.072C430.3 125.546 430.874 125.02 431.444 124.49Z" fill="#446DC5"/>
<path d="M519.69 58.7321V257.539H517.977V59.5993C518.494 59.3343 519.012 59.0693 519.533 58.8124C519.586 58.7883 519.638 58.7561 519.694 58.7321H519.69Z" fill="#446DC5"/>
<path d="M308.91 28.0855C278.291 28.5914 253.698 50.5334 230.125 47.0042C199.678 42.4472 200.593 5.45698 200.593 5.45698L200.866 5.38873C216.651 1.60258 232.183 0.434206 244.762 0.807601C266.827 1.46205 289.742 12.3507 308.91 28.0855Z" fill="#748FD1"/>
<path d="M402.308 128.914L379.02 141.248L391.318 124.281L393.424 127.541L399.784 126.477L402.308 128.914Z" fill="#E75755"/>
<path d="M379.02 141.248L395.659 123.361L415.317 115.155L379.02 141.248Z" fill="#A83F3F"/>
<path d="M391.318 124.281L379.02 141.248L385.391 119.35L391.318 124.281Z" fill="#A83F3F"/>
<path d="M159.047 109.486L184.803 115.034L168.368 102.042L167.224 105.756L160.816 106.454L159.047 109.486Z" fill="#E75755"/>
<path d="M184.804 115.034L163.943 102.339L142.797 99.7733L184.804 115.034Z" fill="#A83F3F"/>
<path d="M168.367 102.042L184.802 115.034L172.733 95.6901L168.367 102.042Z" fill="#A83F3F"/>
<path d="M285.546 248.742C285.117 248.742 284.743 248.425 284.683 247.987C284.671 247.899 284.398 245.787 284.398 242.346C284.398 242.041 284.398 241.728 284.406 241.402C284.414 240.921 284.812 240.551 285.289 240.543C285.771 240.551 286.152 240.945 286.144 241.427C286.14 241.744 286.136 242.049 286.136 242.346C286.136 245.662 286.405 247.738 286.405 247.762C286.469 248.24 286.132 248.678 285.654 248.738C285.614 248.742 285.578 248.746 285.538 248.746L285.546 248.742ZM285.747 235.328C285.711 235.328 285.678 235.328 285.642 235.32C285.165 235.264 284.824 234.83 284.884 234.352C285.169 231.991 285.578 229.651 286.108 227.394C286.216 226.924 286.686 226.635 287.151 226.744C287.62 226.852 287.909 227.322 287.801 227.788C287.287 229.98 286.886 232.256 286.609 234.557C286.557 234.999 286.18 235.324 285.747 235.324V235.328ZM288.941 221.793C288.84 221.793 288.74 221.777 288.64 221.741C288.19 221.576 287.958 221.075 288.122 220.625C288.945 218.38 289.912 216.204 290.995 214.157C291.22 213.731 291.745 213.571 292.171 213.795C292.596 214.02 292.756 214.546 292.532 214.972C291.489 216.947 290.554 219.051 289.755 221.223C289.627 221.576 289.294 221.793 288.937 221.793H288.941ZM438.543 212.326C438.069 212.326 437.68 211.944 437.672 211.467C437.668 210.985 438.049 210.591 438.531 210.587C440.874 210.559 443.165 210.379 445.344 210.057C445.817 209.985 446.263 210.314 446.331 210.792C446.399 211.266 446.074 211.712 445.597 211.78C443.342 212.117 440.97 212.302 438.547 212.33H438.535L438.543 212.326ZM431.597 212.013C431.569 212.013 431.541 212.013 431.513 212.009C429.29 211.792 426.946 211.455 424.555 211.009C424.082 210.921 423.773 210.467 423.857 209.993C423.945 209.519 424.399 209.206 424.872 209.295C427.219 209.732 429.51 210.061 431.685 210.274C432.163 210.322 432.512 210.748 432.468 211.226C432.424 211.675 432.046 212.013 431.601 212.013H431.597ZM452.249 210.234C451.88 210.234 451.535 209.997 451.419 209.624C451.274 209.166 451.531 208.676 451.989 208.532C454.155 207.849 456.274 206.982 458.288 205.954C458.717 205.737 459.239 205.906 459.46 206.331C459.676 206.761 459.508 207.283 459.079 207.504C456.98 208.576 454.769 209.479 452.51 210.19C452.422 210.218 452.334 210.23 452.249 210.23V210.234ZM295.457 209.539C295.276 209.539 295.096 209.483 294.943 209.371C294.558 209.086 294.474 208.54 294.759 208.154C296.159 206.251 297.712 204.444 299.377 202.786C299.718 202.449 300.268 202.449 300.609 202.786C300.946 203.127 300.946 203.678 300.609 204.019C299.008 205.613 297.511 207.351 296.163 209.186C295.995 209.419 295.73 209.539 295.461 209.539H295.457ZM417.918 209.515C417.846 209.515 417.774 209.507 417.702 209.487C415.571 208.945 413.3 208.303 410.961 207.588C410.503 207.448 410.243 206.962 410.383 206.5C410.523 206.042 411.009 205.781 411.47 205.922C413.782 206.633 416.024 207.263 418.127 207.801C418.592 207.917 418.873 208.391 418.757 208.857C418.657 209.25 418.304 209.511 417.914 209.511L417.918 209.515ZM404.605 205.464C404.513 205.464 404.416 205.448 404.32 205.416C402.302 204.721 400.151 203.951 397.748 203.063C397.298 202.895 397.065 202.397 397.234 201.947C397.398 201.497 397.9 201.265 398.349 201.433C400.741 202.316 402.879 203.083 404.886 203.774C405.339 203.931 405.58 204.424 405.423 204.882C405.299 205.243 404.962 205.468 404.601 205.468L404.605 205.464ZM464.54 203.866C464.283 203.866 464.03 203.754 463.857 203.537C463.561 203.16 463.621 202.614 463.998 202.312C465.735 200.931 467.372 199.345 468.857 197.595C469.17 197.229 469.716 197.185 470.085 197.494C470.454 197.804 470.494 198.354 470.185 198.723C468.624 200.562 466.907 202.228 465.081 203.678C464.921 203.806 464.732 203.866 464.54 203.866ZM391.532 200.666C391.428 200.666 391.324 200.646 391.223 200.61L388.547 199.59C387.267 199.1 385.991 198.615 384.719 198.129C384.27 197.96 384.045 197.454 384.213 197.005C384.386 196.555 384.887 196.33 385.337 196.499C386.609 196.981 387.889 197.47 389.169 197.96L391.841 198.98C392.291 199.153 392.515 199.655 392.343 200.104C392.21 200.454 391.881 200.666 391.528 200.666H391.532ZM305.271 199.763C305.003 199.763 304.738 199.638 304.569 199.406C304.284 199.016 304.369 198.474 304.758 198.189C306.624 196.824 308.638 195.559 310.745 194.435C311.17 194.21 311.695 194.367 311.92 194.792C312.145 195.218 311.988 195.744 311.563 195.969C309.529 197.057 307.587 198.273 305.785 199.594C305.629 199.707 305.452 199.763 305.271 199.763ZM378.504 195.748C378.403 195.748 378.303 195.732 378.207 195.696C375.803 194.82 373.66 194.07 371.658 193.403C371.201 193.251 370.956 192.757 371.109 192.303C371.261 191.845 371.755 191.6 372.208 191.753C374.226 192.428 376.381 193.182 378.801 194.062C379.25 194.226 379.483 194.724 379.318 195.178C379.19 195.531 378.857 195.752 378.5 195.752L378.504 195.748ZM473.532 193.351C473.383 193.351 473.231 193.311 473.09 193.231C472.677 192.986 472.537 192.452 472.781 192.038C473.897 190.139 474.912 188.075 475.791 185.907C475.971 185.461 476.477 185.249 476.922 185.429C477.368 185.61 477.58 186.116 477.4 186.562C476.489 188.806 475.438 190.946 474.278 192.917C474.117 193.194 473.825 193.347 473.528 193.347L473.532 193.351ZM317.473 193.202C317.124 193.202 316.791 192.99 316.659 192.644C316.486 192.195 316.711 191.693 317.161 191.52C319.287 190.705 321.542 189.986 323.865 189.376C324.327 189.256 324.804 189.533 324.929 189.998C325.049 190.464 324.772 190.938 324.307 191.062C322.048 191.657 319.853 192.355 317.782 193.146C317.682 193.186 317.574 193.202 317.473 193.202ZM365.286 191.388C365.206 191.388 365.13 191.376 365.05 191.356C362.662 190.681 360.471 190.139 358.353 189.697C357.883 189.601 357.582 189.139 357.679 188.669C357.775 188.2 358.236 187.895 358.706 187.995C360.865 188.445 363.092 188.995 365.519 189.681C365.981 189.814 366.249 190.292 366.121 190.757C366.013 191.139 365.664 191.392 365.286 191.392V191.388ZM330.879 189.649C330.462 189.649 330.093 189.348 330.021 188.922C329.94 188.449 330.261 187.999 330.739 187.923C332.974 187.553 335.317 187.26 337.7 187.055C338.182 187.015 338.599 187.369 338.643 187.846C338.684 188.324 338.33 188.746 337.853 188.79C335.514 188.991 333.219 189.276 331.028 189.641C330.98 189.649 330.931 189.653 330.883 189.653L330.879 189.649ZM351.66 188.641C351.632 188.641 351.604 188.641 351.576 188.637C350.003 188.485 348.47 188.404 347.021 188.404C346.255 188.404 345.485 188.412 344.73 188.429C344.245 188.441 343.852 188.055 343.844 187.577C343.836 187.096 344.217 186.698 344.694 186.69C345.461 186.674 346.239 186.666 347.017 186.666C348.526 186.666 350.115 186.746 351.744 186.907C352.222 186.955 352.571 187.381 352.527 187.858C352.483 188.308 352.105 188.645 351.66 188.645V188.641ZM478.808 180.511C478.732 180.511 478.656 180.503 478.583 180.483C478.118 180.358 477.845 179.881 477.969 179.415C478.547 177.263 479.025 175.002 479.394 172.694C479.47 172.22 479.916 171.895 480.389 171.971C480.862 172.047 481.187 172.493 481.111 172.967C480.734 175.336 480.245 177.656 479.651 179.865C479.546 180.254 479.193 180.507 478.812 180.507L478.808 180.511ZM481.015 166.784C481.015 166.784 480.979 166.784 480.959 166.784C480.481 166.752 480.116 166.338 480.148 165.86C480.261 164.142 480.317 162.379 480.317 160.621C480.317 160.075 480.313 159.525 480.301 158.975C480.293 158.493 480.674 158.095 481.151 158.087C481.637 158.071 482.03 158.461 482.038 158.942C482.05 159.505 482.054 160.063 482.054 160.625C482.054 162.423 481.998 164.222 481.882 165.977C481.854 166.438 481.468 166.792 481.015 166.792V166.784ZM480.754 152.872C480.313 152.872 479.936 152.534 479.891 152.085C479.667 149.812 479.35 147.512 478.953 145.251C478.868 144.777 479.185 144.328 479.659 144.243C480.136 144.159 480.582 144.476 480.666 144.95C481.075 147.255 481.396 149.6 481.625 151.916C481.673 152.394 481.324 152.82 480.846 152.868C480.818 152.868 480.79 152.872 480.758 152.872H480.754ZM478.331 139.165C477.941 139.165 477.588 138.904 477.488 138.51C476.914 136.278 476.248 134.053 475.51 131.909C475.353 131.456 475.594 130.958 476.051 130.805C476.505 130.649 476.998 130.89 477.155 131.343C477.909 133.531 478.587 135.8 479.173 138.076C479.294 138.542 479.013 139.016 478.547 139.136C478.475 139.156 478.403 139.165 478.331 139.165ZM473.8 126.019C473.467 126.019 473.146 125.827 473.006 125.501C472.067 123.374 471.032 121.302 469.936 119.346C469.704 118.929 469.852 118.395 470.27 118.162C470.691 117.925 471.22 118.078 471.453 118.495C472.573 120.499 473.632 122.619 474.595 124.799C474.787 125.24 474.591 125.754 474.15 125.947C474.033 125.999 473.917 126.023 473.8 126.023V126.019ZM466.983 113.902C466.71 113.902 466.441 113.774 466.273 113.537C464.917 111.63 463.472 109.835 461.976 108.205C461.651 107.852 461.675 107.301 462.028 106.976C462.381 106.651 462.931 106.675 463.256 107.028C464.8 108.711 466.293 110.562 467.689 112.529C467.966 112.922 467.874 113.465 467.485 113.742C467.332 113.85 467.156 113.902 466.983 113.902ZM402.619 110.891C402.466 110.891 402.31 110.851 402.169 110.762C401.76 110.513 401.628 109.979 401.876 109.566C401.941 109.462 403.433 107.02 406.394 104.001C406.731 103.66 407.281 103.652 407.626 103.989C407.967 104.326 407.975 104.876 407.638 105.222C404.83 108.084 403.377 110.449 403.365 110.469C403.201 110.738 402.916 110.887 402.623 110.887L402.619 110.891ZM457.558 103.716C457.365 103.716 457.173 103.652 457.012 103.523C455.207 102.066 453.313 100.781 451.383 99.7131C450.961 99.4803 450.809 98.9503 451.042 98.5287C451.274 98.1071 451.804 97.9546 452.225 98.1874C454.243 99.3036 456.222 100.645 458.104 102.166C458.477 102.467 458.537 103.017 458.232 103.391C458.059 103.604 457.811 103.716 457.554 103.716H457.558ZM412.301 100.962C412.028 100.962 411.763 100.833 411.591 100.596C411.314 100.203 411.406 99.6609 411.795 99.3839C413.761 97.9867 415.84 96.7902 417.967 95.8306C418.404 95.6339 418.921 95.8306 419.118 96.2683C419.315 96.7059 419.118 97.2238 418.681 97.4206C416.658 98.332 414.68 99.4722 412.806 100.805C412.654 100.914 412.477 100.966 412.305 100.966L412.301 100.962ZM445.448 97.0151C445.352 97.0151 445.256 96.999 445.159 96.9669C442.944 96.1879 440.729 95.5897 438.579 95.1922C438.105 95.1039 437.792 94.6502 437.881 94.1804C437.969 93.7067 438.422 93.3935 438.896 93.4818C441.135 93.8954 443.438 94.5177 445.737 95.3288C446.19 95.4894 446.427 95.9872 446.267 96.4369C446.142 96.7942 445.805 97.0191 445.448 97.0191V97.0151ZM424.916 95.3167C424.515 95.3167 424.154 95.0397 424.066 94.6301C423.965 94.1604 424.262 93.6987 424.732 93.5943C427.031 93.0964 429.414 92.8394 431.814 92.8274C432.291 92.8274 432.68 93.2128 432.684 93.6946C432.684 94.1764 432.299 94.5659 431.818 94.5699C429.539 94.582 427.28 94.8269 425.097 95.2966C425.037 95.3087 424.972 95.3167 424.912 95.3167H424.916Z" fill="#F33333"/>
</svg>
