<svg width="36" height="37" viewBox="0 0 36 37" fill="none" xmlns="http://www.w3.org/2000/svg">
<path d="M15.6818 0.00927734H18.0721C18.5206 0.173055 19.0002 0.143809 19.4604 0.229598C20.7647 0.469416 22.0301 0.832068 23.2662 1.32925C25.1497 2.0877 26.7972 3.1971 28.279 4.56192C29.3124 5.51339 30.1898 6.59745 30.9502 7.77899C32.4632 10.1265 33.2723 12.7099 33.5394 15.4727C33.6389 16.4963 33.594 17.516 33.4848 18.5435C33.3503 19.7894 33.0832 21.0002 32.6952 22.1856C32.623 22.4079 32.6776 22.4547 32.8726 22.5132C33.5219 22.7101 34.1614 22.9441 34.8126 23.1351C35.2279 23.256 35.5223 23.5075 35.7621 23.8507C35.8674 24.0028 35.8323 24.2192 36 24.3381V25.1122C35.6724 25.9369 34.9549 26.3132 34.214 26.6642C34.0893 26.7246 33.9742 26.8046 33.8514 26.8708C32.6679 27.5182 31.4903 28.1752 30.299 28.8089C29.755 29.0994 29.1935 29.3431 28.9653 29.9924C28.8815 30.2302 28.7314 30.4467 28.6085 30.6709C27.8228 32.1098 27.0273 33.5448 26.2513 34.9915C25.8594 35.7227 25.2686 36.1029 24.4263 35.9937C23.7225 35.902 23.2799 35.4302 23.0635 34.7634C22.8821 34.2038 22.7145 33.6403 22.5448 33.0788C22.4181 32.6577 22.3947 32.6362 21.9619 32.7864C20.5971 33.2582 19.1854 33.5351 17.7524 33.6072C16.3154 33.6793 14.8824 33.5838 13.4571 33.2874C10.5111 32.6772 7.92375 31.365 5.67375 29.4016C4.30503 28.2064 3.16833 26.8026 2.2578 25.2194C0.789649 22.6653 -0.00194615 19.9317 3.5931e-06 16.9779C3.5931e-06 16.3968 0.179379 16.2175 0.775999 16.2097C1.33752 16.2019 1.89905 16.1941 2.46057 16.1863C3.72401 16.1921 4.98744 16.1999 6.25282 16.2038C6.86114 16.2058 7.46945 16.2038 8.07972 16.2038C8.22205 16.2038 8.38389 16.2136 8.36439 15.9991C8.32929 15.6228 8.44433 15.2582 8.44433 14.8838C8.44433 14.0318 8.55937 13.1895 8.67635 12.3492C8.83623 11.2125 9.02145 10.0777 9.33536 8.96833C9.3919 8.77141 9.32561 8.66222 9.12284 8.61153C8.79528 8.52964 8.46577 8.4458 8.14797 8.33857C7.26083 8.04026 6.4205 7.63276 5.57431 7.23696C5.54506 7.21942 5.51582 7.20187 5.48657 7.18432C4.82561 6.79047 4.83341 6.79632 4.37717 7.40074C3.27947 8.8494 2.47032 10.4462 1.8971 12.1659C1.75672 12.5851 1.45451 12.7723 1.10551 12.6572C0.789648 12.552 0.637569 12.1757 0.762353 11.7877C0.852041 11.5127 0.953425 11.2437 1.05286 10.9727C1.77037 9.01123 2.83492 7.24866 4.21534 5.69472C5.58601 4.15053 7.19259 2.88319 9.03315 1.92392C10.7665 1.02119 12.5953 0.444069 14.5373 0.206201C14.9175 0.159407 15.3269 0.229598 15.6818 0.0131768V0.00927734ZM6.33471 27.3758L6.24502 27.4187C6.13973 27.4675 6.0364 27.5201 5.92916 27.565C5.70884 27.6546 5.67375 27.756 5.87067 27.9276C6.09099 28.1187 6.27427 28.3507 6.49654 28.5379C7.60984 29.4738 8.80503 30.2868 10.1211 30.9127C10.6319 31.1544 11.1467 31.3923 11.7004 31.5249C12.1079 31.7354 12.5446 31.8407 13.0672 31.9304C12.9677 31.8154 12.9248 31.7608 12.878 31.7101C11.5932 30.2868 10.6378 28.6666 9.99827 26.8591C9.90858 26.6076 9.90078 26.2528 9.69606 26.1397C9.48939 26.0266 9.18913 26.2235 8.93566 26.3035C8.05828 26.5823 7.1848 26.8728 6.39515 27.3641C6.37175 27.3641 6.35031 27.3641 6.32691 27.3739L6.33471 27.3758ZM6.40295 6.25624C7.34272 6.81582 8.37219 7.15118 9.41335 7.46118C9.69216 7.54307 9.78575 7.46898 9.86959 7.19407C10.4545 5.28722 11.4196 3.589 12.726 2.0838C12.7981 1.99996 12.9151 1.93757 12.8956 1.76794C12.4764 1.81084 12.0767 1.90442 11.7082 2.10915C11.5737 2.14034 11.4313 2.15204 11.3046 2.20273C9.85009 2.77206 8.49697 3.52466 7.25693 4.47418C6.70126 4.89923 6.17483 5.36326 5.68739 5.89749C5.86092 6.00668 5.99545 6.09832 6.13778 6.17436C6.21772 6.21725 6.31326 6.2309 6.401 6.25819L6.40295 6.25624ZM27.3081 6.20555C27.3939 6.17046 27.4835 6.14511 27.5654 6.10221C27.9398 5.90334 27.9398 5.90139 27.6493 5.61478C27.0039 4.98111 26.3059 4.40984 25.5552 3.90681C24.5121 3.20685 23.4203 2.59853 22.2173 2.21053C21.6753 2.05845 21.1703 1.77574 20.5503 1.6997C20.6166 1.78354 20.6497 1.82838 20.6867 1.86933C21.995 3.32384 23.0011 4.95382 23.5977 6.82752C23.8356 7.57427 23.8492 7.56647 24.5999 7.3325C25.5377 7.03809 26.4638 6.71833 27.31 6.20555H27.3081ZM30.4432 21.7196C30.7084 21.8093 30.9755 21.8951 31.2407 21.9867C31.4006 22.0433 31.5097 22.0082 31.5682 21.8366C32.0284 20.503 32.2623 19.1284 32.3559 17.7266C32.3696 17.5199 32.2877 17.4244 32.0752 17.4283C31.771 17.4341 31.4669 17.4283 31.1627 17.4283C31.0106 17.4185 30.8605 17.4029 30.7084 17.401C29.2208 17.399 27.7331 17.401 26.2455 17.401C25.9764 17.401 25.7073 17.401 25.4363 17.401C25.2979 17.401 25.1867 17.4166 25.175 17.6018C25.1322 18.3232 25.0854 19.0426 25.0308 19.7621C25.0152 19.961 25.0873 20.0546 25.2803 20.1111C25.7717 20.2534 26.2591 20.4114 26.7485 20.5673C27.9768 20.9612 29.1974 21.3823 30.4432 21.7196ZM5.56846 26.3873C6.72661 25.8238 7.9062 25.3111 9.15988 24.9952C9.36655 24.9426 9.37825 24.8236 9.33536 24.6579C9.26906 24.4005 9.20083 24.1412 9.14429 23.8819C8.88887 22.7004 8.69975 21.511 8.56521 20.308C8.47552 19.5086 8.44238 18.7073 8.37998 17.9079C8.34099 17.4127 8.38389 17.4029 7.85941 17.401C6.31326 17.3971 4.76712 17.3971 3.21902 17.401C2.96166 17.401 2.70429 17.3717 2.44888 17.4322C2.12327 17.4224 1.79571 17.4185 1.47011 17.4029C1.26928 17.3932 1.22249 17.4653 1.22444 17.67C1.22639 17.8728 1.24979 18.0717 1.26343 18.2725C1.33557 19.3448 1.56564 20.388 1.8854 21.4096C2.44693 23.2053 3.31456 24.8451 4.44736 26.3464C4.80026 26.8124 4.80416 26.8104 5.32669 26.5199C5.40663 26.475 5.48657 26.4302 5.56651 26.3873H5.56846ZM31.151 16.1902C31.4279 16.2662 31.7106 16.2038 31.9894 16.2292C32.2604 16.2545 32.3715 16.1551 32.354 15.8724C32.2994 15.0457 32.1961 14.2248 32.0206 13.4176C31.5312 11.1754 30.5739 9.14771 29.1779 7.3286C28.8776 6.93735 28.5279 6.89186 28.1289 7.19212C26.9084 7.77899 25.6683 8.32102 24.3484 8.65053C24.1397 8.70317 24.2177 8.8104 24.247 8.93909C24.3932 9.56105 24.5511 10.183 24.6623 10.8108C24.9606 12.4837 25.1204 14.1722 25.177 15.8685C25.1848 16.1005 25.2433 16.2019 25.4968 16.2019C27.3822 16.1921 29.2676 16.1921 31.153 16.1902H31.151ZM27.7331 28.6217C27.542 28.3507 27.2749 28.1577 27.0448 27.9257C25.6586 26.5335 24.2743 25.1375 22.89 23.7435C22.8003 23.6518 22.7047 23.5641 22.6267 23.4608C22.4337 23.2053 22.461 22.8739 22.6794 22.6653C22.8899 22.4644 23.2039 22.441 23.4495 22.6243C23.5607 22.7082 23.6581 22.8115 23.7576 22.9109C25.4402 24.5858 27.1228 26.2625 28.8055 27.9374C28.94 28.2006 29.1116 28.1011 29.2968 27.9978C30.8858 27.1243 32.4788 26.2567 34.0698 25.3871C34.2335 25.2974 34.4051 25.2175 34.5572 25.1102C34.8458 24.9075 34.8341 24.3947 34.524 24.2991C34.1243 24.1763 33.752 23.9677 33.3269 23.9287C32.9311 23.8039 32.5334 23.685 32.1376 23.5563C30.8624 23.1449 29.5932 22.7218 28.3161 22.3202C26.9162 21.8795 25.5104 21.4584 24.1085 21.0236C22.8958 20.6473 21.687 20.2612 20.4762 19.8752C20.2734 19.8108 20.0843 19.7991 19.9302 19.9727C19.7899 20.1306 19.7431 20.2944 19.8269 20.5127C19.9517 20.8345 20.0355 21.1737 20.1389 21.5052C20.6555 23.1488 21.1703 24.7944 21.6909 26.4361C22.502 28.9941 23.3169 31.5502 24.1319 34.1063C24.1592 34.2175 24.167 34.3384 24.2216 34.4358C24.3172 34.6094 24.4283 34.7965 24.6545 34.8043C24.8826 34.8121 25.0503 34.6854 25.1594 34.4865C25.1984 34.4144 25.2374 34.3423 25.2764 34.2701C26.1519 32.6674 27.0273 31.0647 27.9027 29.462C28.1679 28.9785 28.1698 28.9785 27.7331 28.6217ZM12.8722 17.3971C11.911 17.3971 10.9517 17.3971 9.99047 17.3971C9.55178 17.3971 9.51668 17.4244 9.56933 17.8513C9.69021 18.8204 9.69411 19.7972 9.83839 20.7662C10.0178 21.9731 10.2264 23.1702 10.5189 24.3557C10.5715 24.5702 10.6456 24.6403 10.8718 24.5955C11.4294 24.4844 11.9909 24.3869 12.5583 24.3147C13.6209 24.1802 14.6835 24.0593 15.7539 24.0593C16.0912 24.0593 16.2004 23.954 16.1984 23.6148C16.1867 21.6826 16.1828 19.7504 16.1984 17.8182C16.2023 17.4634 16.0698 17.3854 15.75 17.3893C14.7907 17.4049 13.8295 17.3951 12.8702 17.3951L12.8722 17.3971ZM12.8722 16.196C13.8549 16.196 14.8395 16.1863 15.8221 16.2019C16.1166 16.2058 16.2062 16.1063 16.1984 15.8178C16.1809 15.2095 16.1926 14.6011 16.1926 13.9909C16.1926 12.6572 16.1926 11.3217 16.1906 9.98805C16.1906 9.83792 16.2472 9.63319 15.9762 9.64099C15.5453 9.65269 15.1202 9.563 14.6874 9.55715C14.1317 9.54936 13.578 9.46552 13.0243 9.39923C12.2853 9.31149 11.5542 9.1789 10.8289 9.01708C10.669 8.98198 10.5851 9.01318 10.5383 9.20425C10.357 9.92566 10.2166 10.6549 10.0685 11.3821C9.7721 12.8444 9.70386 14.3301 9.56348 15.81C9.53228 16.1297 9.65706 16.2058 9.95732 16.2019C10.9283 16.1843 11.9012 16.196 12.8722 16.196ZM20.6926 16.196C21.6753 16.196 22.6579 16.196 23.6425 16.196C23.8258 16.196 24.0013 16.2116 23.9857 15.9348C23.9487 15.342 23.9506 14.7435 23.8863 14.1546C23.7966 13.3358 23.7127 12.5169 23.5704 11.7019C23.4242 10.8654 23.2292 10.0387 23.0557 9.20815C23.0186 9.03072 22.9075 8.97028 22.7496 9.01318C22.4688 9.08922 22.1783 9.11456 21.8956 9.17306C20.5366 9.45382 19.1562 9.52986 17.7777 9.62735C17.4814 9.64879 17.4053 9.73458 17.4073 10.0153C17.417 11.9456 17.419 13.8778 17.4073 15.808C17.4053 16.1258 17.5165 16.2038 17.8148 16.1999C18.774 16.1843 19.7333 16.1941 20.6945 16.1941L20.6926 16.196ZM17.3936 4.84463C17.3936 5.93259 17.3995 7.02249 17.3897 8.11045C17.3878 8.36781 17.4658 8.4965 17.729 8.43995C18.0975 8.36196 18.4738 8.40096 18.8423 8.36391C20.0316 8.24693 21.221 8.13384 22.3928 7.88233C22.5546 7.84723 22.6189 7.81019 22.5624 7.63276C22.0028 5.92869 21.2424 4.3338 20.0628 2.96508C19.4506 2.25733 18.7429 1.66851 17.8304 1.37799C17.4034 1.24151 17.3956 1.25126 17.3956 1.68215C17.3956 2.73501 17.3956 3.78982 17.3956 4.84268L17.3936 4.84463ZM16.1926 4.85828C16.1926 3.79177 16.1926 2.72722 16.1926 1.66071C16.1926 1.24346 16.1887 1.24151 15.7812 1.3741C15.169 1.57297 14.6347 1.91027 14.1668 2.34117C12.5817 3.79762 11.7179 5.68302 11.018 7.66396C10.9614 7.82384 11.0219 7.85113 11.1701 7.88428C12.687 8.20793 14.2292 8.29762 15.7676 8.4419C16.0659 8.4692 16.2101 8.40681 16.2023 8.0539C16.1789 6.98935 16.1945 5.92284 16.1945 4.85828H16.1926ZM16.1926 28.7679C16.1926 27.7131 16.1848 26.6583 16.1965 25.6035C16.2004 25.3345 16.1263 25.235 15.8416 25.2409C15.1183 25.2545 14.3988 25.3169 13.6794 25.3832C12.8546 25.4612 12.0377 25.5801 11.2227 25.7322C11.0004 25.7731 10.9926 25.8862 11.055 26.0559C11.1681 26.362 11.2734 26.67 11.3962 26.9722C11.8564 28.105 12.4042 29.191 13.151 30.1659C13.8315 31.053 14.6211 31.8037 15.6896 32.2112C16.1068 32.3711 16.1906 32.3282 16.1906 31.8953C16.1906 30.8522 16.1906 29.8091 16.1906 28.766L16.1926 28.7679ZM17.3936 28.7699C17.3936 29.8247 17.3936 30.8795 17.3936 31.9343C17.3936 32.3204 17.4443 32.3535 17.7953 32.2404C18.0741 32.1507 18.3412 32.0338 18.5947 31.8836C19.7294 31.2129 20.5015 30.2049 21.1722 29.1033C21.2424 28.9883 21.2171 28.8927 21.1781 28.7738C20.8408 27.7092 20.5093 26.6427 20.1837 25.5743C20.1408 25.4358 20.0648 25.389 19.9341 25.3812C19.2147 25.3384 18.4933 25.3013 17.7738 25.2409C17.4502 25.2136 17.3819 25.3442 17.3858 25.6406C17.4014 26.6837 17.3917 27.7268 17.3917 28.7699H17.3936ZM17.4131 20.7175C17.4131 21.7138 17.4131 22.7082 17.4131 23.7045C17.4131 23.8799 17.417 24.0301 17.6588 24.0398C18.2535 24.0593 18.8462 24.0925 19.4409 24.1237C19.6378 24.1334 19.7372 24.0749 19.6475 23.8604C19.6124 23.7747 19.589 23.683 19.5617 23.5933C19.2517 22.6068 18.9203 21.6241 18.6395 20.6297C18.3666 19.6646 19.1835 18.6449 20.1896 18.6371C20.7394 18.6332 21.2385 18.8399 21.7494 18.9978C22.3596 19.185 22.9718 19.3741 23.5802 19.5691C23.7478 19.6237 23.8083 19.61 23.8512 19.4053C23.9701 18.8282 23.8609 18.2393 23.9779 17.6642C24.0247 17.4361 23.8843 17.3951 23.6874 17.3971C21.7318 17.4068 19.7762 17.4185 17.8187 17.4088C17.4833 17.4088 17.4034 17.5296 17.4092 17.8377C17.4248 18.7989 17.4151 19.7582 17.4151 20.7194L17.4131 20.7175ZM20.5015 31.948C21.0435 31.8349 21.4705 31.6945 21.8936 31.5424C21.9794 31.5112 22.0321 31.4527 21.9989 31.3533C21.9112 31.0842 21.8215 30.8171 21.7123 30.4876C21.3419 31.0101 20.9617 31.4469 20.4996 31.946L20.5015 31.948Z" fill="#2E3192"/>
<path d="M28.8055 27.9393C27.1228 26.2645 25.4402 24.5877 23.7576 22.9129C23.6581 22.8134 23.5607 22.7101 23.4495 22.6263C23.2039 22.443 22.89 22.4664 22.6794 22.6672C22.461 22.8778 22.4337 23.2073 22.6267 23.4627C22.7028 23.5641 22.7983 23.6538 22.89 23.7454C24.2743 25.1395 25.6586 26.5355 27.0448 27.9276C27.2749 28.1596 27.544 28.3526 27.7331 28.6237C27.4114 28.6861 27.1345 28.8186 26.9708 29.1169C26.1148 30.6826 25.2608 32.2502 24.4069 33.8178C24.3406 33.9387 24.3016 34.0849 24.1319 34.1083C23.3189 31.5522 22.502 28.9961 21.6909 26.438C21.1703 24.7963 20.6556 23.1507 20.1389 21.5071C20.0355 21.1757 19.9517 20.8384 19.8269 20.5147C19.7431 20.2983 19.7899 20.1325 19.9302 19.9746C20.0843 19.8011 20.2734 19.8128 20.4762 19.8771C21.687 20.2612 22.8958 20.6473 24.1085 21.0255C25.5104 21.4623 26.9162 21.8815 28.3161 22.3221C29.5932 22.7237 30.8644 23.1468 32.1376 23.5582C32.5334 23.685 32.9311 23.8059 33.3269 23.9306C33.3445 23.9735 33.3601 24.0184 33.3815 24.0593C33.7793 24.7573 33.6213 25.3247 32.9292 25.703C32.6016 25.8823 32.276 26.0676 31.9484 26.245C30.9014 26.8124 29.8544 27.3758 28.8055 27.9413V27.9393Z" fill="#BEBFDD"/>
<path d="M31.151 16.1902C29.2656 16.1921 27.3802 16.1902 25.4948 16.2019C25.2413 16.2019 25.1828 16.1024 25.175 15.8685C25.1185 14.1702 24.9586 12.4818 24.6603 10.8108C24.5492 10.183 24.3893 9.56105 24.245 8.93909C24.2158 8.8104 24.1358 8.70317 24.3464 8.65053C25.6664 8.31907 26.9064 7.77899 28.1269 7.19212C28.1523 7.26816 28.1601 7.35785 28.2049 7.41829C28.5637 7.91157 28.8834 8.42825 29.174 8.96248C30.4003 11.2164 31.1257 13.6068 31.151 16.1902Z" fill="#A8C3E4"/>
<path d="M2.44888 17.4322C2.70429 17.3698 2.96166 17.401 3.21902 17.401C4.76517 17.3971 6.31131 17.3971 7.85941 17.401C8.38194 17.401 8.34099 17.4107 8.37998 17.9079C8.44238 18.7073 8.47552 19.5086 8.56521 20.308C8.69975 21.5091 8.88887 22.7004 9.14429 23.8819C9.20083 24.1432 9.26906 24.4005 9.33536 24.6579C9.37825 24.8236 9.36655 24.9445 9.15988 24.9952C7.9062 25.3111 6.72661 25.8238 5.56846 26.3873C5.47097 26.2547 5.37154 26.126 5.2799 25.9915C3.53488 23.4042 2.56001 20.5615 2.45083 17.4322H2.44888Z" fill="#A8C3E4"/>
<path d="M2.46253 16.1804C2.49957 14.0279 3.02015 11.9904 3.91118 10.0387C4.36547 9.04437 4.90555 8.1007 5.57431 7.23306C6.4205 7.62886 7.26083 8.03636 8.14796 8.33467C8.46772 8.4419 8.79528 8.52574 9.12283 8.60763C9.32561 8.65832 9.3919 8.76751 9.33536 8.96443C9.02145 10.0738 8.83623 11.2086 8.67635 12.3453C8.55741 13.1837 8.44238 14.0279 8.44433 14.8799C8.44433 15.2543 8.32929 15.6169 8.36439 15.9952C8.38389 16.2097 8.22205 16.198 8.07972 16.1999C7.4714 16.1999 6.86309 16.2019 6.25282 16.1999C4.98939 16.196 3.72596 16.1882 2.46057 16.1824L2.46253 16.1804Z" fill="#A8C3E4"/>
<path d="M12.8702 17.399C13.8315 17.399 14.7907 17.4088 15.75 17.3932C16.0698 17.3873 16.2023 17.4653 16.1984 17.8221C16.1809 19.7543 16.1848 21.6865 16.1984 23.6187C16.2004 23.956 16.0912 24.0632 15.7539 24.0632C14.6835 24.0632 13.6209 24.1841 12.5583 24.3186C11.9909 24.3908 11.4313 24.4883 10.8718 24.5994C10.6436 24.6442 10.5715 24.5721 10.5189 24.3596C10.2264 23.1761 10.0178 21.977 9.83839 20.7701C9.69411 19.8011 9.69021 18.8243 9.56933 17.8552C9.51669 17.4283 9.54983 17.401 9.99047 17.401C10.9517 17.401 11.911 17.401 12.8722 17.401L12.8702 17.399Z" fill="#A8C3E4"/>
<path d="M12.8722 16.1999C11.9012 16.1999 10.9283 16.1902 9.95732 16.2058C9.65511 16.2116 9.53228 16.1336 9.56348 15.8139C9.70581 14.334 9.77405 12.8483 10.0685 11.386C10.2166 10.6568 10.357 9.92955 10.5383 9.20815C10.5871 9.01708 10.669 8.98588 10.8289 9.02098C11.5542 9.1828 12.2873 9.31539 13.0243 9.40312C13.578 9.46747 14.1317 9.55131 14.6874 9.56105C15.1202 9.5669 15.5453 9.65659 15.9762 9.64489C16.2472 9.63709 16.1887 9.84182 16.1906 9.99195C16.1945 11.3256 16.1926 12.6611 16.1926 13.9948C16.1926 14.6031 16.1809 15.2134 16.1984 15.8217C16.2062 16.1083 16.1166 16.2097 15.8221 16.2058C14.8395 16.1902 13.8549 16.1999 12.8722 16.1999Z" fill="#A8C3E4"/>
<path d="M20.6926 16.1999C19.7333 16.1999 18.774 16.1902 17.8128 16.2058C17.5145 16.2097 17.4034 16.1336 17.4053 15.8139C17.419 13.8836 17.417 11.9514 17.4053 10.0212C17.4053 9.73848 17.4794 9.65464 17.7758 9.63319C19.1542 9.53571 20.5347 9.45967 21.8936 9.1789C22.1763 9.12041 22.4669 9.09507 22.7476 9.01903C22.9055 8.97613 23.0167 9.03657 23.0537 9.214C23.2273 10.0446 23.4203 10.8713 23.5685 11.7077C23.7108 12.5227 23.7946 13.3416 23.8843 14.1605C23.9487 14.7513 23.9467 15.3479 23.9838 15.9406C24.0013 16.2155 23.8239 16.2019 23.6406 16.2019C22.6579 16.2019 21.6753 16.2019 20.6906 16.2019L20.6926 16.1999Z" fill="#A8C3E4"/>
<path d="M17.3936 4.84853C17.3936 3.79567 17.3936 2.74086 17.3936 1.688C17.3936 1.25906 17.3995 1.24931 17.8284 1.38384C18.7409 1.67436 19.4506 2.26318 20.0609 2.97093C21.2405 4.3377 22.0028 5.93454 22.5604 7.63861C22.6189 7.81409 22.5546 7.85308 22.3908 7.88818C21.219 8.13774 20.0297 8.25083 18.8403 8.36976C18.4718 8.40681 18.0955 8.36781 17.727 8.4458C17.4638 8.50235 17.3858 8.37366 17.3878 8.1163C17.3995 7.02834 17.3917 5.93844 17.3917 4.85048L17.3936 4.84853Z" fill="#A8C3E4"/>
<path d="M16.1926 4.86218C16.1926 5.92869 16.1789 6.99325 16.2004 8.0578C16.2082 8.41071 16.0639 8.4731 15.7656 8.4458C14.2292 8.29957 12.685 8.21183 11.1681 7.88818C11.018 7.85698 10.9595 7.82773 11.016 7.66786C11.716 5.68692 12.5817 3.80152 14.1649 2.34507C14.6348 1.91417 15.167 1.57687 15.7792 1.37799C16.1867 1.24541 16.1887 1.24736 16.1906 1.66461C16.1906 2.73111 16.1906 3.79567 16.1906 4.86218H16.1926Z" fill="#A8C3E4"/>
<path d="M16.1926 28.7718C16.1926 29.815 16.1926 30.8581 16.1926 31.9012C16.1926 32.3321 16.1088 32.3769 15.6915 32.217C14.6231 31.8076 13.8334 31.0569 13.1529 30.1718C12.4062 29.1969 11.8583 28.1109 11.3982 26.9781C11.2754 26.6759 11.1701 26.3678 11.057 26.0617C10.9946 25.8921 11.0043 25.779 11.2247 25.738C12.0396 25.5879 12.8566 25.467 13.6813 25.389C14.4008 25.3208 15.1202 25.2584 15.8436 25.2467C16.1283 25.2409 16.2004 25.3423 16.1984 25.6094C16.1867 26.6642 16.1945 27.719 16.1945 28.7738L16.1926 28.7718Z" fill="#A8C3E4"/>
<path d="M30.4432 21.7196C29.1974 21.3823 27.9768 20.9631 26.7485 20.5673C26.261 20.4114 25.7736 20.2515 25.2803 20.1111C25.0893 20.0565 25.0171 19.961 25.0308 19.7621C25.0854 19.0426 25.1341 18.3212 25.175 17.6018C25.1867 17.4166 25.2979 17.401 25.4363 17.401C25.7054 17.401 25.9744 17.401 26.2455 17.401C27.7331 17.401 29.2208 17.401 30.7084 17.401C30.8605 17.401 31.0106 17.4185 31.1627 17.4283C31.1627 18.8984 30.8546 20.3178 30.4432 21.7196Z" fill="#A8C3E4"/>
<path d="M17.3936 28.7738C17.3936 27.7307 17.4034 26.6876 17.3878 25.6445C17.3839 25.3481 17.4502 25.2175 17.7758 25.2448C18.4952 25.3072 19.2147 25.3422 19.9361 25.3851C20.0667 25.3929 20.1447 25.4397 20.1857 25.5782C20.5113 26.6466 20.8427 27.7131 21.18 28.7777C21.2171 28.8966 21.2424 28.9922 21.1742 29.1072C20.5035 30.2088 19.7314 31.2149 18.5966 31.8875C18.3432 32.0377 18.078 32.1546 17.7972 32.2443C17.4463 32.3574 17.3975 32.3223 17.3956 31.9382C17.3936 30.8834 17.3956 29.8286 17.3956 28.7738H17.3936Z" fill="#A8C3E4"/>
<path d="M17.4112 20.7233C17.4112 19.7621 17.4209 18.8028 17.4053 17.8416C17.4014 17.5335 17.4794 17.4107 17.8148 17.4127C19.7704 17.4224 21.726 17.4107 23.6835 17.401C23.8804 17.401 24.0208 17.44 23.974 17.6681C23.859 18.2432 23.9662 18.8321 23.8473 19.4092C23.8044 19.6139 23.7459 19.6276 23.5763 19.573C22.9679 19.378 22.3577 19.1889 21.7455 19.0017C21.2346 18.8438 20.7374 18.6371 20.1857 18.641C19.1776 18.6488 18.3607 19.6685 18.6356 20.6336C18.9164 21.6299 19.2478 22.6107 19.5578 23.5972C19.5851 23.6869 19.6085 23.7786 19.6436 23.8643C19.7314 24.0788 19.6339 24.1373 19.437 24.1276C18.8423 24.0983 18.2496 24.0652 17.6549 24.0437C17.4131 24.0359 17.4092 23.8838 17.4092 23.7084C17.4092 22.7121 17.4092 21.7177 17.4092 20.7214L17.4112 20.7233Z" fill="#A8C3E4"/>
<path d="M27.3061 6.20555C26.4599 6.71833 25.5338 7.03809 24.596 7.3325C23.8453 7.56842 23.8317 7.57622 23.5938 6.82752C22.9972 4.95382 21.9911 3.32384 20.6828 1.86933C20.6458 1.82838 20.6127 1.78159 20.5464 1.6997C21.1664 1.77574 21.6714 2.05845 22.2134 2.21053C22.3148 2.40161 22.5156 2.46595 22.6852 2.55564C24.1963 3.33553 25.4987 4.39034 26.6997 5.57968C26.9064 5.78441 27.0312 6.06712 27.3042 6.20555H27.3061Z" fill="#A8C3E4"/>
<path d="M6.401 27.3661C7.19064 26.8747 8.06413 26.5842 8.94151 26.3054C9.19498 26.2255 9.49329 26.0286 9.70191 26.1416C9.90663 26.2528 9.91443 26.6096 10.0041 26.8611C10.6436 28.6685 11.599 30.2868 12.8839 31.7121C12.9307 31.7627 12.9736 31.8154 13.073 31.9324C12.5505 31.8407 12.1137 31.7354 11.7062 31.5268C11.6244 31.4625 11.5503 31.3825 11.4586 31.3377C10.2069 30.7157 9.0507 29.9456 7.99979 29.0292C7.42267 28.5242 6.83969 28.0153 6.40295 27.37L6.401 27.3661Z" fill="#A8C3E4"/>
<path d="M11.7101 2.1072C12.0786 1.90247 12.4783 1.80889 12.8975 1.76599C12.917 1.93562 12.8 1.99996 12.7279 2.08185C11.4216 3.58705 10.4565 5.28722 9.87153 7.19212C9.78769 7.46703 9.69411 7.54307 9.4153 7.45923C8.37413 7.15118 7.34467 6.81387 6.4049 6.25429C6.4127 6.16656 6.46729 6.10611 6.52383 6.04567C7.59424 4.89338 8.76409 3.86196 10.1075 3.03332C10.6339 2.70967 11.213 2.4757 11.7121 2.1072H11.7101Z" fill="#A8C3E4"/>
<path d="M31.151 16.1902C31.1237 13.6087 30.4003 11.2164 29.174 8.96248C28.8834 8.42825 28.5637 7.91157 28.2049 7.41829C28.1601 7.3559 28.1523 7.26816 28.1269 7.19212C28.526 6.89186 28.8757 6.93735 29.1759 7.3286C30.5719 9.14966 31.5292 11.1774 32.0186 13.4176C32.1961 14.2248 32.2974 15.0457 32.352 15.8724C32.3696 16.1531 32.2585 16.2526 31.9874 16.2292C31.7086 16.2038 31.4259 16.2662 31.149 16.1902H31.151Z" fill="#7DA6D7"/>
<path d="M24.1319 34.1063C24.3016 34.0829 24.3406 33.9367 24.4068 33.8158C25.2608 32.2482 26.1148 30.6826 26.9708 29.115C27.1345 28.8147 27.4114 28.6822 27.7331 28.6217C28.1698 28.9805 28.1679 28.9785 27.9027 29.462C27.0253 31.0647 26.1519 32.6674 25.2764 34.2701C25.2374 34.3423 25.1984 34.4144 25.1594 34.4865C25.0503 34.6874 24.8826 34.8121 24.6545 34.8043C24.4283 34.7965 24.3152 34.6094 24.2216 34.4358C24.169 34.3384 24.1612 34.2155 24.1319 34.1063Z" fill="#A8C3E4"/>
<path d="M30.4432 21.7196C30.8566 20.3178 31.1627 18.8984 31.1627 17.4283C31.4669 17.4283 31.771 17.4341 32.0752 17.4283C32.2877 17.4244 32.3696 17.5199 32.3559 17.7266C32.2623 19.1304 32.0284 20.5049 31.5682 21.8366C31.5097 22.0082 31.4006 22.0413 31.2407 21.9867C30.9755 21.8951 30.7084 21.8093 30.4432 21.7196Z" fill="#7DA6D7"/>
<path d="M28.8055 27.9393C29.8525 27.3739 30.9014 26.8104 31.9484 26.243C32.2779 26.0656 32.6016 25.8804 32.9292 25.701C33.6213 25.3247 33.7792 24.7554 33.3815 24.0574C33.3581 24.0164 33.3445 23.9716 33.3269 23.9287C33.752 23.9657 34.1263 24.1744 34.524 24.2991C34.8341 24.3947 34.8477 24.9075 34.5572 25.1102C34.4051 25.2175 34.2335 25.2974 34.0698 25.3871C32.4788 26.2567 30.8878 27.1263 29.2968 27.9978C29.1096 28.1011 28.94 28.2006 28.8055 27.9374L28.8055 27.9393Z" fill="#A8C3E4"/>
<path d="M27.3061 6.20555C27.0331 6.06712 26.9084 5.78441 26.7017 5.57968C25.5007 4.38839 24.1982 3.33553 22.6872 2.55564C22.5175 2.4679 22.3167 2.40161 22.2153 2.21053C23.4183 2.59658 24.5102 3.2049 25.5533 3.90681C26.3039 4.40984 27.002 4.98111 27.6473 5.61478C27.9378 5.90139 27.9378 5.90334 27.5635 6.10221C27.4816 6.14511 27.3919 6.17241 27.3061 6.20555Z" fill="#7DA6D7"/>
<path d="M20.5015 31.9538C20.9636 31.4547 21.3438 31.0179 21.7143 30.4954C21.8234 30.8249 21.9131 31.092 22.0009 31.3611C22.034 31.4605 21.9814 31.519 21.8956 31.5502C21.4725 31.7023 21.0455 31.8427 20.5035 31.9558L20.5015 31.9538Z" fill="#A8C3E4"/>
<path d="M0.212525 14.3984C0.216424 14.0591 0.428947 13.8622 0.789649 13.8622C1.1757 13.8622 1.42332 14.0981 1.40577 14.451C1.39017 14.7415 1.07431 15.0496 0.785749 15.0574C0.506936 15.0632 0.210575 14.722 0.212525 14.4003V14.3984Z" fill="#2E3192"/>
</svg>
