<svg width="36" height="37" viewBox="0 0 36 37" fill="none" xmlns="http://www.w3.org/2000/svg">
<path d="M36 14.1422V34.1072C35.9597 34.1609 35.8927 34.2095 35.8809 34.2699C35.6511 35.34 34.4552 36.0244 33.3364 36.021C24.5994 35.9925 15.8623 36.0059 7.12519 36.0059C5.52001 36.0059 3.91651 35.9925 2.31133 36.0076C1.11541 36.0193 -0.0469647 34.8352 0.00503171 33.6527C0.0201275 33.3256 0.186181 33.0874 0.457904 33.0539C0.88394 33.0019 1.05838 33.1042 1.1674 33.4866C1.19927 33.5973 1.18585 33.7181 1.21101 33.8305C1.24624 33.9932 1.30998 34.0888 1.48609 33.9344C1.7813 33.6745 2.08992 33.4296 2.39184 33.1763C2.80445 32.8543 3.22043 32.5373 3.63137 32.2119C5.18455 30.979 6.73438 29.7445 8.28589 28.51C9.82733 27.2823 11.3671 26.0528 12.9136 24.8317C13.1601 24.6371 13.1216 24.5415 12.8901 24.3604C11.1725 23.0169 9.46336 21.6599 7.75586 20.303C5.96785 18.8823 4.1832 17.4549 2.39855 16.0309C2.04799 15.7508 1.69911 15.4707 1.34855 15.1922C1.29991 15.1335 1.24791 15.0514 1.20934 15.199C1.20598 16.5106 1.20095 17.8223 1.20095 19.1339C1.20095 22.3074 1.20095 25.4825 1.20095 28.656C1.20095 29.129 0.956064 29.404 0.555188 29.3957C0.181149 29.389 0.00335469 29.1592 0.00335469 28.6677C0.00335469 23.9595 0.00503192 19.2496 0 14.5414C0 13.8756 0.243209 13.3271 0.774915 12.948C2.40358 11.7856 4.04566 10.64 5.69445 9.50618C5.92927 9.34516 6.00307 9.18246 6.0014 8.91073C5.99301 6.41658 5.99637 3.92075 5.99637 1.4266C5.99637 0.65001 6.25299 0.275969 6.96249 0.00927734H29.0358C29.7956 0.264228 30.0137 0.832836 30.0087 1.58091C29.9936 4.00294 30.0103 6.42329 29.9936 8.84532C29.9919 9.19085 30.1026 9.39212 30.381 9.58333C31.7027 10.4874 33.0127 11.4082 34.3244 12.3257C35.0137 12.8071 35.7702 13.2298 35.9933 14.1389L36 14.1422ZM30.0221 11.3277C30.0221 13.0872 30.0187 14.8467 30.0187 16.6062C30.0238 16.8192 29.9785 17.0373 30.059 17.2553C30.121 17.2285 30.1563 17.2201 30.1831 17.2C31.5216 16.1366 32.8567 15.0698 34.1986 14.0097C34.4166 13.837 34.2959 13.7615 34.1449 13.6558C32.8852 12.7786 31.6306 11.898 30.371 11.0208C30.2804 10.957 30.1848 10.8229 30.069 10.8933C29.9651 10.957 30.0238 11.1097 30.0154 11.2221C30.012 11.2573 30.0204 11.2925 30.0221 11.3277ZM5.96953 11.3948C5.97959 11.3378 6.0014 11.2791 5.99637 11.2237C5.9863 11.1013 6.06513 10.9369 5.94605 10.8698C5.84038 10.8094 5.74477 10.9537 5.65252 11.0158C4.53208 11.794 3.41332 12.5756 2.29791 13.364C2.08321 13.5149 1.70246 13.6156 1.69576 13.832C1.68905 14.0835 2.0916 14.1775 2.27107 14.3905C2.29791 14.4207 2.35326 14.4274 2.39519 14.4442C3.57098 15.3918 4.7451 16.3395 5.93431 17.2989C6.02488 17.1144 5.99637 16.9853 5.99637 16.8595C5.99804 15.318 5.99972 13.7749 5.99637 12.2335C5.99637 11.9534 5.97791 11.6749 5.96953 11.3948ZM33.5327 33.1277C33.7407 33.2988 33.9403 33.4782 34.1566 33.6359C34.3311 33.765 34.5106 34.0602 34.685 33.9747C34.8846 33.8774 34.8007 33.552 34.8007 33.3222C34.8024 27.4081 34.8007 21.4939 34.8007 15.5814C34.8007 15.4875 34.8007 15.3935 34.8007 15.2996C34.8007 15.1335 34.7286 15.1151 34.6112 15.2124C34.2757 15.4858 33.9436 15.7608 33.6098 16.0359C33.5478 16.0678 33.4773 16.0896 33.4253 16.1315C30.958 18.1024 28.4941 20.0782 26.0267 22.0491C25.0355 22.8408 24.0341 23.6224 23.0411 24.4124C22.9304 24.5013 22.7744 24.5952 22.9858 24.7613C23.9133 25.4892 24.8375 26.2222 25.7601 26.9569C27.3367 28.2115 28.9117 29.4711 30.4884 30.7241C31.5015 31.5292 32.5179 32.3276 33.5344 33.1277H33.5327ZM32.7628 34.7983C33.0295 34.7949 33.3029 34.8486 33.6098 34.7547C33.474 34.6389 33.3784 34.5551 33.2777 34.4745C32.382 33.76 31.4847 33.0455 30.5873 32.3309C26.7983 29.3135 23.0093 26.296 19.2219 23.2752C18.8613 22.9884 18.4738 22.8022 17.9992 22.876C17.5681 22.8022 17.1974 22.9297 16.8636 23.2014C16.3017 23.6559 15.7415 24.1105 15.1746 24.56C13.2105 26.1199 11.243 27.6747 9.28053 29.238C7.21912 30.8784 5.16107 32.5222 3.10805 34.1693C2.86316 34.3655 2.58473 34.5299 2.36165 34.8083H3.27913C12.9303 34.8083 22.5832 34.8083 32.2344 34.8083C32.4106 34.8083 32.585 34.8033 32.7611 34.7999L32.7628 34.7983ZM27.6319 1.22532C27.5615 1.22029 27.4927 1.21191 27.4223 1.21191C20.7936 1.21191 14.1648 1.21191 7.53445 1.20352C7.23086 1.20352 7.19732 1.31925 7.19732 1.57085C7.20235 7.0288 7.20403 12.4868 7.19564 17.9447C7.19564 18.2097 7.28286 18.3892 7.47575 18.5435C9.6378 20.2594 11.8015 21.9753 13.9585 23.6962C14.0927 23.8019 14.1816 23.8253 14.3192 23.713C14.9029 23.2366 15.5151 22.7938 16.077 22.294C17.0683 21.4117 18.9083 21.4805 19.8241 22.2386C20.3507 22.6747 20.9059 23.0773 21.4477 23.4932C21.6937 23.7459 21.9459 23.7683 22.2042 23.5603C22.5866 23.2534 22.9657 22.9431 23.3498 22.6378C25.0287 21.301 26.701 19.9558 28.3968 18.6391C28.7239 18.3842 28.8161 18.1158 28.8161 17.725C28.806 12.5874 28.8111 7.4498 28.806 2.31054C28.806 1.95327 28.9721 1.46853 28.7255 1.26894C28.4756 1.06766 28.006 1.20687 27.6336 1.22365L27.6319 1.22532Z" fill="#2E3192"/>
<path d="M32.7628 34.7983C32.5867 34.8016 32.4122 34.8067 32.2361 34.8067C22.5849 34.8067 12.932 34.8067 3.28081 34.8067H2.36332C2.58473 34.5299 2.86316 34.3655 3.10972 34.1676C5.16442 32.5188 7.22248 30.8751 9.28221 29.2363C11.2447 27.6748 13.2121 26.1199 15.1763 24.5583C15.7415 24.1088 16.3034 23.6542 16.8653 23.1997C17.1991 22.9297 17.5714 22.8005 18.0008 22.8743C18.0294 23.0135 18.1434 23.0789 18.244 23.1594C20.3658 24.8485 22.4843 26.5392 24.6044 28.2299C26.862 30.0297 29.1247 31.8227 31.3757 33.6292C31.847 34.0066 32.3619 34.337 32.7628 34.7966V34.7983ZM17.9941 32.4115C16.4728 32.4115 14.9498 32.4115 13.4285 32.4115C12.9488 32.4115 12.4674 32.4031 11.9894 32.4182C11.6539 32.4282 11.4174 32.6563 11.4023 32.9465C11.3855 33.2786 11.612 33.5554 11.9525 33.6007C12.08 33.6174 12.2091 33.6091 12.3383 33.6107C15.7214 33.6107 19.1045 33.6107 22.4876 33.6107C22.9791 33.6107 23.4705 33.6208 23.962 33.6057C24.4048 33.5923 24.6077 33.3289 24.544 32.8928C24.4937 32.5473 24.3075 32.4131 23.8597 32.4131C21.9039 32.4115 19.9499 32.4131 17.9941 32.4131V32.4115Z" fill="#EAEAF4"/>
<path d="M33.5327 33.1277C32.5179 32.3259 31.4998 31.5275 30.4867 30.7241C28.9084 29.4711 27.335 28.2115 25.7584 26.9569C24.8359 26.2222 23.9117 25.4892 22.9841 24.7613C22.7728 24.5952 22.9288 24.5013 23.0395 24.4124C24.0324 23.6224 25.0338 22.8408 26.0251 22.0491C28.4924 20.0782 30.9563 18.104 33.4237 16.1315C33.4773 16.0896 33.5461 16.0678 33.6082 16.0359C33.6082 17.0725 33.6082 18.1091 33.6082 19.144C33.6082 19.2815 33.6316 19.4258 33.5495 19.5516C33.365 19.253 33.0983 19.1859 32.7762 19.2765C32.429 19.3738 32.4055 19.6505 32.4055 19.9424C32.4055 22.8408 32.4072 25.7408 32.4022 28.6392C32.4022 28.9713 32.4659 29.2598 32.8148 29.3672C33.1754 29.4779 33.4186 29.2933 33.5864 28.9864C33.5931 30.2796 33.5998 31.5711 33.6065 32.8643C33.6065 32.9599 33.5947 33.0505 33.531 33.1277H33.5327Z" fill="#EAEAF4"/>
<path d="M2.39519 33.1763C2.39687 31.7959 2.40022 30.4171 2.4019 29.0367C2.55286 29.1692 2.64846 29.3671 2.88664 29.3957C3.32274 29.4477 3.5995 29.1776 3.5995 28.6677C3.60117 26.296 3.5995 23.9243 3.5995 21.5526C3.5995 20.9924 3.60453 20.4305 3.59782 19.8703C3.59279 19.4828 3.45357 19.3637 3.07953 19.2547C2.73904 19.1557 2.60485 19.4123 2.4019 19.5633C2.4019 18.3858 2.4019 17.2084 2.4019 16.0309C4.18823 17.4549 5.97121 18.8823 7.75921 20.303C9.46671 21.6599 11.1742 23.0169 12.8934 24.3604C13.1232 24.5415 13.1635 24.6371 12.9169 24.8317C11.3688 26.0511 9.83068 27.2823 8.28924 28.51C6.73773 29.7445 5.1879 30.979 3.63472 32.2119C3.22546 32.5373 2.80949 32.8559 2.39519 33.1763Z" fill="#EAEAF4"/>
<path d="M27.5581 6.83423C27.6537 6.71347 27.6336 6.56922 27.6336 6.43168C27.6336 4.69567 27.6336 2.96133 27.6336 1.22532C28.0076 1.20855 28.4756 1.06933 28.7255 1.27061C28.9721 1.46853 28.8044 1.95327 28.806 2.31222C28.8111 7.4498 28.806 12.5874 28.8161 17.7267C28.8161 18.1175 28.7239 18.3875 28.3968 18.6408C26.7027 19.9575 25.0304 21.3027 23.3498 22.6395C22.9657 22.9447 22.5866 23.255 22.2042 23.562C21.9459 23.77 21.6937 23.7476 21.4477 23.4949C23.4286 21.9216 25.4112 20.3483 27.3921 18.775C27.5581 18.6425 27.6571 18.4831 27.6336 18.2617C27.5917 17.8726 27.7259 17.47 27.5497 17.0893C27.5497 16.9048 27.5531 16.7219 27.5548 16.5374C27.637 16.4402 27.6336 16.3244 27.6336 16.207C27.6336 15.6283 27.6336 15.048 27.6336 14.4693C27.6336 14.3536 27.637 14.2362 27.5564 14.1389C27.6202 13.1107 27.6185 12.0808 27.5564 11.0527C27.6286 10.9654 27.6336 10.8614 27.6336 10.7558C27.6336 9.80306 27.6336 8.85035 27.6336 7.89764C27.6336 7.79197 27.6286 7.68798 27.5581 7.60076C27.5581 7.34413 27.5581 7.08918 27.5581 6.83255V6.83423Z" fill="#EAEAF4"/>
<path d="M33.5495 19.5516C33.6316 19.4241 33.6082 19.2815 33.6082 19.144C33.6082 18.1074 33.6082 17.0708 33.6082 16.0359C33.9419 15.7608 34.2757 15.4858 34.6095 15.2124C34.7269 15.1168 34.799 15.1352 34.799 15.2996C34.799 15.3935 34.799 15.4874 34.799 15.5814C34.799 21.4956 34.799 27.4097 34.799 33.3222C34.799 33.552 34.8812 33.8774 34.6833 33.9747C34.5089 34.0602 34.3311 33.765 34.155 33.6359C33.9386 33.4765 33.739 33.2971 33.531 33.1277C33.5947 33.0505 33.6065 32.9599 33.6065 32.8643C33.5998 31.5711 33.5931 30.2796 33.5864 28.9864C33.5914 28.8807 33.5998 28.7767 33.5998 28.6711C33.5998 25.7693 33.5998 22.8676 33.5998 19.9675C33.5998 19.8283 33.5662 19.6908 33.5478 19.5516H33.5495Z" fill="#A8C3E4"/>
<path d="M5.96953 11.3948C5.97959 11.6749 5.99637 11.9534 5.99637 12.2335C5.99972 13.7749 5.99804 15.318 5.99637 16.8595C5.99637 16.9853 6.02488 17.1144 5.93431 17.2989C4.7451 16.3395 3.57098 15.3918 2.39519 14.4442C2.43712 14.0835 2.54783 13.7414 2.84806 13.5267C3.82593 12.8256 4.81722 12.1429 5.80515 11.4552C5.85044 11.4233 5.91418 11.4166 5.96953 11.3965V11.3948Z" fill="#A8C3E4"/>
<path d="M32.7628 34.7983C32.3602 34.337 31.847 34.0083 31.3757 33.6309C29.1247 31.8244 26.862 30.0314 24.6044 28.2316C22.4843 26.5426 20.3642 24.8502 18.244 23.1611C18.1417 23.0806 18.0294 23.0152 18.0008 22.876C18.4755 22.8022 18.863 22.9884 19.2236 23.2752C23.0109 26.296 26.8 29.3135 30.589 32.3309C31.4864 33.0455 32.3837 33.76 33.2794 34.4745C33.3784 34.5534 33.474 34.6389 33.6115 34.7547C33.3029 34.8486 33.0312 34.7949 32.7645 34.7983H32.7628Z" fill="#A8C3E4"/>
<path d="M30.0187 16.6062C30.0187 14.8467 30.0221 13.0872 30.0221 11.3277C30.6578 11.7638 31.3002 12.1949 31.9292 12.6394C32.377 12.9564 32.8534 13.2348 33.2593 13.6122C33.4589 13.7984 33.4572 13.9443 33.2291 14.1204C32.6638 14.5532 32.1254 15.0245 31.5518 15.4472C31.0369 15.8279 30.584 16.2909 30.0187 16.6045V16.6062Z" fill="#A8C3E4"/>
<path d="M30.0187 16.6062C30.584 16.2926 31.0369 15.8296 31.5518 15.4489C32.1254 15.0245 32.6622 14.5549 33.2291 14.1221C33.4589 13.946 33.4589 13.8001 33.2593 13.6139C32.8551 13.2365 32.3787 12.9581 31.9292 12.6411C31.2985 12.1949 30.6578 11.7655 30.0221 11.3294C30.0187 11.2942 30.012 11.259 30.0154 11.2237C30.0238 11.1097 29.9651 10.9587 30.069 10.895C30.1831 10.8245 30.2804 10.9604 30.371 11.0225C31.6306 11.898 32.8852 12.7803 34.1449 13.6575C34.2975 13.7632 34.4166 13.8387 34.1986 14.0114C32.8567 15.0715 31.5216 16.1382 30.1831 17.2017C30.1579 17.2218 30.121 17.2302 30.059 17.257C29.9785 17.039 30.0238 16.8209 30.0187 16.6079V16.6062Z" fill="#97B8DF"/>
<path d="M1.35359 15.1906C1.30662 15.1922 1.26133 15.1956 1.21437 15.1973C1.25295 15.0497 1.30327 15.1319 1.35359 15.1906Z" fill="#EAEAF4"/>
<path d="M2.40358 19.5633C2.60653 19.4123 2.74072 19.1557 3.08121 19.2547C3.45692 19.3637 3.59446 19.4828 3.5995 19.8702C3.60621 20.4305 3.60117 20.9924 3.60117 21.5526C3.60117 23.9243 3.60117 26.296 3.60117 28.6677C3.60117 29.1776 3.32442 29.4477 2.88832 29.3957C2.65182 29.3671 2.55454 29.1692 2.40358 29.0367C2.40358 25.8784 2.40358 22.7217 2.40358 19.5633Z" fill="#2E3192"/>
<path d="M0.632344 30.6604C0.976192 30.6553 1.20431 30.8717 1.20934 31.2072C1.21437 31.5292 0.966128 31.7841 0.637376 31.7942C0.278433 31.8043 0.0184502 31.5728 0.0134183 31.239C0.00670904 30.8667 0.219727 30.6671 0.632344 30.6604Z" fill="#2E3192"/>
<path d="M27.5564 11.0527C27.6202 12.0808 27.6202 13.1107 27.5564 14.1389C27.2898 14.7746 26.9493 15.0027 26.2414 15.0027C20.7499 15.0027 15.2584 14.9943 9.76695 15.0145C9.06416 15.0178 8.35298 14.5515 8.39659 13.6575C8.43014 12.9564 8.39659 12.2519 8.40498 11.5508C8.41336 10.6719 8.87462 10.2106 9.74347 10.2106C15.235 10.2106 20.7265 10.2106 26.218 10.209C26.8469 10.209 27.3149 10.4505 27.5564 11.0543V11.0527ZM18.0092 13.8018C20.6795 13.8018 23.3481 13.7984 26.0184 13.8068C26.2968 13.8068 26.4159 13.7464 26.4041 13.4411C26.3823 12.8558 26.3907 12.2704 26.4008 11.685C26.4041 11.4737 26.332 11.3931 26.1156 11.4015C25.7299 11.415 25.3424 11.4049 24.9566 11.4049C20.0035 11.4049 15.0505 11.4049 10.0974 11.4049C9.77422 11.4049 9.61264 11.5598 9.61264 11.8695C9.61264 12.3727 9.63276 12.8776 9.60593 13.3791C9.58748 13.7196 9.6965 13.8101 10.0353 13.8085C12.6938 13.795 15.3507 13.8001 18.0092 13.8001V13.8018Z" fill="#2E3192"/>
<path d="M27.5548 16.5358C27.5548 16.7203 27.5514 16.9031 27.5497 17.0876C27.3434 17.3509 27.0683 17.4096 26.7446 17.4096C20.9126 17.4029 15.0823 17.4063 9.25034 17.4029C8.9652 17.4029 8.68844 17.4197 8.48045 17.1178C8.23724 16.7656 8.53077 16.2473 8.91152 16.2238C9.05074 16.2154 9.19163 16.2053 9.33253 16.2053C15.1176 16.2053 20.9009 16.2053 26.6859 16.1986C27.0365 16.1986 27.33 16.2607 27.5564 16.5374L27.5548 16.5358Z" fill="#2E3192"/>
<path d="M18.0059 18.6123C20.3356 18.6123 22.6654 18.6123 24.9952 18.6123C25.282 18.6123 25.5722 18.6123 25.7081 18.9326C25.8808 19.3402 25.7198 19.7059 25.2703 19.7964C25.168 19.8166 25.0606 19.8132 24.9549 19.8132C20.3189 19.8132 15.6828 19.8132 11.0467 19.8132C10.7918 19.8132 10.5335 19.8266 10.3456 19.5901C10.0471 19.2144 10.2265 18.7146 10.7012 18.6324C10.8387 18.6089 10.9813 18.6139 11.1205 18.6139C13.4151 18.6139 15.7096 18.6139 18.0042 18.6139L18.0059 18.6123Z" fill="#2E3192"/>
<path d="M19.5725 6.24047C19.8224 5.96707 19.8207 5.48903 20.3709 5.47897C20.9244 5.4689 20.9831 5.88991 21.2112 6.25724C21.3588 5.71379 21.3689 5.19215 21.4544 4.68393C21.5181 4.29815 21.5366 3.90398 21.602 3.5182C21.6574 3.1928 21.9442 2.99991 22.2612 3.03346C22.5832 3.06701 22.8197 3.3186 22.7862 3.66077C22.7241 4.29144 22.6252 4.92043 22.5447 5.54942C22.486 6.01739 22.434 6.48703 22.3736 6.955C22.3014 7.51522 22.2377 8.07711 22.1404 8.63398C22.1002 8.86042 21.8922 8.96609 21.6758 9.00299C21.4192 9.0466 21.2146 8.94764 21.0921 8.71617C20.9177 8.38574 20.7583 8.04692 20.5839 7.71649C20.5386 7.62927 20.5285 7.48335 20.4044 7.48167C20.2585 7.47832 20.2484 7.63766 20.1964 7.73327C20.0388 8.02847 19.8912 8.33039 19.7486 8.63398C19.6094 8.92918 19.3712 9.06505 19.0676 8.99628C18.769 8.92919 18.608 8.69436 18.5694 8.39245C18.4051 7.11099 18.2877 5.82449 18.0814 4.54974C18.0344 4.25454 18.0193 3.95094 18.0092 3.65071C17.9958 3.28338 18.1937 3.05023 18.5074 3.03681C18.9485 3.01836 19.1649 3.21461 19.2085 3.62722C19.2957 4.47594 19.4014 5.32466 19.5003 6.1717C19.502 6.18847 19.5322 6.20356 19.5742 6.24214L19.5725 6.24047Z" fill="#2E3192"/>
<path d="M10.8102 5.62154C10.8102 4.97746 10.8052 4.33337 10.8136 3.68929C10.8186 3.25654 11.0082 3.04185 11.3654 3.03681C11.7764 3.0301 12.0061 3.24816 12.0078 3.696C12.0162 5.24247 12.0129 6.78727 12.0095 8.33375C12.0095 8.66082 11.8703 8.90738 11.5399 8.99125C11.1809 9.08182 10.9696 8.8839 10.8203 8.58198C10.4882 7.91106 10.1527 7.24182 9.81391 6.57425C9.76359 6.47529 9.75017 6.34446 9.62102 6.2975C9.58748 6.25556 9.62438 6.3042 9.61767 6.29917C9.61431 6.96506 9.61431 7.63095 9.6076 8.29852C9.60425 8.62727 9.4969 8.88725 9.13796 8.9795C8.81759 9.06337 8.49723 8.87552 8.43181 8.54844C8.41336 8.45787 8.40498 8.36226 8.40498 8.27001C8.4033 6.76211 8.39994 5.25421 8.40498 3.74632C8.40665 3.20455 8.63644 2.98817 9.11615 3.03681C9.37446 3.06365 9.49355 3.24312 9.59586 3.44608C9.96151 4.17738 10.3272 4.90869 10.6911 5.63999C10.6962 5.71044 10.7197 5.78927 10.7985 5.76915C10.8488 5.75573 10.8304 5.67521 10.8086 5.62322L10.8102 5.62154Z" fill="#2E3192"/>
<path d="M14.9834 3.01836C15.3691 3.01836 15.7566 3.01333 16.1424 3.01836C16.5114 3.02507 16.7932 3.28506 16.7932 3.60374C16.7932 3.9543 16.5533 4.19919 16.1608 4.21093C15.6694 4.22602 15.1763 4.22435 14.6848 4.21093C14.4701 4.2059 14.3812 4.27299 14.4064 4.49104C14.4181 4.58329 14.408 4.6789 14.408 4.77115C14.408 5.17482 14.6077 5.39175 15.0068 5.42194C15.339 5.4471 15.5654 5.67857 15.5755 6.00564C15.5872 6.3411 15.3691 6.56587 14.9918 6.61451C14.8089 6.63799 14.5691 6.52896 14.455 6.66818C14.3275 6.82585 14.4081 7.07241 14.4097 7.2804C14.4131 7.89765 14.3326 7.79868 14.9213 7.80707C15.3188 7.8121 15.718 7.80371 16.1155 7.81042C16.5265 7.81713 16.7848 8.05363 16.7831 8.40754C16.7831 8.7732 16.5332 9.00131 16.1155 9.00467C15.3893 9.0097 14.663 9.00635 13.9367 9.00467C13.3899 9.00467 13.2105 8.8252 13.2088 8.26498C13.2054 6.85939 13.2088 5.45381 13.2088 4.04823C13.2088 3.90734 13.2037 3.76644 13.2121 3.62723C13.2306 3.23809 13.4369 3.02675 13.8227 3.01669C14.2085 3.00662 14.5959 3.01501 14.9817 3.01501L14.9834 3.01836Z" fill="#2E3192"/>
<path d="M27.5581 6.83423C27.5581 7.09086 27.5581 7.34581 27.5581 7.60244C27.273 8.60379 26.4696 9.0835 25.5957 9.00299C25.0002 8.94764 24.5557 8.62392 24.2505 8.1224C24.0827 7.84565 24.1867 7.50348 24.445 7.32065C24.648 7.1764 25.0271 7.23679 25.2283 7.46322C25.4112 7.66953 25.5873 7.87584 25.9026 7.79701C26.2448 7.70979 26.3941 7.5018 26.3689 7.16298C26.3438 6.82752 26.1542 6.63128 25.7668 6.62121C25.1143 6.60444 24.6463 6.28575 24.2823 5.77753C23.8345 5.15189 23.8781 4.40046 24.4031 3.64568C24.7084 3.20622 25.5621 2.91772 26.1341 3.0603C26.6473 3.18777 27.0885 3.41756 27.3384 3.91405C27.4927 4.21932 27.4088 4.52626 27.1271 4.69902C26.8402 4.87346 26.5568 4.81643 26.3387 4.54136C26.01 4.12371 25.5688 4.10526 25.2971 4.49775C25.0405 4.86843 25.2837 5.40349 25.7382 5.42194C26.6893 5.46052 27.2931 5.92345 27.5548 6.83591L27.5581 6.83423Z" fill="#2E3192"/>
<path d="M10.8102 5.62154C10.832 5.67354 10.8505 5.75572 10.8002 5.76747C10.7197 5.78759 10.6979 5.70876 10.6928 5.63832C10.7331 5.63161 10.7717 5.62657 10.8119 5.61986L10.8102 5.62154Z" fill="#97B8DF"/>
<path d="M9.61767 6.29749C9.61767 6.29749 9.58748 6.25221 9.62102 6.29582L9.61767 6.29749Z" fill="#97B8DF"/>
<path d="M17.9941 32.4115C19.9499 32.4115 21.9039 32.4115 23.8597 32.4115C24.3075 32.4115 24.4937 32.5456 24.544 32.8912C24.6094 33.3273 24.4048 33.5906 23.962 33.604C23.4705 33.6191 22.9791 33.6091 22.4876 33.6091C19.1045 33.6091 15.7214 33.6091 12.3383 33.6091C12.2091 33.6091 12.08 33.6174 11.9525 33.599C11.612 33.5537 11.3855 33.2769 11.4023 32.9448C11.4174 32.6547 11.6539 32.4266 11.9894 32.4165C12.4691 32.4014 12.9488 32.4098 13.4285 32.4098C14.9498 32.4098 16.4728 32.4098 17.9941 32.4098V32.4115Z" fill="#2E3192"/>
<path d="M33.5495 19.5516C33.5679 19.6908 33.6015 19.8283 33.6015 19.9675C33.6048 22.8693 33.6031 25.771 33.6015 28.6711C33.6015 28.7767 33.5931 28.8807 33.588 28.9864C33.4186 29.2933 33.1754 29.4779 32.8148 29.3672C32.4659 29.2598 32.4005 28.9713 32.4022 28.6392C32.4072 25.7408 32.4055 22.8408 32.4055 19.9424C32.4055 19.6505 32.4307 19.3738 32.7762 19.2765C33.0983 19.1859 33.365 19.253 33.5495 19.5516Z" fill="#2E3192"/>
<path d="M18.0075 13.8018C15.349 13.8018 12.6922 13.7951 10.0336 13.8101C9.69482 13.8118 9.58412 13.7213 9.60425 13.3808C9.63276 12.8792 9.61096 12.3744 9.61096 11.8712C9.61096 11.5614 9.77254 11.4066 10.0957 11.4066C15.0488 11.4066 20.0019 11.4066 24.9549 11.4066C25.3407 11.4066 25.7282 11.4166 26.114 11.4032C26.3287 11.3965 26.4025 11.477 26.3991 11.6867C26.3907 12.2721 26.3807 12.8574 26.4025 13.4428C26.4142 13.7481 26.2951 13.8085 26.0167 13.8085C23.3464 13.8001 20.6778 13.8034 18.0075 13.8034V13.8018Z" fill="#EAEAF4"/>
</svg>
