<svg width="131" height="139" viewBox="0 0 131 139" fill="none" xmlns="http://www.w3.org/2000/svg">
<g opacity="0.8" clip-path="url(#clip0_1206_25099)">
<path opacity="0.2" d="M66.6278 139C87.9355 139 105.209 137.326 105.209 135.261C105.209 133.195 87.9355 131.521 66.6278 131.521C45.3202 131.521 28.0469 133.195 28.0469 135.261C28.0469 137.326 45.3202 139 66.6278 139Z" fill="#2E3192"/>
<path d="M123.004 32.8628C122.372 34.0589 121.044 34.7185 119.702 34.5313L107.616 32.844L100.09 86.5956C98.2451 101.889 93.5571 109.072 83.0058 107.893C82.7323 107.866 82.4569 107.83 82.1771 107.788L8.14736 97.4519C-3.82595 95.78 -0.0593768 68.8825 11.9139 70.5544L23.2741 72.1404L26.4772 49.2664L31.9466 47.2317L27.1175 44.6937L27.8094 39.7534L38.5249 37.2787L29.1865 29.9191L31.7045 11.9386C32.6294 6.65284 34.8304 3.04566 38.609 1.51613C40.2398 0.856551 42.0253 0.694913 43.7677 0.938093L118.366 11.3539C126.425 14.0211 127.197 24.9387 123.005 32.8628H123.004Z" fill="#EAEAF4"/>
<g opacity="0.3">
<path d="M106.694 19.425L96.6539 91.1267C96.6539 91.1267 94.1045 110.305 77.3068 104.362C60.5092 98.4187 52.4648 91.3255 52.4648 91.3255L52.6214 79.8391C78.4583 84.5748 95.0979 60.0285 106.694 19.4246L106.694 19.425Z" fill="#2E3192"/>
</g>
<path d="M86.6371 93.9514L75.4365 92.3876C74.1898 98.3083 75.5747 102.769 78.1878 105.381C79.5326 106.724 81.2035 107.579 83.0063 107.892C82.7328 107.865 82.4574 107.83 82.1776 107.788L8.14789 97.4514C3.58789 96.8145 1.30862 92.5174 0.899826 87.5322C0.234937 79.4334 4.50115 69.5184 11.9145 70.5534L83.7452 80.5827C92.9033 82.7231 93.748 93.9253 86.6371 93.9514Z" fill="#BEBFDD"/>
<path d="M57.8158 19.0623L57.0625 16.1085C58.0202 15.8648 58.9982 15.6781 59.9685 15.5531L60.3589 18.5769C59.5104 18.686 58.6547 18.8496 57.8158 19.0628V19.0623Z" fill="#2E3192"/>
<path d="M65.6631 15.5077L65.3176 18.5349C66.9673 18.7231 68.5855 19.1115 70.1298 19.691L71.2045 16.8384C69.4258 16.1702 67.5582 15.7219 65.6626 15.5077H65.6631ZM76.254 19.4854L74.5082 21.9867C75.8689 22.9348 77.1006 24.0475 78.1704 25.2938L80.4883 23.3088C79.2498 21.8656 77.8268 20.5812 76.254 19.4854ZM83.6161 28.0884L80.8671 29.4086C81.577 30.8845 82.0964 32.457 82.4071 34.0811L85.4044 33.5089C85.0459 31.6261 84.4438 29.8013 83.6161 28.088V28.0884ZM72.6444 54.6685C71.2064 55.3126 69.6085 55.8144 67.8902 56.1594L68.4918 59.148C70.4323 58.7586 72.2497 58.1869 73.8974 57.4487L72.6444 54.6685ZM62.5866 56.8909C60.6102 57.3145 58.7393 58.2091 57.1752 59.4708L59.0935 61.8428C60.2879 60.8763 61.7178 60.1946 63.2287 59.8708L62.5866 56.8904V56.8909ZM55.6874 67.7756C55.799 66.9771 56.0174 66.1988 56.3373 65.4572L53.5323 64.2539C53.1046 65.2464 52.8128 66.2886 52.664 67.3534C52.5842 67.9242 52.5441 68.509 52.547 69.089C52.548 69.4615 52.5664 69.833 52.5963 70.1983L55.6371 69.9372C55.6149 69.6545 55.6018 69.3669 55.6004 69.0789C55.5999 68.6422 55.6274 68.2041 55.6874 67.7756Z" fill="#2E3192"/>
<path d="M85.1641 108.853C84.1803 108.853 83.1448 108.772 82.0537 108.61L8.03124 98.2749C1.29489 97.334 -0.737464 89.5074 0.225562 82.6336C1.1881 75.7599 5.29099 68.7902 12.0283 69.7306L22.5641 71.2013L25.6518 49.1509C25.6943 48.8484 25.8992 48.5936 26.1857 48.487L29.9107 47.1013L26.7293 45.4289C26.4186 45.2658 26.2437 44.9252 26.2925 44.5783L26.9844 39.6379C27.0323 39.2968 27.2855 39.0203 27.6213 38.9431L36.6475 36.8582L28.6698 30.5712C28.4379 30.3884 28.32 30.096 28.3611 29.8036L30.8791 11.8232C30.8805 11.8135 30.882 11.8044 30.8834 11.7952C31.8894 6.04618 34.3833 2.32851 38.2953 0.745419C39.9923 0.0588198 41.9241 -0.159271 43.8821 0.114307L118.481 10.5301C118.53 10.5368 118.58 10.5484 118.627 10.5643C121.692 11.579 123.981 13.7763 125.247 16.9189C127.12 21.5692 126.529 27.9797 123.74 33.2511C122.95 34.7459 121.28 35.5907 119.587 35.3548L108.326 33.7823L100.914 86.7108C99.6762 96.9799 97.1698 103.239 93.0288 106.395C90.8708 108.04 88.2794 108.853 85.1651 108.853H85.1641ZM10.8474 71.3098C5.80222 71.3098 2.67686 77.1341 1.87474 82.8633C1.02333 88.9443 2.65898 95.845 8.26221 96.6276L82.292 106.964C86.376 107.57 89.555 106.95 92.0184 105.073C95.7782 102.208 98.0802 96.3048 99.2631 86.4956L106.792 32.7285C106.856 32.2735 107.278 31.9575 107.732 32.0202L119.818 33.7075C120.82 33.8474 121.804 33.3514 122.268 32.4742C124.838 27.6174 125.401 21.755 123.703 17.5394C122.636 14.889 120.725 13.0323 118.174 12.1662L43.6511 1.76157C41.9816 1.52804 40.346 1.71042 38.9201 2.28701C35.5318 3.65828 33.44 6.85727 32.5258 12.0678L30.076 29.5614L39.0394 36.6252C39.2907 36.823 39.4062 37.1477 39.3361 37.4594C39.266 37.7711 39.0235 38.0158 38.7113 38.0877L28.5539 40.4336L28.0224 44.2289L32.3335 46.4948C32.6239 46.6477 32.7974 46.9565 32.7766 47.2837C32.7558 47.6108 32.5442 47.895 32.2364 48.0098L27.2323 49.8713L24.0983 72.2546C24.0345 72.7091 23.6126 73.0256 23.1584 72.9629L11.7983 71.3769C11.4746 71.3315 11.1576 71.3098 10.8478 71.3098H10.8474Z" fill="#2E3192"/>
<path d="M106.793 32.7291L107.535 27.4288L107.906 24.7784L108.092 23.4535C108.147 23.0202 108.228 22.5541 108.317 22.0943C108.682 20.2786 109.293 18.463 110.359 16.8398C110.901 16.0374 111.561 15.2862 112.375 14.6864C113.187 14.093 114.15 13.6452 115.185 13.4975C116.214 13.3335 117.288 13.4628 118.251 13.8358C119.221 14.1996 120.073 14.8051 120.77 15.5279C122.165 16.9923 122.891 18.9127 123.112 20.7891C123.233 21.7309 123.251 22.6742 123.168 23.6011C123.094 24.5285 122.929 25.4385 122.701 26.3248C122.246 28.0995 121.522 29.7733 120.627 31.3279C121.141 29.6092 121.572 27.8857 121.761 26.1507C121.858 25.2846 121.899 24.4194 121.878 23.5645C121.851 22.7095 121.755 21.8656 121.578 21.0501C121.217 19.4236 120.523 17.9033 119.47 16.7515C118.938 16.1875 118.32 15.7074 117.621 15.4247C116.926 15.1395 116.17 15.0396 115.433 15.1424C114.694 15.2456 113.989 15.5699 113.363 16.0249C112.738 16.4857 112.2 17.0898 111.745 17.7624C110.847 19.1269 110.283 20.75 109.95 22.4219C109.87 22.8373 109.796 23.2489 109.739 23.6996L109.554 25.0226L109.183 27.6681L108.442 32.9592C108.379 33.4142 107.958 33.7312 107.503 33.6676C107.047 33.6039 106.73 33.1836 106.793 32.7291H106.793Z" fill="#2E3192"/>
<g opacity="0.3">
<path d="M120.627 31.3274L108.074 29.5744L108.987 23.0558C111.518 7.31906 128.054 14.3149 120.627 31.3269V31.3274Z" fill="#2E3192"/>
</g>
<path d="M95.9158 78.3568C109.558 78.3568 120.617 67.3139 120.617 53.6918C120.617 40.0697 109.558 29.0269 95.9158 29.0269C82.2738 29.0269 71.2148 40.0697 71.2148 53.6918C71.2148 67.3139 82.2738 78.3568 95.9158 78.3568Z" fill="#009726"/>
<path d="M110.51 72.7549L104.223 76.2911L107.673 82.4084L113.961 78.8722L110.51 72.7549Z" fill="#2E3192"/>
<path d="M128.446 106.354L123.688 109.028C122.064 109.943 120.006 109.367 119.089 107.745L116.75 103.596L107.15 86.5768C106.234 84.9546 106.811 82.8972 108.436 81.9824L113.193 79.3084C113.214 79.2973 113.281 79.262 113.389 79.207C114.978 78.4437 116.911 79.0329 117.791 80.5913L129.73 101.763C130.646 103.385 130.069 105.439 128.445 106.354L128.446 106.354Z" fill="#009726"/>
<path d="M115.019 56.3591C114.147 62.5868 110.382 67.7023 105.269 70.537C105.267 70.5386 105.265 70.5402 105.262 70.5418C101.729 72.4998 97.5547 73.3692 93.245 72.7676C82.6957 71.2945 75.338 61.5591 76.8132 51.0251C78.2884 40.4911 88.038 33.1441 98.5873 34.6171C102.603 35.1778 106.154 36.9356 108.934 39.4783V39.4812C113.458 43.6163 115.933 49.8357 115.02 56.3596L115.019 56.3591Z" fill="#EAEAF4"/>
<g opacity="0.3">
<path d="M107.717 38.455L103.079 71.5778C100.062 72.7879 96.6965 73.2501 93.244 72.7681C90.1626 72.3377 87.3542 71.2014 84.957 69.5488C92.7207 61.9552 99.1995 50.6705 104.685 36.5322C105.763 37.0828 106.777 37.7255 107.717 38.4555V38.455Z" fill="#2E3192"/>
</g>
<path d="M115.016 56.3591C114.144 62.5868 110.379 67.7022 105.266 70.5369C106.255 69.7374 106.454 67.4764 106.454 67.4764L109.73 44.078C109.98 41.5526 108.98 39.5743 108.931 39.4807C113.455 43.6158 115.93 49.8352 115.017 56.3591H115.016Z" fill="#BEBFDD"/>
<g opacity="0.2">
<path d="M118.675 95.0997L117.205 95.9257C116.703 96.2085 116.067 96.0304 115.784 95.5296L115.061 94.2476L112.096 88.9893C111.812 88.488 111.991 87.8525 112.493 87.5698L113.963 86.7437C113.969 86.7404 113.99 86.7293 114.024 86.7124C114.514 86.4764 115.112 86.6583 115.384 87.1399L119.072 93.6807C119.355 94.182 119.177 94.8165 118.675 95.0992L118.675 95.0997Z" fill="white"/>
</g>
<path d="M128.448 106.354L123.69 109.028C122.065 109.943 120.008 109.367 119.091 107.745L116.752 103.596C119.897 105.748 125.471 103.074 123.013 95.9696C122.682 95.0128 122.23 94.1023 121.702 93.2382L113.195 79.3079C113.217 79.2968 113.283 79.2616 113.391 79.2065C114.981 78.4432 116.913 79.0324 117.793 80.5908L129.732 101.762C130.648 103.384 130.072 105.439 128.447 106.354H128.448Z" fill="#008622"/>
<path d="M122.037 110.296C121.657 110.296 121.275 110.244 120.898 110.139C119.815 109.837 118.915 109.132 118.363 108.153L106.424 86.984C105.285 84.9642 106.003 82.3964 108.026 81.2586L112.782 78.5841C113.761 78.0331 114.897 77.8961 115.98 78.1986C117.063 78.5006 117.963 79.2056 118.515 80.1841L130.454 101.353C131.593 103.373 130.875 105.941 128.852 107.079L124.096 109.753C123.457 110.113 122.751 110.296 122.037 110.296H122.037ZM114.844 79.7055C114.412 79.7055 113.985 79.8159 113.599 80.0336L108.843 82.7081C107.621 83.3956 107.187 84.9478 107.875 86.1681L119.814 107.337C120.148 107.929 120.692 108.355 121.346 108.537C122.001 108.72 122.687 108.638 123.279 108.304L128.035 105.63C129.258 104.942 129.691 103.39 129.003 102.17L117.064 81.0005C116.73 80.4089 116.186 79.9829 115.532 79.8005C115.305 79.7373 115.074 79.7055 114.844 79.7055Z" fill="#2E3192"/>
<g opacity="0.24">
<path d="M115.019 56.3591C114.147 62.5868 110.382 67.7023 105.269 70.537C105.267 70.5386 105.265 70.5402 105.262 70.5418C104.561 70.9307 103.831 71.2795 103.08 71.5772C100.064 72.7873 96.6976 73.2496 93.2451 72.7676C90.1637 72.3372 87.3553 71.2009 84.9581 69.5483C79.1495 65.5387 75.769 58.4821 76.8132 51.0251C78.2885 40.4911 88.0381 33.1441 98.5874 34.6171C100.775 34.9226 102.824 35.5836 104.686 36.5322C105.764 37.0827 106.778 37.7254 107.718 38.4554C108.138 38.7797 108.544 39.1223 108.934 39.4788V39.4817C113.458 43.6168 115.933 49.8362 115.02 56.3601L115.019 56.3591Z" fill="#2E3192"/>
</g>
<g opacity="0.13">
<path d="M78.4438 52.6998C77.6426 58.4199 79.4474 63.9045 82.9521 67.9561C78.3921 63.8186 75.892 57.5765 76.8091 51.0246C78.2843 40.4906 88.0339 33.1436 98.5833 34.6166C102.599 35.1773 106.15 36.9351 108.93 39.4778V39.4807C109.489 39.9927 110.015 40.5336 110.51 41.1034C107.738 38.5867 104.209 36.8487 100.218 36.2914C89.6686 34.8183 79.9185 42.1654 78.4438 52.6994V52.6998Z" fill="#2E3192"/>
</g>
<path d="M120.379 57.1075C118.49 70.5973 106.005 80.0056 92.4949 78.1195C85.0487 77.0797 78.8453 72.8279 75.0938 66.9592C78.8985 71.7693 84.4887 75.1743 91.0472 76.0901C104.56 77.9767 117.042 68.5684 118.931 55.0781C119.779 49.0232 118.348 43.1738 115.29 38.3951C119.326 43.4918 121.351 50.1634 120.379 57.1075Z" fill="#008622"/>
<g opacity="0.6">
<path d="M119.298 45.7325C116.021 38.0106 108.883 32.1506 99.961 30.9048C86.4487 29.0182 73.9666 38.4265 72.0773 51.9168C71.5235 55.8718 71.941 59.7357 73.1519 63.2739C71.4713 59.3063 70.8113 54.8513 71.452 50.2763C73.3408 36.7865 85.8259 27.3782 99.3358 29.2643C108.879 30.597 116.383 37.2101 119.297 45.7325H119.298Z" fill="white"/>
</g>
<path d="M95.9681 79.1935C94.777 79.1935 93.5791 79.1105 92.3789 78.9431C78.435 76.9962 68.6772 64.085 70.627 50.1614C71.5716 43.4165 75.0898 37.4427 80.5336 33.3405C85.9779 29.2382 92.6958 27.4988 99.4501 28.4411C106.205 29.3844 112.187 32.8975 116.296 38.3334C120.404 43.7697 122.146 50.4779 121.202 57.2223C120.257 63.9672 116.739 69.9411 111.295 74.0433C106.818 77.417 101.48 79.1931 95.9681 79.1931V79.1935ZM95.8647 29.8539C90.7123 29.8539 85.7222 31.5137 81.5367 34.6678C76.4476 38.5027 73.1589 44.0867 72.2761 50.3916C70.4535 63.4071 79.5749 75.4763 92.6094 77.2963C98.9239 78.1784 105.203 76.5518 110.292 72.7164C115.381 68.8815 118.67 63.2975 119.553 56.9927C120.436 50.6878 118.807 44.4168 114.967 39.3355C111.126 34.2538 105.534 30.9699 99.2201 30.0884C98.0986 29.9321 96.9775 29.8544 95.8647 29.8544V29.8539Z" fill="#2E3192"/>
<path d="M95.9275 73.6477C95.0094 73.6477 94.0816 73.5845 93.1471 73.4537C82.2344 71.93 74.5979 61.8255 76.1238 50.9291C77.6498 40.0323 87.7691 32.4078 98.6813 33.9306C103.968 34.6688 108.649 37.4181 111.865 41.6723C115.08 45.9265 116.443 51.1767 115.705 56.4552C114.31 66.4189 105.729 73.6477 95.9275 73.6477ZM95.9014 35.1229C86.7799 35.1229 78.7964 41.8489 77.4981 51.1212C76.0784 61.2609 83.1844 70.6639 93.3389 72.082C94.2077 72.2031 95.0727 72.2624 95.926 72.2624C105.047 72.2629 113.031 65.5364 114.33 56.2641C115.749 46.1244 108.643 36.7214 98.4889 35.3038C97.6201 35.1827 96.7547 35.1233 95.9014 35.1233V35.1229Z" fill="#2E3192"/>
<path d="M88.8031 38.2422L84.8264 37.9812C84.7926 38.6668 84.7273 39.3674 84.6307 40.0569C84.4611 41.2694 84.189 42.5042 83.8242 43.7254L87.672 44.7497C88.0808 43.3741 88.389 41.9811 88.5814 40.6079C88.6915 39.8219 88.7664 39.0244 88.8031 38.2413V38.2422Z" fill="#2E3192"/>
<path d="M81.3971 48.9248C80.2703 50.5402 78.9019 51.9718 77.3242 53.1708L79.9562 55.923C81.8296 54.4934 83.4585 52.7978 84.7921 50.8838L81.3976 48.9248H81.3971Z" fill="#2E3192"/>
<g opacity="0.3">
<path d="M115.019 56.3592C113.544 66.8931 103.794 74.2402 93.245 72.7671C82.6957 71.294 75.338 61.5586 76.8132 51.0246C76.8282 50.9175 76.8432 50.8104 76.8606 50.7067C76.0536 60.1531 82.7817 68.6813 92.2946 70.0096C102.132 71.3833 111.224 64.5347 112.599 54.7085C113.945 45.1024 107.411 36.2065 97.9205 34.5342C98.1414 34.5569 98.3646 34.5848 98.5874 34.6162C109.137 36.0893 116.494 45.8247 115.019 56.3587V56.3592Z" fill="#2E3192"/>
</g>
<path d="M105.261 71.2356C105.058 71.2356 104.856 71.1468 104.719 70.9765C104.479 70.6783 104.527 70.2421 104.826 70.0023C105.379 69.5589 105.695 68.1799 105.764 67.4147C105.765 67.4036 105.767 67.3915 105.768 67.3804L109.042 43.996C109.271 41.6486 108.328 39.8185 108.318 39.8002C108.14 39.4614 108.271 39.0426 108.611 38.8651C108.95 38.688 109.369 38.8183 109.547 39.157C109.594 39.2467 110.696 41.3842 110.421 44.1465C110.42 44.1557 110.419 44.1649 110.418 44.174L107.144 67.5556C107.112 67.8933 106.86 70.1471 105.694 71.0827C105.566 71.1854 105.412 71.2351 105.26 71.2351L105.261 71.2356Z" fill="#2E3192"/>
<path opacity="0.6" d="M97.3905 55.6099C90.902 60.4996 84.5957 62.8407 81.5607 58.8243C78.5257 54.8084 81.3254 47.5888 87.8139 42.6996C94.3023 37.8099 102.023 37.1021 105.058 41.118C108.093 45.1338 103.879 50.7202 97.3905 55.6099Z" fill="url(#paint0_linear_1206_25099)"/>
<g opacity="0.83">
<path d="M91.397 51.4911C93.2561 49.3987 93.7175 46.776 92.4275 45.6332C91.1376 44.4904 88.5847 45.2602 86.7256 47.3526C84.8665 49.445 84.4051 52.0677 85.6951 53.2105C86.985 54.3533 89.5379 53.5835 91.397 51.4911Z" fill="white"/>
</g>
<path d="M83.0061 108.725C82.9588 108.725 82.9109 108.721 82.8626 108.712C80.2118 108.253 77.89 106.731 76.3258 104.427C74.8371 102.235 73.3334 98.3377 74.6206 92.2167C74.7105 91.7887 75.1183 91.5035 75.5508 91.5638L86.6906 93.1194C88.8403 93.09 90.2644 91.8225 90.504 89.7202C90.8688 86.5188 88.3828 82.5377 83.5908 81.3999L23.1589 72.9624C22.7032 72.8987 22.3858 72.479 22.4496 72.024C22.5133 71.5695 22.9357 71.2529 23.3894 71.3157L83.86 79.759C83.8851 79.7623 83.9102 79.7672 83.9344 79.7729C89.8686 81.1606 92.6006 86.0305 92.159 89.9084C91.8178 92.9042 89.7029 94.7725 86.6398 94.7831C86.6021 94.786 86.5606 94.7807 86.5214 94.7749L76.1045 93.3201C75.4058 97.3432 75.9654 100.933 77.7044 103.494C79.0134 105.421 80.9462 106.692 83.1482 107.074C83.6014 107.152 83.9049 107.583 83.8261 108.035C83.7556 108.44 83.4038 108.724 83.0066 108.725H83.0061Z" fill="#2E3192"/>
<path d="M74.6232 92.207C75.0822 90.5226 75.8133 88.9029 76.8807 87.52C77.9361 86.141 79.3112 84.9681 80.9474 84.3292C81.7616 84.0166 82.64 83.8294 83.5195 83.8853C84.3941 83.9346 85.26 84.1994 85.978 84.68C86.697 85.1601 87.2677 85.8153 87.6919 86.5352C88.1181 87.2575 88.4066 88.0426 88.6134 88.8406C88.3399 88.0624 87.9881 87.3116 87.517 86.6486C87.0483 85.9861 86.4545 85.4178 85.7625 85.0361C85.0701 84.6535 84.2834 84.4885 83.5113 84.5087C82.7352 84.5237 81.9752 84.7548 81.2784 85.0921C79.879 85.7787 78.7382 86.9285 77.9027 88.237C77.0557 89.548 76.5299 91.0447 76.2487 92.5679L76.2473 92.5766C76.1637 93.0287 75.7293 93.3274 75.2765 93.2444C74.8237 93.1614 74.5241 92.7272 74.6077 92.2751C74.6121 92.2524 74.6174 92.2288 74.6232 92.2075V92.207Z" fill="#2E3192"/>
<g opacity="0.3">
<path d="M75.4336 92.3875C77.322 83.9066 86.2559 80.8446 88.611 88.8407C88.611 88.8407 89.7253 92.8908 86.5023 93.56C83.2794 94.2292 75.4336 92.3875 75.4336 92.3875Z" fill="#2E3192"/>
</g>
<path d="M50.5009 18.7617L53.5997 16.711C53.8897 16.519 53.9689 16.1287 53.7771 15.8392L52.1221 13.3456C51.9298 13.0561 51.5389 12.977 51.2489 13.1685L47.7129 15.5082L44.9552 12.2899C44.7291 12.026 44.3314 11.9951 44.0671 12.2209L41.7907 14.1658C41.5264 14.3917 41.4955 14.7888 41.7216 15.0527L44.1386 17.8734L41.0398 19.924C40.7499 20.1161 40.6706 20.5064 40.8625 20.7959L42.517 23.2895C42.7093 23.579 43.1002 23.6581 43.3901 23.4665L46.9262 21.1269L49.6838 24.3452C49.91 24.6091 50.3077 24.64 50.572 24.4142L52.8483 22.4692C53.1127 22.2434 53.1436 21.8463 52.9174 21.5824L50.5005 18.7617H50.5009Z" fill="#DA0000"/>
<path d="M59.5956 76.0279L58.9621 76.989C58.9621 76.989 58.233 77.3938 58.088 77.2867C58.0474 77.2558 57.9203 77.2047 57.7575 77.1453C57.3574 77.0001 56.7529 76.8148 56.7529 76.8148L55.0984 76.5837C54.9965 76.4718 54.9013 76.3521 54.8066 76.2267C54.7399 76.1417 54.6766 76.0544 54.6133 75.9676L57.1003 74.1963C57.5454 74.8206 58.0648 75.3133 58.6495 75.6607C58.6495 75.6607 59.0254 75.8585 59.5956 76.0279Z" fill="#2E3192"/>
<g opacity="0.3">
<path d="M79.8907 107.457C79.8907 107.457 79.8878 107.46 79.881 107.467L8.1465 97.4513C3.5865 96.8144 1.30723 92.5173 0.898438 87.5321H0.901337C6.66741 98.7893 55.7614 102.58 75.7057 86.7137C71.6883 92.4883 72.2 104.545 78.1864 105.381L79.8907 107.457Z" fill="#2E3192"/>
</g>
<g opacity="0.25">
<path d="M45.5506 85.1451C45.0626 88.6317 37.3139 90.4314 28.2432 89.1648C19.173 87.8983 12.2158 84.0455 12.7039 80.5589C13.1919 77.0724 19.2252 77.0174 28.2954 78.284C37.3656 79.5505 46.0382 81.6591 45.5501 85.1451H45.5506Z" fill="white"/>
</g>
</g>
<defs>
<linearGradient id="paint0_linear_1206_25099" x1="87.1962" y1="45.7572" x2="99.5902" y2="54.2957" gradientUnits="userSpaceOnUse">
<stop stop-color="white"/>
<stop offset="1" stop-color="#F1F2F2"/>
</linearGradient>
<clipPath id="clip0_1206_25099">
<rect width="131" height="139" fill="white"/>
</clipPath>
</defs>
</svg>
