<svg width="248" height="60" viewBox="0 0 248 60" fill="none" xmlns="http://www.w3.org/2000/svg">
<path d="M58.8209 17.4493C52.7196 20.3505 46.7357 23.4089 40.6178 26.3135C24.8766 33.7879 19.1096 35.0801 0 33.2043C10.7004 35.2429 26.7494 38.9436 45.0421 31.4935C49.7277 29.7616 54.2837 27.9335 58.8209 26.1008V17.4493Z" fill="#C6D5ED"/>
<path d="M62.2979 6.2078C62.7728 5.632 63.3273 5.11377 63.8952 4.6044C53.7969 8.56972 44.6616 15.0619 35.6016 20.8964C23.9935 28.3708 13.665 33.2253 0.0367605 32.5521C12.5669 34.3803 25.3749 33.5265 38.8636 26.0765C45.6999 22.6493 52.1786 18.8645 58.8842 15.3687C59.0857 11.8418 60.2136 8.73803 62.2979 6.2078Z" fill="#7DA6D7"/>
<path d="M77.088 1.08759C77.9901 1.78521 78.6432 2.73972 78.9232 3.86143C79.1855 4.91339 79.0926 5.96756 78.7328 6.911C80.6168 6.32965 82.5339 5.78817 84.5219 5.32753C91.2884 3.77728 98.2885 3.63776 105.374 4.0076C96.5318 1.04995 87.2427 -0.392895 77.088 1.08759Z" fill="#7DA6D7"/>
<path d="M82.7575 7.8578C78.4782 9.07363 74.4059 10.5519 70.4233 12.1442C70.1587 12.3613 69.9074 12.5838 69.7104 12.8241C69.3274 13.287 69.0441 13.8285 68.8503 14.4619L69.8931 13.8694C71.0808 13.1995 72.4544 13.0312 73.7628 13.3878C75.0734 13.751 76.167 14.6025 76.8378 15.7873C77.078 16.2114 77.3215 16.919 77.4222 17.6587C79.8795 14.7055 87.0755 10.4534 94.6479 13.8296C98.8784 12.7023 101.863 11.5352 106.488 10.7435C115.664 9.19433 125.157 9.05481 134.765 9.42355C120.466 4.5159 103.212 2.04657 82.7586 7.85669" fill="#C6D5ED"/>
<path fill-rule="evenodd" clip-rule="evenodd" d="M246.891 12.2925C246.151 11.5529 245.258 11.183 244.211 11.183C243.164 11.183 242.294 11.5529 241.541 12.2925C240.808 13.0322 240.442 13.9258 240.442 14.9734C240.442 16.0209 240.808 16.9045 241.541 17.6442C242.294 18.3839 243.187 18.7538 244.221 18.7538C245.255 18.7538 246.151 18.3839 246.891 17.6442C247.63 16.8912 248 15.9976 248 14.9634C248 13.9292 247.63 13.0444 246.891 12.2925ZM246.381 17.1437C245.792 17.7461 245.069 18.0462 244.211 18.0462C243.353 18.0462 242.649 17.7417 242.042 17.1326C241.446 16.5435 241.147 15.8205 241.147 14.9623C241.147 14.1041 241.448 13.3943 242.05 12.7919C242.653 12.1907 243.375 11.8884 244.22 11.8884C245.064 11.8884 245.787 12.1929 246.389 12.8019C246.99 13.391 247.292 14.1152 247.292 14.9723C247.292 15.8293 246.987 16.5336 246.378 17.1426" fill="#1E3480"/>
<path fill-rule="evenodd" clip-rule="evenodd" d="M245.634 16.269C245.582 16.1583 245.53 16.0476 245.477 15.9402C245.425 15.8317 245.363 15.722 245.29 15.6113C245.186 15.4541 245.037 15.3234 244.848 15.2182C244.999 15.185 245.129 15.1318 245.241 15.0565C245.353 14.9812 245.45 14.8938 245.535 14.7963C245.686 14.5926 245.761 14.3645 245.761 14.1087C245.761 13.7743 245.643 13.4996 245.407 13.2837C245.283 13.1719 245.123 13.091 244.927 13.0379C244.731 12.9858 244.498 12.9593 244.229 12.9593H242.629V17.0641H243.345V15.3655H243.591C243.944 15.3655 244.218 15.484 244.414 15.7187C244.506 15.8372 244.611 16.0033 244.729 16.2203C244.846 16.4363 244.978 16.7175 245.12 17.0641H245.975L245.631 16.269H245.634ZM244.471 14.7033C244.337 14.7332 244.155 14.7476 243.926 14.7476H243.346V13.5893H244.043C244.201 13.5893 244.338 13.6026 244.455 13.6281C244.574 13.6547 244.674 13.6868 244.76 13.7266C244.825 13.7587 244.876 13.8086 244.912 13.8739C244.948 13.9392 244.967 14.0278 244.967 14.1397C244.967 14.3357 244.901 14.4829 244.771 14.5815C244.704 14.6335 244.606 14.6734 244.471 14.7033Z" fill="#1E3480"/>
<path fill-rule="evenodd" clip-rule="evenodd" d="M103.181 27.7597C102.728 20.4757 96.6791 14.7066 89.285 14.7066C81.8908 14.7066 75.3612 20.9441 75.3612 28.6356C75.3612 32.0162 76.5655 35.1156 78.569 37.5285C80.629 40.1739 83.8257 41.6289 87.1796 41.6289C91.2907 41.6289 95.0553 39.3102 96.9016 35.6361C96.9016 37.0103 96.9636 38.3811 96.9636 39.7531C96.9636 41.5868 98.3793 43.0861 100.112 43.0861C101.844 43.0861 103.26 41.5824 103.26 39.7531V28.4983C103.26 28.2458 103.232 27.9978 103.181 27.7597ZM89.0979 35.7246C85.0821 35.7246 81.8255 32.4669 81.8255 28.4495C81.8255 24.4322 85.0821 21.1744 89.0979 21.1744C93.1138 21.1744 96.3703 24.4322 96.3703 28.4495C96.3703 32.4669 93.1138 35.7246 89.0979 35.7246Z" fill="#1E3480"/>
<path fill-rule="evenodd" clip-rule="evenodd" d="M112.375 39.7442C112.375 41.6288 110.848 43.1558 108.965 43.1558C107.082 43.1558 105.554 41.6277 105.554 39.7442L105.521 28.6975V28.6843C105.541 24.8131 107.121 21.3173 109.659 18.7903C112.206 16.2568 115.71 14.691 119.568 14.691C123.425 14.691 126.964 16.2657 129.508 18.8114C129.576 18.8811 129.642 18.952 129.704 19.0251C132.132 21.5531 133.626 24.9836 133.626 28.7562V39.6168C133.626 41.5081 132.093 43.0418 130.203 43.0418C128.312 43.0418 126.779 41.5081 126.779 39.6168V28.7562C126.779 26.8317 126.031 25.0844 124.813 23.7921C124.764 23.7478 124.715 23.7024 124.667 23.6537C123.363 22.3493 121.559 21.5409 119.568 21.5409C117.576 21.5409 115.774 22.3404 114.474 23.6338C113.166 24.9349 112.353 26.7276 112.342 28.7075L112.375 39.7442Z" fill="#1E3480"/>
<path fill-rule="evenodd" clip-rule="evenodd" d="M136.112 21.3903H138.959V39.7619C138.959 41.6233 140.493 43.1337 142.382 43.1337C144.272 43.1337 145.806 41.6233 145.806 39.7619V21.3903H148.653C150.544 21.3903 152.077 19.8799 152.077 18.0185C152.077 16.1571 150.544 14.6467 148.653 14.6467H145.806V5.02633C145.806 3.16493 144.273 1.65344 142.382 1.65344C140.492 1.65344 138.959 3.16382 138.959 5.02633V14.6467H136.112C134.221 14.6467 132.688 16.1571 132.688 18.0185C132.688 19.8799 134.221 21.3903 136.112 21.3903Z" fill="#1E3480"/>
<path fill-rule="evenodd" clip-rule="evenodd" d="M179.08 27.7143C178.627 20.4326 172.58 14.6635 165.187 14.6635C157.794 14.6635 151.265 20.8999 151.265 28.5902C151.265 31.9698 152.47 35.0692 154.472 37.4809C156.532 40.1263 159.728 41.5813 163.081 41.5813C167.193 41.5813 170.955 39.2626 172.801 35.5885C172.801 36.9627 172.863 38.3325 172.863 39.7044C172.863 41.537 174.279 43.0363 176.011 43.0363C177.744 43.0363 179.159 41.5326 179.159 39.7044V28.4518C179.159 28.1994 179.13 27.9524 179.08 27.7143ZM165.188 35.9639C161.118 35.9639 157.817 32.6619 157.817 28.5913C157.817 24.5208 161.118 21.2188 165.188 21.2188C169.258 21.2188 172.558 24.5208 172.558 28.5913C172.558 32.6619 169.258 35.9639 165.188 35.9639Z" fill="#1E3480"/>
<path fill-rule="evenodd" clip-rule="evenodd" d="M213.351 39.6391C213.351 41.5248 211.818 43.054 209.928 43.054C208.037 43.054 206.504 41.5248 206.504 39.6391V18.0286C206.504 16.1428 208.037 14.6125 209.928 14.6125C211.818 14.6125 213.351 16.1428 213.351 18.0286V39.6391Z" fill="#1E3480"/>
<path fill-rule="evenodd" clip-rule="evenodd" d="M243.457 27.7143C243.004 20.4326 236.957 14.6635 229.564 14.6635C222.171 14.6635 215.643 20.8999 215.643 28.5902C215.643 31.9698 216.847 35.0692 218.849 37.4809C220.908 40.1263 224.104 41.5813 227.459 41.5813C231.57 41.5813 235.332 39.2626 237.179 35.5885C237.179 36.9627 237.241 38.3325 237.241 39.7044C237.241 41.537 238.656 43.0363 240.389 43.0363C242.121 43.0363 243.537 41.5326 243.537 39.7044V28.4518C243.537 28.1994 243.508 27.9524 243.457 27.7143ZM229.565 35.9639C225.495 35.9639 222.194 32.6619 222.194 28.5913C222.194 24.5208 225.495 21.2188 229.565 21.2188C233.635 21.2188 236.935 24.5208 236.935 28.5913C236.935 32.6619 233.635 35.9639 229.565 35.9639Z" fill="#1E3480"/>
<path fill-rule="evenodd" clip-rule="evenodd" d="M213.289 1.65346C215.106 1.65346 216.579 3.16274 216.579 5.02304C216.579 6.48249 215.674 7.7249 214.407 8.1933C210.946 10.2418 207.246 11.4045 203.458 12.2439C206.632 9.73248 208.904 7.16238 210.092 4.22134C210.155 3.95558 210.249 3.702 210.37 3.46504L210.406 3.39528C210.967 2.35551 212.048 1.65346 213.289 1.65346Z" fill="#1E3480"/>
<path fill-rule="evenodd" clip-rule="evenodd" d="M67.4979 25.0392L74.3618 21.1437C76.0011 20.2124 76.5756 18.1284 75.6458 16.4874C74.716 14.8474 72.6317 14.2727 70.9913 15.2029L67.1459 17.3854V16.463C67.1459 16.391 67.1437 16.319 67.1393 16.2482C67.2046 14.4277 67.6706 12.8576 68.6834 11.6295C69.8147 10.2587 71.7241 9.16687 74.6275 8.43382C76.4594 7.9765 77.5729 6.11841 77.1147 4.2869C76.6564 2.45428 74.8001 1.34032 72.9682 1.79764C68.5594 2.90939 65.4701 4.79959 63.4123 7.29328C61.3546 9.78807 60.4248 12.7601 60.3174 16.081C60.3041 16.2061 60.2964 16.3334 60.2964 16.463V39.75C60.2964 41.6413 61.8294 43.1749 63.72 43.1749C65.6106 43.1749 67.1437 41.6413 67.1437 39.75V25.2119C67.2621 25.161 67.3806 25.1034 67.4957 25.0381" fill="#1E3480"/>
<path fill-rule="evenodd" clip-rule="evenodd" d="M202.366 16.98C203.813 17.9334 204.186 19.8391 203.199 21.2354C202.212 22.6318 200.238 22.9916 198.79 22.0382C198.04 21.5455 197.306 21.2144 196.576 21.0206L196.564 21.0173V21.0206C195.805 20.8191 195.01 20.7438 194.173 20.7681C192.174 20.8268 190.425 21.2033 189.306 21.9065C188.768 22.2442 188.441 22.676 188.452 23.1865C188.464 23.8022 188.653 24.1964 188.976 24.4433C189.602 24.9217 190.69 25.2539 192.072 25.5285L195.417 26.1929C197.71 26.6469 199.718 27.3611 201.252 28.5371C203.104 29.9567 204.191 31.8801 204.203 34.5266V34.5388H204.215V34.5609C204.215 37.5828 202.608 39.8129 200.034 41.2691C197.941 42.4528 195.176 43.0507 192.231 43.064H192.218V43.0762H192.135C190.512 43.0762 188.748 42.744 187.132 42.2181C185.393 41.6522 183.775 40.8361 182.635 39.9469C181.27 38.8883 181.053 36.9605 182.15 35.6428C183.247 34.3251 185.244 34.1158 186.609 35.1744C187.193 35.6306 188.106 36.0757 189.145 36.4135C190.129 36.7346 191.185 36.9361 192.135 36.9361H192.218V36.9483C194.08 36.9383 195.722 36.6205 196.83 35.9938C197.461 35.6372 197.855 35.1544 197.855 34.5609V34.5388H197.868C197.862 33.9884 197.653 33.602 197.302 33.3329C196.63 32.818 195.519 32.4603 194.15 32.1879L190.806 31.5235C188.526 31.0718 186.571 30.4007 185.051 29.2391C183.23 27.8472 182.172 25.9626 182.117 23.3072C182.057 20.4293 183.49 18.2623 185.854 16.7762C187.969 15.4463 190.878 14.7454 193.998 14.6546C195.445 14.6125 196.856 14.7521 198.252 15.123V15.1263C199.671 15.505 201.039 16.1074 202.366 16.98Z" fill="#1E3480"/>
<path fill-rule="evenodd" clip-rule="evenodd" d="M64.7993 51.8783L63.6194 52.1906L64.0953 53.9911C64.164 54.2491 64.154 54.4595 64.0688 54.6256C63.9813 54.7906 63.8452 54.898 63.6614 54.9467C63.4677 54.9976 63.2951 54.9744 63.1412 54.8736C62.9873 54.7728 62.8777 54.5946 62.8102 54.341L61.514 49.4344C61.4399 49.1521 61.451 48.9306 61.5484 48.7756C61.6469 48.6195 61.8373 48.5032 62.1217 48.429L63.7743 47.9916C64.2636 47.862 64.6477 47.8 64.9322 47.8056C65.2122 47.8089 65.469 47.8698 65.7026 47.9883C65.9372 48.1068 66.1354 48.2729 66.2959 48.4899C66.4597 48.7069 66.5803 48.9672 66.6611 49.2717C66.8327 49.9206 66.7619 50.4643 66.4519 50.9039C66.1409 51.3424 65.5908 51.6679 64.8016 51.8761M63.7179 49.0414L62.8501 49.2706L63.3648 51.2161L64.2326 50.9869C64.537 50.9061 64.7816 50.8086 64.9687 50.6902C65.1546 50.5717 65.2819 50.4266 65.3517 50.2539C65.4203 50.08 65.4236 49.8763 65.3616 49.6426C65.2875 49.3603 65.1436 49.1543 64.9322 49.0203C64.6964 48.8808 64.2935 48.8885 63.7179 49.0414ZM72.5111 50.3336C72.5798 50.6924 72.5875 51.0334 72.5333 51.3579C72.479 51.6823 72.3661 51.9735 72.1968 52.2315C72.0274 52.4884 71.806 52.7044 71.5348 52.876C71.2614 53.0476 70.9438 53.1694 70.5774 53.2403C70.211 53.3101 69.8734 53.3145 69.559 53.2525C69.2469 53.1905 68.9624 53.0698 68.7067 52.8904C68.451 52.7132 68.2407 52.4851 68.0736 52.2083C67.9064 51.9292 67.788 51.6103 67.7193 51.2493C67.6496 50.885 67.6419 50.5396 67.695 50.2162C67.7503 49.8929 67.8599 49.6028 68.0282 49.3481C68.1953 49.0945 68.4156 48.8808 68.6901 48.708C68.9668 48.5353 69.2823 48.4135 69.642 48.3448C70.0062 48.2751 70.346 48.2707 70.667 48.3316C70.9869 48.3925 71.2725 48.5132 71.5249 48.6892C71.7795 48.8675 71.9898 49.0956 72.1569 49.3735C72.3241 49.6526 72.4414 49.9726 72.5111 50.3336ZM71.3046 50.565C71.2105 50.0745 71.029 49.7124 70.7622 49.4798C70.4932 49.2484 70.1778 49.1665 69.8136 49.2362C69.5778 49.2816 69.383 49.3824 69.227 49.5385C69.072 49.6947 68.9668 49.8995 68.9159 50.1564C68.8639 50.4144 68.8683 50.7012 68.9292 51.0179C68.989 51.3324 69.0897 51.597 69.2292 51.8152C69.3708 52.0322 69.5402 52.1872 69.7417 52.278C69.9453 52.3688 70.1656 52.3899 70.4069 52.3445C70.7711 52.2747 71.0334 52.0832 71.1983 51.7665C71.3622 51.4509 71.3965 51.0489 71.3046 50.565ZM74.8877 50.7389L75.0448 51.7521C75.0825 51.9979 75.0537 52.1906 74.9574 52.3301C74.8611 52.4707 74.7238 52.5549 74.5467 52.5826C74.3718 52.6091 74.2191 52.5704 74.0874 52.4641C73.9556 52.3567 73.8715 52.1828 73.8339 51.9403L73.3114 48.5674C73.2262 48.0237 73.3823 47.7203 73.7752 47.6594C73.9767 47.6284 74.1305 47.6694 74.239 47.7823C74.3475 47.8953 74.425 48.0769 74.4726 48.3227C74.5777 48.0514 74.6973 47.841 74.8301 47.6904C74.964 47.5387 75.1566 47.4446 75.4112 47.4047C75.6658 47.3649 75.9226 47.3903 76.1816 47.4811C76.4407 47.5719 76.5857 47.7214 76.6178 47.9318C76.641 48.078 76.61 48.2086 76.5214 48.3205C76.4362 48.4323 76.3322 48.4965 76.2137 48.5154C76.1706 48.522 76.0588 48.5109 75.8794 48.4833C75.7001 48.4556 75.5463 48.4511 75.4168 48.4722C75.2397 48.4999 75.1013 48.5685 75.0028 48.6793C74.9054 48.7911 74.8401 48.9417 74.8057 49.1344C74.7725 49.3281 74.7637 49.5518 74.7792 49.8109C74.7958 50.0678 74.8312 50.3757 74.8877 50.7389ZM80.9933 52.7055L80.8185 50.9858C80.6081 51.2449 80.3801 51.4487 80.1388 51.597C79.8964 51.7465 79.6219 51.8373 79.312 51.8694C78.9345 51.9071 78.5803 51.844 78.2482 51.6757C77.9173 51.5074 77.6438 51.246 77.428 50.8906C77.2133 50.5351 77.0804 50.1033 77.0284 49.5972C76.9764 49.079 77.0207 48.6261 77.1623 48.2374C77.3029 47.8465 77.5221 47.5398 77.8198 47.3139C78.1176 47.088 78.4585 46.9563 78.8448 46.9164C79.1725 46.8832 79.4736 46.9197 79.7459 47.0293C80.0171 47.139 80.2617 47.3239 80.4742 47.5808L80.4598 47.4346C80.4377 47.2109 80.4731 47.036 80.5683 46.9075C80.6646 46.7813 80.7974 46.7082 80.9668 46.6905C81.1361 46.6739 81.28 46.7171 81.4007 46.8212C81.518 46.9242 81.59 47.0902 81.6121 47.3161L82.1489 52.5892C82.2043 53.1307 82.0394 53.4208 81.6553 53.4607C81.4173 53.485 81.2557 53.4274 81.166 53.289C81.0786 53.1517 81.0221 52.9568 80.9967 52.7066M78.2538 49.4643C78.287 49.7921 78.3689 50.0678 78.4984 50.2959C78.6279 50.5207 78.7862 50.6824 78.9699 50.7798C79.1537 50.8762 79.3452 50.916 79.5455 50.895C79.7614 50.8729 79.9551 50.7942 80.1255 50.6625C80.2971 50.5285 80.4233 50.3391 80.5096 50.0933C80.5971 49.8475 80.6225 49.5507 80.5871 49.2052C80.5617 48.9616 80.5074 48.7435 80.4233 48.553C80.3392 48.3637 80.2362 48.2086 80.1133 48.0902C79.9883 47.9717 79.8521 47.8886 79.7038 47.8388C79.5544 47.7901 79.3983 47.7735 79.2378 47.7901C78.9101 47.8233 78.6511 47.9872 78.4619 48.2806C78.2715 48.5718 78.2017 48.9672 78.2526 49.4655M86.457 50.5296L86.4493 50.3712C86.3109 50.5639 86.1659 50.7278 86.0109 50.8607C85.856 50.9947 85.6844 51.0965 85.4962 51.1663C85.3081 51.2372 85.0911 51.2781 84.8465 51.2903C84.5509 51.3047 84.2831 51.256 84.0418 51.1453C83.8016 51.0334 83.6112 50.8751 83.4717 50.6658C83.3068 50.4133 83.2127 50.0435 83.1883 49.5563L83.0688 47.1301C83.0566 46.8843 83.1031 46.6994 83.2071 46.5731C83.3134 46.4469 83.4551 46.3782 83.6388 46.3694C83.8248 46.3605 83.9753 46.4137 84.096 46.531C84.2155 46.6473 84.2808 46.8278 84.2919 47.0703L84.3882 49.0303C84.4026 49.3137 84.438 49.5507 84.4956 49.7412C84.5531 49.9316 84.6461 50.0789 84.7756 50.1819C84.9051 50.2838 85.0756 50.3314 85.2881 50.3214C85.4929 50.3114 85.6844 50.2406 85.8615 50.1088C86.0375 49.977 86.1626 49.8098 86.2367 49.6083C86.2965 49.4322 86.312 49.0513 86.2832 48.4644L86.2102 46.9762C86.198 46.7326 86.2456 46.5477 86.353 46.4203C86.4614 46.2919 86.6053 46.2232 86.7869 46.2155C86.9706 46.2066 87.1189 46.2598 87.2374 46.376C87.3536 46.4912 87.4167 46.6706 87.43 46.9175L87.6038 50.4643C87.616 50.6968 87.5706 50.874 87.4709 50.9969C87.3713 51.1187 87.2363 51.1829 87.0691 51.1918C86.9009 51.2006 86.7603 51.1464 86.6463 51.0301C86.5312 50.9149 86.467 50.7466 86.457 50.5296ZM92.2594 48.8155L89.8641 48.8487C89.8707 49.1277 89.9316 49.3724 90.0423 49.5828C90.1541 49.7943 90.3024 49.9516 90.485 50.0568C90.6666 50.1631 90.8691 50.214 91.0861 50.2107C91.2333 50.2085 91.3661 50.1896 91.4868 50.1531C91.6074 50.1177 91.7248 50.0623 91.8366 49.987C91.9506 49.9117 92.0535 49.8331 92.1476 49.7467C92.2428 49.6614 92.3657 49.5463 92.5173 49.4001C92.5782 49.3448 92.6668 49.3171 92.7841 49.3149C92.9092 49.3126 93.0121 49.347 93.0918 49.4145C93.1693 49.4832 93.2113 49.5784 93.2125 49.7035C93.2136 49.8143 93.1715 49.9449 93.0885 50.0944C93.0033 50.2428 92.8748 50.3878 92.7 50.5263C92.5273 50.6647 92.3103 50.7821 92.0458 50.874C91.7812 50.9681 91.4779 51.0168 91.1348 51.0212C90.3467 51.0323 89.7312 50.8175 89.2885 50.3746C88.8446 49.9316 88.6177 49.3248 88.6077 48.5563C88.6022 48.1942 88.6509 47.8565 88.7549 47.5454C88.859 47.2342 89.0129 46.9673 89.2143 46.7425C89.418 46.5189 89.6704 46.345 89.9714 46.2232C90.2725 46.1014 90.6068 46.0361 90.9743 46.0317C91.4536 46.025 91.8654 46.1202 92.2107 46.3173C92.5572 46.5144 92.8162 46.7713 92.9922 47.0891C93.1671 47.4069 93.2578 47.7325 93.2623 48.0647C93.2667 48.3736 93.1804 48.573 93.0055 48.6682C92.8306 48.7623 92.5815 48.811 92.2616 48.8155M89.8552 48.1533L92.0768 48.1223C92.0414 47.7037 91.924 47.3914 91.7248 47.1877C91.5255 46.9817 91.2665 46.881 90.9466 46.8854C90.6389 46.8909 90.391 46.9994 90.1983 47.2121C90.0057 47.4269 89.8906 47.7402 89.8552 48.1533ZM99.5307 50.9105L97.5194 50.8684C97.2305 50.8629 97.0246 50.7942 96.9029 50.6614C96.7811 50.5285 96.7225 50.3192 96.7291 50.0357L96.832 45.0871C96.8376 44.7981 96.9051 44.591 97.0346 44.4659C97.1641 44.3419 97.3722 44.281 97.6556 44.2876L99.7875 44.3319C100.102 44.3386 100.372 44.364 100.602 44.4072C100.831 44.4504 101.036 44.5301 101.216 44.6442C101.37 44.7405 101.504 44.8623 101.623 45.0063C101.739 45.1491 101.826 45.3097 101.885 45.4824C101.945 45.6563 101.973 45.8379 101.968 46.0294C101.955 46.6883 101.616 47.1644 100.95 47.4557C101.81 47.748 102.23 48.2928 102.214 49.0901C102.206 49.4577 102.104 49.7866 101.909 50.0778C101.715 50.3701 101.456 50.5816 101.132 50.7156C100.93 50.7942 100.698 50.8496 100.438 50.8773C100.177 50.9072 99.8738 50.9172 99.5273 50.9105M99.4886 47.9861L98.1028 47.9573L98.0629 49.8785L99.4941 49.9084C100.395 49.9272 100.851 49.6116 100.866 48.9616C100.872 48.6283 100.762 48.3869 100.531 48.2308C100.3 48.078 99.9535 47.996 99.4886 47.9861ZM98.1581 45.2975L98.1227 46.9995L99.3436 47.0249C99.6746 47.0316 99.9325 47.005 100.115 46.9463C100.297 46.8865 100.437 46.7713 100.538 46.5964C100.615 46.4713 100.655 46.3317 100.659 46.1756C100.665 45.8434 100.552 45.6197 100.319 45.5057C100.084 45.3916 99.7244 45.3296 99.2407 45.3196L98.1581 45.2975ZM106.442 50.6315L106.449 50.4731C106.295 50.6536 106.136 50.8042 105.968 50.9227C105.803 51.0423 105.623 51.1286 105.429 51.1829C105.236 51.2372 105.015 51.2593 104.771 51.2493C104.475 51.2383 104.213 51.1663 103.982 51.0345C103.752 50.9039 103.576 50.7289 103.456 50.5074C103.314 50.2417 103.252 49.8641 103.271 49.378L103.363 46.9496C103.373 46.7027 103.435 46.5233 103.55 46.4059C103.666 46.2886 103.813 46.2332 103.997 46.2409C104.183 46.2476 104.329 46.3151 104.439 46.4414C104.547 46.5676 104.597 46.7525 104.587 46.9961L104.512 48.9572C104.501 49.2407 104.517 49.4798 104.557 49.6747C104.597 49.8696 104.678 50.0246 104.797 50.1376C104.917 50.2505 105.084 50.3126 105.297 50.3214C105.502 50.3292 105.698 50.2749 105.885 50.1597C106.072 50.0446 106.212 49.8885 106.304 49.6936C106.379 49.523 106.428 49.1443 106.45 48.5586L106.506 47.0703C106.516 46.8267 106.579 46.6462 106.698 46.5288C106.817 46.4104 106.967 46.355 107.148 46.3627C107.332 46.3694 107.475 46.4369 107.582 46.5621C107.687 46.6872 107.736 46.871 107.726 47.1179L107.591 50.6669C107.582 50.8994 107.523 51.0722 107.412 51.1862C107.302 51.2981 107.163 51.3512 106.995 51.3446C106.826 51.339 106.691 51.2726 106.586 51.1464C106.482 51.0212 106.434 50.8496 106.442 50.6315ZM112.349 49.585L109.959 49.4101C109.941 49.6891 109.98 49.9372 110.073 50.1575C110.167 50.3779 110.3 50.5473 110.472 50.668C110.645 50.7887 110.841 50.8574 111.058 50.8729C111.204 50.8839 111.339 50.8762 111.462 50.8507C111.586 50.8263 111.707 50.7809 111.825 50.7156C111.945 50.6514 112.054 50.5805 112.156 50.5041C112.258 50.4266 112.391 50.3225 112.553 50.1908C112.62 50.1409 112.711 50.1199 112.827 50.1287C112.952 50.1376 113.051 50.1808 113.125 50.255C113.196 50.3292 113.23 50.4288 113.22 50.5539C113.212 50.6636 113.158 50.7898 113.061 50.9327C112.963 51.0733 112.822 51.2062 112.638 51.3291C112.454 51.452 112.227 51.5494 111.956 51.6192C111.684 51.6901 111.378 51.7111 111.035 51.6867C110.249 51.6292 109.654 51.3612 109.251 50.8817C108.85 50.4022 108.676 49.7777 108.731 49.0103C108.758 48.6494 108.835 48.3172 108.967 48.016C109.097 47.7148 109.273 47.4623 109.494 47.2552C109.716 47.0504 109.982 46.8998 110.293 46.8046C110.602 46.7082 110.942 46.6728 111.308 46.7005C111.786 46.7359 112.188 46.8666 112.515 47.0936C112.842 47.3206 113.078 47.5985 113.226 47.9307C113.372 48.2629 113.434 48.5951 113.41 48.9262C113.387 49.234 113.285 49.4256 113.101 49.5042C112.919 49.5817 112.666 49.6094 112.348 49.5861M110.009 48.7169L112.225 48.8797C112.226 48.46 112.136 48.1378 111.956 47.9174C111.774 47.6948 111.526 47.5719 111.206 47.5498C110.901 47.5265 110.644 47.614 110.434 47.81C110.222 48.006 110.079 48.3094 110.009 48.7169ZM115.635 47.8233L115.622 47.9717C115.862 47.7081 116.117 47.521 116.382 47.4114C116.649 47.3017 116.948 47.263 117.279 47.2929C117.601 47.3217 117.881 47.418 118.121 47.5808C118.362 47.7425 118.533 47.9584 118.635 48.2264C118.702 48.3836 118.74 48.5486 118.748 48.7247C118.755 48.8996 118.748 49.12 118.722 49.389L118.516 51.6613C118.494 51.906 118.421 52.0854 118.298 52.1994C118.175 52.3146 118.025 52.3633 117.845 52.3478C117.664 52.3312 117.523 52.2537 117.42 52.1153C117.319 51.9769 117.28 51.7886 117.301 51.5505L117.486 49.5164C117.522 49.1133 117.493 48.7999 117.402 48.5763C117.31 48.3537 117.097 48.2275 116.764 48.1976C116.546 48.1776 116.341 48.223 116.152 48.3371C115.962 48.45 115.814 48.6172 115.71 48.8365C115.635 49.0126 115.573 49.3492 115.528 49.8475L115.388 51.3767C115.366 51.6236 115.291 51.8041 115.166 51.9171C115.039 52.0311 114.887 52.0787 114.704 52.0632C114.527 52.0466 114.39 51.9702 114.287 51.8307C114.185 51.6923 114.145 51.504 114.167 51.266L114.488 47.7369C114.509 47.5055 114.576 47.3361 114.688 47.2309C114.798 47.1246 114.943 47.0792 115.118 47.0958C115.224 47.1058 115.321 47.1401 115.403 47.1988C115.483 47.2575 115.546 47.3394 115.59 47.4446C115.632 47.552 115.646 47.6771 115.633 47.8222M122.828 52.2437C122.508 52.4397 122.204 52.5815 121.918 52.6667C121.629 52.7509 121.313 52.7752 120.972 52.7387C120.658 52.7044 120.391 52.6125 120.169 52.4641C119.945 52.3157 119.781 52.1286 119.676 51.9038C119.571 51.6779 119.532 51.442 119.559 51.1962C119.596 50.8629 119.731 50.5905 119.969 50.3768C120.205 50.1653 120.512 50.0379 120.892 49.9992C120.969 49.9892 121.166 49.9704 121.481 49.9416C121.794 49.9106 122.062 49.8818 122.286 49.8541C122.51 49.8242 122.755 49.7877 123.018 49.7412C123.038 49.4178 122.999 49.1742 122.902 49.0137C122.802 48.8498 122.574 48.749 122.213 48.7114C121.905 48.677 121.667 48.6948 121.502 48.7645C121.334 48.8343 121.187 48.9472 121.057 49.1089C120.927 49.2695 120.836 49.3758 120.784 49.4256C120.731 49.4754 120.629 49.492 120.478 49.4754C120.34 49.4599 120.226 49.4034 120.138 49.3038C120.047 49.2063 120.011 49.089 120.025 48.9517C120.048 48.7379 120.146 48.5375 120.321 48.3504C120.494 48.1655 120.749 48.0237 121.084 47.9285C121.42 47.831 121.827 47.8089 122.306 47.8609C122.843 47.9196 123.256 48.0293 123.548 48.1887C123.84 48.3482 124.035 48.5718 124.132 48.8597C124.229 49.1454 124.253 49.5164 124.205 49.9693C124.173 50.2539 124.145 50.4986 124.123 50.6957C124.099 50.895 124.074 51.1176 124.045 51.3612C124.02 51.5893 124.033 51.8329 124.082 52.0898C124.13 52.3467 124.15 52.5106 124.142 52.5815C124.128 52.7066 124.057 52.8151 123.929 52.9048C123.802 52.9934 123.661 53.031 123.514 53.0155C123.389 53.0022 123.272 52.9291 123.163 52.7985C123.052 52.6678 122.943 52.4851 122.83 52.2459M122.941 50.4742C122.756 50.5196 122.487 50.5595 122.139 50.5971C121.791 50.6337 121.549 50.6614 121.414 50.6813C121.279 50.7012 121.147 50.7544 121.018 50.8419C120.888 50.9282 120.813 51.0611 120.794 51.2394C120.774 51.4254 120.827 51.5893 120.953 51.7355C121.079 51.8794 121.254 51.9636 121.479 51.9879C121.72 52.0134 121.948 51.9846 122.164 51.9016C122.378 51.8185 122.543 51.6967 122.657 51.5417C122.787 51.3689 122.875 51.0722 122.921 50.6492L122.939 50.4753L122.941 50.4742ZM129.238 52.0865C129.196 52.422 129.077 52.6988 128.885 52.917C128.69 53.1351 128.427 53.2857 128.093 53.3688C127.758 53.4518 127.362 53.4651 126.906 53.4075C126.469 53.3521 126.102 53.2392 125.806 53.0653C125.513 52.8915 125.304 52.6955 125.18 52.4763C125.058 52.2581 125.008 52.0466 125.034 51.8451C125.05 51.7122 125.112 51.6026 125.221 51.5206C125.327 51.4365 125.453 51.4044 125.599 51.4232C125.727 51.4387 125.82 51.483 125.882 51.5539C125.941 51.6247 125.996 51.72 126.044 51.8407C126.141 52.0743 126.27 52.2537 126.43 52.3832C126.591 52.5117 126.821 52.5947 127.12 52.6324C127.364 52.6634 127.572 52.6335 127.74 52.5449C127.911 52.4574 128.004 52.3423 128.021 52.2039C128.048 51.9901 127.987 51.8229 127.838 51.7056C127.689 51.5882 127.432 51.4597 127.073 51.3235C126.668 51.1674 126.342 51.0146 126.093 50.8673C125.844 50.72 125.654 50.5429 125.52 50.3369C125.387 50.1298 125.336 49.8885 125.37 49.6161C125.401 49.3724 125.503 49.151 125.677 48.9539C125.85 48.7545 126.085 48.6073 126.385 48.5143C126.684 48.4212 127.036 48.4002 127.436 48.45C127.75 48.4899 128.029 48.5574 128.271 48.6549C128.514 48.7512 128.712 48.8664 128.866 48.9982C129.021 49.1299 129.133 49.2683 129.202 49.4123C129.274 49.5574 129.302 49.6936 129.285 49.8209C129.269 49.9593 129.207 50.0689 129.103 50.1453C128.998 50.2229 128.859 50.2505 128.685 50.2284C128.561 50.2129 128.461 50.1642 128.381 50.0822C128.302 49.9992 128.215 49.8807 128.121 49.7235C128.045 49.5939 127.947 49.4832 127.831 49.3968C127.716 49.3093 127.551 49.254 127.337 49.2263C127.119 49.1986 126.929 49.2218 126.773 49.2971C126.616 49.3735 126.527 49.4787 126.509 49.6194C126.494 49.7467 126.534 49.8586 126.631 49.9549C126.727 50.049 126.862 50.1365 127.037 50.2118C127.211 50.2882 127.453 50.3845 127.76 50.5019C128.125 50.6403 128.42 50.7898 128.642 50.9493C128.865 51.1054 129.027 51.2804 129.128 51.4697C129.229 51.658 129.267 51.8628 129.238 52.0865ZM134.945 48.4312L137.002 52.6003L137.491 48.7147C137.523 48.4622 137.602 48.2806 137.725 48.1677C137.848 48.0547 138.002 48.0093 138.188 48.0326C138.379 48.0569 138.519 48.1378 138.614 48.2773C138.708 48.4179 138.739 48.615 138.707 48.8664L138.06 54.0033C137.987 54.5768 137.714 54.8326 137.238 54.7728C137.12 54.7573 137.016 54.7285 136.924 54.6809C136.833 54.6355 136.751 54.5691 136.677 54.4849C136.604 54.4019 136.538 54.3033 136.478 54.1959C136.419 54.0885 136.361 53.9778 136.302 53.8637L134.302 49.7478L133.819 53.5725C133.787 53.8217 133.706 54.0033 133.575 54.1162C133.443 54.2303 133.286 54.2745 133.105 54.2513C132.918 54.228 132.777 54.145 132.679 54.0021C132.583 53.8582 132.551 53.6633 132.582 53.4164L133.217 48.3781C133.244 48.1643 133.289 47.9994 133.352 47.8842C133.425 47.758 133.531 47.6594 133.673 47.5908C133.814 47.5232 133.961 47.4988 134.113 47.5188C134.231 47.5343 134.33 47.5664 134.409 47.614C134.49 47.6627 134.558 47.7258 134.613 47.7989C134.669 47.8731 134.721 47.9639 134.776 48.0769C134.83 48.1887 134.886 48.3061 134.943 48.429M144.12 53.2326C144.075 53.5947 143.976 53.9224 143.825 54.2136C143.672 54.5049 143.476 54.7474 143.235 54.9412C142.994 55.1327 142.718 55.27 142.405 55.3498C142.093 55.4295 141.752 55.4461 141.382 55.3996C141.012 55.3531 140.69 55.2523 140.41 55.0962C140.132 54.94 139.898 54.7385 139.711 54.4883C139.523 54.2402 139.392 53.9579 139.321 53.6434C139.247 53.3256 139.233 52.9867 139.278 52.6213C139.325 52.2526 139.425 51.9226 139.575 51.6314C139.728 51.3401 139.922 51.0999 140.161 50.9083C140.398 50.7189 140.673 50.5838 140.988 50.5041C141.304 50.4244 141.641 50.4067 142.004 50.4532C142.372 50.4997 142.698 50.6005 142.983 50.7577C143.269 50.9138 143.504 51.1176 143.688 51.3623C143.875 51.6103 144.005 51.8916 144.077 52.2083C144.15 52.525 144.164 52.8671 144.118 53.2314M142.897 53.0764C142.959 52.5815 142.898 52.1817 142.717 51.8761C142.532 51.5738 142.257 51.3988 141.89 51.3523C141.652 51.3224 141.435 51.359 141.238 51.4586C141.042 51.5583 140.879 51.7222 140.752 51.9503C140.622 52.1795 140.538 52.453 140.498 52.7741C140.458 53.0919 140.472 53.3754 140.537 53.6268C140.605 53.8759 140.719 54.0752 140.881 54.2247C141.046 54.3731 141.249 54.4628 141.493 54.4938C141.862 54.5403 142.171 54.4384 142.424 54.1871C142.677 53.9379 142.835 53.5659 142.897 53.0764ZM149.344 54.9323C149.324 55.084 149.258 55.239 149.145 55.4018C149.035 55.5624 148.875 55.7085 148.671 55.8425C148.465 55.9743 148.216 56.0706 147.92 56.1304C147.627 56.1902 147.302 56.1969 146.95 56.1526C146.198 56.0573 145.641 55.765 145.273 55.2733C144.907 54.7817 144.77 54.1693 144.863 53.4319C144.926 52.9336 145.078 52.5039 145.319 52.1452C145.56 51.7864 145.877 51.5251 146.269 51.3634C146.662 51.1995 147.111 51.1497 147.619 51.2139C147.934 51.2538 148.217 51.3357 148.468 51.4619C148.718 51.586 148.926 51.7332 149.09 51.9027C149.254 52.0721 149.375 52.2448 149.45 52.4209C149.526 52.5992 149.555 52.7586 149.537 52.9004C149.52 53.0465 149.449 53.1628 149.328 53.2514C149.206 53.3378 149.068 53.371 148.914 53.3521C148.813 53.3389 148.734 53.3034 148.673 53.2425C148.613 53.1827 148.549 53.0875 148.479 52.9613C148.36 52.7176 148.226 52.5294 148.078 52.3943C147.93 52.2614 147.732 52.1795 147.483 52.1485C147.124 52.1031 146.815 52.2072 146.562 52.4596C146.306 52.7121 146.149 53.0831 146.087 53.5692C146.058 53.7995 146.06 54.0121 146.093 54.2114C146.125 54.4107 146.184 54.5835 146.275 54.7319C146.365 54.8803 146.481 54.9987 146.624 55.0884C146.766 55.177 146.928 55.2335 147.11 55.2556C147.352 55.2866 147.568 55.2556 147.755 55.1659C147.944 55.074 148.119 54.9212 148.283 54.7075C148.374 54.5802 148.467 54.4827 148.563 54.4174C148.658 54.3498 148.769 54.3255 148.894 54.3421C149.044 54.3609 149.16 54.4318 149.243 54.5569C149.326 54.682 149.36 54.8083 149.345 54.9356M151.868 50.7776L151.641 52.5815C151.819 52.4231 151.987 52.3013 152.146 52.216C152.307 52.1308 152.479 52.0721 152.663 52.0433C152.848 52.0134 153.043 52.0123 153.248 52.0389C153.556 52.0776 153.823 52.1773 154.045 52.3378C154.267 52.4984 154.432 52.7121 154.536 52.979C154.604 53.134 154.641 53.3045 154.649 53.4895C154.656 53.6722 154.645 53.8814 154.615 54.1151L154.32 56.446C154.29 56.6896 154.211 56.8668 154.083 56.9775C153.957 57.0882 153.802 57.1314 153.617 57.1082C153.217 57.0572 153.046 56.7859 153.109 56.2932L153.368 54.2391C153.417 53.8493 153.397 53.5426 153.307 53.32C153.219 53.0964 153.012 52.9624 152.688 52.9225C152.473 52.8948 152.268 52.9325 152.079 53.0332C151.891 53.1351 151.738 53.2868 151.625 53.4895C151.537 53.6622 151.464 53.9811 151.406 54.444L151.203 56.0529C151.173 56.2932 151.096 56.4681 150.971 56.5811C150.847 56.694 150.688 56.7394 150.496 56.714C150.095 56.663 149.925 56.3917 149.987 55.899L150.652 50.6237C150.683 50.3779 150.759 50.1996 150.88 50.09C151.001 49.9792 151.157 49.9372 151.347 49.9604C151.541 49.9848 151.682 50.0656 151.774 50.204C151.867 50.3424 151.898 50.534 151.867 50.7765M159.099 55.5779L156.716 55.3199C156.689 55.5967 156.718 55.8469 156.803 56.0706C156.888 56.2943 157.016 56.4681 157.184 56.5944C157.352 56.7228 157.546 56.797 157.762 56.8203C157.908 56.8358 158.043 56.8336 158.167 56.8114C158.291 56.7915 158.414 56.7505 158.534 56.6896C158.656 56.6287 158.768 56.5623 158.872 56.4892C158.977 56.4161 159.112 56.3164 159.28 56.1902C159.349 56.1437 159.44 56.126 159.555 56.1382C159.68 56.1515 159.777 56.198 159.848 56.2755C159.918 56.3519 159.947 56.4526 159.933 56.5778C159.921 56.6874 159.862 56.8125 159.762 56.9509C159.66 57.0882 159.514 57.2156 159.323 57.3319C159.135 57.4481 158.905 57.5378 158.632 57.5976C158.358 57.6585 158.05 57.6696 157.71 57.633C156.926 57.5478 156.341 57.2599 155.955 56.766C155.57 56.2733 155.417 55.6432 155.5 54.878C155.54 54.5182 155.63 54.1882 155.77 53.8925C155.91 53.5969 156.096 53.3499 156.324 53.1517C156.554 52.9546 156.824 52.8129 157.138 52.7287C157.451 52.6435 157.791 52.6202 158.157 52.6601C158.634 52.7121 159.03 52.8572 159.349 53.0953C159.669 53.3333 159.895 53.6201 160.031 53.9567C160.166 54.2934 160.216 54.6278 160.18 54.9578C160.147 55.2645 160.037 55.4527 159.851 55.5247C159.667 55.5956 159.414 55.6144 159.095 55.5801M156.787 54.63L158.996 54.8692C159.012 54.4495 158.933 54.1251 158.76 53.8992C158.587 53.6711 158.343 53.5393 158.025 53.505C157.719 53.4717 157.46 53.5504 157.244 53.7375C157.025 53.9268 156.873 54.2236 156.787 54.63ZM164.913 56.7937C164.877 57.1303 164.764 57.4094 164.575 57.6308C164.384 57.8523 164.124 58.0073 163.791 58.0959C163.457 58.1856 163.06 58.2044 162.603 58.1557C162.166 58.1081 161.796 57.9996 161.498 57.8324C161.202 57.6641 160.989 57.4725 160.862 57.2543C160.737 57.0395 160.684 56.828 160.705 56.6254C160.719 56.4925 160.779 56.3829 160.885 56.2976C160.989 56.2124 161.115 56.178 161.262 56.1935C161.39 56.2079 161.483 56.25 161.545 56.3198C161.607 56.3895 161.663 56.4837 161.713 56.6032C161.815 56.8347 161.947 57.013 162.108 57.1392C162.272 57.2654 162.505 57.344 162.805 57.3761C163.048 57.4027 163.255 57.3695 163.422 57.2776C163.592 57.1868 163.682 57.0705 163.697 56.931C163.72 56.7162 163.656 56.5501 163.504 56.4349C163.354 56.3198 163.095 56.1969 162.734 56.0662C162.325 55.9167 161.997 55.7705 161.745 55.6277C161.494 55.4848 161.3 55.311 161.162 55.1073C161.025 54.9024 160.97 54.6632 161 54.3897C161.027 54.1461 161.125 53.9224 161.295 53.722C161.463 53.5193 161.697 53.3688 161.995 53.2713C162.293 53.1728 162.643 53.1462 163.045 53.1894C163.36 53.2237 163.64 53.2868 163.885 53.3787C164.128 53.4706 164.329 53.5825 164.485 53.7109C164.641 53.8405 164.756 53.9756 164.828 54.1184C164.902 54.2624 164.933 54.3986 164.919 54.5259C164.903 54.6643 164.844 54.7751 164.742 54.8537C164.637 54.9334 164.5 54.9633 164.327 54.9445C164.202 54.9312 164.1 54.8847 164.019 54.8027C163.939 54.7219 163.85 54.6034 163.752 54.4495C163.674 54.3199 163.575 54.2125 163.457 54.1273C163.339 54.042 163.174 53.9889 162.96 53.9656C162.74 53.9412 162.55 53.9689 162.396 54.0453C162.24 54.1251 162.154 54.2325 162.138 54.372C162.125 54.4993 162.167 54.6101 162.267 54.7053C162.364 54.7972 162.501 54.8814 162.676 54.9544C162.852 55.0275 163.095 55.1194 163.405 55.2324C163.773 55.3653 164.07 55.5092 164.295 55.6642C164.519 55.8159 164.685 55.9887 164.789 56.1758C164.894 56.363 164.935 56.5678 164.911 56.7915M166.142 58.5765C165.957 58.5588 165.804 58.4857 165.68 58.3539C165.556 58.2233 165.504 58.0494 165.524 57.8357C165.541 57.6519 165.619 57.5024 165.759 57.3828C165.9 57.2632 166.064 57.2123 166.252 57.2289C166.44 57.2455 166.594 57.3241 166.715 57.4658C166.837 57.6076 166.888 57.7704 166.87 57.9575C166.85 58.1679 166.771 58.3284 166.627 58.437C166.483 58.5455 166.321 58.5931 166.142 58.5765ZM169.014 58.819C168.829 58.8024 168.677 58.7282 168.554 58.5964C168.43 58.4646 168.378 58.2908 168.397 58.0771C168.413 57.8933 168.492 57.7438 168.632 57.6242C168.773 57.5046 168.937 57.4537 169.124 57.4703C169.312 57.488 169.466 57.5655 169.588 57.7083C169.708 57.8501 169.76 58.0129 169.743 58.2C169.724 58.4104 169.643 58.5709 169.499 58.6795C169.355 58.788 169.194 58.8345 169.013 58.8179M171.89 59.036C171.705 59.0227 171.55 58.9519 171.425 58.8223C171.299 58.6928 171.244 58.52 171.259 58.3063C171.272 58.1236 171.349 57.9719 171.487 57.8501C171.626 57.7283 171.788 57.674 171.976 57.6873C172.165 57.7017 172.32 57.777 172.444 57.9165C172.566 58.056 172.621 58.2188 172.607 58.406C172.592 58.6164 172.514 58.778 172.373 58.8888C172.231 59.0006 172.071 59.0493 171.89 59.036ZM177.961 57.7471C177.948 58.0859 177.855 58.3716 177.681 58.6064C177.507 58.8411 177.257 59.0139 176.933 59.1257C176.607 59.2376 176.213 59.2852 175.752 59.2675C175.313 59.2508 174.937 59.17 174.629 59.0227C174.321 58.8755 174.095 58.6983 173.953 58.4901C173.813 58.2841 173.745 58.0771 173.753 57.8744C173.757 57.7405 173.809 57.6264 173.91 57.5356C174.009 57.4426 174.132 57.3994 174.279 57.4061C174.407 57.4105 174.503 57.447 174.57 57.5112C174.636 57.5766 174.699 57.6674 174.758 57.7825C174.874 58.0062 175.018 58.1745 175.189 58.2897C175.361 58.4037 175.597 58.4658 175.898 58.4779C176.144 58.4868 176.348 58.4392 176.508 58.3373C176.671 58.2343 176.754 58.1114 176.759 57.973C176.767 57.7571 176.692 57.5965 176.532 57.4913C176.374 57.3872 176.107 57.282 175.738 57.1779C175.32 57.0572 174.982 56.9343 174.722 56.8092C174.461 56.6841 174.256 56.5246 174.103 56.3297C173.952 56.1348 173.881 55.9001 173.891 55.6255C173.9 55.3808 173.983 55.1504 174.139 54.9389C174.293 54.7252 174.516 54.5591 174.808 54.4395C175.097 54.3199 175.445 54.269 175.848 54.2845C176.165 54.2967 176.448 54.3399 176.7 54.4152C176.949 54.4894 177.158 54.5868 177.322 54.7042C177.487 54.8227 177.611 54.95 177.694 55.0873C177.778 55.2257 177.816 55.3597 177.812 55.4882C177.807 55.6277 177.754 55.7417 177.658 55.827C177.56 55.9145 177.426 55.9532 177.25 55.9466C177.125 55.9422 177.021 55.9023 176.934 55.827C176.849 55.7517 176.752 55.641 176.644 55.4926C176.557 55.3697 176.449 55.2689 176.328 55.1914C176.205 55.115 176.035 55.0729 175.82 55.0652C175.599 55.0574 175.412 55.0973 175.263 55.1859C175.113 55.2756 175.035 55.3885 175.029 55.5291C175.024 55.6576 175.075 55.7661 175.18 55.8525C175.284 55.9377 175.426 56.0119 175.606 56.0728C175.786 56.1337 176.034 56.209 176.352 56.2987C176.728 56.405 177.035 56.5291 177.271 56.6675C177.505 56.8037 177.683 56.9642 177.8 57.1436C177.917 57.3219 177.973 57.5234 177.964 57.7493M183.58 56.9886C183.572 57.354 183.509 57.6895 183.389 57.9951C183.268 58.3019 183.099 58.5632 182.877 58.7802C182.658 58.9973 182.397 59.1611 182.096 59.273C181.792 59.3848 181.456 59.438 181.082 59.4302C180.71 59.4225 180.379 59.356 180.085 59.2298C179.791 59.1036 179.539 58.9275 179.326 58.6994C179.114 58.4724 178.954 58.2055 178.849 57.8999C178.744 57.5932 178.694 57.2566 178.702 56.8878C178.71 56.5169 178.773 56.178 178.892 55.8724C179.014 55.5668 179.182 55.3066 179.399 55.0918C179.615 54.878 179.876 54.7153 180.181 54.6034C180.486 54.4916 180.821 54.4395 181.186 54.4462C181.557 54.4539 181.891 54.5204 182.192 54.6466C182.491 54.7728 182.747 54.95 182.956 55.1748C183.168 55.4018 183.326 55.6687 183.432 55.9754C183.538 56.2832 183.588 56.621 183.58 56.9886ZM182.349 56.9631C182.359 56.4637 182.258 56.0728 182.045 55.7894C181.83 55.507 181.538 55.3619 181.168 55.3542C180.928 55.3498 180.717 55.4073 180.532 55.528C180.347 55.6487 180.202 55.8281 180.099 56.0673C179.995 56.3087 179.938 56.59 179.932 56.9133C179.925 57.2333 179.969 57.5135 180.06 57.756C180.153 57.9963 180.288 58.1845 180.466 58.3141C180.646 58.4447 180.857 58.5123 181.102 58.5178C181.473 58.5255 181.769 58.3916 181.996 58.1158C182.222 57.8412 182.339 57.457 182.349 56.9631ZM185.622 55.1848V55.3343C185.839 55.0497 186.076 54.8426 186.331 54.7086C186.588 54.5768 186.881 54.5115 187.214 54.5126C187.537 54.5137 187.825 54.5857 188.08 54.7274C188.333 54.8681 188.522 55.0674 188.648 55.3254C188.728 55.476 188.78 55.6366 188.804 55.8115C188.827 55.9854 188.838 56.2057 188.837 56.4748L188.829 58.757C188.829 59.0028 188.771 59.1877 188.66 59.3129C188.547 59.438 188.402 59.5 188.221 59.5C188.039 59.5 187.891 59.4347 187.776 59.3051C187.663 59.1767 187.608 58.9928 187.608 58.7537L187.615 56.7095C187.616 56.3054 187.561 55.9953 187.45 55.7805C187.339 55.5668 187.116 55.4594 186.781 55.4583C186.562 55.4583 186.363 55.5214 186.182 55.6509C186.003 55.7805 185.87 55.9599 185.787 56.188C185.726 56.3696 185.695 56.7107 185.693 57.2112L185.689 58.747C185.688 58.995 185.629 59.18 185.514 59.3051C185.398 59.4291 185.249 59.4911 185.067 59.49C184.888 59.49 184.745 59.4247 184.631 59.2951C184.518 59.1667 184.462 58.9818 184.462 58.7426L184.473 55.1992C184.473 54.9666 184.525 54.7917 184.628 54.6776C184.729 54.5636 184.869 54.5049 185.045 54.506C185.152 54.506 185.25 54.5326 185.338 54.5835C185.423 54.6344 185.493 54.7119 185.545 54.8127C185.597 54.9157 185.623 55.0397 185.622 55.1848ZM195.238 59.18L193.229 59.2785C192.939 59.2918 192.73 59.2387 192.599 59.1146C192.469 58.9906 192.397 58.7858 192.381 58.5023L192.139 53.5592C192.125 53.2702 192.177 53.0576 192.298 52.9247C192.419 52.7918 192.622 52.7165 192.906 52.7033L195.035 52.5981C195.35 52.5826 195.621 52.5892 195.853 52.6158C196.086 52.6435 196.296 52.7077 196.483 52.8096C196.644 52.8959 196.785 53.0067 196.914 53.1429C197.04 53.278 197.139 53.4308 197.209 53.6002C197.281 53.7696 197.321 53.949 197.331 54.1406C197.363 54.7983 197.059 55.2966 196.415 55.6332C197.294 55.8647 197.751 56.3796 197.789 57.1746C197.808 57.5423 197.73 57.8778 197.555 58.1801C197.381 58.4846 197.139 58.7149 196.825 58.871C196.628 58.9641 196.402 59.0349 196.143 59.0814C195.884 59.1301 195.583 59.1612 195.237 59.1789M194.995 56.2644L193.61 56.3319L193.704 58.252L195.133 58.1823C196.033 58.138 196.466 57.7914 196.435 57.1425C196.418 56.8103 196.29 56.5756 196.05 56.4371C195.808 56.3009 195.458 56.2423 194.995 56.2644ZM193.479 53.6766L193.563 55.3774L194.782 55.3176C195.112 55.3021 195.368 55.2567 195.546 55.1848C195.723 55.1128 195.856 54.9877 195.942 54.8061C196.011 54.6765 196.041 54.5337 196.033 54.3786C196.017 54.0464 195.888 53.8316 195.648 53.7342C195.405 53.6367 195.042 53.5991 194.558 53.6234L193.479 53.6766ZM202.103 58.1059L202.092 57.9486C201.958 58.1435 201.815 58.3096 201.661 58.4458C201.509 58.582 201.339 58.6872 201.152 58.7614C200.965 58.8345 200.749 58.8799 200.504 58.8965C200.209 58.9153 199.94 58.8721 199.697 58.7658C199.454 58.6584 199.261 58.5034 199.118 58.2963C198.949 58.0461 198.849 57.6785 198.816 57.1923L198.654 54.7684C198.637 54.5226 198.68 54.3366 198.782 54.2081C198.886 54.0797 199.027 54.0088 199.211 53.9977C199.396 53.9855 199.548 54.0365 199.671 54.1505C199.792 54.2657 199.862 54.444 199.877 54.6865L200.009 56.6453C200.028 56.9277 200.067 57.1647 200.128 57.354C200.188 57.5445 200.284 57.6895 200.415 57.7903C200.547 57.89 200.718 57.9342 200.931 57.9198C201.136 57.9066 201.326 57.8324 201.5 57.6973C201.672 57.5633 201.795 57.3939 201.866 57.1901C201.924 57.0129 201.931 56.632 201.893 56.0463L201.794 54.5591C201.778 54.3166 201.822 54.1306 201.928 54.001C202.034 53.8715 202.177 53.7995 202.359 53.7884C202.542 53.7762 202.693 53.8283 202.811 53.9401C202.929 54.0542 202.996 54.2325 203.013 54.4783L203.249 58.0217C203.264 58.2543 203.222 58.4325 203.125 58.5566C203.026 58.6806 202.893 58.747 202.727 58.7592C202.559 58.7703 202.417 58.7182 202.301 58.6042C202.184 58.4901 202.117 58.3251 202.104 58.107M207.719 56.0219L205.335 56.2655C205.366 56.5434 205.447 56.7815 205.576 56.9819C205.707 57.1824 205.868 57.3274 206.058 57.4149C206.249 57.5046 206.454 57.5378 206.671 57.5157C206.817 57.5002 206.948 57.4703 207.065 57.4227C207.183 57.3773 207.294 57.3108 207.4 57.2267C207.506 57.1414 207.602 57.0539 207.687 56.9598C207.775 56.8657 207.887 56.7405 208.024 56.5822C208.081 56.5224 208.167 56.4859 208.283 56.4748C208.409 56.4615 208.514 56.4859 208.598 56.5479C208.681 56.6088 208.731 56.7007 208.744 56.8247C208.756 56.9343 208.725 57.0683 208.655 57.2256C208.582 57.3806 208.467 57.5356 208.305 57.6895C208.145 57.8423 207.94 57.9785 207.684 58.0937C207.428 58.21 207.131 58.2853 206.79 58.3196C206.006 58.3993 205.374 58.2388 204.894 57.8368C204.414 57.4348 204.134 56.8491 204.057 56.085C204.02 55.7251 204.039 55.3841 204.115 55.0652C204.192 54.7474 204.321 54.4672 204.504 54.2247C204.687 53.9844 204.923 53.7884 205.212 53.6412C205.501 53.4928 205.828 53.3987 206.195 53.361C206.671 53.3123 207.09 53.371 207.452 53.5382C207.814 53.7043 208.095 53.9379 208.296 54.2391C208.499 54.5403 208.616 54.857 208.65 55.187C208.681 55.4937 208.613 55.7008 208.448 55.8104C208.282 55.9189 208.038 55.9898 207.719 56.0219ZM205.264 55.5734L207.475 55.3486C207.403 54.9356 207.259 54.6333 207.043 54.4484C206.827 54.2613 206.559 54.1837 206.242 54.2147C205.936 54.2469 205.698 54.3764 205.526 54.6056C205.352 54.836 205.264 55.1582 205.264 55.5734ZM210.44 53.5769L210.46 53.7242C210.636 53.4119 210.841 53.1739 211.074 53.0067C211.31 52.8395 211.593 52.7343 211.921 52.6889C212.242 52.6446 212.537 52.6756 212.807 52.7808C213.079 52.8837 213.293 53.0554 213.452 53.2935C213.553 53.4308 213.627 53.5825 213.675 53.753C213.721 53.9224 213.763 54.1395 213.8 54.4063L214.11 56.6664C214.144 56.91 214.113 57.1015 214.019 57.2411C213.924 57.3817 213.789 57.4625 213.609 57.4869C213.43 57.5112 213.274 57.4681 213.143 57.3562C213.014 57.2444 212.933 57.0694 212.9 56.8325L212.622 54.8083C212.567 54.4074 212.469 54.1084 212.329 53.9113C212.188 53.7142 211.952 53.6389 211.621 53.6855C211.404 53.7154 211.215 53.8061 211.056 53.959C210.896 54.1118 210.79 54.3078 210.739 54.5458C210.705 54.7341 210.72 55.0762 210.788 55.5723L210.997 57.0938C211.03 57.3396 210.998 57.5323 210.902 57.6707C210.804 57.8091 210.666 57.8911 210.486 57.9165C210.31 57.9409 210.158 57.8966 210.027 57.7848C209.898 57.6729 209.817 57.498 209.784 57.261L209.302 53.7497C209.271 53.5194 209.297 53.3389 209.383 53.2115C209.467 53.0842 209.597 53.0067 209.772 52.9834C209.878 52.969 209.979 52.9801 210.072 53.0188C210.163 53.0576 210.244 53.124 210.31 53.2171C210.375 53.3123 210.417 53.4308 210.437 53.5758M219.549 54.011C219.605 54.3709 219.601 54.713 219.536 55.0353C219.47 55.3575 219.348 55.6443 219.169 55.8968C218.991 56.1481 218.763 56.3552 218.485 56.5169C218.207 56.6808 217.884 56.7904 217.516 56.848C217.148 56.9044 216.809 56.8967 216.497 56.8247C216.186 56.7516 215.907 56.621 215.659 56.4338C215.409 56.2478 215.208 56.0119 215.05 55.7296C214.892 55.445 214.786 55.1228 214.73 54.7584C214.672 54.3919 214.677 54.0475 214.742 53.7253C214.808 53.4031 214.928 53.1174 215.106 52.8694C215.281 52.6213 215.509 52.4154 215.789 52.2526C216.071 52.0887 216.39 51.9791 216.752 51.9226C217.118 51.8661 217.459 51.8728 217.777 51.9447C218.093 52.0167 218.376 52.1463 218.621 52.3323C218.869 52.5183 219.071 52.7542 219.228 53.0388C219.385 53.3234 219.494 53.6478 219.549 54.011ZM218.334 54.1992C218.257 53.7054 218.089 53.3378 217.829 53.0953C217.569 52.855 217.257 52.7619 216.89 52.8195C216.653 52.8561 216.455 52.9502 216.294 53.1008C216.133 53.2514 216.021 53.4529 215.961 53.7076C215.899 53.9634 215.894 54.2502 215.944 54.5691C215.992 54.8858 216.084 55.1538 216.216 55.3763C216.35 55.5978 216.514 55.7584 216.712 55.8569C216.911 55.9543 217.131 55.9843 217.374 55.9466C217.74 55.8901 218.01 55.7063 218.185 55.3963C218.359 55.0873 218.409 54.6865 218.334 54.1992ZM224.453 53.9401C224.517 54.2734 224.49 54.5735 224.373 54.8404C224.257 55.1073 224.052 55.332 223.76 55.5136C223.466 55.6964 223.093 55.8314 222.642 55.9178C222.21 55.9998 221.826 56.0064 221.492 55.9322C221.157 55.858 220.899 55.7362 220.713 55.5657C220.53 55.3963 220.418 55.2102 220.38 55.0098C220.355 54.878 220.38 54.7551 220.458 54.6433C220.533 54.5303 220.643 54.4617 220.788 54.434C220.914 54.4096 221.016 54.4229 221.095 54.4716C221.175 54.5204 221.256 54.5946 221.339 54.6942C221.503 54.8858 221.682 55.0176 221.873 55.0906C222.066 55.1626 222.311 55.1715 222.607 55.1139C222.848 55.0674 223.037 54.9755 223.17 54.8404C223.305 54.7042 223.358 54.5658 223.331 54.4285C223.29 54.217 223.181 54.0774 223.001 54.0099C222.823 53.9446 222.541 53.9014 222.156 53.8837C221.723 53.8604 221.365 53.8161 221.083 53.753C220.801 53.6899 220.565 53.5814 220.372 53.4263C220.182 53.2702 220.06 53.0565 220.008 52.7874C219.962 52.546 219.992 52.3035 220.095 52.0621C220.196 51.8196 220.376 51.607 220.634 51.4265C220.889 51.2449 221.217 51.1165 221.613 51.0412C221.924 50.9814 222.211 50.9592 222.471 50.9769C222.732 50.9947 222.956 51.0423 223.142 51.1187C223.33 51.1962 223.48 51.2925 223.59 51.4088C223.703 51.5251 223.772 51.6458 223.796 51.7731C223.822 51.9093 223.796 52.0333 223.722 52.1374C223.646 52.2448 223.523 52.3135 223.351 52.3456C223.228 52.3688 223.118 52.3545 223.017 52.3002C222.916 52.247 222.797 52.1596 222.658 52.04C222.545 51.9403 222.419 51.8661 222.282 51.8185C222.145 51.7709 221.972 51.7687 221.759 51.8097C221.544 51.8506 221.37 51.9326 221.245 52.051C221.119 52.1729 221.068 52.3002 221.093 52.4386C221.117 52.5648 221.19 52.659 221.313 52.7199C221.433 52.7797 221.589 52.8206 221.777 52.8383C221.966 52.8561 222.227 52.8738 222.555 52.8915C222.945 52.9103 223.273 52.9613 223.533 53.0432C223.792 53.1229 224.001 53.2392 224.155 53.3876C224.31 53.5349 224.409 53.7198 224.45 53.9412M227.407 48.1799L229.1 47.7945C229.541 47.6948 229.928 47.6483 230.263 47.6594C230.597 47.6694 230.917 47.7569 231.225 47.923C232.022 48.3426 232.555 49.1377 232.82 50.3059C232.907 50.6913 232.955 51.05 232.959 51.3833C232.964 51.7166 232.925 52.0278 232.844 52.3146C232.762 52.6025 232.635 52.8716 232.461 53.1218C232.325 53.3167 232.164 53.4828 231.981 53.6223C231.798 53.763 231.594 53.8781 231.366 53.97C231.139 54.0608 230.88 54.1406 230.586 54.207L228.891 54.5924C228.655 54.6466 228.468 54.651 228.332 54.6067C228.196 54.5625 228.095 54.4794 228.03 54.3576C227.964 54.2358 227.907 54.0719 227.86 53.8648L226.789 49.1565C226.726 48.8764 226.743 48.6593 226.84 48.5054C226.936 48.3515 227.126 48.2419 227.406 48.1787M228.143 49.0923L229.134 53.4507L230.118 53.227C230.335 53.1772 230.502 53.134 230.622 53.0941C230.743 53.0532 230.863 52.9967 230.983 52.9214C231.104 52.8428 231.202 52.7509 231.279 52.6457C231.63 52.1795 231.704 51.4963 231.499 50.596C231.355 49.9626 231.153 49.5086 230.888 49.2362C230.626 48.9649 230.344 48.8177 230.045 48.7944C229.745 48.7734 229.397 48.8066 229 48.8974L228.143 49.0923ZM234.822 48.831L235.668 52.2714C235.726 52.5095 235.714 52.7044 235.631 52.8539C235.548 53.0033 235.419 53.1008 235.245 53.1429C235.07 53.1861 234.913 53.1595 234.773 53.0598C234.634 52.9624 234.535 52.7974 234.478 52.5637L233.641 49.1587C233.583 48.9229 233.593 48.7324 233.673 48.5851C233.753 48.439 233.88 48.3448 234.055 48.3028C234.23 48.2607 234.388 48.2839 234.531 48.3747C234.674 48.4666 234.769 48.6195 234.822 48.831ZM234.032 46.4967L234.621 46.3517C234.768 46.3151 234.849 46.3196 234.859 46.3627C234.864 46.386 234.805 46.5011 234.684 46.706C234.562 46.912 234.436 47.1113 234.308 47.3029C234.18 47.4944 234.087 47.6151 234.031 47.6616C233.887 47.7868 233.72 47.8731 233.53 47.9185C233.405 47.9495 233.333 47.9285 233.317 47.8565C233.304 47.8078 233.32 47.7115 233.366 47.5708L233.473 47.1567C233.534 46.9164 233.6 46.7581 233.67 46.6794C233.741 46.6008 233.861 46.5388 234.032 46.4967ZM239.885 51.2228C239.657 51.5206 239.425 51.7609 239.188 51.9436C238.949 52.1252 238.663 52.2614 238.331 52.3489C238.025 52.4297 237.743 52.4397 237.482 52.381C237.221 52.3223 237 52.2072 236.822 52.0344C236.643 51.8617 236.522 51.6557 236.459 51.4154C236.373 51.091 236.402 50.7887 236.548 50.5041C236.693 50.2217 236.934 49.9925 237.274 49.8209C237.344 49.7833 237.52 49.6958 237.803 49.5563C238.084 49.4156 238.324 49.2927 238.525 49.1864C238.723 49.0779 238.939 48.9561 239.168 48.8177C239.07 48.5087 238.946 48.2961 238.797 48.1799C238.645 48.0625 238.397 48.0514 238.045 48.1433C237.745 48.223 237.528 48.3238 237.4 48.4489C237.27 48.5741 237.173 48.7335 237.109 48.9306C237.046 49.1266 236.998 49.2584 236.967 49.3237C236.935 49.389 236.847 49.4411 236.699 49.4798C236.566 49.5153 236.439 49.5031 236.321 49.4422C236.2 49.3835 236.124 49.2872 236.088 49.1532C236.033 48.945 236.052 48.7235 236.148 48.4866C236.245 48.2507 236.431 48.0282 236.71 47.8178C236.988 47.6074 237.36 47.4413 237.826 47.3172C238.349 47.1799 238.774 47.1334 239.104 47.1777C239.434 47.222 239.696 47.3604 239.889 47.5952C240.082 47.8277 240.238 48.1655 240.354 48.6062C240.427 48.883 240.488 49.12 240.538 49.3126C240.589 49.5075 240.644 49.7235 240.704 49.9615C240.763 50.1841 240.861 50.4067 241 50.6281C241.137 50.8507 241.214 50.9969 241.232 51.0655C241.264 51.1873 241.237 51.3136 241.149 51.4431C241.062 51.5716 240.944 51.6568 240.802 51.6945C240.68 51.7266 240.545 51.7011 240.396 51.6181C240.246 51.5361 240.078 51.4044 239.885 51.2228ZM239.355 49.5286C239.199 49.6371 238.963 49.7711 238.651 49.9305C238.338 50.0889 238.123 50.2018 238.003 50.2694C237.885 50.3358 237.78 50.4332 237.691 50.5617C237.601 50.6879 237.579 50.8385 237.626 51.0124C237.673 51.1929 237.782 51.328 237.951 51.4177C238.121 51.5073 238.315 51.5229 238.535 51.4653C238.768 51.4033 238.971 51.2936 239.142 51.1397C239.313 50.9858 239.423 50.8131 239.474 50.627C239.534 50.4189 239.51 50.111 239.4 49.698L239.355 49.5286ZM245.735 48.6925C245.673 48.4755 245.558 48.3005 245.392 48.1666C245.225 48.0326 245.007 47.9351 244.741 47.8776C244.474 47.8189 244.144 47.7967 243.754 47.8111C243.424 47.8222 243.165 47.8277 242.974 47.8266C242.784 47.8244 242.626 47.7978 242.501 47.7491C242.373 47.6993 242.292 47.6118 242.257 47.4889C242.219 47.3527 242.258 47.2209 242.373 47.0903C242.488 46.9607 242.653 46.8644 242.866 46.8046C243.074 46.7448 243.247 46.7337 243.387 46.768C243.528 46.8034 243.66 46.8666 243.781 46.9563C243.93 47.0648 244.056 47.1401 244.161 47.1844C244.266 47.2287 244.378 47.2342 244.499 47.201C244.667 47.1534 244.783 47.0736 244.849 46.9607C244.915 46.85 244.929 46.7248 244.892 46.5908C244.856 46.4668 244.778 46.3517 244.656 46.2465C244.534 46.1402 244.378 46.0582 244.184 45.9962C243.992 45.9353 243.764 45.9076 243.503 45.9132C243.242 45.9187 242.959 45.9652 242.654 46.0516C242.267 46.1623 241.95 46.3184 241.712 46.5211C241.472 46.7248 241.312 46.9518 241.231 47.2021C241.149 47.4512 241.141 47.696 241.209 47.9318C241.284 48.1965 241.424 48.398 241.627 48.5375C241.831 48.6748 242.077 48.7634 242.362 48.8022C242.649 48.8409 243.009 48.8531 243.443 48.8387C243.828 48.8232 244.112 48.8409 244.296 48.8919C244.481 48.9417 244.602 49.0712 244.66 49.2794C244.698 49.4134 244.657 49.5563 244.535 49.7035C244.414 49.8508 244.235 49.9593 243.999 50.0258C243.708 50.1077 243.465 50.121 243.265 50.0667C243.067 50.0103 242.879 49.894 242.698 49.7179C242.606 49.626 242.519 49.5607 242.436 49.5186C242.352 49.4765 242.25 49.4732 242.125 49.5075C241.984 49.5485 241.881 49.6271 241.815 49.7445C241.748 49.863 241.734 49.9881 241.77 50.1166C241.825 50.3125 241.954 50.4886 242.151 50.6414C242.351 50.7953 242.619 50.8939 242.958 50.9382C243.296 50.9825 243.679 50.9437 244.102 50.8241C244.545 50.699 244.905 50.5307 245.18 50.3247C245.455 50.1166 245.639 49.8763 245.733 49.5994C245.825 49.3226 245.825 49.0214 245.733 48.6959" fill="#1E3480"/>
</svg>
