<svg width="69" height="26" viewBox="0 0 69 26" fill="none" xmlns="http://www.w3.org/2000/svg">
<g clip-path="url(#clip0_1292_11235)">
<path d="M50.4704 10.0645H48.0728V18.2466C48.0728 18.3211 48.0431 18.3926 47.9902 18.4453C47.9373 18.4979 47.8656 18.5275 47.7908 18.5275H45.9421C45.8673 18.5275 45.7956 18.4979 45.7427 18.4453C45.6898 18.3926 45.6601 18.3211 45.6601 18.2466V10.0645H43.2473C43.2113 10.0666 43.1753 10.0615 43.1413 10.0495C43.1074 10.0375 43.0761 10.0189 43.0495 9.99472C43.0228 9.97058 43.0013 9.94138 42.986 9.90884C42.9708 9.8763 42.9623 9.84107 42.9609 9.8052V8.35724C42.9612 8.32102 42.9687 8.28522 42.9832 8.25198C42.9976 8.21873 43.0186 8.18871 43.0449 8.16371C43.0712 8.13871 43.1023 8.11924 43.1364 8.10645C43.1704 8.09366 43.2066 8.08781 43.243 8.08926H50.466C50.5034 8.08632 50.541 8.09075 50.5766 8.10231C50.6122 8.11388 50.6452 8.13234 50.6736 8.15664C50.702 8.18095 50.7254 8.21061 50.7423 8.24392C50.7591 8.27723 50.7692 8.31354 50.772 8.35076V9.8052C50.7675 9.87955 50.7338 9.94914 50.6781 9.9989C50.6225 10.0487 50.5494 10.0746 50.4747 10.071" fill="#3E3F40"/>
<path d="M58.1665 18.4714C57.227 18.6096 56.2781 18.6747 55.3284 18.6659C53.508 18.6659 51.9003 18.2013 51.9003 15.6403V10.9636C51.9003 8.40701 53.5232 7.95533 55.3436 7.95533C56.2916 7.94228 57.2391 8.0037 58.1773 8.13903C58.3769 8.16712 58.4616 8.23628 58.4616 8.41997V9.71665C58.461 9.79136 58.4308 9.86282 58.3775 9.91545C58.3243 9.96807 58.2523 9.9976 58.1773 9.9976H55.1918C54.5278 9.9976 54.287 10.2137 54.287 10.9528V12.2322H58.0536C58.1287 12.2322 58.2006 12.2617 58.2539 12.3144C58.3071 12.367 58.3373 12.4385 58.3379 12.5132V13.8487C58.3379 13.9238 58.3079 13.9958 58.2546 14.0489C58.2013 14.102 58.129 14.1319 58.0536 14.1319H54.287V15.6403C54.287 16.3708 54.5278 16.5955 55.1918 16.5955H58.1665C58.2419 16.5955 58.3142 16.6254 58.3675 16.6785C58.4208 16.7316 58.4507 16.8036 58.4507 16.8787V18.1753C58.4507 18.3569 58.3661 18.4412 58.1665 18.4692" fill="#3E3F40"/>
<path d="M68.8177 18.5276H66.5721C66.4961 18.5331 66.4203 18.5154 66.3547 18.4768C66.2892 18.4381 66.237 18.3804 66.2054 18.3115L64.2526 15.234L62.4886 18.2466C62.3888 18.4152 62.2912 18.5276 62.1349 18.5276H60.0476C60.0211 18.5319 59.9939 18.5305 59.9679 18.5234C59.942 18.5163 59.9179 18.5037 59.8972 18.4865C59.8766 18.4693 59.86 18.4478 59.8485 18.4235C59.837 18.3993 59.8309 18.3728 59.8307 18.346C59.834 18.3115 59.8435 18.2778 59.8589 18.2466L62.9204 13.1723L59.8437 8.35079C59.8282 8.32429 59.8186 8.29482 59.8155 8.26434C59.821 8.21197 59.8467 8.16378 59.8871 8.12991C59.9276 8.09605 59.9797 8.07916 60.0324 8.08281H62.3042C62.4604 8.08281 62.5732 8.22328 62.6578 8.35079L64.4631 11.1905L66.2097 8.35079C66.2397 8.27923 66.2875 8.21647 66.3486 8.16844C66.4098 8.12042 66.4822 8.08871 66.559 8.07632H68.6485C68.7014 8.07212 68.7538 8.0888 68.7944 8.12277C68.835 8.15675 68.8605 8.20527 68.8655 8.25786C68.8631 8.28849 68.8534 8.31811 68.8373 8.3443L65.7562 13.2025L68.9588 18.2466C68.9834 18.2896 68.9975 18.3377 69 18.3871C69 18.4714 68.9306 18.5276 68.8177 18.5276Z" fill="#3E3F40"/>
<path d="M39.5826 8.11064C39.5319 8.10962 39.4823 8.12636 39.4427 8.15795C39.4031 8.18954 39.3758 8.23398 39.3656 8.28353L37.3152 15.8475C37.287 16.0009 37.2436 16.0636 37.1178 16.0636C36.9919 16.0636 36.9486 16.0074 36.9203 15.8475L34.8699 8.28353C34.8598 8.23398 34.8325 8.18954 34.7929 8.15795C34.7532 8.12636 34.7037 8.10962 34.653 8.11064H32.6351C32.6019 8.10975 32.5689 8.11647 32.5387 8.13029C32.5085 8.14411 32.4819 8.16466 32.4609 8.19034C32.4399 8.21603 32.4252 8.24617 32.4178 8.27844C32.4103 8.31071 32.4105 8.34424 32.4181 8.37646C32.4181 8.37646 34.9329 17.0383 34.9611 17.1247C35.2952 18.1556 36.1067 18.6375 37.1308 18.6375C37.6087 18.6557 38.0793 18.5177 38.4711 18.2445C38.8628 17.9714 39.1541 17.5781 39.3006 17.1247C39.3396 17.0059 41.7871 8.3743 41.7871 8.3743C41.7947 8.34208 41.7949 8.30855 41.7874 8.27628C41.78 8.24401 41.7653 8.21387 41.7443 8.18818C41.7233 8.16249 41.6967 8.14195 41.6665 8.12813C41.6363 8.11431 41.6033 8.10759 41.5701 8.10848L39.5826 8.11064Z" fill="#3E3F40"/>
<path d="M27.1586 0.512207H5.24417C4.85596 0.513317 4.47461 0.61416 4.13698 0.80499C3.79935 0.995819 3.51685 1.27018 3.3168 1.60155C3.11675 1.93292 3.00591 2.31009 2.995 2.6966C2.98409 3.08311 3.07347 3.46589 3.25451 3.80794L5.43944 7.94219H1.46447C1.21163 7.94064 0.962703 8.00441 0.741991 8.12728C0.521278 8.25015 0.33632 8.42793 0.205172 8.64324C0.0740236 8.85856 0.00116529 9.10407 -0.00629131 9.35581C-0.0137479 9.60754 0.044452 9.8569 0.162628 10.0795L7.21429 23.3727C7.33873 23.6065 7.52476 23.8021 7.7524 23.9385C7.98004 24.075 8.2407 24.1471 8.50637 24.1471C8.77205 24.1471 9.03271 24.075 9.26035 23.9385C9.48799 23.8021 9.67402 23.6065 9.79846 23.3727L11.7165 19.783L14.1206 24.3214C14.3127 24.6818 14.5997 24.9832 14.9508 25.1935C15.3019 25.4037 15.7038 25.5148 16.1135 25.5148C16.5231 25.5148 16.9251 25.4037 17.2762 25.1935C17.6272 24.9832 17.9143 24.6818 18.1064 24.3214L29.0918 3.72581C29.2701 3.39305 29.3589 3.01999 29.3495 2.64293C29.3401 2.26586 29.2329 1.89764 29.0382 1.5741C28.8436 1.25056 28.5682 0.982709 28.2388 0.796624C27.9094 0.610539 27.5373 0.512555 27.1586 0.512207ZM17.3123 9.31018L12.5844 18.1924C12.5018 18.348 12.3781 18.4783 12.2267 18.5691C12.0753 18.6599 11.9019 18.7079 11.7252 18.7079C11.5485 18.7079 11.3751 18.6599 11.2237 18.5691C11.0723 18.4783 10.9486 18.348 10.866 18.1924L6.16414 9.34692C6.08516 9.1987 6.04621 9.03257 6.05112 8.86483C6.05603 8.69709 6.10462 8.53351 6.19214 8.39011C6.27965 8.24672 6.40309 8.12845 6.55033 8.04689C6.69757 7.96533 6.86356 7.92329 7.03203 7.9249H16.4748C16.6381 7.92507 16.7986 7.96725 16.9407 8.04735C17.0828 8.12746 17.2018 8.24277 17.286 8.38212C17.3703 8.52146 17.417 8.68012 17.4216 8.84272C17.4262 9.00531 17.3885 9.16633 17.3123 9.31018Z" fill="#3E3F40"/>
</g>
<defs>
<clipPath id="clip0_1292_11235">
<rect width="69" height="25" fill="white" transform="translate(0 0.512207)"/>
</clipPath>
</defs>
</svg>
