<svg width="97" height="35" viewBox="0 0 97 35" fill="none" xmlns="http://www.w3.org/2000/svg">
<path d="M19.497 5.62158L16.975 7.93417V9.90234H13.386L7.27499 16.102L13.3375 22.8922H16.975L10.9125 16.102L14.744 12.2149H16.975V20.0384C16.975 22.3018 18.236 23.089 19.982 23.089C20.564 23.089 21.243 22.9414 21.825 22.7446V20.432C20.564 20.8748 19.497 20.924 19.497 19.6447V12.1657H21.825V9.90234H19.497V5.62158Z" fill="#3E3F40"/>
<path d="M46.269 19.6446V12.1656H48.597V9.90222H46.269V5.57227L43.747 7.88486V9.90222H42.098V12.1656H43.747V19.9891C43.747 22.2524 45.008 23.0397 46.754 23.0397C47.336 23.0397 48.015 22.8921 48.597 22.6953V20.3827C47.336 20.8747 46.269 20.9239 46.269 19.6446Z" fill="#3E3F40"/>
<path d="M54.9505 9.55811C51.6525 9.55811 48.2575 12.2151 48.2575 16.3975C48.2575 20.383 51.216 23.2368 55.3385 23.2368C58.0545 23.2368 60.334 22.0559 61.7405 19.891L59.5095 18.9069C58.588 20.2846 57.036 21.0227 55.387 21.0227C53.0105 21.0227 51.41 19.5957 51.022 17.0371H61.7405C61.7405 12.3135 58.491 9.55811 54.9505 9.55811ZM51.119 15.1674C51.507 13.0024 53.0105 11.6247 54.999 11.6247C56.9875 11.6247 58.782 13.15 59.17 15.1674H51.119Z" fill="#3E3F40"/>
<path d="M80.898 9.90238L72.847 9.95159V11.7721C71.5375 10.3944 70.034 9.70557 68.3365 9.70557C64.796 9.70557 62.0315 12.707 62.0315 16.5941C62.0315 20.4321 64.6505 23.2367 68.2395 23.2367C69.9855 23.2367 71.78 22.4002 72.7985 21.1209H72.847V23.0399C72.847 25.8937 70.325 26.681 68.7245 26.681C67.415 26.681 66.2025 26.2381 65.1355 25.3525L63.535 27.2222C65.2325 28.5015 66.5905 28.9444 68.5305 28.9444C71.392 28.9444 75.369 27.5666 75.369 22.9415V12.1658H77.6485V12.1166H78.376V20.5305H76.339V22.7938H82.935V20.5305H80.898V9.90238ZM68.676 20.9733C68.094 20.9733 67.5605 20.8749 67.0755 20.6781L65.281 21.5145L65.572 19.5464C64.99 18.7591 64.6505 17.7258 64.6505 16.5449C64.6505 13.9863 66.3965 12.1166 68.676 12.1166C71.004 12.1166 72.7985 14.0355 72.7985 16.5449C72.847 19.0543 71.0525 20.9733 68.676 20.9733Z" fill="#3E3F40"/>
<path d="M79.54 8.0819C80.3645 8.0819 81.0435 7.39304 81.0435 6.55658C81.0435 5.72011 80.3645 5.03125 79.54 5.03125C78.7155 5.03125 78.0365 5.72011 78.0365 6.55658C78.0365 7.39304 78.7155 8.0819 79.54 8.0819Z" fill="#3E3F40"/>
<path d="M41.3705 13.5436C41.3705 11.4771 40.1095 9.55811 36.375 9.55811C34.726 9.55811 33.368 9.95174 32.3495 10.7882V9.70572H30.7005C29.1 9.70572 27.4995 10.6406 26.675 12.8056H26.6265V9.90253H22.0675V12.1659H24.638V20.5798H22.116V22.8432H29.9245V20.5798H27.16V16.8895C27.16 13.9373 28.033 12.2643 30.9915 12.2643H31.04C30.9915 12.3627 30.943 12.4611 30.8945 12.5596L33.271 13.1992C33.853 12.1659 34.7745 11.6739 35.987 11.6739C37.4905 11.6739 38.8 12.3135 38.8 14.1833V14.7737C38.1695 14.7245 37.539 14.7245 36.9085 14.7245C36.375 14.7245 35.8415 14.7737 35.3565 14.8229C34.92 14.8721 34.4835 14.9706 34.0955 15.069C33.756 15.1674 33.4165 15.2658 33.077 15.4134C32.786 15.561 32.5435 15.7086 32.301 15.8562C32.107 16.0038 31.8645 16.1514 31.719 16.3483C31.5735 16.4959 31.428 16.6927 31.2825 16.8895C31.1855 17.0371 31.0885 17.2339 30.9915 17.4308C30.943 17.5784 30.846 17.7752 30.846 17.9228C30.7975 18.0704 30.7975 18.218 30.749 18.3656C30.749 18.464 30.749 18.6117 30.7005 18.7101C30.7005 18.8577 30.7005 19.0545 30.7005 19.2021C30.7005 19.3497 30.7005 19.4481 30.749 19.5957C30.7975 19.8418 30.846 20.0878 30.943 20.3338C31.0885 20.7766 31.331 21.2195 31.6705 21.6131C32.01 22.0067 32.398 22.302 32.786 22.548C33.2225 22.794 33.756 22.9908 34.241 23.04C34.4835 23.0892 34.7745 23.0892 35.017 23.0892C36.4235 23.0892 37.539 22.5972 39.1395 21.2687V22.8432H43.553V20.5798H41.3705V13.5436ZM38.8485 19.5465C37.83 20.4814 36.569 21.0719 35.405 21.0719C35.017 21.0719 34.5805 20.9734 34.1925 20.7766C33.8045 20.5798 33.465 20.2354 33.271 19.7925C33.1255 19.4481 33.077 19.0053 33.1255 18.6117C33.1255 18.464 33.174 18.3164 33.271 18.1688C33.4165 17.8736 33.7075 17.6276 33.9985 17.48C34.338 17.2831 34.726 17.1355 35.114 16.9879C35.5505 16.8403 35.987 16.7419 36.4235 16.6927C36.86 16.6435 37.2965 16.5943 37.733 16.5451C37.83 16.5451 38.8485 16.4959 38.8485 16.4959V19.5465Z" fill="#3E3F40"/>
<path d="M82.0135 9.90234V12.1165H84.293V22.843H86.815V9.90234H82.0135Z" fill="#3E3F40"/>
<path d="M7.32349 16.1021H11.0095L4.89849 22.8922H1.26099L7.32349 16.1021Z" fill="#3E3F40"/>
<path d="M7.32349 16.1021H11.0095L4.89849 9.90234H1.26099L7.32349 16.1021Z" fill="#3E3F40"/>
<path d="M90.501 16.1021H86.815L92.926 22.8922H96.5635L90.501 16.1021Z" fill="#3E3F40"/>
<path d="M90.501 16.1021H86.815L92.926 9.90234H96.5635L90.501 16.1021Z" fill="#3E3F40"/>
<path d="M4.46198 27.5665H2.08548C2.08548 27.8617 2.18248 28.1077 2.32798 28.2554C2.47348 28.403 2.71598 28.5014 2.90998 28.5014C3.10398 28.5014 3.29798 28.4522 3.44348 28.3538C3.58898 28.2553 3.68598 28.1077 3.73448 27.9109H4.41348C4.36498 28.1077 4.26798 28.3046 4.17098 28.5014C4.02548 28.649 3.87998 28.7966 3.68598 28.895C3.49198 28.9934 3.24948 29.0426 3.00698 29.0426C2.71598 29.0426 2.42498 28.9934 2.23098 28.8458C1.98848 28.6982 1.84298 28.5506 1.69748 28.3046C1.55198 28.0585 1.50348 27.7633 1.50348 27.4681C1.50348 27.1237 1.55198 26.8776 1.69748 26.6316C1.84298 26.3856 1.98848 26.1888 2.23098 26.0904C2.47348 25.9428 2.71598 25.8936 3.00698 25.8936C3.29798 25.8936 3.58898 25.9428 3.78298 26.0904C4.02548 26.238 4.17098 26.3856 4.31648 26.6316C4.46198 26.8284 4.51048 27.0745 4.51048 27.3697C4.46198 27.3697 4.46198 27.4681 4.46198 27.5665ZM3.73448 26.73C3.63748 26.5824 3.54048 26.484 3.44348 26.4348C3.29798 26.3856 3.15248 26.3364 3.00698 26.3364C2.76448 26.3364 2.57048 26.4348 2.37648 26.5824C2.23098 26.73 2.13398 26.976 2.08548 27.2713H3.83148C3.83148 27.0252 3.83148 26.8776 3.73448 26.73Z" fill="#3E3F40"/>
<path d="M7.42049 26.1396C7.66299 26.3364 7.85699 26.6316 7.90549 27.0253H7.22649C7.17799 26.8284 7.08099 26.6808 6.93549 26.5824C6.78999 26.484 6.59599 26.4348 6.40199 26.4348C6.15949 26.4348 5.96549 26.5332 5.77149 26.6808C5.62599 26.8776 5.52899 27.1237 5.52899 27.4681C5.52899 27.8125 5.62599 28.0585 5.77149 28.2554C5.91699 28.4522 6.15949 28.5014 6.40199 28.5014C6.59599 28.5014 6.78999 28.4522 6.93549 28.3538C7.08099 28.2554 7.17799 28.1077 7.22649 27.9109H7.90549C7.85699 28.2554 7.66299 28.5506 7.42049 28.7966C7.17799 28.9934 6.83849 29.141 6.45049 29.141C6.15949 29.141 5.86849 29.0918 5.67449 28.9442C5.43199 28.7966 5.28649 28.649 5.14099 28.403C4.99549 28.1569 4.94699 27.8617 4.94699 27.5665C4.94699 27.2221 4.99549 26.9761 5.14099 26.73C5.28649 26.484 5.43199 26.2872 5.67449 26.1888C5.91699 26.0412 6.15949 25.992 6.45049 25.992C6.83849 25.8444 7.17799 25.9428 7.42049 26.1396Z" fill="#3E3F40"/>
<path d="M10.7185 26.0411C10.961 26.1887 11.155 26.3363 11.252 26.5823C11.3975 26.8283 11.446 27.1235 11.446 27.4188C11.446 27.7632 11.3975 28.0092 11.252 28.2552C11.1065 28.5013 10.9125 28.6981 10.7185 28.7965C10.476 28.9441 10.2335 28.9933 9.89397 28.9933C9.55447 28.9933 9.31197 28.9441 9.11797 28.7965C8.87547 28.6489 8.68147 28.5013 8.58447 28.2552C8.43897 28.0092 8.39047 27.714 8.39047 27.4188C8.39047 27.0743 8.43897 26.8283 8.58447 26.5823C8.72997 26.3363 8.92397 26.1395 9.11797 26.0411C9.36047 25.8934 9.60297 25.8442 9.89397 25.8442C10.185 25.8442 10.476 25.8934 10.7185 26.0411ZM9.45747 26.4839C9.31197 26.5823 9.21497 26.6807 9.11797 26.8283C9.02097 26.9759 8.97247 27.1727 8.97247 27.4188C8.97247 27.6648 9.02097 27.8616 9.11797 28.0092C9.21497 28.1568 9.31197 28.2552 9.45747 28.3536C9.60297 28.4521 9.74847 28.4521 9.89397 28.4521C10.0395 28.4521 10.185 28.4028 10.3305 28.3536C10.476 28.2552 10.573 28.1568 10.67 28.0092C10.767 27.8616 10.8155 27.6648 10.8155 27.4188C10.8155 27.1727 10.767 27.0251 10.67 26.8283C10.573 26.6807 10.476 26.5331 10.3305 26.4839C10.185 26.3855 10.0395 26.3855 9.89397 26.3855C9.74847 26.3855 9.60297 26.4347 9.45747 26.4839Z" fill="#3E3F40"/>
<path d="M16.781 26.1886C16.975 26.4346 17.1205 26.7298 17.1205 27.1726V28.9932H16.49V27.271C16.49 26.9758 16.4415 26.779 16.296 26.6314C16.1505 26.4838 15.9565 26.3854 15.7625 26.3854C15.52 26.3854 15.326 26.4838 15.1805 26.6314C15.035 26.779 14.938 27.025 14.938 27.3202V28.9932H14.3075V27.271C14.3075 26.9758 14.259 26.779 14.1135 26.6314C13.968 26.4838 13.774 26.3854 13.58 26.3854C13.3375 26.3854 13.1435 26.4838 12.998 26.6314C12.8525 26.779 12.7555 27.025 12.7555 27.3202V28.9932H12.125V25.8933H12.7555V26.533C12.8525 26.287 12.9495 26.1393 13.1435 25.9917C13.3375 25.8441 13.5315 25.7949 13.774 25.7949C14.0165 25.7949 14.259 25.8441 14.453 25.9917C14.647 26.1393 14.7925 26.287 14.841 26.533C14.938 26.287 15.0835 26.1393 15.2775 25.9917C15.4715 25.8441 15.714 25.7949 15.9565 25.7949C16.296 25.7949 16.587 25.9425 16.781 26.1886Z" fill="#3E3F40"/>
<path d="M22.5525 26.1886C22.7465 26.4346 22.892 26.7298 22.892 27.1726V28.9932H22.2615V27.271C22.2615 26.9758 22.213 26.779 22.0675 26.6314C21.922 26.4838 21.728 26.3854 21.534 26.3854C21.2915 26.3854 21.0975 26.4838 20.952 26.6314C20.8065 26.779 20.7095 27.025 20.7095 27.3202V28.9932H20.079V27.271C20.079 26.9758 20.0305 26.779 19.885 26.6314C19.7395 26.4838 19.5455 26.3854 19.3515 26.3854C19.109 26.3854 18.915 26.4838 18.7695 26.6314C18.624 26.779 18.527 27.025 18.527 27.3202V28.9932H17.8965V25.8933H18.527V26.533C18.624 26.287 18.721 26.1393 18.915 25.9917C19.109 25.8933 19.303 25.7949 19.5455 25.7949C19.788 25.7949 20.0305 25.8441 20.2245 25.9917C20.4185 26.1393 20.564 26.287 20.6125 26.533C20.7095 26.287 20.855 26.1393 21.049 25.9917C21.243 25.8441 21.4855 25.7949 21.728 25.7949C22.0675 25.7949 22.3585 25.9425 22.5525 26.1886Z" fill="#3E3F40"/>
<path d="M26.4325 27.5665H24.056C24.056 27.8617 24.153 28.1077 24.2985 28.2554C24.444 28.403 24.6865 28.5014 24.8805 28.5014C25.0745 28.5014 25.2685 28.4522 25.414 28.3538C25.5595 28.2553 25.6565 28.1077 25.705 27.9109H26.384C26.3355 28.1077 26.2385 28.3046 26.1415 28.5014C25.996 28.649 25.8505 28.7966 25.6565 28.895C25.4625 28.9934 25.22 29.0426 24.9775 29.0426C24.6865 29.0426 24.3955 28.9934 24.2015 28.8458C23.959 28.6982 23.8135 28.5506 23.668 28.3046C23.5225 28.0585 23.474 27.7633 23.474 27.4681C23.474 27.1237 23.5225 26.8776 23.668 26.6316C23.8135 26.3856 23.959 26.1888 24.2015 26.0904C24.444 25.9428 24.6865 25.8936 24.9775 25.8936C25.2685 25.8936 25.5595 25.9428 25.7535 26.0904C25.996 26.238 26.1415 26.3856 26.287 26.6316C26.384 26.8284 26.481 27.0745 26.481 27.3697C26.481 27.3697 26.481 27.4681 26.4325 27.5665ZM25.705 26.73C25.608 26.5824 25.511 26.484 25.414 26.4348C25.2685 26.3856 25.123 26.3364 24.9775 26.3364C24.735 26.3364 24.541 26.4348 24.347 26.5824C24.2015 26.73 24.1045 26.976 24.056 27.2713H25.802C25.8505 27.0252 25.802 26.8776 25.705 26.73Z" fill="#3E3F40"/>
<path d="M28.13 25.9917C28.324 25.8933 28.5665 25.7949 28.809 25.7949V26.4838H28.615C28.324 26.4838 28.13 26.533 27.936 26.6806C27.7905 26.8282 27.6935 27.025 27.6935 27.3695V28.944H27.063V25.8441H27.6935V26.4346C27.7905 26.287 27.9845 26.0901 28.13 25.9917Z" fill="#3E3F40"/>
<path d="M31.622 26.1396C31.8645 26.3364 32.0585 26.6316 32.107 27.0253H31.428C31.3795 26.8284 31.2825 26.6808 31.137 26.5824C30.9915 26.484 30.7975 26.4348 30.6035 26.4348C30.361 26.4348 30.167 26.5332 29.973 26.6808C29.8275 26.8776 29.7305 27.1237 29.7305 27.4681C29.7305 27.8125 29.8275 28.0585 29.973 28.2554C30.1185 28.4522 30.361 28.5014 30.6035 28.5014C30.7975 28.5014 30.9915 28.4522 31.137 28.3538C31.2825 28.2554 31.3795 28.1077 31.428 27.9109H32.107C32.0585 28.2554 31.8645 28.5506 31.622 28.7966C31.3795 28.9934 31.04 29.141 30.652 29.141C30.361 29.141 30.07 29.0918 29.876 28.9442C29.6335 28.7966 29.488 28.649 29.3425 28.403C29.197 28.1569 29.1485 27.8617 29.1485 27.5665C29.1485 27.2221 29.197 26.9761 29.3425 26.73C29.488 26.484 29.6335 26.2872 29.876 26.1888C30.1185 26.0412 30.361 25.992 30.652 25.992C31.04 25.8444 31.3795 25.9428 31.622 26.1396Z" fill="#3E3F40"/>
<path d="M35.5505 27.5665H33.174C33.174 27.8617 33.271 28.1077 33.4165 28.2554C33.562 28.403 33.8045 28.5014 34.047 28.5014C34.241 28.5014 34.435 28.4522 34.5805 28.3538C34.726 28.2553 34.823 28.1077 34.8715 27.9109H35.5505C35.502 28.1077 35.405 28.3046 35.308 28.5014C35.1625 28.649 35.017 28.7966 34.823 28.895C34.629 28.9934 34.3865 29.0426 34.144 29.0426C33.853 29.0426 33.562 28.9934 33.368 28.8458C33.1255 28.6982 32.98 28.5506 32.8345 28.3046C32.689 28.0585 32.6405 27.7633 32.6405 27.4681C32.6405 27.1237 32.689 26.8776 32.8345 26.6316C32.98 26.3856 33.1255 26.1888 33.368 26.0904C33.6105 25.9428 33.853 25.8936 34.144 25.8936C34.435 25.8936 34.726 25.9428 34.92 26.0904C35.1625 26.238 35.308 26.3856 35.4535 26.6316C35.5505 26.8284 35.6475 27.0745 35.6475 27.3697C35.599 27.3697 35.5505 27.4681 35.5505 27.5665ZM34.823 26.73C34.726 26.5824 34.629 26.484 34.532 26.4348C34.3865 26.3856 34.241 26.3364 34.0955 26.3364C33.853 26.3364 33.659 26.4348 33.465 26.5824C33.3195 26.73 33.2225 26.976 33.174 27.2713H34.92C34.92 27.0252 34.92 26.8776 34.823 26.73Z" fill="#3E3F40"/>
<path d="M39.3335 26.0901C39.5275 26.287 39.673 26.533 39.7215 26.8282H39.1395C39.091 26.6806 39.0425 26.533 38.9455 26.4346C38.8485 26.3362 38.6545 26.287 38.4605 26.287C38.315 26.287 38.1695 26.3362 38.0725 26.3854C37.9755 26.4838 37.927 26.5822 37.927 26.6806C37.927 26.779 37.9755 26.8774 38.024 26.9266C38.0725 26.9758 38.1695 27.025 38.2665 27.0742C38.3635 27.1234 38.509 27.1234 38.6545 27.1726C38.897 27.2218 39.091 27.271 39.188 27.3202C39.3335 27.3695 39.4305 27.4679 39.576 27.5663C39.673 27.6647 39.7215 27.8615 39.7215 28.0583C39.7215 28.3043 39.6245 28.5503 39.4305 28.698C39.2365 28.8456 38.994 28.944 38.6545 28.944C38.2665 28.944 37.9755 28.8456 37.733 28.6488C37.4905 28.4519 37.345 28.2059 37.2965 27.9107H37.927C37.927 28.0583 38.024 28.2059 38.1695 28.3043C38.315 28.4027 38.4605 28.4519 38.703 28.4519C38.8485 28.4519 38.994 28.4027 39.0425 28.3535C39.1395 28.2551 39.188 28.1567 39.188 28.0583C39.188 27.9599 39.1395 27.8615 39.091 27.8123C39.0425 27.7631 38.9455 27.7139 38.8485 27.6647C38.7515 27.6155 38.606 27.6155 38.4605 27.5663C38.218 27.5171 38.0725 27.4679 37.927 27.4187C37.7815 27.3695 37.6845 27.271 37.5875 27.1726C37.4905 27.0742 37.442 26.8774 37.442 26.6806C37.442 26.4346 37.539 26.1886 37.733 26.0409C37.927 25.8933 38.218 25.7949 38.5575 25.7949C38.8485 25.8441 39.1395 25.9425 39.3335 26.0901Z" fill="#3E3F40"/>
<path d="M42.6315 26.0411C42.874 26.1887 43.068 26.3363 43.165 26.5823C43.262 26.8283 43.359 27.1235 43.359 27.4188C43.359 27.7632 43.3105 28.0092 43.165 28.2552C43.0195 28.5013 42.8255 28.6981 42.6315 28.7965C42.389 28.9441 42.1465 28.9933 41.807 28.9933C41.4675 28.9933 41.225 28.9441 41.031 28.7965C40.7885 28.6489 40.5945 28.5013 40.4975 28.2552C40.352 28.0092 40.3035 27.714 40.3035 27.4188C40.3035 27.0743 40.352 26.8283 40.4975 26.5823C40.643 26.3363 40.837 26.1395 41.031 26.0411C41.2735 25.8934 41.516 25.8442 41.807 25.8442C42.098 25.8442 42.389 25.8934 42.6315 26.0411ZM41.3705 26.4839C41.225 26.5823 41.128 26.6807 41.031 26.8283C40.934 26.9759 40.8855 27.1727 40.8855 27.4188C40.8855 27.6648 40.934 27.8616 41.031 28.0092C41.128 28.1568 41.225 28.2552 41.3705 28.3536C41.516 28.4521 41.6615 28.4521 41.807 28.4521C41.9525 28.4521 42.098 28.4028 42.2435 28.3536C42.389 28.2552 42.486 28.1568 42.583 28.0092C42.68 27.8616 42.7285 27.6648 42.7285 27.4188C42.7285 27.1727 42.68 27.0251 42.583 26.8283C42.486 26.6807 42.389 26.5331 42.2435 26.4839C42.098 26.3855 41.9525 26.3855 41.807 26.3855C41.6615 26.3855 41.516 26.4347 41.3705 26.4839Z" fill="#3E3F40"/>
<path d="M44.62 24.811V28.9934H43.9895V24.811H44.62Z" fill="#3E3F40"/>
<path d="M48.209 25.8442V28.9441H47.5785V28.2552C47.4815 28.5013 47.3845 28.6489 47.1905 28.7965C46.9965 28.9441 46.754 28.9933 46.5115 28.9933C46.172 28.9933 45.881 28.8949 45.6385 28.6489C45.4445 28.4028 45.299 28.1076 45.299 27.6648V25.8442H45.9295V27.5664C45.9295 27.8616 45.978 28.0584 46.1235 28.206C46.269 28.3536 46.463 28.4521 46.7055 28.4521C46.948 28.4521 47.142 28.3536 47.2875 28.206C47.433 28.0584 47.53 27.8124 47.53 27.468V25.8442H48.209Z" fill="#3E3F40"/>
<path d="M50.4885 28.4031V28.9444H50.1005C49.761 28.9444 49.5185 28.846 49.373 28.6983C49.2275 28.5507 49.1305 28.2555 49.1305 27.9111V26.3857H48.694V25.8445H49.1305V25.1064H49.761V25.8937H50.4885V26.435H49.761V27.9603C49.761 28.1571 49.8095 28.2555 49.858 28.3047C49.9065 28.3539 50.052 28.4031 50.1975 28.4031H50.4885Z" fill="#3E3F40"/>
<path d="M51.119 24.7127C51.216 24.6635 51.313 24.6143 51.41 24.6143C51.507 24.6143 51.6525 24.6635 51.701 24.7127C51.798 24.7619 51.798 24.8603 51.798 25.0079C51.798 25.1063 51.7495 25.2047 51.701 25.2539C51.604 25.3031 51.507 25.3523 51.41 25.3523C51.313 25.3523 51.1675 25.3031 51.119 25.2539C51.022 25.2047 51.022 25.1063 51.022 25.0079C51.022 24.8603 51.0705 24.7619 51.119 24.7127ZM51.7495 25.8444V28.9442H51.119V25.8444H51.7495Z" fill="#3E3F40"/>
<path d="M54.708 26.0411C54.9505 26.1887 55.1445 26.3363 55.2415 26.5823C55.387 26.8283 55.4355 27.1235 55.4355 27.4188C55.4355 27.7632 55.387 28.0092 55.2415 28.2552C55.096 28.5013 54.902 28.6981 54.708 28.7965C54.4655 28.9441 54.223 28.9933 53.8835 28.9933C53.5925 28.9933 53.3015 28.9441 53.1075 28.7965C52.865 28.6489 52.671 28.5013 52.574 28.2552C52.4285 28.0092 52.38 27.714 52.38 27.4188C52.38 27.0743 52.4285 26.8283 52.574 26.5823C52.7195 26.3363 52.9135 26.1395 53.1075 26.0411C53.35 25.8934 53.5925 25.8442 53.8835 25.8442C54.223 25.8442 54.4655 25.8934 54.708 26.0411ZM53.447 26.4839C53.3015 26.5823 53.2045 26.6807 53.1075 26.8283C53.0105 26.9759 52.962 27.1727 52.962 27.4188C52.962 27.6648 53.0105 27.8616 53.1075 28.0092C53.2045 28.1568 53.3015 28.2552 53.447 28.3536C53.5925 28.4521 53.738 28.4521 53.8835 28.4521C54.029 28.4521 54.1745 28.4028 54.32 28.3536C54.4655 28.2552 54.5625 28.1568 54.6595 28.0092C54.7565 27.8616 54.805 27.6648 54.805 27.4188C54.805 27.1727 54.7565 27.0251 54.6595 26.8283C54.5625 26.6807 54.4655 26.5331 54.32 26.4839C54.1745 26.3855 54.029 26.3855 53.8835 26.3855C53.738 26.3855 53.5925 26.4347 53.447 26.4839Z" fill="#3E3F40"/>
<path d="M58.6365 26.1888C58.8305 26.4349 58.976 26.7301 58.976 27.1729V28.9935H58.3455V27.2713C58.3455 26.9761 58.297 26.7793 58.1515 26.6317C58.006 26.4841 57.812 26.3857 57.5695 26.3857C57.327 26.3857 57.133 26.4841 56.9875 26.6317C56.842 26.7793 56.745 27.0253 56.745 27.3697V29.0427H56.1145V25.9428H56.745V26.6317C56.842 26.3857 56.939 26.238 57.133 26.0904C57.327 25.9428 57.5695 25.8936 57.812 25.8936C58.1515 25.7952 58.4425 25.9428 58.6365 26.1888Z" fill="#3E3F40"/>
<path d="M61.5465 26.0901C61.7405 26.287 61.886 26.533 61.9345 26.8282H61.3525C61.304 26.6806 61.2555 26.533 61.1585 26.4346C61.0615 26.3362 60.8675 26.287 60.6735 26.287C60.528 26.287 60.3825 26.3362 60.2855 26.3854C60.1885 26.4838 60.14 26.5822 60.14 26.6806C60.14 26.779 60.1885 26.8774 60.237 26.9266C60.2855 26.9758 60.3825 27.025 60.4795 27.0742C60.5765 27.1234 60.722 27.1234 60.8675 27.1726C61.11 27.2218 61.304 27.271 61.401 27.3202C61.5465 27.3695 61.6435 27.4679 61.789 27.5663C61.886 27.6647 61.9345 27.8615 61.9345 28.0583C61.9345 28.3043 61.8375 28.5503 61.6435 28.698C61.4495 28.8456 61.207 28.944 60.8675 28.944C60.4795 28.944 60.1885 28.8456 59.946 28.6488C59.7035 28.4519 59.558 28.2059 59.5095 27.9107H60.14C60.14 28.0583 60.237 28.2059 60.3825 28.3043C60.528 28.4027 60.6735 28.4519 60.916 28.4519C61.0615 28.4519 61.207 28.4027 61.2555 28.3535C61.3525 28.2551 61.401 28.1567 61.401 28.0583C61.401 27.9599 61.3525 27.8615 61.304 27.8123C61.2555 27.7631 61.1585 27.7139 61.0615 27.6647C60.9645 27.6155 60.819 27.6155 60.6735 27.5663C60.431 27.5171 60.2855 27.4679 60.14 27.4187C59.9945 27.3695 59.8975 27.271 59.8005 27.1726C59.7035 27.0742 59.655 26.8774 59.655 26.6806C59.655 26.4346 59.752 26.1886 59.946 26.0409C60.14 25.8933 60.431 25.7949 60.7705 25.7949C61.0615 25.8441 61.3525 25.9425 61.5465 26.0901Z" fill="#3E3F40"/>
</svg>
