<svg width="50" height="20" viewBox="0 0 50 20" fill="none" xmlns="http://www.w3.org/2000/svg">
<path d="M37.9717 14.3657H32.5651C32.3969 14.3657 32.259 14.2275 32.259 14.0588C32.259 13.8902 32.3969 13.7519 32.5651 13.7519H37.9442C38.1482 13.7077 39.5708 13.3483 39.6343 11.6784C39.6977 10.0196 38.7492 9.85377 38.5948 9.83994C38.5948 9.83994 35.1292 9.83994 35.1237 9.83994C33.7313 9.60771 33.4418 8.35256 33.4804 7.68627C33.4722 5.95283 34.9334 5.17596 35.7082 5.00732C35.7302 5.00179 35.7523 4.99902 35.7743 4.99902H40.6433C40.8115 4.99902 40.9494 5.13726 40.9494 5.3059C40.9494 5.47455 40.8115 5.61278 40.6433 5.61278H35.8102C35.5758 5.6736 34.0842 6.11595 34.0953 7.68904C34.0953 7.69733 34.0953 7.70562 34.0953 7.71115C34.0925 7.76645 34.0291 9.00778 35.1981 9.22066C35.1981 9.22066 38.6252 9.22066 38.6224 9.22066C38.6389 9.22066 40.3346 9.3506 40.2463 11.7006C40.1774 13.5169 38.763 14.2358 38.0241 14.3629C38.0076 14.3657 37.991 14.3685 37.9717 14.3685V14.3657Z" fill="#0160A9"/>
<path d="M48.1619 14.3987H43.1716C43.1716 14.3987 43.1495 14.3987 43.1385 14.3987C42.4795 14.3268 41.2278 13.8679 41.2002 12.6376C41.1699 11.3272 42.0467 7.34884 42.0825 7.18019C42.0853 7.16637 42.0908 7.15255 42.0935 7.13873C42.1239 7.05579 42.8572 5.12329 44.4839 5.12329H48.0737C48.1012 5.12329 48.1316 5.12605 48.1591 5.13435C48.2225 5.1537 49.6948 5.59328 49.6948 6.86502C49.6948 7.93218 49.3833 9.7375 49.3695 9.81491C49.3447 9.96144 49.2179 10.0693 49.069 10.0693L42.1239 10.1273C41.9474 11.1171 41.804 12.1096 41.8151 12.621C41.8371 13.5749 43.0337 13.7628 43.1908 13.7822H48.1619C48.3328 13.7822 48.4679 13.9204 48.4679 14.0891C48.4679 14.2577 48.3301 14.396 48.1619 14.396V14.3987ZM42.678 7.33225C42.6422 7.48984 42.4382 8.43535 42.2369 9.50804L48.807 9.45274C48.8925 8.9164 49.0828 7.64742 49.0828 6.86226C49.0828 6.14068 48.2198 5.80339 48.0268 5.73704H44.4867C43.3535 5.73704 42.7497 7.15808 42.6808 7.33225H42.678Z" fill="#0160A9"/>
<path d="M23.1992 18.4379C23.1799 18.4379 23.1633 18.4379 23.144 18.4324C22.9758 18.402 22.8656 18.2416 22.8959 18.0758C22.8959 18.0758 23.3839 15.3636 23.8774 12.6515C24.1228 11.2941 24.3709 9.93937 24.5584 8.92197C24.6522 8.41328 24.7321 7.98752 24.7872 7.6917C24.8341 7.44565 24.8644 7.2853 24.8975 7.17747H24.892C25.2394 6.22367 26.3202 5.20627 27.117 5.0791C27.1446 5.07357 27.1721 5.07357 27.1997 5.0791C27.4037 5.08739 29.3502 5.0791 30.635 5.0791C30.9328 5.07357 32.5236 5.67626 32.3389 6.93971C32.3389 6.95077 32.3389 6.96183 32.3362 6.97289L31.4787 12.2174C31.4787 12.2174 31.4732 12.2396 31.4704 12.2506C31.4511 12.317 31.0017 13.8652 29.5046 14.3158C29.4798 14.3241 29.4522 14.3269 29.4247 14.3296L26.2678 14.4209C26.2678 14.4209 26.243 14.4209 26.2292 14.4209C26.1796 14.4154 25.1815 14.3103 24.382 13.2957C24.0428 15.1673 23.7037 17.0445 23.4969 18.1919C23.4694 18.3412 23.3398 18.4462 23.1964 18.4462L23.1992 18.4379ZM24.5474 12.4082C25.1732 13.6025 26.1355 13.7795 26.2788 13.7988L29.3695 13.7104C30.4448 13.3648 30.8335 12.234 30.8777 12.093L31.7268 6.88718C31.8151 6.3066 30.93 5.68732 30.5634 5.69009C30.3373 5.69009 29.6204 5.69285 28.9008 5.69562C28.4652 5.69562 28.0323 5.69562 27.707 5.69562C27.4837 5.69562 27.3238 5.69562 27.2052 5.68732C26.6841 5.77579 25.7577 6.60519 25.4738 7.37653C25.4186 7.61982 25.0023 9.90066 24.5474 12.4054V12.4082Z" fill="#0160A9"/>
<path d="M19.0526 3.77705C19.0526 4.25257 18.6693 4.63685 18.1951 4.63685C17.7209 4.63685 17.3376 4.25257 17.3376 3.77705C17.3376 3.30152 17.7209 2.91724 18.1951 2.91724C18.6693 2.91724 19.0526 3.30152 19.0526 3.77705Z" fill="#FCB618"/>
<path d="M16.2544 1.72011C16.728 1.72011 17.1119 1.33516 17.1119 0.860297C17.1119 0.385438 16.728 0.000488281 16.2544 0.000488281C15.7809 0.000488281 15.397 0.385438 15.397 0.860297C15.397 1.33516 15.7809 1.72011 16.2544 1.72011Z" fill="#FCB618"/>
<path d="M15.1622 3.77705C15.1622 4.25257 14.7789 4.63685 14.3047 4.63685C13.8305 4.63685 13.4473 4.25257 13.4473 3.77705C13.4473 3.30152 13.8305 2.91724 14.3047 2.91724C14.7789 2.91724 15.1622 3.30152 15.1622 3.77705Z" fill="#FCB618"/>
<path d="M18.096 16.3368C18.5695 16.3368 18.9534 15.9519 18.9534 15.477C18.9534 15.0021 18.5695 14.6172 18.096 14.6172C17.6224 14.6172 17.2385 15.0021 17.2385 15.477C17.2385 15.9519 17.6224 16.3368 18.096 16.3368Z" fill="#FCB618"/>
<path d="M16.2515 13.5944C16.7251 13.5944 17.109 13.2094 17.109 12.7346C17.109 12.2597 16.7251 11.8748 16.2515 11.8748C15.7779 11.8748 15.394 12.2597 15.394 12.7346C15.394 13.2094 15.7779 13.5944 16.2515 13.5944Z" fill="#FCB618"/>
<path d="M12.4688 13.445C12.8602 13.445 13.1774 13.1269 13.1774 12.7344C13.1774 12.342 12.8602 12.0239 12.4688 12.0239C12.0775 12.0239 11.7603 12.342 11.7603 12.7344C11.7603 13.1269 12.0775 13.445 12.4688 13.445Z" fill="#FCB618"/>
<path d="M15.0685 15.4771C15.0685 15.8697 14.7514 16.1876 14.3599 16.1876C13.9684 16.1876 13.6514 15.8697 13.6514 15.4771C13.6514 15.0845 13.9684 14.7666 14.3599 14.7666C14.7514 14.7666 15.0685 15.0845 15.0685 15.4771Z" fill="#FCB618"/>
<path d="M12.419 19.1954C12.8104 19.1954 13.1276 18.8773 13.1276 18.4849C13.1276 18.0925 12.8104 17.7744 12.419 17.7744C12.0277 17.7744 11.7104 18.0925 11.7104 18.4849C11.7104 18.8773 12.0277 19.1954 12.419 19.1954Z" fill="#FCB618"/>
<path d="M10.5855 16.0271C10.8885 16.0271 11.1342 15.7808 11.1342 15.4769C11.1342 15.1731 10.8885 14.9268 10.5855 14.9268C10.2825 14.9268 10.0369 15.1731 10.0369 15.4769C10.0369 15.7808 10.2825 16.0271 10.5855 16.0271Z" fill="#FCB618"/>
<path d="M3.83357 10.2712C4.13659 10.2712 4.38224 10.0249 4.38224 9.72106C4.38224 9.41721 4.13659 9.1709 3.83357 9.1709C3.53056 9.1709 3.28491 9.41721 3.28491 9.72106C3.28491 10.0249 3.53056 10.2712 3.83357 10.2712Z" fill="#FCB618"/>
<path d="M4.8177 7.3352C5.12072 7.3352 5.36636 7.08888 5.36636 6.78503C5.36636 6.48118 5.12072 6.23486 4.8177 6.23486C4.51469 6.23486 4.26904 6.48118 4.26904 6.78503C4.26904 7.08888 4.51469 7.3352 4.8177 7.3352Z" fill="#FCB618"/>
<path d="M7.22745 3.77697C7.22745 4.08108 6.98207 4.32714 6.67879 4.32714C6.37551 4.32714 6.13013 4.08108 6.13013 3.77697C6.13013 3.47286 6.37551 3.22681 6.67879 3.22681C6.98207 3.22681 7.22745 3.47286 7.22745 3.77697Z" fill="#FCB618"/>
<path d="M9.11612 0.923948C9.11612 1.22806 8.87074 1.47411 8.56746 1.47411C8.26418 1.47411 8.0188 1.22806 8.0188 0.923948C8.0188 0.619835 8.26418 0.373779 8.56746 0.373779C8.87074 0.373779 9.11612 0.619835 9.11612 0.923948Z" fill="#FCB618"/>
<path d="M8.61995 19.0351C8.92297 19.0351 9.16861 18.7888 9.16861 18.485C9.16861 18.1811 8.92297 17.9348 8.61995 17.9348C8.31693 17.9348 8.07129 18.1811 8.07129 18.485C8.07129 18.7888 8.31693 19.0351 8.61995 19.0351Z" fill="#FCB618"/>
<path d="M6.73128 16.0271C7.0343 16.0271 7.27994 15.7808 7.27994 15.4769C7.27994 15.1731 7.0343 14.9268 6.73128 14.9268C6.42826 14.9268 6.18262 15.1731 6.18262 15.4769C6.18262 15.7808 6.42826 16.0271 6.73128 16.0271Z" fill="#FCB618"/>
<path d="M4.79036 13.2847C5.09338 13.2847 5.33902 13.0383 5.33902 12.7345C5.33902 12.4306 5.09338 12.1843 4.79036 12.1843C4.48734 12.1843 4.2417 12.4306 4.2417 12.7345C4.2417 13.0383 4.48734 13.2847 4.79036 13.2847Z" fill="#FCB618"/>
<path d="M3.75346 15.7617C3.9103 15.7617 4.03744 15.6342 4.03744 15.4769C4.03744 15.3196 3.9103 15.1921 3.75346 15.1921C3.59662 15.1921 3.46948 15.3196 3.46948 15.4769C3.46948 15.6342 3.59662 15.7617 3.75346 15.7617Z" fill="#FCB618"/>
<path d="M1.98637 13.0192C2.14321 13.0192 2.27035 12.8917 2.27035 12.7345C2.27035 12.5772 2.14321 12.4497 1.98637 12.4497C1.82953 12.4497 1.70239 12.5772 1.70239 12.7345C1.70239 12.8917 1.82953 13.0192 1.98637 13.0192Z" fill="#FCB618"/>
<path d="M1.18124 9.66855C1.18124 9.82613 1.05442 9.95331 0.897261 9.95331C0.740107 9.95331 0.613281 9.82613 0.613281 9.66855C0.613281 9.51096 0.740107 9.38379 0.897261 9.38379C1.05442 9.38379 1.18124 9.51096 1.18124 9.66855Z" fill="#FCB618"/>
<path d="M1.90654 7.07513C2.06338 7.07513 2.19052 6.94764 2.19052 6.79037C2.19052 6.63311 2.06338 6.50562 1.90654 6.50562C1.7497 6.50562 1.62256 6.63311 1.62256 6.79037C1.62256 6.94764 1.7497 7.07513 1.90654 7.07513Z" fill="#FCB618"/>
<path d="M3.81962 4.08929C3.97646 4.08929 4.1036 3.9618 4.1036 3.80453C4.1036 3.64727 3.97646 3.51978 3.81962 3.51978C3.66279 3.51978 3.53564 3.64727 3.53564 3.80453C3.53564 3.9618 3.66279 4.08929 3.81962 4.08929Z" fill="#FCB618"/>
<path d="M8.59236 13.445C8.98369 13.445 9.30093 13.1269 9.30093 12.7344C9.30093 12.342 8.98369 12.0239 8.59236 12.0239C8.20103 12.0239 7.88379 12.342 7.88379 12.7344C7.88379 13.1269 8.20103 13.445 8.59236 13.445Z" fill="#FCB618"/>
<path d="M6.59895 10.4371C6.99029 10.4371 7.30752 10.119 7.30752 9.72663C7.30752 9.33422 6.99029 9.01611 6.59895 9.01611C6.20762 9.01611 5.89038 9.33422 5.89038 9.72663C5.89038 10.119 6.20762 10.4371 6.59895 10.4371Z" fill="#FCB618"/>
<path d="M9.27335 6.78498C9.27335 7.17756 8.95628 7.4955 8.56478 7.4955C8.17327 7.4955 7.8562 7.17756 7.8562 6.78498C7.8562 6.3924 8.17327 6.07446 8.56478 6.07446C8.95628 6.07446 9.27335 6.3924 9.27335 6.78498Z" fill="#FCB618"/>
<path d="M10.5333 4.48744C10.9246 4.48744 11.2419 4.16933 11.2419 3.77692C11.2419 3.38451 10.9246 3.06641 10.5333 3.06641C10.1419 3.06641 9.82471 3.38451 9.82471 3.77692C9.82471 4.16933 10.1419 4.48744 10.5333 4.48744Z" fill="#FCB618"/>
<path d="M12.3944 1.58192C12.7857 1.58192 13.1029 1.26382 13.1029 0.871408C13.1029 0.479 12.7857 0.160889 12.3944 0.160889C12.003 0.160889 11.6858 0.479 11.6858 0.871408C11.6858 1.26382 12.003 1.58192 12.3944 1.58192Z" fill="#FCB618"/>
<path d="M10.4837 10.5863C10.9572 10.5863 11.3411 10.2014 11.3411 9.72651C11.3411 9.25165 10.9572 8.8667 10.4837 8.8667C10.0101 8.8667 9.62622 9.25165 9.62622 9.72651C9.62622 10.2014 10.0101 10.5863 10.4837 10.5863Z" fill="#FCB618"/>
<path d="M12.3943 7.64467C12.8679 7.64467 13.2518 7.25972 13.2518 6.78486C13.2518 6.31 12.8679 5.92505 12.3943 5.92505C11.9208 5.92505 11.5369 6.31 11.5369 6.78486C11.5369 7.25972 11.9208 7.64467 12.3943 7.64467Z" fill="#FCB618"/>
<path d="M16.2515 19.3449C16.7251 19.3449 17.109 18.9599 17.109 18.4851C17.109 18.0102 16.7251 17.6252 16.2515 17.6252C15.7779 17.6252 15.394 18.0102 15.394 18.4851C15.394 18.9599 15.7779 19.3449 16.2515 19.3449Z" fill="#FCB618"/>
<path d="M23.5991 9.42236H10.9192V9.95041H23.5991V9.42236Z" fill="#FCB618"/>
<path d="M17.0151 6.52222H13.0283V7.05026H17.0151V6.52222Z" fill="#FCB618"/>
<path d="M18.7276 9.91998L16.533 6.52222H17.1478L19.3397 9.91998H18.7276Z" fill="#FCB618"/>
<path d="M18.9534 12.4719H16.9187V13H18.9534V12.4719Z" fill="#FCB618"/>
<path d="M18.4683 12.9972L20.2879 9.92017H20.8145L18.9949 12.9972H18.4683Z" fill="#FCB618"/>
</svg>
