<svg width="50" height="17" viewBox="0 0 50 17" fill="none" xmlns="http://www.w3.org/2000/svg">
<path d="M17.0805 8.02353C16.2478 12.4553 11.9909 16.0466 7.57126 16.0466C3.15164 16.0466 0.245667 12.4553 1.07555 8.02353C1.90819 3.59178 6.16514 0.000488281 10.5848 0.000488281C15.0044 0.000488281 17.9131 3.59178 17.0805 8.02353ZM12.8042 1.19206C15.134 2.17628 16.4546 4.63129 15.9142 7.50101C15.7984 8.112 15.6082 8.70364 15.349 9.26763C15.3407 9.28145 15.3325 9.29527 15.3242 9.3091C15.0485 9.9035 14.7066 10.462 14.3041 10.9762C14.2903 10.9928 14.2765 11.0121 14.26 11.0315C14.2407 11.0591 14.2186 11.084 14.1965 11.1089C13.2178 12.3115 11.9385 13.2349 10.491 13.7851C10.4552 13.7989 10.4193 13.8127 10.3807 13.8238C10.3477 13.8348 10.3146 13.8487 10.2842 13.857C10.2705 13.8625 10.2539 13.868 10.2401 13.8735H10.2346C10.2153 13.8735 10.1988 13.8542 10.1988 13.8348V13.8293C10.1988 13.8293 10.1988 13.8072 10.1988 13.7989C10.1988 13.7989 10.1988 13.7989 10.1988 13.7961L10.2319 13.0911C10.9322 12.9529 11.5801 12.6267 12.1067 12.1484C12.7546 11.5374 13.0772 10.6555 12.9779 9.77079C12.9531 9.05198 12.625 8.37741 12.0736 7.91571C11.4946 7.43189 10.855 7.03102 10.1684 6.71585L10.0664 6.66608C9.55912 6.43385 9.07112 6.15738 8.60793 5.84221C8.34049 5.67633 8.15025 5.40816 8.08684 5.09852C8.07581 4.93817 8.13095 4.78058 8.24123 4.6617C8.5004 4.4433 8.83677 4.33271 9.17313 4.35759H9.1814C9.82381 4.40183 10.4552 4.56494 11.0397 4.83864C11.0866 4.85799 11.1389 4.86629 11.1886 4.86352C11.5249 4.81376 11.8144 4.60088 11.9605 4.294C12.0874 4.0673 12.1646 3.81848 12.1894 3.56137C12.1977 3.46184 12.1535 3.36231 12.0763 3.30149C11.5111 2.90062 10.855 2.6518 10.1657 2.57439C10.1409 2.56886 10.1216 2.55503 10.105 2.53845C10.0968 2.53015 10.0885 2.51909 10.083 2.50803C10.083 2.49974 10.1354 1.63164 10.1629 1.33582C10.174 1.21417 10.1684 1.08976 10.1409 0.970884C10.0995 0.840945 9.9782 0.75524 9.84035 0.758005C9.83483 0.758005 9.82932 0.758005 9.8238 0.758005C8.82573 0.846474 7.85248 1.11741 6.95091 1.55146C4.4006 2.76791 2.36036 5.20358 1.831 8.00971C1.23822 11.1669 2.73532 13.857 5.34904 14.8661C3.0193 13.8818 1.69865 11.4296 2.23904 8.55987C2.3576 7.93782 2.55335 7.3296 2.82079 6.75455C2.82906 6.74349 2.83458 6.73243 2.84009 6.72137C2.96416 6.45597 3.10202 6.19609 3.25366 5.94451C4.18831 4.41288 5.56134 3.20196 7.19354 2.46656C7.47752 2.33663 7.76977 2.2288 8.06478 2.13481C8.07857 2.13204 8.08959 2.12651 8.10338 2.12098H8.1089C8.12819 2.12098 8.14198 2.13757 8.14198 2.15692V2.16522C8.14198 2.16522 8.14198 2.18457 8.14198 2.19286L8.09235 2.66562C7.46925 2.77897 6.8875 3.06373 6.41328 3.48672C5.27185 4.57047 5.18638 6.36197 6.21477 7.55077C6.72483 8.12306 7.35069 8.57646 8.05099 8.8861L8.10062 8.90822C8.68237 9.15428 9.24482 9.4418 9.78796 9.77079C10.1905 10.0556 10.2842 10.2684 10.3091 10.5338V10.5394C10.3256 10.7412 10.2484 10.9375 10.1023 11.0757C9.83483 11.2914 9.50123 11.4019 9.15935 11.3881H9.15108C8.31843 11.3854 7.50233 11.1476 6.79376 10.708L6.77998 10.6997C6.77998 10.6997 6.77446 10.6997 6.77446 10.6942C6.6559 10.614 6.51529 10.5698 6.37468 10.5643H6.3609C6.22856 10.5698 6.10173 10.6223 6.00523 10.7135C5.90873 10.8075 5.83429 10.9209 5.78466 11.0453C5.6413 11.3273 5.57788 11.6452 5.60546 11.9632C5.61097 12.0268 5.61924 12.0903 5.63302 12.1512C5.64957 12.2286 5.69368 12.2977 5.75985 12.3419C6.45464 12.8423 7.26522 13.152 8.11441 13.2432C8.13371 13.246 8.153 13.257 8.16955 13.2709C8.18333 13.2819 8.19161 13.2957 8.19712 13.3123C8.21642 13.7491 8.20264 14.1887 8.15577 14.6255C8.14198 14.7721 8.15576 14.9186 8.1916 15.0596C8.20539 15.1038 8.22745 15.1425 8.25778 15.1757C8.31016 15.2338 8.3846 15.2697 8.46456 15.2752C8.47283 15.2752 8.4811 15.2752 8.48937 15.2752C8.50867 15.2752 8.52797 15.2752 8.54727 15.2697C8.69064 15.2531 8.83401 15.231 8.97462 15.2089C9.5095 15.1204 10.0333 14.9766 10.5379 14.7859C10.5462 14.7831 10.5544 14.7804 10.5627 14.7748C10.6454 14.7444 10.7309 14.7085 10.8136 14.6753C10.8246 14.6698 10.8384 14.6642 10.8494 14.6587C10.9322 14.6228 11.0176 14.5868 11.1003 14.5481C11.1086 14.5454 11.1141 14.5398 11.1224 14.5371C13.7113 13.3344 15.7957 10.8767 16.3278 8.03735C16.9206 4.88011 15.4207 2.1901 12.8097 1.181" fill="#1D1D1B"/>
<path d="M19.7853 8.8032C19.8101 9.83994 20.4856 10.5698 21.5857 10.5698C22.1206 10.5698 22.6444 10.4288 23.1048 10.1606L23.5019 11.0702C22.8843 11.449 22.1702 11.6425 21.4478 11.6314C19.3414 11.6314 18.4343 10.133 18.4343 8.45761C18.4343 6.62741 19.4434 5.29761 21.0756 5.29761C22.7078 5.29761 23.6673 6.52512 23.6673 8.48526V8.80596H19.7853V8.8032ZM22.3136 7.85492C22.2887 7.08634 21.9165 6.33159 21.0618 6.33159C20.2568 6.33159 19.7853 7.03381 19.7743 7.85492H22.3136Z" fill="#1D1D1B"/>
<path d="M24.9243 6.50017H24.2681L23.8435 5.4496H24.9243V4.54003C24.9243 3.09411 25.7652 2.44165 26.8653 2.44165C27.2651 2.44165 27.6593 2.52459 28.026 2.68494L27.7586 3.74657C27.527 3.65257 27.2816 3.60004 27.0307 3.59451C26.4958 3.59451 26.2532 3.92627 26.2532 4.51514V5.4496H27.9157L27.4774 6.50017H26.2532V11.507H24.927V6.50293L24.9243 6.50017Z" fill="#1D1D1B"/>
<path d="M29.2943 8.8032C29.3191 9.83994 29.9946 10.5698 31.0947 10.5698C31.6268 10.5698 32.1534 10.4288 32.6139 10.1606L33.0109 11.0702C32.3933 11.449 31.6792 11.6425 30.9569 11.6314C28.8504 11.6314 27.9434 10.133 27.9434 8.45761C27.9434 6.62741 28.9525 5.29761 30.5847 5.29761C32.2169 5.29761 33.1763 6.52512 33.1763 8.48526V8.80596H29.2943V8.8032ZM31.8226 7.85492C31.7978 7.08634 31.4283 6.33159 30.5709 6.33159C29.7686 6.33159 29.2943 7.03381 29.2806 7.85492H31.8198H31.8226Z" fill="#1D1D1B"/>
<path d="M33.8818 8.52125C33.8818 6.67998 35.197 5.29489 37.0084 5.29489C37.5653 5.28107 38.1167 5.4193 38.6047 5.69024V6.82928C38.1746 6.53069 37.659 6.37587 37.1352 6.3814C35.9607 6.3814 35.2466 7.27715 35.2466 8.47978C35.2466 9.79852 35.9607 10.5394 37.0608 10.5394C37.5653 10.5339 38.0588 10.3929 38.4917 10.1303L38.8749 11.0509C38.2794 11.4324 37.5901 11.6315 36.8843 11.626C34.9571 11.626 33.8846 10.2575 33.8846 8.51572" fill="#1D1D1B"/>
<path d="M48.6217 5.44961L47.1273 9.92836H47.1025C47.1025 9.92836 45.9749 7.23281 45.5972 6.3343C45.5034 6.11313 45.2029 5.44685 44.1745 5.44685H41.5498V3.64429L40.2208 4.05346V5.44961H39.1621V6.50018H40.2208V10.0694C40.2208 11.0536 40.8219 11.6314 41.831 11.6314C42.4265 11.6369 43.011 11.471 43.5156 11.1586L43.0937 10.238C42.8153 10.4315 42.4872 10.5393 42.148 10.5449C41.7538 10.5449 41.547 10.3265 41.547 9.7763V6.50018H44.2655L46.5015 11.4904C46.03 12.9501 45.4566 13.4367 44.7397 13.4367C44.4337 13.4339 44.1304 13.3593 43.8574 13.2183L43.5238 14.2799C43.9209 14.4541 44.3537 14.5426 44.7893 14.537C45.8481 14.537 46.8213 14.2163 47.7008 11.7834L50.0002 5.44685H48.6217V5.44961Z" fill="#1D1D1B"/>
</svg>
