<svg width="29" height="22" viewBox="0 0 29 22" fill="none" xmlns="http://www.w3.org/2000/svg">
<path d="M27.6429 21.2054V21.2607H27.7256V21.2054H27.6429ZM27.6981 21.1777C27.7256 21.1777 27.7532 21.1777 27.7532 21.2054C27.7808 21.2054 27.7808 21.233 27.7808 21.2607C27.7808 21.2883 27.7808 21.2883 27.7532 21.316C27.7256 21.316 27.7256 21.3436 27.6981 21.3436L27.7532 21.4265H27.6981L27.6429 21.3436H27.6154V21.4265H27.5602V21.2054L27.6981 21.1777ZM27.6981 21.4542H27.7532C27.7808 21.4542 27.7808 21.4265 27.8084 21.4265C27.8267 21.4081 27.8359 21.3897 27.8359 21.3713C27.8635 21.316 27.8635 21.2883 27.8359 21.233C27.8359 21.2054 27.8084 21.2054 27.8084 21.1777C27.79 21.1593 27.7716 21.1501 27.7532 21.1501H27.6429C27.6154 21.1501 27.6154 21.1777 27.5878 21.1777C27.5327 21.233 27.5327 21.316 27.5602 21.3713C27.5602 21.3989 27.5878 21.3989 27.5878 21.4265C27.6062 21.445 27.6246 21.4542 27.6429 21.4542H27.6981ZM27.6981 21.0671C27.7532 21.0671 27.8084 21.0948 27.8635 21.1224C27.8911 21.1501 27.8911 21.1777 27.9186 21.2054C27.9462 21.2607 27.9462 21.316 27.9186 21.3713C27.9186 21.3989 27.8911 21.4265 27.8635 21.4542C27.8359 21.4818 27.8084 21.4818 27.7808 21.5095C27.7532 21.5095 27.7256 21.5371 27.6981 21.5371C27.6705 21.5371 27.6429 21.5371 27.6154 21.5095C27.5878 21.5095 27.5602 21.4818 27.5327 21.4542C27.5051 21.4265 27.5051 21.3989 27.4775 21.3713C27.4499 21.316 27.4499 21.2607 27.4775 21.2054C27.4775 21.1777 27.5051 21.1501 27.5327 21.1224C27.5602 21.0948 27.5878 21.0948 27.6154 21.0671C27.6429 21.0671 27.6705 21.0395 27.6981 21.0671ZM6.57876 20.2377C6.57876 19.8507 6.8269 19.5189 7.26803 19.5189C7.68159 19.5189 7.9573 19.823 7.9573 20.2377C7.9573 20.6524 7.68159 20.9566 7.26803 20.9566C6.85447 20.9842 6.57876 20.6524 6.57876 20.2377ZM8.42601 20.2377V19.1042H7.92973V19.3807C7.76431 19.1872 7.54374 19.0489 7.21289 19.0489C6.57876 19.0489 6.08248 19.5466 6.08248 20.2377C6.08248 20.9289 6.57876 21.4265 7.21289 21.4265C7.54374 21.4265 7.76431 21.2883 7.92973 21.0948V21.3713H8.42601V20.2377ZM25.0513 20.2377C25.0513 19.8507 25.2994 19.5189 25.7405 19.5189C26.1541 19.5189 26.4298 19.823 26.4298 20.2377C26.4298 20.6524 26.1541 20.9566 25.7405 20.9566C25.2994 20.9842 25.0513 20.6524 25.0513 20.2377ZM26.8709 20.2377V18.1919H26.3747V19.3807C26.2092 19.1872 25.9887 19.0489 25.6578 19.0489C25.0237 19.0489 24.5274 19.5466 24.5274 20.2377C24.5274 20.9289 25.0237 21.4265 25.6578 21.4265C25.9887 21.4265 26.2092 21.2883 26.3747 21.0948V21.3713H26.8709V20.2377ZM14.5192 19.4913C14.8225 19.4913 15.043 19.6848 15.0982 20.0442H13.9126C13.9678 19.7125 14.1608 19.4913 14.5192 19.4913ZM14.5192 19.0489C13.8575 19.0489 13.3888 19.5189 13.3888 20.2377C13.3888 20.9566 13.8575 21.4265 14.5468 21.4265C14.8776 21.4265 15.2085 21.3436 15.4842 21.1224L15.236 20.763C15.043 20.9013 14.7949 21.0118 14.5743 21.0118C14.271 21.0118 13.9678 20.8736 13.8851 20.4589H15.5669V20.2654C15.5944 19.5466 15.1533 19.0489 14.5192 19.0489ZM20.4745 20.2377C20.4745 19.8507 20.7226 19.5189 21.1638 19.5189C21.5773 19.5189 21.853 19.823 21.853 20.2377C21.853 20.6524 21.5773 20.9566 21.1638 20.9566C20.7226 20.9842 20.4745 20.6524 20.4745 20.2377ZM22.2942 20.2377V19.1042H21.7979V19.3807C21.6325 19.1872 21.4119 19.0489 21.0811 19.0489C20.4469 19.0489 19.9507 19.5466 19.9507 20.2377C19.9507 20.9289 20.4469 21.4265 21.0811 21.4265C21.4119 21.4265 21.6325 21.2883 21.7979 21.0948V21.3713H22.2942V20.2377ZM17.6898 20.2377C17.6898 20.9289 18.1585 21.4265 18.903 21.4265C19.2338 21.4265 19.4819 21.3436 19.7025 21.1501L19.4544 20.763C19.2614 20.9013 19.0684 20.9566 18.8754 20.9566C18.4894 20.9566 18.1861 20.6801 18.1861 20.2377C18.1861 19.7954 18.4618 19.5189 18.8754 19.5189C19.096 19.5189 19.2889 19.6019 19.4544 19.7125L19.7025 19.3254C19.4544 19.1319 19.2338 19.0489 18.903 19.0489C18.1585 19.0489 17.6898 19.5466 17.6898 20.2377ZM24.0311 19.0489C23.7554 19.0489 23.5624 19.1872 23.4246 19.3807V19.1042H22.9283V21.3713H23.4246V20.0995C23.4246 19.7125 23.59 19.5189 23.8933 19.5189C24.0036 19.5189 24.1139 19.5466 24.1966 19.5742L24.3344 19.1042C24.2793 19.0766 24.1414 19.0489 24.0311 19.0489ZM10.8522 19.2978C10.6041 19.1319 10.3008 19.0489 9.94241 19.0489C9.36342 19.0489 9.005 19.3254 9.005 19.7678C9.005 20.1272 9.28071 20.376 9.77698 20.4313L9.99755 20.4589C10.2733 20.4866 10.3835 20.5695 10.3835 20.7077C10.3835 20.8736 10.2181 20.9842 9.8597 20.9842C9.52885 20.9842 9.28071 20.8736 9.11528 20.7354L8.89472 21.1224C9.17042 21.316 9.50128 21.4265 9.88727 21.4265C10.549 21.4265 10.9074 21.1224 10.9074 20.6801C10.9074 20.293 10.6041 20.0719 10.1078 19.9889L9.88727 19.9613C9.6667 19.9336 9.50128 19.8783 9.50128 19.7401C9.50128 19.5742 9.6667 19.4636 9.94241 19.4636C10.2181 19.4636 10.5214 19.5742 10.6593 19.6572L10.8522 19.2978ZM17.1936 19.0489C16.9179 19.0489 16.7249 19.1872 16.587 19.3807V19.1042H16.0907V21.3713H16.587V20.0995C16.587 19.7125 16.7524 19.5189 17.0557 19.5189C17.166 19.5189 17.2763 19.5466 17.359 19.5742L17.4968 19.1042C17.4417 19.0766 17.3038 19.0489 17.1936 19.0489ZM13.0028 19.1042H12.2032V18.4131H11.7069V19.1042H11.2382V19.5466H11.7069V20.5695C11.7069 21.0948 11.8999 21.3989 12.4789 21.3989C12.6995 21.3989 12.9476 21.3436 13.0855 21.233L12.9476 20.8183C12.8098 20.9013 12.6444 20.9566 12.5065 20.9566C12.2584 20.9566 12.1757 20.8183 12.1757 20.5695V19.5466H12.9752L13.0028 19.1042ZM5.64135 21.3713V19.9613C5.64135 19.436 5.3105 19.0766 4.75908 19.0489C4.48337 19.0489 4.18009 19.1319 3.95952 19.4636C3.7941 19.2148 3.54596 19.0489 3.21511 19.0489C2.96697 19.0489 2.7464 19.1319 2.55341 19.3807V19.1042H2.05713V21.3713H2.55341V20.1272C2.55341 19.7401 2.77397 19.5189 3.10482 19.5189C3.43567 19.5189 3.6011 19.7401 3.6011 20.1272V21.3989H4.09738V20.1548C4.09738 19.7678 4.31794 19.5466 4.64879 19.5466C4.97965 19.5466 5.14507 19.7678 5.14507 20.1548V21.4265L5.64135 21.3713Z" fill="#231F20"/>
<path d="M27.9463 13.8237V13.4919H27.8636L27.7533 13.7131L27.6431 13.4919H27.5603V13.8237H27.6155V13.5749L27.6982 13.7961H27.7533L27.8361 13.5749V13.8237H27.9463ZM27.3949 13.8237V13.5472H27.5052V13.4919H27.2295V13.5472H27.3398V13.8237H27.3949Z" fill="#F79410"/>
<path d="M18.1309 1.8252H10.6868V15.2614H18.1309V1.8252Z" fill="#FF5F00"/>
<path d="M11.1556 8.54329C11.1556 5.80627 12.4239 3.40102 14.409 1.82516C12.9202 0.63636 11.0453 0.000488281 9.14295 0.000488281C4.42832 0.000488281 0.623535 3.81572 0.623535 8.54329C0.623535 13.2709 4.42832 17.0861 9.14295 17.0861C11.0453 17.0861 12.9202 16.4502 14.409 15.2614C12.4239 13.6856 11.1556 11.2803 11.1556 8.54329Z" fill="#EB001B"/>
<path d="M28.1944 8.54329C28.1944 13.2709 24.3896 17.0861 19.675 17.0861C17.7726 17.0861 15.8978 16.4502 14.4089 15.2614C16.394 13.6856 17.6623 11.2803 17.6623 8.54329C17.6623 5.80627 16.394 3.40102 14.4089 1.82516C15.8978 0.63636 17.7726 0.000488281 19.675 0.000488281C24.3896 0.000488281 28.1944 3.81572 28.1944 8.54329Z" fill="#F79E1B"/>
</svg>
