<svg width="41" height="14" viewBox="0 0 41 14" fill="none" xmlns="http://www.w3.org/2000/svg">
<path d="M14.2266 13.7685L16.2668 0.249268H19.5202L17.4799 13.7685H14.2266Z" fill="#162F89"/>
<path d="M29.2802 0.608713C28.6736 0.359893 27.5984 0.000488281 26.3853 0.000488281C23.1319 0.000488281 20.8435 1.82516 20.8435 4.47924C20.8435 6.4145 22.4151 7.49272 23.7385 8.10094C25.0619 8.70917 25.4203 9.17916 25.4203 9.78739C25.4203 10.6444 24.4553 11.1144 23.4903 11.1144C22.1669 11.1144 21.4501 10.8656 20.4851 10.3956L20.1267 10.1468L19.658 13.1603C20.3748 13.5197 21.8361 13.8791 23.2698 13.8791C26.6334 13.8791 28.9218 12.0544 28.9218 9.28974C28.9218 7.71389 28.0671 6.63568 26.1647 5.66804C25.0894 5.05982 24.345 4.58983 24.345 3.9816C24.345 3.37338 24.9516 2.76515 26.1647 2.76515C27.24 2.76515 27.9844 3.01397 28.5634 3.23514L28.8115 3.34572L29.2802 0.608713Z" fill="#162F89"/>
<path d="M37.5794 0.249268H35.0429C34.326 0.249268 33.7195 0.498085 33.361 1.32748L28.5361 13.6579H31.8998C31.8998 13.6579 32.5063 11.9714 32.6166 11.612H36.835C36.9453 12.082 37.1934 13.6579 37.1934 13.6579H40.1986L37.5794 0.249268ZM33.6092 8.95794C33.8573 8.23913 34.9326 5.22565 34.9326 5.22565C34.9326 5.22565 35.1807 4.50684 35.4013 3.89861L35.6494 5.11507C35.6494 5.11507 36.256 8.37737 36.3663 8.98559C36.256 8.95795 33.6092 8.95794 33.6092 8.95794Z" fill="#162F89"/>
<path d="M11.4421 0.249268L8.32662 9.42793L7.9682 7.60326C7.36164 5.41918 5.56953 3.12452 3.50171 1.93571L6.39665 13.7685H9.89816L15.0815 0.249268H11.4421Z" fill="#162F89"/>
<path d="M5.32119 0.249268H0V0.498085C4.10807 1.5763 6.75488 4.3686 7.968 7.49267L6.75487 1.46572C6.64459 0.498085 6.03803 0.249268 5.32119 0.249268Z" fill="#FE9905"/>
</svg>
