<svg width="27" height="24" viewBox="0 0 27 24" fill="none" xmlns="http://www.w3.org/2000/svg">
<path fill-rule="evenodd" clip-rule="evenodd" d="M1.6131 23.7764L1.50282 23.6658H1.39253V23.7764V23.417H1.50282C1.57634 23.417 1.6131 23.4539 1.6131 23.5276V23.7764ZM1.6131 23.5276C1.6131 23.417 1.50282 23.417 1.6131 23.5276H1.36496V23.6382L1.6131 23.5276ZM1.86124 23.5276C1.86124 23.2788 1.6131 23.0576 1.39253 23.0576C1.14439 23.0576 0.923828 23.3064 0.923828 23.5276C0.923828 23.7488 1.17196 23.9976 1.39253 23.9976C1.75095 24.0252 1.86124 23.7764 1.86124 23.5276ZM1.86124 23.5276C1.86124 23.7764 1.75096 23.887 1.50282 23.887C1.25468 23.887 1.14439 23.7764 1.14439 23.5276C1.14439 23.2788 1.25468 23.1682 1.50282 23.1682C1.75096 23.1682 1.86124 23.417 1.86124 23.5276Z" fill="#326DC8"/>
<path fill-rule="evenodd" clip-rule="evenodd" d="M26.4267 15.4549C26.4267 16.0632 26.0683 16.312 25.3514 16.312H24.028V15.7038H25.3514C25.4617 15.7038 25.5996 15.7038 25.5996 15.5932C25.5996 15.4826 25.7099 15.4826 25.7099 15.4826C25.7099 15.4089 25.6731 15.3259 25.5996 15.2338C25.5996 15.2338 25.4893 15.1232 25.3514 15.1232C24.7449 15.1232 23.9178 15.1232 23.9178 14.2661C23.9178 13.9067 24.1659 13.4091 24.8827 13.4091H26.2061V14.0173H24.7449C24.6714 14.091 24.6346 14.174 24.6346 14.2661C24.6346 14.4044 24.7449 14.3767 24.7449 14.5149H25.3514C25.7099 14.5149 25.958 14.6255 26.0683 14.7638C26.3164 14.9573 26.4267 15.2061 26.4267 15.4549ZM23.5318 14.8467C23.4215 14.7361 23.1733 14.5979 22.8149 14.5979H22.2084C22.0705 14.5979 22.0981 14.4873 22.0981 14.3491C22.0981 14.2108 22.0981 14.2385 22.2084 14.1003H23.6696V13.5197H22.3462C21.6294 13.5197 21.3812 13.9897 21.3812 14.3767C21.3812 15.2338 22.0981 15.2338 22.8149 15.2338C22.9252 15.2338 23.0631 15.2338 23.0631 15.3443C23.0631 15.3443 23.1733 15.4549 23.1733 15.5932C23.1733 15.6669 23.1366 15.7038 23.0631 15.7038C22.9528 15.7038 22.9528 15.8143 22.8149 15.8143H21.4915V16.4226H22.8149C23.5318 16.4226 23.8902 16.1737 23.8902 15.5655C23.7799 15.2061 23.6696 14.9573 23.5318 14.8467ZM20.9952 15.8143H19.4237V15.2061H20.9952V14.5979H19.4237V14.1279H20.9952V13.5197H18.8171V16.4226H20.9952V15.8143ZM18.1279 13.6303C17.8797 13.5197 17.6592 13.5197 17.2732 13.5197H15.7016V16.4226H16.4185V15.4549H17.1353C17.3834 15.4549 17.4937 15.4549 17.604 15.5655C17.7143 15.6761 17.7143 15.9249 17.7143 16.1737V16.4226H18.4311V15.8143C18.4311 15.5655 18.4311 15.4549 18.3209 15.3443C18.2106 15.2338 18.2106 15.0955 17.9624 15.0955C18.2106 14.9849 18.4311 14.7361 18.4311 14.3767C18.3484 13.9897 18.3484 13.8791 18.1279 13.6303ZM14.2679 13.5197H12.0898L11.2351 14.4873L10.3804 13.5197H7.73363V16.4226H10.3804L11.2351 15.4549L12.0898 16.4226H13.4132V15.4549H14.2679C14.8745 15.4549 15.4811 15.3443 15.4811 14.4873C15.4535 13.7685 14.8745 13.5197 14.2679 13.5197ZM17.5213 14.7361H16.3082V14.1279H17.5213C17.6316 14.1279 17.6316 14.2385 17.6316 14.3767C17.6316 14.5242 17.5948 14.644 17.5213 14.7361ZM14.2679 14.8467H13.4132V14.1279H14.2679C14.5161 14.1279 14.6264 14.2385 14.6264 14.4873C14.7366 14.7361 14.5161 14.8467 14.2679 14.8467ZM11.7314 14.9573L12.8067 13.8791V16.1737L11.7314 14.9573ZM10.1599 15.8143H8.47804V15.2061H9.91173V14.5979H8.47804V14.1279H10.1599L10.8767 14.9849L10.1599 15.8143ZM24.4967 11.5844H23.5318L22.3186 9.53856V11.5844H20.9952L20.7471 10.9762H19.3134L19.0653 11.5844H18.3484C17.99 11.5844 17.6316 11.4738 17.3834 11.225C17.1353 10.9762 17.025 10.6168 17.025 10.1468C17.025 9.78738 17.1353 9.28974 17.3834 9.06857C17.6316 8.81975 17.99 8.70916 18.3484 8.70916H18.955V9.31739H18.3484C18.1003 9.31739 17.99 9.31739 17.8797 9.42798C17.7694 9.53856 17.7694 9.78738 17.7694 10.0362C17.7694 10.3956 17.7694 10.5062 17.8797 10.755C17.99 10.8656 18.1279 10.8656 18.3484 10.8656H18.7069L19.6718 8.68152H20.6368L21.7121 11.3356V8.68152H22.7873L24.0005 10.6168V8.68152H24.7173L24.4967 11.5844ZM16.6666 8.68152H15.9498V11.5844H16.6666V8.68152ZM15.2329 8.81975C14.9848 8.70917 14.7642 8.70916 14.3782 8.70916H12.8067V11.5844H13.4132V10.6168H14.1301C14.3782 10.6168 14.4885 10.6168 14.5988 10.7274C14.7091 10.838 14.7091 11.0868 14.7091 11.3356V11.5844H15.4259V10.9762C15.4259 10.7274 15.4259 10.6168 15.3156 10.5062C15.2053 10.3956 15.2053 10.3956 14.9572 10.2574C15.2053 10.1468 15.4259 9.89797 15.4259 9.53856C15.5913 9.17916 15.4535 9.04092 15.2329 8.81975ZM12.4483 10.9762H10.8767V10.368H12.4483V9.75974H10.8767V9.28974H12.4483V8.68152H10.1599V11.5844H12.4483V10.9762ZM9.69116 8.68152H8.6159L7.7612 10.6168L6.9065 8.68152H5.83123V11.3356L4.75597 8.68152H3.79099L2.57787 11.4462H3.29472L3.54285 10.838H4.97653L5.22468 11.4462H6.54808V9.2621L7.51306 11.4462H8.11963L9.08461 9.2621V11.5844H9.80144L9.69116 8.68152ZM20.5265 10.368L20.0578 9.15151L19.5891 10.2297H20.5541V10.368H20.5265ZM14.7366 9.89797C14.6264 10.0086 14.4885 10.0086 14.3782 10.0086H13.5235V9.28974H14.7366C14.8469 9.28974 14.8469 9.40033 14.8469 9.53856C14.8745 9.75974 14.7366 9.89797 14.7366 9.89797ZM3.65313 10.368L4.12184 9.28974L4.59054 10.368H3.65313ZM26.1786 0.000488281H2.46759V10.1468L3.32228 8.32211H5.00411L5.25224 8.79211V8.18388H7.2925L7.7612 9.15151L8.22991 8.18388H14.7366C15.0951 8.18388 15.3432 8.18388 15.4535 8.4327V8.18388H17.2732V8.4327C17.5213 8.32211 17.99 8.18388 18.3484 8.18388H20.885L21.1331 8.65387V8.18388H23.0631L23.3112 8.65387V8.18388H25.1309V12.0544H23.2009L22.8425 11.4462V12.0544H20.5265L20.2784 11.4462H19.6718L19.4237 12.0544H18.2106C17.7419 12.0544 17.3559 11.9438 17.1353 11.8056V12.0544H14.2404V11.1974C14.2404 11.1236 14.2036 11.0868 14.1301 11.0868H14.0198V12.165H8.47804V11.5844L8.22991 12.0544H7.01679L6.76864 11.5844V12.0544H4.48026L4.23213 11.4462H3.62556L3.37743 12.0544H2.16431V23.8871H25.8753V16.782C25.6272 16.8926 25.2687 16.8926 24.9103 16.8926H23.4766V16.6437C23.2285 16.7543 22.8701 16.8926 22.6219 16.8926H17.1905V16.0355C17.1905 15.9618 17.1537 15.9249 17.0802 15.9249H16.9699V16.8926H15.0399V15.8143C14.6815 15.9249 14.4334 15.9249 14.0749 15.9249H13.9095V16.8926H11.7314L11.2627 16.2843L10.6561 16.8926H7.15464V12.9114H10.7664L11.2351 13.5197L11.8417 12.9114H14.2404C14.4885 12.9114 14.9572 12.9114 15.2053 13.1603V12.9114H17.3834C17.6316 12.9114 17.99 12.9114 18.3484 13.1603V12.9114H21.6018V13.1603C21.8499 13.0497 22.0705 12.9114 22.4565 12.9114H24.2762V13.1603C24.5243 13.0497 24.7449 12.9114 25.1309 12.9114H26.344L26.1786 0.000488281Z" fill="#326DC8"/>
</svg>
