<svg width="86" height="24" viewBox="0 0 86 24" fill="none" xmlns="http://www.w3.org/2000/svg">
<path d="M84.8409 18.7533C84.5403 19.1735 84.2343 19.5025 83.9283 19.7403C83.6195 19.9781 83.3493 20.0969 83.1149 20.0969C82.9412 20.0969 82.8006 20.0472 82.6986 19.9449C82.5966 19.8454 82.5442 19.7044 82.5442 19.5247C82.5442 19.3284 82.6269 18.933 82.7896 18.3414L82.8061 18.275L84.2563 12.9226C84.2701 12.8618 84.2812 12.8065 84.2894 12.754C84.2977 12.7015 84.3005 12.6545 84.3005 12.613C84.3005 12.4416 84.2536 12.3255 84.1626 12.2674C84.0689 12.2066 83.8759 12.1734 83.5781 12.1679L83.5946 11.9605C84.0992 11.9053 84.612 11.8251 85.1276 11.7228C85.2627 11.6979 85.3371 11.6841 85.3564 11.6841C85.4005 11.6841 85.4336 11.6924 85.4557 11.709C85.4777 11.7256 85.4888 11.7504 85.4888 11.7864C85.4888 11.8168 85.486 11.8527 85.4777 11.8942C85.4695 11.9357 85.4584 11.9771 85.4447 12.0186L83.6443 18.546C83.6084 18.6814 83.5781 18.8003 83.5588 18.9081C83.5395 19.016 83.5285 19.0878 83.5285 19.1265C83.5285 19.215 83.545 19.2814 83.5809 19.3256C83.6167 19.3671 83.6663 19.3892 83.7353 19.3892C83.8455 19.3892 83.9724 19.3284 84.1075 19.2095C84.2453 19.0906 84.43 18.8805 84.6589 18.5791L84.8436 18.7533H84.8409Z" fill="#1D1D1B"/>
<path d="M82.1553 18.7644C81.8437 19.2123 81.5515 19.5496 81.2758 19.7791C81.0028 20.0085 80.7519 20.1219 80.5258 20.1219C80.3742 20.1219 80.2584 20.0777 80.1784 19.9892C80.0985 19.9007 80.0599 19.7708 80.0599 19.5966C80.0599 19.486 80.0875 19.3146 80.1398 19.0824C80.195 18.8501 80.297 18.4852 80.4486 17.982C79.9882 18.7506 79.5691 19.298 79.1942 19.627C78.8192 19.956 78.4387 20.1219 78.0527 20.1219C77.7467 20.1219 77.5123 20.0141 77.3442 19.7984C77.176 19.5856 77.0933 19.2787 77.0933 18.8833C77.0933 18.4106 77.1842 17.9212 77.3635 17.4181C77.5427 16.9149 77.7963 16.4532 78.1189 16.0302C78.4691 15.574 78.8275 15.2284 79.1997 14.9935C79.5719 14.7585 79.9413 14.6423 80.308 14.6423C80.5396 14.6423 80.7271 14.6949 80.8732 14.7999C81.0194 14.905 81.1159 15.0543 81.1545 15.245L81.2978 14.7474H82.1663L81.1324 18.4493C81.08 18.64 81.0414 18.8004 81.0138 18.9331C80.9863 19.0658 80.9725 19.1653 80.9725 19.2344C80.9725 19.2759 80.9918 19.3118 81.0276 19.3423C81.0635 19.3727 81.1103 19.3893 81.1655 19.3893C81.251 19.3893 81.3585 19.3284 81.4881 19.2096C81.6176 19.0907 81.7858 18.8944 81.9954 18.6207L82.158 18.7617L82.1553 18.7644ZM80.3301 14.952C80.0709 14.952 79.8145 15.0543 79.5664 15.2561C79.3182 15.4607 79.0811 15.762 78.8606 16.1657C78.6262 16.5914 78.4415 17.0338 78.3091 17.4899C78.1768 17.9489 78.1079 18.3663 78.1079 18.7423C78.1079 18.958 78.152 19.1266 78.2402 19.2483C78.3284 19.3699 78.447 19.4307 78.5986 19.4307C78.8109 19.4307 79.0315 19.3284 79.2631 19.1211C79.4947 18.9137 79.7483 18.593 80.0241 18.1562C80.3108 17.7056 80.5286 17.2632 80.683 16.8319C80.8374 16.3979 80.9146 16.0108 80.9146 15.6625C80.9146 15.4275 80.865 15.2506 80.7629 15.1317C80.6637 15.0128 80.5176 14.952 80.3301 14.952Z" fill="#1D1D1B"/>
<path d="M71.2564 20.0168L72.3565 16.2928C72.4061 16.1324 72.442 15.9914 72.4668 15.8726C72.4916 15.7509 72.5026 15.6541 72.5026 15.585C72.5026 15.4523 72.453 15.3556 72.3537 15.2975C72.2545 15.2394 72.0863 15.2118 71.8437 15.2118H71.7499L71.783 15.0045C72.3537 14.9436 72.9189 14.8496 73.4731 14.7169C73.5834 14.6921 73.6496 14.6782 73.6689 14.6782C73.6909 14.6782 73.7075 14.6865 73.7157 14.7003C73.724 14.7142 73.7295 14.7446 73.7295 14.7888C73.7268 14.7999 73.7213 14.8192 73.713 14.8524C73.7047 14.8828 73.6909 14.9353 73.6689 15.0045L73.032 17.042C73.5779 16.2873 74.1017 15.7067 74.6035 15.303C75.1053 14.8994 75.5465 14.6976 75.9297 14.6976C76.142 14.6976 76.3047 14.7529 76.4204 14.8607C76.5362 14.9685 76.5941 15.1233 76.5941 15.3224C76.5941 15.4496 76.5804 15.5933 76.5528 15.7564C76.5252 15.9168 76.4839 16.091 76.4315 16.2734L75.7808 18.5183C75.7257 18.7091 75.6871 18.8529 75.6678 18.9469C75.6485 19.0409 75.6374 19.1183 75.6374 19.1763C75.6374 19.262 75.6567 19.3284 75.6981 19.3754C75.7394 19.4224 75.7973 19.4445 75.8745 19.4445C75.9903 19.4445 76.1199 19.3643 76.2605 19.2067C76.4039 19.0492 76.5693 18.8031 76.7596 18.4713L76.9415 18.6068C76.6603 19.1376 76.3791 19.5302 76.1006 19.7845C75.8222 20.0417 75.5354 20.1688 75.2432 20.1688C75.0667 20.1688 74.9261 20.1135 74.8241 20.003C74.7221 19.8924 74.6697 19.7403 74.6697 19.5468C74.6697 19.4611 74.6835 19.3505 74.7083 19.2178C74.7331 19.0823 74.7745 18.9192 74.8324 18.7257L75.4279 16.525C75.4803 16.3177 75.5161 16.1518 75.5382 16.0301C75.5602 15.9085 75.5713 15.8117 75.5713 15.7371C75.5713 15.6127 75.5465 15.5242 75.4996 15.4689C75.45 15.4136 75.3755 15.386 75.2763 15.386C75.0915 15.386 74.8544 15.4993 74.5704 15.726C74.2865 15.9527 73.9804 16.2734 73.6523 16.6881C73.3325 17.0945 73.0596 17.5479 72.8335 18.0483C72.6046 18.5487 72.3896 19.2067 72.18 20.0195H71.2537L71.2564 20.0168Z" fill="#1D1D1B"/>
<path d="M65.8831 18.2806C65.8831 17.8963 65.963 17.5093 66.1229 17.1195C66.2828 16.7269 66.5144 16.3536 66.8205 15.9998C67.1954 15.563 67.6062 15.2257 68.0529 14.9851C68.4995 14.7446 68.9379 14.6257 69.3735 14.6257C69.9525 14.6257 70.4157 14.7971 70.7604 15.1372C71.105 15.4772 71.2787 15.9334 71.2787 16.5057C71.2787 16.8706 71.2015 17.2494 71.0443 17.6392C70.8872 18.0318 70.6666 18.4023 70.3799 18.7534C70.0077 19.2012 69.5941 19.5468 69.1337 19.7929C68.676 20.0389 68.21 20.1606 67.7441 20.1606C67.1844 20.1606 66.7322 19.9892 66.3931 19.6464C66.054 19.3035 65.8831 18.8474 65.8831 18.2806ZM69.3046 14.9298C69.0234 14.9298 68.7394 15.0377 68.4499 15.2505C68.1632 15.4662 67.8957 15.7703 67.6504 16.1656C67.4188 16.5416 67.2368 16.9481 67.1017 17.3876C66.9666 17.8244 66.8977 18.2309 66.8977 18.6041C66.8977 18.9773 66.9831 19.2925 67.1513 19.5054C67.3195 19.7182 67.5566 19.8261 67.8654 19.8261C68.1108 19.8261 68.3562 19.7486 68.6071 19.5938C68.858 19.439 69.084 19.2234 69.2881 18.9441C69.5831 18.5488 69.8174 18.0926 69.9966 17.5784C70.1758 17.0614 70.2668 16.5914 70.2668 16.1684C70.2668 15.7454 70.1841 15.4607 70.0187 15.2478C69.8533 15.0377 69.6134 14.9326 69.2963 14.9326L69.3046 14.9298Z" fill="#1D1D1B"/>
<path d="M63.6801 15.1455L63.7242 14.9519C64.2674 14.8884 64.794 14.7999 65.3068 14.6865C65.4116 14.6589 65.4695 14.6478 65.486 14.6478C65.5219 14.6478 65.5522 14.6617 65.5742 14.6865C65.5963 14.7114 65.6073 14.7474 65.6073 14.7888C65.6073 14.8137 65.6046 14.8441 65.5963 14.8745C65.588 14.9077 65.577 14.9464 65.5632 14.9962L64.4659 18.6566C64.4356 18.7644 64.4135 18.8556 64.3997 18.9275C64.3859 18.9994 64.3777 19.0602 64.3777 19.1072C64.3777 19.2151 64.3997 19.298 64.4411 19.3561C64.4852 19.4141 64.5403 19.4418 64.6148 19.4418C64.7251 19.4418 64.8684 19.3643 65.0421 19.2095C65.2158 19.0547 65.4005 18.8391 65.5963 18.5598L65.77 18.7312C65.4502 19.1874 65.1359 19.533 64.8271 19.7708C64.5183 20.0085 64.226 20.1274 63.9503 20.1274C63.7683 20.1274 63.6305 20.0749 63.534 19.967C63.4402 19.8592 63.3906 19.7044 63.3906 19.4998C63.3906 19.3948 63.4044 19.2703 63.432 19.1266C63.4596 18.9828 63.5119 18.7838 63.5864 18.5239L64.3198 15.9279L64.3253 15.9113C64.3749 15.7233 64.3997 15.5989 64.3997 15.5381C64.3997 15.3943 64.3473 15.2892 64.2398 15.2312C64.135 15.1704 63.9476 15.1427 63.6801 15.1427V15.1455ZM64.8822 12.7264C64.8822 12.5743 64.9429 12.4361 65.0642 12.3172C65.1855 12.1956 65.3178 12.1348 65.4667 12.1348C65.6266 12.1348 65.7645 12.1928 65.8803 12.3117C65.9961 12.4278 66.0567 12.566 66.0567 12.7264C66.0567 12.8867 65.9988 13.0333 65.8858 13.1439C65.7727 13.2545 65.6321 13.3125 65.4667 13.3125C65.3096 13.3125 65.1745 13.2544 65.0587 13.1383C64.9401 13.0222 64.8822 12.8867 64.8822 12.7264Z" fill="#1D1D1B"/>
<path d="M60.9864 15.2035L61.036 14.9602C61.3862 14.8966 61.7198 14.7307 62.0396 14.4625C62.3594 14.1944 62.6682 13.8184 62.9633 13.3318H63.2252L62.7923 14.8302H63.7601L63.6718 15.2035H62.7041L61.8025 18.6178C61.7694 18.7395 61.7419 18.85 61.7253 18.9468C61.706 19.0436 61.6977 19.1182 61.6977 19.1763C61.6977 19.2509 61.717 19.3117 61.7556 19.356C61.7942 19.4002 61.8439 19.4223 61.9045 19.4223C62.0038 19.4223 62.1278 19.356 62.2712 19.2205C62.4146 19.085 62.591 18.8777 62.7951 18.5957L62.966 18.7892C62.6572 19.226 62.3622 19.5523 62.0782 19.7651C61.7942 19.978 61.5158 20.0831 61.2401 20.0831C61.0581 20.0831 60.9202 20.0361 60.8293 19.9366C60.7383 19.8398 60.6914 19.6933 60.6914 19.4997C60.6914 19.414 60.6997 19.3228 60.7135 19.2233C60.7272 19.1237 60.7521 19.0215 60.7851 18.9109L61.7777 15.2007H60.9864V15.2035Z" fill="#1D1D1B"/>
<path d="M60.2474 18.7644C59.9358 19.2123 59.6436 19.5496 59.3679 19.7791C59.0949 20.0085 58.844 20.1219 58.6152 20.1219C58.4636 20.1219 58.3478 20.0777 58.2678 19.9892C58.1878 19.9007 58.1492 19.7708 58.1492 19.5966C58.1492 19.486 58.1768 19.3146 58.2292 19.0824C58.2843 18.8501 58.3864 18.4852 58.538 17.982C58.0776 18.7506 57.6585 19.298 57.2835 19.627C56.9086 19.956 56.5281 20.1219 56.1421 20.1219C55.8388 20.1219 55.6017 20.0141 55.4335 19.7984C55.2653 19.5856 55.1826 19.2787 55.1826 18.8833C55.1826 18.4106 55.2736 17.9212 55.4528 17.4181C55.632 16.9149 55.8857 16.4532 56.2083 16.0302C56.5584 15.574 56.9168 15.2284 57.289 14.9935C57.6612 14.7585 58.0307 14.6423 58.3974 14.6423C58.6262 14.6423 58.8165 14.6949 58.9626 14.7999C59.1087 14.905 59.2025 15.0543 59.2438 15.245L59.3899 14.7474H60.2584L59.2218 18.4493C59.1694 18.64 59.1308 18.8004 59.1032 18.9331C59.0756 19.0658 59.0618 19.1653 59.0618 19.2344C59.0618 19.2759 59.0811 19.3118 59.117 19.3423C59.1556 19.3727 59.1997 19.3893 59.2548 19.3893C59.3403 19.3893 59.4478 19.3284 59.5774 19.2096C59.707 19.0907 59.8752 18.8944 60.0847 18.6207L60.2474 18.7617V18.7644ZM58.4222 14.952C58.163 14.952 57.9066 15.0543 57.6585 15.2561C57.4103 15.4607 57.1732 15.762 56.9527 16.1657C56.7183 16.5914 56.5336 17.0338 56.4013 17.4899C56.2662 17.9489 56.2 18.3663 56.2 18.7423C56.2 18.958 56.2441 19.1266 56.3323 19.2483C56.4206 19.3699 56.5391 19.4307 56.6907 19.4307C56.903 19.4307 57.1236 19.3284 57.3552 19.1211C57.5868 18.9137 57.8405 18.593 58.1162 18.1562C58.4029 17.7056 58.6207 17.2632 58.7751 16.8319C58.9295 16.3979 59.0067 16.0108 59.0067 15.6625C59.0067 15.4275 58.9571 15.2506 58.8551 15.1317C58.7558 15.0128 58.6097 14.952 58.4222 14.952Z" fill="#1D1D1B"/>
<path d="M49.3459 20.0168L50.446 16.2928C50.4957 16.1324 50.5315 15.9914 50.5563 15.8726C50.5811 15.7509 50.5922 15.6541 50.5922 15.585C50.5922 15.4523 50.5425 15.3556 50.4433 15.2975C50.344 15.2394 50.1758 15.2118 49.9332 15.2118H49.8395L49.8726 15.0045C50.4433 14.9436 51.0085 14.8496 51.5626 14.7169C51.6729 14.6921 51.7391 14.6782 51.7584 14.6782C51.7805 14.6782 51.797 14.6865 51.8053 14.7003C51.8135 14.7142 51.8191 14.7446 51.8191 14.7888C51.8163 14.7999 51.8108 14.8192 51.8025 14.8524C51.7942 14.8828 51.7805 14.9353 51.7584 15.0045L51.1215 17.042C51.6674 16.2873 52.1913 15.7067 52.6931 15.303C53.1948 14.8994 53.636 14.6976 54.0192 14.6976C54.2315 14.6976 54.3942 14.7529 54.51 14.8607C54.6258 14.9685 54.6837 15.1233 54.6837 15.3224C54.6837 15.4496 54.6699 15.5933 54.6423 15.7564C54.6147 15.9168 54.5734 16.091 54.5238 16.2734L53.8731 18.5183C53.8179 18.7091 53.7793 18.8529 53.76 18.9469C53.7407 19.0409 53.7297 19.1183 53.7297 19.1763C53.7297 19.262 53.749 19.3284 53.7904 19.3754C53.8317 19.4224 53.8896 19.4445 53.9668 19.4445C54.0826 19.4445 54.2122 19.3643 54.3528 19.2067C54.4962 19.0492 54.6616 18.8031 54.8519 18.4713L55.0338 18.6068C54.7526 19.1376 54.4714 19.5302 54.1929 19.7845C53.9144 20.0417 53.6277 20.1688 53.3355 20.1688C53.159 20.1688 53.0184 20.1135 52.9164 20.003C52.8144 19.8924 52.762 19.7403 52.762 19.5468C52.762 19.4611 52.7758 19.3505 52.8006 19.2178C52.8254 19.0823 52.8668 18.9192 52.9247 18.7257L53.5202 16.525C53.5726 16.3177 53.6084 16.1518 53.6305 16.0301C53.6525 15.9085 53.6636 15.8117 53.6636 15.7371C53.6636 15.6127 53.6387 15.5242 53.5919 15.4689C53.5422 15.4136 53.4678 15.386 53.3685 15.386C53.1838 15.386 52.9467 15.4993 52.6627 15.726C52.3787 15.9527 52.0727 16.2734 51.7474 16.6881C51.4275 17.0945 51.1546 17.5479 50.9285 18.0483C50.7024 18.5487 50.4846 19.2067 50.2751 20.0195H49.3487L49.3459 20.0168Z" fill="#1D1D1B"/>
<path d="M45.9823 20.0113L46.95 16.5167C47.0051 16.3204 47.0492 16.1463 47.0796 15.997C47.1099 15.8477 47.1237 15.7343 47.1237 15.6597C47.1237 15.5049 47.0768 15.3998 46.9776 15.339C46.8811 15.2782 46.6853 15.245 46.3931 15.2339L46.4261 15.0183C46.837 14.9575 47.4215 14.8469 48.1852 14.6865C48.2376 14.6865 48.2706 14.6921 48.2817 14.7059C48.2955 14.7197 48.301 14.7446 48.301 14.7861C48.301 14.8026 48.2982 14.8248 48.2927 14.8524C48.2872 14.8828 48.2789 14.916 48.2679 14.9547L47.6916 17.0171C48.1383 16.2458 48.527 15.6707 48.8579 15.2892C49.1887 14.9105 49.4727 14.7197 49.7043 14.7197C49.8615 14.7197 49.9828 14.7667 50.0738 14.8635C50.162 14.9602 50.2089 15.0902 50.2089 15.2588C50.2089 15.4606 50.1482 15.6293 50.0241 15.7703C49.9001 15.9113 49.7512 15.9804 49.5775 15.9804C49.4424 15.9804 49.3294 15.9361 49.2329 15.8504C49.1391 15.7647 49.0812 15.6514 49.0619 15.5076C48.5767 16.0025 48.1576 16.6273 47.7964 17.3738C47.4352 18.123 47.1347 19.0022 46.8921 20.0085H45.9795L45.9823 20.0113Z" fill="#1D1D1B"/>
<path d="M45.5164 18.6235L45.6901 18.7977C45.3261 19.2538 44.9484 19.5911 44.5541 19.804C44.1599 20.0197 43.7298 20.1275 43.2611 20.1275C42.7703 20.1275 42.3843 19.9699 42.1058 19.652C41.8274 19.334 41.6868 18.8944 41.6868 18.3332C41.6868 17.8992 41.7805 17.4651 41.9652 17.0311C42.15 16.5942 42.4146 16.1906 42.7565 15.8229C43.1122 15.4469 43.4982 15.1511 43.9062 14.941C44.3143 14.7281 44.7058 14.623 45.078 14.623C45.4199 14.623 45.6818 14.6977 45.8638 14.847C46.0457 14.9963 46.1367 15.2092 46.1367 15.4829C46.1367 15.9915 45.8389 16.4367 45.2434 16.8154C44.6479 17.1914 43.8318 17.4513 42.7951 17.5895C42.7648 17.7471 42.7427 17.8881 42.7317 18.0208C42.7179 18.1507 42.7124 18.2586 42.7124 18.3443C42.7124 18.759 42.8006 19.0659 42.9771 19.2704C43.1535 19.475 43.4182 19.5773 43.7711 19.5773C44.0386 19.5773 44.3225 19.4971 44.6203 19.334C44.9181 19.1709 45.2158 18.9359 45.5136 18.6235H45.5164ZM42.842 17.3269C43.5754 17.2274 44.1571 17.0007 44.5872 16.6495C45.0173 16.2984 45.2324 15.881 45.2324 15.3916C45.2324 15.2451 45.1965 15.1345 45.1249 15.0543C45.0504 14.9742 44.9512 14.9354 44.8216 14.9354C44.4687 14.9354 44.102 15.1594 43.7215 15.6045C43.341 16.0524 43.0488 16.6247 42.8447 17.3269H42.842Z" fill="#1D1D1B"/>
<path d="M39.3623 15.2035L39.4119 14.9602C39.7621 14.8966 40.0957 14.7307 40.4155 14.4625C40.7354 14.1944 41.0441 13.8184 41.3392 13.3318H41.6011L41.1682 14.8302H42.136L42.0477 15.2035H41.08L40.1784 18.6178C40.1453 18.7395 40.1178 18.85 40.1012 18.9468C40.0819 19.0436 40.0736 19.1182 40.0736 19.1763C40.0736 19.2509 40.093 19.3117 40.1316 19.356C40.1701 19.4002 40.2198 19.4223 40.2804 19.4223C40.3797 19.4223 40.5038 19.356 40.6471 19.2205C40.7933 19.085 40.9669 18.8777 41.171 18.5957L41.3419 18.7892C41.0359 19.226 40.7381 19.5523 40.4541 19.7651C40.1701 19.978 39.8917 20.0831 39.616 20.0831C39.434 20.0831 39.2962 20.0361 39.2052 19.9366C39.1142 19.8398 39.0701 19.6933 39.0701 19.4997C39.0701 19.414 39.0783 19.3228 39.0921 19.2233C39.1059 19.1237 39.1307 19.0215 39.1638 18.9109L40.1564 15.2007H39.3651L39.3623 15.2035Z" fill="#1D1D1B"/>
<path d="M33.0821 20.0168L34.1822 16.2928C34.2318 16.1324 34.2677 15.9914 34.2897 15.8726C34.3145 15.7509 34.3256 15.6541 34.3256 15.585C34.3256 15.4523 34.2759 15.3556 34.1767 15.2975C34.0774 15.2394 33.9092 15.2118 33.6666 15.2118H33.5729L33.6059 15.0045C34.1767 14.9436 34.7419 14.8496 35.296 14.7169C35.4063 14.6921 35.4725 14.6782 35.4918 14.6782C35.5139 14.6782 35.5304 14.6865 35.5387 14.7003C35.5469 14.7142 35.5525 14.7446 35.5525 14.7888C35.5497 14.7999 35.5442 14.8192 35.5359 14.8524C35.5276 14.8828 35.5139 14.9353 35.4918 15.0045L34.8549 17.042C35.4008 16.2873 35.9247 15.7067 36.4265 15.303C36.9282 14.8994 37.3694 14.6976 37.7526 14.6976C37.9649 14.6976 38.1276 14.7529 38.2434 14.8607C38.3592 14.9685 38.4171 15.1233 38.4171 15.3224C38.4171 15.4496 38.4033 15.5933 38.3757 15.7564C38.3481 15.9168 38.3068 16.091 38.2572 16.2734L37.6065 18.5183C37.5513 18.7091 37.5127 18.8529 37.4934 18.9469C37.4741 19.0409 37.4631 19.1183 37.4631 19.1763C37.4631 19.262 37.4824 19.3284 37.5238 19.3754C37.5624 19.4224 37.623 19.4445 37.7002 19.4445C37.816 19.4445 37.9456 19.3643 38.0862 19.2067C38.2296 19.0492 38.395 18.8031 38.5853 18.4713L38.7672 18.6068C38.486 19.1376 38.2048 19.5302 37.9263 19.7845C37.6478 20.0417 37.3639 20.1688 37.0689 20.1688C36.8924 20.1688 36.7518 20.1135 36.6498 20.003C36.5478 19.8924 36.4954 19.7403 36.4954 19.5468C36.4954 19.4611 36.5092 19.3505 36.534 19.2178C36.5588 19.0823 36.6002 18.9192 36.658 18.7257L37.2536 16.525C37.306 16.3177 37.3418 16.1518 37.3639 16.0301C37.3859 15.9085 37.397 15.8117 37.397 15.7371C37.397 15.6127 37.3721 15.5242 37.3253 15.4689C37.2756 15.4136 37.204 15.386 37.1019 15.386C36.9172 15.386 36.6801 15.4993 36.3961 15.726C36.1121 15.9527 35.8061 16.2734 35.478 16.6881C35.1582 17.0945 34.8852 17.5479 34.6592 18.0483C34.4331 18.5487 34.2153 19.2067 34.0057 20.0195H33.0793L33.0821 20.0168Z" fill="#1D1D1B"/>
<path d="M29.037 20.0168L29.1032 19.7846H29.1473C29.5002 19.7846 29.7566 19.7183 29.9165 19.5883C30.0764 19.4584 30.2115 19.1875 30.3246 18.7783L31.7527 13.4536C31.7886 13.3153 31.8162 13.202 31.8327 13.1107C31.8492 13.0195 31.8575 12.9393 31.8575 12.873C31.8575 12.6933 31.7913 12.5633 31.6618 12.4776C31.5322 12.3947 31.3089 12.3422 30.9918 12.3228L31.0524 12.0906H34.2396L34.179 12.3228H34.0908C33.7627 12.3228 33.52 12.3919 33.3601 12.5274C33.2002 12.6629 33.0679 12.931 32.9576 13.3291L31.5322 18.6483C31.4991 18.7811 31.4743 18.8999 31.4577 18.9967C31.4412 19.0962 31.4329 19.1792 31.4329 19.2455C31.4329 19.428 31.4991 19.5607 31.6287 19.6409C31.7583 19.7238 31.9788 19.7708 32.2849 19.7791L32.2297 20.0113H29.0315L29.037 20.0168Z" fill="#1D1D1B"/>
<path d="M77.3026 4.59804L77.3081 4.59251C77.3605 4.36581 77.3853 4.18058 77.3853 4.03958C77.3853 3.9207 77.344 3.83776 77.2668 3.79076C77.1868 3.74376 77.0462 3.72164 76.845 3.72164H76.6768L76.7209 3.51429C77.1014 3.48941 77.4818 3.42582 77.8623 3.3263C78.2456 3.22677 78.4413 3.177 78.4523 3.177C78.4882 3.177 78.5185 3.18529 78.5351 3.20188C78.5544 3.21847 78.5654 3.24612 78.5681 3.28206C78.5681 3.30418 78.5599 3.34012 78.5461 3.38712C78.5461 3.39541 78.5461 3.40094 78.5406 3.40371L77.548 7.183C77.8485 6.79595 78.1518 6.51119 78.4523 6.32872C78.7556 6.14625 79.081 6.05778 79.4311 6.05778C79.9026 6.05778 80.2831 6.2126 80.567 6.51947C80.8538 6.82635 80.9971 7.23552 80.9971 7.74698C80.9971 8.15062 80.9172 8.55427 80.7545 8.96067C80.5918 9.36708 80.3575 9.75136 80.0487 10.1135C79.6462 10.5918 79.2133 10.9485 78.7418 11.1807C78.2731 11.4157 77.7631 11.5318 77.2172 11.5318C76.8008 11.5318 76.4507 11.4572 76.1695 11.3079C75.8882 11.1586 75.7449 10.9816 75.7449 10.7743C75.7449 10.7494 75.7449 10.7218 75.7504 10.6941C75.7531 10.6665 75.7642 10.6278 75.778 10.5808L77.2971 4.59251L77.3026 4.59804ZM76.7236 10.4176C76.7099 10.484 76.6988 10.5448 76.6906 10.6001C76.6823 10.6554 76.6795 10.7024 76.6795 10.7494C76.6795 10.907 76.7457 11.0259 76.878 11.1116C77.0104 11.1973 77.1979 11.2388 77.4432 11.2388C77.6886 11.2388 77.9395 11.1862 78.1739 11.0784C78.4082 10.9733 78.626 10.8158 78.8273 10.6112C79.183 10.249 79.4697 9.82048 79.682 9.32284C79.8943 8.8252 80.0018 8.33862 80.0018 7.86034C80.0018 7.48434 79.9081 7.183 79.7206 6.95906C79.5331 6.73513 79.2822 6.62453 78.9707 6.62453C78.5902 6.62453 78.2483 6.79594 77.9423 7.14152C77.6362 7.48711 77.3964 7.97092 77.2254 8.59297L76.7236 10.4149V10.4176Z" fill="#1D1D1B"/>
<path d="M70.2969 6.55282L70.3299 6.34547C70.8317 6.28465 71.3446 6.20447 71.8629 6.09941C71.9952 6.069 72.0697 6.05518 72.0862 6.05518C72.1358 6.05518 72.1717 6.06347 72.1965 6.0773C72.2213 6.09112 72.2351 6.11324 72.2351 6.13812C72.2351 6.1713 72.2323 6.21277 72.2241 6.25977C72.2158 6.30677 72.2048 6.35653 72.191 6.41459L71.2867 9.56906C71.226 9.78194 71.1791 9.96717 71.1433 10.1303C71.1074 10.2906 71.0909 10.4068 71.0909 10.4731C71.0909 10.5837 71.1212 10.6749 71.1846 10.7413C71.2481 10.8076 71.3308 10.8408 71.4355 10.8408C71.6644 10.8408 71.9291 10.7026 72.2296 10.4289C72.5329 10.1552 72.872 9.746 73.2469 9.20136C73.5392 8.78113 73.7901 8.32219 73.9996 7.82456C74.2064 7.32692 74.3801 6.77399 74.518 6.16853H75.4058L74.4242 9.82064C74.3746 10.0059 74.3388 10.1635 74.3167 10.2934C74.2919 10.4233 74.2809 10.5201 74.2809 10.5837C74.2809 10.6694 74.3002 10.733 74.336 10.7772C74.3718 10.8215 74.4297 10.8408 74.5097 10.8408C74.6255 10.8408 74.7606 10.7662 74.9205 10.6169C75.0777 10.4676 75.2541 10.2492 75.4471 9.95887L75.6043 10.1165C75.3258 10.5754 75.0363 10.9265 74.7385 11.167C74.4408 11.4076 74.1513 11.5292 73.8701 11.5292C73.6798 11.5292 73.5364 11.4794 73.4427 11.3827C73.349 11.2832 73.3021 11.1366 73.3021 10.9376C73.3021 10.8214 73.3159 10.686 73.3434 10.5312C73.371 10.3763 73.4124 10.2022 73.4675 10.0086L73.8259 8.78666C73.2166 9.75153 72.6762 10.451 72.2075 10.8823C71.7388 11.3136 71.2922 11.5292 70.8648 11.5292C70.6415 11.5292 70.4678 11.4601 70.3437 11.3246C70.2197 11.1891 70.1562 10.9984 70.1562 10.7523C70.1562 10.6141 70.1728 10.4565 70.2031 10.2796C70.2362 10.1026 70.3024 9.81788 70.4071 9.42806L70.9255 7.56469C70.9531 7.4541 70.9724 7.34074 70.9889 7.23016C71.0054 7.11957 71.0137 7.02004 71.0137 6.93434C71.0137 6.79057 70.9668 6.69105 70.8703 6.63852C70.7766 6.58599 70.5836 6.56111 70.2941 6.56111L70.2969 6.55282Z" fill="#1D1D1B"/>
<path d="M69.8612 10.1717C69.5607 10.5919 69.2546 10.9209 68.9458 11.1587C68.637 11.3964 68.3668 11.5153 68.1325 11.5153C67.9588 11.5153 67.8182 11.4656 67.7162 11.3633C67.6142 11.2637 67.5618 11.1227 67.5618 10.9458C67.5618 10.7495 67.6445 10.3542 67.8071 9.76252L67.8237 9.69617L69.2712 4.34379C69.285 4.28296 69.2987 4.22768 69.3043 4.17515C69.3125 4.12262 69.3153 4.07562 69.3153 4.03415C69.3153 3.86274 69.2684 3.74662 69.1774 3.68856C69.0837 3.62774 68.8879 3.59457 68.5929 3.58904L68.6095 3.38169C69.114 3.3264 69.6268 3.24622 70.1424 3.14393C70.2775 3.11904 70.3519 3.10522 70.3712 3.10522C70.4154 3.10522 70.4484 3.11352 70.4705 3.13011C70.4926 3.14669 70.5036 3.17158 70.5036 3.20752C70.5036 3.23793 70.5008 3.27386 70.4926 3.31533C70.4843 3.3568 70.4733 3.39828 70.4595 3.43975L68.6591 9.9671C68.6233 10.1026 68.5929 10.2215 68.5736 10.3293C68.5543 10.4371 68.5433 10.509 68.5433 10.5477C68.5433 10.6362 68.5598 10.7025 68.5957 10.7467C68.6315 10.7882 68.6811 10.8103 68.7501 10.8103C68.8604 10.8103 68.9872 10.7495 69.1223 10.6306C69.2601 10.5117 69.4421 10.3016 69.6737 10.0003L69.8584 10.1745L69.8612 10.1717Z" fill="#1D1D1B"/>
<path d="M66.8173 9.68238L67.0296 9.87314C66.5581 10.4648 66.0536 10.9016 65.5187 11.1836C64.9838 11.4656 64.3938 11.6066 63.7459 11.6066C62.7423 11.6066 61.9455 11.3163 61.3555 10.7357C60.7655 10.1551 60.4705 9.37274 60.4705 8.38852C60.4705 7.83835 60.5807 7.29095 60.8013 6.74908C61.0219 6.20721 61.3472 5.69021 61.7801 5.1981C62.2984 4.60923 62.8802 4.15307 63.5281 3.8296C64.176 3.50614 64.8322 3.34302 65.4911 3.34302C65.8688 3.34302 66.2631 3.40384 66.6656 3.52825C67.0682 3.6499 67.2943 3.71348 67.3439 3.71348C67.4183 3.71348 67.49 3.6886 67.5617 3.63884C67.6334 3.58907 67.6913 3.51719 67.7409 3.4232H67.9698L67.501 5.77316H67.2667C67.2667 5.72892 67.2667 5.67916 67.2694 5.6294C67.2694 5.57687 67.2722 5.50775 67.2722 5.42205C67.2722 4.87741 67.1288 4.45718 66.8393 4.16689C66.5498 3.87384 66.139 3.72731 65.6042 3.72731C65.1465 3.72731 64.6998 3.84619 64.2615 4.07842C63.8231 4.31341 63.4123 4.65623 63.029 5.10687C62.6403 5.5658 62.3398 6.0828 62.1302 6.66338C61.9207 7.24395 61.8159 7.84388 61.8159 8.46593C61.8159 9.28427 62.0172 9.93121 62.417 10.4067C62.8195 10.8822 63.3654 11.12 64.0547 11.12C64.5537 11.12 65.0334 11.0011 65.4966 10.7606C65.9626 10.5201 66.401 10.1634 66.8173 9.69067V9.68238Z" fill="#1D1D1B"/>
<path d="M54.0601 11.5014L54.311 9.62141L54.5067 9.63248C54.5288 10.1522 54.6418 10.5503 54.8431 10.8351C55.0443 11.1199 55.3145 11.2609 55.6537 11.2609C55.9239 11.2609 56.1472 11.1696 56.3209 10.9844C56.4946 10.7992 56.58 10.5614 56.58 10.2656C56.58 10.0057 56.4008 9.63801 56.0452 9.17078C55.9983 9.11549 55.9652 9.07125 55.9432 9.04084C55.9183 9.00214 55.877 8.9496 55.8191 8.88049C55.3476 8.25844 55.1133 7.76356 55.1133 7.3931C55.1133 7.02263 55.2484 6.69088 55.5186 6.43376C55.7888 6.17941 56.1251 6.05225 56.5332 6.05225C56.7482 6.05225 56.9881 6.09371 57.25 6.17388C57.5119 6.25406 57.6746 6.29553 57.7325 6.29553C57.7987 6.29553 57.8566 6.27618 57.909 6.23747C57.9586 6.19877 57.9889 6.14901 57.9972 6.09371H58.1929L57.9641 7.79675H57.7684C57.716 7.31293 57.5974 6.95352 57.4127 6.71576C57.228 6.478 56.9771 6.35912 56.6545 6.35912C56.4698 6.35912 56.3098 6.42271 56.1775 6.54988C56.0452 6.67706 55.979 6.82911 55.979 7.00605C55.979 7.2521 56.1582 7.60598 56.5194 8.07044C56.5607 8.12574 56.5911 8.16721 56.6159 8.19209C56.66 8.25568 56.7262 8.34415 56.8172 8.46026C57.2693 9.0519 57.4982 9.54124 57.4982 9.92553C57.4982 10.39 57.3327 10.7826 57.0046 11.0977C56.6765 11.4157 56.2657 11.5733 55.775 11.5733C55.5241 11.5733 55.2677 11.5346 55.003 11.4544C54.7355 11.3742 54.5839 11.3355 54.5481 11.3355C54.4819 11.3355 54.4268 11.3493 54.3826 11.377C54.3413 11.4046 54.311 11.4461 54.2944 11.5014H54.0656H54.0601Z" fill="#1D1D1B"/>
<path d="M50.8678 11.4267L51.8355 7.93218C51.8906 7.73589 51.9347 7.56171 51.9651 7.41242C51.9954 7.26313 52.0092 7.15255 52.0092 7.0779C52.0092 6.92585 51.9596 6.81802 51.8658 6.7572C51.7693 6.69638 51.5736 6.6632 51.2786 6.65214L51.3116 6.4365C51.7224 6.37568 52.3069 6.26509 53.0707 6.10474C53.123 6.10474 53.1561 6.11027 53.1672 6.12409C53.1809 6.13791 53.1865 6.16557 53.1865 6.20704C53.1865 6.22362 53.1837 6.24574 53.1782 6.27338C53.1727 6.30103 53.1644 6.33697 53.1534 6.37568L52.5771 8.43811C53.0238 7.66677 53.4125 7.08896 53.7434 6.7102C54.0742 6.32867 54.3582 6.14068 54.5926 6.14068C54.747 6.14068 54.871 6.18768 54.962 6.28445C55.0503 6.38121 55.0944 6.51115 55.0944 6.67979C55.0944 6.88161 55.0337 7.05302 54.9096 7.19125C54.7856 7.32949 54.6367 7.40136 54.463 7.40136C54.3279 7.40136 54.2149 7.35989 54.1184 7.27419C54.0246 7.18849 53.9667 7.07514 53.9474 6.93138C53.4622 7.42625 53.0431 8.0483 52.6819 8.79752C52.3207 9.54674 52.0202 10.4231 51.7776 11.4322H50.865L50.8678 11.4267Z" fill="#1D1D1B"/>
<path d="M50.1616 10.0417L50.3353 10.2159C49.9714 10.6721 49.5937 11.0094 49.1994 11.225C48.8051 11.4406 48.375 11.5485 47.9063 11.5485C47.4156 11.5485 47.0296 11.3909 46.7511 11.0729C46.4726 10.755 46.332 10.3154 46.332 9.7542C46.332 9.32291 46.4258 8.88609 46.6105 8.45204C46.7952 8.01523 47.0599 7.61435 47.4018 7.24389C47.7574 6.86789 48.1434 6.57207 48.5515 6.35919C48.9595 6.14632 49.351 6.04126 49.7233 6.04126C50.0651 6.04126 50.3271 6.1159 50.509 6.2652C50.691 6.41449 50.782 6.62736 50.782 6.90106C50.782 7.40976 50.4842 7.85487 49.8887 8.23363C49.2931 8.61239 48.477 8.8695 47.4404 9.00773C47.4101 9.16532 47.388 9.30632 47.377 9.43903C47.3632 9.56897 47.3577 9.67678 47.3577 9.76249C47.3577 10.1772 47.4459 10.4841 47.6224 10.6914C47.7988 10.896 48.0635 10.9983 48.4164 10.9983C48.6838 10.9983 48.9678 10.9181 49.2656 10.755C49.5633 10.5919 49.8611 10.3569 50.1589 10.0445L50.1616 10.0417ZM47.4873 8.7451C48.2206 8.64557 48.8024 8.41886 49.2325 8.06775C49.6626 7.71664 49.8777 7.29918 49.8777 6.80983C49.8777 6.66331 49.8418 6.55272 49.7701 6.47255C49.6957 6.39237 49.5964 6.35367 49.4668 6.35367C49.1139 6.35367 48.7472 6.5776 48.3668 7.02548C47.9863 7.47335 47.694 8.04564 47.49 8.74786L47.4873 8.7451Z" fill="#1D1D1B"/>
<path d="M40.6912 11.435L41.7912 7.711C41.8381 7.55065 41.8767 7.40965 41.9015 7.29077C41.9263 7.16913 41.9374 7.07512 41.9374 7.00324C41.9374 6.87054 41.8877 6.77378 41.7912 6.71572C41.692 6.65767 41.5238 6.63002 41.2812 6.63002H41.1874L41.2205 6.42267C41.7912 6.36461 42.3564 6.26785 42.9106 6.13514C43.0209 6.11026 43.0871 6.09644 43.1064 6.09644C43.1284 6.09644 43.145 6.10473 43.1532 6.11856C43.1615 6.13238 43.167 6.16279 43.167 6.20703C43.1643 6.21809 43.1588 6.2402 43.1505 6.27061C43.1422 6.30379 43.1284 6.35356 43.1064 6.42267L42.4695 8.46022C43.0154 7.70547 43.5392 7.12489 44.041 6.72125C44.5428 6.31761 44.984 6.11579 45.3672 6.11579C45.5795 6.11579 45.7422 6.17108 45.8579 6.2789C45.9737 6.38673 46.0316 6.54155 46.0316 6.74061C46.0316 6.86778 46.0179 7.01154 45.9903 7.17189C45.9627 7.33224 45.9214 7.50641 45.8717 7.68888L45.2211 9.93378C45.1659 10.1245 45.1273 10.2655 45.108 10.3623C45.0887 10.4563 45.0777 10.5337 45.0777 10.5945C45.0777 10.6802 45.097 10.7466 45.1383 10.7936C45.1797 10.8406 45.2376 10.8627 45.3148 10.8627C45.4306 10.8627 45.5602 10.7825 45.7008 10.6249C45.8442 10.4674 46.0096 10.2213 46.1998 9.88955L46.3818 10.0223C46.1006 10.5531 45.8194 10.9457 45.5409 11.2C45.2624 11.4544 44.9757 11.5843 44.6834 11.5843C44.507 11.5843 44.3664 11.529 44.2644 11.4184C44.1623 11.3078 44.1127 11.1558 44.1127 10.9622C44.1127 10.8765 44.1265 10.7659 44.1513 10.6332C44.1789 10.4978 44.2175 10.3347 44.2754 10.1411L44.8709 7.94047C44.9233 7.73035 44.9591 7.56724 44.9812 7.44559C45.0033 7.32395 45.0143 7.22718 45.0143 7.15254C45.0143 7.03089 44.9895 6.93966 44.9426 6.88437C44.893 6.82907 44.8213 6.80143 44.7193 6.80143C44.5345 6.80143 44.3002 6.91477 44.0135 7.14148C43.7295 7.36818 43.4234 7.68888 43.0981 8.10358C42.7783 8.50999 42.5053 8.96339 42.2792 9.4638C42.0504 9.9642 41.8354 10.6222 41.6258 11.435H40.6994H40.6912Z" fill="#1D1D1B"/>
<path d="M38.629 6.56101L38.6731 6.36748C39.2163 6.30389 39.7429 6.21543 40.2557 6.10208C40.3605 6.07443 40.4184 6.06337 40.4349 6.06337C40.4735 6.06337 40.5011 6.07719 40.5231 6.10208C40.5452 6.12696 40.5562 6.1629 40.5562 6.20437C40.5562 6.22925 40.5535 6.25966 40.5452 6.29284C40.5369 6.32601 40.5259 6.36472 40.5121 6.41448L39.4148 10.0749C39.3845 10.1827 39.3624 10.2739 39.3486 10.3458C39.3348 10.4177 39.3266 10.4785 39.3266 10.5283C39.3266 10.6361 39.3459 10.7191 39.39 10.7771C39.4341 10.8352 39.492 10.8628 39.5664 10.8628C39.6767 10.8628 39.8201 10.7854 39.991 10.6306C40.1647 10.4758 40.3494 10.2601 40.5452 9.98089L40.7189 10.1523C40.3991 10.6085 40.0848 10.9541 39.776 11.1918C39.4672 11.4296 39.1749 11.5485 38.902 11.5485C38.72 11.5485 38.5822 11.4959 38.4857 11.3881C38.3919 11.2803 38.3423 11.1255 38.3423 10.9209C38.3423 10.8158 38.3561 10.6914 38.3836 10.5476C38.4112 10.4039 38.4636 10.2021 38.538 9.94495L39.2714 7.34893L39.2769 7.33234C39.3238 7.14158 39.3486 7.01718 39.3486 6.95912C39.3486 6.81536 39.2935 6.71306 39.1887 6.65224C39.0839 6.59142 38.8965 6.56377 38.629 6.56377V6.56101ZM39.8311 4.14193C39.8311 3.98988 39.8918 3.85164 40.0131 3.73276C40.1316 3.61112 40.2667 3.55029 40.4156 3.55029C40.5755 3.55029 40.7134 3.60835 40.8292 3.72724C40.945 3.84335 41.0056 3.98158 41.0056 4.14193C41.0056 4.30228 40.9477 4.44881 40.8347 4.55939C40.7217 4.66998 40.581 4.72804 40.4156 4.72804C40.2612 4.72804 40.1234 4.66998 40.0076 4.55663C39.8918 4.44052 39.8311 4.30228 39.8311 4.14469V4.14193Z" fill="#1D1D1B"/>
<path d="M29.5498 11.435L29.6215 11.2028H29.6766C30.0323 11.2028 30.2915 11.1364 30.4541 11.0065C30.6168 10.8765 30.7519 10.6056 30.8649 10.1964L32.2931 4.86892C32.3317 4.73069 32.3565 4.61733 32.3703 4.5261C32.3841 4.43487 32.3924 4.3547 32.3924 4.28834C32.3924 4.11141 32.329 3.9787 32.1994 3.89576C32.0725 3.81282 31.8492 3.75753 31.5294 3.73541L31.5956 3.51147H34.6201C35.756 3.51147 36.6548 3.80453 37.311 4.39063C37.9672 4.97674 38.2953 5.77849 38.2953 6.79865C38.2953 7.54787 38.1133 8.24457 37.7466 8.89427C37.3799 9.5412 36.8533 10.1024 36.1613 10.5724C35.734 10.8655 35.2597 11.0839 34.7414 11.2221C34.2203 11.3631 33.6386 11.4322 32.9907 11.4322H29.5526L29.5498 11.435ZM33.4345 4.83851L32.0753 9.91443C32.0339 10.072 32.0009 10.2102 31.976 10.3347C31.9512 10.4591 31.9374 10.5448 31.9374 10.5973C31.9374 10.7604 32.0202 10.8793 32.1911 10.9484C32.3593 11.0203 32.646 11.0535 33.0458 11.0535C33.509 11.0535 33.9391 10.9899 34.3361 10.8655C34.7331 10.7411 35.0723 10.5586 35.3645 10.3208C35.8525 9.93101 36.2413 9.38914 36.5335 8.7035C36.8258 8.0151 36.9746 7.29076 36.9746 6.53048C36.9746 5.67067 36.7624 5.01268 36.3378 4.56204C35.9132 4.1114 35.2901 3.8847 34.474 3.8847C34.1293 3.8847 33.8977 3.9317 33.7819 4.0257C33.6661 4.1197 33.5503 4.38787 33.4373 4.83574L33.4345 4.83851Z" fill="#1D1D1B"/>
<path d="M15.6568 23.724C22.1911 23.724 27.4847 18.4131 27.4847 11.8636C27.4847 5.31416 22.1884 0.000488281 15.6568 0.000488281H12.4972C5.96288 0.000488281 0.666504 5.3114 0.666504 11.8636C0.666504 18.4159 5.96288 23.724 12.4972 23.724H15.6568Z" fill="#014898"/>
<path d="M24.0798 11.8636C24.0798 18.2776 18.8937 23.4779 12.4973 23.4779C6.10081 23.4779 0.91748 18.2776 0.91748 11.8636C0.91748 5.44959 6.10357 0.249268 12.5 0.249268C18.8965 0.249268 24.0826 5.44959 24.0826 11.8636H24.0798Z" fill="white"/>
<path d="M5.24609 11.8636C5.24609 14.9545 7.17054 17.5864 9.88352 18.6398V5.0874C7.1733 6.14074 5.24609 8.7727 5.24609 11.8636Z" fill="#014898"/>
<path d="M19.7514 11.8636C19.7514 8.77546 17.8269 6.14074 15.1167 5.0874V18.637C17.8269 17.5837 19.7514 14.9517 19.7514 11.8636Z" fill="#014898"/>
</svg>
