<svg width="68" height="100" viewBox="0 0 68 100" fill="none" xmlns="http://www.w3.org/2000/svg">
<path d="M11.9719 98.228C5.80271 98.228 0.784815 93.2142 0.784815 87.0501V11.9798C0.78755 5.81565 5.80545 0.799114 11.9719 0.799114H56.0282C62.1946 0.799114 67.2124 5.81565 67.2124 11.9798V87.0501C67.2124 93.2142 62.1946 98.228 56.0282 98.228H11.9719ZM3.93228 87.0501C3.93228 91.4792 7.53915 95.0831 11.9719 95.0831H56.0282C60.4609 95.0831 64.0677 91.4792 64.0677 87.0501V61.3445C55 66.708 44.6497 69.536 34.0397 69.536C23.4296 69.536 13.0219 66.6916 3.93228 61.3008V87.0501Z" fill="#0081C9"/>
<path d="M56.0282 1.58329C61.7734 1.58329 66.4276 6.23915 66.4276 11.9798V87.0501C66.4276 92.7907 61.7734 97.4411 56.0282 97.4411H11.9719C6.22656 97.4411 1.57237 92.7907 1.57237 87.0501V11.9798C1.57237 6.23915 6.22656 1.58329 11.9719 1.58329H56.0282ZM11.9719 95.87H56.0282C60.8929 95.87 64.8553 91.9164 64.8553 87.0501V59.9483C55.9133 65.5304 45.3525 68.7518 34.0397 68.7518C22.7268 68.7518 12.1031 65.5086 3.14473 59.9018V87.0529C3.14473 91.9191 7.10162 95.8728 11.9719 95.8728M56.0282 0.012207H11.9719C5.37065 0.012207 0 5.38121 0 11.9798V87.0501C0 93.6459 5.37065 99.0122 11.9719 99.0122H56.0282C62.6293 99.0122 68 93.6459 68 87.0501V11.9798C68 5.38121 62.6293 0.012207 56.0282 0.012207ZM11.9719 94.299C7.97121 94.299 4.71709 91.0475 4.71709 87.0501V62.6615C13.6399 67.6807 23.7167 70.3229 34.0369 70.3229C44.3571 70.3229 54.3792 67.6971 63.2802 62.7052V87.0501C63.2802 91.0475 60.0261 94.299 56.0254 94.299H11.9719Z" fill="white"/>
<path d="M64.8553 59.9483V87.0501C64.8553 91.9164 60.8929 95.87 56.0282 95.87H11.9719C7.10436 95.87 3.14473 91.9164 3.14473 87.0501V59.8991C12.1031 65.5086 22.6913 68.7518 34.0397 68.7518C45.388 68.7518 55.9133 65.5304 64.8553 59.9483Z" fill="white"/>
<path d="M34.0041 30.7098C31.2422 30.7098 28.9971 28.4611 28.9999 25.7014C28.9999 22.9445 31.2504 20.7013 34.0123 20.704C36.7742 20.704 39.0165 22.9527 39.0165 25.7096C39.0138 28.4693 36.766 30.7125 34.0041 30.7098ZM34.0096 22.5565C32.2704 22.5565 30.8539 23.9692 30.8539 25.7042C30.8539 27.4419 32.2677 28.8545 34.0041 28.8573C35.7433 28.8573 37.157 27.4447 37.1598 25.7096C37.1598 23.9719 35.746 22.5565 34.0096 22.5565Z" fill="white"/>
<path d="M24.827 33.5869C23.003 31.4639 21.901 28.707 21.9037 25.696C21.9037 23.297 22.612 21.062 23.8206 19.1821L22.3385 18.0646C20.8974 20.2587 20.0524 22.879 20.0524 25.696C20.0497 29.2179 21.3596 32.4366 23.5171 34.8984L24.8324 33.5869H24.827Z" fill="white"/>
<path d="M23.5116 16.5154L24.8242 17.8296C25.2262 17.3597 25.6637 16.9225 26.1341 16.5181L24.8215 15.2066C24.3566 15.6137 23.9191 16.0509 23.5116 16.5154Z" fill="white"/>
<path d="M34.0479 11.7284C31.2149 11.7284 28.576 12.5727 26.372 14.0263L27.4877 15.5099C29.38 14.2913 31.6305 13.5809 34.0451 13.5836C37.209 13.5836 40.1541 14.7804 42.3937 16.9116L44.0125 15.9088C41.3956 13.2366 37.8571 11.7338 34.0479 11.7284Z" fill="white"/>
<path d="M39.6209 30.8956C38.2262 32.3929 36.2382 33.3301 34.0342 33.3301C29.8257 33.3273 26.4075 29.9037 26.4103 25.7014C26.413 21.4964 29.8394 18.081 34.0451 18.0837C35.6038 18.0837 37.0941 18.5592 38.3438 19.4144L40.0338 18.3679C38.363 17.0045 36.2601 16.2312 34.0451 16.2312C28.8167 16.2285 24.559 20.4745 24.5562 25.7014C24.5535 30.9256 28.803 35.1798 34.0314 35.1826C36.8562 35.1826 39.3912 33.9448 41.1331 31.9858L39.6209 30.8956Z" fill="white"/>
<path d="M40.7858 35.781C38.8525 37.0788 36.5281 37.8357 34.0287 37.8357C31.0152 37.8329 28.2588 36.7263 26.1368 34.9011L24.8215 36.2127C27.2826 38.3712 30.5039 39.6854 34.026 39.6882C36.9601 39.6909 39.6838 38.7838 41.937 37.24L40.7858 35.7837V35.781Z" fill="white"/>
<path d="M45.2622 17.3105L39.8396 20.6631C39.8396 20.6631 41.6663 22.7833 41.6663 25.7124C41.6663 27.0485 41.319 28.3026 40.7092 29.3955L42.2214 30.4857C43.0445 29.0813 43.5203 27.4529 43.5203 25.7151C43.5203 24.1522 43.1375 22.6221 42.4074 21.256L44.6688 19.857C45.656 21.6467 46.1728 23.6549 46.1728 25.7151C46.1701 29.2398 44.6552 32.4147 42.2433 34.6306L43.3945 36.0897C46.2357 33.5323 48.0296 29.83 48.0296 25.7178C48.0296 20.7423 45.2622 17.3132 45.2622 17.3132" fill="white"/>
<path d="M24.064 46.6283C21.901 46.6283 20.1372 48.3797 20.1372 50.5355C20.1372 52.6913 21.8955 54.4481 24.0586 54.4481C26.2243 54.4481 27.9881 52.6967 27.9881 50.5409C27.9881 48.3851 26.2298 46.6283 24.064 46.6283ZM24.0586 52.8443C22.7815 52.8443 21.7451 51.8087 21.7451 50.5382C21.7451 49.2677 22.7843 48.2349 24.0613 48.2349C25.3383 48.2349 26.3747 49.2704 26.3747 50.5409C26.3747 51.8115 25.3356 52.8443 24.0586 52.8443Z" fill="white"/>
<path d="M10.9245 54.2022H9.28379L9.28926 47.519H10.93L10.9245 54.2022ZM10.1069 46.6665C9.54904 46.6665 9.11151 46.2293 9.11151 45.6747C9.11151 45.1173 9.55177 44.6828 10.1069 44.6828C10.662 44.6828 11.1023 45.12 11.1023 45.6747C11.1023 46.2293 10.6647 46.6665 10.1069 46.6665Z" fill="white"/>
<path d="M33.2302 46.6091C31.0645 46.6091 29.3007 48.3605 29.3007 50.5163V54.2733H31.0317L31.0344 50.3961C31.0344 49.1912 32.0188 48.213 33.2275 48.213C34.4225 48.213 35.3987 49.1693 35.4206 50.3524V54.276H37.1516V50.5191C37.157 48.3605 35.396 46.6064 33.2302 46.6037" fill="white"/>
<path d="M42.4292 52.9727C42.4292 52.9727 42.1722 52.9918 42.0738 52.9918C41.3682 52.9918 41.0319 52.8142 41.0319 51.8169V47.9917H42.4976V46.7157H41.0401V45.2156H39.3091V46.713H38.3138V47.9807H39.3091L39.3064 51.5765C39.3064 52.0983 39.3447 52.8579 39.6756 53.459C40.0392 54.1203 40.6819 54.4563 41.5843 54.4563C42.0191 54.4563 42.432 54.3744 42.432 54.3744V52.97L42.4292 52.9727Z" fill="white"/>
<path d="M16.3881 54.4618C14.2142 54.4618 12.4449 52.6967 12.4449 50.53C12.4449 48.3633 14.2169 46.6037 16.3936 46.6037C18.234 46.6037 19.2594 47.8332 19.2594 47.8332L18.2094 49.1283C18.2094 49.1283 17.5613 48.2458 16.3909 48.2458C15.1248 48.2458 14.0939 49.2677 14.0911 50.53C14.0911 51.7896 15.1193 52.8197 16.3881 52.8197C17.5886 52.8197 18.223 51.918 18.223 51.918L19.2786 53.2131C19.2786 53.2131 18.2312 54.4645 16.3881 54.4645" fill="white"/>
<path d="M56.0746 54.4618C53.9007 54.4618 52.1314 52.6967 52.1314 50.53C52.1314 48.3633 53.9034 46.6037 56.0801 46.6037C57.9205 46.6037 58.9459 47.8332 58.9459 47.8332L57.8958 49.1283C57.8958 49.1283 57.2478 48.2458 56.0774 48.2458C54.8113 48.2458 53.7804 49.2677 53.7776 50.53C53.7776 51.7896 54.8058 52.8197 56.0719 52.8197C57.338 52.8197 57.9068 51.918 57.9068 51.918L58.9623 53.2131C58.9623 53.2131 57.915 54.4645 56.0719 54.4645" fill="white"/>
<path d="M47.2503 46.5681C44.9478 46.5681 43.5641 48.4726 43.5641 50.5409C43.5641 52.847 45.172 54.4618 47.4827 54.4618C49.7934 54.4618 50.6931 52.7268 50.6931 52.7268L49.509 51.8415C49.509 51.8415 48.9074 52.9098 47.51 52.9098C46.2822 52.9098 45.3415 52.1421 45.265 50.989H50.8599C50.8599 50.989 50.8872 50.6311 50.8872 50.5027C50.8872 48.8141 50.045 46.5681 47.2503 46.5681ZM45.3306 49.7158C45.4673 48.7239 46.2795 48.0627 47.2612 48.0627C48.2921 48.0627 49.0441 48.7103 49.1371 49.7185H45.3306V49.7158Z" fill="white"/>
<path d="M15.7647 80.9461L16.0819 79.8013C16.3499 79.9406 16.6561 80.0609 16.9979 80.1674C17.3398 80.274 17.6542 80.3259 17.9359 80.3259C18.3734 80.3259 18.7043 80.2576 18.9313 80.1182C19.1582 79.9789 19.2704 79.7794 19.2704 79.5171C19.2704 79.3341 19.1801 79.1701 19.0024 79.0199C18.8246 78.8696 18.5484 78.6947 18.1765 78.4898L17.8484 78.2931C17.3616 78.0007 16.9733 77.7493 16.6862 77.5389C16.3991 77.3286 16.1502 77.0799 15.9424 76.7903C15.7346 76.5034 15.6307 76.181 15.6307 75.8258C15.6307 75.446 15.7319 75.1072 15.9369 74.8039C16.142 74.5033 16.4346 74.2656 16.8175 74.0962C17.2003 73.9241 17.657 73.8394 18.1875 73.8394C18.8137 73.8394 19.5137 74.0252 20.2849 74.3968L19.8145 75.5307C19.5165 75.3859 19.243 75.2738 19.0024 75.1919C18.759 75.1126 18.4937 75.0717 18.2094 75.0717C17.8812 75.0717 17.6132 75.1345 17.4054 75.2629C17.1976 75.3886 17.0937 75.5771 17.0937 75.8258C17.0937 76.0362 17.1757 76.211 17.3398 76.3559C17.5038 76.4979 17.7718 76.6783 18.141 76.8969L18.491 77.0936L18.8082 77.2794C19.2375 77.528 19.5794 77.7439 19.8364 77.9297C20.0907 78.1155 20.304 78.3395 20.4763 78.6073C20.6458 78.8723 20.7333 79.1838 20.7333 79.539C20.7333 79.9406 20.6267 80.2931 20.4107 80.5964C20.1946 80.9024 19.8774 81.1429 19.459 81.3177C19.0407 81.4926 18.5402 81.58 17.9578 81.58C17.6515 81.58 17.2714 81.5117 16.8175 81.3778C16.3635 81.244 16.0108 81.0991 15.7647 80.9461Z" fill="#0081C9"/>
<path d="M26.3583 79.2111H22.787C22.8608 79.5827 23.0194 79.8669 23.2628 80.0609C23.5062 80.2576 23.8808 80.356 24.3812 80.356C24.6738 80.356 24.9336 80.315 25.1688 80.2357C25.4012 80.1565 25.6528 80.039 25.9235 79.8887L26.3392 80.9134C26.0684 81.1237 25.7786 81.2877 25.4641 81.3997C25.1524 81.5117 24.7805 81.5691 24.3484 81.5691C23.3448 81.5691 22.5819 81.3232 22.0596 80.8314C21.54 80.3396 21.2775 79.6619 21.2775 78.7958C21.2775 78.2357 21.3842 77.7439 21.6002 77.3231C21.8162 76.9023 22.1225 76.5744 22.5245 76.3449C22.9265 76.1181 23.3995 76.0006 23.9437 76.0006C24.4879 76.0006 24.9227 76.1236 25.2864 76.3722C25.6501 76.6209 25.9208 76.9515 26.0958 77.3695C26.2708 77.7876 26.3583 78.2548 26.3583 78.7739V79.2111ZM22.7979 78.2603H25.0156C24.9418 77.9105 24.8133 77.6482 24.6273 77.4734C24.4414 77.2985 24.2035 77.2111 23.9109 77.2111C23.6183 77.2111 23.3749 77.3012 23.1808 77.4788C22.9839 77.6564 22.8554 77.9187 22.7979 78.2603Z" fill="#0081C9"/>
<path d="M27.3427 81.4352V73.8503L28.751 73.7301V81.4352H27.3427Z" fill="#0081C9"/>
<path d="M30.1703 81.4352V73.8503L31.5813 73.7301V81.4352H30.1703Z" fill="#0081C9"/>
<path d="M37.8708 80.2467C37.6383 80.6702 37.3102 80.9953 36.8808 81.2221C36.4543 81.4516 35.9593 81.5664 35.3905 81.5664C34.8217 81.5664 34.3268 81.4543 33.8975 81.2276C33.4709 81.0035 33.1427 80.6811 32.9075 80.2631C32.6751 79.845 32.5575 79.3559 32.5575 78.7958C32.5575 78.2357 32.6751 77.7439 32.9075 77.3231C33.1427 76.8996 33.4709 76.5744 33.8975 76.3476C34.324 76.1181 34.8217 76.0034 35.3905 76.0034C35.9593 76.0034 36.4543 76.1154 36.8808 76.3422C37.3074 76.5662 37.6356 76.8887 37.8708 77.3067C38.1032 77.7247 38.2208 78.2138 38.2208 78.7739C38.2208 79.3341 38.1032 79.8259 37.8708 80.2467ZM36.3695 79.9079C36.6265 79.61 36.7578 79.2302 36.7578 78.7739C36.7578 78.3176 36.632 77.9406 36.375 77.651C36.1206 77.3586 35.7925 77.2138 35.3932 77.2138C34.994 77.2138 34.6741 77.3641 34.4143 77.6619C34.1572 77.9597 34.026 78.3395 34.026 78.7985C34.026 79.2576 34.1518 79.6319 34.4088 79.9215C34.6631 80.2139 34.9913 80.356 35.3932 80.356C35.7952 80.356 36.1124 80.2084 36.3695 79.9079Z" fill="#0081C9"/>
<path d="M46.49 73.7301V81.4352H45.7463L45.4181 80.9571C44.9532 81.3642 44.4419 81.5691 43.8868 81.5691C43.0637 81.5691 42.4156 81.3205 41.937 80.8204C41.4585 80.3232 41.2206 79.6483 41.2206 78.7958C41.2206 78.2439 41.3272 77.7548 41.5433 77.334C41.7565 76.9132 42.0683 76.5854 42.4757 76.3504C42.8832 76.1154 43.3672 76.0006 43.9278 76.0006C44.1028 76.0006 44.2887 76.0307 44.4856 76.0936C44.6825 76.1537 44.8712 76.2411 45.0544 76.3504V73.8503L46.4846 73.7301H46.49ZM43.0226 79.9243C43.2441 80.2111 43.5531 80.356 43.9469 80.356C44.1356 80.356 44.3188 80.3204 44.4966 80.2467C44.6743 80.1729 44.863 80.0663 45.0599 79.9188V77.6592C44.8685 77.498 44.688 77.3832 44.513 77.3149C44.338 77.2439 44.1493 77.2111 43.9442 77.2111C43.5586 77.2111 43.2496 77.3586 43.0254 77.6537C42.7984 77.9488 42.6863 78.3286 42.6863 78.7931C42.6863 79.2576 42.7984 79.6346 43.0199 79.9215" fill="#0081C9"/>
<path d="M52.5525 79.2111H48.9812C49.0551 79.5827 49.2137 79.8669 49.457 80.0609C49.7004 80.2576 50.075 80.356 50.5782 80.356C50.8681 80.356 51.1306 80.315 51.3657 80.2357C51.5982 80.1565 51.8498 80.039 52.1205 79.8887L52.5361 80.9134C52.2681 81.1237 51.9756 81.2877 51.6611 81.3997C51.3493 81.5117 50.9774 81.5691 50.5481 81.5691C49.5418 81.5691 48.7816 81.3232 48.2593 80.8314C47.7397 80.3396 47.4772 79.6619 47.4772 78.7958C47.4772 78.2357 47.5839 77.7439 47.7999 77.3231C48.0132 76.9023 48.3222 76.5744 48.7214 76.3449C49.1234 76.1181 49.5965 76.0006 50.1407 76.0006C50.6848 76.0006 51.1196 76.1236 51.4833 76.3722C51.847 76.6209 52.1177 76.9515 52.29 77.3695C52.465 77.7876 52.5525 78.2548 52.5525 78.7739V79.2111ZM48.9922 78.2603H51.2099C51.1388 77.9105 51.0075 77.6482 50.8243 77.4734C50.6384 77.2985 50.4005 77.2111 50.1079 77.2111C49.8153 77.2111 49.5719 77.3012 49.375 77.4788C49.1781 77.6564 49.0496 77.9187 48.9922 78.2603Z" fill="#0081C9"/>
<path d="M22.4206 84.296L21.983 85.3096L21.7096 85.2331C21.4252 85.1457 21.2009 85.0856 21.0341 85.0528C20.8646 85.02 20.6595 85.0036 20.4107 85.0036C20.0169 85.0036 19.6641 85.1129 19.3524 85.3315C19.0379 85.5501 18.7918 85.8643 18.6141 86.2714C18.4363 86.6785 18.3461 87.154 18.3461 87.7004C18.3461 88.1895 18.4254 88.6349 18.5813 89.0365C18.7371 89.4409 18.9641 89.7606 19.2649 89.9956C19.563 90.2333 19.9157 90.3508 20.3232 90.3508C20.8619 90.3508 21.406 90.2387 21.9502 90.012L22.4862 91.0584C22.21 91.2033 21.8736 91.3207 21.4771 91.4082C21.0806 91.4956 20.7224 91.5393 20.4025 91.5393C19.6532 91.5393 19.0106 91.3727 18.4801 91.0366C17.9496 90.7032 17.5476 90.2442 17.2796 89.6677C17.0116 89.0912 16.8749 88.4381 16.8749 87.7086C16.8749 86.9791 17.0226 86.2796 17.3179 85.6894C17.6132 85.0993 18.0316 84.6402 18.573 84.3096C19.1145 83.979 19.7434 83.8123 20.4572 83.8123C20.7197 83.8123 21.0396 83.8533 21.4197 83.9326C21.7971 84.0118 22.1334 84.132 22.4233 84.2932" fill="#0081C9"/>
<path d="M23.766 87.613L23.3831 86.4354C23.5745 86.3124 23.8753 86.2004 24.291 86.102C24.7066 86.0037 25.0375 85.9545 25.2864 85.9545C25.7075 85.9545 26.0931 86.0392 26.4431 86.2058C26.7931 86.3725 27.0693 86.6048 27.2799 86.9053C27.4877 87.2031 27.5889 87.5392 27.5889 87.9081V91.389H26.6618L26.4212 90.8207C25.9755 91.2852 25.5106 91.5202 25.0238 91.5202C24.3894 91.5202 23.9136 91.3672 23.5937 91.0557C23.271 90.747 23.1124 90.3289 23.1124 89.807C23.1124 89.2852 23.2929 88.8507 23.6593 88.5584C24.023 88.2633 24.5098 88.1157 25.1223 88.1157H26.1587C26.1505 87.848 26.0739 87.6376 25.9235 87.4873C25.7731 87.337 25.568 87.2633 25.3055 87.2633C25.0649 87.2633 24.7996 87.2988 24.507 87.3671C24.2144 87.4381 23.9683 87.5174 23.7632 87.613M24.3211 89.807C24.3211 89.9682 24.384 90.1049 24.5125 90.2224C24.6383 90.3398 24.8023 90.3972 24.9992 90.3972C25.4204 90.3972 25.8114 90.2224 26.1669 89.8726V89.0666H25.0949C24.8625 89.0666 24.6738 89.1404 24.5316 89.2852C24.3894 89.43 24.3183 89.6048 24.3183 89.8098" fill="#0081C9"/>
<path d="M28.8549 91.389V83.8041L30.2632 83.6866V91.389H28.8549Z" fill="#0081C9"/>
<path d="M32.2731 85.3452C32.0544 85.3452 31.8684 85.2687 31.7153 85.1157C31.5622 84.9626 31.4856 84.7741 31.4856 84.5473C31.4856 84.3205 31.5622 84.132 31.7153 83.979C31.8684 83.826 32.0544 83.7495 32.2731 83.7495C32.4919 83.7495 32.6888 83.826 32.8474 83.979C33.0033 84.132 33.0826 84.3205 33.0826 84.5473C33.0826 84.7741 33.0033 84.9626 32.8474 85.1157C32.6915 85.2687 32.5001 85.3452 32.2731 85.3452ZM31.5731 86.0993H32.9923V91.3918H31.5731V86.0993Z" fill="#0081C9"/>
<path d="M39.1314 83.6866V91.3918H38.3876L38.0594 90.9136C37.5946 91.3207 37.0832 91.5257 36.5308 91.5257C35.7077 91.5257 35.0569 91.277 34.5811 90.777C34.1053 90.2797 33.8646 89.6048 33.8646 88.7524C33.8646 88.2004 33.9713 87.7113 34.1873 87.2906C34.4006 86.8698 34.7123 86.5419 35.1198 86.3069C35.5272 86.0747 36.0113 85.9572 36.5718 85.9572C36.7469 85.9572 36.9328 85.9873 37.1297 86.0501C37.3266 86.1102 37.5153 86.1976 37.6985 86.3069V83.8069L39.1286 83.6866H39.1314ZM35.664 89.8808C35.8855 90.1677 36.1945 90.3125 36.5883 90.3125C36.7769 90.3125 36.9601 90.277 37.1379 90.2032C37.3156 90.1294 37.5043 90.0229 37.7012 89.8754V87.6157C37.5125 87.4545 37.3293 87.3398 37.1543 87.2714C36.9793 87.2031 36.7906 87.1676 36.5855 87.1676C36.1999 87.1676 35.8937 87.3152 35.6667 87.6103C35.4425 87.9053 35.3276 88.2851 35.3276 88.7496C35.3276 89.2141 35.4397 89.5912 35.6612 89.8781" fill="#0081C9"/>
<path d="M40.9581 87.613L40.5752 86.4354C40.7639 86.3124 41.0674 86.2004 41.4831 86.102C41.8987 86.0037 42.2296 85.9545 42.4785 85.9545C42.8996 85.9545 43.2852 86.0392 43.6352 86.2058C43.9852 86.3725 44.2641 86.6048 44.472 86.9053C44.6798 87.2031 44.7837 87.5392 44.7837 87.9081V91.389H43.8567L43.616 90.8207C43.1703 91.2852 42.7054 91.5202 42.2187 91.5202C41.5843 91.5202 41.1085 91.3672 40.7885 91.0557C40.4658 90.747 40.3072 90.3289 40.3072 89.807C40.3072 89.2852 40.4877 88.8507 40.8541 88.5584C41.2178 88.2633 41.7046 88.1157 42.3171 88.1157H43.3535C43.3453 87.848 43.2687 87.6376 43.1183 87.4873C42.9707 87.337 42.7656 87.2633 42.5003 87.2633C42.2597 87.2633 41.9944 87.2988 41.7019 87.3671C41.412 87.4381 41.1631 87.5174 40.9608 87.613M41.5159 89.807C41.5159 89.9682 41.5815 90.1049 41.7073 90.2224C41.8331 90.3398 41.9972 90.3972 42.1941 90.3972C42.6152 90.3972 43.0062 90.2224 43.3617 89.8726V89.0666H42.2898C42.0573 89.0666 41.8687 89.1404 41.7265 89.2852C41.5843 89.43 41.5132 89.6048 41.5132 89.8098" fill="#0081C9"/>
<path d="M50.8735 83.6866V91.3918H50.1297L49.8016 90.9136C49.3367 91.3207 48.8254 91.5257 48.273 91.5257C47.4499 91.5257 46.799 91.277 46.3232 90.777C45.8447 90.2797 45.6068 89.6048 45.6068 88.7524C45.6068 88.2004 45.7162 87.7113 45.9295 87.2906C46.1428 86.8698 46.4545 86.5419 46.8619 86.3069C47.2694 86.072 47.7534 85.9572 48.314 85.9572C48.489 85.9572 48.675 85.9873 48.8718 86.0501C49.0687 86.1102 49.2574 86.1976 49.4406 86.3069V83.8069L50.8708 83.6866H50.8735ZM47.4061 89.8808C47.6276 90.1677 47.9366 90.3125 48.3304 90.3125C48.5191 90.3125 48.7023 90.277 48.88 90.2032C49.0578 90.1294 49.2465 90.0229 49.4434 89.8754V87.6157C49.2519 87.4545 49.0715 87.3398 48.8965 87.2714C48.7214 87.2031 48.5328 87.1676 48.3277 87.1676C47.9421 87.1676 47.6331 87.3152 47.4089 87.6103C47.1819 87.9053 47.0698 88.2851 47.0698 88.7496C47.0698 89.2141 47.1819 89.5912 47.4034 89.8781" fill="#0081C9"/>
</svg>
