<svg width="241" height="120" viewBox="0 0 241 120" fill="none" xmlns="http://www.w3.org/2000/svg">
<g filter="url(#filter0_d_496_12130)">
<path d="M25 56C25 36.67 40.67 21 60 21H241V91H60C40.67 91 25 75.33 25 56Z" fill="#B0E4BD"/>
<g clip-path="url(#clip0_496_12130)">
<path d="M38.0243 55.7127C38.0232 59.7456 39.0852 63.6835 41.1046 67.1544L37.8312 79.0134L50.0622 75.8312C53.4451 77.6586 57.2354 78.6161 61.0872 78.6163H61.0973C73.8126 78.6163 84.1632 68.3497 84.1686 55.7308C84.1711 49.616 81.7733 43.866 77.4169 39.5401C73.0613 35.2145 67.2685 32.831 61.0964 32.8282C48.3796 32.8282 38.0296 43.0943 38.0243 55.7127Z" fill="url(#paint0_linear_496_12130)"/>
<g filter="url(#filter1_d_496_12130)">
<path d="M37.2006 55.7053C37.1993 59.8834 38.2994 63.962 40.3907 67.5572L37 79.8413L49.6696 76.5451C53.1604 78.4337 57.0908 79.4294 61.0902 79.4309H61.1005C74.272 79.4309 84.9944 68.795 85 55.7243C85.0023 49.3898 82.5182 43.4331 78.0062 38.9522C73.4937 34.4718 67.4937 32.0026 61.1005 32C47.9267 32 37.2059 42.6344 37.2006 55.7053ZM44.7456 66.938L44.2726 66.1929C42.2839 63.0554 41.2343 59.4298 41.2358 55.7068C41.2401 44.8426 50.1509 36.0037 61.108 36.0037C66.4143 36.006 71.401 38.0584 75.1517 41.7823C78.9023 45.5066 80.9661 50.4573 80.9648 55.7228C80.9599 66.587 72.049 75.427 61.1005 75.427H61.0926C57.5277 75.4251 54.0314 74.4752 50.9823 72.68L50.2566 72.253L42.7382 74.2089L44.7456 66.9379V66.938Z" fill="white"/>
</g>
<path d="M55.1271 45.7949C54.6797 44.8083 54.2089 44.7884 53.7835 44.7711C53.4351 44.7562 53.0369 44.7573 52.639 44.7573C52.2407 44.7573 51.5937 44.906 51.0467 45.4986C50.4992 46.0917 48.9565 47.525 48.9565 50.4401C48.9565 53.3555 51.0964 56.1728 51.3947 56.5685C51.6934 56.9635 55.5259 63.1372 61.5957 65.5123C66.6402 67.4861 67.6667 67.0935 68.7616 66.9946C69.8566 66.8959 72.2948 65.5616 72.7922 64.178C73.2901 62.7946 73.2901 61.6087 73.1408 61.3609C72.9916 61.114 72.5933 60.9657 71.9961 60.6695C71.3987 60.3732 68.4629 58.9397 67.9156 58.7419C67.3681 58.5443 66.97 58.4457 66.5717 59.039C66.1735 59.6314 65.0299 60.9657 64.6814 61.3609C64.3332 61.757 63.9846 61.8063 63.3876 61.5099C62.7901 61.2126 60.8669 60.5877 58.5852 58.5692C56.8099 56.9986 55.6114 55.0591 55.2631 54.4658C54.9147 53.8734 55.2257 53.5523 55.5252 53.2571C55.7935 52.9916 56.1226 52.5652 56.4214 52.2193C56.7192 51.8733 56.8186 51.6264 57.0177 51.2312C57.217 50.8357 57.1172 50.4896 56.9682 50.1933C56.8186 49.8969 55.6581 46.9665 55.1271 45.7949Z" fill="white"/>
</g>
<path d="M98.3129 62C98.0143 62 97.7476 61.9093 97.5129 61.728C97.2783 61.536 97.1609 61.3013 97.1609 61.024V51.776C97.1609 51.4987 97.2516 51.2693 97.4329 51.088C97.6249 50.896 97.8596 50.8 98.1369 50.8H102.745C103.3 50.8 103.817 50.9493 104.297 51.248C104.788 51.536 105.182 51.9413 105.481 52.464C105.78 52.976 105.929 53.568 105.929 54.24C105.929 54.6453 105.844 55.04 105.673 55.424C105.513 55.808 105.289 56.1547 105.001 56.464C104.724 56.7733 104.409 57.0133 104.057 57.184L104.073 56.816C104.372 56.976 104.617 57.168 104.809 57.392C105.012 57.6053 105.166 57.84 105.273 58.096C105.39 58.3413 105.46 58.608 105.481 58.896C105.524 59.1627 105.55 59.3973 105.561 59.6C105.582 59.8027 105.614 59.9733 105.657 60.112C105.71 60.2507 105.806 60.3573 105.945 60.432C106.18 60.5707 106.324 60.7733 106.377 61.04C106.441 61.296 106.382 61.5253 106.201 61.728C106.084 61.8667 105.934 61.9573 105.753 62C105.572 62.032 105.39 62.032 105.209 62C105.028 61.9573 104.878 61.904 104.761 61.84C104.58 61.7333 104.398 61.5787 104.217 61.376C104.036 61.1627 103.886 60.88 103.769 60.528C103.662 60.176 103.609 59.7227 103.609 59.168C103.609 58.9867 103.577 58.8213 103.513 58.672C103.449 58.512 103.358 58.3787 103.241 58.272C103.124 58.1547 102.974 58.0693 102.793 58.016C102.612 57.952 102.398 57.92 102.153 57.92H98.9209L99.1609 57.552V61.024C99.1609 61.3013 99.0863 61.536 98.9369 61.728C98.7876 61.9093 98.5796 62 98.3129 62ZM98.9369 56.272H102.665C102.857 56.272 103.044 56.1867 103.225 56.016C103.406 55.8347 103.556 55.5947 103.673 55.296C103.79 54.9867 103.849 54.6507 103.849 54.288C103.849 53.8187 103.721 53.4293 103.465 53.12C103.22 52.8 102.953 52.64 102.665 52.64H98.9689L99.1609 52.128V56.656L98.9369 56.272ZM111.939 62.16C111.033 62.16 110.243 61.9733 109.571 61.6C108.91 61.216 108.398 60.6987 108.035 60.048C107.683 59.3973 107.507 58.6613 107.507 57.84C107.507 56.88 107.699 56.064 108.083 55.392C108.478 54.7093 108.99 54.1867 109.619 53.824C110.249 53.4613 110.915 53.28 111.619 53.28C112.163 53.28 112.675 53.392 113.155 53.616C113.646 53.84 114.078 54.1493 114.451 54.544C114.825 54.928 115.118 55.376 115.331 55.888C115.555 56.4 115.667 56.944 115.667 57.52C115.657 57.776 115.555 57.984 115.363 58.144C115.171 58.304 114.947 58.384 114.691 58.384H108.579L108.099 56.784H113.971L113.619 57.104V56.672C113.598 56.3627 113.486 56.0853 113.283 55.84C113.091 55.5947 112.846 55.4027 112.547 55.264C112.259 55.1147 111.95 55.04 111.619 55.04C111.299 55.04 111.001 55.0827 110.723 55.168C110.446 55.2533 110.206 55.3973 110.003 55.6C109.801 55.8027 109.641 56.0747 109.523 56.416C109.406 56.7573 109.347 57.1893 109.347 57.712C109.347 58.288 109.465 58.7787 109.699 59.184C109.945 59.5787 110.254 59.8827 110.627 60.096C111.011 60.2987 111.417 60.4 111.843 60.4C112.238 60.4 112.553 60.368 112.787 60.304C113.022 60.24 113.209 60.1653 113.347 60.08C113.497 59.984 113.63 59.904 113.747 59.84C113.939 59.744 114.121 59.696 114.291 59.696C114.526 59.696 114.718 59.776 114.867 59.936C115.027 60.096 115.107 60.2827 115.107 60.496C115.107 60.784 114.958 61.0453 114.659 61.28C114.382 61.5147 113.993 61.7227 113.491 61.904C112.99 62.0747 112.473 62.16 111.939 62.16ZM121.153 53.28C121.761 53.28 122.289 53.344 122.737 53.472C123.195 53.6 123.547 53.7813 123.793 54.016C124.049 54.24 124.177 54.512 124.177 54.832C124.177 55.0453 124.113 55.248 123.985 55.44C123.857 55.6213 123.67 55.712 123.425 55.712C123.254 55.712 123.11 55.6907 122.993 55.648C122.886 55.5947 122.79 55.5307 122.705 55.456C122.619 55.3813 122.518 55.312 122.401 55.248C122.294 55.184 122.129 55.136 121.905 55.104C121.691 55.0613 121.531 55.04 121.425 55.04C120.881 55.04 120.417 55.1573 120.033 55.392C119.659 55.6267 119.371 55.9467 119.169 56.352C118.966 56.7467 118.865 57.2053 118.865 57.728C118.865 58.24 118.966 58.6987 119.169 59.104C119.382 59.4987 119.67 59.8133 120.033 60.048C120.406 60.2827 120.833 60.4 121.313 60.4C121.579 60.4 121.809 60.384 122.001 60.352C122.193 60.32 122.353 60.272 122.481 60.208C122.63 60.1227 122.763 60.032 122.881 59.936C122.998 59.84 123.174 59.792 123.409 59.792C123.686 59.792 123.899 59.8827 124.049 60.064C124.198 60.2347 124.273 60.448 124.273 60.704C124.273 60.9707 124.123 61.216 123.825 61.44C123.526 61.6533 123.131 61.8293 122.641 61.968C122.161 62.096 121.638 62.16 121.073 62.16C120.23 62.16 119.499 61.968 118.881 61.584C118.262 61.1893 117.782 60.656 117.441 59.984C117.11 59.312 116.945 58.56 116.945 57.728C116.945 56.8533 117.121 56.0853 117.473 55.424C117.835 54.752 118.331 54.2293 118.961 53.856C119.601 53.472 120.331 53.28 121.153 53.28ZM127.465 61.024C127.465 61.3013 127.375 61.536 127.193 61.728C127.012 61.9093 126.783 62 126.505 62C126.228 62 125.999 61.9093 125.817 61.728C125.636 61.536 125.545 61.3013 125.545 61.024V54.416C125.545 54.1387 125.636 53.9093 125.817 53.728C125.999 53.536 126.228 53.44 126.505 53.44C126.783 53.44 127.012 53.536 127.193 53.728C127.375 53.9093 127.465 54.1387 127.465 54.416V61.024ZM126.489 52.4C126.127 52.4 125.871 52.3413 125.721 52.224C125.572 52.1067 125.497 51.8987 125.497 51.6V51.296C125.497 50.9867 125.577 50.7787 125.737 50.672C125.908 50.5547 126.164 50.496 126.505 50.496C126.879 50.496 127.14 50.5547 127.289 50.672C127.439 50.7893 127.513 50.9973 127.513 51.296V51.6C127.513 51.9093 127.433 52.1227 127.273 52.24C127.113 52.3467 126.852 52.4 126.489 52.4ZM133.87 53.28C134.617 53.28 135.284 53.472 135.87 53.856C136.468 54.2293 136.937 54.7467 137.278 55.408C137.63 56.0693 137.806 56.8373 137.806 57.712C137.806 58.5867 137.63 59.36 137.278 60.032C136.937 60.6933 136.473 61.216 135.886 61.6C135.31 61.9733 134.66 62.16 133.934 62.16C133.508 62.16 133.108 62.0907 132.734 61.952C132.361 61.8133 132.03 61.6373 131.742 61.424C131.465 61.2107 131.246 60.9973 131.086 60.784C130.937 60.56 130.862 60.3733 130.862 60.224L131.358 60.016V61.184C131.358 61.4613 131.268 61.696 131.086 61.888C130.905 62.0693 130.676 62.16 130.398 62.16C130.121 62.16 129.892 62.0693 129.71 61.888C129.529 61.7067 129.438 61.472 129.438 61.184V51.136C129.438 50.8587 129.529 50.6293 129.71 50.448C129.892 50.256 130.121 50.16 130.398 50.16C130.676 50.16 130.905 50.256 131.086 50.448C131.268 50.6293 131.358 50.8587 131.358 51.136V55.2L131.086 55.056C131.086 54.9173 131.161 54.752 131.31 54.56C131.46 54.3573 131.662 54.16 131.918 53.968C132.174 53.7653 132.468 53.6 132.798 53.472C133.14 53.344 133.497 53.28 133.87 53.28ZM133.63 55.04C133.161 55.04 132.75 55.1573 132.398 55.392C132.046 55.6267 131.769 55.9467 131.566 56.352C131.374 56.7467 131.278 57.2 131.278 57.712C131.278 58.2133 131.374 58.672 131.566 59.088C131.769 59.4933 132.046 59.8133 132.398 60.048C132.75 60.2827 133.161 60.4 133.63 60.4C134.1 60.4 134.505 60.2827 134.846 60.048C135.198 59.8133 135.47 59.4933 135.662 59.088C135.865 58.672 135.966 58.2133 135.966 57.712C135.966 57.2 135.865 56.7467 135.662 56.352C135.47 55.9467 135.198 55.6267 134.846 55.392C134.505 55.1573 134.1 55.04 133.63 55.04ZM143.517 62.16C142.611 62.16 141.821 61.9733 141.149 61.6C140.488 61.216 139.976 60.6987 139.613 60.048C139.261 59.3973 139.085 58.6613 139.085 57.84C139.085 56.88 139.277 56.064 139.661 55.392C140.056 54.7093 140.568 54.1867 141.197 53.824C141.827 53.4613 142.493 53.28 143.197 53.28C143.741 53.28 144.253 53.392 144.733 53.616C145.224 53.84 145.656 54.1493 146.029 54.544C146.403 54.928 146.696 55.376 146.909 55.888C147.133 56.4 147.245 56.944 147.245 57.52C147.235 57.776 147.133 57.984 146.941 58.144C146.749 58.304 146.525 58.384 146.269 58.384H140.157L139.677 56.784H145.549L145.197 57.104V56.672C145.176 56.3627 145.064 56.0853 144.861 55.84C144.669 55.5947 144.424 55.4027 144.125 55.264C143.837 55.1147 143.528 55.04 143.197 55.04C142.877 55.04 142.579 55.0827 142.301 55.168C142.024 55.2533 141.784 55.3973 141.581 55.6C141.379 55.8027 141.219 56.0747 141.101 56.416C140.984 56.7573 140.925 57.1893 140.925 57.712C140.925 58.288 141.043 58.7787 141.277 59.184C141.523 59.5787 141.832 59.8827 142.205 60.096C142.589 60.2987 142.995 60.4 143.421 60.4C143.816 60.4 144.131 60.368 144.365 60.304C144.6 60.24 144.787 60.1653 144.925 60.08C145.075 59.984 145.208 59.904 145.325 59.84C145.517 59.744 145.699 59.696 145.869 59.696C146.104 59.696 146.296 59.776 146.445 59.936C146.605 60.096 146.685 60.2827 146.685 60.496C146.685 60.784 146.536 61.0453 146.237 61.28C145.96 61.5147 145.571 61.7227 145.069 61.904C144.568 62.0747 144.051 62.16 143.517 62.16ZM160.415 53.28C160.693 53.28 160.922 53.3707 161.103 53.552C161.285 53.7333 161.375 53.968 161.375 54.256V61.024C161.375 61.3013 161.285 61.536 161.103 61.728C160.922 61.9093 160.693 62 160.415 62C160.138 62 159.909 61.9093 159.727 61.728C159.546 61.536 159.455 61.3013 159.455 61.024V60.24L159.807 60.384C159.807 60.5227 159.733 60.6933 159.583 60.896C159.434 61.088 159.231 61.28 158.975 61.472C158.719 61.664 158.415 61.8293 158.063 61.968C157.722 62.096 157.349 62.16 156.943 62.16C156.207 62.16 155.541 61.9733 154.943 61.6C154.346 61.216 153.871 60.6933 153.519 60.032C153.178 59.36 153.007 58.592 153.007 57.728C153.007 56.8533 153.178 56.0853 153.519 55.424C153.871 54.752 154.341 54.2293 154.927 53.856C155.514 53.472 156.165 53.28 156.879 53.28C157.338 53.28 157.759 53.3493 158.143 53.488C158.527 53.6267 158.858 53.8027 159.135 54.016C159.423 54.2293 159.642 54.448 159.791 54.672C159.951 54.8853 160.031 55.0667 160.031 55.216L159.455 55.424V54.256C159.455 53.9787 159.546 53.7493 159.727 53.568C159.909 53.376 160.138 53.28 160.415 53.28ZM157.183 60.4C157.653 60.4 158.063 60.2827 158.415 60.048C158.767 59.8133 159.039 59.4933 159.231 59.088C159.434 58.6827 159.535 58.2293 159.535 57.728C159.535 57.216 159.434 56.7573 159.231 56.352C159.039 55.9467 158.767 55.6267 158.415 55.392C158.063 55.1573 157.653 55.04 157.183 55.04C156.725 55.04 156.319 55.1573 155.967 55.392C155.615 55.6267 155.338 55.9467 155.135 56.352C154.943 56.7573 154.847 57.216 154.847 57.728C154.847 58.2293 154.943 58.6827 155.135 59.088C155.338 59.4933 155.615 59.8133 155.967 60.048C156.319 60.2827 156.725 60.4 157.183 60.4ZM162.958 60.672C162.851 60.5227 162.803 60.3307 162.814 60.096C162.825 59.8613 162.963 59.6587 163.23 59.488C163.401 59.3813 163.582 59.3387 163.774 59.36C163.966 59.3707 164.153 59.4667 164.334 59.648C164.643 59.9573 164.969 60.1973 165.31 60.368C165.651 60.5387 166.078 60.624 166.59 60.624C166.75 60.6133 166.926 60.592 167.118 60.56C167.31 60.5173 167.475 60.432 167.614 60.304C167.763 60.1653 167.838 59.9573 167.838 59.68C167.838 59.4453 167.758 59.2587 167.598 59.12C167.438 58.9813 167.225 58.864 166.958 58.768C166.702 58.672 166.414 58.5813 166.094 58.496C165.763 58.4 165.422 58.2933 165.07 58.176C164.729 58.0587 164.414 57.9093 164.126 57.728C163.838 57.536 163.603 57.2853 163.422 56.976C163.241 56.6667 163.15 56.2773 163.15 55.808C163.15 55.2747 163.299 54.8213 163.598 54.448C163.897 54.0747 164.281 53.7867 164.75 53.584C165.23 53.3813 165.731 53.28 166.254 53.28C166.585 53.28 166.931 53.3227 167.294 53.408C167.657 53.4827 168.003 53.6107 168.334 53.792C168.665 53.9627 168.942 54.192 169.166 54.48C169.283 54.64 169.353 54.832 169.374 55.056C169.395 55.28 169.294 55.4827 169.07 55.664C168.91 55.792 168.723 55.8507 168.51 55.84C168.297 55.8187 168.121 55.744 167.982 55.616C167.801 55.3813 167.555 55.1947 167.246 55.056C166.947 54.9173 166.601 54.848 166.206 54.848C166.046 54.848 165.87 54.8693 165.678 54.912C165.497 54.944 165.337 55.024 165.198 55.152C165.059 55.2693 164.99 55.4613 164.99 55.728C164.99 55.9733 165.07 56.1707 165.23 56.32C165.39 56.4587 165.603 56.576 165.87 56.672C166.147 56.7573 166.441 56.8427 166.75 56.928C167.07 57.0133 167.395 57.1147 167.726 57.232C168.057 57.3493 168.361 57.504 168.638 57.696C168.915 57.888 169.139 58.1387 169.31 58.448C169.481 58.7467 169.566 59.1307 169.566 59.6C169.566 60.144 169.406 60.608 169.086 60.992C168.766 61.376 168.366 61.6693 167.886 61.872C167.406 62.064 166.915 62.16 166.414 62.16C165.785 62.16 165.155 62.0533 164.526 61.84C163.897 61.616 163.374 61.2267 162.958 60.672ZM175.205 62.16C174.298 62.16 173.509 61.9733 172.837 61.6C172.175 61.216 171.663 60.6987 171.301 60.048C170.949 59.3973 170.773 58.6613 170.773 57.84C170.773 56.88 170.965 56.064 171.349 55.392C171.743 54.7093 172.255 54.1867 172.885 53.824C173.514 53.4613 174.181 53.28 174.885 53.28C175.429 53.28 175.941 53.392 176.421 53.616C176.911 53.84 177.343 54.1493 177.717 54.544C178.09 54.928 178.383 55.376 178.597 55.888C178.821 56.4 178.933 56.944 178.933 57.52C178.922 57.776 178.821 57.984 178.629 58.144C178.437 58.304 178.213 58.384 177.957 58.384H171.845L171.365 56.784H177.237L176.885 57.104V56.672C176.863 56.3627 176.751 56.0853 176.549 55.84C176.357 55.5947 176.111 55.4027 175.813 55.264C175.525 55.1147 175.215 55.04 174.885 55.04C174.565 55.04 174.266 55.0827 173.989 55.168C173.711 55.2533 173.471 55.3973 173.269 55.6C173.066 55.8027 172.906 56.0747 172.789 56.416C172.671 56.7573 172.613 57.1893 172.613 57.712C172.613 58.288 172.73 58.7787 172.965 59.184C173.21 59.5787 173.519 59.8827 173.893 60.096C174.277 60.2987 174.682 60.4 175.109 60.4C175.503 60.4 175.818 60.368 176.053 60.304C176.287 60.24 176.474 60.1653 176.613 60.08C176.762 59.984 176.895 59.904 177.013 59.84C177.205 59.744 177.386 59.696 177.557 59.696C177.791 59.696 177.983 59.776 178.133 59.936C178.293 60.096 178.373 60.2827 178.373 60.496C178.373 60.784 178.223 61.0453 177.925 61.28C177.647 61.5147 177.258 61.7227 176.757 61.904C176.255 62.0747 175.738 62.16 175.205 62.16ZM180.114 60.672C180.008 60.5227 179.96 60.3307 179.97 60.096C179.981 59.8613 180.12 59.6587 180.386 59.488C180.557 59.3813 180.738 59.3387 180.93 59.36C181.122 59.3707 181.309 59.4667 181.49 59.648C181.8 59.9573 182.125 60.1973 182.466 60.368C182.808 60.5387 183.234 60.624 183.746 60.624C183.906 60.6133 184.082 60.592 184.274 60.56C184.466 60.5173 184.632 60.432 184.77 60.304C184.92 60.1653 184.994 59.9573 184.994 59.68C184.994 59.4453 184.914 59.2587 184.754 59.12C184.594 58.9813 184.381 58.864 184.114 58.768C183.858 58.672 183.57 58.5813 183.25 58.496C182.92 58.4 182.578 58.2933 182.226 58.176C181.885 58.0587 181.57 57.9093 181.282 57.728C180.994 57.536 180.76 57.2853 180.578 56.976C180.397 56.6667 180.306 56.2773 180.306 55.808C180.306 55.2747 180.456 54.8213 180.754 54.448C181.053 54.0747 181.437 53.7867 181.906 53.584C182.386 53.3813 182.888 53.28 183.41 53.28C183.741 53.28 184.088 53.3227 184.45 53.408C184.813 53.4827 185.16 53.6107 185.49 53.792C185.821 53.9627 186.098 54.192 186.322 54.48C186.44 54.64 186.509 54.832 186.53 55.056C186.552 55.28 186.45 55.4827 186.226 55.664C186.066 55.792 185.88 55.8507 185.666 55.84C185.453 55.8187 185.277 55.744 185.138 55.616C184.957 55.3813 184.712 55.1947 184.402 55.056C184.104 54.9173 183.757 54.848 183.362 54.848C183.202 54.848 183.026 54.8693 182.834 54.912C182.653 54.944 182.493 55.024 182.354 55.152C182.216 55.2693 182.146 55.4613 182.146 55.728C182.146 55.9733 182.226 56.1707 182.386 56.32C182.546 56.4587 182.76 56.576 183.026 56.672C183.304 56.7573 183.597 56.8427 183.906 56.928C184.226 57.0133 184.552 57.1147 184.882 57.232C185.213 57.3493 185.517 57.504 185.794 57.696C186.072 57.888 186.296 58.1387 186.466 58.448C186.637 58.7467 186.722 59.1307 186.722 59.6C186.722 60.144 186.562 60.608 186.242 60.992C185.922 61.376 185.522 61.6693 185.042 61.872C184.562 62.064 184.072 62.16 183.57 62.16C182.941 62.16 182.312 62.0533 181.682 61.84C181.053 61.616 180.53 61.2267 180.114 60.672ZM196.633 57.728C196.633 58.6027 196.436 59.376 196.041 60.048C195.657 60.7093 195.134 61.2267 194.473 61.6C193.822 61.9733 193.092 62.16 192.281 62.16C191.47 62.16 190.734 61.9733 190.073 61.6C189.422 61.2267 188.9 60.7093 188.505 60.048C188.121 59.376 187.929 58.6027 187.929 57.728C187.929 56.8533 188.121 56.0853 188.505 55.424C188.9 54.752 189.422 54.2293 190.073 53.856C190.734 53.472 191.47 53.28 192.281 53.28C193.092 53.28 193.822 53.472 194.473 53.856C195.134 54.2293 195.657 54.752 196.041 55.424C196.436 56.0853 196.633 56.8533 196.633 57.728ZM194.713 57.728C194.713 57.184 194.601 56.7147 194.377 56.32C194.164 55.9147 193.87 55.6 193.497 55.376C193.134 55.152 192.729 55.04 192.281 55.04C191.833 55.04 191.422 55.152 191.049 55.376C190.686 55.6 190.393 55.9147 190.169 56.32C189.956 56.7147 189.849 57.184 189.849 57.728C189.849 58.2613 189.956 58.7307 190.169 59.136C190.393 59.5307 190.686 59.84 191.049 60.064C191.422 60.288 191.833 60.4 192.281 60.4C192.729 60.4 193.134 60.288 193.497 60.064C193.87 59.84 194.164 59.5307 194.377 59.136C194.601 58.7307 194.713 58.2613 194.713 57.728ZM199.273 62C198.996 62 198.767 61.9093 198.585 61.728C198.404 61.536 198.313 61.3013 198.313 61.024V54.416C198.313 54.1387 198.404 53.9093 198.585 53.728C198.767 53.536 198.996 53.44 199.273 53.44C199.551 53.44 199.78 53.536 199.961 53.728C200.143 53.9093 200.233 54.1387 200.233 54.416V55.92L200.121 54.848C200.239 54.592 200.388 54.368 200.569 54.176C200.761 53.9733 200.975 53.808 201.209 53.68C201.444 53.5413 201.695 53.44 201.961 53.376C202.228 53.312 202.495 53.28 202.761 53.28C203.081 53.28 203.348 53.3707 203.561 53.552C203.785 53.7333 203.897 53.9467 203.897 54.192C203.897 54.544 203.807 54.8 203.625 54.96C203.444 55.1093 203.247 55.184 203.033 55.184C202.831 55.184 202.644 55.1467 202.473 55.072C202.313 54.9973 202.127 54.96 201.913 54.96C201.721 54.96 201.524 55.008 201.321 55.104C201.129 55.1893 200.948 55.328 200.777 55.52C200.617 55.712 200.484 55.952 200.377 56.24C200.281 56.5173 200.233 56.848 200.233 57.232V61.024C200.233 61.3013 200.143 61.536 199.961 61.728C199.78 61.9093 199.551 62 199.273 62ZM207.059 61.024C207.059 61.3013 206.968 61.536 206.787 61.728C206.606 61.9093 206.376 62 206.099 62C205.822 62 205.592 61.9093 205.411 61.728C205.23 61.536 205.139 61.3013 205.139 61.024V54.416C205.139 54.1387 205.23 53.9093 205.411 53.728C205.592 53.536 205.822 53.44 206.099 53.44C206.376 53.44 206.606 53.536 206.787 53.728C206.968 53.9093 207.059 54.1387 207.059 54.416V61.024ZM206.179 52.896C206.094 52.896 205.982 52.8533 205.843 52.768C205.715 52.672 205.656 52.5387 205.667 52.368C205.667 52.272 205.699 52.1707 205.763 52.064L206.691 50.432C206.787 50.2613 206.91 50.112 207.059 49.984C207.208 49.856 207.379 49.792 207.571 49.792C207.87 49.792 208.088 49.872 208.227 50.032C208.366 50.1813 208.43 50.368 208.419 50.592C208.408 50.6987 208.376 50.8107 208.323 50.928C208.28 51.0453 208.211 51.1627 208.115 51.28L206.899 52.624C206.792 52.7413 206.675 52.816 206.547 52.848C206.419 52.88 206.296 52.896 206.179 52.896ZM216.04 53.28C216.318 53.28 216.547 53.3707 216.728 53.552C216.91 53.7333 217 53.968 217 54.256V61.024C217 61.3013 216.91 61.536 216.728 61.728C216.547 61.9093 216.318 62 216.04 62C215.763 62 215.534 61.9093 215.352 61.728C215.171 61.536 215.08 61.3013 215.08 61.024V60.24L215.432 60.384C215.432 60.5227 215.358 60.6933 215.208 60.896C215.059 61.088 214.856 61.28 214.6 61.472C214.344 61.664 214.04 61.8293 213.688 61.968C213.347 62.096 212.974 62.16 212.568 62.16C211.832 62.16 211.166 61.9733 210.568 61.6C209.971 61.216 209.496 60.6933 209.144 60.032C208.803 59.36 208.632 58.592 208.632 57.728C208.632 56.8533 208.803 56.0853 209.144 55.424C209.496 54.752 209.966 54.2293 210.552 53.856C211.139 53.472 211.79 53.28 212.504 53.28C212.963 53.28 213.384 53.3493 213.768 53.488C214.152 53.6267 214.483 53.8027 214.76 54.016C215.048 54.2293 215.267 54.448 215.416 54.672C215.576 54.8853 215.656 55.0667 215.656 55.216L215.08 55.424V54.256C215.08 53.9787 215.171 53.7493 215.352 53.568C215.534 53.376 215.763 53.28 216.04 53.28ZM212.808 60.4C213.278 60.4 213.688 60.2827 214.04 60.048C214.392 59.8133 214.664 59.4933 214.856 59.088C215.059 58.6827 215.16 58.2293 215.16 57.728C215.16 57.216 215.059 56.7573 214.856 56.352C214.664 55.9467 214.392 55.6267 214.04 55.392C213.688 55.1573 213.278 55.04 212.808 55.04C212.35 55.04 211.944 55.1573 211.592 55.392C211.24 55.6267 210.963 55.9467 210.76 56.352C210.568 56.7573 210.472 57.216 210.472 57.728C210.472 58.2293 210.568 58.6827 210.76 59.088C210.963 59.4933 211.24 59.8133 211.592 60.048C211.944 60.2827 212.35 60.4 212.808 60.4Z" fill="#2E3192"/>
</g>
<defs>
<filter id="filter0_d_496_12130" x="0" y="0" width="266" height="120" filterUnits="userSpaceOnUse" color-interpolation-filters="sRGB">
<feFlood flood-opacity="0" result="BackgroundImageFix"/>
<feColorMatrix in="SourceAlpha" type="matrix" values="0 0 0 0 0 0 0 0 0 0 0 0 0 0 0 0 0 0 127 0" result="hardAlpha"/>
<feOffset dy="4"/>
<feGaussianBlur stdDeviation="12.5"/>
<feComposite in2="hardAlpha" operator="out"/>
<feColorMatrix type="matrix" values="0 0 0 0 0 0 0 0 0 0 0 0 0 0 0 0 0 0 0.12 0"/>
<feBlend mode="normal" in2="BackgroundImageFix" result="effect1_dropShadow_496_12130"/>
<feBlend mode="normal" in="SourceGraphic" in2="effect1_dropShadow_496_12130" result="shape"/>
</filter>
<filter id="filter1_d_496_12130" x="35" y="31" width="52" height="51.8413" filterUnits="userSpaceOnUse" color-interpolation-filters="sRGB">
<feFlood flood-opacity="0" result="BackgroundImageFix"/>
<feColorMatrix in="SourceAlpha" type="matrix" values="0 0 0 0 0 0 0 0 0 0 0 0 0 0 0 0 0 0 127 0" result="hardAlpha"/>
<feOffset dy="1"/>
<feGaussianBlur stdDeviation="1"/>
<feComposite in2="hardAlpha" operator="out"/>
<feColorMatrix type="matrix" values="0 0 0 0 0 0 0 0 0 0 0 0 0 0 0 0 0 0 0.16 0"/>
<feBlend mode="normal" in2="BackgroundImageFix" result="effect1_dropShadow_496_12130"/>
<feBlend mode="normal" in="SourceGraphic" in2="effect1_dropShadow_496_12130" result="shape"/>
</filter>
<linearGradient id="paint0_linear_496_12130" x1="2354.7" y1="4651.34" x2="2354.7" y2="32.8282" gradientUnits="userSpaceOnUse">
<stop stop-color="#1FAF38"/>
<stop offset="1" stop-color="#60D669"/>
</linearGradient>
<clipPath id="clip0_496_12130">
<rect width="48" height="48" fill="white" transform="translate(37 32)"/>
</clipPath>
</defs>
</svg>
