<svg width="108" height="42" viewBox="0 0 108 42" fill="none" xmlns="http://www.w3.org/2000/svg">
<g clip-path="url(#clip0_46_172)">
<g filter="url(#filter0_d_46_172)">
<path d="M0 4C0 1.79086 1.79086 0 4 0H104C106.209 0 108 1.79086 108 4V36H4C1.79086 36 0 34.2091 0 32V4Z" fill="#F2F6FB"/>
<g clip-path="url(#clip1_46_172)">
<path d="M8 22.1595C8.12031 21.9903 8.16114 21.7804 8.29458 21.6142C8.59062 21.244 8.97781 21.0726 9.43281 21.0719C10.8722 21.0696 12.3116 21.0674 13.7509 21.0904C14.5268 21.1023 15.1859 21.451 15.8159 21.8939C17.3027 22.9385 18.7763 24.0046 20.3295 24.9468C21.0193 25.3653 21.7601 25.3534 22.5068 25.067C23.2797 24.771 23.7923 24.216 24.1518 23.4741C24.6148 22.5193 25.7756 22.1669 26.717 22.6922C27.2536 22.9919 27.8173 23.2508 28.4291 23.3117C28.771 23.3458 29.124 23.2375 29.4484 23.0973C29.8786 22.9118 30.2345 22.6343 30.5349 22.2597C31.2006 21.4302 32.0902 21.0696 33.1315 21.0674C33.5325 21.0667 33.9335 21.0748 34.3339 21.0659C35.1615 21.0466 35.7346 21.3998 35.9993 22.2159V30.4347C35.9701 30.4562 35.9249 30.4718 35.9154 30.4999C35.6551 31.27 35.0871 31.5023 34.3353 31.5015C26.7469 31.4941 19.1592 31.4971 11.5707 31.4971C10.8328 31.4971 10.0949 31.4911 9.35698 31.4971C9.08354 31.4993 8.85312 31.3999 8.62052 31.2671C8.28875 31.0779 8.16989 30.7396 7.99927 30.4347V22.1602L8 22.1595ZM9.97166 22.046C9.78937 22.0467 9.60708 22.0475 9.42552 22.0482C9.09666 22.0504 8.93479 22.1973 8.93406 22.5334C8.93041 25.0492 8.93187 27.5657 8.93406 30.0815C8.93406 30.356 9.11781 30.5378 9.39271 30.5459C9.58375 30.5519 9.77479 30.5437 9.96656 30.5422C9.99354 30.5437 10.0212 30.5467 10.0482 30.5467C18.1952 30.5445 26.3415 30.543 34.4884 30.54C34.8902 30.54 35.0645 30.3582 35.0652 29.942C35.0659 28.0635 35.0652 26.1851 35.0652 24.3066C35.0652 23.7331 35.0689 23.1588 35.0637 22.5853C35.0601 22.1996 34.9092 22.0534 34.5293 22.0512C34.0188 22.0475 33.5084 22.0556 32.9987 22.04C32.4716 22.0237 32.0253 22.2129 31.6068 22.5201C31.3056 22.7411 31.1175 23.0646 30.8506 23.3169C30.0296 24.0921 29.0365 24.3429 27.9704 24.1901C27.3958 24.1077 26.8395 23.8488 26.3276 23.5372C25.9448 23.3042 25.5459 23.3317 25.212 23.6173C25.0494 23.7561 24.9509 23.946 24.8569 24.1374C23.9367 26.0122 21.5063 26.881 19.5638 25.5975C18.0771 24.6144 16.6187 23.5877 15.1502 22.5764C14.7462 22.2982 14.3328 22.049 13.8268 22.0475C12.542 22.0438 11.2572 22.0475 9.97239 22.0475L9.97166 22.046Z" fill="#2E3192"/>
<path d="M13.3586 5.4445C13.0808 5.40815 12.8467 5.53204 12.6156 5.66039C11.6954 6.17156 10.7766 6.68348 9.85714 7.19539C9.44589 7.42463 9.27891 7.93432 9.46995 8.36907C9.5137 8.46923 9.56766 8.56197 9.59537 8.67325C9.66829 8.96408 9.60412 9.11617 9.32776 9.23413C9.09079 9.33503 8.89245 9.26455 8.75829 9.03011C8.1662 8.00183 8.44693 6.91198 9.46776 6.33404C10.423 5.79319 11.3898 5.27386 12.3465 4.73524C13.2689 4.21591 14.4837 4.57722 14.9759 5.59288C15.6795 7.04404 16.4072 8.48258 17.1335 9.92261C17.8196 11.2825 18.5218 12.6343 19.2043 13.9957C19.3917 14.3696 19.7053 14.558 20.0706 14.6485C21.7251 15.0573 23.2986 15.6686 24.7817 16.5189C26.3684 17.4277 27.9412 18.358 29.4725 19.364C30.3489 19.9405 30.2935 21.5712 29.3259 22.1098C28.7812 22.4133 28.262 22.3828 27.7268 22.1239C26.9612 21.7537 26.2007 21.3739 25.43 21.0155C24.6002 20.6297 23.7623 20.2625 22.9275 19.8893C22.4156 19.6601 21.903 19.4338 21.3904 19.2075C21.2744 19.1563 21.1585 19.1036 21.0382 19.0643C20.8639 19.0072 20.7268 19.0799 20.6532 19.2364C20.5846 19.3826 20.6576 19.4954 20.7859 19.5844C21.405 20.014 22.0284 20.4383 22.6372 20.8835C23.2796 21.3523 23.4678 22.0334 23.3475 22.7827C23.2169 23.6003 22.6664 24.0499 21.9015 24.2702C21.3619 24.426 20.8902 24.245 20.4709 23.9534C18.8973 22.8621 17.2837 21.8301 15.7495 20.6817C15.0371 20.1482 14.6376 19.4256 14.6164 18.5064C14.596 17.6109 14.2963 16.8164 13.8048 16.0722C12.9328 14.7531 11.9506 13.5179 11.0165 12.247C10.8401 12.0066 10.8452 11.7254 11.0537 11.5348C11.2404 11.3641 11.535 11.3894 11.718 11.629C12.3429 12.4466 12.959 13.2716 13.5715 14.0995C14.1454 14.8755 14.717 15.6553 15.1276 16.5396C15.3397 16.9966 15.455 17.4789 15.5009 17.9856C15.5497 18.5264 15.5432 19.0895 15.9223 19.5443C16.225 19.9071 16.6107 20.1631 16.9913 20.425C18.2885 21.3175 19.5893 22.2048 20.8851 23.101C21.1446 23.2805 21.4173 23.3644 21.7272 23.3243C22.0838 23.2457 22.3631 23.0461 22.4309 22.6796C22.5067 22.2664 22.4469 21.8643 22.0568 21.5972C21.5063 21.2195 20.9769 20.8048 20.4023 20.4702C19.7439 20.0859 19.4676 19.3655 19.9255 18.608C20.3076 18.0932 20.9587 17.9626 21.5617 18.2364C23.6858 19.2031 25.8456 20.0904 27.9259 21.155C27.9908 21.1884 28.0608 21.2092 28.1286 21.2359C28.5887 21.6328 29.2253 21.2106 29.183 20.632C29.1545 20.2417 28.9103 20.0948 28.6521 19.9286C27.1865 18.9849 25.6873 18.0969 24.17 17.2437C23.4561 16.8423 22.7204 16.4825 21.9394 16.228C21.1425 15.9083 20.3032 15.7221 19.4923 15.4468C19.2926 15.3793 19.1197 15.2673 18.9418 15.159C18.7923 14.9512 18.5751 14.8036 18.4555 14.5669C18.1733 14.0083 17.8721 13.46 17.5914 12.9006C16.4546 10.6385 15.3179 8.37649 14.1913 6.10924C14.0105 5.74497 13.772 5.49347 13.3608 5.44598L13.3586 5.4445Z" fill="#2E3192"/>
<path d="M13.3586 5.44447C13.7698 5.49195 14.0083 5.7442 14.1891 6.10773C15.3157 8.37498 16.4517 10.6378 17.5892 12.8991C17.8699 13.4585 18.1711 14.0067 18.4533 14.5654C18.5729 14.8021 18.7909 14.9497 18.9396 15.1574C18.2214 15.0773 17.6563 14.785 17.3129 14.0884C16.3897 12.2158 15.4433 10.3551 14.5056 8.48997C14.1009 7.68501 13.7013 6.87708 13.2879 6.07657C13.1639 5.83693 13.0217 5.61956 13.3579 5.44373L13.3586 5.44447Z" fill="#7DA6D7"/>
<path d="M19.9233 18.6072C19.4654 19.3647 19.7417 20.0851 20.4002 20.4694C20.9747 20.8047 21.5041 21.2195 22.0546 21.5964C22.444 21.8634 22.5045 22.2656 22.4287 22.6788C22.3609 23.0453 22.0809 23.2449 21.7251 23.3235C21.4757 23.1499 21.429 22.9555 21.4925 22.6276C21.631 21.9191 21.2613 21.4168 20.686 21.0429C20.1814 20.715 19.6841 20.3752 19.1905 20.0302C18.9046 19.8299 18.7085 19.5598 18.7865 19.1874C18.8565 18.8528 19.0826 18.6503 19.4129 18.5642C19.5908 18.5175 19.7527 18.602 19.9233 18.6065V18.6072Z" fill="#7DA6D7"/>
<path d="M21.9373 16.2272C22.7175 16.4817 23.4539 16.8415 24.1678 17.2428C25.6859 18.096 27.1843 18.9841 28.65 19.9278C28.9088 20.094 29.1524 20.2409 29.1808 20.6311C29.2231 21.2098 28.5865 21.6327 28.1264 21.235C28.394 20.4953 28.2387 19.9968 27.5788 19.5843C25.7953 18.4685 24.0176 17.3423 22.14 16.3926C22.0619 16.3533 21.9613 16.337 21.938 16.2264L21.9373 16.2272Z" fill="#7DA6D7"/>
<path d="M10.6796 10.3736C10.6818 10.6518 10.5148 10.8306 10.2509 10.8328C9.99495 10.8351 9.74412 10.5947 9.74922 10.3521C9.7536 10.1429 10.0088 9.88915 10.2122 9.89137C10.5097 9.89434 10.6767 10.0665 10.6789 10.3736H10.6796Z" fill="#2E3192"/>
<path d="M9.97166 22.046C11.2564 22.046 12.5412 22.0415 13.826 22.046C14.3321 22.0475 14.7462 22.2968 15.1495 22.575C16.618 23.5862 18.0763 24.613 19.5631 25.596C21.5056 26.8802 23.9359 26.0107 24.8561 24.1359C24.9502 23.9445 25.0486 23.7553 25.2112 23.6159C25.5452 23.3302 25.9441 23.3028 26.3269 23.5357C26.8395 23.8473 27.3951 24.1063 27.9697 24.1886C29.0357 24.3414 30.0288 24.0907 30.8499 23.3154C31.1168 23.0631 31.3049 22.7397 31.606 22.5186C32.0238 22.2114 32.4708 22.0223 32.998 22.0386C33.5077 22.0542 34.0181 22.046 34.5285 22.0497C34.9084 22.0519 35.0594 22.1981 35.063 22.5839C35.0681 23.1574 35.0645 23.7316 35.0645 24.3051C35.0645 26.1836 35.0645 28.0621 35.0645 29.9406C35.0645 30.356 34.8895 30.5385 34.4877 30.5385C26.3407 30.5415 18.1945 30.543 10.0475 30.5452C10.0205 30.5452 9.9928 30.5422 9.96582 30.5408C9.91916 30.3449 9.85718 30.1572 9.85718 29.9472C9.86301 27.5005 9.86228 25.0544 9.85864 22.6076C9.85864 22.4095 9.88562 22.2226 9.97093 22.0453L9.97166 22.046ZM22.4375 29.1393C22.4397 28.8485 22.2676 28.6586 22.0022 28.6571C21.7623 28.6556 21.5144 28.8871 21.5078 29.1185C21.5012 29.3604 21.755 29.6052 22.0087 29.6C22.2661 29.5948 22.4353 29.4131 22.4375 29.1393ZM22.4375 27.2423C22.4382 26.9507 22.2661 26.7652 21.9963 26.7675C21.7543 26.7689 21.5122 27.0004 21.5085 27.2341C21.5049 27.4626 21.7484 27.7045 21.9883 27.7104C22.2559 27.7171 22.4375 27.5286 22.4382 27.2423H22.4375ZM14.5319 28.6571C14.2985 28.6504 14.082 28.8604 14.071 29.1037C14.0579 29.3938 14.2468 29.5985 14.5297 29.6C14.7732 29.6015 14.9898 29.3997 14.9993 29.1616C15.0095 28.893 14.7973 28.6638 14.5319 28.6563V28.6571ZM29.4572 26.7682C29.1837 26.7719 28.9905 26.9707 29.0007 27.2393C29.0102 27.4893 29.2421 27.7186 29.4783 27.7104C29.7313 27.7022 29.9362 27.4812 29.9297 27.2222C29.9231 26.947 29.7335 26.7645 29.4572 26.7682ZM27.5832 28.6578C27.32 28.66 27.1355 28.8618 27.1406 29.1423C27.1457 29.4197 27.3338 29.6037 27.6087 29.6008C27.8596 29.5978 28.0739 29.3745 28.0681 29.1208C28.063 28.8782 27.8297 28.6556 27.5832 28.6578ZM28.0681 27.2475C28.0739 26.9826 27.8749 26.7726 27.6138 26.7682C27.3375 26.7637 27.1486 26.944 27.1406 27.22C27.1333 27.496 27.3142 27.6963 27.5839 27.7104C27.8187 27.723 28.063 27.4893 28.0681 27.2475ZM16.4007 28.6578C16.155 28.6638 15.9275 28.8967 15.9319 29.1371C15.937 29.3938 16.1528 29.6045 16.4066 29.6008C16.6785 29.5971 16.8608 29.4071 16.8601 29.1282C16.8594 28.8544 16.661 28.6511 16.4007 28.6578ZM18.7209 29.1334C18.7224 28.8537 18.5343 28.6548 18.2703 28.6578C18.0246 28.6608 17.7934 28.8885 17.7934 29.1289C17.7934 29.3686 18.026 29.603 18.2637 29.6008C18.5364 29.5993 18.7195 29.4116 18.7209 29.1326V29.1334ZM12.655 28.6578C12.3918 28.6578 12.2058 28.8581 12.2095 29.1386C12.2131 29.416 12.3991 29.6023 12.6725 29.6015C12.9102 29.6015 13.1413 29.3634 13.1377 29.1237C13.1341 28.8826 12.9014 28.6578 12.6557 28.6578H12.655ZM31.7905 29.1393C31.7942 28.8589 31.6089 28.6586 31.3457 28.6578C31.0993 28.6578 30.8674 28.8804 30.863 29.123C30.8586 29.3626 31.0891 29.6008 31.3268 29.6015C31.6002 29.6023 31.7869 29.4168 31.7905 29.1393ZM14.9993 25.3363C15.0029 25.0685 14.8068 24.8771 14.5311 24.8786C14.257 24.8801 14.0718 25.0663 14.0703 25.343C14.0688 25.5841 14.2993 25.8215 14.5348 25.8215C14.771 25.8215 14.9963 25.5863 14.9993 25.3371V25.3363ZM16.4182 24.8786C16.1411 24.8689 15.9392 25.0514 15.9319 25.317C15.9253 25.5663 16.1389 25.8074 16.3774 25.82C16.6114 25.8327 16.8535 25.6027 16.8601 25.3616C16.8674 25.0819 16.6895 24.8875 16.4189 24.8786H16.4182ZM25.761 24.8786C25.4825 24.8704 25.2907 25.0455 25.2791 25.32C25.2667 25.6064 25.4621 25.8186 25.7399 25.8208C25.9637 25.8223 26.1956 25.596 26.2066 25.3667C26.2182 25.1056 26.0184 24.8867 25.761 24.8786ZM27.6182 24.8786C27.3411 24.8719 27.1494 25.0507 27.1406 25.3245C27.1326 25.5678 27.3492 25.8089 27.5869 25.82C27.8217 25.8312 28.0557 25.6042 28.0688 25.3541C28.082 25.087 27.8909 24.8845 27.6189 24.8786H27.6182ZM29.4681 25.8208C29.7036 25.8193 29.9326 25.5812 29.9297 25.34C29.9268 25.064 29.7408 24.8786 29.4659 24.8786C29.1903 24.8786 28.9963 25.0715 29.0007 25.3393C29.0051 25.5893 29.2319 25.8223 29.4681 25.8208ZM14.9993 27.2208C14.9978 26.9552 14.7951 26.7637 14.5217 26.7689C14.2489 26.7741 14.0674 26.9655 14.0703 27.243C14.0725 27.4982 14.2912 27.7156 14.5413 27.7111C14.7791 27.7067 15.0007 27.47 14.9993 27.2208ZM18.7209 27.2601C18.7297 26.9782 18.5554 26.7808 18.2878 26.7689C18.0479 26.7586 17.8087 26.9752 17.7942 27.2156C17.7788 27.4648 18.0166 27.7097 18.2739 27.7111C18.527 27.7126 18.7129 27.5249 18.7217 27.2601H18.7209ZM25.7311 26.7689C25.4592 26.7726 25.2783 26.9611 25.2791 27.2408C25.2798 27.5197 25.4708 27.7171 25.7348 27.7111C25.9805 27.706 26.2095 27.4745 26.2066 27.2349C26.2036 26.9952 25.9703 26.766 25.7311 26.7689ZM31.7905 27.2512C31.7963 26.9685 31.6162 26.7741 31.3428 26.7682C31.0847 26.763 30.8674 26.973 30.863 27.2326C30.8594 27.4648 31.081 27.7008 31.3114 27.7104C31.5725 27.7215 31.7854 27.5183 31.7905 27.2512ZM33.6521 27.2482C33.6564 26.967 33.472 26.7682 33.2073 26.7689C32.9637 26.7689 32.726 26.9937 32.7195 27.2304C32.7129 27.4626 32.947 27.7022 33.1883 27.7111C33.4523 27.7215 33.6477 27.5264 33.6513 27.2482H33.6521ZM31.3268 25.8208C31.5812 25.8208 31.7927 25.6027 31.7912 25.3408C31.789 25.0618 31.6017 24.8763 31.3231 24.8786C31.0577 24.8808 30.8572 25.09 30.8637 25.3578C30.8688 25.5901 31.1 25.82 31.3275 25.8208H31.3268ZM13.1377 27.2341C13.1348 26.9752 12.9175 26.7637 12.6594 26.7689C12.3859 26.7741 12.2051 26.9678 12.2102 27.2504C12.2153 27.5175 12.4268 27.7215 12.6885 27.7111C12.9182 27.7022 13.1406 27.4663 13.1384 27.2349L13.1377 27.2341ZM20.5832 29.1289C20.5832 28.8492 20.3914 28.6519 20.1275 28.6578C19.8847 28.6638 19.6484 28.8974 19.6492 29.1311C19.6499 29.3656 19.8876 29.5971 20.1297 29.6015C20.3951 29.606 20.5832 29.4094 20.5825 29.1289H20.5832ZM16.8601 27.2408C16.8616 26.9603 16.6771 26.7704 16.4014 26.7682C16.1346 26.7667 15.9326 26.9692 15.9326 27.2386C15.9326 27.4708 16.1572 27.7045 16.3869 27.7104C16.6392 27.7171 16.8586 27.499 16.8608 27.2408H16.8601ZM26.2066 29.1378C26.2117 28.896 25.982 28.6623 25.7333 28.6578C25.4781 28.6526 25.2885 28.8411 25.2798 29.1074C25.2703 29.3916 25.4519 29.5963 25.7173 29.6008C25.9659 29.6045 26.2014 29.3819 26.2073 29.1378H26.2066ZM29.9297 29.1326C29.9311 28.8752 29.7153 28.6526 29.4703 28.6578C29.2158 28.6638 29.008 28.873 29.0007 29.1311C28.9934 29.3789 29.2129 29.6008 29.4645 29.6008C29.7189 29.6008 29.9282 29.3901 29.9289 29.1319L29.9297 29.1326ZM20.5825 27.2571C20.5905 26.9744 20.4104 26.7726 20.1464 26.7682C19.9029 26.7637 19.6616 26.9833 19.6492 27.22C19.6368 27.4604 19.8854 27.7097 20.1377 27.7104C20.3907 27.7104 20.5752 27.5227 20.5825 27.2564V27.2571ZM33.6521 29.149C33.6601 28.867 33.4793 28.663 33.2168 28.6578C32.9747 28.6526 32.7311 28.8737 32.7195 29.1104C32.7071 29.3545 32.9513 29.6008 33.2058 29.6008C33.4603 29.6008 33.6441 29.4146 33.6513 29.149H33.6521ZM15 23.4423C15.0014 23.1833 14.8148 22.9941 14.5501 22.9882C14.2694 22.9815 14.0718 23.1685 14.071 23.44C14.071 23.6745 14.2942 23.9297 14.5042 23.9349C14.7579 23.9408 14.9978 23.7027 15 23.4423ZM33.6521 25.3705C33.6623 25.087 33.4902 24.8912 33.2197 24.8778C32.9718 24.866 32.7202 25.1026 32.7195 25.3489C32.7195 25.5648 32.9557 25.8149 33.1694 25.8238C33.4275 25.8341 33.6419 25.6323 33.6513 25.3705H33.6521ZM33.1818 23.8807C33.4858 23.8829 33.6513 23.7294 33.6521 23.4437C33.6535 23.1692 33.4851 22.9919 33.2197 22.9875C32.9295 22.9823 32.7253 23.1729 32.7195 23.4534C32.7144 23.6952 32.9134 23.8785 33.1818 23.8807ZM11.2273 27.2408C11.228 26.9477 11.0793 26.7741 10.8219 26.7682C10.536 26.7615 10.3443 26.9552 10.3479 27.2467C10.3516 27.5145 10.5309 27.7052 10.7839 27.7104C11.0501 27.7156 11.2258 27.5294 11.2266 27.2408H11.2273ZM11.2273 23.4608C11.2309 23.1321 11.1041 22.9912 10.8029 22.9875C10.5324 22.9845 10.3552 23.1537 10.3486 23.4207C10.3428 23.667 10.5616 23.9267 10.7818 23.9341C11.0384 23.9423 11.2251 23.7442 11.228 23.4608H11.2273ZM11.2273 29.1341C11.2273 28.8411 11.0603 28.6578 10.7934 28.6578C10.5302 28.6578 10.345 28.8581 10.3486 29.1386C10.3523 29.4057 10.5309 29.5956 10.7839 29.6008C11.053 29.606 11.2266 29.4242 11.2273 29.1341ZM24.2976 27.2319C24.2976 26.9448 24.1211 26.763 23.8506 26.7689C23.5969 26.7749 23.4204 26.9633 23.4175 27.2326C23.4146 27.5131 23.6005 27.7126 23.8637 27.7119C24.1292 27.7104 24.2969 27.5249 24.2969 27.2326L24.2976 27.2319ZM24.2976 29.1438C24.2998 28.8485 24.1372 28.663 23.871 28.6578C23.6078 28.6526 23.4175 28.8507 23.4175 29.1297C23.4175 29.4101 23.6056 29.6052 23.871 29.6008C24.1284 29.5963 24.2954 29.4168 24.2969 29.143L24.2976 29.1438ZM13.0867 25.366C13.0874 25.0218 12.9671 24.8793 12.6739 24.8786C12.3961 24.8786 12.2102 25.0655 12.2102 25.3452C12.2102 25.5901 12.445 25.8267 12.682 25.8208C12.9204 25.8156 13.0859 25.6294 13.0874 25.366H13.0867ZM11.2273 25.3482C11.2287 25.0566 11.0778 24.883 10.8197 24.8786C10.5426 24.8741 10.3552 25.0544 10.3486 25.3326C10.3428 25.5967 10.528 25.8193 10.7584 25.8252C11.0406 25.8327 11.2258 25.645 11.2273 25.3489V25.3482ZM13.0867 23.4764C13.0881 23.1329 12.9722 22.9927 12.6812 22.9882C12.4042 22.9838 12.216 23.164 12.2102 23.44C12.2051 23.6782 12.4421 23.9401 12.6579 23.9349C12.9109 23.9289 13.0852 23.742 13.0867 23.4764Z" fill="#7DA6D7"/>
<path d="M22.4375 29.14C22.4353 29.4137 22.2661 29.5955 22.0088 29.6007C21.755 29.6059 21.5013 29.361 21.5078 29.1192C21.5144 28.8877 21.7616 28.6562 22.0022 28.6577C22.2676 28.6592 22.4397 28.8491 22.4375 29.14Z" fill="#2E3192"/>
<path d="M22.4375 27.243C22.4368 27.5294 22.2552 27.7178 21.9876 27.7112C21.7477 27.7052 21.5042 27.4634 21.5079 27.2349C21.5115 27.0019 21.7536 26.7704 21.9957 26.7682C22.2655 26.766 22.4375 26.9515 22.4368 27.243H22.4375Z" fill="#2E3192"/>
<path d="M14.5319 28.6578C14.7973 28.6653 15.0095 28.8945 14.9993 29.1631C14.9898 29.4005 14.7733 29.603 14.5297 29.6015C14.2468 29.6001 14.058 29.3953 14.0711 29.1052C14.082 28.8619 14.2993 28.6519 14.5319 28.6586V28.6578Z" fill="#2E3192"/>
<path d="M29.4572 26.7681C29.7328 26.7644 29.9231 26.9469 29.9297 27.2222C29.9363 27.4803 29.7314 27.7022 29.4784 27.7103C29.2421 27.7185 29.0102 27.4893 29.0008 27.2392C28.9905 26.9714 29.1838 26.7718 29.4572 26.7681Z" fill="#2E3192"/>
<path d="M27.5832 28.6577C27.8304 28.6562 28.063 28.8781 28.0681 29.1207C28.074 29.3744 27.8596 29.5977 27.6088 29.6007C27.3346 29.6036 27.1465 29.4197 27.1406 29.1422C27.1348 28.8617 27.32 28.6592 27.5832 28.6577Z" fill="#2E3192"/>
<path d="M28.0681 27.2474C28.063 27.4893 27.8187 27.7222 27.5839 27.7104C27.3141 27.6963 27.1333 27.496 27.1406 27.22C27.1479 26.944 27.3375 26.7637 27.6138 26.7681C27.8749 26.7726 28.0739 26.9826 28.0681 27.2474Z" fill="#2E3192"/>
<path d="M16.4007 28.657C16.661 28.6503 16.8593 28.8536 16.8601 29.1274C16.8608 29.4063 16.6785 29.5963 16.4065 29.6C16.1528 29.6037 15.9369 29.3922 15.9318 29.1363C15.9274 28.8959 16.1549 28.663 16.4007 28.657Z" fill="#2E3192"/>
<path d="M18.721 29.1326C18.7195 29.4115 18.5358 29.5985 18.2638 29.6007C18.0261 29.6022 17.7927 29.3685 17.7935 29.1289C17.7935 28.8885 18.0246 28.6607 18.2703 28.6577C18.5343 28.6548 18.7224 28.8529 18.721 29.1333V29.1326Z" fill="#2E3192"/>
<path d="M12.655 28.6578C12.9008 28.6578 13.1334 28.8826 13.137 29.1238C13.1407 29.3634 12.9095 29.6008 12.6718 29.6015C12.3984 29.6015 12.2124 29.4161 12.2088 29.1386C12.2051 28.8582 12.3911 28.6578 12.6543 28.6578H12.655Z" fill="#2E3192"/>
<path d="M31.7905 29.1385C31.7868 29.4159 31.6002 29.6014 31.3267 29.6007C31.089 29.5999 30.8586 29.3618 30.863 29.1222C30.8674 28.8803 31.0985 28.657 31.3457 28.657C31.6089 28.657 31.7949 28.858 31.7905 29.1385Z" fill="#2E3192"/>
<path d="M14.9993 25.3363C14.9964 25.5856 14.771 25.82 14.5348 25.8208C14.2993 25.8208 14.0689 25.5841 14.0703 25.3422C14.0718 25.0655 14.257 24.8793 14.5312 24.8778C14.8068 24.8763 15.0022 25.0685 14.9993 25.3356V25.3363Z" fill="#2E3192"/>
<path d="M16.4183 24.8778C16.6895 24.8875 16.8667 25.0811 16.8594 25.3608C16.8536 25.6012 16.6108 25.8311 16.3767 25.8193C16.1383 25.8067 15.9246 25.5655 15.9312 25.3163C15.9385 25.0507 16.1404 24.8682 16.4175 24.8778H16.4183Z" fill="#2E3192"/>
<path d="M25.761 24.8786C26.0184 24.8867 26.2182 25.1056 26.2066 25.3667C26.1956 25.596 25.9637 25.8223 25.7399 25.8208C25.4628 25.8186 25.2674 25.6064 25.2791 25.32C25.2907 25.0455 25.4825 24.8704 25.761 24.8786Z" fill="#2E3192"/>
<path d="M27.6182 24.8777C27.8902 24.8844 28.0812 25.0862 28.0681 25.3533C28.0557 25.6033 27.8209 25.8303 27.5861 25.8192C27.3491 25.8081 27.1318 25.567 27.1399 25.3236C27.1486 25.0499 27.3404 24.8711 27.6175 24.8777H27.6182Z" fill="#2E3192"/>
<path d="M29.4681 25.82C29.2319 25.8215 29.0058 25.5885 29.0007 25.3385C28.9956 25.0707 29.1903 24.8778 29.4659 24.8778C29.7408 24.8778 29.9267 25.0625 29.9297 25.3393C29.9326 25.5804 29.7036 25.8185 29.4681 25.82Z" fill="#2E3192"/>
<path d="M14.9993 27.22C15.0008 27.4693 14.7791 27.7059 14.5414 27.7104C14.2913 27.7148 14.0733 27.4975 14.0703 27.2422C14.0674 26.964 14.249 26.7734 14.5217 26.7682C14.7951 26.763 14.9978 26.9544 14.9993 27.22Z" fill="#2E3192"/>
<path d="M18.721 27.2592C18.7122 27.5241 18.5263 27.7118 18.2733 27.7103C18.0159 27.7088 17.7789 27.464 17.7935 27.2147C17.8081 26.9744 18.0472 26.757 18.2871 26.7681C18.5555 26.78 18.7297 26.9773 18.7203 27.2592H18.721Z" fill="#2E3192"/>
<path d="M25.7311 26.7681C25.9703 26.7651 26.2036 26.9944 26.2066 27.234C26.2095 27.4736 25.9798 27.7051 25.7348 27.7103C25.4708 27.7162 25.2798 27.5189 25.2791 27.2399C25.2783 26.9602 25.4592 26.7711 25.7311 26.7681Z" fill="#2E3192"/>
<path d="M31.7906 27.2511C31.7847 27.5182 31.5726 27.7215 31.3115 27.7104C31.0811 27.7007 30.8594 27.4648 30.8631 27.2326C30.8675 26.9737 31.084 26.763 31.3429 26.7682C31.6163 26.7734 31.7971 26.9677 31.7906 27.2511Z" fill="#2E3192"/>
<path d="M33.6521 27.2482C33.6477 27.5264 33.4523 27.7215 33.1891 27.7111C32.947 27.7015 32.7137 27.4619 32.7202 27.2304C32.7268 26.9937 32.9638 26.7697 33.208 26.7689C33.4735 26.7689 33.6572 26.967 33.6528 27.2482H33.6521Z" fill="#2E3192"/>
<path d="M31.3261 25.82C31.0986 25.82 30.8682 25.5893 30.8623 25.3571C30.8558 25.0893 31.0563 24.8801 31.3217 24.8778C31.6003 24.8756 31.7877 25.0611 31.7898 25.34C31.7913 25.6019 31.5798 25.8208 31.3254 25.82H31.3261Z" fill="#2E3192"/>
<path d="M13.137 27.2333C13.1399 27.4648 12.9175 27.7007 12.6871 27.7096C12.4253 27.72 12.2138 27.516 12.2087 27.2489C12.2036 26.9662 12.3845 26.7726 12.6579 26.7674C12.916 26.763 13.1333 26.9737 13.1362 27.2326L13.137 27.2333Z" fill="#2E3192"/>
<path d="M20.5825 29.1281C20.5825 29.4085 20.3951 29.6044 20.1297 29.6007C19.8876 29.597 19.6499 29.3648 19.6492 29.1303C19.6484 28.8966 19.8847 28.6629 20.1275 28.657C20.3915 28.6511 20.5825 28.8484 20.5832 29.1281H20.5825Z" fill="#2E3192"/>
<path d="M16.8594 27.2408C16.8579 27.4997 16.6377 27.7178 16.3854 27.7104C16.1557 27.7045 15.9312 27.4708 15.9312 27.2386C15.9312 26.9693 16.1331 26.7667 16.4 26.7682C16.6756 26.7697 16.8608 26.9596 16.8587 27.2408H16.8594Z" fill="#2E3192"/>
<path d="M26.2065 29.1378C26.2014 29.3819 25.9652 29.6045 25.7165 29.6008C25.4511 29.5963 25.2696 29.3916 25.279 29.1074C25.2878 28.8403 25.4774 28.6526 25.7326 28.6578C25.9812 28.663 26.2116 28.896 26.2058 29.1378H26.2065Z" fill="#2E3192"/>
<path d="M29.9297 29.1319C29.9282 29.3901 29.7189 29.6008 29.4652 29.6008C29.2129 29.6008 28.9934 29.3782 29.0014 29.1312C29.0087 28.873 29.2165 28.6638 29.471 28.6578C29.7153 28.6519 29.9311 28.8752 29.9304 29.1326L29.9297 29.1319Z" fill="#2E3192"/>
<path d="M20.5825 27.257C20.5752 27.5234 20.3907 27.7111 20.1377 27.7111C19.8861 27.7111 19.6367 27.4611 19.6491 27.2207C19.6615 26.984 19.9029 26.7644 20.1464 26.7689C20.4104 26.7733 20.5905 26.9751 20.5825 27.2578V27.257Z" fill="#2E3192"/>
<path d="M33.6513 29.1489C33.6433 29.4145 33.4595 29.6015 33.2058 29.6008C32.9513 29.6008 32.7071 29.3545 32.7194 29.1104C32.7311 28.8737 32.9739 28.6526 33.2167 28.6578C33.4792 28.663 33.6601 28.867 33.652 29.1489H33.6513Z" fill="#2E3192"/>
<path d="M14.9993 23.4423C14.9978 23.7019 14.7579 23.9408 14.5034 23.9349C14.2934 23.9297 14.0703 23.6745 14.0703 23.44C14.0703 23.1685 14.2686 22.9815 14.5494 22.9882C14.8141 22.9949 15.0007 23.1833 14.9993 23.4423Z" fill="#2E3192"/>
<path d="M33.6514 25.3704C33.6419 25.6323 33.4275 25.8333 33.1694 25.8237C32.9557 25.8155 32.7188 25.5655 32.7195 25.3489C32.7202 25.1025 32.9718 24.8659 33.2197 24.8777C33.4902 24.8911 33.6623 25.087 33.6521 25.3704H33.6514Z" fill="#2E3192"/>
<path d="M33.1817 23.8807C32.9134 23.8792 32.7151 23.6952 32.7194 23.4533C32.7253 23.1721 32.9294 22.9822 33.2196 22.9874C33.4851 22.9919 33.6535 23.1692 33.652 23.4437C33.6506 23.7293 33.4858 23.8829 33.1817 23.8807Z" fill="#2E3192"/>
<path d="M11.2266 27.2415C11.2259 27.5301 11.0502 27.7163 10.784 27.7111C10.531 27.7059 10.3516 27.5152 10.348 27.2474C10.3436 26.9558 10.5354 26.7615 10.8219 26.7689C11.0793 26.7748 11.2281 26.9484 11.2273 27.2415H11.2266Z" fill="#2E3192"/>
<path d="M11.2265 23.4608C11.2236 23.7449 11.037 23.943 10.7803 23.9341C10.5608 23.9267 10.3413 23.667 10.3472 23.4207C10.3537 23.1529 10.5309 22.9845 10.8014 22.9875C11.1026 22.9904 11.2295 23.1321 11.2258 23.4608H11.2265Z" fill="#2E3192"/>
<path d="M11.2266 29.1341C11.2266 29.4235 11.0531 29.606 10.7833 29.6008C10.5302 29.5956 10.3516 29.4064 10.348 29.1386C10.3443 28.8582 10.5295 28.6578 10.7927 28.6578C11.0596 28.6578 11.2273 28.8418 11.2266 29.1341Z" fill="#2E3192"/>
<path d="M24.2969 27.2312C24.2969 27.5235 24.1292 27.7089 23.8638 27.7104C23.6005 27.7119 23.4146 27.5123 23.4175 27.2312C23.4204 26.9626 23.5962 26.7734 23.8506 26.7675C24.1212 26.7615 24.2976 26.944 24.2976 27.2304L24.2969 27.2312Z" fill="#2E3192"/>
<path d="M24.2969 29.143C24.2947 29.4168 24.1277 29.5963 23.871 29.6008C23.6056 29.6052 23.4175 29.4101 23.4175 29.1297C23.4175 28.85 23.6071 28.6526 23.871 28.6578C24.1372 28.663 24.2998 28.8477 24.2976 29.1438L24.2969 29.143Z" fill="#2E3192"/>
<path d="M13.0859 25.3652C13.0852 25.6286 12.9197 25.8148 12.6805 25.82C12.4435 25.8252 12.2087 25.5885 12.2087 25.3445C12.2087 25.0655 12.3954 24.8778 12.6725 24.8778C12.9656 24.8778 13.0867 25.021 13.0852 25.3652H13.0859Z" fill="#2E3192"/>
<path d="M11.2266 25.3474C11.2251 25.6434 11.0406 25.8311 10.7577 25.8237C10.5273 25.8178 10.3421 25.5952 10.3479 25.3311C10.3537 25.0536 10.5419 24.8726 10.819 24.877C11.0771 24.8815 11.2287 25.0558 11.2266 25.3467V25.3474Z" fill="#2E3192"/>
<path d="M13.0859 23.4756C13.0845 23.7412 12.9102 23.9281 12.6572 23.9341C12.4413 23.9392 12.2036 23.6774 12.2095 23.4392C12.216 23.1632 12.4041 22.9829 12.6805 22.9874C12.9714 22.9918 13.0874 23.1321 13.0859 23.4756Z" fill="#2E3192"/>
</g>
<path d="M47.932 16C47.6707 16 47.456 15.9207 47.288 15.762C47.1293 15.594 47.05 15.3887 47.05 15.146V7.054C47.05 6.81133 47.1293 6.61067 47.288 6.452C47.456 6.284 47.6613 6.2 47.904 6.2H52.454C52.6967 6.2 52.8973 6.27933 53.056 6.438C53.224 6.58733 53.308 6.78333 53.308 7.026C53.308 7.23133 53.224 7.41333 53.056 7.572C52.8973 7.73067 52.6967 7.81 52.454 7.81H48.674L48.8 7.642V10.456L48.702 10.274H51.824C52.0667 10.274 52.2673 10.3533 52.426 10.512C52.594 10.6613 52.678 10.8573 52.678 11.1C52.678 11.3053 52.594 11.4873 52.426 11.646C52.2673 11.8047 52.0667 11.884 51.824 11.884H48.674L48.8 11.758V15.146C48.8 15.3887 48.7113 15.594 48.534 15.762C48.366 15.9207 48.1653 16 47.932 16ZM56.3533 15.146C56.3533 15.3887 56.274 15.594 56.1153 15.762C55.9567 15.9207 55.756 16 55.5133 16C55.2707 16 55.07 15.9207 54.9113 15.762C54.7527 15.594 54.6733 15.3887 54.6733 15.146V9.364C54.6733 9.12133 54.7527 8.92067 54.9113 8.762C55.07 8.594 55.2707 8.51 55.5133 8.51C55.756 8.51 55.9567 8.594 56.1153 8.762C56.274 8.92067 56.3533 9.12133 56.3533 9.364V15.146ZM55.4993 7.6C55.182 7.6 54.958 7.54867 54.8273 7.446C54.6967 7.34333 54.6313 7.16133 54.6313 6.9V6.634C54.6313 6.36333 54.7013 6.18133 54.8413 6.088C54.9907 5.98533 55.2147 5.934 55.5133 5.934C55.84 5.934 56.0687 5.98533 56.1993 6.088C56.33 6.19067 56.3953 6.37267 56.3953 6.634V6.9C56.3953 7.17067 56.3253 7.35733 56.1853 7.46C56.0453 7.55333 55.8167 7.6 55.4993 7.6ZM58.9199 16C58.6773 16 58.4766 15.9207 58.3179 15.762C58.1593 15.594 58.0799 15.3887 58.0799 15.146V9.364C58.0799 9.12133 58.1593 8.92067 58.3179 8.762C58.4766 8.594 58.6773 8.51 58.9199 8.51C59.1626 8.51 59.3633 8.594 59.5219 8.762C59.6806 8.92067 59.7599 9.12133 59.7599 9.364V10.68L59.6619 9.742C59.7646 9.518 59.8953 9.322 60.0539 9.154C60.2219 8.97667 60.4086 8.832 60.6139 8.72C60.8193 8.59867 61.0386 8.51 61.2719 8.454C61.5053 8.398 61.7386 8.37 61.9719 8.37C62.2519 8.37 62.4853 8.44933 62.6719 8.608C62.8679 8.76667 62.9659 8.95333 62.9659 9.168C62.9659 9.476 62.8866 9.7 62.7279 9.84C62.5693 9.97067 62.3966 10.036 62.2099 10.036C62.0326 10.036 61.8693 10.0033 61.7199 9.938C61.5799 9.87267 61.4166 9.84 61.2299 9.84C61.0619 9.84 60.8893 9.882 60.7119 9.966C60.5439 10.0407 60.3853 10.162 60.2359 10.33C60.0959 10.498 59.9793 10.708 59.8859 10.96C59.8019 11.2027 59.7599 11.492 59.7599 11.828V15.146C59.7599 15.3887 59.6806 15.594 59.5219 15.762C59.3633 15.9207 59.1626 16 58.9199 16ZM68.0842 8.37C68.8309 8.37 69.3816 8.552 69.7362 8.916C70.0909 9.27067 70.3242 9.73267 70.4362 10.302L70.1982 10.176L70.3102 9.952C70.4222 9.73733 70.5949 9.50867 70.8282 9.266C71.0616 9.014 71.3416 8.804 71.6682 8.636C72.0042 8.45867 72.3776 8.37 72.7882 8.37C73.4602 8.37 73.9689 8.51467 74.3142 8.804C74.6689 9.09333 74.9116 9.48067 75.0422 9.966C75.1729 10.442 75.2382 10.974 75.2382 11.562V15.146C75.2382 15.3887 75.1589 15.594 75.0002 15.762C74.8416 15.9207 74.6409 16 74.3982 16C74.1556 16 73.9549 15.9207 73.7962 15.762C73.6376 15.594 73.5582 15.3887 73.5582 15.146V11.562C73.5582 11.254 73.5209 10.9787 73.4462 10.736C73.3716 10.484 73.2362 10.2833 73.0402 10.134C72.8442 9.98467 72.5642 9.91 72.2002 9.91C71.8456 9.91 71.5422 9.98467 71.2902 10.134C71.0382 10.2833 70.8469 10.484 70.7162 10.736C70.5949 10.9787 70.5342 11.254 70.5342 11.562V15.146C70.5342 15.3887 70.4549 15.594 70.2962 15.762C70.1376 15.9207 69.9369 16 69.6942 16C69.4516 16 69.2509 15.9207 69.0922 15.762C68.9336 15.594 68.8542 15.3887 68.8542 15.146V11.562C68.8542 11.254 68.8169 10.9787 68.7422 10.736C68.6676 10.484 68.5322 10.2833 68.3362 10.134C68.1402 9.98467 67.8602 9.91 67.4962 9.91C67.1416 9.91 66.8382 9.98467 66.5862 10.134C66.3342 10.2833 66.1429 10.484 66.0122 10.736C65.8909 10.9787 65.8302 11.254 65.8302 11.562V15.146C65.8302 15.3887 65.7509 15.594 65.5922 15.762C65.4336 15.9207 65.2329 16 64.9902 16C64.7476 16 64.5469 15.9207 64.3882 15.762C64.2296 15.594 64.1502 15.3887 64.1502 15.146V9.364C64.1502 9.12133 64.2296 8.92067 64.3882 8.762C64.5469 8.594 64.7476 8.51 64.9902 8.51C65.2329 8.51 65.4336 8.594 65.5922 8.762C65.7509 8.92067 65.8302 9.12133 65.8302 9.364V9.966L65.6202 9.924C65.7042 9.76533 65.8209 9.59733 65.9702 9.42C66.1196 9.23333 66.3016 9.06067 66.5162 8.902C66.7309 8.74333 66.9689 8.61733 67.2302 8.524C67.4916 8.42133 67.7762 8.37 68.0842 8.37ZM80.5845 16.14C79.7912 16.14 79.1005 15.9767 78.5125 15.65C77.9338 15.314 77.4858 14.8613 77.1685 14.292C76.8605 13.7227 76.7065 13.0787 76.7065 12.36C76.7065 11.52 76.8745 10.806 77.2105 10.218C77.5558 9.62067 78.0038 9.16333 78.5545 8.846C79.1052 8.52867 79.6885 8.37 80.3045 8.37C80.7805 8.37 81.2285 8.468 81.6485 8.664C82.0778 8.86 82.4558 9.13067 82.7825 9.476C83.1092 9.812 83.3658 10.204 83.5525 10.652C83.7485 11.1 83.8465 11.576 83.8465 12.08C83.8372 12.304 83.7485 12.486 83.5805 12.626C83.4125 12.766 83.2165 12.836 82.9925 12.836H77.6445L77.2245 11.436H82.3625L82.0545 11.716V11.338C82.0358 11.0673 81.9378 10.8247 81.7605 10.61C81.5925 10.3953 81.3778 10.2273 81.1165 10.106C80.8645 9.97533 80.5938 9.91 80.3045 9.91C80.0245 9.91 79.7632 9.94733 79.5205 10.022C79.2778 10.0967 79.0678 10.2227 78.8905 10.4C78.7132 10.5773 78.5732 10.8153 78.4705 11.114C78.3678 11.4127 78.3165 11.7907 78.3165 12.248C78.3165 12.752 78.4192 13.1813 78.6245 13.536C78.8392 13.8813 79.1098 14.1473 79.4365 14.334C79.7725 14.5113 80.1272 14.6 80.5005 14.6C80.8458 14.6 81.1212 14.572 81.3265 14.516C81.5318 14.46 81.6952 14.3947 81.8165 14.32C81.9472 14.236 82.0638 14.166 82.1665 14.11C82.3345 14.026 82.4932 13.984 82.6425 13.984C82.8478 13.984 83.0158 14.054 83.1465 14.194C83.2865 14.334 83.3565 14.4973 83.3565 14.684C83.3565 14.936 83.2258 15.1647 82.9645 15.37C82.7218 15.5753 82.3812 15.7573 81.9425 15.916C81.5038 16.0653 81.0512 16.14 80.5845 16.14ZM90.0883 14.46C90.3123 14.46 90.499 14.5347 90.6483 14.684C90.7976 14.824 90.8723 15.006 90.8723 15.23C90.8723 15.4447 90.7976 15.6267 90.6483 15.776C90.499 15.9253 90.3123 16 90.0883 16H85.5803C85.347 16 85.1603 15.916 85.0203 15.748C84.8803 15.58 84.815 15.412 84.8243 15.244C84.8336 15.104 84.8523 14.9827 84.8803 14.88C84.9083 14.768 84.9783 14.642 85.0903 14.502L88.5763 9.994L88.5483 10.19H85.7063C85.4823 10.19 85.2956 10.1153 85.1463 9.966C84.997 9.81667 84.9223 9.63 84.9223 9.406C84.9223 9.19133 84.997 9.014 85.1463 8.874C85.2956 8.72467 85.4823 8.65 85.7063 8.65H90.0183C90.233 8.65 90.415 8.72933 90.5643 8.888C90.7136 9.04667 90.779 9.24733 90.7603 9.49C90.751 9.58333 90.7323 9.67667 90.7043 9.77C90.6856 9.86333 90.625 9.97533 90.5223 10.106L87.0923 14.544V14.46H90.0883ZM98.2275 8.37C98.4702 8.37 98.6709 8.44933 98.8295 8.608C98.9882 8.76667 99.0675 8.972 99.0675 9.224V15.146C99.0675 15.3887 98.9882 15.594 98.8295 15.762C98.6709 15.9207 98.4702 16 98.2275 16C97.9849 16 97.7842 15.9207 97.6255 15.762C97.4669 15.594 97.3875 15.3887 97.3875 15.146V14.46L97.6955 14.586C97.6955 14.7073 97.6302 14.8567 97.4995 15.034C97.3689 15.202 97.1915 15.37 96.9675 15.538C96.7435 15.706 96.4775 15.8507 96.1695 15.972C95.8709 16.084 95.5442 16.14 95.1895 16.14C94.5455 16.14 93.9622 15.9767 93.4395 15.65C92.9169 15.314 92.5015 14.8567 92.1935 14.278C91.8949 13.69 91.7455 13.018 91.7455 12.262C91.7455 11.4967 91.8949 10.8247 92.1935 10.246C92.5015 9.658 92.9122 9.20067 93.4255 8.874C93.9389 8.538 94.5082 8.37 95.1335 8.37C95.5349 8.37 95.9035 8.43067 96.2395 8.552C96.5755 8.67333 96.8649 8.82733 97.1075 9.014C97.3595 9.20067 97.5509 9.392 97.6815 9.588C97.8215 9.77467 97.8915 9.93333 97.8915 10.064L97.3875 10.246V9.224C97.3875 8.98133 97.4669 8.78067 97.6255 8.622C97.7842 8.454 97.9849 8.37 98.2275 8.37ZM95.3995 14.6C95.8102 14.6 96.1695 14.4973 96.4775 14.292C96.7855 14.0867 97.0235 13.8067 97.1915 13.452C97.3689 13.0973 97.4575 12.7007 97.4575 12.262C97.4575 11.814 97.3689 11.4127 97.1915 11.058C97.0235 10.7033 96.7855 10.4233 96.4775 10.218C96.1695 10.0127 95.8102 9.91 95.3995 9.91C94.9982 9.91 94.6435 10.0127 94.3355 10.218C94.0275 10.4233 93.7849 10.7033 93.6075 11.058C93.4395 11.4127 93.3555 11.814 93.3555 12.262C93.3555 12.7007 93.4395 13.0973 93.6075 13.452C93.7849 13.8067 94.0275 14.0867 94.3355 14.292C94.6435 14.4973 94.9982 14.6 95.3995 14.6Z" fill="#2E3192"/>
<path d="M47.44 31C47.368 31 47.308 30.976 47.26 30.928C47.22 30.88 47.2 30.824 47.2 30.76V22.84C47.2 22.776 47.224 22.72 47.272 22.672C47.32 22.624 47.376 22.6 47.44 22.6H51.964C52.028 22.6 52.084 22.624 52.132 22.672C52.18 22.72 52.204 22.776 52.204 22.84C52.204 22.912 52.18 22.972 52.132 23.02C52.084 23.06 52.028 23.08 51.964 23.08H47.644L47.68 23.032V26.488L47.632 26.392H51.424C51.488 26.392 51.544 26.416 51.592 26.464C51.64 26.512 51.664 26.568 51.664 26.632C51.664 26.704 51.64 26.764 51.592 26.812C51.544 26.852 51.488 26.872 51.424 26.872H47.608L47.68 26.776V30.76C47.68 30.824 47.656 30.88 47.608 30.928C47.568 30.976 47.512 31 47.44 31ZM54.2846 30.76C54.2846 30.824 54.2606 30.88 54.2126 30.928C54.1646 30.976 54.1086 31 54.0446 31C53.9726 31 53.9126 30.976 53.8646 30.928C53.8246 30.88 53.8046 30.824 53.8046 30.76V25.06C53.8046 24.996 53.8286 24.94 53.8766 24.892C53.9246 24.844 53.9806 24.82 54.0446 24.82C54.1166 24.82 54.1726 24.844 54.2126 24.892C54.2606 24.94 54.2846 24.996 54.2846 25.06V30.76ZM54.0446 24.004C53.9166 24.004 53.8126 23.968 53.7326 23.896C53.6606 23.824 53.6246 23.732 53.6246 23.62V23.524C53.6246 23.412 53.6646 23.32 53.7446 23.248C53.8246 23.176 53.9286 23.14 54.0566 23.14C54.1686 23.14 54.2606 23.176 54.3326 23.248C54.4126 23.32 54.4526 23.412 54.4526 23.524V23.62C54.4526 23.732 54.4126 23.824 54.3326 23.896C54.2606 23.968 54.1646 24.004 54.0446 24.004ZM56.5173 31C56.4453 31 56.3853 30.976 56.3373 30.928C56.2973 30.88 56.2773 30.824 56.2773 30.76V25.252C56.2773 25.188 56.3013 25.132 56.3493 25.084C56.3973 25.036 56.4533 25.012 56.5173 25.012C56.5893 25.012 56.6453 25.036 56.6853 25.084C56.7333 25.132 56.7573 25.188 56.7573 25.252V27.28L56.5533 27.592C56.5533 27.28 56.6053 26.964 56.7093 26.644C56.8213 26.324 56.9813 26.028 57.1893 25.756C57.3973 25.476 57.6493 25.252 57.9453 25.084C58.2493 24.908 58.5973 24.82 58.9893 24.82C59.1013 24.82 59.2213 24.836 59.3493 24.868C59.4773 24.9 59.5413 24.976 59.5413 25.096C59.5413 25.168 59.5213 25.228 59.4813 25.276C59.4413 25.324 59.3893 25.348 59.3253 25.348C59.2773 25.348 59.2173 25.332 59.1453 25.3C59.0813 25.26 58.9853 25.24 58.8573 25.24C58.6013 25.24 58.3493 25.316 58.1013 25.468C57.8533 25.62 57.6253 25.824 57.4173 26.08C57.2173 26.328 57.0573 26.6 56.9373 26.896C56.8173 27.192 56.7573 27.48 56.7573 27.76V30.76C56.7573 30.824 56.7333 30.88 56.6853 30.928C56.6373 30.976 56.5813 31 56.5173 31ZM63.2512 24.94C63.6992 24.94 64.1072 25.064 64.4752 25.312C64.8512 25.552 65.1072 25.932 65.2432 26.452L65.0872 26.56L65.1472 26.332C65.2512 26.068 65.4312 25.832 65.6872 25.624C65.9512 25.416 66.2432 25.252 66.5632 25.132C66.8912 25.004 67.2072 24.94 67.5112 24.94C67.9912 24.94 68.3872 25.044 68.6992 25.252C69.0112 25.46 69.2392 25.74 69.3832 26.092C69.5352 26.436 69.6112 26.828 69.6112 27.268V30.76C69.6112 30.824 69.5872 30.88 69.5392 30.928C69.4992 30.976 69.4432 31 69.3712 31C69.2992 31 69.2392 30.976 69.1912 30.928C69.1512 30.88 69.1312 30.824 69.1312 30.76V27.316C69.1312 26.964 69.0712 26.644 68.9512 26.356C68.8392 26.06 68.6592 25.828 68.4112 25.66C68.1712 25.484 67.8552 25.396 67.4632 25.396C67.1192 25.396 66.7832 25.484 66.4552 25.66C66.1272 25.828 65.8552 26.06 65.6392 26.356C65.4312 26.644 65.3272 26.964 65.3272 27.316V30.76C65.3272 30.824 65.3032 30.88 65.2552 30.928C65.2152 30.976 65.1592 31 65.0872 31C65.0152 31 64.9552 30.976 64.9072 30.928C64.8672 30.88 64.8472 30.824 64.8472 30.76V27.256C64.8472 26.912 64.7912 26.6 64.6792 26.32C64.5752 26.04 64.4072 25.816 64.1752 25.648C63.9432 25.48 63.6352 25.396 63.2512 25.396C62.9152 25.396 62.5872 25.48 62.2672 25.648C61.9552 25.816 61.6952 26.04 61.4872 26.32C61.2792 26.6 61.1752 26.912 61.1752 27.256V30.76C61.1752 30.824 61.1512 30.88 61.1032 30.928C61.0552 30.976 60.9992 31 60.9352 31C60.8632 31 60.8032 30.976 60.7552 30.928C60.7152 30.88 60.6952 30.824 60.6952 30.76V25.252C60.6952 25.188 60.7192 25.132 60.7672 25.084C60.8152 25.036 60.8712 25.012 60.9352 25.012C61.0072 25.012 61.0632 25.036 61.1032 25.084C61.1512 25.132 61.1752 25.188 61.1752 25.252V26.56L60.8152 27.172C60.8152 26.892 60.8832 26.62 61.0192 26.356C61.1552 26.092 61.3352 25.856 61.5592 25.648C61.7912 25.432 62.0512 25.26 62.3392 25.132C62.6352 25.004 62.9392 24.94 63.2512 24.94ZM74.3054 31.12C73.7054 31.12 73.1734 30.992 72.7094 30.736C72.2534 30.48 71.8934 30.12 71.6294 29.656C71.3654 29.184 71.2334 28.632 71.2334 28C71.2334 27.328 71.3614 26.756 71.6174 26.284C71.8814 25.812 72.2174 25.452 72.6254 25.204C73.0414 24.948 73.4814 24.82 73.9454 24.82C74.2814 24.82 74.6094 24.876 74.9294 24.988C75.2494 25.092 75.5334 25.26 75.7814 25.492C76.0374 25.716 76.2414 26 76.3934 26.344C76.5534 26.68 76.6414 27.084 76.6574 27.556C76.6574 27.62 76.6334 27.68 76.5854 27.736C76.5374 27.784 76.4814 27.808 76.4174 27.808H71.5214L71.4494 27.352H76.2854L76.1654 27.46V27.244C76.1254 26.82 75.9894 26.464 75.7574 26.176C75.5334 25.888 75.2614 25.672 74.9414 25.528C74.6214 25.376 74.2894 25.3 73.9454 25.3C73.7054 25.3 73.4534 25.356 73.1894 25.468C72.9254 25.572 72.6814 25.736 72.4574 25.96C72.2334 26.176 72.0494 26.452 71.9054 26.788C71.7694 27.124 71.7014 27.516 71.7014 27.964C71.7014 28.452 71.7974 28.9 71.9894 29.308C72.1894 29.716 72.4814 30.044 72.8654 30.292C73.2574 30.54 73.7374 30.664 74.3054 30.664C74.5774 30.664 74.8334 30.62 75.0734 30.532C75.3134 30.436 75.5294 30.312 75.7214 30.16C75.9134 30.008 76.0694 29.844 76.1894 29.668C76.2534 29.596 76.3214 29.56 76.3934 29.56C76.4494 29.56 76.4974 29.584 76.5374 29.632C76.5774 29.672 76.5974 29.72 76.5974 29.776C76.5974 29.832 76.5814 29.88 76.5494 29.92C76.3014 30.24 75.9814 30.52 75.5894 30.76C75.2054 31 74.7774 31.12 74.3054 31.12Z" fill="#515254"/>
</g>
<path d="M102.5 40.7929L106.793 36.5H102.5V40.7929Z" fill="#A8C3E4" stroke="#A8C3E4"/>
</g>
<defs>
<filter id="filter0_d_46_172" x="-2" y="-1" width="112" height="40" filterUnits="userSpaceOnUse" color-interpolation-filters="sRGB">
<feFlood flood-opacity="0" result="BackgroundImageFix"/>
<feColorMatrix in="SourceAlpha" type="matrix" values="0 0 0 0 0 0 0 0 0 0 0 0 0 0 0 0 0 0 127 0" result="hardAlpha"/>
<feOffset dy="1"/>
<feGaussianBlur stdDeviation="1"/>
<feComposite in2="hardAlpha" operator="out"/>
<feColorMatrix type="matrix" values="0 0 0 0 0 0 0 0 0 0 0 0 0 0 0 0 0 0 0.16 0"/>
<feBlend mode="normal" in2="BackgroundImageFix" result="effect1_dropShadow_46_172"/>
<feBlend mode="normal" in="SourceGraphic" in2="effect1_dropShadow_46_172" result="shape"/>
</filter>
<clipPath id="clip0_46_172">
<rect width="108" height="42" fill="white"/>
</clipPath>
<clipPath id="clip1_46_172">
<rect width="28" height="27" fill="white" transform="translate(8 4.5)"/>
</clipPath>
</defs>
</svg>
