<svg width="28" height="28" viewBox="0 0 28 28" fill="none" xmlns="http://www.w3.org/2000/svg">
<g clip-path="url(#clip0_729_5609)">
<path d="M-3.25526e-06 18.1551C0.120309 17.9859 0.161143 17.776 0.29458 17.6098C0.590622 17.2396 0.977809 17.0682 1.43281 17.0674C2.87218 17.0652 4.31156 17.063 5.75093 17.086C6.52677 17.0979 7.18593 17.4466 7.81593 17.8895C9.3027 18.9341 10.7764 20.0002 12.3295 20.9424C13.0193 21.3608 13.7601 21.349 14.5068 21.0626C15.2797 20.7666 15.7923 20.2116 16.1518 19.4697C16.6148 18.5149 17.7756 18.1625 18.717 18.6878C19.2536 18.9875 19.8173 19.2464 20.4291 19.3072C20.771 19.3414 21.124 19.2331 21.4484 19.0928C21.8786 18.9074 22.2345 18.6299 22.5349 18.2552C23.2006 17.4258 24.0902 17.0652 25.1315 17.063C25.5325 17.0623 25.9335 17.0704 26.3339 17.0615C27.1615 17.0422 27.7346 17.3954 27.9993 18.2115V26.4302C27.9701 26.4517 27.9249 26.4673 27.9154 26.4955C27.6551 27.2656 27.0871 27.4978 26.3353 27.4971C18.7469 27.4897 11.1592 27.4926 3.57073 27.4926C2.83281 27.4926 2.09489 27.4867 1.35698 27.4926C1.08354 27.4949 0.853122 27.3954 0.620518 27.2626C0.288747 27.0735 0.169893 26.7352 -0.000732422 26.4302V18.1558L-3.25526e-06 18.1551ZM1.97166 18.0416C1.78937 18.0423 1.60708 18.043 1.42552 18.0438C1.09666 18.046 0.934788 18.1929 0.934059 18.529C0.930413 21.0448 0.931872 23.5613 0.934059 26.0771C0.934059 26.3516 1.11781 26.5334 1.39271 26.5415C1.58375 26.5475 1.77479 26.5393 1.96656 26.5378C1.99354 26.5393 2.02125 26.5423 2.04823 26.5423C10.1952 26.54 18.3415 26.5386 26.4884 26.5356C26.8902 26.5356 27.0645 26.3538 27.0652 25.9376C27.0659 24.0591 27.0652 22.1806 27.0652 20.3021C27.0652 19.7286 27.0689 19.1544 27.0637 18.5809C27.0601 18.1951 26.9092 18.049 26.5293 18.0468C26.0189 18.043 25.5084 18.0512 24.9987 18.0356C24.4716 18.0193 24.0253 18.2085 23.6068 18.5156C23.3056 18.7367 23.1175 19.0602 22.8506 19.3124C22.0296 20.0877 21.0365 20.3385 19.9704 20.1857C19.3958 20.1033 18.8395 19.8444 18.3276 19.5328C17.9448 19.2998 17.5459 19.3273 17.212 19.6129C17.0494 19.7516 16.9509 19.9416 16.8569 20.133C15.9367 22.0078 13.5063 22.8765 11.5638 21.593C10.0771 20.61 8.61875 19.5832 7.1502 18.572C6.74625 18.2938 6.33281 18.0445 5.82677 18.043C4.54198 18.0393 3.25718 18.043 1.97239 18.043L1.97166 18.0416Z" fill="#2E3192"/>
<path d="M5.35866 1.44004C5.08085 1.40369 4.84678 1.52759 4.61564 1.65594C3.69543 2.16711 2.77668 2.67902 1.8572 3.19093C1.44595 3.42018 1.27897 3.92986 1.47001 4.36462C1.51376 4.46478 1.56772 4.55751 1.59543 4.6688C1.66835 4.95962 1.60418 5.11171 1.32783 5.22968C1.09085 5.33057 0.892513 5.26009 0.758346 5.02565C0.166263 3.99738 0.446992 2.90752 1.46783 2.32958C2.42303 1.78874 3.38991 1.26941 4.34658 0.730788C5.26897 0.211457 6.48376 0.572763 6.97595 1.58843C7.6796 3.03958 8.4073 4.47813 9.13355 5.91816C9.8197 7.27806 10.5219 8.62981 11.2044 9.99119C11.3918 10.3651 11.7053 10.5536 12.0706 10.6441C13.7251 11.0529 15.2987 11.6642 16.7818 12.5144C18.3685 13.4232 19.9413 14.3536 21.4725 15.3596C22.349 15.936 22.2936 17.5667 21.326 18.1054C20.7813 18.4088 20.2621 18.3784 19.7269 18.1195C18.9613 17.7493 18.2007 17.3694 17.43 17.0111C16.6002 16.6253 15.7624 16.258 14.9275 15.8849C14.4156 15.6556 13.903 15.4293 13.3904 15.2031C13.2745 15.1519 13.1586 15.0992 13.0382 15.0599C12.864 15.0027 12.7269 15.0754 12.6532 15.232C12.5847 15.3781 12.6576 15.4909 12.786 15.5799C13.405 16.0095 14.0285 16.4339 14.6373 16.879C15.2797 17.3479 15.4678 18.0289 15.3475 18.7783C15.217 19.5958 14.6665 20.0454 13.9016 20.2658C13.362 20.4216 12.8902 20.2406 12.471 19.949C10.8974 18.8577 9.28376 17.8257 7.7496 16.6772C7.0372 16.1438 6.63762 15.4212 6.61647 14.502C6.59605 13.6065 6.29637 12.8119 5.80491 12.0678C4.93283 10.7487 3.95064 9.51341 3.01658 8.24253C2.84012 8.00216 2.84522 7.72098 3.05376 7.53031C3.24043 7.35967 3.53501 7.3849 3.71803 7.62453C4.34293 8.44211 4.95908 9.2671 5.57158 10.0951C6.14543 10.8711 6.7171 11.6508 7.12762 12.5352C7.3398 12.9922 7.45501 13.4744 7.50095 13.9811C7.5498 14.522 7.54324 15.0851 7.92241 15.5399C8.22501 15.9027 8.61074 16.1586 8.99137 16.4205C10.2886 17.313 11.5894 18.2003 12.8851 19.0965C13.1447 19.2761 13.4174 19.3599 13.7273 19.3199C14.0839 19.2412 14.3631 19.0416 14.431 18.6751C14.5068 18.2619 14.447 17.8598 14.0569 17.5927C13.5064 17.2151 12.977 16.8004 12.4024 16.4658C11.744 16.0815 11.4676 15.3611 11.9255 14.6036C12.3076 14.0887 12.9588 13.9581 13.5618 14.2319C15.6858 15.1986 17.8456 16.0859 19.9259 17.1505C19.9908 17.1839 20.0608 17.2047 20.1287 17.2314C20.5888 17.6283 21.2253 17.2062 21.183 16.6275C21.1546 16.2373 20.9103 16.0904 20.6522 15.9242C19.1866 14.9805 17.6874 14.0924 16.17 13.2392C15.4562 12.8379 14.7204 12.478 13.9395 12.2236C13.1425 11.9038 12.3032 11.7176 11.4924 11.4424C11.2926 11.3748 11.1198 11.2628 10.9419 11.1545C10.7924 10.9468 10.5751 10.7991 10.4555 10.5625C10.1733 10.0038 9.8722 9.45554 9.59147 8.89615C8.4547 6.63409 7.31793 4.37204 6.19137 2.10479C6.01053 1.74051 5.7721 1.48901 5.36085 1.44153L5.35866 1.44004Z" fill="#2E3192"/>
<path d="M5.35865 1.44004C5.7699 1.48752 6.00834 1.73977 6.18918 2.1033C7.31574 4.37055 8.45178 6.63335 9.58928 8.89466C9.87001 9.45406 10.1712 10.0023 10.4533 10.561C10.5729 10.7976 10.7909 10.9453 10.9397 11.153C10.2215 11.0729 9.65636 10.7806 9.31293 10.0839C8.3898 8.21137 7.44334 6.35068 6.50563 4.48555C6.10095 3.68058 5.70136 2.87265 5.28793 2.07214C5.16397 1.83251 5.02178 1.61513 5.35793 1.4393L5.35865 1.44004Z" fill="#7DA6D7"/>
<path d="M11.9233 14.6028C11.4654 15.3603 11.7418 16.0807 12.4002 16.465C12.9748 16.8004 13.5042 17.2151 14.0547 17.592C14.4441 17.859 14.5046 18.2612 14.4288 18.6744C14.361 19.0409 14.0809 19.2405 13.7251 19.3191C13.4757 19.1455 13.4291 18.9511 13.4925 18.6232C13.6311 17.9147 13.2614 17.4124 12.6861 17.0385C12.1815 16.7106 11.6842 16.3708 11.1905 16.0258C10.9047 15.8255 10.7086 15.5554 10.7866 15.183C10.8566 14.8484 11.0826 14.6459 11.4129 14.5598C11.5908 14.5131 11.7527 14.5977 11.9233 14.6021V14.6028Z" fill="#7DA6D7"/>
<path d="M13.9373 12.2228C14.7175 12.4773 15.454 12.8371 16.1678 13.2385C17.6859 14.0917 19.1844 14.9797 20.65 15.9234C20.9089 16.0896 21.1524 16.2365 21.1808 16.6268C21.2231 17.2054 20.5866 17.6283 20.1265 17.2307C20.3941 16.491 20.2387 15.9924 19.5788 15.5799C17.7953 14.4641 16.0176 13.3379 14.14 12.3883C14.062 12.349 13.9613 12.3326 13.938 12.2221L13.9373 12.2228Z" fill="#7DA6D7"/>
<path d="M2.6797 6.36923C2.68189 6.64744 2.51491 6.82624 2.25095 6.82847C1.99501 6.83069 1.74418 6.59031 1.74928 6.34771C1.75366 6.1385 2.00887 5.88477 2.2123 5.88699C2.5098 5.88996 2.67678 6.06208 2.67897 6.36923H2.6797Z" fill="#2E3192"/>
<path d="M1.97166 18.0416C3.25645 18.0416 4.54124 18.0371 5.82603 18.0416C6.33207 18.0431 6.74624 18.2923 7.14947 18.5705C8.61801 19.5818 10.0763 20.6085 11.5631 21.5916C13.5056 22.8758 15.9359 22.0063 16.8561 20.1315C16.9502 19.9401 17.0486 19.7509 17.2112 19.6114C17.5452 19.3258 17.944 19.2983 18.3269 19.5313C18.8395 19.8429 19.3951 20.1018 19.9697 20.1842C21.0357 20.337 22.0288 20.0862 22.8499 19.311C23.1168 19.0587 23.3049 18.7352 23.606 18.5142C24.0238 18.207 24.4708 18.0178 24.998 18.0342C25.5077 18.0497 26.0181 18.0416 26.5285 18.0453C26.9084 18.0475 27.0594 18.1937 27.063 18.5794C27.0681 19.1529 27.0645 19.7272 27.0645 20.3007C27.0645 22.1792 27.0645 24.0576 27.0645 25.9361C27.0645 26.3516 26.8895 26.5341 26.4877 26.5341C18.3407 26.5371 10.1945 26.5386 2.04749 26.5408C2.02051 26.5408 1.9928 26.5378 1.96582 26.5363C1.91916 26.3405 1.85718 26.1528 1.85718 25.9428C1.86301 23.496 1.86228 21.05 1.85864 18.6032C1.85864 18.4051 1.88562 18.2181 1.97093 18.0408L1.97166 18.0416ZM14.4375 25.1349C14.4397 24.8441 14.2676 24.6541 14.0022 24.6526C13.7623 24.6512 13.5144 24.8826 13.5078 25.1141C13.5012 25.356 13.755 25.6008 14.0087 25.5956C14.2661 25.5904 14.4353 25.4086 14.4375 25.1349ZM14.4375 23.2378C14.4382 22.9463 14.2661 22.7608 13.9963 22.763C13.7543 22.7645 13.5122 22.996 13.5085 23.2297C13.5049 23.4582 13.7484 23.7 13.9883 23.706C14.2559 23.7127 14.4375 23.5242 14.4382 23.2378H14.4375ZM6.53186 24.6526C6.29853 24.646 6.08197 24.8559 6.07103 25.0993C6.05791 25.3894 6.24676 25.5941 6.52968 25.5956C6.77322 25.5971 6.98978 25.3953 6.99926 25.1571C7.00947 24.8886 6.79728 24.6593 6.53186 24.6519V24.6526ZM21.4572 22.7638C21.1837 22.7675 20.9905 22.9663 21.0007 23.2349C21.0102 23.4849 21.2421 23.7141 21.4783 23.706C21.7313 23.6978 21.9362 23.4767 21.9297 23.2178C21.9231 22.9426 21.7335 22.7601 21.4572 22.7638ZM19.5832 24.6534C19.32 24.6556 19.1355 24.8574 19.1406 25.1379C19.1457 25.4153 19.3338 25.5993 19.6087 25.5963C19.8596 25.5934 20.0739 25.3701 20.0681 25.1163C20.063 24.8737 19.8297 24.6512 19.5832 24.6534ZM20.0681 23.243C20.0739 22.9782 19.8749 22.7682 19.6138 22.7638C19.3375 22.7593 19.1486 22.9396 19.1406 23.2156C19.1333 23.4916 19.3142 23.6919 19.5839 23.706C19.8187 23.7186 20.063 23.4849 20.0681 23.243ZM8.40072 24.6534C8.15499 24.6593 7.92749 24.8923 7.93186 25.1327C7.93697 25.3894 8.1528 25.6001 8.40655 25.5963C8.67853 25.5926 8.86082 25.4027 8.86009 25.1238C8.85936 24.85 8.66103 24.6467 8.40072 24.6534ZM10.7209 25.1289C10.7224 24.8493 10.5343 24.6504 10.2703 24.6534C10.0246 24.6564 9.79343 24.8841 9.79343 25.1245C9.79343 25.3641 10.026 25.5986 10.2637 25.5963C10.5364 25.5949 10.7195 25.4072 10.7209 25.1282V25.1289ZM4.65499 24.6534C4.39176 24.6534 4.20582 24.8537 4.20947 25.1341C4.21311 25.4116 4.39905 25.5978 4.67249 25.5971C4.9102 25.5971 5.14134 25.3589 5.1377 25.1193C5.13405 24.8782 4.90145 24.6534 4.65572 24.6534H4.65499ZM23.7905 25.1349C23.7942 24.8544 23.6089 24.6541 23.3457 24.6534C23.0993 24.6534 22.8674 24.876 22.863 25.1186C22.8586 25.3582 23.0891 25.5963 23.3268 25.5971C23.6002 25.5978 23.7869 25.4124 23.7905 25.1349ZM6.99926 21.3319C7.00291 21.0641 6.80676 20.8727 6.53114 20.8741C6.25697 20.8756 6.07176 21.0618 6.0703 21.3386C6.06884 21.5797 6.29926 21.8171 6.53478 21.8171C6.77103 21.8171 6.99634 21.5819 6.99926 21.3326V21.3319ZM8.41822 20.8741C8.14113 20.8645 7.93916 21.047 7.93186 21.3126C7.9253 21.5619 8.13895 21.803 8.37739 21.8156C8.61145 21.8282 8.85353 21.5982 8.86009 21.3571C8.86739 21.0774 8.68947 20.883 8.41895 20.8741H8.41822ZM17.761 20.8741C17.4825 20.866 17.2907 21.0411 17.2791 21.3156C17.2667 21.602 17.4621 21.8141 17.7399 21.8164C17.9637 21.8178 18.1956 21.5916 18.2066 21.3623C18.2182 21.1012 18.0184 20.8823 17.761 20.8741ZM19.6182 20.8741C19.3411 20.8675 19.1494 21.0463 19.1406 21.32C19.1326 21.5634 19.3492 21.8045 19.5869 21.8156C19.8217 21.8267 20.0557 21.5997 20.0688 21.3497C20.082 21.0826 19.8909 20.8801 19.6189 20.8741H19.6182ZM21.4681 21.8164C21.7036 21.8149 21.9326 21.5767 21.9297 21.3356C21.9268 21.0596 21.7408 20.8741 21.4659 20.8741C21.1903 20.8741 20.9963 21.067 21.0007 21.3349C21.0051 21.5849 21.2319 21.8178 21.4681 21.8164ZM6.99926 23.2163C6.9978 22.9507 6.79509 22.7593 6.52166 22.7645C6.24895 22.7697 6.06739 22.9611 6.0703 23.2386C6.07249 23.4938 6.29124 23.7112 6.54134 23.7067C6.77905 23.7023 7.00072 23.4656 6.99926 23.2163ZM10.7209 23.2556C10.7297 22.9737 10.5554 22.7764 10.2878 22.7645C10.0479 22.7541 9.80874 22.9708 9.79416 23.2111C9.77884 23.4604 10.0166 23.7052 10.2739 23.7067C10.527 23.7082 10.7129 23.5205 10.7217 23.2556H10.7209ZM17.7311 22.7645C17.4592 22.7682 17.2783 22.9567 17.2791 23.2364C17.2798 23.5153 17.4708 23.7127 17.7348 23.7067C17.9805 23.7015 18.2095 23.4701 18.2066 23.2304C18.2036 22.9908 17.9703 22.7615 17.7311 22.7645ZM23.7905 23.2467C23.7963 22.9641 23.6162 22.7697 23.3428 22.7638C23.0847 22.7586 22.8674 22.9685 22.863 23.2282C22.8594 23.4604 23.081 23.6963 23.3114 23.706C23.5725 23.7171 23.7854 23.5138 23.7905 23.2467ZM25.6521 23.2438C25.6564 22.9626 25.472 22.7638 25.2073 22.7645C24.9637 22.7645 24.726 22.9893 24.7195 23.226C24.7129 23.4582 24.947 23.6978 25.1883 23.7067C25.4523 23.7171 25.6477 23.522 25.6513 23.2438H25.6521ZM23.3268 21.8164C23.5812 21.8164 23.7927 21.5982 23.7912 21.3364C23.789 21.0574 23.6017 20.8719 23.3231 20.8741C23.0577 20.8764 22.8572 21.0856 22.8637 21.3534C22.8688 21.5856 23.1 21.8156 23.3275 21.8164H23.3268ZM5.1377 23.2297C5.13478 22.9708 4.91749 22.7593 4.65936 22.7645C4.38593 22.7697 4.20509 22.9633 4.2102 23.246C4.2153 23.5131 4.42676 23.7171 4.68853 23.7067C4.91822 23.6978 5.14061 23.4619 5.13843 23.2304L5.1377 23.2297ZM12.5832 25.1245C12.5832 24.8448 12.3914 24.6475 12.1275 24.6534C11.8847 24.6593 11.6484 24.893 11.6492 25.1267C11.6499 25.3612 11.8876 25.5926 12.1297 25.5971C12.3951 25.6015 12.5832 25.4049 12.5825 25.1245H12.5832ZM8.86009 23.2364C8.86155 22.9559 8.67707 22.766 8.40145 22.7638C8.13457 22.7623 7.93259 22.9648 7.93259 23.2341C7.93259 23.4663 8.15718 23.7 8.38686 23.706C8.63916 23.7127 8.85863 23.4945 8.86082 23.2364H8.86009ZM18.2066 25.1334C18.2117 24.8915 17.982 24.6578 17.7333 24.6534C17.4781 24.6482 17.2885 24.8366 17.2798 25.103C17.2703 25.3871 17.4519 25.5919 17.7173 25.5963C17.9659 25.6001 18.2014 25.3775 18.2073 25.1334H18.2066ZM21.9297 25.1282C21.9311 24.8708 21.7153 24.6482 21.4703 24.6534C21.2158 24.6593 21.008 24.8685 21.0007 25.1267C20.9934 25.3745 21.2129 25.5963 21.4645 25.5963C21.7189 25.5963 21.9282 25.3856 21.9289 25.1275L21.9297 25.1282ZM12.5825 23.2527C12.5905 22.97 12.4104 22.7682 12.1464 22.7638C11.9029 22.7593 11.6616 22.9789 11.6492 23.2156C11.6368 23.456 11.8854 23.7052 12.1377 23.706C12.3907 23.706 12.5752 23.5183 12.5825 23.2519V23.2527ZM25.6521 25.1445C25.6601 24.8626 25.4793 24.6586 25.2168 24.6534C24.9747 24.6482 24.7311 24.8693 24.7195 25.106C24.7071 25.35 24.9513 25.5963 25.2058 25.5963C25.4603 25.5963 25.6441 25.4101 25.6513 25.1445H25.6521ZM6.99999 19.4378C7.00145 19.1789 6.81478 18.9897 6.55009 18.9838C6.26936 18.9771 6.07176 19.1641 6.07103 19.4356C6.07103 19.67 6.29416 19.9253 6.50416 19.9304C6.75791 19.9364 6.9978 19.6982 6.99999 19.4378ZM25.6521 21.366C25.6623 21.0826 25.4902 20.8868 25.2197 20.8734C24.9718 20.8615 24.7202 21.0982 24.7195 21.3445C24.7195 21.5604 24.9557 21.8104 25.1694 21.8193C25.4275 21.8297 25.6419 21.6279 25.6513 21.366H25.6521ZM25.1818 19.8763C25.4858 19.8785 25.6513 19.7249 25.6521 19.4393C25.6535 19.1648 25.4851 18.9875 25.2197 18.983C24.9295 18.9778 24.7253 19.1685 24.7195 19.449C24.7144 19.6908 24.9134 19.8741 25.1818 19.8763ZM3.22728 23.2364C3.22801 22.9433 3.07926 22.7697 2.82187 22.7638C2.53603 22.7571 2.34426 22.9507 2.34791 23.2423C2.35155 23.5101 2.53093 23.7008 2.78395 23.706C3.05009 23.7112 3.22582 23.525 3.22655 23.2364H3.22728ZM3.22728 19.4564C3.23093 19.1277 3.10405 18.9868 2.80291 18.983C2.53239 18.9801 2.3552 19.1492 2.34864 19.4163C2.3428 19.6626 2.56155 19.9223 2.78176 19.9297C3.03843 19.9379 3.22509 19.7398 3.22801 19.4564H3.22728ZM3.22728 25.1297C3.22728 24.8366 3.0603 24.6534 2.79343 24.6534C2.5302 24.6534 2.34499 24.8537 2.34864 25.1341C2.35228 25.4012 2.53093 25.5912 2.78395 25.5963C3.05301 25.6015 3.22655 25.4198 3.22728 25.1297ZM16.2976 23.2275C16.2976 22.9403 16.1211 22.7586 15.8506 22.7645C15.5969 22.7704 15.4204 22.9589 15.4175 23.2282C15.4146 23.5086 15.6005 23.7082 15.8637 23.7075C16.1292 23.706 16.2969 23.5205 16.2969 23.2282L16.2976 23.2275ZM16.2976 25.1393C16.2998 24.8441 16.1372 24.6586 15.871 24.6534C15.6078 24.6482 15.4175 24.8463 15.4175 25.1252C15.4175 25.4057 15.6056 25.6008 15.871 25.5963C16.1284 25.5919 16.2954 25.4124 16.2969 25.1386L16.2976 25.1393ZM5.08666 21.3616C5.08739 21.0173 4.96707 20.8749 4.67395 20.8741C4.39614 20.8741 4.2102 21.0611 4.2102 21.3408C4.2102 21.5856 4.44499 21.8223 4.68197 21.8164C4.92041 21.8112 5.08593 21.625 5.08739 21.3616H5.08666ZM3.22728 21.3438C3.22874 21.0522 3.0778 20.8786 2.81968 20.8741C2.54259 20.8697 2.3552 21.05 2.34864 21.3282C2.3428 21.5923 2.52801 21.8149 2.75843 21.8208C3.04062 21.8282 3.22582 21.6405 3.22728 21.3445V21.3438ZM5.08666 19.472C5.08811 19.1285 4.97218 18.9882 4.68124 18.9838C4.40416 18.9793 4.21603 19.1596 4.2102 19.4356C4.20509 19.6738 4.44207 19.9356 4.65791 19.9304C4.91093 19.9245 5.0852 19.7376 5.08666 19.472Z" fill="#7DA6D7"/>
<path d="M14.4375 25.1356C14.4353 25.4094 14.2661 25.5912 14.0088 25.5963C13.755 25.6015 13.5013 25.3567 13.5078 25.1149C13.5144 24.8834 13.7616 24.6519 14.0022 24.6534C14.2676 24.6549 14.4397 24.8448 14.4375 25.1356Z" fill="#2E3192"/>
<path d="M14.4375 23.2386C14.4368 23.525 14.2552 23.7134 13.9876 23.7067C13.7477 23.7008 13.5042 23.4589 13.5078 23.2304C13.5115 22.9975 13.7536 22.766 13.9956 22.7638C14.2654 22.7615 14.4375 22.947 14.4368 23.2386H14.4375Z" fill="#2E3192"/>
<path d="M6.53188 24.6534C6.7973 24.6608 7.00948 24.89 6.99928 25.1586C6.9898 25.396 6.77324 25.5986 6.52969 25.5971C6.24678 25.5956 6.05792 25.3908 6.07105 25.1007C6.08198 24.8574 6.29928 24.6474 6.53188 24.6541V24.6534Z" fill="#2E3192"/>
<path d="M21.4572 22.7638C21.7328 22.76 21.9231 22.9426 21.9297 23.2178C21.9362 23.476 21.7313 23.6978 21.4783 23.706C21.2421 23.7141 21.0102 23.4849 21.0007 23.2349C20.9905 22.967 21.1837 22.7675 21.4572 22.7638Z" fill="#2E3192"/>
<path d="M19.5832 24.6534C19.8304 24.6519 20.063 24.8737 20.0681 25.1163C20.074 25.3701 19.8596 25.5934 19.6088 25.5963C19.3346 25.5993 19.1465 25.4153 19.1406 25.1379C19.1348 24.8574 19.32 24.6549 19.5832 24.6534Z" fill="#2E3192"/>
<path d="M20.0681 23.243C20.063 23.4849 19.8187 23.7178 19.584 23.706C19.3142 23.6919 19.1333 23.4916 19.1406 23.2156C19.1479 22.9396 19.3375 22.7593 19.6139 22.7638C19.8749 22.7682 20.074 22.9782 20.0681 23.243Z" fill="#2E3192"/>
<path d="M8.40074 24.6526C8.66105 24.646 8.85939 24.8492 8.86012 25.123C8.86084 25.402 8.67855 25.5919 8.40657 25.5956C8.15282 25.5993 7.93699 25.3879 7.93189 25.1319C7.92751 24.8915 8.15501 24.6586 8.40074 24.6526Z" fill="#2E3192"/>
<path d="M10.7209 25.1282C10.7195 25.4072 10.5357 25.5941 10.2637 25.5963C10.026 25.5978 9.7927 25.3641 9.79343 25.1245C9.79343 24.8841 10.0246 24.6564 10.2703 24.6534C10.5343 24.6504 10.7224 24.8485 10.7209 25.1289V25.1282Z" fill="#2E3192"/>
<path d="M4.65501 24.6534C4.90074 24.6534 5.13335 24.8782 5.13699 25.1193C5.14064 25.3589 4.90949 25.5963 4.67178 25.5971C4.39835 25.5971 4.21241 25.4116 4.20876 25.1341C4.20512 24.8537 4.39105 24.6534 4.65428 24.6534H4.65501Z" fill="#2E3192"/>
<path d="M23.7905 25.1341C23.7869 25.4116 23.6002 25.5971 23.3268 25.5963C23.089 25.5956 22.8586 25.3574 22.863 25.1178C22.8674 24.8759 23.0985 24.6526 23.3457 24.6526C23.6089 24.6526 23.7949 24.8537 23.7905 25.1341Z" fill="#2E3192"/>
<path d="M6.99928 21.3319C6.99636 21.5812 6.77105 21.8156 6.5348 21.8163C6.29928 21.8163 6.06886 21.5797 6.07032 21.3378C6.07178 21.0611 6.25699 20.8749 6.53115 20.8734C6.80678 20.8719 7.00219 21.0641 6.99928 21.3311V21.3319Z" fill="#2E3192"/>
<path d="M8.41823 20.8734C8.68948 20.883 8.86667 21.0767 8.85938 21.3564C8.85354 21.5967 8.61073 21.8267 8.37667 21.8149C8.13823 21.8023 7.92458 21.5611 7.93115 21.3119C7.93844 21.0463 8.14042 20.8638 8.4175 20.8734H8.41823Z" fill="#2E3192"/>
<path d="M17.761 20.8741C18.0184 20.8823 18.2182 21.1012 18.2066 21.3623C18.1956 21.5916 17.9637 21.8178 17.7399 21.8164C17.4628 21.8141 17.2674 21.602 17.2791 21.3156C17.2907 21.0411 17.4825 20.866 17.761 20.8741Z" fill="#2E3192"/>
<path d="M19.6182 20.8734C19.8902 20.8801 20.0812 21.0819 20.0681 21.349C20.0557 21.599 19.8209 21.826 19.5861 21.8149C19.3492 21.8037 19.1319 21.5626 19.1399 21.3193C19.1486 21.0455 19.3404 20.8667 19.6175 20.8734H19.6182Z" fill="#2E3192"/>
<path d="M21.4681 21.8156C21.2319 21.8171 21.0058 21.5841 21.0007 21.3341C20.9956 21.0663 21.1903 20.8734 21.4659 20.8734C21.7408 20.8734 21.9268 21.0581 21.9297 21.3349C21.9326 21.576 21.7037 21.8141 21.4681 21.8156Z" fill="#2E3192"/>
<path d="M6.99927 23.2156C7.00073 23.4649 6.77907 23.7015 6.54136 23.706C6.29125 23.7104 6.07323 23.493 6.07032 23.2378C6.0674 22.9596 6.24896 22.769 6.52167 22.7638C6.79511 22.7586 6.99782 22.95 6.99927 23.2156Z" fill="#2E3192"/>
<path d="M10.7209 23.2549C10.7122 23.5198 10.5262 23.7075 10.2732 23.706C10.0158 23.7045 9.77884 23.4597 9.79343 23.2104C9.80801 22.97 10.0472 22.7526 10.2871 22.7638C10.5554 22.7756 10.7297 22.973 10.7202 23.2549H10.7209Z" fill="#2E3192"/>
<path d="M17.7311 22.7638C17.9703 22.7608 18.2036 22.99 18.2066 23.2297C18.2095 23.4693 17.9798 23.7008 17.7348 23.706C17.4708 23.7119 17.2798 23.5146 17.2791 23.2356C17.2783 22.9559 17.4592 22.7667 17.7311 22.7638Z" fill="#2E3192"/>
<path d="M23.7905 23.2467C23.7847 23.5138 23.5725 23.7171 23.3115 23.706C23.081 23.6963 22.8594 23.4604 22.863 23.2282C22.8674 22.9693 23.084 22.7586 23.3428 22.7638C23.6163 22.769 23.7971 22.9633 23.7905 23.2467Z" fill="#2E3192"/>
<path d="M25.6521 23.2438C25.6477 23.522 25.4523 23.7171 25.1891 23.7067C24.947 23.6971 24.7136 23.4574 24.7202 23.226C24.7268 22.9893 24.9637 22.7652 25.208 22.7645C25.4734 22.7645 25.6572 22.9626 25.6528 23.2438H25.6521Z" fill="#2E3192"/>
<path d="M23.326 21.8156C23.0985 21.8156 22.8681 21.5849 22.8623 21.3527C22.8557 21.0848 23.0562 20.8756 23.3217 20.8734C23.6002 20.8712 23.7876 21.0567 23.7898 21.3356C23.7912 21.5975 23.5798 21.8164 23.3253 21.8156H23.326Z" fill="#2E3192"/>
<path d="M5.13698 23.2289C5.1399 23.4604 4.9175 23.6963 4.68709 23.7052C4.42532 23.7156 4.21386 23.5116 4.20875 23.2445C4.20365 22.9619 4.38448 22.7682 4.65792 22.763C4.91605 22.7586 5.13334 22.9693 5.13625 23.2282L5.13698 23.2289Z" fill="#2E3192"/>
<path d="M12.5825 25.1237C12.5825 25.4042 12.3951 25.6 12.1297 25.5963C11.8876 25.5926 11.6499 25.3604 11.6492 25.126C11.6484 24.8923 11.8847 24.6586 12.1275 24.6526C12.3915 24.6467 12.5825 24.8441 12.5832 25.1237H12.5825Z" fill="#2E3192"/>
<path d="M8.85938 23.2363C8.85792 23.4953 8.63772 23.7134 8.38542 23.706C8.15574 23.7 7.93115 23.4663 7.93115 23.2341C7.93115 22.9648 8.13313 22.7623 8.40001 22.7638C8.67563 22.7652 8.86084 22.9552 8.85865 23.2363H8.85938Z" fill="#2E3192"/>
<path d="M18.2066 25.1334C18.2015 25.3775 17.9652 25.6 17.7166 25.5963C17.4512 25.5919 17.2696 25.3871 17.2791 25.103C17.2878 24.8359 17.4774 24.6482 17.7326 24.6534C17.9813 24.6586 18.2117 24.8915 18.2058 25.1334H18.2066Z" fill="#2E3192"/>
<path d="M21.9297 25.1275C21.9282 25.3856 21.719 25.5963 21.4652 25.5963C21.2129 25.5963 20.9934 25.3738 21.0015 25.1267C21.0088 24.8685 21.2166 24.6593 21.471 24.6534C21.7153 24.6475 21.9312 24.8708 21.9304 25.1282L21.9297 25.1275Z" fill="#2E3192"/>
<path d="M12.5825 23.2527C12.5752 23.519 12.3907 23.7067 12.1377 23.7067C11.8861 23.7067 11.6368 23.4567 11.6492 23.2163C11.6616 22.9797 11.9029 22.76 12.1464 22.7645C12.4104 22.769 12.5905 22.9707 12.5825 23.2534V23.2527Z" fill="#2E3192"/>
<path d="M25.6514 25.1445C25.6433 25.4101 25.4596 25.5971 25.2058 25.5963C24.9514 25.5963 24.7071 25.35 24.7195 25.1059C24.7311 24.8693 24.974 24.6482 25.2168 24.6534C25.4793 24.6586 25.6601 24.8626 25.6521 25.1445H25.6514Z" fill="#2E3192"/>
<path d="M6.99927 19.4378C6.99781 19.6975 6.75792 19.9364 6.50344 19.9304C6.29344 19.9252 6.07031 19.67 6.07031 19.4356C6.07031 19.1641 6.26865 18.9771 6.54937 18.9838C6.81406 18.9904 7.00073 19.1789 6.99927 19.4378Z" fill="#2E3192"/>
<path d="M25.6514 21.366C25.6419 21.6279 25.4275 21.829 25.1694 21.8193C24.9557 21.8112 24.7188 21.5611 24.7195 21.3445C24.7202 21.0982 24.9718 20.8615 25.2197 20.8734C25.4902 20.8868 25.6623 21.0826 25.6521 21.366H25.6514Z" fill="#2E3192"/>
<path d="M25.1818 19.8763C24.9135 19.8748 24.7151 19.6908 24.7195 19.4489C24.7253 19.1678 24.9295 18.9778 25.2197 18.983C25.4851 18.9875 25.6536 19.1648 25.6521 19.4393C25.6506 19.7249 25.4858 19.8785 25.1818 19.8763Z" fill="#2E3192"/>
<path d="M3.22656 23.2371C3.22583 23.5257 3.0501 23.7119 2.78395 23.7067C2.53093 23.7015 2.35156 23.5109 2.34791 23.243C2.34354 22.9515 2.53531 22.7571 2.82187 22.7645C3.07927 22.7704 3.22802 22.944 3.22729 23.2371H3.22656Z" fill="#2E3192"/>
<path d="M3.22657 19.4564C3.22365 19.7405 3.03698 19.9386 2.78032 19.9297C2.56084 19.9223 2.34136 19.6626 2.34719 19.4163C2.35375 19.1485 2.53094 18.9801 2.80146 18.983C3.10261 18.986 3.22948 19.1277 3.22584 19.4564H3.22657Z" fill="#2E3192"/>
<path d="M3.22657 25.1297C3.22657 25.419 3.05303 25.6015 2.78324 25.5963C2.53021 25.5911 2.35157 25.402 2.34792 25.1341C2.34428 24.8537 2.52949 24.6534 2.79271 24.6534C3.05959 24.6534 3.2273 24.8374 3.22657 25.1297Z" fill="#2E3192"/>
<path d="M16.2969 23.2267C16.2969 23.519 16.1292 23.7045 15.8638 23.706C15.6005 23.7075 15.4146 23.5079 15.4175 23.2267C15.4204 22.9581 15.5962 22.769 15.8506 22.763C16.1212 22.7571 16.2976 22.9396 16.2976 23.226L16.2969 23.2267Z" fill="#2E3192"/>
<path d="M16.2969 25.1386C16.2947 25.4124 16.1277 25.5919 15.8711 25.5963C15.6056 25.6008 15.4175 25.4057 15.4175 25.1252C15.4175 24.8455 15.6071 24.6482 15.8711 24.6534C16.1372 24.6586 16.2998 24.8433 16.2976 25.1393L16.2969 25.1386Z" fill="#2E3192"/>
<path d="M5.08593 21.3608C5.0852 21.6242 4.91968 21.8104 4.68051 21.8156C4.44353 21.8208 4.20874 21.5841 4.20874 21.3401C4.20874 21.0611 4.39541 20.8734 4.67249 20.8734C4.96562 20.8734 5.08666 21.0166 5.0852 21.3608H5.08593Z" fill="#2E3192"/>
<path d="M3.22656 21.343C3.2251 21.639 3.04062 21.8267 2.7577 21.8193C2.52729 21.8134 2.34208 21.5908 2.34791 21.3267C2.35375 21.0492 2.54187 20.8682 2.81895 20.8727C3.07708 20.8771 3.22875 21.0515 3.22656 21.3423V21.343Z" fill="#2E3192"/>
<path d="M5.08594 19.4712C5.08449 19.7368 4.91022 19.9238 4.65719 19.9297C4.44136 19.9349 4.20365 19.673 4.20949 19.4349C4.21605 19.1589 4.40417 18.9786 4.68053 18.983C4.97147 18.9875 5.0874 19.1277 5.08594 19.4712Z" fill="#2E3192"/>
</g>
<defs>
<clipPath id="clip0_729_5609">
<rect width="28" height="27" fill="white" transform="translate(0 0.495605)"/>
</clipPath>
</defs>
</svg>
