<svg width="45" height="64" viewBox="0 0 45 64" fill="none" xmlns="http://www.w3.org/2000/svg">
<g clip-path="url(#clip0_496_10909)">
<path d="M13.3678 54.2604C13.7022 53.692 13.7022 53.4468 13.234 52.9564C10.7597 50.3483 9.29968 47.2387 8.68668 43.7279C8.1517 40.6517 8.36346 37.609 9.41114 34.6554C10.1022 32.6938 12.2198 31.2338 14.9393 31.8468C23.7108 33.8307 30.4539 38.7013 35.369 46.1799C35.4805 46.3582 35.6477 46.5031 35.5585 46.7929C34.3102 50.9167 31.9919 54.2158 28.0464 56.1105C23.9114 58.0833 19.8656 57.6375 16.0093 55.2412C15.53 54.9403 15.0953 54.8177 14.6384 55.2412C14.1703 54.9849 13.8136 54.5725 13.3678 54.2715V54.2604Z" fill="#DCE3F3"/>
<path d="M36.1046 44.4077C33.0173 39.9161 29.0941 36.3941 24.3127 33.6858C25.3827 33.1954 26.408 32.8276 27.4669 32.5155C28.7375 32.1477 29.9969 31.7353 31.3344 31.713C33.2625 31.6907 34.9901 32.9056 35.6031 34.7334C36.6619 37.8542 36.8179 41.0418 36.2049 44.274C36.2049 44.3074 36.1604 44.3297 36.1046 44.4077Z" fill="#DCE3F3"/>
<path d="M13.3678 54.2604C12.7882 54.5836 12.5542 54.5502 12.086 54.0598C9.50028 51.3291 7.90647 48.0858 7.20431 44.4077C6.55787 41.0307 6.73619 37.6759 7.81731 34.3879C8.09595 33.5297 8.50833 32.7495 9.14362 32.1031C9.31081 31.9248 9.35539 31.8133 9.17706 31.6016C8.55291 30.866 8.00678 30.0858 7.57211 29.2164C7.44951 28.9824 7.29347 28.9489 7.07056 28.9824C3.97211 29.339 1.33062 27.3774 0.717618 24.2901C0.160343 21.448 2.04393 18.5725 4.96406 17.8034C5.45446 17.6697 5.95601 17.6028 6.4687 17.6474C6.7139 17.6697 6.82536 17.5694 6.92567 17.3353C9.32195 11.9966 13.5572 9.02075 19.1857 7.88391C21.7492 7.36007 24.3127 7.48267 26.9096 8.10682C26.8538 7.47153 26.5306 7.02571 26.1182 6.62447C25.873 6.37927 25.6836 6.11178 25.795 5.74397C25.9622 5.14212 26.6421 4.95264 27.1325 5.37617C27.9795 6.12292 28.4922 7.05914 28.5703 8.18484C28.5925 8.51921 28.704 8.65295 29.0161 8.77555C30.8551 9.47772 32.5269 10.4585 34.0093 11.7626C34.5442 12.2195 34.5777 12.4982 34.1987 13.1112C33.7306 13.3898 33.3294 13.3006 32.9281 12.9328C31.691 11.8406 30.2867 11.0158 28.7597 10.3805C28.4142 10.2356 28.2916 10.2802 28.1133 10.6257C26.7758 13.2003 23.4099 13.791 21.3257 11.8406C21.047 11.5842 20.891 11.3056 20.9356 10.9266C21.1139 10.5365 21.4148 10.3359 21.8384 10.3136C22.0947 10.4251 22.3065 10.6034 22.5182 10.7817C23.9337 11.9632 26.252 11.3725 26.7424 9.71178C25.8953 9.51116 25.0483 9.32168 24.1789 9.2771C21.7269 8.99846 19.3195 9.24367 17.0235 10.113C11.8743 12.0523 8.38573 15.5074 7.57211 21.1359C7.04827 24.7248 8.17397 27.9124 10.4699 30.6988C10.6483 30.9105 10.7709 30.8437 10.9603 30.7545C12.1863 30.1415 13.4792 29.9855 14.8278 30.2418C15.4297 30.3533 16.0204 30.4647 16.6223 30.5762C18.4836 31.1334 20.3449 31.713 22.0947 32.5601C22.3845 32.705 22.6185 32.6938 22.9195 32.5601C24.8254 31.6573 26.8204 30.9997 28.8712 30.487C30.5987 30.0635 32.3151 29.874 33.9758 30.7099C34.2879 30.866 34.4439 30.8102 34.6446 30.5539C38.1888 26.2852 38.512 20.3892 35.4247 15.7304C35.1127 15.2622 35.0346 14.8499 35.4247 14.404C36.0823 14.1365 36.3498 14.2257 36.7399 14.8164C37.2526 15.5855 37.7096 16.3879 38.0439 17.2461C38.1442 17.5136 38.278 17.6474 38.6012 17.6474C41.4879 17.6697 43.6836 19.4864 44.2743 22.3174C44.9096 25.3824 42.6024 28.5923 39.4929 28.9712C38.969 29.0381 38.4563 29.0938 37.9325 28.9712C37.6984 28.9155 37.5535 28.9935 37.4309 29.2164C37.0074 30.0635 36.4613 30.8214 35.8706 31.557C35.7814 31.6684 35.5696 31.7687 35.7814 31.9805C37.0743 33.2734 37.4867 34.9564 37.7987 36.6505C38.8018 42.1229 37.8322 47.2833 34.9009 51.9978C32.7498 55.4641 29.6291 57.7043 25.6055 58.596C25.1374 58.6963 24.647 58.6629 24.2012 58.8523H21.2588C20.7127 58.596 20.0997 58.6071 19.5312 58.4511C17.9263 58.0387 16.4328 57.37 15.0507 56.4672C14.4935 56.1105 14.4155 55.843 14.6607 55.1966C15.1176 54.7842 15.5411 54.8957 16.0316 55.1966C19.8879 57.5929 23.9337 58.0387 28.0687 56.066C32.0254 54.1824 34.3436 50.8721 35.5808 46.7483C35.6699 46.4585 35.5028 46.3136 35.3913 46.1353C30.4761 38.6567 23.7331 33.7861 14.9616 31.8022C12.2421 31.1892 10.1356 32.6492 9.43341 34.6108C8.38573 37.5644 8.17396 40.6071 8.70895 43.6833C9.32195 47.1941 10.782 50.3149 13.2563 52.9118C13.7133 53.391 13.7244 53.6474 13.3901 54.2158L13.3678 54.2604ZM36.1046 44.4077C36.1715 44.3297 36.2049 44.3074 36.2049 44.274C36.8291 41.0418 36.673 37.8542 35.6031 34.7334C34.9789 32.9056 33.2625 31.6907 31.3343 31.713C29.9969 31.7353 28.7374 32.1477 27.4668 32.5155C26.4192 32.8164 25.3826 33.1842 24.3127 33.6858C29.0941 36.3941 33.0173 39.9161 36.1046 44.4077ZM42.7585 23.365C42.7585 21.2585 41.2427 19.5533 39.125 19.2523C38.735 19.1966 38.7238 19.3638 38.7907 19.6536C39.3591 22.1502 39.2142 24.6022 38.4006 27.0208C38.278 27.3886 38.356 27.4777 38.7238 27.4666C40.9418 27.4443 42.7585 25.6053 42.7585 23.3762V23.365ZM2.2557 23.3204C2.2557 25.5718 4.00554 27.3886 6.25694 27.4443C6.53557 27.4443 6.78078 27.4777 6.62474 27.043C5.78883 24.591 5.64393 22.1056 6.23465 19.5756C6.30152 19.3081 6.23465 19.2078 5.93372 19.2412C3.86065 19.4641 2.2557 21.2362 2.2557 23.3204Z" fill="#2E3191" stroke="#2E3191" stroke-width="0.25" stroke-miterlimit="10"/>
<path d="M14.9393 22.6851C14.3597 23.2981 13.9139 23.2647 13.4458 22.5848C13.3343 21.7601 13.6575 21.1136 14.2148 20.5452C15.842 19.3526 17.5362 20.3669 17.904 21.5706C17.9708 21.7935 18.0043 22.0164 18.0154 22.2393C18.0377 22.7074 17.8037 23.0084 17.3467 23.0975C16.9455 23.1755 16.5554 22.9192 16.4773 22.4622C16.3882 21.9941 16.2656 21.5929 15.686 21.6152C15.0953 21.6375 15.0396 22.0944 14.9504 22.5291C14.9504 22.5848 14.9393 22.6294 14.9281 22.6851H14.9393Z" fill="#2E3191" stroke="white" stroke-width="0.25" stroke-miterlimit="10"/>
<path d="M31.5461 22.5737C31.078 23.2647 30.6322 23.2982 30.0526 22.6852C30.0526 22.6629 30.0526 22.6517 30.0526 22.6294C29.9634 22.1725 29.9634 21.6375 29.3059 21.6152C28.6928 21.5929 28.6148 22.0499 28.5034 22.518C28.4031 22.9527 28.0687 23.1644 27.6452 23.0975C27.1882 23.0307 26.9764 22.7075 26.9764 22.2393C26.9876 21.0022 28.091 19.9657 29.3393 20.0102C30.6433 20.066 31.6241 21.1248 31.5572 22.4177C31.5572 22.4734 31.5572 22.518 31.5461 22.5737Z" fill="#2E3191" stroke="white" stroke-width="0.25" stroke-miterlimit="10"/>
<path d="M22.3734 25.6164C21.6489 25.5718 20.9356 25.2932 20.3783 24.6913C20.0105 24.3012 20.0105 23.8666 20.3449 23.5322C20.657 23.2313 21.0805 23.2313 21.4706 23.5545C22.2731 24.2121 22.73 24.2009 23.5437 23.5545C23.9337 23.2424 24.3573 23.2424 24.6693 23.5545C24.9926 23.8777 24.9814 24.2901 24.6582 24.6802C24.1789 25.2486 23.265 25.6387 22.3734 25.6275V25.6164Z" fill="#2E3191" stroke="white" stroke-width="0.25" stroke-miterlimit="10"/>
</g>
<defs>
<clipPath id="clip0_496_10909">
<rect width="43.76" height="64" fill="white" transform="translate(0.619995)"/>
</clipPath>
</defs>
</svg>
