<svg width="125" height="24" viewBox="0 0 125 24" fill="none" xmlns="http://www.w3.org/2000/svg">
<path d="M12.7604 21.9979C12.5269 21.9267 12.2816 21.9267 12.0441 21.889C11.306 21.7675 10.5977 21.558 9.90742 21.2605C8.82809 20.7933 7.86248 20.1439 7.01657 19.3018C6.98265 19.2662 6.94674 19.2096 6.89287 19.2347C6.81706 19.2703 6.88889 19.3248 6.89687 19.3646C6.95273 19.6914 7.01856 20.0161 7.07243 20.3429C7.09637 20.4896 7.11233 20.6425 6.97068 20.7493C6.76918 20.9002 6.51381 20.7912 6.45596 20.5126C6.34822 19.9889 6.25445 19.4631 6.1567 18.9394C6.11679 18.7278 6.08288 18.5141 6.04298 18.3004C5.97514 17.9359 6.13076 17.7536 6.47391 17.8228C7.19413 17.9715 7.91235 18.1307 8.63058 18.2878C8.8241 18.3297 8.88994 18.4408 8.86201 18.6754C8.84006 18.8618 8.72435 18.9163 8.56075 18.9142C8.22159 18.9142 7.90437 18.7801 7.5712 18.7382C7.51334 18.7299 7.4495 18.732 7.39164 18.7026C7.37768 18.6859 7.36371 18.6796 7.34775 18.6984C7.35573 18.7068 7.3657 18.7131 7.37369 18.7215C7.76871 19.1782 8.23955 19.5427 8.72834 19.8737C9.41863 20.3429 10.1608 20.7033 10.9508 20.9484C11.5115 21.1243 12.082 21.2437 12.6666 21.3003C13.1474 21.3464 13.6302 21.3527 14.109 21.3275C14.5958 21.3003 15.0766 21.1956 15.5535 21.0803C16.3335 20.8918 17.0717 20.5859 17.768 20.1837C18.6797 19.6558 19.4798 18.9792 20.1641 18.1454C20.8803 17.2718 21.4369 16.3019 21.808 15.2188C22.0295 14.5694 22.197 13.9011 22.2669 13.2077C22.3247 12.6274 22.3866 12.0513 22.3407 11.4668C22.2689 10.543 22.1132 9.638 21.806 8.76443C21.6604 8.35173 21.4988 7.94742 21.3013 7.55986C21.2135 7.38808 21.2873 7.2561 21.397 7.17021C21.5107 7.08223 21.6624 7.06756 21.7861 7.18487C21.826 7.22258 21.8679 7.26658 21.8938 7.31685C22.3287 8.19252 22.638 9.11637 22.8195 10.0863C22.9412 10.7315 23.009 11.3872 22.9991 12.0429C22.9791 13.6351 22.6439 15.1497 21.9497 16.57C21.4968 17.4981 20.9142 18.3193 20.2179 19.063C19.3102 20.0308 18.2548 20.7535 17.0677 21.2689C16.3854 21.5664 15.6752 21.7758 14.941 21.8911C14.6956 21.9288 14.4442 21.9225 14.2048 22H12.7564L12.7604 21.9979Z" fill="#2E3192"/>
<path d="M14.2088 2C14.4063 2.09846 14.6257 2.0838 14.8332 2.10894C15.3061 2.16969 15.7649 2.29119 16.2218 2.42736C17.0996 2.68922 17.9156 3.09563 18.6797 3.61517C19.1286 3.91893 19.5476 4.26668 19.9406 4.64586C19.9845 4.68776 20.0164 4.74851 20.1002 4.76527C20.1421 4.5872 20.0543 4.43008 20.0344 4.26668C20.0044 4.04043 19.9486 3.81628 19.9007 3.59212C19.8648 3.42034 19.9605 3.24856 20.1201 3.21085C20.3296 3.16057 20.4852 3.25066 20.5232 3.44758C20.6708 4.20593 20.8184 4.96219 20.9621 5.72054C21.0179 6.01802 20.8823 6.27569 20.5012 6.1877C19.8069 6.0264 19.1086 5.89651 18.4124 5.74987C18.2587 5.71845 18.139 5.62836 18.1091 5.45658C18.0832 5.30575 18.145 5.19263 18.2727 5.1193C18.3665 5.06484 18.4682 5.0795 18.562 5.09836C18.9111 5.16958 19.2603 5.24709 19.6533 5.33298C19.5156 5.09417 19.3261 4.96847 19.1625 4.82602C18.5002 4.24573 17.7739 3.76809 16.9759 3.42034C16.3395 3.14172 15.6831 2.93433 14.9988 2.81701C14.4661 2.72484 13.9295 2.66199 13.3908 2.67456C12.1678 2.6997 10.9887 2.9448 9.86749 3.48109C8.99764 3.89588 8.21957 4.44265 7.51332 5.11302C6.29433 6.27359 5.47236 7.69603 4.98756 9.33843C4.81997 9.90824 4.7282 10.4927 4.66236 11.0856C4.60451 11.5925 4.6085 12.0995 4.63842 12.6002C4.70426 13.7231 4.94766 14.8061 5.41051 15.8263C5.4963 16.0128 5.59007 16.195 5.66788 16.3836C5.72573 16.5239 5.74968 16.6643 5.62399 16.7942C5.44643 16.9764 5.26687 16.966 5.13919 16.7418C4.87783 16.2809 4.69428 15.7823 4.51672 15.2817C4.33916 14.7768 4.21946 14.2531 4.13168 13.7251C4.08978 13.48 4.0419 13.2349 4.03791 12.9836C4.03791 12.9165 4.06185 12.839 4 12.7824V11.1421C4.04389 11.1212 4.03791 11.0793 4.03791 11.0416C4.0399 10.6477 4.11572 10.2602 4.19751 9.88311C4.4848 8.55494 4.99554 7.32524 5.74768 6.20865C6.41403 5.22196 7.22403 4.39656 8.16969 3.71572C8.92782 3.17105 9.7438 2.75207 10.6216 2.46926C11.1184 2.31005 11.6192 2.18435 12.1339 2.11103C12.3414 2.0817 12.5588 2.09637 12.7583 2.0021H14.2068L14.2088 2Z" fill="#2E3192"/>
<path d="M10.1248 7.67087C10.0131 7.67087 9.9014 7.67087 9.79167 7.66458C9.64803 7.6583 9.54628 7.72952 9.46248 7.84474C9.3348 8.02071 9.16522 8.06471 9.02357 7.95577C8.84202 7.8196 8.82207 7.68344 8.94776 7.47814C9.1333 7.17228 9.39864 7.00259 9.74379 7.00259C12.2436 6.9984 14.7414 6.9984 17.2413 7.00259C17.5924 7.00259 17.8857 7.15971 18.0652 7.4928C18.4563 8.21763 18.8393 8.94666 19.2263 9.6715C19.6333 10.4298 20.0363 11.1924 20.4553 11.9445C20.6708 12.332 20.8144 12.7196 20.7945 13.1867C20.7665 13.8697 20.7885 14.5526 20.7865 15.2355C20.7865 15.9164 20.3915 16.3312 19.7451 16.3312C15.5754 16.3312 11.4057 16.327 7.23599 16.3354C6.71328 16.3354 6.36215 16.0002 6.25043 15.6042C6.2185 15.489 6.2225 15.3738 6.2225 15.2586C6.2205 14.4898 6.22848 13.723 6.2185 12.9542C6.21451 12.684 6.27636 12.4472 6.40205 12.2147C6.82101 11.4417 7.23599 10.6645 7.65296 9.89146C7.78264 9.65054 7.93227 9.60236 8.13576 9.72387C8.29736 9.82023 8.31931 10.0109 8.19761 10.235C7.84249 10.8907 7.48737 11.5485 7.13225 12.2063C7.08436 12.2964 7.09234 12.3488 7.21005 12.3383C7.37564 12.3236 7.54323 12.3592 7.70882 12.3174C7.77266 12.353 7.84249 12.3383 7.91032 12.3383C11.675 12.3383 15.4417 12.3383 19.2064 12.3383H19.9126C19.8987 12.2901 19.8947 12.2713 19.8867 12.2545C19.1126 10.8048 18.3365 9.35517 17.5625 7.9034C17.4707 7.72952 17.343 7.66458 17.1555 7.66458C15.4976 7.66877 13.8417 7.66458 12.1838 7.66458C11.4975 7.66458 10.8112 7.66877 10.1248 7.67087ZM7.48936 13.6581C7.64099 13.6623 7.79461 13.6665 7.94623 13.6707C8.17766 13.6769 8.25547 13.744 8.31133 13.987C8.26544 14.2384 8.15971 14.3347 7.93027 14.3389C7.78264 14.341 7.637 14.3431 7.48936 14.3431C7.31579 14.341 7.14422 14.3431 6.97065 14.3347C6.87887 14.3305 6.85493 14.3724 6.85493 14.4604C6.85892 14.7537 6.85294 15.047 6.85892 15.3382C6.86291 15.5435 6.97264 15.6566 7.17215 15.6671C7.28986 15.6734 7.40757 15.665 7.52527 15.6629C7.56917 15.6629 7.61106 15.6671 7.65495 15.6671C11.5453 15.6671 15.4377 15.6671 19.3281 15.6671C19.4897 15.6671 19.6493 15.6671 19.8109 15.6629C20.0164 15.6566 20.1461 15.5184 20.1481 15.3068C20.1501 15.0407 20.1441 14.7726 20.1521 14.5065C20.156 14.3787 20.1142 14.3389 19.9944 14.341C19.6852 14.3473 19.376 14.3389 19.0667 14.3389C15.8188 14.3389 12.5708 14.3389 9.32283 14.3389C9.02556 14.3389 8.95574 14.2845 8.86995 13.9912C8.94377 13.7314 9.02357 13.6707 9.29889 13.6707C12.7643 13.6707 16.2278 13.6686 19.6932 13.6665C20.184 13.6665 20.182 13.6665 20.1541 13.1406C20.1481 13.0359 20.1142 13.0066 20.0224 13.0087C19.787 13.0108 19.5515 13.0045 19.3181 13.0045C15.4517 13.0045 11.5852 13.0045 7.7168 13.0045C7.64298 13.0045 7.56916 13.0087 7.49535 13.0108C6.68535 13.0108 6.88885 12.8788 6.86092 13.5282C6.86092 13.5345 6.86092 13.5408 6.86092 13.5471C6.85094 13.6413 6.89284 13.6727 6.97862 13.6686C7.1502 13.6623 7.32178 13.6602 7.49335 13.656L7.48936 13.6581Z" fill="#2E3192"/>
<path d="M10.1249 7.6709C10.8112 7.6709 11.4975 7.66461 12.1838 7.66461C13.8417 7.66461 15.4976 7.6688 17.1555 7.66461C17.343 7.66461 17.4707 7.72955 17.5625 7.90343C18.3346 9.3552 19.1107 10.8049 19.8868 12.2545C19.8947 12.2713 19.8987 12.2901 19.9127 12.3383H19.2064C15.4417 12.3383 11.6751 12.3383 7.91036 12.3383C7.84253 12.3383 7.7747 12.3509 7.70886 12.3174C7.77669 12.0136 7.96623 11.7748 8.10189 11.5087C8.43507 10.8593 8.79418 10.2225 9.13933 9.57935C9.45455 8.99278 9.76378 8.40201 10.079 7.81335C10.1049 7.76726 10.1289 7.72536 10.1229 7.6688L10.1249 7.6709ZM8.75428 11.3181C8.75627 11.4983 8.9059 11.6826 9.04955 11.6847C9.21713 11.6868 9.40268 11.5046 9.38073 11.3349C9.3508 11.1149 9.27299 11.0018 9.04556 11.0185C8.868 11.0332 8.75228 11.1421 8.75428 11.316V11.3181ZM17.9376 11.0227C17.7461 11.0206 17.6244 11.1338 17.6263 11.316C17.6263 11.4962 17.774 11.6805 17.9176 11.6868C18.0812 11.6931 18.2528 11.5192 18.2548 11.3412C18.2588 11.1505 18.1331 11.0248 17.9376 11.0227ZM15.0846 11.0227C14.8931 11.0227 14.7674 11.1463 14.7674 11.337C14.7674 11.4983 14.939 11.6868 15.0826 11.6868C15.2383 11.6868 15.3959 11.5129 15.3999 11.3391C15.4038 11.1421 15.2861 11.0248 15.0846 11.0248V11.0227ZM10.6496 8.66597C10.6496 8.47953 10.5079 8.33917 10.3164 8.33707C10.1668 8.33498 10.0231 8.49629 10.0192 8.67016C10.0152 8.85242 10.1528 8.99278 10.3344 8.99487C10.5159 8.99487 10.6496 8.85661 10.6496 8.66807V8.66597ZM9.71391 9.69457C9.51041 9.69457 9.39071 9.80141 9.38672 9.99414C9.38273 10.1848 9.51241 10.3209 9.69595 10.3251C9.8795 10.3272 10.0132 10.1911 10.0152 10.0004C10.0152 9.81188 9.90144 9.69666 9.71191 9.69457H9.71391ZM14.7674 8.67645C14.7674 8.49838 14.6497 8.3664 14.4881 8.3664C14.2487 8.3664 14.137 8.46486 14.137 8.67854C14.137 8.86289 14.2726 8.99697 14.4602 8.99487C14.6337 8.99278 14.7674 8.85451 14.7674 8.67645ZM12.2277 9.69457C12.0461 9.69457 11.9125 9.81607 11.9085 9.98366C11.9045 10.1596 12.0541 10.3209 12.2217 10.3251C12.4152 10.3293 12.5409 10.1952 12.5389 9.98366C12.5369 9.78884 12.4352 9.69457 12.2277 9.69457ZM14.7594 9.69457C14.5659 9.69457 14.4302 9.82864 14.4322 10.0088C14.4342 10.1617 14.6118 10.3272 14.7714 10.323C14.9609 10.3188 15.0647 10.2078 15.0627 10.0046C15.0607 9.77836 14.9749 9.69038 14.7594 9.69247V9.69457ZM16.956 8.67645C16.956 8.45229 16.8483 8.33079 16.6547 8.33707C16.4832 8.34336 16.3595 8.47743 16.3595 8.66178C16.3595 8.85242 16.4892 8.99278 16.6707 8.99278C16.8483 8.99278 16.958 8.87337 16.958 8.67645H16.956ZM12.8541 8.6534C12.8541 8.46067 12.7524 8.3664 12.5469 8.3664C12.3314 8.3664 12.2417 8.4502 12.2397 8.6534C12.2377 8.85451 12.3733 8.99906 12.5609 8.99487C12.7364 8.99068 12.8561 8.85242 12.8541 8.6555V8.6534ZM17.6144 9.99204C17.5685 9.75951 17.5066 9.67571 17.2692 9.69247C17.0977 9.70504 16.9859 9.82445 16.9919 10.0067C16.9979 10.1973 17.1356 10.3314 17.3191 10.323C17.4867 10.3168 17.6204 10.1659 17.6144 9.99204ZM12.2038 11.3307C12.2038 11.1086 12.1279 11.0248 11.9224 11.0206C11.7289 11.0164 11.6112 11.1275 11.6072 11.3118C11.6032 11.5108 11.7209 11.6449 11.9045 11.6449C12.116 11.6449 12.2018 11.5548 12.2038 11.3286V11.3307Z" fill="#EAEAF4"/>
<path d="M8.57274 8.52353C8.81214 8.52353 8.86601 8.64084 8.88995 8.83357C8.9099 8.99698 8.72635 9.18342 8.56874 9.18552C8.42111 9.18761 8.26549 8.99698 8.26948 8.81891C8.27347 8.63246 8.38719 8.52143 8.57473 8.52353H8.57274Z" fill="#2E3192"/>
<path d="M8.86401 13.9933C8.9498 14.2866 9.02162 14.341 9.31689 14.341C12.5649 14.341 15.8128 14.341 19.0608 14.341C19.37 14.341 19.6793 14.3494 19.9885 14.3431C20.1102 14.341 20.1501 14.3809 20.1461 14.5086C20.1381 14.7747 20.1461 15.0428 20.1421 15.3089C20.1421 15.5184 20.0105 15.6566 19.805 15.665C19.6434 15.6713 19.4838 15.6692 19.3222 15.6692C15.4318 15.6692 11.5394 15.6692 7.64901 15.6692C7.60512 15.6692 7.56322 15.6671 7.51933 15.665C7.45749 15.2272 7.49539 14.7852 7.48342 14.3452C7.63106 14.3452 7.7767 14.3431 7.92433 14.341C8.15576 14.3369 8.2615 14.2405 8.30539 13.9891C8.49093 13.9891 8.67448 13.9912 8.86002 13.9933H8.86401Z" fill="#A8C3E4"/>
<path d="M8.86396 13.9933C8.67842 13.9933 8.49487 13.9912 8.30933 13.9891C8.25347 13.7461 8.17367 13.677 7.94423 13.6728C7.79261 13.6686 7.63899 13.6644 7.48737 13.6602C7.48737 13.4444 7.48736 13.2287 7.48936 13.0129C7.56318 13.0108 7.63699 13.0066 7.71081 13.0066C11.5773 13.0066 15.4437 13.0066 19.3121 13.0066C19.5476 13.0066 19.783 13.0129 20.0164 13.0108C20.1102 13.0108 20.1441 13.0401 20.1481 13.1428C20.174 13.6686 20.178 13.6686 19.6872 13.6686C16.2218 13.6686 12.7583 13.6707 9.2929 13.6728C9.01559 13.6728 8.93778 13.7335 8.86396 13.9933Z" fill="#EAEAF4"/>
<path d="M8.75222 11.3181C8.75023 11.1442 8.86594 11.0332 9.0435 11.0206C9.27094 11.0018 9.34875 11.117 9.37867 11.3369C9.40062 11.5045 9.21508 11.6889 9.04749 11.6868C8.90385 11.6847 8.75422 11.4983 8.75222 11.3202V11.3181Z" fill="#2E3192"/>
<path d="M17.9355 11.0227C18.133 11.0248 18.2567 11.1505 18.2527 11.3412C18.2487 11.5192 18.0771 11.6931 17.9155 11.6868C17.7699 11.6805 17.6243 11.4962 17.6243 11.316C17.6243 11.1338 17.744 11.0206 17.9355 11.0227Z" fill="#2E3192"/>
<path d="M15.0826 11.0227C15.2841 11.0227 15.4018 11.1421 15.3978 11.337C15.3938 11.5087 15.2362 11.6826 15.0806 11.6847C14.937 11.6847 14.7654 11.4962 14.7654 11.3349C14.7654 11.1442 14.8911 11.0206 15.0826 11.0206V11.0227Z" fill="#2E3192"/>
<path d="M10.6476 8.66598C10.6476 8.85661 10.5139 8.99487 10.3323 8.99278C10.1508 8.99278 10.0131 8.85033 10.0171 8.66807C10.0211 8.49419 10.1647 8.33289 10.3144 8.33498C10.5079 8.33708 10.6496 8.47743 10.6476 8.66388V8.66598Z" fill="#2E3192"/>
<path d="M9.71181 9.69455C9.90134 9.69455 10.0151 9.81186 10.0151 10.0004C10.0151 10.191 9.87939 10.3272 9.69585 10.3251C9.51031 10.323 9.38063 10.1848 9.38661 9.99412C9.3906 9.80139 9.51031 9.69245 9.7138 9.69455H9.71181Z" fill="#2E3192"/>
<path d="M14.7654 8.67644C14.7654 8.85451 14.6317 8.99068 14.4581 8.99487C14.2726 8.99696 14.1349 8.86289 14.1349 8.67854C14.1349 8.46486 14.2467 8.3643 14.4861 8.3664C14.6477 8.3664 14.7654 8.49838 14.7654 8.67644Z" fill="#2E3192"/>
<path d="M12.2257 9.69455C12.4332 9.69455 12.5349 9.78882 12.5369 9.98364C12.5389 10.1952 12.4132 10.3293 12.2197 10.3251C12.0501 10.3209 11.9025 10.1596 11.9065 9.98364C11.9104 9.81605 12.0441 9.69455 12.2257 9.69455Z" fill="#2E3192"/>
<path d="M14.7594 9.69455C14.9749 9.69455 15.0607 9.78044 15.0627 10.0067C15.0646 10.2078 14.9609 10.3209 14.7714 10.3251C14.6118 10.3272 14.4342 10.1638 14.4322 10.0109C14.4302 9.82862 14.5659 9.69664 14.7594 9.69664V9.69455Z" fill="#2E3192"/>
<path d="M16.9559 8.67853C16.9559 8.87545 16.8482 8.99696 16.6687 8.99486C16.4891 8.99486 16.3574 8.85241 16.3574 8.66387C16.3574 8.47952 16.4811 8.34545 16.6527 8.33916C16.8442 8.33288 16.952 8.45438 16.9539 8.67853H16.9559Z" fill="#2E3192"/>
<path d="M12.8561 8.65342C12.8561 8.85243 12.7384 8.99069 12.5629 8.99279C12.3753 8.99698 12.2397 8.85243 12.2417 8.65132C12.2437 8.44811 12.3334 8.36432 12.5489 8.36432C12.7544 8.36432 12.8561 8.45859 12.8561 8.65132V8.65342Z" fill="#2E3192"/>
<path d="M17.6163 9.99414C17.6223 10.168 17.4887 10.3189 17.3211 10.3251C17.1375 10.3314 16.9979 10.1994 16.9939 10.0088C16.9899 9.82655 17.1016 9.70505 17.2712 9.69457C17.5086 9.67781 17.5724 9.76161 17.6163 9.99414Z" fill="#2E3192"/>
<path d="M12.2037 11.3328C12.2037 11.559 12.116 11.6491 11.9045 11.6491C11.7209 11.6491 11.6032 11.515 11.6072 11.316C11.6112 11.1317 11.7289 11.0206 11.9224 11.0248C12.1279 11.029 12.2057 11.1128 12.2037 11.3349V11.3328Z" fill="#2E3192"/>
<path d="M52.306 7.2C52.9967 7.2 53.5987 7.33067 54.112 7.592C54.6347 7.85333 55.064 8.21733 55.4 8.684C55.736 9.14133 55.9833 9.664 56.142 10.252C56.31 10.84 56.394 11.456 56.394 12.1C56.394 12.996 56.2447 13.8173 55.946 14.564C55.6567 15.3013 55.2087 15.894 54.602 16.342C54.0047 16.7807 53.2393 17 52.306 17H48.736C48.624 17 48.526 16.958 48.442 16.874C48.358 16.79 48.316 16.692 48.316 16.58V7.62C48.316 7.508 48.358 7.41 48.442 7.326C48.526 7.242 48.624 7.2 48.736 7.2H52.306ZM52.166 16.174C52.9593 16.174 53.5987 15.992 54.084 15.628C54.5693 15.264 54.924 14.774 55.148 14.158C55.3813 13.5327 55.498 12.8467 55.498 12.1C55.498 11.5587 55.4327 11.0453 55.302 10.56C55.1807 10.0653 54.9847 9.63133 54.714 9.258C54.4527 8.87533 54.1073 8.57667 53.678 8.362C53.258 8.138 52.754 8.026 52.166 8.026H49.1L49.198 7.9V16.314L49.114 16.174H52.166ZM64.9419 13.416C64.9419 14.1253 64.7879 14.7647 64.4799 15.334C64.1719 15.894 63.7519 16.3373 63.2199 16.664C62.6879 16.9813 62.0812 17.14 61.3999 17.14C60.7372 17.14 60.1352 16.9813 59.5939 16.664C59.0619 16.3373 58.6372 15.894 58.3199 15.334C58.0119 14.7647 57.8579 14.1253 57.8579 13.416C57.8579 12.6973 58.0119 12.058 58.3199 11.498C58.6372 10.938 59.0619 10.4947 59.5939 10.168C60.1352 9.84133 60.7372 9.678 61.3999 9.678C62.0812 9.678 62.6879 9.84133 63.2199 10.168C63.7519 10.4947 64.1719 10.938 64.4799 11.498C64.7879 12.058 64.9419 12.6973 64.9419 13.416ZM64.1019 13.416C64.1019 12.8467 63.9852 12.3427 63.7519 11.904C63.5185 11.456 63.1965 11.106 62.7859 10.854C62.3845 10.5927 61.9225 10.462 61.3999 10.462C60.8959 10.462 60.4385 10.5927 60.0279 10.854C59.6172 11.106 59.2905 11.456 59.0479 11.904C58.8145 12.3427 58.6979 12.8467 58.6979 13.416C58.6979 13.9853 58.8145 14.4893 59.0479 14.928C59.2905 15.3667 59.6172 15.7167 60.0279 15.978C60.4385 16.23 60.8959 16.356 61.3999 16.356C61.9225 16.356 62.3845 16.23 62.7859 15.978C63.1965 15.7167 63.5185 15.3667 63.7519 14.928C63.9852 14.4893 64.1019 13.9853 64.1019 13.416ZM70.1291 9.678C70.7638 9.678 71.3238 9.83667 71.8091 10.154C72.3038 10.4713 72.6958 10.91 72.9851 11.47C73.2744 12.0207 73.4191 12.66 73.4191 13.388C73.4191 14.0973 73.2744 14.7367 72.9851 15.306C72.6958 15.8753 72.3038 16.3233 71.8091 16.65C71.3144 16.9767 70.7591 17.14 70.1431 17.14C69.8164 17.14 69.5038 17.0887 69.2051 16.986C68.9158 16.8833 68.6498 16.748 68.4071 16.58C68.1644 16.4027 67.9498 16.1973 67.7631 15.964C67.5764 15.7307 67.4271 15.4787 67.3151 15.208L67.5671 15.026V16.608C67.5671 16.7293 67.5251 16.832 67.4411 16.916C67.3664 16.9907 67.2684 17.028 67.1471 17.028C67.0258 17.028 66.9231 16.9907 66.8391 16.916C66.7644 16.832 66.7271 16.7293 66.7271 16.608V7.074C66.7271 6.95267 66.7644 6.85467 66.8391 6.78C66.9138 6.696 67.0164 6.654 67.1471 6.654C67.2684 6.654 67.3664 6.696 67.4411 6.78C67.5251 6.85467 67.5671 6.95267 67.5671 7.074V11.764L67.3711 11.652C67.4644 11.3627 67.5998 11.1013 67.7771 10.868C67.9638 10.6253 68.1784 10.4153 68.4211 10.238C68.6638 10.0607 68.9298 9.92533 69.2191 9.832C69.5084 9.72933 69.8118 9.678 70.1291 9.678ZM70.0591 10.462C69.5551 10.462 69.1118 10.588 68.7291 10.84C68.3464 11.092 68.0431 11.4373 67.8191 11.876C67.6044 12.3147 67.4971 12.8187 67.4971 13.388C67.4971 13.948 67.6044 14.4567 67.8191 14.914C68.0431 15.362 68.3464 15.7167 68.7291 15.978C69.1118 16.23 69.5551 16.356 70.0591 16.356C70.5538 16.356 70.9878 16.2253 71.3611 15.964C71.7438 15.7027 72.0471 15.348 72.2711 14.9C72.4951 14.4427 72.6071 13.9387 72.6071 13.388C72.6071 12.8187 72.4951 12.3147 72.2711 11.876C72.0471 11.4373 71.7438 11.092 71.3611 10.84C70.9878 10.588 70.5538 10.462 70.0591 10.462ZM76.1413 16.58C76.1413 16.692 76.0993 16.79 76.0153 16.874C75.9313 16.958 75.8333 17 75.7213 17C75.6 17 75.4973 16.958 75.4133 16.874C75.3387 16.79 75.3013 16.692 75.3013 16.58V7.06C75.3013 6.948 75.3433 6.85 75.4273 6.766C75.5113 6.682 75.6093 6.64 75.7213 6.64C75.8427 6.64 75.9407 6.682 76.0153 6.766C76.0993 6.85 76.1413 6.948 76.1413 7.06V16.58ZM81.5412 17.14C80.8225 17.14 80.1878 16.986 79.6372 16.678C79.0865 16.37 78.6572 15.9407 78.3492 15.39C78.0412 14.8393 77.8872 14.1953 77.8872 13.458C77.8872 12.6647 78.0412 11.988 78.3492 11.428C78.6665 10.868 79.0725 10.4387 79.5672 10.14C80.0712 9.832 80.6032 9.678 81.1632 9.678C81.5738 9.678 81.9705 9.75267 82.3532 9.902C82.7452 10.042 83.0905 10.2567 83.3892 10.546C83.6972 10.826 83.9398 11.1713 84.1172 11.582C84.3038 11.9927 84.4065 12.4687 84.4252 13.01C84.4158 13.122 84.3692 13.22 84.2852 13.304C84.2012 13.3787 84.1032 13.416 83.9912 13.416H78.3772L78.2092 12.66H83.7252L83.5432 12.828V12.548C83.5058 12.1093 83.3658 11.736 83.1232 11.428C82.8805 11.12 82.5865 10.8867 82.2412 10.728C81.8958 10.5693 81.5365 10.49 81.1632 10.49C80.8832 10.49 80.5938 10.546 80.2952 10.658C80.0058 10.77 79.7398 10.9473 79.4972 11.19C79.2638 11.4233 79.0725 11.7267 78.9232 12.1C78.7738 12.464 78.6992 12.898 78.6992 13.402C78.6992 13.9527 78.8112 14.452 79.0352 14.9C79.2592 15.348 79.5812 15.7027 80.0012 15.964C80.4305 16.2253 80.9392 16.356 81.5272 16.356C81.8538 16.356 82.1478 16.3093 82.4092 16.216C82.6705 16.1227 82.8992 16.0013 83.0952 15.852C83.2912 15.6933 83.4545 15.53 83.5852 15.362C83.6878 15.278 83.7905 15.236 83.8932 15.236C83.9865 15.236 84.0658 15.2733 84.1312 15.348C84.2058 15.4227 84.2432 15.5067 84.2432 15.6C84.2432 15.712 84.1965 15.81 84.1032 15.894C83.8232 16.23 83.4592 16.524 83.0112 16.776C82.5632 17.0187 82.0732 17.14 81.5412 17.14ZM97.4153 7.928C97.5273 8.00267 97.5926 8.10067 97.6113 8.222C97.63 8.334 97.602 8.446 97.5273 8.558C97.462 8.642 97.378 8.68867 97.2753 8.698C97.1726 8.70733 97.0746 8.68867 96.9813 8.642C96.6266 8.40867 96.244 8.22667 95.8333 8.096C95.432 7.96533 94.998 7.9 94.5313 7.9C93.962 7.9 93.43 8.00267 92.9353 8.208C92.45 8.404 92.0253 8.69333 91.6613 9.076C91.2973 9.44933 91.0126 9.89267 90.8073 10.406C90.6113 10.9193 90.5133 11.484 90.5133 12.1C90.5133 12.7347 90.616 13.3133 90.8213 13.836C91.0266 14.3493 91.3113 14.7927 91.6753 15.166C92.0486 15.5393 92.478 15.824 92.9633 16.02C93.4486 16.216 93.9713 16.314 94.5313 16.314C94.9886 16.314 95.418 16.2487 95.8193 16.118C96.23 15.9873 96.6126 15.81 96.9673 15.586C97.0606 15.53 97.1586 15.5113 97.2613 15.53C97.3733 15.5393 97.462 15.5907 97.5273 15.684C97.6113 15.7867 97.6393 15.8987 97.6113 16.02C97.5926 16.132 97.532 16.2207 97.4293 16.286C97.196 16.4353 96.9206 16.5753 96.6033 16.706C96.286 16.8367 95.95 16.9393 95.5953 17.014C95.2406 17.098 94.886 17.14 94.5313 17.14C93.8593 17.14 93.2293 17.0187 92.6413 16.776C92.0533 16.5333 91.5306 16.1927 91.0733 15.754C90.616 15.306 90.2566 14.774 89.9953 14.158C89.7433 13.542 89.6173 12.856 89.6173 12.1C89.6173 11.372 89.7433 10.7047 89.9953 10.098C90.2473 9.482 90.5973 8.95 91.0453 8.502C91.4933 8.054 92.016 7.704 92.6133 7.452C93.2106 7.2 93.85 7.074 94.5313 7.074C95.0633 7.074 95.5766 7.14867 96.0713 7.298C96.566 7.44733 97.014 7.65733 97.4153 7.928ZM105.064 9.846C105.185 9.846 105.283 9.888 105.358 9.972C105.442 10.056 105.484 10.1587 105.484 10.28V16.58C105.484 16.692 105.442 16.79 105.358 16.874C105.274 16.958 105.176 17 105.064 17C104.942 17 104.84 16.958 104.756 16.874C104.681 16.79 104.644 16.692 104.644 16.58V14.914L104.882 14.802C104.882 15.0633 104.807 15.3293 104.658 15.6C104.518 15.8707 104.322 16.1227 104.07 16.356C103.818 16.5893 103.519 16.7807 103.174 16.93C102.838 17.07 102.474 17.14 102.082 17.14C101.447 17.14 100.878 16.9767 100.374 16.65C99.8791 16.3233 99.4871 15.8753 99.1978 15.306C98.9178 14.7367 98.7778 14.0973 98.7778 13.388C98.7778 12.66 98.9225 12.0207 99.2118 11.47C99.5011 10.91 99.8931 10.4713 100.388 10.154C100.882 9.83667 101.442 9.678 102.068 9.678C102.469 9.678 102.842 9.748 103.188 9.888C103.542 10.028 103.85 10.2193 104.112 10.462C104.373 10.7047 104.574 10.9847 104.714 11.302C104.863 11.61 104.938 11.932 104.938 12.268L104.644 12.058V10.28C104.644 10.1587 104.681 10.056 104.756 9.972C104.84 9.888 104.942 9.846 105.064 9.846ZM102.152 16.356C102.646 16.356 103.085 16.23 103.468 15.978C103.85 15.7167 104.149 15.362 104.364 14.914C104.588 14.4567 104.7 13.948 104.7 13.388C104.7 12.8373 104.588 12.3427 104.364 11.904C104.149 11.4653 103.85 11.1153 103.468 10.854C103.085 10.5927 102.646 10.462 102.152 10.462C101.666 10.462 101.228 10.588 100.836 10.84C100.453 11.092 100.15 11.4373 99.9258 11.876C99.7111 12.3147 99.6038 12.8187 99.6038 13.388C99.6038 13.948 99.7111 14.4567 99.9258 14.914C100.15 15.362 100.453 15.7167 100.836 15.978C101.218 16.23 101.657 16.356 102.152 16.356ZM108.108 17C107.977 17 107.875 16.958 107.8 16.874C107.725 16.79 107.688 16.692 107.688 16.58V10.308C107.688 10.196 107.725 10.098 107.8 10.014C107.884 9.93 107.987 9.888 108.108 9.888C108.229 9.888 108.327 9.93 108.402 10.014C108.486 10.098 108.528 10.196 108.528 10.308V12.408L108.318 12.45C108.346 12.1233 108.425 11.8013 108.556 11.484C108.696 11.1573 108.883 10.8587 109.116 10.588C109.349 10.3173 109.625 10.098 109.942 9.93C110.269 9.762 110.633 9.678 111.034 9.678C111.202 9.678 111.365 9.71533 111.524 9.79C111.683 9.85533 111.762 9.96733 111.762 10.126C111.762 10.266 111.725 10.3733 111.65 10.448C111.575 10.5227 111.487 10.56 111.384 10.56C111.3 10.56 111.207 10.5367 111.104 10.49C111.011 10.4433 110.885 10.42 110.726 10.42C110.465 10.42 110.203 10.4993 109.942 10.658C109.681 10.8073 109.443 11.0127 109.228 11.274C109.013 11.5353 108.841 11.8293 108.71 12.156C108.589 12.4733 108.528 12.7953 108.528 13.122V16.58C108.528 16.692 108.486 16.79 108.402 16.874C108.318 16.958 108.22 17 108.108 17ZM118.777 9.846C118.898 9.846 118.996 9.888 119.071 9.972C119.155 10.056 119.197 10.1587 119.197 10.28V16.58C119.197 16.692 119.155 16.79 119.071 16.874C118.987 16.958 118.889 17 118.777 17C118.655 17 118.553 16.958 118.469 16.874C118.394 16.79 118.357 16.692 118.357 16.58V14.914L118.595 14.802C118.595 15.0633 118.52 15.3293 118.371 15.6C118.231 15.8707 118.035 16.1227 117.783 16.356C117.531 16.5893 117.232 16.7807 116.887 16.93C116.551 17.07 116.187 17.14 115.795 17.14C115.16 17.14 114.591 16.9767 114.087 16.65C113.592 16.3233 113.2 15.8753 112.911 15.306C112.631 14.7367 112.491 14.0973 112.491 13.388C112.491 12.66 112.635 12.0207 112.925 11.47C113.214 10.91 113.606 10.4713 114.101 10.154C114.595 9.83667 115.155 9.678 115.781 9.678C116.182 9.678 116.555 9.748 116.901 9.888C117.255 10.028 117.563 10.2193 117.825 10.462C118.086 10.7047 118.287 10.9847 118.427 11.302C118.576 11.61 118.651 11.932 118.651 12.268L118.357 12.058V10.28C118.357 10.1587 118.394 10.056 118.469 9.972C118.553 9.888 118.655 9.846 118.777 9.846ZM115.865 16.356C116.359 16.356 116.798 16.23 117.181 15.978C117.563 15.7167 117.862 15.362 118.077 14.914C118.301 14.4567 118.413 13.948 118.413 13.388C118.413 12.8373 118.301 12.3427 118.077 11.904C117.862 11.4653 117.563 11.1153 117.181 10.854C116.798 10.5927 116.359 10.462 115.865 10.462C115.379 10.462 114.941 10.588 114.549 10.84C114.166 11.092 113.863 11.4373 113.639 11.876C113.424 12.3147 113.317 12.8187 113.317 13.388C113.317 13.948 113.424 14.4567 113.639 14.914C113.863 15.362 114.166 15.7167 114.549 15.978C114.931 16.23 115.37 16.356 115.865 16.356Z" fill="#2E3192"/>
</svg>
