<svg width="33" height="33" viewBox="0 0 33 33" fill="none" xmlns="http://www.w3.org/2000/svg">
<path d="M24.9081 11.1902C24.3715 11.4321 23.7601 11.5817 23.1751 11.6785C23.4522 11.6301 23.848 11.133 24.0108 10.9307C24.2571 10.6228 24.4594 10.2709 24.5782 9.89263C24.5914 9.86184 24.6002 9.82666 24.5738 9.80466C24.5386 9.79147 24.5122 9.79587 24.4814 9.81346C23.8348 10.1609 23.1619 10.4117 22.4493 10.592C22.3921 10.6052 22.3481 10.592 22.3085 10.5568C22.2514 10.4908 22.1942 10.4249 22.1326 10.3765C21.8335 10.1214 21.5124 9.91903 21.1473 9.77387C20.6723 9.58034 20.1488 9.49676 19.6342 9.53195C19.1328 9.56274 18.6445 9.7035 18.2003 9.93662C17.756 10.1697 17.3601 10.4908 17.0434 10.8823C16.718 11.287 16.476 11.762 16.3529 12.2679C16.2341 12.7561 16.2429 13.2355 16.3177 13.7282C16.3265 13.8118 16.3177 13.8206 16.2473 13.8118C13.4542 13.3939 11.1362 12.3954 9.25798 10.2533C9.17441 10.1609 9.13042 10.1609 9.06444 10.2621C8.24191 11.4937 8.64218 13.4775 9.66705 14.4496C9.80341 14.5815 9.94416 14.7091 10.0981 14.8278C10.0409 14.841 9.35915 14.7663 8.74774 14.4496C8.66417 14.3968 8.62458 14.4276 8.61579 14.5199C8.60699 14.6519 8.61579 14.775 8.63778 14.9202C8.79613 16.1694 9.66265 17.3262 10.8459 17.7793C10.9866 17.8365 11.1406 17.8892 11.2945 17.9156C11.0262 17.9772 10.7447 18.0168 9.97055 17.9552C9.87378 17.9376 9.83859 17.986 9.87378 18.0784C10.4544 19.6663 11.7124 20.1369 12.6537 20.4052C12.7812 20.4272 12.9044 20.4272 13.032 20.458C13.0232 20.4712 13.0188 20.4712 13.01 20.48C12.6977 20.955 11.6156 21.3113 11.1142 21.4873C10.1993 21.8084 9.2008 21.9535 8.23311 21.8567C8.07916 21.8348 8.04397 21.8348 8.00438 21.8567C7.9604 21.8831 7.99999 21.9183 8.04837 21.9623C8.24631 22.0943 8.44424 22.2086 8.64658 22.3186C9.26238 22.6441 9.90457 22.9036 10.5732 23.0883C14.0348 24.0428 17.9364 23.3435 20.5359 20.7571C22.5769 18.7294 23.2938 15.9319 23.2938 13.13C23.2938 13.02 23.4214 12.9584 23.5006 12.9013C24.0328 12.501 24.4902 12.0259 24.8861 11.4893C24.9741 11.3706 25.0093 11.265 25.0093 11.221V11.2078C25.0093 11.1638 24.9785 11.177 24.9081 11.2078V11.1902Z" fill="#2E3192"/>
</svg>
