<svg width="20" height="20" viewBox="0 0 20 20" fill="none" xmlns="http://www.w3.org/2000/svg">
<path d="M19.9984 8.35973C19.8842 8.66083 19.881 8.98436 19.8153 9.29537C19.6103 10.2681 19.2221 11.1578 18.6681 11.9765C17.9977 12.968 17.1368 13.7508 16.0918 14.3415C15.3082 14.784 14.4735 15.0611 13.5954 15.2322C12.9203 15.3637 12.2353 15.3658 11.5618 15.3017C10.1949 15.1707 8.94484 14.6916 7.83723 13.8677C7.71254 13.7748 7.6322 13.7633 7.52108 13.8932C7.34787 14.0957 7.15274 14.2789 6.96336 14.4672C6.90232 14.5278 6.87467 14.5669 6.93414 14.6598C7.12614 14.9593 7.06927 15.2823 6.82719 15.5453C6.35347 16.0599 5.8928 16.5864 5.42221 17.1041C4.74711 17.8471 4.05636 18.5772 3.39482 19.3318C2.99206 19.7915 2.51782 20.032 1.90532 19.9966C1.50517 19.9736 1.1744 19.7868 0.889542 19.5306C0.577556 19.2498 0.277569 18.9555 0.115316 18.5485C-0.118935 17.9599 0.0062771 17.2324 0.467474 16.7962C1.01319 16.2801 1.57769 15.7833 2.13331 15.2782C2.83763 14.6374 3.54142 13.996 4.24626 13.3557C4.34695 13.2644 4.45286 13.1788 4.55668 13.0907C4.73772 12.9357 5.08257 12.9211 5.31526 13.0677C5.40499 13.1246 5.46551 13.1319 5.54534 13.0458C5.73159 12.8459 5.92254 12.6487 6.12653 12.4671C6.24339 12.3632 6.22409 12.2865 6.14374 12.1801C5.62464 11.4881 5.24431 10.7247 4.99388 9.89861C4.82798 9.35121 4.71059 8.79442 4.68503 8.21884C4.6772 8.03933 4.64016 7.8593 4.65216 7.67822C4.66937 7.40583 4.93702 7.25815 5.17127 7.3886C5.27874 7.44862 5.31526 7.53837 5.31787 7.66204C5.33508 8.45679 5.44777 9.23849 5.72011 9.9868C6.05192 10.8984 6.52981 11.7271 7.21065 12.4269C7.28943 12.5083 7.33639 12.6283 7.46316 12.6586C7.50021 12.7457 7.57846 12.7979 7.6442 12.8579C8.32713 13.4836 9.11335 13.9402 9.97784 14.2642C10.8741 14.6008 11.8054 14.6953 12.7565 14.6514C13.3799 14.6227 13.9825 14.498 14.5684 14.2872C15.0171 14.1677 15.4266 13.9595 15.8263 13.7294C16.9568 13.0786 17.8422 12.1827 18.4646 11.0372C19.1919 9.69927 19.4642 8.2752 19.2644 6.75719C19.1668 6.01619 18.9618 5.3138 18.6441 4.64273C18.1218 3.53906 17.3445 2.64412 16.3548 1.9386C15.8205 1.55767 15.2472 1.24091 14.6075 1.06454C14.5288 1.03688 14.4516 1.00505 14.3717 0.981564C13.8458 0.827624 13.3147 0.703428 12.7622 0.70395C12.4351 0.70395 12.108 0.707603 11.7809 0.701863C11.5727 0.69821 11.3713 0.749349 11.1663 0.76657C10.8611 0.791618 10.5731 0.895984 10.2731 0.94347C9.45977 1.21691 8.6965 1.59524 8.02557 2.12803C7.1637 2.81319 6.47503 3.64812 6.01384 4.65839C5.94132 4.81702 5.86828 4.97566 5.79785 5.13534C5.71646 5.32007 5.53386 5.42756 5.39299 5.37016C5.19474 5.2898 5.10449 5.07689 5.18222 4.87964C5.49629 4.08228 5.92097 3.34598 6.47608 2.6963C7.18509 1.86659 8.02975 1.20439 9.02623 0.739434C9.78689 0.385111 10.5736 0.143504 11.412 0.0730563C11.5002 0.0657507 11.6035 0.0667944 11.6818 0H12.9704C13.2751 0.101757 13.5991 0.0939296 13.909 0.163333C15.5555 0.532268 16.9574 1.32754 18.0811 2.59246C18.9503 3.57037 19.5132 4.70796 19.8091 5.98175C19.8868 6.31624 19.891 6.66378 20 6.99201V8.35921L19.9984 8.35973ZM6.18026 13.3599C6.14061 13.3917 6.10201 13.4262 6.06027 13.4559C5.90689 13.5645 5.92723 13.6652 6.06392 13.7743C6.14427 13.8384 6.21418 13.9167 6.28409 13.9929C6.34356 14.0581 6.39104 14.0686 6.45886 13.9986C6.65242 13.7988 6.8491 13.602 7.04892 13.4084C7.1277 13.3323 7.13083 13.2696 7.04684 13.2002C7.00249 13.1632 6.96127 13.1225 6.91849 13.0833C6.87936 13.0406 6.83502 13.0014 6.80163 12.9539C6.72076 12.8397 6.6519 12.847 6.56268 12.9513C6.44164 13.0933 6.30861 13.2242 6.18026 13.3599ZM5.20257 13.8661C5.1744 13.8311 5.14518 13.7967 5.11805 13.7607C5.00953 13.6161 4.90363 13.5953 4.78415 13.7539C4.73407 13.8202 4.66937 13.8833 4.59738 13.9225C4.44399 14.0054 4.4826 14.0816 4.58642 14.1688C4.62086 14.198 4.65372 14.2293 4.68711 14.2596C4.98397 14.5601 5.2803 14.8617 5.5782 15.1613C5.83558 15.4201 6.08044 15.4067 6.31278 15.1211C6.36234 15.06 6.37904 15.0204 6.31591 14.9588C5.94341 14.5961 5.57351 14.2303 5.20257 13.8661ZM2.10618 19.3192C2.37695 19.3041 2.60547 19.2002 2.78963 18.9993C2.94302 18.8313 3.09744 18.6643 3.25135 18.4968C3.96714 17.7151 4.68137 16.9329 5.39978 16.1533C5.47438 16.0724 5.49786 16.0176 5.4076 15.9294C4.99806 15.5302 4.59373 15.1247 4.18783 14.7219C4.09184 14.6551 4.04592 14.4385 3.87428 14.5914C3.43447 14.9833 3.0051 15.3867 2.56842 15.7823C2.04514 16.2561 1.52291 16.7309 0.99232 17.1959C0.740853 17.4161 0.601033 17.892 0.696507 18.2208C0.820676 18.6466 1.18066 18.8631 1.48012 19.1324C1.65386 19.2884 1.87037 19.3505 2.10723 19.3197L2.10618 19.3192Z" fill="#2E3192"/>
<path d="M6.44114 10.0399C6.30757 9.72106 6.21418 9.3902 6.13852 9.05308C6.03104 8.57298 6.01643 8.08505 6.00391 7.59503C5.98513 6.87696 6.15522 6.19333 6.33731 5.50971C6.3467 5.4737 6.37383 5.44239 6.3921 5.40899C6.41036 5.3829 6.43436 5.35941 6.44636 5.33071C6.83507 4.36633 7.41787 3.54076 8.20833 2.86391C9.38959 1.85256 10.7655 1.34532 12.312 1.34324C12.7434 1.34271 13.1822 1.38029 13.6184 1.47109C14.8044 1.71793 15.8213 2.25804 16.6989 3.081C17.2561 3.60286 17.685 4.21864 18.0372 4.89131C18.0534 4.92732 18.069 4.9628 18.0852 4.99881C18.0977 5.0583 18.1186 5.11414 18.1629 5.15798L18.1609 5.15589C18.1609 5.16841 18.1635 5.18042 18.1676 5.1919C18.8438 6.87853 18.8297 8.55941 18.1264 10.2346C18.1222 10.2466 18.1202 10.2591 18.1212 10.2721L18.1217 10.2685C18.1014 10.3008 18.0774 10.3321 18.0607 10.3666C17.6787 11.1624 17.1622 11.8544 16.4954 12.4373C15.4801 13.3255 14.2957 13.8421 12.9652 13.9715C12.1758 14.0483 11.3817 13.9982 10.6022 13.7607C9.09636 13.3031 7.9125 12.4316 7.03334 11.1327C6.79959 10.7872 6.64045 10.4031 6.44114 10.0399ZM13.9456 13.0834C13.9774 13.0797 14.0113 13.0818 14.0411 13.0724C14.9364 12.7859 15.7196 12.3089 16.3754 11.6389C17.3057 10.6891 17.8217 9.53945 17.9704 8.22021C18.0727 7.31427 17.9287 6.4386 17.602 5.59894C17.0657 4.21916 16.1098 3.2099 14.7825 2.55811C14.5299 2.43391 14.2758 2.29353 13.9826 2.27474C13.6633 2.18029 13.3409 2.11036 13.0101 2.05556C12.4497 1.96267 11.8982 1.99033 11.3519 2.08792C10.022 2.32484 8.90801 2.9615 8.02728 3.98903C7.25613 4.88818 6.79541 5.93397 6.6895 7.11127C6.61489 7.93893 6.68637 8.76137 6.98951 9.55354C7.68605 11.3759 8.96123 12.5719 10.8286 13.1282C11.4286 13.3067 12.0427 13.3907 12.6746 13.3244C13.1061 13.279 13.5339 13.2331 13.9445 13.0834H13.9456Z" fill="#2E3192"/>
<path d="M6.44114 10.0399C6.64045 10.4031 6.79959 10.7872 7.03334 11.1327C7.91198 12.4321 9.09636 13.3031 10.6022 13.7607C11.3822 13.9976 12.1758 14.0477 12.9652 13.9715C14.2957 13.8421 15.4801 13.3255 16.4954 12.4373C17.1622 11.8544 17.6787 11.1624 18.0607 10.3666C18.0774 10.3321 18.1014 10.3008 18.1217 10.2685C18.1249 10.3269 18.1238 10.3828 18.1003 10.4396C17.7465 11.307 17.2383 12.0772 16.5955 12.753C16.1171 13.2561 15.5666 13.6746 14.9656 14.0279C14.8304 14.1072 14.6593 14.1385 14.5675 14.2867C13.9815 14.4981 13.3794 14.6228 12.7554 14.651C11.8042 14.6948 10.8734 14.6004 9.97653 14.2638C9.1125 13.9392 8.32621 13.4826 7.6427 12.8574C7.57696 12.7974 7.4987 12.7452 7.46166 12.658C7.47157 12.6283 7.47261 12.586 7.49296 12.5709C7.69279 12.4243 7.66149 12.3001 7.51227 12.1138C7.06042 11.5491 6.72493 10.913 6.47084 10.2361C6.44788 10.1756 6.38892 10.1151 6.44005 10.0404L6.44114 10.0399Z" fill="#A8C3E4"/>
<path d="M18.0376 4.89238C17.6854 4.21971 17.2565 3.60392 16.6993 3.08207C15.8217 2.25963 14.8043 1.71899 13.6188 1.47215C13.1826 1.38135 12.7438 1.34378 12.3124 1.3443C10.7659 1.34691 9.38999 1.85363 8.20873 2.86498C7.41775 3.54182 6.83494 4.36739 6.44676 5.33178C6.43528 5.36048 6.41076 5.38396 6.39249 5.41005C6.36484 5.28481 6.44258 5.18774 6.48119 5.08076C6.90329 3.92016 7.60558 2.95004 8.52126 2.13491C8.99658 1.71168 9.5293 1.36204 10.1038 1.08129C10.1674 1.04998 10.2639 1.04684 10.2723 0.942996C10.5723 0.895507 10.8608 0.791137 11.1655 0.766088C11.3706 0.749389 11.5715 0.698247 11.7802 0.701378C12.1073 0.707118 12.4344 0.703466 12.7616 0.703466C13.3141 0.702944 13.8453 0.826623 14.3712 0.981091C14.451 1.00457 14.5283 1.03641 14.607 1.06407C14.6123 1.11834 14.6561 1.13608 14.6963 1.15748C15.2232 1.44084 15.7184 1.77274 16.165 2.16987C16.9769 2.89159 17.5967 3.75682 18.035 4.75095C18.0522 4.79009 18.0946 4.84434 18.0372 4.89131L18.0376 4.89238Z" fill="#A8C3E4"/>
<path d="M5.43189 6.35301C5.43189 6.53304 5.29937 6.67342 5.12512 6.67916C4.96756 6.68437 4.80061 6.5033 4.80374 6.33057C4.80687 6.14115 4.93104 6.01695 5.11677 6.01539C5.34372 6.01382 5.43189 6.1088 5.43189 6.35301Z" fill="#2E3192"/>
<path d="M18.0376 4.89238C18.095 4.84489 18.0522 4.79009 18.035 4.75095C17.5967 3.75682 16.9769 2.89159 16.165 2.16987C15.7184 1.77276 15.2237 1.44133 14.6967 1.15797C14.6566 1.13658 14.6128 1.11881 14.6075 1.06454C15.2472 1.24091 15.8211 1.55819 16.3548 1.9386C17.3445 2.64412 18.1218 3.53906 18.6441 4.64273C18.9618 5.3138 19.1668 6.01619 19.2644 6.75719C19.4642 8.2752 19.1919 9.69927 18.4646 11.0372C17.8422 12.1827 16.9568 13.0786 15.8263 13.7294C15.4266 13.9595 15.0171 14.1677 14.5684 14.2872C14.6602 14.139 14.8313 14.1077 14.9659 14.0284C15.567 13.6757 16.1171 13.2561 16.5955 12.753C17.2383 12.0772 17.7467 11.3081 18.1004 10.4403C18.1239 10.3834 18.1255 10.3276 18.1223 10.2691L18.1218 10.2728C18.1484 10.2639 18.1562 10.2519 18.127 10.2352C18.8303 8.56015 18.8449 6.87933 18.1682 5.19277C18.1729 5.1886 18.1818 5.18181 18.1813 5.18129C18.1755 5.17242 18.1682 5.16459 18.1615 5.15676L18.1635 5.15885C18.1562 5.09675 18.1928 5.01274 18.0858 4.99969C18.0696 4.96369 18.0538 4.92838 18.0376 4.89238Z" fill="#97B8DF"/>
<path d="M3.94633 15.0387C3.97085 14.8905 4.1331 14.8467 4.18736 14.7215C4.59326 15.1243 4.99759 15.5293 5.40713 15.929C5.49739 16.0172 5.47391 16.072 5.39931 16.1529C4.68143 16.9319 3.96668 17.7147 3.25088 18.4964C3.09697 18.6644 2.94255 18.8309 2.78916 18.9989C2.60552 19.2003 2.37648 19.3037 2.10571 19.3188C2.09424 19.2724 2.08224 19.2259 2.07076 19.1795C2.12397 19.1325 2.18241 19.0908 2.22988 19.0386C2.68951 18.5298 3.14602 18.0179 3.60669 17.5096C4.02406 17.0488 4.44405 16.5912 4.86507 16.1341C4.93133 16.0621 4.93655 16.0041 4.86507 15.9352C4.55517 15.6399 4.27292 15.3169 3.94633 15.0387Z" fill="#C3D6ED"/>
<path d="M5.20257 13.8661C5.57351 14.2303 5.94341 14.5961 6.31591 14.9588C6.37904 15.0204 6.36234 15.06 6.31278 15.1211C6.07975 15.4057 5.83489 15.4191 5.5782 15.1613C5.2803 14.8617 4.98397 14.5601 4.68711 14.2596C4.89267 14.1719 5.02029 13.9825 5.20341 13.8656L5.20257 13.8661Z" fill="#A8C3E4"/>
<path d="M6.91849 13.0833C6.96127 13.1225 7.00249 13.1632 7.04684 13.2002C7.13083 13.2702 7.12718 13.3328 7.04892 13.4084C6.8491 13.602 6.6519 13.7983 6.45886 13.9986C6.39104 14.0686 6.34356 14.0581 6.28409 13.9929C6.21418 13.9167 6.14427 13.8384 6.06392 13.7743C5.92723 13.6652 5.90689 13.5645 6.06027 13.4559C6.10201 13.4262 6.14009 13.3923 6.18026 13.3599C6.24183 13.4173 6.30424 13.4737 6.3658 13.5316C6.40441 13.5676 6.4451 13.6151 6.49571 13.5572C6.63605 13.3985 6.82876 13.2869 6.91849 13.0833Z" fill="#97B8DF"/>
<path d="M13.9456 13.0834C13.5355 13.2331 13.1069 13.2791 12.6754 13.3245C12.0436 13.3907 11.4295 13.3067 10.8295 13.1282C8.9621 12.5719 7.68692 11.3759 6.99037 9.55355C6.68776 8.76138 6.61575 7.93894 6.69036 7.11128C6.79628 5.93398 7.25699 4.88819 8.02815 3.98904C8.90888 2.96203 10.0228 2.32537 11.3528 2.08793C11.8991 1.99034 12.4506 1.96268 13.0109 2.05557C13.3417 2.11037 13.6642 2.1803 13.9835 2.27475C13.9908 2.33842 14.0461 2.35303 14.0904 2.37651C14.8329 2.77103 15.4595 3.29758 15.9808 3.96138C16.7582 4.95133 17.173 6.07593 17.2606 7.32002C17.316 8.10906 17.2048 8.88714 16.9366 9.63183C16.4076 11.0998 15.4595 12.2171 14.0816 12.9612C14.0268 12.9905 13.9529 13.0004 13.9456 13.0834ZM8.29738 5.66471C8.43616 5.66471 8.52382 5.58695 8.59269 5.47475C8.91879 4.94351 9.32889 4.49106 9.83656 4.12524C10.1428 3.9045 10.4851 3.75472 10.8216 3.59191C11.0006 3.50528 11.0684 3.32576 10.9975 3.17442C10.9218 3.01317 10.7402 2.94377 10.5597 3.00169C10.2681 3.09563 9.99987 3.23705 9.73899 3.39465C9.00279 3.83927 8.41634 4.43105 7.99685 5.18356C7.87319 5.40534 8.04276 5.66627 8.29686 5.66418L8.29738 5.66471Z" fill="#F2F6FB"/>
<path d="M13.9456 13.0834C13.9529 13.0004 14.0268 12.9905 14.0816 12.9612C15.4595 12.2171 16.4076 11.0998 16.9366 9.63183C17.2048 8.88714 17.316 8.10906 17.2606 7.32002C17.173 6.07593 16.7582 4.95133 15.9808 3.96138C15.4595 3.29758 14.8329 2.77103 14.0904 2.37651C14.0461 2.35303 13.9908 2.33842 13.9835 2.27475C14.2767 2.29302 14.5304 2.43392 14.7835 2.55811C16.1102 3.20936 17.066 4.2191 17.6028 5.59882C17.9294 6.43793 18.0729 7.31408 17.9711 8.21998C17.8225 9.53917 17.3065 10.6888 16.3763 11.6385C15.7199 12.3085 14.9374 12.7855 14.0421 13.072C14.0124 13.0814 13.9785 13.0798 13.9466 13.0829L13.9456 13.0834Z" fill="#C3D6ED"/>
<path d="M18.0851 4.99987C18.1921 5.01343 18.1555 5.09693 18.1629 5.15903C18.118 5.11519 18.0976 5.05936 18.0851 4.99987Z" fill="#A8C3E4"/>
<path d="M18.1615 5.15676C18.1682 5.16459 18.1755 5.17242 18.1813 5.18129C18.1813 5.18181 18.1724 5.18912 18.1682 5.19277C18.1641 5.18129 18.162 5.16877 18.1615 5.15676Z" fill="#A8C3E4"/>
<path d="M18.1263 10.2356C18.1556 10.2523 18.1483 10.2638 18.1211 10.2732C18.1201 10.2602 18.1217 10.2482 18.1263 10.2356Z" fill="#A8C3E4"/>
<path d="M3.94633 15.0387C4.27292 15.3169 4.55517 15.6399 4.86507 15.9352C4.93707 16.0036 4.93185 16.0621 4.86507 16.1341C4.44405 16.5912 4.02406 17.0488 3.60669 17.5096C3.14602 18.0179 2.68951 18.5298 2.22988 19.0386C2.18241 19.0908 2.12397 19.1325 2.07076 19.1795C1.71495 18.9493 1.46252 18.6436 1.3707 18.2219C1.23245 17.5863 1.54026 17.1386 1.98894 16.7467C2.34996 16.431 2.70473 16.1085 3.06211 15.7886C3.32766 15.5507 3.59165 15.3111 3.85824 15.0748C3.88068 15.0549 3.91668 15.0507 3.94589 15.0398L3.94633 15.0387Z" fill="#F2F6FB"/>
<path d="M8.29738 5.66471C8.04278 5.66627 7.87381 5.40526 7.99745 5.184C8.41639 4.43152 9.00332 3.83977 9.73946 3.39517C10.0003 3.23757 10.2685 3.09616 10.5601 3.00223C10.7406 2.94431 10.9222 3.01371 10.9978 3.17495C11.0688 3.32681 11.001 3.50632 10.822 3.59242C10.4855 3.75523 10.1433 3.905 9.83702 4.12573C9.32939 4.49101 8.91933 4.94396 8.59325 5.47518C8.52439 5.58738 8.43674 5.66461 8.29796 5.66513L8.29738 5.66471Z" fill="#2E3192"/>
</svg>
