<svg width="74" height="72" viewBox="0 0 74 72" fill="none" xmlns="http://www.w3.org/2000/svg">
<g clip-path="url(#clip0_1796_29603)">
<path d="M60.1522 58.1592C72.7404 45.6298 72.7404 25.3155 60.1522 12.7861C47.564 0.256618 27.1546 0.256622 14.5664 12.7861C1.97818 25.3155 1.97818 45.6298 14.5664 58.1592C27.1546 70.6887 47.564 70.6887 60.1522 58.1592Z" fill="#D7E3F3"/>
<path d="M37.3546 46.3519C44.2793 46.3519 49.8929 39.1276 49.8929 30.2159C49.8929 21.3043 44.2793 14.08 37.3546 14.08C30.43 14.08 24.8164 21.3043 24.8164 30.2159C24.8164 39.1276 30.43 46.3519 37.3546 46.3519Z" fill="#7DA6D7"/>
<path d="M37.3546 47.5508C26.8671 47.5508 17.6339 50.7413 12.2383 55.5767C18.1465 62.8792 27.2005 67.556 37.3546 67.556C47.5086 67.556 56.5626 62.8792 62.4709 55.5767C57.0803 50.7413 47.8471 47.5508 37.3546 47.5508Z" fill="#7DA6D7"/>
<path d="M38.7597 35.4727H35.9524C33.3079 35.4727 31.1641 37.6065 31.1641 40.2386V51.0835C31.1641 53.7157 33.3079 55.8495 35.9524 55.8495H38.7597C41.4042 55.8495 43.548 53.7157 43.548 51.0835V40.2386C43.548 37.6065 41.4042 35.4727 38.7597 35.4727Z" fill="#7DA6D7"/>
<path d="M26.551 30.9647C27.2827 33.0553 26.9891 35.0569 25.904 35.4334C24.8189 35.8099 23.3456 34.4178 22.6139 32.3271C21.8822 30.2364 22.1758 28.2349 23.2609 27.8583C24.346 27.4818 25.8194 28.874 26.551 30.9647Z" fill="#7DA6D7"/>
<path d="M48.1686 30.9647C47.4369 33.0553 47.7305 35.0569 48.8156 35.4334C49.9007 35.8099 51.374 34.4178 52.1057 32.3271C52.8374 30.2364 52.5437 28.2349 51.4587 27.8583C50.3736 27.4818 48.9002 28.874 48.1686 30.9647Z" fill="#7DA6D7"/>
<path d="M26.3797 30.8944C24.7521 27.9466 23.0747 24.8155 23.1593 21.4466C23.2439 18.0827 25.8173 14.5305 29.197 14.6494C29.7843 14.6692 30.3767 14.798 30.964 14.7188C32.1337 14.5553 32.9998 13.6041 33.9455 12.9006C36.0858 11.3202 39.0623 10.9486 41.5312 11.9444C43.0543 12.5637 44.3434 13.6437 45.8317 14.3472C48.5992 15.6551 52.0137 15.5214 54.6667 13.9905C54.1142 15.0259 53.1784 15.8533 52.0784 16.2794C53.0938 16.6014 54.2137 16.5716 55.2092 16.1951C54.6119 17.2752 53.6164 18.1372 52.4617 18.5781C53.3178 18.6376 54.1789 18.697 55.035 18.7565C54.3033 19.787 53.2581 20.5945 52.0685 21.0453C52.7404 21.0651 53.4124 21.0899 54.0843 21.1097C53.5816 22.5861 52.2825 23.7702 50.7594 24.1318C51.1924 24.1368 51.6255 24.1417 52.0585 24.1516C50.6399 26.1928 49.2164 28.2339 47.7978 30.2751C47.3896 30.8597 46.9715 31.4542 46.3693 31.8406C45.8715 32.1577 45.2842 32.3063 44.7068 32.4351C40.4958 33.3764 36.1406 33.6588 31.845 33.2674C30.3767 33.1337 28.8386 32.8959 27.6689 31.9942C26.4992 31.0925 25.877 29.3387 26.6784 28.1101" fill="#7DA6D7"/>
<path d="M29.2738 50.5981C29.3683 48.9038 29.5774 47.2193 29.9059 45.5547C30.7471 46.5109 32.1756 46.6298 33.4499 46.6843C35.3811 46.7635 37.3124 46.8428 39.2486 46.9171C39.4726 48.23 39.6319 49.7707 38.6762 50.7071C38.2332 51.1381 37.626 51.3561 37.0287 51.5196C35.7246 51.8813 34.3757 52.0695 33.0268 52.0745C31.424 52.0844 29.5127 51.6038 29 50.0928C29.1742 49.9491 29.3484 49.8104 29.5226 49.6667" fill="#7DA6D7"/>
<path d="M45.4383 50.5981C45.3438 48.9038 45.1347 47.2193 44.8062 45.5547C43.965 46.5109 42.5365 46.6298 41.2623 46.6843C39.331 46.7635 37.3997 46.8428 35.4635 46.9171C35.2395 48.23 35.0802 49.7707 36.0359 50.7071C36.4789 51.1381 37.0862 51.3561 37.6835 51.5196C38.9875 51.8813 40.3364 52.0695 41.6853 52.0745C43.2881 52.0844 45.1994 51.6038 45.7121 50.0928C45.5379 49.9491 45.3637 49.8104 45.1895 49.6667" fill="#7DA6D7"/>
</g>
<defs>
<clipPath id="clip0_1796_29603">
<rect width="74" height="72" fill="white"/>
</clipPath>
</defs>
</svg>
