<svg width="20" height="30" viewBox="0 0 20 30" fill="none" xmlns="http://www.w3.org/2000/svg">
<path d="M10.9589 0.937874C11.2732 1.12294 11.6404 1.07007 11.9782 1.14351C13.2561 1.41671 14.4605 1.87791 15.5445 2.60351C17.219 3.72568 18.4469 5.21505 19.1784 7.10982C19.4897 7.91472 19.7277 8.73432 19.8599 9.57742C20.0244 10.6291 20.0361 11.6925 19.9363 12.7589C19.8246 13.978 19.5015 15.1354 19.005 16.2517C18.6643 17.0155 18.1737 17.6911 17.7066 18.3785C17.1161 19.2481 16.5051 20.1059 15.9059 20.9666C14.9129 22.3972 13.92 23.8249 12.9271 25.2555C12.1104 26.4335 11.2967 27.6115 10.4801 28.7895C10.2451 29.1302 9.85729 29.1655 9.61053 28.8365C9.19926 28.293 8.82325 27.726 8.43254 27.165C7.6012 25.9693 6.76985 24.7767 5.94144 23.5811C4.73114 21.8361 3.52671 20.0882 2.31348 18.3462C1.86108 17.6999 1.40282 17.0595 1.06793 16.3428C0.636096 15.4233 0.339396 14.4656 0.166077 13.461C0.016258 12.5914 -0.030744 11.7131 0.0191956 10.8406C0.0867609 9.65379 0.31002 8.48462 0.744788 7.36245C1.13843 6.34603 1.64076 5.39131 2.32523 4.54821C3.06257 3.63755 3.95854 2.89727 4.97496 2.30387C5.94731 1.73397 6.99311 1.36089 8.09178 1.12588C8.40316 1.05832 8.74099 1.10826 9.03182 0.934937H10.9589V0.937874ZM10.5888 26.7537C10.6387 26.7008 10.6945 26.6538 10.7356 26.5951C12.6657 23.819 14.5839 21.0341 16.5227 18.264C17.4687 16.9127 18.3793 15.5525 18.723 13.8957C18.8699 13.1878 18.9551 12.4739 18.9815 11.7601C19.0315 10.3911 18.8023 9.0604 18.3323 7.76784C17.6479 5.8907 16.4728 4.41014 14.7749 3.34966C14.1462 2.95602 13.4911 2.61232 12.7626 2.43606C12.554 2.37143 12.3513 2.29799 12.1398 2.24805C11.3261 2.05711 10.5065 1.99542 9.66928 2.02479C9.023 2.04829 8.38848 2.11586 7.76276 2.26568C6.8756 2.50656 6.0325 2.85027 5.25403 3.34672C4.38744 3.899 3.62953 4.56584 3.00382 5.38249C2.40161 6.16684 1.95509 7.0305 1.62607 7.96173C1.30881 8.84889 1.10612 9.76542 1.05911 10.6996C1.01211 11.6249 1.02974 12.5503 1.21187 13.4698C1.43807 14.6184 1.80821 15.7141 2.45155 16.6894C3.47678 18.2346 4.54901 19.7504 5.60655 21.275C6.59653 22.7056 7.58944 24.1363 8.58236 25.564C9.01713 26.1897 9.46071 26.8124 9.8896 27.444C9.99829 27.6056 10.0629 27.5997 10.151 27.4382C10.2803 27.2002 10.4771 27.0063 10.5829 26.7537H10.5888Z" fill="#2E3192"/>
<path d="M7.76569 2.26566C8.3914 2.11584 9.02593 2.04828 9.6722 2.02478C10.5094 1.9954 11.329 2.05709 12.1427 2.24804C12.3543 2.29798 12.5569 2.37142 12.7655 2.43604C12.8155 2.55942 12.933 2.59761 13.0358 2.65343C14.1873 3.28795 15.1714 4.10755 15.9558 5.17097C17.2601 6.93648 17.8094 8.94581 17.9445 11.0991C17.968 11.4751 17.8975 11.8452 17.8946 12.2183C17.8917 12.7207 17.8182 13.2171 17.7213 13.7077C17.4804 14.9062 17.0838 16.0549 16.3905 17.0713C14.8101 19.3861 13.2062 21.6863 11.6081 23.9894C11.1204 24.6944 10.6211 25.3936 10.1275 26.0927C10.0982 26.0692 10.0629 26.0516 10.0453 26.0222C8.91136 24.3889 7.78037 22.7556 6.64939 21.1193C5.90617 20.0471 5.18939 18.9572 4.41974 17.9056C3.56783 16.7423 2.93036 15.485 2.60722 14.0778C2.31346 12.797 2.23708 11.5015 2.38396 10.1972C2.49266 9.23664 2.71885 8.29954 3.06843 7.39475C3.50026 6.27551 4.11128 5.26791 4.93675 4.39544C5.70935 3.57878 6.60826 2.92663 7.6188 2.43311C7.68343 2.40079 7.82738 2.41548 7.76863 2.26566H7.76569ZM10.1099 7.19499C8.11526 7.19499 6.46726 8.78424 6.46138 10.8141C6.45551 12.8763 8.10057 14.4744 10.0923 14.495C11.8578 14.5126 14.0023 13.0467 13.7173 10.3706C13.5469 8.77249 12.2103 7.23612 10.1099 7.19499Z" fill="#EAEAF4"/>
<path d="M10.5858 26.7537C10.3919 26.5627 10.2363 26.3453 10.1276 26.0956C10.6211 25.3935 11.1175 24.6973 11.6081 23.9923C13.2062 21.6892 14.8072 19.389 16.3906 17.0742C17.0838 16.0578 17.4804 14.9121 17.7213 13.7106C17.8183 13.22 17.8917 12.7265 17.8946 12.2212C17.8946 11.8482 17.9681 11.478 17.9446 11.102C17.8094 8.94873 17.2572 6.9394 15.9558 5.17389C15.1715 4.11047 14.1874 3.29087 13.0358 2.65635C12.933 2.60053 12.8155 2.55941 12.7655 2.43896C13.4941 2.61522 14.1492 2.95892 14.7778 3.35257C16.4758 4.41305 17.6508 5.89361 18.3353 7.77075C18.8053 9.06036 19.0344 10.394 18.9845 11.763C18.9581 12.4768 18.8729 13.1907 18.726 13.8986C18.3793 15.5554 17.4716 16.9156 16.5257 18.2669C14.5869 21.037 12.6657 23.8219 10.7386 26.598C10.6975 26.6567 10.6416 26.7037 10.5917 26.7566L10.5858 26.7537Z" fill="#A8C3E4"/>
<path d="M10.1098 7.19495C12.2102 7.23607 13.5469 8.77245 13.7172 10.3705C14.0022 13.0467 11.8577 14.5126 10.0922 14.4949C8.10051 14.4744 6.45544 12.8763 6.46132 10.8141C6.46719 8.78126 8.1152 7.19495 10.1098 7.19495ZM7.49243 10.8229C7.60406 12.3652 8.58816 13.3992 10.0717 13.4345C11.5228 13.4697 12.7067 12.3828 12.7038 10.8229C12.7038 9.38641 11.611 8.25837 10.1216 8.25249C8.61754 8.24368 7.58349 9.37172 7.48949 10.8258L7.49243 10.8229Z" fill="#2E3192"/>
<path d="M7.48956 10.8229C7.58063 9.3688 8.61761 8.24075 10.1217 8.24956C11.6081 8.25838 12.7009 9.38642 12.7038 10.82C12.7038 12.3828 11.5229 13.4668 10.0717 13.4315C8.58824 13.3963 7.60413 12.3622 7.4925 10.82L7.48956 10.8229Z" fill="#A8C3E4"/>
</svg>
