<svg width="65" height="40" viewBox="0 0 65 40" fill="none" xmlns="http://www.w3.org/2000/svg">
<path d="M4.4499 17.7605V13.0585H2.69591V17.7605C2.383 17.9087 2.18536 18.1228 2.18536 18.3781C2.18536 18.8145 2.8112 19.1768 3.57703 19.1768C4.34285 19.1768 4.96869 18.8228 4.96869 18.3781C4.96869 18.131 4.76282 17.9087 4.45814 17.7605H4.4499Z" fill="#2E3192"/>
<path d="M35.2888 37.6143V32.9123H33.5348V37.6143C33.2219 37.7625 33.0243 37.9766 33.0243 38.2319C33.0243 38.6683 33.6501 39.0307 34.4159 39.0307C35.1817 39.0307 35.8076 38.6766 35.8076 38.2319C35.8076 37.9849 35.6017 37.7625 35.297 37.6143H35.2888Z" fill="#2E3192"/>
<path d="M62.7103 23.6813V18.9792H60.9563V23.6813C60.6434 23.8295 60.4458 24.0436 60.4458 24.2989C60.4458 24.7353 61.0716 25.0976 61.8375 25.0976C62.6033 25.0976 63.2291 24.7435 63.2291 24.2989C63.2291 24.0518 63.0233 23.8295 62.7186 23.6813H62.7103Z" fill="#2E3192"/>
<path d="M1.25485 11.3456V14.0054C1.25485 14.3842 1.42778 14.7219 1.69952 14.903L7.75202 18.6827L11.4412 20.9885L32.909 34.411C34.2924 35.2756 35.997 35.3992 37.4381 34.658C37.4628 34.6498 37.4792 34.6333 37.5039 34.6251L63.1715 20.7826C63.4432 20.6426 63.6244 20.3297 63.6573 19.9756C63.7314 19.1686 63.822 17.604 63.6573 15.9077C63.6244 15.5618 63.4185 15.2736 63.1468 15.1665L39.8673 5.68017L35.7994 4.025L30.2904 1.77693C30.2245 1.76046 29.6892 1.64518 29.3351 1.77693L1.87245 10.3739C1.51012 10.4892 1.24661 10.8845 1.24661 11.3456" fill="white"/>
<path d="M35.4123 35.9096C34.4159 35.9096 33.4113 35.6214 32.5055 35.0615L1.29602 15.5453C0.801937 15.2323 0.497253 14.6477 0.497253 14.0136V11.3538C0.497253 10.5715 0.974865 9.87156 1.65011 9.65746L29.1128 1.06868C29.4257 0.945158 29.8869 0.936924 30.4303 1.04397L30.5786 1.08515L63.4267 14.4748C63.9538 14.6806 64.3408 15.2159 64.4067 15.8417C64.5796 17.6122 64.4808 19.2344 64.4067 20.0496C64.349 20.659 64.0196 21.186 63.5256 21.4495L37.7757 35.3332C37.0346 35.7202 36.2276 35.9096 35.4123 35.9096ZM29.7551 2.47681C29.6563 2.47681 29.6151 2.49328 29.6151 2.49328L2.10302 11.0985C2.10302 11.0985 2.01244 11.2056 2.01244 11.3538V14.0136C2.01244 14.1454 2.07008 14.2442 2.11125 14.2689L33.3125 33.7769C34.4983 34.518 35.9146 34.6003 37.1004 33.991L62.8174 20.1237C62.8174 20.1237 62.8997 20.0414 62.908 19.9096C62.9738 19.1521 63.0726 17.6286 62.908 15.9899C62.908 15.9158 62.8668 15.8829 62.8585 15.8746L30.0763 2.51798C29.9363 2.49328 29.8292 2.48505 29.7551 2.48505V2.47681Z" fill="#2E3192"/>
<path d="M2.18536 11.4033V13.9807C2.18536 14.2031 2.29241 14.4007 2.46534 14.5078L34.1936 34.3369C34.5148 34.5345 35.8488 34.5839 36.1782 34.411L62.3727 20.2062C62.5786 20.0991 62.7186 19.8603 62.7186 19.605V16.2206C62.7186 16.0147 62.6033 15.8253 62.4303 15.7512L30.1339 2.28748C29.9774 2.22161 29.8045 2.21337 29.6481 2.26278L2.53946 10.8845C2.32535 10.9504 2.18536 11.1645 2.18536 11.4115V11.4033Z" fill="#E6EBFB"/>
<path d="M29.3928 4.47793L9.16014 10.901C8.59195 11.0822 8.5096 11.9139 9.02839 12.2185L32.6208 26.2422C34.136 27.1398 35.9558 27.2057 37.5204 26.4151L56.6249 16.7559C57.1519 16.4841 57.1272 15.6606 56.5755 15.4301L29.8045 4.4944C29.6728 4.43676 29.5245 4.43676 29.3845 4.47793H29.3928Z" fill="white"/>
<path d="M28.3305 5.50725L9.46483 11.4856C9.33308 11.5268 9.31661 11.7244 9.43189 11.7903L33.3537 26.0528C33.7078 26.2587 34.1277 26.2751 34.49 26.094L53.1581 16.7641C53.8086 16.4347 54.2615 15.9818 53.5945 15.71L29.4504 5.45784C29.1375 5.32608 28.6434 5.40019 28.3223 5.50725H28.3305Z" fill="#C8D8FB"/>
<path d="M35.1653 27.7574C34.4489 27.7574 33.7242 27.568 33.0819 27.1809L7.81789 12.1609C7.54615 11.9962 7.38969 11.6833 7.43086 11.3621C7.4638 11.041 7.68614 10.7774 7.98259 10.6786L28.594 4.13205C29.261 3.91795 29.9774 3.95089 30.628 4.2144L56.8966 14.9524C57.3413 15.1336 57.6213 15.5536 57.646 16.0476C57.6625 16.55 57.4154 16.9864 56.9872 17.2087L54.5992 18.411C54.3192 18.551 53.9816 18.4439 53.8416 18.164C53.7016 17.884 53.8086 17.5464 54.0886 17.4064L56.4767 16.2041C56.5178 16.1794 56.5178 16.1053 56.5178 16.0971C56.5178 16.0971 56.5178 16.0229 56.4767 16.0065L30.208 5.26844C29.7963 5.10375 29.3598 5.07904 28.9481 5.21903L9.01192 11.5515L33.6748 26.2093C34.5477 26.728 35.6017 26.761 36.4993 26.3081L49.3207 19.8274C49.6007 19.6874 49.9383 19.7944 50.0783 20.0744C50.2183 20.3544 50.1112 20.692 49.8313 20.832L37.0099 27.3127C36.4334 27.6091 35.8076 27.7491 35.1818 27.7491L35.1653 27.7574Z" fill="#2E3192"/>
<path d="M52.697 19.1851C52.697 19.531 52.4499 19.778 52.137 19.7615C51.8488 19.7533 51.6017 19.4733 51.6017 19.1686C51.6017 18.8475 51.8653 18.5593 52.1617 18.5675C52.4746 18.5675 52.7052 18.8392 52.697 19.1851Z" fill="#2E3192"/>
</svg>
