<svg width="40" height="40" viewBox="0 0 40 40" fill="none" xmlns="http://www.w3.org/2000/svg">
<rect width="40" height="40" rx="20" fill="#B0E4BD"/>
<path d="M20.793 14.7991C20.9805 14.6117 21.2348 14.5063 21.5 14.5063C21.7652 14.5063 22.0195 14.6117 22.207 14.7991L26.707 19.2991C26.8945 19.4867 26.9998 19.741 26.9998 20.0061C26.9998 20.2713 26.8945 20.5256 26.707 20.7131L22.207 25.2131C22.0184 25.3953 21.7658 25.4961 21.5036 25.4938C21.2414 25.4915 20.9906 25.3864 20.8052 25.201C20.6198 25.0155 20.5146 24.7647 20.5123 24.5025C20.51 24.2403 20.6108 23.9877 20.793 23.7991L23.5 21.0061H14C13.7348 21.0061 13.4804 20.9008 13.2929 20.7132C13.1054 20.5257 13 20.2714 13 20.0061C13 19.7409 13.1054 19.4866 13.2929 19.299C13.4804 19.1115 13.7348 19.0061 14 19.0061H23.5L20.793 16.2131C20.6055 16.0256 20.5002 15.7713 20.5002 15.5061C20.5002 15.241 20.6055 14.9867 20.793 14.7991Z" fill="#008622"/>
</svg>
