<svg width="15" height="12" viewBox="0 0 15 12" fill="none" xmlns="http://www.w3.org/2000/svg">
<path d="M8.293 0.793031C8.48053 0.605559 8.73484 0.500244 9 0.500244C9.26516 0.500244 9.51947 0.605559 9.707 0.793031L14.207 5.29303C14.3945 5.48056 14.4998 5.73487 14.4998 6.00003C14.4998 6.26519 14.3945 6.5195 14.207 6.70703L9.707 11.207C9.5184 11.3892 9.2658 11.49 9.0036 11.4877C8.7414 11.4854 8.49059 11.3803 8.30518 11.1948C8.11977 11.0094 8.0146 10.7586 8.01233 10.4964C8.01005 10.2342 8.11084 9.98163 8.293 9.79303L11 7.00003H1.5C1.23478 7.00003 0.98043 6.89467 0.792893 6.70714C0.605357 6.5196 0.5 6.26525 0.5 6.00003C0.5 5.73481 0.605357 5.48046 0.792893 5.29292C0.98043 5.10539 1.23478 5.00003 1.5 5.00003H11L8.293 2.20703C8.10553 2.0195 8.00021 1.76519 8.00021 1.50003C8.00021 1.23487 8.10553 0.980558 8.293 0.793031Z" fill="#2E3192"/>
</svg>
