<svg width="65" height="64" viewBox="0 0 65 64" fill="none" xmlns="http://www.w3.org/2000/svg">
<g clip-path="url(#clip0_68_842)">
<path d="M13.3566 0.0100098C26.0366 0.0100098 38.7149 0.0100098 51.3949 0.0100098C51.5566 0.0900098 51.7099 0.206676 51.8799 0.243343C53.1833 0.51501 54.1533 1.26834 54.9049 2.33001C55.6383 3.36668 55.8633 4.55001 55.8633 5.79334C55.8633 23.085 55.8633 40.3767 55.8649 57.6683C55.8649 58.2283 55.8483 58.785 55.7649 59.3417C55.3783 61.9567 53.2133 63.8317 50.8483 63.8417C38.5649 63.8933 26.2833 63.8617 13.9999 63.8633C13.5816 63.8633 13.1899 63.7633 12.7966 63.645C10.7183 63.025 8.98327 60.9183 8.99161 58.245C9.03661 43.5933 9.01327 28.9417 9.01327 14.2883C9.01327 14.0183 9.00161 13.7483 9.09494 13.4867C9.23161 13.11 9.44827 12.8633 9.89327 12.8517C10.7783 12.83 11.1333 13.15 11.1383 14.065C11.1483 15.8317 11.1416 17.5983 11.1416 19.365C11.1416 32.4383 11.1566 45.51 11.1283 58.5833C11.1249 60.305 13.0016 62.07 14.5883 61.7067C14.9616 61.705 15.3366 61.7017 15.7099 61.7017C26.9499 61.7017 38.1899 61.7017 49.4299 61.6983C49.6933 61.6983 49.9866 61.7833 50.2166 61.5967C50.9483 61.0017 51.3333 60.2183 51.4483 59.275C51.0466 59.6533 50.5766 59.6667 50.0883 59.6667C38.3299 59.6617 26.5699 59.66 14.8116 59.67C14.2649 59.67 13.7849 59.58 13.3799 59.205C13.2616 58.7817 13.2533 58.3483 13.2533 57.91C13.2566 40.6167 13.2566 23.3233 13.2533 6.03001C13.2533 5.57168 13.2733 5.11834 13.3799 4.67001C13.7866 4.29501 14.2683 4.20501 14.8133 4.20501C26.4683 4.21501 38.1233 4.21334 49.7783 4.21168C50.3666 4.21168 50.9683 4.13834 51.5033 4.69168C51.4583 4.11168 51.2766 3.71501 51.0799 3.33334C50.6883 2.56834 50.1666 2.14668 49.1849 2.15001C39.5033 2.19001 29.8216 2.17501 20.1416 2.17334C18.2933 2.17334 16.4433 2.16334 14.5949 2.15834C12.5049 1.99501 11.1549 3.73668 11.1166 5.22668C11.0966 5.98501 10.7266 6.38834 10.0499 6.38001C9.45161 6.37168 8.97661 5.86001 8.99994 5.17501C9.04994 3.75834 9.61661 2.57001 10.6033 1.55001C11.3749 0.751676 12.3716 0.396676 13.3599 0.0100098H13.3566ZM45.2449 36.2767C45.2933 36.225 45.3716 36.1583 45.4266 36.075C46.2916 34.7833 47.1499 33.485 48.0216 32.1967C48.1649 31.9833 48.1216 31.8267 47.9949 31.6367C47.1499 30.38 46.3083 29.1217 45.4749 27.8583C45.2716 27.55 45.1533 27.5 44.9216 27.8633C44.1149 29.1233 43.2749 30.3633 42.4333 31.6017C42.2883 31.815 42.2316 31.9817 42.3866 32.2117C43.2599 33.5017 44.1249 34.7983 44.9916 36.095C45.0466 36.1783 45.0699 36.2917 45.2449 36.275V36.2767ZM45.2099 49.175C46.1799 47.7217 47.0983 46.34 48.0233 44.9633C48.1433 44.7833 48.1499 44.64 48.0266 44.4567C47.0999 43.08 46.1833 41.6983 45.2116 40.2417C44.4383 41.4 43.7033 42.5 42.9699 43.5983C42.4766 44.3383 42.4766 45.0783 42.9699 45.8183C43.7033 46.9183 44.4383 48.0167 45.2116 49.175H45.2099ZM19.6699 40.2417C19.0816 41.12 18.5316 41.92 18.0049 42.7367C17.5799 43.3967 16.7783 44.0267 16.8216 44.72C16.8649 45.405 17.5866 46.0517 18.0199 46.7083C18.5499 47.5117 19.0899 48.31 19.6699 49.1733C20.6449 47.71 21.5633 46.33 22.4849 44.9517C22.5883 44.7967 22.6116 44.66 22.5033 44.495C21.5716 43.1 20.6433 41.7033 19.6699 40.2417ZM19.6683 23.6367C20.6433 22.1733 21.5699 20.775 22.5049 19.3817C22.6583 19.1517 22.5349 18.995 22.4199 18.8217C21.9816 18.165 21.5433 17.51 21.1066 16.8533C20.6399 16.155 20.1749 15.455 19.6699 14.6983C18.6916 16.1667 17.7733 17.5467 16.8499 18.925C16.7466 19.0783 16.7166 19.2083 16.8283 19.3767C17.7616 20.77 18.6899 22.1667 19.6683 23.6367ZM45.2566 14.7717C45.1883 14.8133 45.1416 14.8267 45.1216 14.8583C44.4716 15.8217 43.8199 16.785 43.1749 17.75C42.5438 18.6945 42.5449 19.6417 43.1783 20.5917C43.8416 21.5867 44.5066 22.58 45.2116 23.635C46.1849 22.175 47.1033 20.7933 48.0283 19.4167C48.1533 19.2317 48.1399 19.0883 48.0199 18.91C47.0949 17.5333 46.1766 16.1517 45.2549 14.7733L45.2566 14.7717ZM40.9033 42.6583C41.0899 42.64 41.1366 42.5133 41.2033 42.415C42.0566 41.14 42.9049 39.8617 43.7633 38.59C43.9033 38.3817 43.8749 38.2267 43.7433 38.0317C42.8849 36.76 42.0316 35.485 41.1899 34.2017C40.9883 33.895 40.8916 33.905 40.6899 34.215C39.8649 35.4883 39.0166 36.7467 38.1633 38.0017C38.0249 38.205 38.0049 38.3683 38.1366 38.565C38.9983 39.8583 39.8599 41.1533 40.7233 42.4467C40.7783 42.5283 40.8516 42.5983 40.9033 42.6583ZM23.9249 17.25C24.8999 15.7867 25.8266 14.39 26.7599 13C26.9333 12.7433 26.7649 12.57 26.6433 12.385C26.0716 11.52 25.4949 10.6583 24.9183 9.79501C24.6016 9.32001 24.2816 8.84834 23.9233 8.31668C22.9433 9.78501 22.0249 11.165 21.1016 12.5417C20.9983 12.695 20.9733 12.825 21.0849 12.9917C22.0183 14.3817 22.9449 15.7767 23.9249 17.2467V17.25ZM40.9483 21.1717C40.8583 21.275 40.7833 21.3433 40.7283 21.425C39.8649 22.7183 39.0033 24.0133 38.1399 25.3067C38.0099 25.5017 38.0216 25.665 38.1599 25.87C39.0133 27.1233 39.8599 28.3833 40.6883 29.655C40.8816 29.9517 40.9783 29.9983 41.1883 29.6783C42.0299 28.395 42.8849 27.1217 43.7416 25.8483C43.8716 25.6567 43.9099 25.5 43.7683 25.29C42.8966 24.0017 42.0383 22.705 41.1733 21.4133C41.1199 21.3333 41.0416 21.27 40.9499 21.1717H40.9483ZM40.9533 17.25C41.9333 15.7817 42.8583 14.3867 43.7933 12.9983C43.9499 12.765 43.8233 12.615 43.7083 12.4433C42.8799 11.2017 42.0433 9.96334 41.2283 8.71168C41.0199 8.39334 40.9033 8.36334 40.6833 8.70168C39.8683 9.95334 39.0316 11.19 38.2033 12.4333C38.0883 12.6067 37.9633 12.7683 38.1166 12.995C39.0499 14.3867 39.9749 15.7833 40.9516 17.2483L40.9533 17.25ZM40.9549 55.5617C41.9366 54.0883 42.8616 52.6917 43.7983 51.3017C43.9583 51.065 43.8149 50.9167 43.7016 50.7483C43.0933 49.8333 42.4849 48.9167 41.8733 48.0033C41.5816 47.5667 41.2833 47.135 40.9466 46.6417C40.1683 47.8067 39.4433 48.89 38.7183 49.975C38.2205 50.7206 38.2166 51.4606 38.7066 52.195C39.4399 53.295 40.1749 54.3933 40.9549 55.5617ZM23.9266 46.6267C22.9549 48.0833 22.0466 49.4467 21.1366 50.8067C21.0283 50.9683 20.9499 51.1083 21.0849 51.31C22.0199 52.6967 22.9449 54.0917 23.9266 55.5633C24.9033 54.095 25.8316 52.7 26.7616 51.3083C26.8699 51.145 26.8433 51.005 26.7399 50.8517C25.8199 49.475 24.9033 48.0967 23.9266 46.6283V46.6267ZM32.4183 17.2517C33.3883 15.7917 34.3249 14.375 35.2733 12.965C35.4149 12.755 35.3083 12.6167 35.2049 12.4633C34.3666 11.2033 33.5199 9.94834 32.6916 8.68001C32.4783 8.35334 32.3616 8.41668 32.1766 8.69834C31.3566 9.94668 30.5266 11.1883 29.6933 12.4267C29.5266 12.675 29.4849 12.8733 29.6749 13.15C30.5866 14.485 31.4733 15.835 32.4166 17.2517H32.4183ZM35.3749 51.115C35.2949 50.97 35.2283 50.8233 35.1383 50.6883C34.3499 49.5117 33.5383 48.35 32.7799 47.155C32.4866 46.6917 32.3216 46.7433 32.0566 47.15C31.2849 48.3367 30.5083 49.52 29.7049 50.6867C29.5033 50.98 29.5133 51.1867 29.6999 51.4617C30.5266 52.6817 31.3483 53.9033 32.1483 55.14C32.3849 55.5067 32.5099 55.48 32.7349 55.1333C33.5249 53.915 34.3416 52.715 35.1466 51.505C35.2266 51.385 35.2916 51.2567 35.3733 51.1133L35.3749 51.115ZM39.6366 19.1817C39.6016 19.1033 39.5783 19.025 39.5333 18.9583C38.6616 17.6467 37.7916 16.3333 36.9116 15.0283C36.6883 14.6983 36.5416 14.9333 36.4099 15.1333C35.5816 16.375 34.7583 17.6183 33.9233 18.855C33.7416 19.1233 33.7899 19.3167 33.9666 19.5767C34.7733 20.7617 35.5716 21.955 36.3316 23.17C36.6399 23.6633 36.8049 23.485 37.0349 23.1367C37.8216 21.9433 38.6199 20.7567 39.4099 19.565C39.4899 19.445 39.5549 19.3167 39.6333 19.1817H39.6366ZM36.6416 49.0967C36.7183 49.0367 36.8033 49 36.8466 48.935C37.7383 47.6117 38.6199 46.2817 39.5166 44.9617C39.6849 44.715 39.5716 44.545 39.4416 44.35C38.6466 43.1617 37.8416 41.98 37.0683 40.7767C36.7833 40.335 36.5766 40.3617 36.3099 40.7683C35.5583 41.9167 34.8199 43.075 34.0299 44.1967C33.7649 44.5733 33.7799 44.825 34.0266 45.185C34.9066 46.465 35.7566 47.7667 36.6416 49.0967ZM36.6416 27.6033C36.5799 27.6833 36.4983 27.7733 36.4299 27.8733C35.5616 29.1667 34.6983 30.4633 33.8199 31.75C33.7233 31.8933 33.6983 31.9583 33.8066 32.115C34.6983 33.4183 35.5749 34.73 36.4499 36.0433C36.6149 36.2917 36.7366 36.365 36.9349 36.0633C37.7783 34.7783 38.6333 33.5 39.4933 32.2267C39.6266 32.0283 39.6449 31.875 39.5049 31.6683C38.6433 30.395 37.7966 29.1133 36.9399 27.8367C36.8749 27.74 36.8349 27.6033 36.6416 27.605V27.6033ZM31.0566 31.8533C31.0299 31.7983 30.9899 31.68 30.9233 31.5783C30.0983 30.335 29.2599 29.1 28.4466 27.8483C28.1916 27.4583 28.0683 27.6333 27.8916 27.9C27.0816 29.1283 26.2683 30.355 25.4399 31.5717C25.2633 31.8317 25.2449 32.0167 25.4299 32.2883C26.2616 33.5033 27.0816 34.725 27.8766 35.9633C28.1433 36.3783 28.2799 36.285 28.5049 35.94C29.2849 34.7417 30.0849 33.5567 30.8783 32.3667C30.9699 32.23 31.0799 32.1 31.0566 31.8533ZM32.5049 42.6333C32.5633 42.5633 32.6483 42.475 32.7149 42.3767C33.5349 41.1533 34.3483 39.925 35.1716 38.7033C35.3633 38.4183 35.3283 38.1733 35.1449 37.9033C34.3333 36.6983 33.5199 35.495 32.7316 34.2767C32.4899 33.9033 32.3649 33.95 32.1416 34.29C31.2999 35.5733 30.4416 36.8467 29.5749 38.1133C29.4766 38.2583 29.4533 38.335 29.5549 38.485C30.4499 39.8083 31.3349 41.1383 32.2249 42.4667C32.2799 42.55 32.3366 42.6467 32.5049 42.6333ZM32.4816 29.905C32.5366 29.84 32.6099 29.77 32.6633 29.69C33.5049 28.43 34.3416 27.1683 35.1849 25.91C35.3599 25.65 35.3333 25.415 35.1649 25.1633C34.3433 23.94 33.5233 22.7167 32.7133 21.4867C32.5233 21.1983 32.3866 21.1567 32.1799 21.4717C31.3233 22.7717 30.4566 24.0633 29.5866 25.3533C29.4799 25.5117 29.4616 25.5983 29.5849 25.7767C30.4549 27.0417 31.3016 28.3217 32.1599 29.595C32.2366 29.71 32.2833 29.8617 32.4833 29.905H32.4816ZM23.9183 30.0083C24.8983 28.5283 25.8333 27.1133 26.7749 25.7C26.8966 25.5167 26.7983 25.39 26.7066 25.2517C25.8683 23.9933 25.0249 22.7367 24.1949 21.4733C24.0083 21.1883 23.8799 21.145 23.6716 21.4617C22.8299 22.7433 21.9749 24.015 21.1199 25.2883C21.0033 25.4617 20.9799 25.6083 21.1049 25.7933C22.0283 27.1667 22.9449 28.5467 23.9199 30.0067L23.9183 30.0083ZM23.8899 33.9567C23.8199 34.0433 23.7633 34.1033 23.7183 34.17C22.8433 35.48 21.9749 36.7933 21.0933 38.0983C20.9383 38.3267 21.0499 38.4783 21.1666 38.6533C21.9833 39.8767 22.8066 41.0967 23.6083 42.33C23.8433 42.69 23.9833 42.7383 24.2416 42.3383C25.0266 41.1183 25.8349 39.915 26.6533 38.7183C26.8299 38.46 26.8533 38.2583 26.6783 37.9983C25.8333 36.74 24.9983 35.4733 24.1549 34.2133C24.0916 34.1183 23.9866 34.05 23.8883 33.9583L23.8899 33.9567ZM22.5866 31.9367C22.5266 31.8183 22.4883 31.72 22.4333 31.635C21.5933 30.3683 20.7516 29.1017 19.9099 27.835C19.6899 27.505 19.5449 27.6417 19.3783 27.8967C18.5683 29.1283 17.7533 30.3583 16.9233 31.5767C16.7433 31.8417 16.7416 32.0317 16.9233 32.2967C17.7433 33.4967 18.5499 34.7067 19.3433 35.925C19.5766 36.2833 19.7083 36.3483 19.9733 35.935C20.7499 34.725 21.5683 33.5417 22.3666 32.345C22.4566 32.21 22.5216 32.06 22.5883 31.9333L22.5866 31.9367ZM31.1149 44.7433C31.0383 44.595 30.9783 44.4433 30.8883 44.31C30.0883 43.1183 29.2616 41.945 28.4933 40.735C28.2116 40.2933 28.0699 40.4017 27.8483 40.7383C27.0483 41.9483 26.2499 43.1583 25.4333 44.3567C25.2516 44.6233 25.2683 44.8167 25.4433 45.075C26.2583 46.2733 27.0633 47.4817 27.8549 48.695C28.0949 49.0634 28.2566 49.0917 28.5116 48.7C29.2999 47.4833 30.1166 46.2833 30.9199 45.0767C30.9883 44.9733 31.0449 44.865 31.1166 44.7433H31.1149ZM31.1133 19.145C31.0499 19.0317 30.9983 18.9183 30.9299 18.815C30.1133 17.5867 29.2866 16.365 28.4783 15.13C28.2633 14.8033 28.1099 14.7967 27.8949 15.1233C27.0716 16.3733 26.2416 17.6167 25.4049 18.8567C25.2549 19.0783 25.2549 19.25 25.4049 19.4717C26.2299 20.6933 27.0483 21.9217 27.8599 23.1533C28.1149 23.54 28.2599 23.5017 28.5083 23.115C29.2749 21.9217 30.0866 20.7583 30.8766 19.5817C30.9666 19.4467 31.0316 19.295 31.1133 19.1417V19.145ZM49.4283 29.9517V21.3233C48.7766 22.1 48.2333 22.9167 47.6916 23.7333C47.3066 24.3133 46.6666 24.8717 46.6099 25.4833C46.5483 26.15 47.2866 26.71 47.6733 27.3183C48.2116 28.1667 48.7849 28.9917 49.4283 29.9533V29.9517ZM49.4466 34.1017L49.3299 34.0617C48.4349 35.405 47.5449 36.7517 46.6433 38.09C46.4783 38.335 46.5816 38.4883 46.7216 38.6933C47.4716 39.795 48.2066 40.9083 48.9449 42.0183C49.0749 42.2133 49.1549 42.4533 49.4466 42.565V34.1017ZM15.4383 17.2083C16.4366 15.7117 17.3316 14.365 18.2316 13.0217C18.3349 12.8683 18.3616 12.735 18.2499 12.5683C17.3416 11.2133 16.4383 9.85501 15.4399 8.35501V17.2083H15.4383ZM49.4549 8.56168C49.4166 8.54168 49.3783 8.52001 49.3416 8.50001C48.4366 9.86001 47.5333 11.2217 46.6216 12.5767C46.4633 12.8133 46.6099 12.965 46.7233 13.1333C47.3666 14.1017 48.0116 15.07 48.6583 16.0367C48.8899 16.385 49.1266 16.73 49.4566 17.22V8.56334L49.4549 8.56168ZM15.4499 46.6833V55.5017C16.4349 54.025 17.3299 52.68 18.2283 51.3367C18.3316 51.1833 18.3616 51.05 18.2499 50.8833C17.3399 49.525 16.4366 48.1633 15.4499 46.6833ZM49.4383 46.6683C48.6683 47.8217 48.0016 48.82 47.3349 49.82C46.7683 50.6689 46.7633 51.5111 47.3199 52.3467C47.9933 53.3567 48.6683 54.3667 49.4383 55.5183V46.6683ZM15.4466 33.9133V42.6917C16.3266 41.385 17.0966 40.18 17.9316 39.0233C18.3199 38.4867 18.3233 38.0933 17.9083 37.5717C17.3816 36.9083 16.9533 36.1683 16.4816 35.4617C16.1666 34.99 15.8499 34.5183 15.4466 33.915V33.9133ZM15.4383 29.9717C16.3383 28.625 17.1049 27.3983 17.9583 26.235C18.3366 25.72 18.2816 25.365 17.9483 24.8883C17.1199 23.7083 16.3316 22.5 15.4383 21.1683V29.9717ZM28.1666 10.8833C29.1199 9.45168 30.0299 8.08834 30.9366 6.72334C31.1466 6.40834 30.9416 6.38501 30.6983 6.38501C29.0349 6.38501 27.3733 6.38668 25.7099 6.38501C25.2999 6.38501 25.2366 6.49001 25.4816 6.85001C26.3733 8.15668 27.2366 9.48334 28.1666 10.885V10.8833ZM28.2133 57.4883C29.0033 57.4883 29.7933 57.4917 30.5833 57.485C30.7216 57.485 30.9066 57.55 30.9899 57.4167C31.1016 57.24 30.9133 57.1133 30.8283 56.9867C30.0499 55.8067 29.2516 54.6417 28.4866 53.4533C28.2499 53.0867 28.0733 53.1083 27.8583 53.4333C27.0649 54.6333 26.2866 55.8417 25.4766 57.0317C25.2183 57.41 25.3366 57.4917 25.7199 57.4883C26.5516 57.485 27.3833 57.4883 28.2133 57.4883ZM16.7016 6.41334C17.7033 7.91668 18.6583 9.35168 19.6666 10.8667C20.6666 9.36668 21.6233 7.93168 22.6366 6.41334H16.7016ZM42.2499 6.42334C43.2199 7.88001 44.1316 9.25668 45.0533 10.6267C45.2616 10.9367 45.3533 10.6367 45.4383 10.5117C45.9533 9.75668 46.4566 8.99501 46.9633 8.23501C47.3499 7.65501 47.7349 7.07668 48.1683 6.42334H42.2499ZM19.6666 53.01C18.7133 54.44 17.8333 55.7717 16.9383 57.095C16.6949 57.4533 16.8499 57.4967 17.1833 57.4933C18.2633 57.485 19.3433 57.49 20.4233 57.49C21.1183 57.49 21.8149 57.49 22.6533 57.49C21.6216 55.9417 20.6716 54.5183 19.6666 53.01ZM45.2083 53.01C44.2083 54.51 43.2516 55.9433 42.2499 57.4467H48.1633C47.1599 55.94 46.2099 54.515 45.2083 53.01ZM36.6899 6.38668C35.8816 6.38668 35.0733 6.39168 34.2649 6.38334C33.9283 6.38001 33.7116 6.40334 33.9866 6.81001C34.8116 8.02834 35.6216 9.25501 36.4366 10.48C36.5899 10.71 36.7083 10.8317 36.9216 10.505C37.7283 9.27001 38.5566 8.04834 39.3799 6.82334C39.6099 6.48001 39.5083 6.37334 39.1149 6.38168C38.3066 6.40001 37.4983 6.38668 36.6899 6.38668ZM36.6133 57.49C37.4633 57.49 38.3133 57.4783 39.1633 57.495C39.5766 57.5033 39.5649 57.3367 39.3849 57.0667C38.5649 55.84 37.7333 54.62 36.9283 53.3833C36.7266 53.0733 36.6099 53.135 36.4449 53.3833C35.6183 54.625 34.7916 55.8667 33.9616 57.1067C33.7583 57.4083 33.8666 57.495 34.1899 57.4917C34.9983 57.4833 35.8066 57.4883 36.6149 57.4883L36.6133 57.49Z" fill="#2E3192"/>
<path d="M13.3786 4.67167C13.3803 3.64001 14.0253 2.91834 14.592 2.16167C16.4403 2.16667 18.2903 2.17667 20.1386 2.17667C29.8203 2.17667 39.502 2.19334 49.182 2.15334C50.1653 2.15001 50.6853 2.57167 51.077 3.33667C51.2736 3.72001 51.4553 4.11667 51.5003 4.69501C50.9653 4.14167 50.3636 4.21501 49.7753 4.21501C38.1203 4.21501 26.4653 4.21834 14.8103 4.20834C14.2653 4.20834 13.7836 4.29667 13.377 4.67334L13.3786 4.67167Z" fill="#F2F6FB"/>
<path d="M14.5887 61.705C14.1703 61.1217 13.6787 60.5833 13.482 59.865C13.422 59.6467 13.3253 59.4367 13.377 59.2017C13.7837 59.5767 14.2637 59.6683 14.8087 59.6667C26.567 59.6567 38.327 59.6583 50.0853 59.6633C50.5737 59.6633 51.0437 59.65 51.4453 59.2717C51.3303 60.215 50.9453 60.9983 50.2137 61.5933C49.9837 61.78 49.692 61.695 49.427 61.695C38.187 61.6983 26.947 61.6983 15.707 61.6983C15.3337 61.6983 14.9587 61.7017 14.5853 61.7033L14.5887 61.705Z" fill="#F2F6FB"/>
<path d="M45.243 36.2767C45.068 36.2933 45.0463 36.18 44.9897 36.0967C44.123 34.8 43.258 33.505 42.3847 32.2133C42.228 31.9833 42.2847 31.8167 42.4313 31.6033C43.273 30.365 44.1113 29.125 44.9197 27.865C45.1513 27.5017 45.2697 27.5517 45.473 27.86C46.3063 29.1233 47.148 30.3817 47.993 31.6383C48.1213 31.8283 48.1647 31.9867 48.0197 32.1983C47.148 33.4867 46.2897 34.7833 45.4247 36.0767C45.3697 36.16 45.2897 36.2267 45.243 36.2783V36.2767Z" fill="#F2F6FB"/>
<path d="M45.2083 49.175C44.435 48.0183 43.7 46.9183 42.9667 45.8183C42.4733 45.0794 42.4733 44.3394 42.9667 43.5983C43.7 42.4983 44.435 41.4 45.2083 40.2417C46.18 41.6983 47.0983 43.08 48.0233 44.4567C48.1467 44.64 48.1417 44.7833 48.02 44.9633C47.095 46.34 46.1767 47.7217 45.2067 49.175H45.2083Z" fill="#F2F6FB"/>
<path d="M19.6703 40.2417C20.6437 41.705 21.572 43.1017 22.5037 44.495C22.6137 44.6584 22.5887 44.7967 22.4853 44.9517C21.5637 46.3284 20.6453 47.7084 19.6703 49.1734C19.092 48.3084 18.552 47.5117 18.0203 46.7084C17.587 46.0517 16.8637 45.405 16.822 44.72C16.7787 44.0284 17.5803 43.3984 18.0053 42.7367C18.5303 41.92 19.082 41.1217 19.6703 40.2417Z" fill="#F2F6FB"/>
<path d="M19.6667 23.6367C18.6883 22.1667 17.76 20.77 16.8267 19.3767C16.715 19.2083 16.745 19.0783 16.8483 18.925C17.7717 17.5467 18.69 16.165 19.6683 14.6983C20.1733 15.4567 20.6383 16.155 21.105 16.8533C21.5433 17.51 21.98 18.165 22.4183 18.8217C22.5333 18.995 22.6583 19.1533 22.5033 19.3817C21.5683 20.7733 20.6417 22.1717 19.6667 23.6367Z" fill="#F2F6FB"/>
<path d="M45.2546 14.7717C46.1746 16.15 47.093 17.5317 48.0196 18.9084C48.1396 19.085 48.1513 19.23 48.028 19.415C47.1013 20.7917 46.1846 22.1734 45.2113 23.6334C44.5063 22.5784 43.8413 21.585 43.178 20.59C42.5447 19.6411 42.5435 18.6939 43.1746 17.7484C43.8196 16.7817 44.4713 15.8184 45.1213 14.8567C45.1413 14.8267 45.188 14.8134 45.2563 14.77L45.2546 14.7717Z" fill="#F2F6FB"/>
<path d="M40.9017 42.6583C40.85 42.5983 40.7767 42.53 40.7217 42.4467C39.8583 41.1533 38.9967 39.8583 38.135 38.565C38.005 38.37 38.0233 38.2067 38.1617 38.0017C39.0167 36.7483 39.8633 35.4883 40.6883 34.215C40.89 33.9033 40.9867 33.895 41.1883 34.2017C42.03 35.485 42.885 36.7583 43.7417 38.0317C43.8733 38.2267 43.9017 38.3817 43.7617 38.59C42.9017 39.8617 42.055 41.14 41.2017 42.415C41.1367 42.5133 41.09 42.64 40.9017 42.6583Z" fill="#F2F6FB"/>
<path d="M23.9238 17.2498C22.9438 15.7798 22.0171 14.3848 21.0838 12.9948C20.9721 12.8282 20.9971 12.6982 21.1005 12.5448C22.0238 11.1682 22.9421 9.78816 23.9221 8.31982C24.2805 8.85149 24.6005 9.32316 24.9171 9.79816C25.4938 10.6598 26.0688 11.5232 26.6421 12.3882C26.7638 12.5732 26.9321 12.7448 26.7588 13.0032C25.8255 14.3932 24.8988 15.7898 23.9238 17.2532V17.2498Z" fill="#F2F6FB"/>
<path d="M40.9471 21.1719C41.0388 21.2702 41.1171 21.3335 41.1705 21.4135C42.0355 22.7052 42.8955 24.0019 43.7655 25.2902C43.9088 25.5019 43.8688 25.6569 43.7388 25.8485C42.8821 27.1219 42.0271 28.3952 41.1855 29.6785C40.9755 29.9985 40.8788 29.9519 40.6855 29.6552C39.8588 28.3835 39.0121 27.1235 38.1571 25.8702C38.0171 25.6652 38.0055 25.5019 38.1371 25.3069C39.0005 24.0135 39.8605 22.7185 40.7255 21.4252C40.7805 21.3435 40.8555 21.2752 40.9455 21.1719H40.9471Z" fill="#F2F6FB"/>
<path d="M40.9514 17.2481C39.9764 15.7831 39.0497 14.3864 38.1164 12.9948C37.9647 12.7681 38.0881 12.6048 38.2031 12.4331C39.0314 11.1898 39.8681 9.95311 40.6831 8.70144C40.9031 8.36311 41.0197 8.39311 41.2281 8.71144C42.0431 9.96311 42.8797 11.1998 43.7081 12.4431C43.8231 12.6148 43.9497 12.7648 43.7931 12.9981C42.8564 14.3848 41.9331 15.7798 40.9531 17.2498L40.9514 17.2481Z" fill="#F2F6FB"/>
<path d="M40.9538 55.5616C40.1738 54.3949 39.4388 53.2949 38.7054 52.1949C38.2154 51.4605 38.2193 50.7205 38.7171 49.9749C39.4404 48.8899 40.1654 47.8066 40.9454 46.6416C41.2821 47.1349 41.5804 47.5666 41.8721 48.0033C42.4838 48.9166 43.0921 49.8316 43.7004 50.7483C43.8121 50.9166 43.9554 51.0666 43.7971 51.3016C42.8604 52.6916 41.9354 54.0883 40.9538 55.5616Z" fill="#F2F6FB"/>
<path d="M23.9251 46.625C24.9017 48.0933 25.8184 49.4717 26.7384 50.8483C26.8417 51.0017 26.8684 51.1417 26.7601 51.305C25.8301 52.6983 24.9034 54.0933 23.9251 55.56C22.9434 54.0883 22.0184 52.695 21.0834 51.3067C20.9484 51.105 21.0267 50.9667 21.1351 50.8033C22.0451 49.4433 22.9534 48.08 23.9251 46.6233V46.625Z" fill="#F2F6FB"/>
<path d="M32.417 17.2501C31.4737 15.8335 30.587 14.4818 29.6753 13.1485C29.4853 12.8718 29.527 12.6735 29.6937 12.4251C30.5287 11.1868 31.3587 9.94514 32.177 8.69681C32.362 8.41514 32.4787 8.35181 32.692 8.67848C33.5203 9.94681 34.367 11.2001 35.2053 12.4618C35.307 12.6151 35.4137 12.7535 35.2737 12.9635C34.3253 14.3735 33.3887 15.7901 32.4187 17.2501H32.417Z" fill="#F2F6FB"/>
<path d="M35.3721 51.1135C35.2905 51.2552 35.2255 51.3852 35.1455 51.5052C34.3405 52.7135 33.5255 53.9152 32.7338 55.1335C32.5071 55.4818 32.3838 55.5068 32.1471 55.1402C31.3471 53.9035 30.5255 52.6818 29.6988 51.4618C29.5121 51.1852 29.5021 50.9785 29.7038 50.6868C30.5071 49.5218 31.2838 48.3368 32.0555 47.1502C32.3205 46.7435 32.4838 46.6918 32.7788 47.1552C33.5371 48.3502 34.3505 49.5118 35.1371 50.6885C35.2271 50.8218 35.2938 50.9702 35.3738 51.1152L35.3721 51.1135Z" fill="#F2F6FB"/>
<path d="M39.6334 19.1817C39.555 19.3167 39.49 19.445 39.41 19.565C38.6184 20.755 37.8217 21.9433 37.035 23.1367C36.805 23.485 36.64 23.6633 36.3317 23.17C35.57 21.955 34.7734 20.7617 33.9667 19.5767C33.79 19.3167 33.7417 19.1233 33.9234 18.855C34.7584 17.6183 35.5817 16.3733 36.41 15.1333C36.5417 14.935 36.6884 14.6983 36.9117 15.0283C37.7917 16.3333 38.6617 17.6467 39.5334 18.9583C39.5767 19.025 39.6017 19.1033 39.6367 19.1817H39.6334Z" fill="#F2F6FB"/>
<path d="M36.6379 49.0964C35.7512 47.7648 34.9012 46.4648 34.0229 45.1848C33.7762 44.8264 33.7596 44.5731 34.0262 44.1964C34.8162 43.0748 35.5546 41.9164 36.3062 40.7681C36.5729 40.3614 36.7796 40.3348 37.0646 40.7764C37.8379 41.9781 38.6429 43.1614 39.4379 44.3498C39.5679 44.5448 39.6812 44.7148 39.5129 44.9614C38.6179 46.2814 37.7346 47.6114 36.8429 48.9348C36.7996 48.9998 36.7162 49.0364 36.6379 49.0964Z" fill="#F2F6FB"/>
<path d="M36.6386 27.6032C36.8319 27.6016 36.8719 27.7382 36.9369 27.8349C37.7919 29.1116 38.6403 30.3932 39.5019 31.6666C39.6419 31.8732 39.6236 32.0266 39.4903 32.2249C38.6303 33.4999 37.7769 34.7766 36.9319 36.0616C36.7336 36.3632 36.6136 36.2899 36.4469 36.0416C35.5719 34.7282 34.6936 33.4166 33.8036 32.1132C33.6969 31.9566 33.7203 31.8916 33.8169 31.7482C34.6953 30.4616 35.5569 29.1649 36.4269 27.8716C36.4936 27.7716 36.5753 27.6816 36.6386 27.6016V27.6032Z" fill="#F2F6FB"/>
<path d="M31.0533 31.8517C31.0766 32.0967 30.9666 32.2267 30.8749 32.365C30.0816 33.555 29.2816 34.74 28.5016 35.9383C28.2766 36.2833 28.1399 36.3783 27.8733 35.9617C27.0783 34.7233 26.2583 33.5017 25.4266 32.2867C25.2416 32.0167 25.2599 31.83 25.4366 31.57C26.2649 30.3533 27.0783 29.1267 27.8883 27.8983C28.0633 27.6317 28.1883 27.455 28.4433 27.8467C29.2566 29.0967 30.0949 30.3317 30.9199 31.5767C30.9866 31.6767 31.0266 31.795 31.0533 31.8517Z" fill="#F2F6FB"/>
<path d="M32.5012 42.6331C32.3329 42.6448 32.2779 42.5481 32.2212 42.4664C31.3312 41.1398 30.4462 39.8098 29.5512 38.4848C29.4496 38.3348 29.4729 38.2581 29.5712 38.1131C30.4379 36.8448 31.2962 35.5731 32.1379 34.2898C32.3596 33.9498 32.4862 33.9031 32.7279 34.2764C33.5179 35.4948 34.3296 36.6998 35.1412 37.9031C35.3229 38.1731 35.3596 38.4198 35.1679 38.7031C34.3446 39.9248 33.5296 41.1531 32.7112 42.3764C32.6446 42.4764 32.5596 42.5631 32.5012 42.6331Z" fill="#F2F6FB"/>
<path d="M32.4781 29.9036C32.2781 29.8602 32.2314 29.7069 32.1547 29.5936C31.2964 28.3202 30.4497 27.0402 29.5797 25.7752C29.4564 25.5969 29.4747 25.5102 29.5814 25.3519C30.4531 24.0619 31.3181 22.7702 32.1747 21.4702C32.3831 21.1552 32.5181 21.1969 32.7081 21.4852C33.5181 22.7152 34.3381 23.9402 35.1597 25.1619C35.3281 25.4136 35.3547 25.6486 35.1797 25.9086C34.3364 27.1669 33.4997 28.4286 32.6581 29.6886C32.6031 29.7702 32.5314 29.8402 32.4764 29.9036H32.4781Z" fill="#F2F6FB"/>
<path d="M23.9153 30.0069C22.9403 28.5452 22.0253 27.1669 21.1003 25.7935C20.9753 25.6069 20.9986 25.4619 21.1153 25.2885C21.9703 24.0152 22.8253 22.7435 23.667 21.4619C23.8753 21.1452 24.0036 21.1902 24.1903 21.4735C25.022 22.7369 25.8636 23.9935 26.702 25.2519C26.7936 25.3902 26.892 25.5169 26.7703 25.7002C25.8303 27.1119 24.8936 28.5285 23.9136 30.0085L23.9153 30.0069Z" fill="#F2F6FB"/>
<path d="M23.8867 33.955C23.9851 34.0467 24.0884 34.115 24.1534 34.21C24.9967 35.47 25.8317 36.7367 26.6767 37.995C26.85 38.255 26.8284 38.4567 26.6517 38.715C25.8334 39.9117 25.0251 41.1167 24.2401 42.335C23.9834 42.735 23.8417 42.6867 23.6067 42.3267C22.8034 41.0933 21.9817 39.8733 21.165 38.65C21.0484 38.475 20.9367 38.3233 21.0917 38.095C21.9734 36.79 22.8417 35.4767 23.7167 34.1667C23.7617 34.0983 23.8184 34.0383 23.8884 33.9533L23.8867 33.955Z" fill="#F2F6FB"/>
<path d="M22.5833 31.935C22.5166 32.0617 22.45 32.2117 22.3616 32.3467C21.5633 33.5433 20.745 34.7267 19.9683 35.9367C19.7033 36.3483 19.5716 36.285 19.3383 35.9267C18.545 34.7083 17.7383 33.4983 16.9183 32.2983C16.7383 32.0333 16.74 31.8417 16.9183 31.5783C17.7483 30.36 18.5633 29.13 19.3733 27.8983C19.54 27.645 19.685 27.5067 19.905 27.8367C20.7466 29.1033 21.5883 30.3683 22.4283 31.6367C22.485 31.7217 22.5216 31.8183 22.5816 31.9383L22.5833 31.935Z" fill="#F2F6FB"/>
<path d="M31.1114 44.7434C31.0414 44.8651 30.983 44.9734 30.9147 45.0767C30.1114 46.2834 29.2964 47.4834 28.5064 48.7001C28.2514 49.0934 28.0897 49.0634 27.8497 48.6951C27.0564 47.4801 26.253 46.2734 25.438 45.0751C25.2614 44.8167 25.2447 44.6234 25.428 44.3567C26.2447 43.1584 27.043 41.9484 27.843 40.7384C28.0647 40.4017 28.208 40.2934 28.488 40.7351C29.258 41.9451 30.0847 43.1184 30.883 44.3101C30.973 44.4434 31.033 44.5951 31.1097 44.7434H31.1114Z" fill="#F2F6FB"/>
<path d="M31.11 19.145C31.0284 19.2967 30.9634 19.45 30.8734 19.585C30.0834 20.7633 29.27 21.925 28.505 23.1183C28.2567 23.505 28.1117 23.5433 27.8567 23.1567C27.045 21.925 26.2284 20.6967 25.4017 19.475C25.2517 19.2533 25.2517 19.0817 25.4017 18.86C26.24 17.62 27.07 16.3767 27.8917 15.1267C28.1067 14.8 28.26 14.805 28.475 15.1333C29.2834 16.3667 30.11 17.59 30.9267 18.8183C30.995 18.9217 31.0467 19.0333 31.11 19.1483V19.145Z" fill="#F2F6FB"/>
<path d="M49.4255 29.9518C48.7821 28.9901 48.2088 28.1651 47.6705 27.3168C47.2855 26.7084 46.5455 26.1501 46.6071 25.4818C46.6638 24.8701 47.3038 24.3134 47.6888 23.7318C48.2305 22.9151 48.7738 22.0984 49.4255 21.3218V29.9501V29.9518Z" fill="#F2F6FB"/>
<path d="M49.4416 34.1033V42.5667C49.1483 42.455 49.0683 42.215 48.94 42.02C48.2016 40.91 47.4683 39.7967 46.7166 38.695C46.5766 38.49 46.4733 38.3367 46.6383 38.0917C47.5399 36.7533 48.4316 35.4067 49.325 34.0633L49.4416 34.1033Z" fill="#F2F6FB"/>
<path d="M15.4383 17.2083V8.35501C16.4383 9.85501 17.34 11.2133 18.2483 12.5683C18.36 12.735 18.3333 12.8683 18.23 13.0217C17.3316 14.365 16.435 15.7117 15.4366 17.2083H15.4383Z" fill="#F2F6FB"/>
<path d="M49.455 8.56165V17.2183C49.125 16.7283 48.8883 16.3833 48.6566 16.035C48.01 15.0683 47.365 14.1 46.7216 13.1317C46.61 12.9633 46.4616 12.8117 46.62 12.575C47.5316 11.22 48.435 9.85832 49.34 8.49832C49.3783 8.51832 49.4166 8.53999 49.4533 8.55999L49.455 8.56165Z" fill="#F2F6FB"/>
<path d="M15.45 46.6833C16.4366 48.165 17.34 49.525 18.25 50.8833C18.3616 51.05 18.3316 51.1833 18.2283 51.3367C17.33 52.68 16.4333 54.025 15.45 55.5017V46.6833Z" fill="#F2F6FB"/>
<path d="M49.4384 46.6683V55.5183C48.6684 54.3667 47.9934 53.3567 47.32 52.3467C46.7634 51.5111 46.7684 50.6689 47.335 49.82C48.0017 48.8217 48.6684 47.8217 49.4384 46.6683Z" fill="#F2F6FB"/>
<path d="M15.4463 33.9133C15.8496 34.5166 16.1663 34.9883 16.4813 35.46C16.953 36.1666 17.3813 36.9066 17.908 37.57C18.323 38.0916 18.3196 38.485 17.9313 39.0216C17.0946 40.1783 16.3246 41.3833 15.4463 42.69V33.9116V33.9133Z" fill="#F2F6FB"/>
<path d="M15.4384 29.9733V21.17C16.3334 22.5017 17.12 23.71 17.9484 24.89C18.2834 25.3667 18.3384 25.7217 17.9584 26.2367C17.1034 27.3983 16.3367 28.6267 15.4384 29.9733Z" fill="#F2F6FB"/>
<path d="M28.1671 10.8848C27.2371 9.48143 26.3738 8.15643 25.4821 6.84977C25.2371 6.48977 25.3021 6.38477 25.7104 6.38477C27.3738 6.3881 29.0354 6.38643 30.6988 6.38477C30.9421 6.38477 31.1471 6.4081 30.9371 6.7231C30.0288 8.0881 29.1204 9.45143 28.1671 10.8831V10.8848Z" fill="#F2F6FB"/>
<path d="M28.2133 57.49C27.3816 57.49 26.55 57.4867 25.72 57.49C25.3366 57.4917 25.22 57.41 25.4766 57.0333C26.2866 55.845 27.065 54.635 27.8583 53.435C28.0733 53.1117 28.25 53.0883 28.4866 53.455C29.2516 54.6433 30.05 55.8083 30.8283 56.9883C30.9133 57.1167 31.1016 57.2433 30.99 57.4183C30.9066 57.55 30.7216 57.485 30.5833 57.4867C29.7933 57.4917 29.0033 57.49 28.2133 57.4883V57.49Z" fill="#F2F6FB"/>
<path d="M16.7021 6.41357H22.6371C21.6255 7.93191 20.6688 9.36524 19.6671 10.8669C18.6588 9.35357 17.7038 7.91857 16.7021 6.41357Z" fill="#F2F6FB"/>
<path d="M42.25 6.42499H48.1683C47.735 7.07832 47.35 7.65832 46.9633 8.23665C46.4567 8.99665 45.9533 9.75832 45.4383 10.5133C45.3533 10.6383 45.2617 10.9383 45.0533 10.6283C44.1317 9.25832 43.22 7.88165 42.25 6.42499Z" fill="#F2F6FB"/>
<path d="M19.6666 53.01C20.6716 54.5183 21.6216 55.9417 22.6533 57.49C21.8133 57.49 21.1183 57.49 20.4233 57.49C19.3433 57.49 18.2633 57.485 17.1833 57.4933C16.85 57.4967 16.6966 57.4533 16.9383 57.095C17.8333 55.7717 18.7133 54.44 19.6666 53.01Z" fill="#F2F6FB"/>
<path d="M45.2103 53.0098C46.2136 54.5148 47.162 55.9414 48.1653 57.4464H42.252C43.2553 55.9431 44.2103 54.5081 45.2103 53.0098Z" fill="#F2F6FB"/>
<path d="M36.69 6.38668C37.4984 6.38668 38.3067 6.40001 39.1151 6.38168C39.5084 6.37335 39.6117 6.47835 39.3801 6.82335C38.5567 8.04835 37.7284 9.27001 36.9217 10.505C36.7084 10.8317 36.59 10.71 36.4367 10.48C35.6217 9.25501 34.81 8.02835 33.9867 6.81001C33.7117 6.40335 33.9284 6.38001 34.265 6.38335C35.0734 6.39168 35.8817 6.38668 36.69 6.38668Z" fill="#F2F6FB"/>
<path d="M36.6129 57.4898C35.8046 57.4898 34.9962 57.4848 34.1879 57.4931C33.8646 57.4965 33.7562 57.4098 33.9596 57.1081C34.7896 55.8681 35.6162 54.6265 36.4429 53.3848C36.6079 53.1365 36.7246 53.0748 36.9262 53.3848C37.7312 54.6215 38.5629 55.8415 39.3829 57.0681C39.5629 57.3365 39.5729 57.5031 39.1612 57.4965C38.3112 57.4798 37.4612 57.4915 36.6112 57.4915L36.6129 57.4898Z" fill="#F2F6FB"/>
<path d="M10.1 8.615C10.74 8.61333 11.1183 8.97833 11.1116 9.58833C11.105 10.1667 10.5366 10.7617 10.025 10.73C9.54496 10.7 9.00496 10.0983 8.99162 9.58C8.97829 9.005 9.42329 8.61833 10.1 8.61666V8.615Z" fill="#2E3192"/>
</g>
<defs>
<clipPath id="clip0_68_842">
<rect width="64" height="64" fill="white" transform="translate(0.5)"/>
</clipPath>
</defs>
</svg>
