<svg width="32" height="32" viewBox="0 0 32 32" fill="none" xmlns="http://www.w3.org/2000/svg">
<path d="M12.8494 15.8011L0.870687 20.1385C0.442687 20.2945 0.122687 20.6571 0.022687 21.1025C-0.0759796 21.5478 0.0586871 22.0131 0.382687 22.3345L4.10669 26.0585L0.40002 29.7665C-0.121313 30.2878 -0.121313 31.1305 0.40002 31.6518C0.66002 31.9118 1.00135 32.0425 1.34269 32.0425C1.68402 32.0425 2.02535 31.9118 2.28535 31.6518L5.99202 27.9451L9.71602 31.6691C9.96802 31.9211 10.308 32.0598 10.6587 32.0598C10.7547 32.0598 10.8534 32.0491 10.948 32.0278C11.3934 31.9291 11.7574 31.6091 11.9134 31.1798L16.252 19.2011L16.26 19.1785C16.592 18.2078 16.3467 17.1545 15.6214 16.4291C14.8974 15.7051 13.8467 15.4598 12.852 15.7998L12.8494 15.8011ZM10.1187 28.3011L3.74935 21.9318L13.7374 18.3078L10.1187 28.3011ZM32.0094 13.3758C32.0094 20.7278 26.028 26.7091 18.676 26.7091C17.9387 26.7091 17.3427 26.1118 17.3427 25.3758C17.3427 24.6398 17.9387 24.0425 18.676 24.0425C24.5574 24.0425 29.3427 19.2571 29.3427 13.3758C29.3427 7.49448 24.5574 2.70915 18.676 2.70915C12.7947 2.70915 8.00935 7.49448 8.00935 13.3758C8.00935 14.1118 7.41335 14.7091 6.67602 14.7091C5.93869 14.7091 5.34269 14.1118 5.34269 13.3758C5.34269 6.02381 11.324 0.0424805 18.676 0.0424805C26.028 0.0424805 32.0094 6.02381 32.0094 13.3758ZM24.0094 13.3758C24.0094 10.4345 21.6174 8.04248 18.676 8.04248C16.512 8.04248 14.5774 9.33448 13.748 11.3331C13.464 12.0131 12.684 12.3345 12.004 12.0531C11.324 11.7718 11.0014 10.9905 11.284 10.3105C12.5294 7.31181 15.4294 5.37581 18.676 5.37581C23.088 5.37581 26.676 8.96381 26.676 13.3758C26.676 16.6251 24.7374 19.5265 21.736 20.7691C21.5694 20.8385 21.396 20.8718 21.2254 20.8718C20.7014 20.8718 20.2054 20.5611 19.9934 20.0478C19.712 19.3678 20.0347 18.5878 20.7147 18.3065C22.716 17.4771 24.0094 15.5425 24.0094 13.3771V13.3758Z" fill="#2E3192"/>
</svg>
