<svg width="65" height="48" viewBox="0 0 65 48" fill="none" xmlns="http://www.w3.org/2000/svg">
<path d="M17.5092 11.03C20.3392 11.03 23.1592 11.01 25.9892 11.01C32.8292 11.01 39.6592 11.01 46.4992 11.01C46.8292 11.01 47.1592 11.03 47.4892 11.04C47.4892 11.27 47.5992 11.45 47.7092 11.64C48.8492 13.66 49.9792 15.7 51.1192 17.72C52.7292 20.58 54.3492 23.43 55.9492 26.29C56.7592 27.74 57.5492 29.21 58.3492 30.66C58.0192 30.68 57.6992 30.71 57.3692 30.71C40.8592 30.71 24.3592 30.71 7.84922 30.71C7.49922 30.71 7.13922 30.78 6.79922 30.62C7.10922 29.47 7.82922 28.52 8.38922 27.5C10.0392 24.5 11.7292 21.54 13.4092 18.56C14.7092 16.25 16.0092 13.93 17.3192 11.63C17.4292 11.43 17.5392 11.26 17.5192 11.02L17.5092 11.03ZM19.8292 15.33C19.8792 14.53 19.3292 13.87 18.5592 13.81C17.8192 13.75 17.1092 14.36 17.0392 15.11C16.9692 15.88 17.5492 16.55 18.3292 16.6C19.1392 16.65 19.7792 16.11 19.8292 15.32V15.33ZM46.5092 13.81C45.7292 13.83 45.1492 14.46 45.1792 15.27C45.1992 16.07 45.8092 16.63 46.6192 16.61C47.4092 16.59 48.0192 15.95 47.9792 15.18C47.9392 14.43 47.2592 13.8 46.5192 13.82L46.5092 13.81ZM28.2892 20.85C28.2892 20.09 27.6392 19.44 26.8792 19.43C26.1492 19.42 25.4692 20.09 25.4592 20.84C25.4492 21.6 26.0692 22.22 26.8692 22.23C27.6492 22.23 28.2892 21.61 28.2892 20.85ZM38.1492 22.23C38.9392 22.22 39.5692 21.59 39.5492 20.83C39.5292 20.08 38.8392 19.41 38.1092 19.43C37.3492 19.45 36.7192 20.1 36.7192 20.86C36.7192 21.62 37.3592 22.23 38.1492 22.22V22.23ZM11.4192 26.42C11.3892 27.18 12.0092 27.86 12.7692 27.89C13.5192 27.92 14.1892 27.29 14.2192 26.53C14.2492 25.77 13.6092 25.07 12.8792 25.05C12.1292 25.03 11.4492 25.67 11.4192 26.42ZM25.4392 27.88C26.2092 27.88 26.8692 27.26 26.8792 26.5C26.8992 25.72 26.1992 25.03 25.4192 25.05C24.7192 25.07 24.0992 25.72 24.0792 26.44C24.0592 27.22 24.6792 27.88 25.4292 27.88H25.4392ZM39.5492 25.05C38.7992 25.05 38.1292 25.69 38.1092 26.44C38.0892 27.2 38.7192 27.85 39.4892 27.88C40.2392 27.91 40.8892 27.28 40.8992 26.5C40.9092 25.74 40.2692 25.05 39.5392 25.05H39.5492ZM53.5792 26.51C53.5992 25.75 52.9792 25.09 52.2092 25.05C51.4892 25.01 50.7992 25.68 50.7792 26.44C50.7592 27.2 51.3892 27.87 52.1392 27.89C52.8892 27.91 53.5592 27.26 53.5692 26.5L53.5792 26.51ZM29.6892 15.24C29.6892 14.49 29.0292 13.82 28.2892 13.82C27.5192 13.82 26.8892 14.45 26.8892 15.23C26.8892 16.03 27.4792 16.62 28.2792 16.62C29.0792 16.62 29.6892 16.02 29.6892 15.24ZM38.1092 15.21C38.1092 14.43 37.4792 13.81 36.6992 13.81C35.9592 13.81 35.3092 14.49 35.3092 15.24C35.3092 16.02 35.9292 16.61 36.7292 16.61C37.5292 16.61 38.1092 16.01 38.1092 15.21ZM17.0192 20.86C17.0192 20.11 16.3592 19.43 15.6192 19.43C14.8792 19.43 14.2192 20.12 14.2192 20.88C14.2192 21.64 14.8192 22.21 15.5892 22.23C16.4092 22.25 17.0092 21.67 17.0192 20.86ZM49.3692 22.23C50.1792 22.23 50.7892 21.62 50.7792 20.83C50.7592 20.11 50.1292 19.45 49.4192 19.43C48.6792 19.4 47.9892 20.07 47.9792 20.82C47.9792 21.63 48.5592 22.22 49.3692 22.22V22.23Z" fill="#E7ECFB"/>
<path d="M5.80923 38.87C6.48923 38.87 7.16923 38.87 7.85923 38.85C8.81923 38.82 9.33923 38.28 9.46923 37.19C10.2892 37.19 11.1092 37.2 11.9292 37.21C12.2692 38.55 12.6292 38.85 13.9292 38.85C28.6592 38.85 43.3992 38.85 58.1292 38.85C58.4892 38.85 58.8392 38.85 59.1992 38.86C59.1392 40.94 59.3692 43.02 59.0192 45.09C58.7192 45.1 58.4192 45.13 58.1192 45.13C41.0692 45.13 24.0092 45.13 6.95923 45.13C6.68923 45.13 6.40923 45.11 6.13923 45.1C5.82923 44.33 5.80923 43.52 5.82923 42.7C5.84923 41.42 5.82923 40.15 5.82923 38.87H5.80923Z" fill="#C8D8FB"/>
<path d="M59.0092 45.71C59.4092 43.21 59.1392 40.69 59.2192 38.18C59.9992 38.18 60.7692 38.21 61.5492 38.16C62.1792 38.12 62.4392 38.34 62.4092 39.15C62.3592 40.59 62.4092 42.04 62.3892 43.49C62.3792 44.98 61.7392 45.74 60.4892 45.76C59.9892 45.76 59.4992 45.73 58.9992 45.71H59.0092Z" fill="#C8D8FB"/>
<path d="M63.2192 29.83C62.9392 29.35 62.5892 28.75 62.1692 27.98C60.2292 24.49 58.2392 20.96 56.3092 17.54L56.0092 17.01C54.8492 14.95 53.6892 12.9 52.5392 10.84C51.6992 9.34997 50.4892 8.64997 48.7992 8.66997C47.5792 8.68997 46.3292 8.67997 45.1292 8.66997H43.5192H36.4892C29.7192 8.66997 22.9492 8.66997 16.1792 8.66997C14.6592 8.66997 13.5492 9.21997 12.7792 10.35C12.3992 10.91 12.4292 11.49 12.8692 11.8C13.3392 12.14 13.8192 12.01 14.2392 11.43C14.7192 10.77 15.3292 10.47 16.1192 10.5C16.4392 10.51 16.7592 10.52 17.0792 10.52H17.4992H20.0992C22.0592 10.52 24.0192 10.51 25.9692 10.5C32.8092 10.5 39.6392 10.5 46.4792 10.5C46.7092 10.5 46.9492 10.51 47.1792 10.52H47.4792H47.8592C48.1592 10.52 48.4492 10.51 48.7292 10.49C49.7092 10.42 50.4392 10.84 50.9692 11.8C54.2092 17.59 57.6092 23.64 61.0692 29.77C61.2492 30.08 61.4892 30.51 61.2392 30.9C61.0192 31.24 60.6092 31.25 60.2292 31.22C59.9992 31.2 59.7692 31.21 59.5192 31.22C59.0992 31.23 58.6892 31.24 58.2692 31.16L58.0292 31.18C57.7992 31.2 57.5592 31.21 57.3292 31.21C40.8292 31.21 24.3192 31.21 7.80922 31.21C7.73922 31.21 7.65922 31.21 7.58922 31.21C7.30922 31.22 7.00922 31.23 6.70922 31.13C6.02922 31.24 5.35922 31.21 4.71922 31.19C4.48922 31.19 4.28922 31.17 4.08922 31.17H3.64922L3.60922 30.72C3.56922 30.29 3.75922 30.01 3.87922 29.83C3.90922 29.78 3.92922 29.75 3.94922 29.72C4.55922 28.63 5.16922 27.55 5.77922 26.46L6.05922 25.96C6.89922 24.46 7.74922 22.96 8.57922 21.46C8.77922 21.11 8.83922 20.77 8.75922 20.5C8.69922 20.29 8.54922 20.12 8.31922 19.99C8.17922 19.91 8.02922 19.87 7.89922 19.87C7.55922 19.87 7.24922 20.1 6.99922 20.55C5.96922 22.38 4.93922 24.21 3.90922 26.03L1.22922 30.8C0.84922 31.49 0.66922 32.21 0.66922 33C0.66922 34.74 0.66922 36.47 0.66922 38.21V38.77C0.66922 40.22 0.66922 41.68 0.66922 43.13C0.66922 45.52 2.22922 47.07 4.62922 47.07C23.2192 47.07 41.7992 47.07 60.3892 47.07C62.7592 47.07 64.2992 45.54 64.3192 43.18C64.3292 41.28 64.3392 38.77 64.3192 36.27C64.3192 35.33 64.3192 34.6 64.3192 34.01C64.3392 32.5366 63.9726 31.1466 63.2192 29.84L63.3292 29.78L63.2192 29.83ZM13.9092 38.66H58.1092C58.3292 38.66 58.5592 38.66 58.7792 38.66H59.7992C60.2792 38.67 60.7492 38.68 61.1992 38.66C61.4792 38.65 61.8992 38.66 62.1792 38.94C62.4692 39.22 62.4892 39.62 62.4792 39.9C62.4492 40.56 62.4592 41.24 62.4592 41.9C62.4592 42.3 62.4592 42.69 62.4592 43.09C62.4492 44.45 61.6592 45.23 60.2992 45.25H60.2092C59.9392 45.25 59.6592 45.25 59.3892 45.23H58.9792H58.7292C58.5192 45.24 58.2992 45.25 58.0892 45.25C41.0392 45.25 23.9792 45.25 6.92922 45.25C6.72922 45.25 6.53922 45.25 6.34922 45.23H6.09922H5.61922C5.18922 45.24 4.83922 45.25 4.45922 45.23C3.27922 45.18 2.52922 44.43 2.50922 43.25C2.50922 42.73 2.50922 42.21 2.50922 41.69V41.62C2.50922 41 2.50922 40.36 2.50922 39.73C2.50922 39.49 2.52922 39.14 2.78922 38.88C3.04922 38.63 3.39922 38.61 3.63922 38.63C4.14922 38.66 4.65922 38.66 5.15922 38.66H5.82922H6.44922C6.91922 38.66 7.37922 38.66 7.84922 38.64C8.52922 38.62 8.85922 38.34 8.96922 37.67C8.78922 36.95 8.60922 36.82 7.82922 36.8L5.79922 36.75H5.15922C4.61922 36.77 4.07922 36.78 3.53922 36.8C3.15922 36.81 2.90922 36.72 2.71922 36.52C2.53922 36.33 2.46922 36.07 2.50922 35.74C2.52922 35.16 2.50922 34.75 2.50922 34.44C2.48922 33.89 2.46922 33.53 2.74922 33.26C3.04922 32.96 3.44922 32.98 4.32922 33.01C4.73922 33.02 5.20922 33.04 5.80922 33.04H5.98922C6.14922 33.02 6.30922 33.01 6.46922 33.01H58.6192C58.7592 33.01 58.8992 33.01 59.0392 33.02H59.2192H59.8592C60.3992 33.02 60.9392 33.02 61.4792 33H61.4892C61.8392 33 62.0992 33.09 62.2692 33.28C62.4492 33.47 62.5292 33.73 62.4992 34.06C62.5592 35.25 62.5792 36.01 62.0892 36.47C61.5792 36.96 60.7192 36.9 59.1192 36.74L58.8592 36.76C58.6092 36.77 58.3592 36.78 58.1092 36.78H13.8192C12.8492 36.78 12.6692 36.89 12.4192 37.65C12.6792 38.5 12.8692 38.62 13.9092 38.62V38.66Z" fill="#2E3192"/>
<path d="M59.6792 0.939993C59.6792 0.939993 59.7592 0.989993 59.7992 1.00999C59.7092 1.05999 59.6592 1.04999 59.6892 0.929993L59.6792 0.939993Z" fill="#FDFEFE"/>
<path d="M11.9192 37.69C11.0992 37.69 10.2792 37.68 9.45923 37.67C9.20923 36.56 8.85923 36.24 7.83923 36.22C7.15923 36.2 6.48923 36.18 5.80923 36.16C5.80923 35.17 5.80923 34.18 5.81923 33.19C6.03923 33.18 6.25923 33.16 6.47923 33.16C23.8592 33.16 41.2492 33.16 58.6292 33.16C58.8192 33.16 59.0092 33.18 59.1992 33.18C59.1992 34.18 59.1792 35.17 59.1692 36.17C58.8092 36.18 58.4592 36.21 58.0992 36.21C43.3392 36.21 28.5792 36.21 13.8192 36.21C12.5892 36.21 12.2392 36.49 11.9092 37.68L11.9192 37.69Z" fill="#E7ECFB"/>
<path d="M58.3392 30.66C57.5392 29.2 56.7492 27.74 55.9392 26.29C54.3392 23.43 52.7192 20.58 51.1092 17.72C49.9692 15.69 48.8492 13.66 47.6992 11.64C47.5892 11.44 47.4792 11.27 47.4792 11.04C47.9192 11.03 48.3592 11.04 48.7892 11C49.6392 10.94 50.1592 11.33 50.5592 12.06C53.9092 18.06 57.2792 24.05 60.6592 30.03C60.9492 30.54 61.0392 30.82 60.2892 30.75C59.6392 30.69 58.9792 30.83 58.3292 30.67L58.3392 30.66Z" fill="#C8D8FB"/>
<path d="M5.81923 33.56C5.81923 34.47 5.81923 35.38 5.80923 36.29C5.04923 36.31 4.28923 36.31 3.52923 36.34C3.14923 36.35 2.95923 36.22 3.00923 35.83C3.00923 35.8 3.00923 35.78 3.00923 35.75C3.13923 33.01 2.23923 33.57 5.82923 33.57L5.81923 33.56Z" fill="#FEFEFE"/>
<path d="M59.1692 36.3C59.1692 35.38 59.1892 34.47 59.1992 33.55C59.9592 33.55 60.7292 33.55 61.4892 33.53C61.8792 33.52 62.0492 33.68 62.0092 34.06C62.0092 34.09 62.0092 34.11 62.0092 34.14C62.1292 36.48 62.0092 36.58 59.1692 36.3Z" fill="#C8D8FB"/>
<path d="M17.5392 15.96C17.7392 16.2 18.0292 16.34 18.3392 16.36C18.9992 16.4 19.5392 15.96 19.5792 15.31C19.6192 14.64 19.1792 14.1 18.5392 14.05C18.5092 14.05 18.4892 14.05 18.4592 14.05C17.8792 14.05 17.3392 14.54 17.2792 15.13C17.2492 15.43 17.3392 15.72 17.5392 15.95V15.96Z" fill="#2E3192"/>
<path d="M45.4192 15.26C45.4192 15.58 45.5492 15.87 45.7692 16.07C45.9892 16.27 46.2692 16.38 46.6092 16.37C46.9292 16.37 47.2292 16.23 47.4392 16C47.6392 15.78 47.7492 15.49 47.7292 15.19C47.6992 14.58 47.1492 14.06 46.5492 14.06C46.5392 14.06 46.5292 14.06 46.5192 14.06C46.2192 14.06 45.9392 14.19 45.7392 14.4C45.5292 14.62 45.4192 14.93 45.4292 15.26H45.4192Z" fill="#2E3192"/>
<path d="M26.0092 21.62C26.2292 21.85 26.5392 21.97 26.8692 21.98C27.1892 21.98 27.4892 21.86 27.7092 21.63C27.9192 21.42 28.0392 21.14 28.0292 20.85C28.0292 20.22 27.4892 19.68 26.8592 19.67H26.8392C26.2392 19.67 25.6892 20.22 25.6792 20.84C25.6792 21.13 25.7792 21.41 25.9892 21.62H26.0092Z" fill="#2E3192"/>
<path d="M36.9592 20.86C36.9592 21.15 37.0792 21.43 37.2892 21.64C37.5192 21.86 37.8292 21.98 38.1392 21.98C38.4692 21.98 38.7692 21.85 38.9992 21.61C39.2092 21.4 39.3092 21.12 39.2992 20.83C39.2792 20.22 38.7292 19.67 38.1392 19.67C38.1392 19.67 38.1192 19.67 38.1092 19.67C37.4692 19.69 36.9592 20.22 36.9592 20.86Z" fill="#2E3192"/>
<path d="M12.8692 25.29C12.8692 25.29 12.8492 25.29 12.8392 25.29C12.2292 25.29 11.6892 25.81 11.6592 26.43C11.6292 27.05 12.1592 27.62 12.7692 27.65C13.0492 27.65 13.3492 27.55 13.5792 27.34C13.8092 27.12 13.9592 26.83 13.9692 26.52C13.9792 26.22 13.8592 25.9 13.6292 25.66C13.4192 25.43 13.1392 25.3 12.8692 25.29Z" fill="#2E3192"/>
<path d="M26.6392 26.49C26.6392 26.18 26.5192 25.87 26.2792 25.64C26.0492 25.41 25.7592 25.27 25.4292 25.28C24.8692 25.29 24.3392 25.84 24.3292 26.43C24.3292 26.75 24.4492 27.06 24.6692 27.28C24.8792 27.5 25.1592 27.62 25.4492 27.62C26.0792 27.62 26.6192 27.1 26.6392 26.48V26.49Z" fill="#2E3192"/>
<path d="M39.5492 25.29C38.9392 25.29 38.3792 25.83 38.3692 26.45C38.3592 27.07 38.8792 27.61 39.5192 27.64C39.8092 27.66 40.0892 27.54 40.3092 27.33C40.5392 27.11 40.6692 26.81 40.6792 26.5C40.6792 26.19 40.5492 25.87 40.3192 25.64C40.1092 25.42 39.8292 25.3 39.5592 25.3L39.5492 25.29Z" fill="#2E3192"/>
<path d="M52.1592 27.65C52.4392 27.67 52.7392 27.54 52.9692 27.33C53.1992 27.11 53.3392 26.81 53.3492 26.51C53.3592 25.89 52.8392 25.34 52.2092 25.3C52.1992 25.3 52.1792 25.3 52.1692 25.3C51.9192 25.3 51.6492 25.41 51.4392 25.61C51.1892 25.84 51.0492 26.15 51.0392 26.46C51.0192 27.09 51.5392 27.64 52.1692 27.66L52.1592 27.65Z" fill="#2E3192"/>
<path d="M28.2892 14.05C27.9792 14.05 27.6892 14.17 27.4792 14.39C27.2592 14.61 27.1392 14.9 27.1392 15.21C27.1392 15.87 27.6192 16.36 28.2792 16.36C28.5992 16.36 28.8992 16.24 29.1192 16.03C29.3392 15.82 29.4392 15.54 29.4392 15.23C29.4392 14.61 28.8892 14.05 28.2792 14.05H28.2892Z" fill="#2E3192"/>
<path d="M36.7192 14.05H36.7092C36.1092 14.05 35.5592 14.62 35.5592 15.24C35.5592 15.54 35.6792 15.83 35.8892 16.03C36.1092 16.25 36.4192 16.36 36.7392 16.36C37.3992 16.36 37.8792 15.87 37.8792 15.2C37.8792 14.89 37.7592 14.59 37.5292 14.38C37.3092 14.17 37.0292 14.05 36.7292 14.05H36.7192Z" fill="#2E3192"/>
<path d="M15.6292 19.67C15.3492 19.67 15.0592 19.8 14.8392 20.03C14.6092 20.27 14.4792 20.57 14.4792 20.87C14.4792 21.49 14.9692 21.97 15.6092 21.98C15.9392 21.98 16.2392 21.88 16.4592 21.67C16.6692 21.47 16.7892 21.18 16.7892 20.86C16.7892 20.56 16.6592 20.26 16.4292 20.03C16.2092 19.81 15.9192 19.68 15.6292 19.68V19.67Z" fill="#2E3192"/>
<path d="M48.5392 21.65C48.7492 21.86 49.0392 21.98 49.3692 21.98C49.6992 21.98 49.9992 21.86 50.2192 21.64C50.4292 21.43 50.5392 21.14 50.5292 20.84C50.5192 20.24 49.9892 19.7 49.3992 19.68C49.3892 19.68 49.3792 19.68 49.3692 19.68C49.0992 19.68 48.8192 19.8 48.5992 20.01C48.3592 20.24 48.2292 20.54 48.2192 20.83C48.2192 21.15 48.3292 21.45 48.5392 21.66V21.65Z" fill="#2E3192"/>
<path d="M11.5992 16.05C11.5992 16.59 11.1892 16.97 10.6492 16.95C10.1692 16.94 9.73922 16.51 9.74922 16.03C9.74922 15.53 10.1992 15.08 10.6992 15.09C11.2292 15.09 11.6192 15.51 11.6092 16.05H11.5992Z" fill="#2E3192"/>
</svg>
