<svg width="37" height="38" viewBox="0 0 37 38" fill="none" xmlns="http://www.w3.org/2000/svg">
<path d="M15.5 12C15.2348 12 14.9804 12.1054 14.7929 12.2929C14.6054 12.4804 14.5 12.7348 14.5 13C14.5 13.2652 14.6054 13.5196 14.7929 13.7071C14.9804 13.8947 15.2348 14 15.5 14C15.7652 14 16.0196 13.8947 16.2071 13.7071C16.3946 13.5196 16.5 13.2652 16.5 13C16.5 12.7348 16.3946 12.4804 16.2071 12.2929C16.0196 12.1054 15.7652 12 15.5 12ZM12.67 12C12.8766 11.4145 13.2597 10.9074 13.7666 10.5488C14.2735 10.1902 14.8791 9.99756 15.5 9.99756C16.1209 9.99756 16.7265 10.1902 17.2334 10.5488C17.7403 10.9074 18.1234 11.4145 18.33 12H25.5C25.7652 12 26.0196 12.1054 26.2071 12.2929C26.3946 12.4804 26.5 12.7348 26.5 13C26.5 13.2652 26.3946 13.5196 26.2071 13.7071C26.0196 13.8947 25.7652 14 25.5 14H18.33C18.1234 14.5855 17.7403 15.0926 17.2334 15.4512C16.7265 15.8099 16.1209 16.0025 15.5 16.0025C14.8791 16.0025 14.2735 15.8099 13.7666 15.4512C13.2597 15.0926 12.8766 14.5855 12.67 14H11.5C11.2348 14 10.9804 13.8947 10.7929 13.7071C10.6054 13.5196 10.5 13.2652 10.5 13C10.5 12.7348 10.6054 12.4804 10.7929 12.2929C10.9804 12.1054 11.2348 12 11.5 12H12.67ZM21.5 18C21.2348 18 20.9804 18.1054 20.7929 18.2929C20.6054 18.4804 20.5 18.7348 20.5 19C20.5 19.2652 20.6054 19.5196 20.7929 19.7071C20.9804 19.8947 21.2348 20 21.5 20C21.7652 20 22.0196 19.8947 22.2071 19.7071C22.3946 19.5196 22.5 19.2652 22.5 19C22.5 18.7348 22.3946 18.4804 22.2071 18.2929C22.0196 18.1054 21.7652 18 21.5 18ZM18.67 18C18.8766 17.4145 19.2597 16.9074 19.7666 16.5488C20.2735 16.1902 20.8791 15.9976 21.5 15.9976C22.1209 15.9976 22.7265 16.1902 23.2334 16.5488C23.7403 16.9074 24.1234 17.4145 24.33 18H25.5C25.7652 18 26.0196 18.1054 26.2071 18.2929C26.3946 18.4804 26.5 18.7348 26.5 19C26.5 19.2652 26.3946 19.5196 26.2071 19.7071C26.0196 19.8947 25.7652 20 25.5 20H24.33C24.1234 20.5855 23.7403 21.0926 23.2334 21.4512C22.7265 21.8099 22.1209 22.0025 21.5 22.0025C20.8791 22.0025 20.2735 21.8099 19.7666 21.4512C19.2597 21.0926 18.8766 20.5855 18.67 20H11.5C11.2348 20 10.9804 19.8947 10.7929 19.7071C10.6054 19.5196 10.5 19.2652 10.5 19C10.5 18.7348 10.6054 18.4804 10.7929 18.2929C10.9804 18.1054 11.2348 18 11.5 18H18.67ZM15.5 24C15.2348 24 14.9804 24.1054 14.7929 24.2929C14.6054 24.4804 14.5 24.7348 14.5 25C14.5 25.2652 14.6054 25.5196 14.7929 25.7071C14.9804 25.8947 15.2348 26 15.5 26C15.7652 26 16.0196 25.8947 16.2071 25.7071C16.3946 25.5196 16.5 25.2652 16.5 25C16.5 24.7348 16.3946 24.4804 16.2071 24.2929C16.0196 24.1054 15.7652 24 15.5 24ZM12.67 24C12.8766 23.4145 13.2597 22.9074 13.7666 22.5488C14.2735 22.1902 14.8791 21.9976 15.5 21.9976C16.1209 21.9976 16.7265 22.1902 17.2334 22.5488C17.7403 22.9074 18.1234 23.4145 18.33 24H25.5C25.7652 24 26.0196 24.1054 26.2071 24.2929C26.3946 24.4804 26.5 24.7348 26.5 25C26.5 25.2652 26.3946 25.5196 26.2071 25.7071C26.0196 25.8947 25.7652 26 25.5 26H18.33C18.1234 26.5855 17.7403 27.0926 17.2334 27.4512C16.7265 27.8099 16.1209 28.0025 15.5 28.0025C14.8791 28.0025 14.2735 27.8099 13.7666 27.4512C13.2597 27.0926 12.8766 26.5855 12.67 26H11.5C11.2348 26 10.9804 25.8947 10.7929 25.7071C10.6054 25.5196 10.5 25.2652 10.5 25C10.5 24.7348 10.6054 24.4804 10.7929 24.2929C10.9804 24.1054 11.2348 24 11.5 24H12.67Z" fill="white"/>
</svg>
