<svg width="26" height="26" viewBox="0 0 26 26" fill="none" xmlns="http://www.w3.org/2000/svg">
<path d="M24.6479 5.10653H22.2001C16.8084 5.10653 11.4167 5.10653 6.03322 5.12292C5.71071 5.12292 5.40474 5.05735 5.29723 4.55735C5.20627 4.13932 5.09877 3.72949 4.99126 3.31965C4.93338 3.11474 4.88376 2.90982 4.83414 2.7049C4.65221 1.9672 4.10643 1.30327 3.33736 0.89344C2.84946 0.639343 2.33676 0.5 1.83232 0.5C1.52634 0.5 1.23691 0.54918 0.95575 0.64754C0.691126 0.729507 0.484388 1.03278 0.500927 1.27868C0.517466 1.56557 0.732473 1.83606 0.964019 1.86884C1.32788 1.91802 1.71654 1.92622 2.08867 1.92622H2.15483C2.59311 1.92622 2.94043 2.09015 3.15544 2.37704C3.3539 2.64753 3.50275 2.959 3.58545 3.27047C3.80873 4.12293 4.032 4.98358 4.26355 5.83603C4.97472 8.52454 5.71071 11.295 6.35573 14.0491C6.71959 15.5901 8.00963 17.3524 10.4739 17.3524C10.5236 17.3524 10.5814 17.3524 10.6393 17.3524C11.6151 17.3196 12.5992 17.3278 13.5585 17.336C13.9967 17.336 14.435 17.336 14.8733 17.336H16.2626C17.3045 17.336 18.3465 17.336 19.3885 17.336C21.4227 17.3278 23.0436 16.0573 23.5149 14.1065C24.1682 11.4344 24.8132 8.76224 25.45 6.09013C25.4831 5.96718 25.5161 5.80325 25.4913 5.6721C25.4665 5.53276 25.3921 5.09833 24.6479 5.09833V5.10653ZM23.6886 7.57373C23.5397 8.18028 23.3992 8.77864 23.2586 9.37699C22.903 10.8524 22.5474 12.3196 22.1835 13.795C21.8528 15.1393 20.7777 15.9753 19.3802 15.9753H10.4409C8.98543 15.9753 8.09232 15.2868 7.72847 13.877C7.3398 12.3688 6.94286 10.8524 6.54593 9.34421L5.95052 7.08193C5.93399 7.01635 5.91745 6.95078 5.90091 6.87701L5.81821 6.49996H23.9449L23.6886 7.58192V7.57373Z" fill="#F2F6FB"/>
<path d="M18.9753 19.6556H18.967C17.3793 19.6556 16.0314 20.9835 16.0231 22.5654C16.0148 24.1392 17.3545 25.4916 18.9505 25.4998C19.7526 25.508 20.4638 25.2048 21.0344 24.6474C21.605 24.09 21.9193 23.3523 21.9193 22.5818C21.9193 20.9999 20.5713 19.6638 18.9753 19.6556ZM18.9422 24.131C18.9422 24.131 18.9257 24.131 18.9174 24.131C18.504 24.131 18.1236 23.9589 17.8424 23.672C17.553 23.3687 17.3958 22.9589 17.4041 22.5081C17.4207 21.6474 18.107 20.9999 19.0249 21.0327C19.4467 21.0327 19.8271 21.213 20.1082 21.5081C20.3894 21.8031 20.5382 22.2048 20.53 22.631C20.5134 23.4753 19.8188 24.131 18.9505 24.131H18.9422Z" fill="#F2F6FB"/>
<path d="M10.7472 19.6556H10.7307C9.14292 19.6556 7.80326 20.9835 7.78672 22.5572C7.77845 24.131 9.10984 25.4752 10.7141 25.4916H10.7472C11.508 25.4916 12.2274 25.1884 12.7898 24.6392C13.3521 24.09 13.6829 23.3359 13.6829 22.5736C13.6829 20.9999 12.3432 19.6556 10.7472 19.6474V19.6556ZM10.7389 24.131C10.3089 24.131 9.91198 23.9753 9.62255 23.6884C9.33312 23.4015 9.16773 22.9998 9.176 22.5654C9.176 21.6884 9.8541 21.0245 10.7389 21.0245C11.1689 21.0245 11.5742 21.1802 11.8636 21.4753C12.153 21.7621 12.3101 22.1638 12.3101 22.59C12.3101 23.4507 11.6155 24.131 10.7472 24.131H10.7389Z" fill="#F2F6FB"/>
</svg>
