<svg width="65" height="64" viewBox="0 0 65 64" fill="none" xmlns="http://www.w3.org/2000/svg">
<g clip-path="url(#clip0_68_912)">
<path d="M34.75 0.0166695C35.8817 0.140003 37.015 0.24167 38.1433 0.393336C39.2333 0.540003 40.3217 0.710003 41.3983 0.928336C42.1583 1.08167 42.6933 1.57 42.9833 2.29834C43.585 3.81167 43.99 5.37667 44.115 7.00334C44.1433 7.37667 44.265 7.505 44.6417 7.5C45.87 7.48167 47.0983 7.48667 48.3267 7.495C50.9717 7.515 52.745 9.285 52.745 11.9267C52.75 27.7933 52.7483 43.6583 52.745 59.525C52.745 61.78 51.5933 63.2617 49.3917 63.885C49.3367 63.9 49.2933 63.9533 49.2433 63.9883H15.7567C15.0483 63.7083 14.3167 63.485 13.73 62.955C12.7867 62.1 12.2567 61.06 12.2567 59.7767C12.2533 46.6817 12.2533 33.5867 12.255 20.4933C12.255 19.665 12.62 19.2367 13.3 19.235C14.0017 19.235 14.38 19.6817 14.38 20.5383C14.3833 23.4117 14.38 26.2833 14.38 29.1567C14.38 29.3817 14.38 29.605 14.38 29.8867C15.1317 29.7033 15.815 29.535 16.4967 29.3683C16.825 29.0717 17.2533 29.035 17.6533 28.945C22.135 27.9317 26.6117 26.8967 31.0917 25.87C36.9083 24.5367 42.725 23.2033 48.54 21.8617C48.965 21.7567 49.385 21.6367 49.8167 21.565C50.23 21.4967 50.4317 21.2833 50.43 20.85C50.425 17.8117 50.4633 14.775 50.41 11.7383C50.3883 10.5433 49.5967 9.85 48.39 9.82167C48.1817 9.81667 47.975 9.805 47.7667 9.81667C46.83 9.82 45.895 9.82667 44.9583 9.81167C44.525 9.805 44.3167 9.96 44.2717 10.4083C44.13 11.78 43.7717 13.1017 43.3283 14.4083C42.935 15.5633 42.2017 16.24 40.9767 16.4467C38.555 16.8533 36.1317 17.1617 33.6667 17.21C30.4317 17.2733 27.2367 17.0383 24.0567 16.45C22.865 16.2283 22.1017 15.6367 21.705 14.5C21.2433 13.1783 20.8667 11.8383 20.7233 10.445C20.6733 9.96334 20.475 9.79834 20.0133 9.81334C19.3483 9.83334 18.6817 9.825 18.0167 9.815C17.7517 9.81167 17.47 9.85667 17.2483 9.64334C16.8333 9.65 16.4067 9.59834 16.005 9.67667C15.0933 9.85334 14.4683 10.6467 14.38 11.6433C14.3133 12.41 13.9267 12.8033 13.2583 12.7817C12.6067 12.7617 12.2517 12.3233 12.255 11.5467C12.2667 9.51334 14.08 7.59167 16.1133 7.51834C17.5067 7.46834 18.9033 7.48334 20.2967 7.50167C20.73 7.50667 20.8533 7.365 20.8867 6.93667C21.015 5.31167 21.415 3.74334 22.0383 2.23834C22.3567 1.47 22.9617 1.04 23.78 0.885003C25.7833 0.505003 27.7933 0.198336 29.8333 0.115003C29.9767 0.108336 30.1283 0.128336 30.2467 0.0133362C31.7467 0.0133362 33.245 0.0133362 34.745 0.0133362L34.75 0.0166695Z" fill="#2E3192"/>
<path d="M17.25 9.64334C18.29 9.64001 19.3317 9.65001 20.3717 9.62834C20.7384 9.62168 20.865 9.72834 20.8917 10.1167C21 11.7417 21.435 13.295 22.025 14.8083C22.3834 15.725 23.115 16.0983 24.035 16.2617C26.6517 16.725 29.2767 17.0233 31.9434 17.0433C34.6034 17.0617 37.2384 16.8967 39.8584 16.4567C40.3467 16.375 40.83 16.2567 41.3184 16.175C42.1584 16.0333 42.69 15.5317 42.995 14.7617C43.585 13.27 43.9867 11.73 44.11 10.1283C44.1384 9.75334 44.2384 9.62001 44.6184 9.63001C45.6584 9.65334 46.7 9.64501 47.74 9.64834C48.32 9.92501 48.4434 10.4883 48.595 11.0267C48.71 11.4317 48.6884 11.85 48.6884 12.2667C48.6884 15.1767 48.69 18.085 48.6867 20.995C48.6867 21.3433 48.7467 21.7083 48.495 22.0117C46.8134 22.4217 45.1367 22.85 43.4517 23.2383C40.07 24.0183 36.6817 24.7733 33.2967 25.5467C27.7384 26.8183 22.1817 28.0983 16.6234 29.3717C16.5834 29.38 16.54 29.3717 16.4984 29.3717C16.5017 23.6317 16.515 17.8917 16.495 12.1533C16.4917 11.22 16.7117 10.3967 17.2484 9.64668L17.25 9.64334Z" fill="#97B8DF"/>
<path d="M14.3767 16.0017C14.3817 16.5883 13.9084 17.0483 13.3017 17.0467C12.7084 17.045 12.2767 16.6317 12.2584 16.0467C12.2384 15.4283 12.6684 14.98 13.2867 14.9717C13.8967 14.9633 14.3717 15.4117 14.3767 16.0017Z" fill="#2E3192"/>
<path d="M28.1283 55.47C27.455 55.665 27.0916 56.11 27.17 56.65C27.26 57.2617 27.7216 57.6033 28.4983 57.605C33.4966 57.6083 38.4933 57.605 43.4916 57.6083C45.1566 57.6083 46.8233 57.6217 48.4883 57.63C48.8149 58.9733 48.84 60.2883 48.12 61.5317C48.035 61.6783 47.8966 61.775 47.7416 61.845C47.555 61.8517 47.3683 61.865 47.1816 61.865C37.3083 61.865 27.435 61.865 17.5616 61.865C17.4166 61.865 17.2716 61.8517 17.1266 61.845C16.7816 61.5483 16.6049 61.145 16.5033 60.725C16.2566 59.6967 16.1733 58.6617 16.5033 57.63C18.2066 57.6233 19.9099 57.6183 21.6149 57.6067C22.2633 57.6017 22.7566 57.2767 22.8666 56.795C23.0366 56.06 22.5483 55.4867 21.7083 55.4833C19.4849 55.475 17.2616 55.4883 15.0366 55.48C14.8283 55.48 14.5799 55.6017 14.4066 55.3667C14.7266 55.0883 15.1166 55.185 15.4816 55.1733C16.2449 55.1467 16.2999 55.1117 16.3016 54.35C16.3083 51.4383 16.3049 48.5283 16.3049 45.6167C16.3049 42.4567 16.3016 39.295 16.3083 36.135C16.3083 35.79 16.2349 35.42 16.5066 35.125C18.2766 36.5017 20.0566 37.8633 21.8116 39.2583C23.5283 40.6233 25.3566 40.7317 27.2183 39.5283C34.1399 35.0517 41.0633 30.575 47.985 26.0983C48.1066 26.02 48.235 25.9517 48.36 25.88C48.65 25.9083 48.6416 26.1467 48.6699 26.3417C48.7116 26.61 48.6933 26.8817 48.6933 27.1517C48.6933 36.145 48.6933 45.1383 48.6933 54.1333C48.6933 55 48.2688 55.4333 47.4199 55.4333C41.2166 55.4333 35.0116 55.4333 28.8083 55.435C28.5816 55.435 28.3499 55.3967 28.1266 55.475L28.1283 55.47Z" fill="#F2F6FB"/>
<path d="M38.8766 14.395C37.6866 14.7117 36.46 14.785 35.245 14.8467C31.6266 15.03 28.0216 14.8917 24.4566 14.1567C24.11 14.085 23.97 13.935 23.86 13.64C22.5783 10.2317 22.5983 6.82999 23.8783 3.42499C24 3.10332 24.1916 2.96332 24.4966 2.90999C27.9016 2.31332 31.3216 1.97832 34.785 2.22665C36.1533 2.32499 37.5183 2.41999 38.8683 2.66165C39.0733 2.82999 39.1383 3.07332 39.2216 3.30832C39.745 4.78665 40.0816 6.30832 40.1433 7.87165C40.2283 10.01 39.8783 12.09 39.0883 14.0883C39.0416 14.2067 38.955 14.2983 38.8783 14.395H38.8766Z" fill="#F2F6FB"/>
<path d="M45.7767 24.9817C43.5301 26.4383 41.2834 27.8967 39.0351 29.35C34.7267 32.1383 30.4151 34.9233 26.1067 37.71C24.9601 38.4517 24.1717 38.3933 23.0984 37.545C20.6867 35.64 18.2617 33.7517 15.7234 31.7617C25.7917 29.455 35.7617 27.17 45.7301 24.885C45.7467 24.9167 45.7617 24.95 45.7784 24.9817H45.7767Z" fill="#97B8DF"/>
<path d="M28.1283 55.47C28.3466 55.2867 28.6083 55.37 28.8483 55.37C35.1316 55.365 41.415 55.3583 47.6983 55.3783C48.2983 55.38 48.5116 55.275 48.51 54.605C48.485 45.2633 48.4933 35.9217 48.4883 26.5817C48.4883 26.3433 48.5833 26.0767 48.3616 25.875C49.0816 25.3983 49.8016 24.9217 50.6166 24.38C50.6166 24.7 50.6166 24.9 50.6166 25.0983C50.6166 34.985 50.6116 44.8717 50.6283 54.7583C50.6283 55.31 50.515 55.495 49.92 55.4933C42.8216 55.4733 35.725 55.485 28.6266 55.4867C28.46 55.4867 28.295 55.475 28.1283 55.4683V55.47Z" fill="#97B8DF"/>
<path d="M48.495 22.0083C48.495 18.68 48.4817 15.3517 48.5017 12.0233C48.5067 11.1317 48.2667 10.3517 47.74 9.64668C48.2717 9.66834 48.8033 9.55834 49.33 9.79168C50.2233 10.1867 50.605 10.89 50.61 11.8083C50.6267 14.8783 50.605 17.95 50.63 21.02C50.6333 21.4733 50.48 21.6483 50.0717 21.7133C49.5433 21.7983 49.02 21.9083 48.495 22.0083Z" fill="#97B8DF"/>
<path d="M38.8766 14.395C39.0383 13.4383 39.445 12.5517 39.6466 11.5983C40.24 8.79167 39.9833 6.06667 39.0583 3.37667C38.9783 3.14334 38.93 2.9 38.8683 2.66C39.44 2.75167 40.0116 2.84167 40.5816 2.93667C40.8716 2.985 41.0316 3.14167 41.1416 3.43334C42.4433 6.865 42.4133 10.2867 41.1166 13.71C41.0233 13.9567 40.9083 14.1133 40.5966 14.15C40.0216 14.2167 39.465 14.4083 38.8766 14.3933V14.395Z" fill="#97B8DF"/>
<path d="M47.7433 61.8433C48.7533 60.5733 48.46 59.0733 48.49 57.63C49.0516 57.6233 49.6133 57.6266 50.1733 57.6083C50.4766 57.5983 50.635 57.675 50.6233 58.0217C50.6016 58.645 50.64 59.27 50.6116 59.8933C50.565 60.9083 49.65 61.8017 48.615 61.86C48.325 61.8767 48.0333 61.85 47.7433 61.8433Z" fill="#97B8DF"/>
<path d="M29.9066 4.37835C30.9633 4.35001 31.4083 4.65668 31.4049 5.41334C31.4016 6.06668 30.9899 6.46501 30.2199 6.49835C29.3866 6.53501 28.5633 6.64001 27.7383 6.73501C27.3949 6.77501 27.2683 6.91334 27.2516 7.23668C27.2299 7.67168 27.1816 8.10668 27.1499 8.54168C27.1016 9.16668 26.7049 9.59335 26.1483 9.61501C25.6233 9.63501 25.0949 9.25334 25.0599 8.69501C24.9899 7.56834 25.1516 6.45501 25.5066 5.38334C25.6233 5.03334 25.9399 4.82834 26.3149 4.77168C27.5066 4.59001 28.7016 4.43835 29.9066 4.37835Z" fill="#2E3192"/>
</g>
<defs>
<clipPath id="clip0_68_912">
<rect width="64" height="64" fill="white" transform="translate(0.5)"/>
</clipPath>
</defs>
</svg>
