<svg width="33" height="33" viewBox="0 0 33 33" fill="none" xmlns="http://www.w3.org/2000/svg">
<path fill-rule="evenodd" clip-rule="evenodd" d="M14.3336 24.6234C14.3336 24.7377 14.4259 24.8345 14.5447 24.8345H17.5401C17.6545 24.8345 17.7512 24.7421 17.7512 24.6234V16.4288H19.9241C20.0341 16.4288 20.1221 16.3453 20.1353 16.2353L20.342 13.7677C20.3508 13.6445 20.254 13.539 20.1309 13.539H17.7512V11.7883C17.7512 11.3793 18.0855 11.045 18.4946 11.045H20.1661C20.2804 11.045 20.3772 10.9526 20.3772 10.8338V8.36625C20.3772 8.25188 20.2848 8.15512 20.1661 8.15512H17.3378C15.6795 8.15512 14.3336 9.50108 14.3336 11.1593V13.539H12.838C12.7237 13.539 12.6269 13.6313 12.6269 13.7501V16.2177C12.6269 16.3321 12.7193 16.4288 12.838 16.4288H14.3336V24.6234Z" fill="#2E3192"/>
</svg>
