<svg width="65" height="43" viewBox="0 0 65 43" fill="none" xmlns="http://www.w3.org/2000/svg">
<g clip-path="url(#clip0_496_10742)">
<path d="M41.6243 28.2654C40.9375 27.5637 40.8576 26.878 41.185 26.0408C41.9198 24.1671 42.3351 22.2136 42.5986 20.2203C42.7344 19.1997 42.8302 18.1791 42.8302 17.1665C42.8302 13.9852 42.375 10.8676 41.2809 7.86966C40.8975 6.81718 41.0493 5.95607 41.816 5.13482C42.375 4.52884 42.7344 3.77935 42.8462 2.94216C42.9021 2.47971 42.6705 2.07307 42.5826 1.64251C41.6722 1.72224 40.9614 2.19267 40.3225 2.79864C39.6756 3.41258 38.917 3.64381 38.0624 3.40461C36.8565 3.06973 35.6506 2.7508 34.4127 2.52755C34.1971 2.48768 34.0453 2.42389 33.9256 2.32821L33.9815 1.71427C33.8617 1.68238 33.7499 1.65846 33.6301 1.63454C33.6301 1.61062 33.6301 1.59467 33.6221 1.57075C33.5183 1.57075 33.4224 1.56278 33.3186 1.5548C28.6466 0.478409 25.6997 0.853154 25.6997 0.853154L22.9525 0.789368C19.9496 0.789368 17.6416 1.63454 14.6468 2.00131C12.4585 2.2724 10.2783 2.59931 8.16194 3.26906C7.09977 3.60394 6.2133 3.44448 5.41468 2.64715C4.83168 2.07307 4.13688 1.6744 3.29832 1.57075C3.29832 1.61859 3.30631 1.66643 3.29832 1.7063C2.70734 2.99797 3.15457 4.10626 4.0091 5.06306C4.81571 5.96404 5.12717 6.873 4.56015 8.01318C4.37647 8.37198 4.21674 8.77064 4.21674 9.2012C4.2407 9.18525 4.26466 9.16931 4.28063 9.14539C5.07127 8.1248 5.83795 8.16467 6.48483 9.30485C7.0838 10.3653 7.26748 11.5453 7.41922 12.7254C7.69075 14.8144 7.65881 16.9194 7.57895 19.0163C7.51506 20.6509 7.35533 22.2854 6.73241 23.8322C6.61261 24.1272 6.46087 24.3983 6.2692 24.6455C5.73413 25.3551 5.11919 25.387 4.50424 24.7491C4.44035 24.6853 4.37647 24.6216 4.31258 24.5657C4.16882 24.9245 4.40042 25.2036 4.5282 25.4906C4.98342 26.4554 5.13516 27.3883 4.35251 28.2733C4.16882 28.4886 3.99313 28.7119 3.81743 28.9271C3.14658 29.7484 2.81116 30.6334 3.23443 31.6859C3.27436 31.7975 3.29034 31.9171 3.3143 32.0288C4.21674 31.9171 4.9355 31.4387 5.56641 30.8328C6.07753 30.3464 6.66053 30.1311 7.35533 30.1869C7.86645 30.2268 8.33764 30.4341 8.8248 30.5617C13.1613 31.6779 17.5937 31.9969 22.042 32.0686C24.973 32.1165 27.8959 31.9729 30.8029 31.646C33.2068 31.3829 35.5867 30.9922 37.9107 30.2826C38.8211 30.0035 39.6038 30.1869 40.3066 30.8328C40.9455 31.4308 41.6403 31.941 42.5587 32.0048C43.2056 30.5059 42.6146 29.278 41.5923 28.2494L41.6243 28.2654ZM9.2321 26.5351C9.08036 26.9577 8.89668 27.3644 8.70501 27.763C8.47341 28.2414 8.06611 28.385 7.63485 28.1697C7.22755 27.9624 7.0838 27.5557 7.29144 27.1092C8.43348 24.6853 8.85675 22.094 9.0564 19.4549C9.24009 17.023 9.19217 14.5991 8.85675 12.1832C8.5932 10.2616 8.17792 8.37197 7.33137 6.6019C7.0838 6.09161 7.19561 5.66105 7.61089 5.45375C8.05014 5.2305 8.44146 5.41388 8.72098 5.95607C8.79286 6.09958 8.86473 6.25108 8.92862 6.40257C9.53558 7.80587 9.91093 9.27296 10.1904 10.7719C10.5578 12.7732 10.6776 14.7905 10.7096 16.8157C10.6536 20.1166 10.3502 23.3857 9.22411 26.5272L9.2321 26.5351Z" fill="#E7ECFB"/>
<path d="M3.31443 1.58669C3.09082 1.58669 2.8672 1.55479 2.64359 1.57074C1.86892 1.6425 1.41371 2.24847 1.54947 3.00593C1.68524 3.79529 2.06059 4.4491 2.65956 4.99926C3.32242 5.6132 3.56201 6.38661 3.33041 7.27165C3.18665 7.81383 2.8113 8.0929 2.37206 7.98127C1.87691 7.8537 1.68524 7.43111 1.87691 6.81717C1.9408 6.60189 1.8849 6.36269 1.71719 6.2112C1.50156 6.01984 1.28593 5.79659 1.09426 5.56536C0.319594 4.62451 -0.127635 3.39663 0.0400757 2.17671C0.567168 0.199332 2.39602 -0.247172 4.06514 0.183386C4.99154 0.422585 5.80614 0.885036 6.48497 1.56277C6.78046 1.85778 7.2197 1.95346 7.61902 1.82589C10.3663 0.980716 13.2014 0.590024 16.0525 0.318932C19.0154 0.0318932 21.9863 0 24.9571 0C25.6999 0 25.9315 0.199333 26.0193 0.853143C25.612 1.95346 25.2926 1.41925 21.4033 1.44317C19.9178 1.45114 18.4244 1.55479 16.9469 1.73818C13.992 2.089 11.0132 2.37604 8.17007 3.27703C7.1079 3.6119 6.22143 3.45244 5.4228 2.65511C4.83981 2.08103 4.145 1.68237 3.30645 1.57871L3.31443 1.58669Z" fill="#2E3192"/>
<path d="M42.5906 32.0287C43.2375 30.5298 42.6465 29.3019 41.6323 28.2733C40.9455 27.5717 40.8656 26.886 41.193 26.0488C41.9278 24.175 42.343 22.2216 42.6066 20.2283C42.7424 19.2077 42.8382 18.1871 42.8382 17.1745C42.8382 13.9931 42.383 10.8756 41.2889 7.87762C40.9055 6.82515 41.0573 5.96403 41.8239 5.14278C42.383 4.53681 42.7424 3.78732 42.8542 2.95013C42.9101 2.48767 42.6785 2.08104 42.5906 1.65048C43.7087 1.36344 44.5153 2.09698 44.3077 3.18932C44.1799 3.87503 43.8365 4.43316 43.3413 4.91156C42.4149 5.81254 42.2712 6.52216 42.7344 7.7341C43.6368 10.0862 44.1559 12.5181 44.3236 15.0297C44.5792 18.801 44.0521 22.4528 42.7104 25.985C42.2951 27.0694 42.5187 27.9943 43.3813 28.7756C43.9563 29.2939 44.2597 29.9716 44.3715 30.7291C44.5073 31.646 43.5969 32.2998 42.5906 32.0287Z" fill="#C8D8FB"/>
<path d="M4.23272 9.20917C4.23272 9.20917 4.28063 9.17728 4.29661 9.15336C5.08724 8.13278 5.85392 8.17264 6.50081 9.31283C7.09978 10.3733 7.28346 11.5533 7.4352 12.7334C7.70673 14.8224 7.67478 16.9273 7.59492 19.0243C7.53103 20.6588 7.37131 22.2934 6.74838 23.8402C6.62859 24.1352 6.47685 24.4063 6.28518 24.6535C5.7501 25.3631 5.13516 25.395 4.52022 24.7571C4.45633 24.6933 4.39244 24.6295 4.32855 24.5737C3.59382 23.306 3.37819 21.8947 3.22645 20.4675C3.01082 18.3625 2.98686 16.2496 3.1386 14.1367C3.25839 12.4463 3.44208 10.756 4.22473 9.20917H4.23272ZM6.10948 16.8316C6.10948 16.6961 6.10948 16.5606 6.10948 16.433C6.10948 15.625 5.70751 15.2396 4.90356 15.2769C4.90356 15.2769 4.84766 15.2769 4.81571 15.2769C4.64001 15.2689 4.57612 15.3486 4.57612 15.5161C4.58411 16.3373 4.57612 17.1506 4.60008 17.9718C4.60008 18.1233 4.60008 18.3386 4.83967 18.3147C5.25495 18.2748 5.6942 18.4502 6.08552 18.2031C6.13344 18.1712 6.10948 18.0356 6.10948 17.9479C6.10948 17.5732 6.10948 17.2064 6.10948 16.8316ZM5.3428 23.2502C5.67024 22.3651 5.81399 21.5199 5.90983 20.6668C6.00566 19.8137 5.9817 19.8216 5.09523 19.8376C4.81571 19.8376 4.72786 19.9253 4.75182 20.2044C4.83967 21.209 5.03134 22.1977 5.3428 23.2502ZM5.3428 10.3892C5.08724 11.2264 4.91953 11.9919 4.8237 12.7732C4.67994 13.9772 4.60008 13.7061 5.71017 13.746C5.9258 13.746 5.99767 13.6822 5.95774 13.4589C5.89385 13.0603 5.87788 12.6616 5.81399 12.2629C5.71017 11.657 5.59836 11.043 5.3428 10.3892Z" fill="#2E3192"/>
<path d="M2.34794 10.158C2.34794 10.5965 2.01252 10.9075 1.56529 10.8915C1.16598 10.8756 0.822571 10.5248 0.822571 10.142C0.822571 9.72742 1.18994 9.36862 1.59724 9.3766C2.02849 9.3766 2.34794 9.71945 2.33996 10.158H2.34794Z" fill="#2E3192"/>
<path d="M10.7255 16.8236C10.6696 20.1246 10.3662 23.3936 9.2401 26.5351C9.08836 26.9577 8.90468 27.3643 8.71301 27.763C8.4814 28.2414 8.07411 28.3849 7.64285 28.1696C7.23555 27.9623 7.0918 27.5557 7.29944 27.1092C8.44147 24.6853 8.86474 22.094 9.0644 19.4548C9.24808 17.023 9.20017 14.5991 8.86474 12.1832C8.6012 10.2616 8.18591 8.37195 7.33937 6.60188C7.0918 6.09158 7.20361 5.66103 7.61889 5.45372C8.05813 5.23047 8.44946 5.41385 8.72898 5.95604C8.80085 6.09956 8.87273 6.25105 8.93662 6.40254C9.54357 7.80584 9.91893 9.27293 10.1984 10.7719C10.5658 12.7732 10.6856 14.7905 10.7176 16.8157L10.7255 16.8236Z" fill="#2E3192"/>
<path d="M6.10947 16.8396C6.10947 17.2143 6.10947 17.5811 6.10947 17.9559C6.10947 18.0436 6.13343 18.1871 6.08551 18.211C5.69418 18.4662 5.25494 18.2828 4.83966 18.3226C4.59208 18.3466 4.60007 18.1313 4.60007 17.9798C4.5841 17.1585 4.5841 16.3453 4.57611 15.524C4.57611 15.3566 4.64 15.2689 4.8157 15.2848C4.84764 15.2848 4.8716 15.2848 4.90355 15.2848C5.70749 15.2476 6.10947 15.633 6.10947 16.4409C6.10947 16.5765 6.10947 16.712 6.10947 16.8396Z" fill="#E4EAFB"/>
<path d="M5.34279 23.2581C5.03132 22.2057 4.83965 21.217 4.7518 20.2123C4.72785 19.9412 4.81569 19.8535 5.09521 19.8456C5.98169 19.8296 6.00564 19.8216 5.90981 20.6748C5.81397 21.5279 5.67022 22.3651 5.34279 23.2581Z" fill="#E0E8FB"/>
<path d="M5.34279 10.3972C5.59835 11.0589 5.70217 11.6649 5.81398 12.2709C5.88586 12.6616 5.89384 13.0682 5.95773 13.4669C5.99766 13.6901 5.92579 13.7619 5.71016 13.7539C4.60806 13.714 4.67993 13.9851 4.82369 12.7812C4.91952 11.9998 5.07925 11.2344 5.34279 10.3972Z" fill="#E3EAFB"/>
<path d="M21.1316 32.6347C20.9878 32.6347 21.2754 32.0766 21.1396 32.0686C17.0027 31.965 12.8818 31.6141 8.84876 30.5776C8.3616 30.45 7.89041 30.2427 7.37929 30.2029C6.68449 30.1471 6.09351 30.3623 5.59038 30.8487C4.95148 31.4547 4.2407 31.9251 3.33826 32.0447C1.9806 32.3317 1.24586 31.5025 1.69309 30.0992C1.8608 29.565 2.19623 29.0866 2.60352 28.6959C3.41812 27.9225 3.62576 27.0853 3.21846 26.0169C1.9806 22.7877 1.42955 19.4469 1.54934 15.9945C1.58128 15.1174 1.67712 14.2403 1.76497 13.3712C1.81289 12.8609 1.58128 12.4623 1.14204 12.3985C0.670853 12.3347 0.367376 12.5978 0.255569 13.1241V13.14C0.087858 13.9294 0.00799561 14.7267 0.00799561 15.532V17.908C0.00799561 18.4901 0.087858 19.0642 0.16772 19.6462C0.207652 19.9572 0.207652 20.2761 0.255569 20.5871C0.535087 22.5963 1.02225 24.5498 1.76497 26.4395C2.02851 27.1252 1.46149 27.189 0.870509 28.066C0.598977 28.4647 -0.00797687 29.3178 0.10383 30.1311C0.119803 30.2268 0.055913 30.3065 0.0159818 30.3942C0.0159818 30.753 0.223624 31.949 0.351404 32.1802C0.718771 32.85 1.29378 33.2646 2.02851 33.4958C2.08442 33.5118 2.14831 33.5277 2.20421 33.5277C2.69936 33.5277 4.28063 33.3842 4.5921 33.2726C5.35079 33.0095 6.00566 32.5709 6.5647 32.0048C6.83623 31.7258 7.24353 31.646 7.6109 31.7656C10.2224 32.5949 12.9058 33.0015 15.6211 33.2566C16.8031 33.3683 17.993 33.44 19.183 33.5277C19.2069 33.5277 20.2451 33.5277 21.5868 33.5198L21.1316 32.6268V32.6347Z" fill="#2E3192"/>
<path d="M44.1959 26.3916C44.8268 24.6375 45.4018 22.8594 45.6414 21.0096C46.2643 16.2177 45.865 11.5613 44.124 7.13609C43.9563 6.70553 44.0122 6.3866 44.3716 6.06767C45.0664 5.45372 45.5136 4.67234 45.7532 3.77933C46.3122 1.70627 45.1702 0.0478257 43.0219 0.0318791C41.5924 0.0239058 40.4104 0.61393 39.4121 1.57073C39.0927 1.88168 38.6215 1.96939 38.1982 1.83384C37.0801 1.46707 35.9301 1.21193 34.7641 1.01259C34.1252 0.900969 33.9176 0.996648 33.6221 1.5787C33.654 2.18467 33.8297 2.42387 34.4127 2.52752C35.6426 2.75077 36.8565 3.06971 38.0625 3.40458C38.8371 3.61986 39.6837 3.4285 40.2587 2.87037C40.9135 2.23251 41.6403 1.73019 42.5907 1.65046C43.7087 1.36342 44.5153 2.09696 44.3077 3.18931C44.1799 3.87501 43.8365 4.43314 43.3414 4.91154C42.415 5.81252 42.2712 6.53012 42.7344 7.75003C43.1577 8.85035 43.557 9.95864 43.7886 11.1148C44.8348 16.3054 44.5073 21.2648 42.6945 26.0169C42.3191 26.9976 42.6066 28.074 43.3813 28.7756C43.9563 29.2939 44.2598 29.9716 44.3716 30.7291C44.5073 31.646 43.5969 32.2998 42.5907 32.0287C41.6722 31.9649 40.9774 31.4467 40.3385 30.8567C39.7076 30.2666 38.8132 30.0354 37.9826 30.2905C35.6506 31.0161 33.2627 31.3988 30.8429 31.6699C29.0061 31.8772 26.3706 32.0208 24.0226 32.0686V33.5197C25.9074 33.5038 27.6803 33.4878 27.896 33.4799C30.3957 33.3204 32.8874 33.0413 35.3471 32.5629C36.3534 32.3636 37.3597 32.1244 38.334 31.8134C38.7493 31.6859 39.0687 31.7337 39.3882 32.0526C40.1149 32.7623 40.9694 33.2566 41.9677 33.5118C42.0636 33.5357 42.1834 33.5118 42.2393 33.6393H43.5809C43.6368 33.5437 43.7327 33.5676 43.8205 33.5516C45.0744 33.2805 45.9369 32.2281 45.9049 30.9523C45.881 29.7165 45.4178 28.6401 44.5233 27.8029C44.0521 27.3643 43.9962 26.9657 44.1959 26.4155V26.3916Z" fill="#2E3192"/>
<path d="M60.7114 37.6419C60.0246 36.9403 59.9447 36.2546 60.2721 35.4174C61.0069 33.5437 61.4222 31.5902 61.6857 29.5969C61.8215 28.5763 61.9173 27.5557 61.9173 26.5431C61.9173 23.3618 61.4621 20.2442 60.368 17.2462C59.9846 16.1938 60.1364 15.3327 60.9031 14.5114C61.4621 13.9054 61.8215 13.1559 61.9333 12.3187C61.9892 11.8563 61.7576 11.4497 61.6697 11.0191C60.7593 11.0988 60.0485 11.5693 59.4096 12.1752C58.7627 12.7892 58.004 13.0204 57.1495 12.7812C55.9436 12.4463 54.7377 12.1274 53.4998 11.9041C53.2842 11.8643 53.1324 11.8005 53.0126 11.7048L53.0685 11.0909C52.9488 11.059 52.837 11.035 52.7172 11.0111C52.7172 10.9872 52.7172 10.9713 52.7092 10.9473C52.6053 10.9473 52.5095 10.9394 52.4057 10.9314C47.7337 9.855 44.7868 10.2297 44.7868 10.2297L42.0396 10.166C39.0367 10.166 36.7287 11.0111 33.7339 11.3779C31.5456 11.649 29.3654 11.9759 27.249 12.6457C26.1869 12.9805 25.3004 12.8211 24.5018 12.0237C23.9188 11.4497 23.224 11.051 22.3854 10.9473C22.3854 10.9952 22.3934 11.043 22.3854 11.0829C21.7944 12.3746 22.2417 13.4828 23.0962 14.4396C23.9028 15.3406 24.2143 16.2496 23.6472 17.3898C23.4636 17.7486 23.3038 18.1472 23.3038 18.5778C23.3278 18.5618 23.3518 18.5459 23.3677 18.522C24.1584 17.5014 24.925 17.5413 25.5719 18.6814C26.1709 19.7419 26.3546 20.9219 26.5063 22.102C26.7779 24.191 26.7459 26.2959 26.666 28.3929C26.6022 30.0274 26.4424 31.662 25.8195 33.2088C25.6997 33.5038 25.548 33.7749 25.3563 34.0221C24.8212 34.7317 24.2063 34.7636 23.5913 34.1257C23.5275 34.0619 23.4636 33.9981 23.3997 33.9423C23.2559 34.3011 23.4875 34.5802 23.6153 34.8672C24.0705 35.832 24.2223 36.7649 23.4396 37.6499C23.2559 37.8652 23.0802 38.0884 22.9045 38.3037C22.2337 39.125 21.8983 40.01 22.3215 41.0625C22.3615 41.1741 22.3774 41.2937 22.4014 41.4053C23.3038 41.2937 24.0226 40.8153 24.6535 40.2093C25.1646 39.723 25.7476 39.5077 26.4424 39.5635C26.9535 39.6034 27.4247 39.8107 27.9119 39.9383C32.2484 41.0545 36.6808 41.3734 41.1291 41.4452C44.0601 41.493 46.983 41.3495 49.89 41.0226C52.2939 40.7595 54.6738 40.3688 56.9978 39.6592C57.9082 39.3801 58.6909 39.5635 59.3937 40.2093C60.0326 40.8073 60.7274 41.3176 61.6458 41.3814C62.2927 39.8824 61.7017 38.6545 60.6794 37.626L60.7114 37.6419ZM28.3192 35.9117C28.1675 36.3343 27.9838 36.741 27.7921 37.1396C27.5605 37.618 27.1532 37.7615 26.7219 37.5463C26.3146 37.339 26.1709 36.9323 26.3785 36.4858C27.5206 34.0619 27.9438 31.4706 28.1435 28.8314C28.3272 26.3996 28.2793 23.9757 27.9438 21.5598C27.6803 19.6382 27.265 17.7486 26.4185 15.9785C26.1709 15.4682 26.2827 15.0376 26.698 14.8303C27.1372 14.6071 27.5286 14.7905 27.8081 15.3327C27.88 15.4762 27.9518 15.6277 28.0157 15.7792C28.6227 17.1825 28.998 18.6495 29.2775 20.1485C29.6449 22.1498 29.7647 24.1671 29.7967 26.1923C29.7407 29.4932 29.4373 32.7623 28.3112 35.9038L28.3192 35.9117Z" fill="#E7ECFB"/>
<path d="M52.7092 10.9473C53.0047 10.3653 53.2123 10.2696 53.8512 10.3812C55.0172 10.5806 56.1592 10.8437 57.2853 11.2025C57.7085 11.338 58.1797 11.2503 58.4992 10.9394C59.4975 9.98257 60.6794 9.38457 62.109 9.40052C64.2573 9.41647 65.3993 11.0749 64.8403 13.148C64.6007 14.041 64.1534 14.8224 63.4586 15.4363C63.0993 15.7552 63.0434 16.0742 63.2111 16.5047C64.9601 20.9379 65.3514 25.5863 64.7285 30.3783C64.4889 32.2281 63.9059 34.0061 63.2829 35.7602C63.0833 36.3104 63.1392 36.7091 63.6104 37.1476C64.5048 37.9848 64.968 39.0692 64.992 40.2971C65.016 41.5728 64.1614 42.6253 62.9076 42.8963C62.8197 42.9123 62.7239 42.8964 62.668 42.9841H61.3263C61.2704 42.8645 61.1506 42.8804 61.0548 42.8565C60.0645 42.6013 59.202 42.107 58.4752 41.3974C58.1558 41.0864 57.8283 41.0306 57.421 41.1582C56.4387 41.4691 55.4405 41.7083 54.4342 41.9077C51.9744 42.394 49.4827 42.6651 46.983 42.8246C46.5039 42.8565 38.3499 42.8964 38.278 42.8884C37.0881 42.8007 35.8981 42.7289 34.7162 42.6173C32.0008 42.3621 29.3095 41.9475 26.706 41.1263C26.3386 41.0067 25.9313 41.0944 25.6598 41.3655C25.1007 41.9316 24.4459 42.3701 23.6872 42.6332C23.3757 42.7369 22.3455 42.9761 21.2993 42.8884C21.2354 42.8884 21.1795 42.8804 21.1236 42.8565C20.3889 42.6253 19.8059 42.2106 19.4465 41.5409C19.3187 41.3097 19.2229 41.0625 19.1111 40.8233C18.9593 40.002 18.9354 38.6944 19.9656 37.4187C20.6364 36.5895 21.1316 36.4699 20.86 35.7921C20.1253 33.9025 19.6381 31.949 19.3506 29.9397C19.3107 29.6288 19.3027 29.3098 19.2628 28.9989C19.1909 28.4248 19.1031 27.8428 19.1031 27.2607V24.8847C19.1031 24.0794 19.1829 23.282 19.3506 22.4927V22.4767C19.4624 21.9505 19.7659 21.6874 20.2371 21.7512C20.6764 21.8149 20.9159 22.2056 20.86 22.7239C20.7722 23.601 20.6764 24.4701 20.6444 25.3471C20.5326 28.7996 21.0757 32.1404 22.3135 35.3696C22.7208 36.43 22.5132 37.2752 21.6986 38.0486C21.2913 38.4393 20.9559 38.9097 20.7882 39.4519C20.3409 40.8552 21.0757 41.6844 22.4333 41.3974C23.3358 41.2857 24.0545 40.8073 24.6854 40.2014C25.1966 39.715 25.7796 39.4997 26.4744 39.5555C26.9855 39.5954 27.4567 39.8027 27.9438 39.9303C31.9769 40.9668 36.0978 41.3176 40.2347 41.4213C42.91 41.493 47.2705 41.3176 49.93 41.0226C52.3498 40.7515 54.7457 40.3688 57.0696 39.6432C57.9002 39.3881 58.7947 39.6193 59.4256 40.2093C60.0565 40.7994 60.7593 41.3176 61.6777 41.3814C62.684 41.6525 63.5944 40.9987 63.4586 40.0818C63.3468 39.3243 63.0434 38.6546 62.4683 38.1283C61.6937 37.4267 61.4062 36.3423 61.7815 35.3696C63.5944 30.6175 63.9218 25.6581 62.8756 20.4675C62.644 19.3113 62.2447 18.203 61.8215 17.1027C61.3503 15.8828 61.494 15.1652 62.4284 14.2642C62.9236 13.7858 63.267 13.2277 63.3947 12.542C63.6024 11.4417 62.7958 10.7161 61.6777 11.0032C60.7353 11.0829 60.0006 11.5852 59.3457 12.2231C58.7707 12.7812 57.9242 12.9805 57.1495 12.7573C55.9436 12.4224 54.7377 12.1035 53.4998 11.8802C52.9168 11.7766 52.7331 11.5374 52.7092 10.9314V10.9473Z" fill="#2E3192"/>
<path d="M22.4014 10.9553C22.1778 10.9553 21.9542 10.9234 21.7306 10.9393C20.9559 11.0111 20.5007 11.6171 20.6365 12.3745C20.7722 13.1639 21.1476 13.8177 21.7465 14.3679C22.4094 14.9818 22.649 15.7552 22.4174 16.6402C22.2736 17.1824 21.8983 17.4615 21.459 17.3499C20.9639 17.2223 20.7722 16.7997 20.9639 16.1858C21.0278 15.9705 20.9719 15.7313 20.8042 15.5798C20.5885 15.3884 20.3729 15.1652 20.1812 14.934C19.3986 13.9851 18.9593 12.7572 19.1191 11.5453C19.6541 9.56793 21.475 9.11345 23.1441 9.55198C24.0705 9.79118 24.8851 10.2536 25.564 10.9314C25.8594 11.2264 26.2987 11.3221 26.698 11.1945C29.4453 10.3493 32.2804 9.95862 35.1315 9.68753C38.0944 9.40846 41.0652 9.36062 44.0361 9.3686C44.7789 9.3686 45.0105 9.56793 45.0983 10.2217C44.691 11.3221 44.3716 10.7878 40.4823 10.8118C38.9968 10.8197 37.5034 10.9234 36.0259 11.1068C33.071 11.4576 30.0922 11.7446 27.2491 12.6456C26.1869 12.9805 25.3004 12.821 24.5018 12.0237C23.9188 11.4496 23.224 11.051 22.3854 10.9473L22.4014 10.9553Z" fill="#2E3192"/>
<path d="M61.6697 41.3973C62.3166 39.8984 61.7256 38.6705 60.7114 37.6419C60.0245 36.9403 59.9447 36.2546 60.2721 35.4174C61.0069 33.5436 61.4221 31.5902 61.6857 29.5969C61.8215 28.5763 61.9173 27.5557 61.9173 26.5431C61.9173 23.3617 61.4621 20.2442 60.368 17.2462C59.9846 16.1937 60.1364 15.3326 60.903 14.5114C61.4621 13.9054 61.8215 13.1559 61.9333 12.3187C61.9892 11.8563 61.7576 11.4496 61.6697 11.0191C62.7878 10.732 63.5944 11.4656 63.3868 12.5579C63.259 13.2436 62.9156 13.8018 62.4204 14.2801C61.494 15.1811 61.3503 15.8908 61.8135 17.1027C62.7159 19.4548 63.235 21.8867 63.4027 24.3983C63.6583 28.1696 63.1312 31.8214 61.7895 35.3536C61.3742 36.4379 61.5978 37.3628 62.4604 38.1442C63.0354 38.6625 63.3388 39.3402 63.4506 40.0977C63.5864 41.0146 62.676 41.6684 61.6697 41.3973Z" fill="#C8D8FB"/>
<path d="M23.3118 18.5858C23.3118 18.5858 23.3597 18.5539 23.3757 18.5299C24.1663 17.5094 24.933 17.5492 25.5799 18.6894C26.1789 19.7499 26.3626 20.9299 26.5143 22.11C26.7858 24.199 26.7539 26.3039 26.674 28.4009C26.6101 30.0354 26.4504 31.6699 25.8275 33.2168C25.7077 33.5118 25.556 33.7829 25.3643 34.03C24.8292 34.7397 24.2143 34.7716 23.5993 34.1337C23.5354 34.0699 23.4715 34.0061 23.4077 33.9503C22.6729 32.6826 22.4573 31.2713 22.3056 29.8441C22.0899 27.7391 22.066 25.6262 22.2177 23.5133C22.3375 21.8229 22.5212 20.1326 23.3038 18.5858H23.3118ZM25.1886 26.2082C25.1886 26.0727 25.1886 25.9371 25.1886 25.8096C25.1886 25.0016 24.7866 24.6162 23.9827 24.6534C23.9827 24.6534 23.9268 24.6534 23.8948 24.6534C23.7191 24.6455 23.6552 24.7252 23.6552 24.8926C23.6632 25.7139 23.6552 26.5272 23.6792 27.3484C23.6792 27.4999 23.6792 27.7152 23.9188 27.6913C24.3341 27.6514 24.7733 27.8268 25.1646 27.5796C25.2125 27.5477 25.1886 27.4122 25.1886 27.3245C25.1886 26.9497 25.1886 26.583 25.1886 26.2082ZM24.4219 32.6267C24.7493 31.7417 24.8931 30.8965 24.9889 30.0434C25.0848 29.1902 25.0608 29.1982 24.1743 29.2142C23.8948 29.2142 23.807 29.3019 23.8309 29.5809C23.9188 30.5856 24.1104 31.5743 24.4219 32.6267ZM24.4219 19.7658C24.1663 20.603 23.9986 21.3684 23.9028 22.1498C23.759 23.3538 23.6792 23.0827 24.7893 23.1226C25.0049 23.1226 25.0768 23.0588 25.0368 22.8355C24.973 22.4369 24.957 22.0382 24.8931 21.6395C24.7893 21.0336 24.6775 20.4196 24.4219 19.7658Z" fill="#2E3192"/>
<path d="M21.435 19.5346C21.435 19.9731 21.0996 20.2841 20.6524 20.2681C20.2531 20.2522 19.9097 19.9013 19.9097 19.5186C19.9097 19.104 20.277 18.7452 20.6843 18.7532C21.1156 18.7532 21.435 19.096 21.4271 19.5346H21.435Z" fill="#2E3192"/>
<path d="M29.8046 26.2002C29.7487 29.5012 29.4453 32.7702 28.3192 35.9117C28.1675 36.3343 27.9838 36.7409 27.7921 37.1396C27.5605 37.618 27.1532 37.7615 26.722 37.5462C26.3147 37.3389 26.1709 36.9323 26.3785 36.4858C27.5206 34.0619 27.9438 31.4706 28.1435 28.8314C28.3272 26.3996 28.2793 23.9757 27.9438 21.5598C27.6803 19.6382 27.265 17.7485 26.4185 15.9785C26.1709 15.4682 26.2827 15.0376 26.698 14.8303C27.1372 14.6071 27.5286 14.7904 27.8081 15.3326C27.88 15.4761 27.9518 15.6276 28.0157 15.7791C28.6227 17.1824 28.998 18.6495 29.2775 20.1485C29.6449 22.1498 29.7647 24.167 29.7967 26.1923L29.8046 26.2002Z" fill="#2E3192"/>
<path d="M25.1966 26.2082C25.1966 26.5829 25.1966 26.9497 25.1966 27.3245C25.1966 27.4122 25.2205 27.5557 25.1726 27.5796C24.7813 27.8347 24.342 27.6514 23.9268 27.6912C23.6792 27.7151 23.6872 27.4999 23.6872 27.3484C23.6712 26.5271 23.6712 25.7138 23.6632 24.8926C23.6632 24.7252 23.7271 24.6375 23.9028 24.6534C23.9347 24.6534 23.9587 24.6534 23.9906 24.6534C24.7946 24.6162 25.1966 25.0016 25.1966 25.8095C25.1966 25.9451 25.1966 26.0806 25.1966 26.2082Z" fill="#E4EAFB"/>
<path d="M24.4299 32.6347C24.1184 31.5822 23.9268 30.5935 23.8389 29.5889C23.8149 29.3178 23.9028 29.2301 24.1823 29.2221C25.0688 29.2062 25.0927 29.1982 24.9969 30.0514C24.9011 30.9045 24.7573 31.7417 24.4299 32.6347Z" fill="#E0E8FB"/>
<path d="M24.4299 19.7737C24.6854 20.4355 24.7893 21.0415 24.9011 21.6475C24.973 22.0382 24.9809 22.4448 25.0448 22.8435C25.0848 23.0667 25.0129 23.1385 24.7973 23.1305C23.6952 23.0906 23.767 23.3617 23.9108 22.1578C24.0066 21.3764 24.1663 20.6109 24.4299 19.7737Z" fill="#E3EAFB"/>
</g>
<defs>
<clipPath id="clip0_496_10742">
<rect width="65" height="43" fill="white"/>
</clipPath>
</defs>
</svg>
