<svg width="24" height="25" viewBox="0 0 24 25" fill="none" xmlns="http://www.w3.org/2000/svg">
<path d="M22 17.5142C21.9996 18.8818 21.5321 20.2082 20.675 21.2738C19.8179 22.3395 18.6226 23.0805 17.287 23.3742L16.649 21.4602C17.2332 21.364 17.7888 21.1394 18.2758 20.8025C18.7627 20.4656 19.1689 20.025 19.465 19.5122H17C16.4696 19.5122 15.9609 19.3015 15.5858 18.9264C15.2107 18.5513 15 18.0426 15 17.5122V13.5122C15 12.9818 15.2107 12.4731 15.5858 12.098C15.9609 11.7229 16.4696 11.5122 17 11.5122H19.938C19.694 9.5791 18.7529 7.80148 17.2914 6.51288C15.8299 5.22429 13.9484 4.51328 12 4.51328C10.0516 4.51328 8.17007 5.22429 6.70857 6.51288C5.24708 7.80148 4.30603 9.5791 4.062 11.5122H7C7.53043 11.5122 8.03914 11.7229 8.41421 12.098C8.78929 12.4731 9 12.9818 9 13.5122V17.5122C9 18.0426 8.78929 18.5513 8.41421 18.9264C8.03914 19.3015 7.53043 19.5122 7 19.5122H4C3.46957 19.5122 2.96086 19.3015 2.58579 18.9264C2.21071 18.5513 2 18.0426 2 17.5122V12.5122C2 6.98921 6.477 2.51221 12 2.51221C17.523 2.51221 22 6.98921 22 12.5122V17.5142ZM20 17.5122V13.5122H17V17.5122H20ZM4 13.5122V17.5122H7V13.5122H4Z" fill="#2E3192"/>
</svg>
