<svg width="34" height="34" viewBox="0 0 34 34" fill="none" xmlns="http://www.w3.org/2000/svg">
<path d="M31.2247 0.00442898C31.1162 0.166023 30.9215 0.148316 30.771 0.216938C30.0738 0.537918 29.6799 1.16216 29.2329 1.73328C28.9407 2.10739 28.6663 2.49256 28.3875 2.87552C28.2016 3.13009 27.9493 2.97514 27.7346 2.97071C27.6107 2.9685 27.4757 2.9375 27.3451 2.9375C24.8 2.9375 22.2527 2.92865 19.7077 2.9375C18.4772 2.94193 17.4038 3.36474 16.5252 4.24355C11.2337 9.53637 5.94218 14.8292 0.648437 20.122C0.356307 20.4142 0.174835 20.7706 -5.6231e-07 21.1359L-5.27476e-07 21.9328C0.190326 22.3998 0.52008 22.7585 0.871963 23.1104C4.32219 26.5504 7.77242 29.9882 11.2005 33.4503C11.9463 34.203 13.137 34.1653 13.854 33.4437C19.2208 28.038 24.6163 22.6611 30.003 17.2753C30.5939 16.6842 30.8772 15.9449 31.0299 15.1391C31.0764 14.8912 31.0874 14.6432 31.0874 14.3931C31.0852 11.781 31.0963 9.16669 31.0808 6.55459C31.0742 5.50754 30.7156 4.58667 29.93 3.85838C29.9145 3.84288 29.899 3.82739 29.8835 3.80968C29.7419 3.65915 29.4542 3.62373 29.4431 3.38687C29.4343 3.18322 29.6489 3.04597 29.764 2.87995C30.1026 2.39073 30.439 1.89709 30.8573 1.47429C31.2977 1.02934 32.1254 0.918659 32.6809 1.6226C33.0394 2.07418 32.9088 3.0504 32.3865 3.3581C32.1519 3.49756 31.9129 3.69235 31.7447 3.94692C31.592 4.17493 31.5566 4.37194 31.7292 4.59331C31.9351 4.85894 32.2272 4.87887 32.4574 4.71284C33.0615 4.27454 33.6347 3.80968 33.8937 3.04155C34.2699 1.92366 33.6192 0.456013 32.3932 0.13282C32.298 0.108471 32.2139 0.0819054 32.1542 8.06841e-08L31.2247 1.21314e-07L31.2247 0.00442898ZM29.9698 10.5679C29.9698 11.874 29.9698 13.1822 29.9698 14.4883C29.9698 15.3671 29.6445 16.102 29.0293 16.7174C23.7377 22.0125 18.444 27.3075 13.1525 32.6003C12.6811 33.0718 12.3646 33.074 11.8888 32.5914C11.4949 32.1908 11.1208 31.7724 10.7225 31.3739C7.70381 28.3479 4.68071 25.3263 1.65762 22.3047C1.60229 22.2493 1.55138 22.1918 1.49163 22.1408C0.99147 21.707 0.975974 21.3882 1.4363 20.9278C6.69021 15.6726 11.9508 10.4263 17.1892 5.15557C17.9593 4.3808 18.8291 4.03768 19.8958 4.04654C22.1996 4.06203 24.5013 4.05096 26.8051 4.05096C27.0043 4.05096 27.2035 4.05096 27.4026 4.05096C27.5531 4.05096 27.6084 4.06867 27.5 4.2347C27.157 4.76376 26.8272 5.30389 26.5063 5.84844C26.4466 5.95027 26.3935 5.99676 26.2806 5.98126C24.8708 5.77096 23.886 6.45276 23.5718 7.7898C23.2066 9.34821 24.5942 10.776 26.254 10.4904C27.0685 10.351 27.6771 9.87063 27.9603 9.07372C28.2812 8.16834 28.1152 7.33158 27.4845 6.60108C27.4137 6.51696 27.3982 6.49261 27.4646 6.3775C27.8032 5.77982 28.2016 5.21977 28.5446 4.62651C28.7128 4.33653 28.8323 4.38523 29.0359 4.55789C29.6821 5.10909 29.9743 5.80638 29.9698 6.64757C29.9632 7.95362 29.9698 9.26188 29.9698 10.5679ZM26.8117 7.53966C26.9954 7.84736 27.0176 8.1617 26.9799 8.50924C26.9113 9.1357 26.0659 9.57843 25.5481 9.38805C24.8708 9.14013 24.6473 8.85678 24.6473 8.11521C24.6473 7.55737 25.0944 7.09694 25.6432 7.03495C25.8225 7.01503 25.8026 7.06594 25.7539 7.16556C25.6321 7.4157 25.4905 7.65477 25.3776 7.90713C25.2803 8.12849 25.2316 8.36978 25.4131 8.57565C25.6786 8.87227 26.0593 8.84571 26.2806 8.50038C26.4753 8.1949 26.6325 7.86507 26.8117 7.53745L26.8117 7.53966Z" fill="#2E3192"/>
<path d="M16.3924 17.0539C14.5224 17.0539 12.6523 17.0561 10.7844 17.0495C10.5366 17.0495 10.3308 17.096 10.1736 17.3018C10.0541 17.4568 9.98109 17.6162 10.063 17.811C10.1449 18.0058 10.2909 18.1231 10.5034 18.143C10.5919 18.1519 10.6804 18.1496 10.769 18.1496C14.5423 18.1496 18.3134 18.1496 22.0868 18.1474C22.2638 18.1474 22.4541 18.2006 22.6091 18.0323C22.7463 17.884 22.837 17.7202 22.775 17.532C22.7042 17.3217 22.6113 17.1004 22.3324 17.076C22.2107 17.065 22.0912 17.0539 21.9695 17.0539C20.1105 17.0539 18.2515 17.0539 16.3947 17.0539L16.3924 17.0539Z" fill="#2E3192"/>
<path d="M16.4212 19.4756C15.0447 19.4845 14.0621 20.5559 14.0997 21.8486C14.1373 23.1658 15.1199 24.1021 16.4057 24.0977C17.7535 24.0933 18.683 23.2344 18.7118 21.8686C18.7406 20.4961 17.831 19.511 16.4212 19.4756ZM16.3969 20.6046C17.1405 20.5094 17.6074 21.1912 17.6052 21.7357C17.6008 22.4707 17.1117 22.9887 16.419 22.9975C15.8126 23.0042 15.1863 22.4729 15.2062 21.7867C15.2261 21.1181 15.7241 20.6046 16.3947 20.6046L16.3969 20.6046Z" fill="#2E3192"/>
<path d="M16.4124 15.7567C17.7358 15.7921 18.7251 14.7229 18.7228 13.5608C18.7228 12.1706 17.7668 11.2586 16.585 11.1656C15.0956 11.0483 14.0709 12.3366 14.0864 13.5121C14.1019 14.63 15.1022 15.832 16.4124 15.7589L16.4124 15.7567ZM15.2129 13.4988C15.1553 12.8679 15.7352 12.2879 16.3991 12.2414C17.0409 12.1972 17.5742 12.7771 17.6119 13.4479C17.6561 14.2492 16.9568 14.6676 16.4389 14.6919C15.8945 14.7163 15.1708 14.2027 15.2129 13.4988Z" fill="#2E3192"/>
</svg>
