<svg width="64" height="64" viewBox="0 0 64 64" fill="none" xmlns="http://www.w3.org/2000/svg">
<g clip-path="url(#clip0_496_10862)">
<path d="M63.3336 47.3715C63.344 47.2776 63.3649 47.1003 63.4796 46.9438V45.6189C63.0206 44.0437 61.9461 43.1048 59.818 42.385C57.2831 41.5296 54.7272 40.5803 52.2653 39.6727C51.2638 39.3076 50.2728 38.932 49.2713 38.5669C49.2505 38.5669 49.2192 38.5565 49.1879 38.5461C49.0105 38.5043 48.4681 38.3687 48.4576 37.7741C48.4472 36.95 48.4472 36.1363 48.4576 35.26V32.7355L49.6677 34.3003C50.5649 35.4061 51.848 35.8025 53.1103 35.3539C54.4143 34.8949 55.1654 33.7578 55.1236 32.3286C55.0715 30.357 54.2682 28.6879 52.7452 27.3526C52.3175 26.977 52.2236 26.9457 51.8376 27.2691C51.7646 27.4986 51.8271 27.6864 52.1714 27.9889C53.5276 29.1573 54.2369 30.6387 54.2682 32.4121C54.2891 33.6326 53.4128 34.6132 52.2131 34.6967C51.1073 34.7697 50.158 33.9769 49.9494 32.7981C49.9285 32.6937 49.9181 32.5999 49.9077 32.4955C49.8555 32.1617 49.8138 31.8696 49.6573 31.661C49.2713 31.1602 48.8332 30.9412 48.2699 30.9725L36.899 31.6297C35.1047 31.734 33.3104 31.8383 31.5057 31.9322L29.6697 32.0365C26.1854 32.2347 22.7116 32.4225 19.2273 32.5999C18.1424 32.652 17.3078 32.1096 16.9844 31.1081C16.7758 30.4717 16.8593 29.7937 17.2139 29.2512C17.5582 28.7192 18.1111 28.3854 18.7266 28.3123C19.6968 28.208 20.6878 28.1454 21.6371 28.0933H21.8666C23.9426 27.9681 26.0081 27.8533 28.084 27.7386C30.8068 27.5925 33.5399 27.436 36.2627 27.29C38.8289 27.1439 41.3952 26.9875 43.9719 26.831L47.9673 26.5911C48.1968 26.5806 48.3846 26.5702 48.5619 26.5911C48.9166 26.6328 49.1044 26.5493 49.2296 26.2677C49.1461 25.7774 49.021 25.7356 48.5515 25.7461C47.6857 25.7669 46.7885 25.8191 45.9331 25.8713L45.2655 25.913C41.0822 26.1529 36.8886 26.3928 32.7054 26.6328L28.8977 26.8519C25.5178 27.0501 22.1483 27.2378 18.7683 27.4569C18.1945 27.4882 17.8086 27.29 17.506 26.8101C16.7862 25.6522 16.0143 24.4525 15.2214 23.2528C14.9293 22.8147 14.8981 22.4078 15.0963 21.8758C16.2229 18.9444 15.91 16.2426 14.1574 13.6137C13.9174 13.259 13.7714 13.2486 13.6462 13.2695C13.4167 13.3112 13.302 13.4051 13.2602 13.6137V13.8328C14.7937 15.8774 15.2319 18.1203 14.6268 20.697L14.3347 21.9175L13.6879 20.8431C13.448 20.4571 13.2081 20.092 12.9786 19.7373C12.5822 19.1426 12.217 18.5793 11.9041 17.9638L8.22161 12.3306C8.14858 12.2158 8.08599 12.1011 8.01297 11.9655L7.48094 11.037L8.31549 10.9953C9.07703 10.9536 9.66122 11.2248 10.1828 11.4543C10.6105 11.6525 10.8505 11.6108 11.0487 11.4543C11.153 10.9744 11.0904 10.9118 10.5584 10.6823C9.5256 10.2338 8.46154 9.99383 7.37662 9.97296C7.34532 9.97296 7.31403 9.97296 7.28273 9.97296C7.09496 9.99383 6.7507 10.0147 6.47947 9.73303C6.0309 9.27402 5.42585 9.03409 4.7895 8.77329L4.67474 8.72113H3.49593C3.40205 8.78372 3.26643 8.83588 3.09952 8.84631C1.83725 9.201 1.04443 9.97296 0.668877 11.1831C0.355918 12.2158 0.533261 13.2173 1.24263 14.3127C3.7776 18.2455 6.30213 22.1783 8.83709 26.1112L14.4078 34.7697C14.6686 35.1765 14.8563 35.5938 14.9711 36.0528C15.8578 39.5371 16.7445 43.0109 17.6417 46.4952C18.0589 48.1226 18.4866 49.7604 18.9039 51.4087L19.6863 54.4339H18.2363C17.9859 54.4339 17.7355 54.4339 17.4852 54.4339C17.1514 54.4339 16.8175 54.4339 16.4941 54.4339C15.7848 54.4339 15.7743 54.7469 15.7743 54.8616C15.7743 55.0077 15.8265 55.0807 15.8578 55.112C15.9621 55.2163 16.1812 55.2789 16.4733 55.2789C28.011 55.2789 39.5383 55.2789 51.076 55.2789C51.3577 55.2789 51.5663 55.2268 51.6707 55.1224C51.6915 55.1016 51.7541 55.039 51.7541 54.8512C51.7541 54.7052 51.7541 54.4444 51.0969 54.4339C50.5649 54.4339 50.0433 54.4339 49.5113 54.4339H48.176L48.3116 53.8184C48.5098 52.8796 48.4889 51.972 48.4681 51.0122C48.4681 50.6471 48.4472 50.2924 48.4576 49.9378C48.4576 49.4057 48.5724 48.8737 49.3235 48.519C50.5962 47.9244 51.8793 47.2672 53.1103 46.6308L53.4232 46.4639C53.8822 46.2344 54.2995 46.2031 54.7794 46.3805C56.8032 47.1316 58.827 47.8618 60.8612 48.592C61.435 48.8007 61.967 48.8007 62.3947 48.592C62.8224 48.3834 63.1667 47.9661 63.3649 47.3715H63.3336ZM14.8668 32.0574C14.7729 32.1513 14.679 32.2452 14.5747 32.3495L14.1261 32.7668L9.74467 25.9651C7.12625 21.8862 4.4974 17.8178 1.88941 13.7389C1.36782 12.9356 1.25307 12.0072 1.56602 11.1935C1.86855 10.4215 2.51533 9.85821 3.37075 9.62871C4.50783 9.32618 5.60319 9.80605 6.31256 10.9118C7.87735 13.3425 9.44214 15.7731 11.0069 18.2142L13.3646 21.8758C14.4912 23.6284 15.6074 25.3705 16.7445 27.1231C16.9844 27.4986 17.1931 27.9994 16.6715 28.594C16.2542 29.0634 16.0351 29.658 16.0456 30.3153C16.0456 30.7534 15.9725 31.2959 15.3258 31.6714C15.1797 31.7549 15.0441 31.9009 14.8772 32.0678L14.8668 32.0574ZM47.6126 33.0693C47.5813 33.4136 47.5813 33.7682 47.5709 34.1125V34.5924V34.9053C47.5709 35.1661 47.5918 35.4373 47.5918 35.6981C47.5918 41.2375 47.5918 46.7769 47.5918 52.3162C47.5918 53.9228 47.0806 54.4444 45.4637 54.4444H22.2317C20.9173 54.4444 20.4687 54.0897 20.1453 52.8065L18.7161 47.2567C17.6208 42.9901 16.5254 38.7234 15.4301 34.4567L15.3779 34.2898C15.284 33.9456 15.1484 33.4866 15.3779 32.9754C15.4822 32.7459 15.67 32.3182 16.0977 32.2452C16.515 32.1721 16.828 32.506 17.0053 32.7042C17.965 33.57 19.1543 33.497 20.4166 33.4136L20.886 33.3823C21.9188 33.3301 22.9515 33.2571 23.9843 33.1945C24.6937 33.1423 25.403 33.1006 26.1124 33.0589C30.3269 32.8085 34.531 32.5686 38.7455 32.3286C39.7991 32.266 40.8632 32.2139 41.9168 32.1617C43.4294 32.0783 44.9525 32.0052 46.4651 31.9114C46.7259 31.8905 47.1223 31.9114 47.3936 32.1826C47.6648 32.4538 47.6648 32.8294 47.6335 33.0797L47.6126 33.0693ZM48.4368 48.0183V46.5682C48.4368 46.0779 48.4368 45.6189 48.4368 45.1599C48.4368 44.7948 48.5932 44.5966 48.7289 44.5027C48.8645 44.4088 49.094 44.3254 49.4278 44.4401L52.9747 45.7441L48.4472 48.0078L48.4368 48.0183ZM61.9879 47.8201C61.8731 47.8827 61.7375 47.9035 61.6019 47.9035C61.4663 47.9035 61.3307 47.8722 61.1846 47.8201C58.6601 46.8916 56.1251 45.9528 53.5901 45.0243L50.6275 43.9498C50.1372 43.7829 49.6469 43.6056 49.1566 43.4491C48.5724 43.2509 48.4472 42.8336 48.4576 42.5206C48.4681 41.78 48.4681 41.0393 48.4576 40.2986C48.4576 39.9752 48.5515 39.7457 48.7497 39.5997C49.0522 39.3806 49.3965 39.5162 49.5321 39.5684L51.5559 40.3299L54.1743 41.2688C56.4068 42.0721 58.6392 42.8753 60.8508 43.6995C62.1861 44.2002 62.9476 45.7545 62.5199 47.0898C62.4469 47.3193 62.3113 47.6427 61.9774 47.8096L61.9879 47.8201Z" fill="#2E3192" stroke="#2E3192" stroke-miterlimit="10"/>
<path d="M51.389 26.9353C51.1386 27.5299 51.3577 27.9472 51.8271 28.3436C53.0581 29.3972 53.7153 30.7534 53.7466 32.3808C53.7675 33.3405 53.079 34.0812 52.1714 34.1438C51.3368 34.2064 50.617 33.5909 50.4501 32.6729C50.3667 32.2034 50.3562 31.7131 50.0537 31.3167C49.5947 30.7117 49.0001 30.3778 48.2281 30.4196C44.869 30.6073 41.4995 30.8056 38.1404 31.0038C35.9184 31.1289 33.6964 31.2646 31.4744 31.3897C27.3851 31.6192 23.2957 31.8487 19.196 32.0574C18.2988 32.0991 17.7147 31.6818 17.4643 30.9203C17.1409 29.9397 17.7564 28.9069 18.7787 28.7922C19.8115 28.6774 20.8547 28.6253 21.8874 28.5627C26.6861 28.2915 31.4848 28.0411 36.2731 27.7699C40.1746 27.5508 44.0762 27.3004 47.9777 27.0709C48.1447 27.0709 48.3116 27.0501 48.4785 27.0709C49.1044 27.1439 49.5217 26.8936 49.7303 26.299C50.2936 26.4554 50.857 26.6328 51.3577 26.9353H51.389Z" fill="#C9D8FB"/>
<path d="M12.7386 13.5407C12.7386 13.6867 12.7491 13.8328 12.7595 13.9788C12.7491 14.7612 12.8951 15.5332 12.7595 16.3052C12.676 16.7746 12.7595 17.2962 12.3527 17.6822C11.1113 15.7836 9.88029 13.8954 8.63889 11.9968C8.53457 11.8403 8.45111 11.6838 8.32593 11.4543C8.96228 11.423 9.46301 11.6525 9.96374 11.8716C10.5375 12.1324 11.0382 12.1324 11.4972 11.6629C12.0919 11.8716 12.384 12.3306 12.5196 12.9148C12.5717 13.1234 12.6656 13.332 12.7386 13.5303V13.5407Z" fill="#C9D8FB"/>
<path d="M14.2304 31.9635C13.6984 31.1394 13.1664 30.3153 12.6448 29.5016C9.20222 24.15 5.75968 18.7984 2.32757 13.4468C1.45128 12.0907 2.02504 10.5154 3.50638 10.119C4.42439 9.87909 5.29024 10.2546 5.88486 11.1831C7.84607 14.2188 9.79684 17.2649 11.758 20.311C13.2707 22.6687 14.7833 25.0367 16.3168 27.3943C16.5254 27.7177 16.5776 27.9264 16.2855 28.2497C15.7743 28.8235 15.524 29.5433 15.5344 30.3153C15.5344 30.7221 15.451 31.0038 15.0754 31.2229C14.7729 31.4002 14.5434 31.6923 14.2408 31.974L14.2304 31.9635Z" fill="#E7ECFB"/>
<path d="M51.389 40.8098C54.4873 41.9365 57.596 43.0318 60.6839 44.1898C61.8105 44.607 62.3843 45.8902 62.0401 46.9438C61.9253 47.2881 61.7688 47.4863 61.362 47.3402C58.0342 46.1092 54.7064 44.8887 51.3786 43.6682C51.3786 42.7189 51.3786 41.7591 51.389 40.8098Z" fill="#E7ECFB"/>
<path d="M47.0806 35.6877C47.0806 35.3121 47.0597 34.9366 47.0493 34.561C45.2863 34.6654 43.5337 34.7592 41.7707 34.874C40.9466 34.9262 40.112 34.947 39.2879 35.0096C36.6173 35.187 33.9363 35.26 31.2658 35.4269C28.3448 35.6147 25.4239 35.7711 22.5029 35.9485C21.5745 36.0006 20.6356 36.0111 19.7072 36.1363C18.0172 36.3658 16.3376 35.1765 16.6402 33.038C16.2333 32.5894 16.0873 32.6207 15.8473 33.1527C15.67 33.5596 15.8369 33.9351 15.9308 34.3107C17.4956 40.4342 19.0708 46.5473 20.646 52.6605C20.9173 53.7245 21.1572 53.9123 22.2421 53.9123C29.9826 53.9123 37.7336 53.9123 45.4741 53.9123C46.7989 53.9123 47.091 53.6202 47.091 52.2954C47.091 46.756 47.091 41.2166 47.091 35.6773L47.0806 35.6877Z" fill="#E7ECFB"/>
</g>
<defs>
<clipPath id="clip0_496_10862">
<rect width="64" height="64" fill="white"/>
</clipPath>
</defs>
</svg>
