<svg width="24" height="27" viewBox="0 0 24 27" fill="none" xmlns="http://www.w3.org/2000/svg">
<path d="M20 18.9366C18.9867 18.9366 18.08 19.3325 17.3867 19.9527L7.88 14.4765C7.94667 14.173 8 13.8695 8 13.5528C8 13.2361 7.94667 12.9326 7.88 12.6291L17.28 7.20571C18 7.8655 18.9467 8.27456 20 8.27456C22.2133 8.27456 24 6.50635 24 4.31587C24 2.12539 22.2133 0.357178 20 0.357178C17.7867 0.357178 16 2.12539 16 4.31587C16 4.63257 16.0533 4.93606 16.12 5.23956L6.72 10.663C6 10.0032 5.05333 9.59413 4 9.59413C1.78667 9.59413 0 11.3623 0 13.5528C0 15.7433 1.78667 17.5115 4 17.5115C5.05333 17.5115 6 17.1024 6.72 16.4427L16.2133 21.932C16.1467 22.2092 16.1067 22.4995 16.1067 22.7898C16.1067 24.9143 17.8533 26.6429 20 26.6429C22.1467 26.6429 23.8933 24.9143 23.8933 22.7898C23.8933 20.6653 22.1467 18.9366 20 18.9366Z" fill="#2E3192"/>
</svg>
