<svg width="23" height="23" viewBox="0 0 23 23" fill="none" xmlns="http://www.w3.org/2000/svg">
<path d="M4.22322 16.7903V20.9032L8.37439 19.8871L11.5 22.9839L14.6256 19.8871L18.7767 20.9032V16.7903L22.9767 15.7258L20.8767 11.6129L22.9767 7.50001L18.7767 6.43549V2.32259L14.6256 3.33872L11.5 0.241943L8.37439 3.33872L4.22322 2.32259V6.43549L0.0232239 7.50001L2.12322 11.6129L0.0232239 15.7258L4.22322 16.7903ZM3.97904 10.6936L3.05113 8.80646L4.7116 8.41936C5.19997 8.32259 5.58253 8.08872 5.85927 7.71775C6.13601 7.34678 6.27439 6.91936 6.27439 6.43549V4.98388L7.83718 5.41936H8.37439C8.92788 5.41936 9.41625 5.20969 9.8395 4.79033L11.5 3.14517L13.1604 4.79033C13.5837 5.20969 14.0721 5.41936 14.6256 5.41936C14.8209 5.41936 15 5.3871 15.1628 5.32259L16.7255 4.98388V6.43549C16.7255 6.91936 16.8639 7.34678 17.1407 7.71775C17.4174 8.08872 17.8 8.32259 18.2883 8.41936L19.9488 8.80646L19.0209 10.6936C18.6953 11.3065 18.6953 11.9194 19.0209 12.5323L19.9488 14.4194L18.2883 14.8065C17.8 14.9032 17.4174 15.1371 17.1407 15.5081C16.8639 15.879 16.7255 16.3065 16.7255 16.7903V18.2419L15.1628 17.8065H14.6256C14.0721 17.8065 13.5837 18.0161 13.1604 18.4355L11.5 20.0807L9.8395 18.4355C9.41625 18.0161 8.92788 17.8065 8.37439 17.8065C8.17904 17.8065 7.99997 17.8387 7.83718 17.9032L6.27439 18.2419V16.7903C6.27439 16.3065 6.13601 15.879 5.85927 15.5081C5.58253 15.1371 5.19997 14.9032 4.7116 14.8065L3.05113 14.4194L3.97904 12.5323C4.30462 11.9194 4.30462 11.3065 3.97904 10.6936ZM10.4744 15.1452L15.3581 10.2581C15.8139 9.80646 15.8139 9.32259 15.3581 8.80646C14.8697 8.3871 14.3814 8.3871 13.893 8.80646L10.4744 12.2419L9.10695 10.8871C8.61857 10.4678 8.1302 10.4678 7.64183 10.8871C7.21857 11.371 7.21857 11.8548 7.64183 12.3387L10.4744 15.1452Z" fill="#F2F6FB"/>
</svg>
