<svg width="28" height="29" viewBox="0 0 28 29" fill="none" xmlns="http://www.w3.org/2000/svg">
<path fill-rule="evenodd" clip-rule="evenodd" d="M12.4049 14.7183C13.1484 14.5191 13.8289 15.1995 13.6296 15.9431L10.5045 27.6062C10.3053 28.3497 9.37581 28.5988 8.83148 28.0544L4.98782 24.2108L1.3504 27.8482C1.11609 28.0825 0.736188 28.0825 0.501873 27.8482C0.267558 27.6139 0.267558 27.234 0.501873 26.9997L4.13929 23.3623L0.293508 19.5165C-0.250823 18.9721 -0.00177443 18.0427 0.741795 17.8434L12.4049 14.7183ZM1.38699 18.9129L12.3809 15.9671L9.43506 26.961L1.38699 18.9129Z" fill="#2E3192"/>
<path d="M26.3237 12C26.3237 17.9647 21.4883 22.8 15.5237 22.8C14.8647 22.8 14.2195 22.741 13.5931 22.6279C13.272 22.57 12.9526 22.76 12.8697 23.0756C12.7842 23.4014 12.983 23.7354 13.3141 23.797C14.0303 23.9303 14.7688 24 15.5237 24C22.1511 24 27.5237 18.6274 27.5237 12C27.5237 5.37258 22.1511 0 15.5237 0C8.89625 0 3.52366 5.37258 3.52366 12C3.52366 13.2279 3.7081 14.4128 4.05077 15.5284C4.1422 15.826 4.45638 15.9888 4.75696 15.9075C5.09581 15.816 5.2816 15.4537 5.18044 15.1176C4.88333 14.1305 4.72366 13.0839 4.72366 12C4.72366 6.03532 9.55899 1.2 15.5237 1.2C21.4883 1.2 26.3237 6.03532 26.3237 12Z" fill="#2E3192"/>
<path d="M22.3237 12C22.3237 15.7555 19.2792 18.8 15.5237 18.8C15.2123 18.8 14.9059 18.7791 14.6057 18.7386C14.2849 18.6953 13.9699 18.8844 13.8877 19.1975C13.8015 19.5261 14.0041 19.8632 14.3402 19.9131C14.7264 19.9703 15.1216 20 15.5237 20C19.9419 20 23.5237 16.4183 23.5237 12C23.5237 7.58172 19.9419 4 15.5237 4C11.1054 4 7.52366 7.58172 7.52366 12C7.52366 12.8763 7.66456 13.7197 7.92494 14.5088C8.01899 14.7938 8.32399 14.9434 8.61374 14.8651C8.96263 14.7708 9.14499 14.3894 9.03644 14.0447C8.83323 13.3993 8.72366 12.7125 8.72366 12C8.72366 8.24446 11.7681 5.2 15.5237 5.2C19.2792 5.2 22.3237 8.24446 22.3237 12Z" fill="#2E3192"/>
</svg>
