<svg width="57" height="61" viewBox="0 0 57 61" fill="none" xmlns="http://www.w3.org/2000/svg">
<path d="M54.7088 47.9586H6.27563V55.1263H54.7088V47.9586Z" fill="#C8D8FB"/>
<path d="M15.9419 16.7889V1.35541H44.2938V18.0081H15.9419V16.7889Z" fill="#E7ECFB"/>
<path d="M53.0325 57.0977V54.8237H49.1267V57.0977C48.4336 57.4003 47.9841 57.8499 47.9841 58.36C47.9841 59.2679 49.3703 60.0028 51.0843 60.0028C52.7983 60.0028 54.1846 59.2679 54.1846 58.36C54.1846 57.8499 53.735 57.3917 53.0419 57.0977H53.0325Z" fill="#2E3192"/>
<path d="M9.1604 57.0977V54.6163H5.25464V57.0977C4.56154 57.4004 4.11195 57.85 4.11195 58.3601C4.11195 59.268 5.49817 60.0029 7.2122 60.0029C8.92624 60.0029 10.3125 59.268 10.3125 58.3601C10.3125 57.85 9.86287 57.3917 9.16976 57.0977H9.1604Z" fill="#2E3192"/>
<path d="M15.5953 19.0456C18.0493 19.0456 20.5127 19.0283 22.9666 19.0283C28.9049 19.0283 34.8431 19.0283 40.7907 19.0283C41.0811 19.0283 41.3621 19.0456 41.6524 19.0543C41.6524 19.2358 41.7461 19.3828 41.8397 19.5384C42.8326 21.1639 43.8067 22.7894 44.7995 24.4149C46.1951 26.7062 47.6 28.9974 48.9956 31.2887C49.6981 32.4559 50.3912 33.6232 51.0843 34.7991C50.8033 34.8164 50.5129 34.8423 50.232 34.8423C35.8921 34.8423 21.5429 34.8423 7.20313 34.8423C6.89404 34.8423 6.58495 34.9028 6.28523 34.7731C6.55685 33.848 7.18439 33.0871 7.67144 32.2657C9.10449 29.8621 10.575 27.4843 12.0361 25.0893C13.1695 23.239 14.2934 21.3801 15.4361 19.5298C15.5298 19.3742 15.6234 19.2272 15.6047 19.0456H15.5953ZM17.6091 22.4955C17.6559 21.8556 17.1782 21.3282 16.5039 21.2763C15.8576 21.2331 15.2394 21.7173 15.1832 22.3225C15.1177 22.9364 15.6234 23.4811 16.3072 23.5244C17.0097 23.5676 17.5623 23.1353 17.6091 22.5041V22.4955ZM40.7907 21.2763C40.1163 21.2936 39.6106 21.8038 39.6293 22.4436C39.648 23.0834 40.1819 23.5417 40.875 23.5157C41.5681 23.4984 42.0833 22.9883 42.0552 22.3658C42.0271 21.7605 41.437 21.2591 40.7813 21.2763H40.7907ZM24.9523 26.9223C24.9523 26.3085 24.3903 25.7897 23.7347 25.781C23.0978 25.7724 22.5077 26.3085 22.4983 26.9137C22.4889 27.5276 23.0322 28.0204 23.7253 28.0291C24.409 28.0291 24.9617 27.5362 24.9523 26.9223ZM33.5225 28.0291C34.2062 28.0291 34.7588 27.5103 34.7401 26.905C34.7213 26.2998 34.1313 25.7724 33.4944 25.781C32.8294 25.7983 32.2861 26.3171 32.2861 26.931C32.2861 27.5362 32.8481 28.0291 33.5318 28.0204L33.5225 28.0291ZM10.294 31.3924C10.2659 31.9977 10.8092 32.5424 11.4648 32.577C12.1111 32.6029 12.7012 32.0928 12.7293 31.4876C12.7573 30.8823 12.1954 30.3203 11.5678 30.303C10.9122 30.2857 10.3315 30.7959 10.3034 31.4011L10.294 31.3924ZM22.4796 32.5683C23.154 32.5683 23.7159 32.0755 23.7347 31.4616C23.7534 30.8391 23.1446 30.2771 22.4702 30.2944C21.8614 30.3117 21.3182 30.8304 21.3088 31.4097C21.2994 32.0323 21.8333 32.5597 22.4889 32.5683H22.4796ZM34.7401 30.2944C34.0938 30.2944 33.5037 30.8131 33.4944 31.4097C33.4756 32.015 34.0189 32.5337 34.6932 32.5597C35.3489 32.5856 35.9109 32.0755 35.9202 31.453C35.9202 30.8391 35.377 30.2944 34.7401 30.2857V30.2944ZM46.935 31.4616C46.9538 30.8564 46.4105 30.329 45.7455 30.2944C45.118 30.2684 44.5185 30.8045 44.5091 31.4097C44.4904 32.0236 45.0337 32.5597 45.6987 32.577C46.3449 32.5943 46.9256 32.0755 46.9444 31.4616H46.935ZM26.1699 22.4176C26.1699 21.8124 25.5892 21.2763 24.9523 21.2763C24.2779 21.2763 23.744 21.7778 23.7347 22.4004C23.7347 23.0402 24.2404 23.5157 24.9429 23.5157C25.636 23.5157 26.1699 23.0402 26.1699 22.409V22.4176ZM33.485 22.4004C33.485 21.7778 32.9324 21.2763 32.2674 21.285C31.6211 21.285 31.0591 21.8297 31.0591 22.4349C31.0591 23.0575 31.6024 23.5417 32.2955 23.533C32.9886 23.533 33.4944 23.0488 33.4944 22.409L33.485 22.4004ZM15.1645 26.931C15.1645 26.3257 14.5931 25.781 13.9469 25.781C13.3006 25.781 12.7292 26.3344 12.7386 26.9396C12.7386 27.5449 13.2538 28.0118 13.9281 28.0204C14.64 28.0291 15.1551 27.5708 15.1645 26.9223V26.931ZM43.2728 28.0291C43.9753 28.0291 44.5091 27.5362 44.4904 26.905C44.4717 26.3257 43.9284 25.7983 43.3103 25.781C42.664 25.7637 42.0739 26.2998 42.0645 26.8964C42.0645 27.5449 42.5703 28.0204 43.2728 28.0204V28.0291Z" fill="#E7ECFB"/>
<path d="M5.43263 41.3702C6.02271 41.3702 6.62215 41.3702 7.21223 41.3529C8.04583 41.3356 8.49542 40.8947 8.60781 40.0214C9.31965 40.0214 10.0315 40.0301 10.7433 40.0387C11.0337 41.1195 11.3521 41.3529 12.4855 41.3529C25.2892 41.3529 38.093 41.3529 50.8873 41.3529C51.1964 41.3529 51.5055 41.3529 51.8146 41.3616C51.7584 43.0303 51.9645 44.699 51.6554 46.3591C51.3931 46.3678 51.1309 46.3851 50.8686 46.3851C36.0511 46.3851 21.2336 46.3851 6.41609 46.3851C6.18194 46.3851 5.93841 46.3678 5.70426 46.3591C5.43263 45.7452 5.42327 45.0968 5.43263 44.431C5.45136 43.4107 5.43263 42.3818 5.43263 41.3616V41.3702Z" fill="#C8D8FB"/>
<path d="M51.6556 46.8606C52.0021 44.8547 51.7773 42.8314 51.8335 40.8255C52.5079 40.8255 53.1823 40.8515 53.8567 40.8082C54.3999 40.7736 54.6341 40.9552 54.606 41.6037C54.5685 42.7623 54.606 43.9209 54.5966 45.0881C54.5966 46.2813 54.0346 46.8952 52.9481 46.9038C52.5173 46.9038 52.0864 46.8779 51.6556 46.8692V46.8606Z" fill="#C8D8FB"/>
<path d="M55.3177 34.1247C55.0742 33.7356 54.7745 33.2601 54.4092 32.6462C52.7232 29.8448 50.9905 27.0175 49.3233 24.2766L49.061 23.853C48.0494 22.2015 47.0472 20.5587 46.0451 18.9073C45.3238 17.7141 44.2655 17.1435 42.7949 17.1694C41.7365 17.1867 40.6501 17.1781 39.6104 17.1694H38.2148H32.108C26.2259 17.1694 20.3439 17.1694 14.4619 17.1694C13.1412 17.1694 12.1765 17.6104 11.5115 18.5096C11.1743 18.9592 11.2117 19.4174 11.5864 19.6768C11.9891 19.9449 12.42 19.8411 12.7759 19.3829C13.188 18.8554 13.7313 18.6133 14.415 18.6393C14.696 18.6479 14.9676 18.6566 15.2486 18.6566H15.6139H17.8806C19.5852 18.6566 21.2805 18.6479 22.9852 18.6479C28.9234 18.6479 34.8617 18.6479 40.8093 18.6479C41.0153 18.6479 41.212 18.6479 41.4181 18.6652H41.6804H42.0175C42.2798 18.6652 42.5327 18.6652 42.7762 18.6393C43.6285 18.5874 44.2561 18.9246 44.7244 19.6855C47.5437 24.3372 50.494 29.1791 53.5006 34.0988C53.6505 34.3495 53.8659 34.6954 53.6505 34.998C53.4632 35.2747 53.0979 35.2833 52.7701 35.2574C52.5734 35.2401 52.3673 35.2487 52.1613 35.2574C51.796 35.266 51.44 35.2747 51.0748 35.2055H50.8687C50.672 35.2314 50.466 35.2487 50.2599 35.2487C35.9201 35.2487 21.5709 35.2487 7.23106 35.2487C7.1655 35.2487 7.09993 35.2487 7.03437 35.2487C6.79084 35.2487 6.53795 35.266 6.26633 35.1882C5.67625 35.2747 5.09554 35.2574 4.53356 35.2401C4.33687 35.2401 4.15891 35.2228 3.98095 35.2228H3.59693L3.56883 34.8596C3.54074 34.5138 3.69996 34.289 3.80299 34.142C3.83109 34.1074 3.84982 34.0815 3.85919 34.0555C4.3837 33.1823 4.91758 32.3176 5.45146 31.4444L5.69499 31.0466C6.42556 29.8448 7.15613 28.643 7.8867 27.4412C8.0553 27.1558 8.1115 26.8878 8.04593 26.6716C7.98973 26.4987 7.86797 26.3604 7.66191 26.2653C7.54015 26.2047 7.41839 26.1702 7.29663 26.1702C7.00627 26.1702 6.73465 26.3604 6.51922 26.7149C5.62006 28.1761 4.73026 29.6459 3.83109 31.1158L1.49888 34.9374C1.12423 35.4562 0.965 36.0355 0.965 36.6667C0.965 38.0587 0.965 39.4508 0.965 40.8428V41.2924C0.965 42.4597 0.965 43.6269 0.965 44.7942C0.965 46.7136 2.32312 47.95 4.40244 47.95C20.55 47.95 36.7068 47.95 52.8544 47.95C54.9149 47.95 56.2543 46.7223 56.2637 44.8287C56.2731 43.2984 56.2824 41.2924 56.2637 39.2865C56.2637 38.5343 56.2637 37.9463 56.2637 37.4794C56.2762 36.2978 55.9577 35.1824 55.3083 34.1333L55.402 34.0815L55.3083 34.1247H55.3177ZM12.4762 41.206H50.8874C51.0841 41.206 51.2808 41.206 51.4775 41.206H52.3579C52.7701 41.2146 53.1822 41.2233 53.5756 41.206C53.8191 41.1973 54.1844 41.206 54.4279 41.4308C54.6808 41.6556 54.6995 41.9755 54.6902 42.2003C54.6714 42.7364 54.6714 43.2811 54.6808 43.7998C54.6808 44.1198 54.6808 44.4397 54.6808 44.7509C54.6714 45.8404 53.9877 46.4715 52.8075 46.4802H52.7232C52.4891 46.4802 52.2456 46.4802 52.002 46.4629H51.6461H51.4307C51.2434 46.4629 51.056 46.4802 50.8781 46.4802C36.0606 46.4802 21.2431 46.4802 6.42556 46.4802C6.25697 46.4802 6.08837 46.4802 5.91978 46.4629H5.70435H5.28287C4.90822 46.4715 4.59913 46.4802 4.28067 46.4629C3.25038 46.4283 2.6041 45.8144 2.58537 44.8806C2.58537 44.4656 2.58537 44.0506 2.58537 43.6356V43.5837C2.58537 43.0822 2.58537 42.5721 2.58537 42.0706C2.58537 41.8804 2.6041 41.5951 2.8289 41.3962C3.05369 41.1973 3.35341 41.18 3.56883 41.1973C4.00905 41.2146 4.45863 41.2233 4.88948 41.2233H5.4702H6.01344C6.41619 41.2233 6.82831 41.2233 7.23106 41.206C7.82114 41.1887 8.1115 40.9639 8.20516 40.4278C8.04593 39.8485 7.89607 39.7448 7.2217 39.7275L5.45146 39.6842H4.89885C4.43053 39.7015 3.96222 39.7102 3.4939 39.7275C3.16608 39.7361 2.94129 39.6669 2.78206 39.5027C2.62284 39.347 2.56664 39.1395 2.59474 38.8801C2.61347 38.4132 2.59474 38.0847 2.59474 37.8426C2.57601 37.4016 2.56664 37.1163 2.8008 36.8915C3.06305 36.6494 3.40961 36.6667 4.16828 36.684C4.5242 36.6926 4.92695 36.7099 5.46083 36.7099H5.62006C5.76055 36.6926 5.90105 36.684 6.04154 36.684H51.3557C51.4775 36.684 51.5993 36.684 51.721 36.6926H51.8803H52.4329C52.9012 36.6926 53.3695 36.6926 53.8378 36.6753H53.8472C54.1469 36.6753 54.3717 36.7532 54.5309 36.9001C54.6902 37.0558 54.7557 37.2633 54.7276 37.5227C54.7838 38.4738 54.7932 39.0876 54.3717 39.4594C53.9221 39.8572 53.1822 39.8053 51.796 39.6756H51.5618C51.337 39.6929 51.1216 39.7015 50.9062 39.7015H12.3919C11.5489 39.7015 11.3897 39.788 11.1836 40.4019C11.4084 41.0849 11.577 41.18 12.4762 41.18V41.206Z" fill="#2E3192"/>
<path d="M52.2455 10.9614C52.2455 10.9614 52.3111 11.0046 52.3486 11.0219C52.2643 11.0652 52.2268 11.0479 52.2549 10.9528L52.2455 10.9614Z" fill="#FDFEFE"/>
<path d="M10.7341 40.4278C10.0222 40.4278 9.3104 40.4192 8.59856 40.4105C8.38313 39.5199 8.08341 39.2692 7.19361 39.2433C6.60354 39.226 6.01346 39.2173 5.43275 39.2C5.43275 38.4046 5.43275 37.6178 5.43275 36.8223C5.62007 36.8223 5.81677 36.7964 6.00409 36.7964C21.1119 36.7964 36.2104 36.7964 51.3183 36.7964C51.4869 36.7964 51.6555 36.805 51.8147 36.8137C51.8147 37.6091 51.796 38.4132 51.7866 39.2087C51.4775 39.2173 51.1684 39.2433 50.8594 39.2433C38.0369 39.2433 25.205 39.2433 12.3825 39.2433C11.3148 39.2433 11.0151 39.4681 10.7247 40.4278H10.7341Z" fill="#E7ECFB"/>
<path d="M51.0746 34.7904C50.3815 33.6232 49.6978 32.4473 48.9859 31.28C47.5903 28.9888 46.1854 26.6975 44.7898 24.4063C43.797 22.7808 42.8229 21.1553 41.8301 19.5298C41.7364 19.3742 41.6334 19.2272 41.6427 19.0456C42.0267 19.037 42.4014 19.0456 42.7854 19.011C43.5254 18.9591 43.9749 19.2791 44.3309 19.8584C47.2438 24.6657 50.1754 29.473 53.1071 34.2716C53.36 34.678 53.4349 34.9028 52.7886 34.8509C52.2173 34.8077 51.6459 34.9115 51.084 34.7904H51.0746Z" fill="#C8D8FB"/>
<path d="M5.43267 37.1163C5.43267 37.8425 5.43267 38.5775 5.43267 39.3038C4.76766 39.3124 4.11202 39.3211 3.44701 39.347C3.11919 39.3556 2.9506 39.2519 2.98807 38.932C2.98807 38.9147 2.98807 38.8887 2.98807 38.8628C3.10046 36.6667 2.31369 37.1076 5.44204 37.1163H5.43267Z" fill="#FEFEFE"/>
<path d="M51.796 39.3124C51.796 38.5775 51.8147 37.8426 51.8241 37.1076C52.4891 37.1076 53.1447 37.1076 53.8097 37.0903C54.1469 37.0903 54.2968 37.2114 54.2687 37.514C54.2687 37.5399 54.2687 37.5572 54.2687 37.5832C54.3717 39.4594 54.2687 39.5372 51.8054 39.3124H51.796Z" fill="#C8D8FB"/>
<path d="M15.6233 22.997C15.8012 23.1872 16.0447 23.2996 16.3257 23.3169C16.9064 23.3515 17.3654 22.997 17.4029 22.4782C17.4403 21.9422 17.0563 21.5098 16.4943 21.4666C16.4756 21.4666 16.4475 21.4666 16.4288 21.4666C15.923 21.4666 15.4547 21.8557 15.3985 22.3312C15.3704 22.5733 15.4547 22.8068 15.6233 22.9884V22.997Z" fill="#2E3192"/>
<path d="M39.8539 22.435C39.8539 22.6944 39.9663 22.9192 40.1536 23.0835C40.3409 23.2477 40.5845 23.3256 40.8842 23.3169C41.1652 23.3169 41.4181 23.2045 41.6054 23.0229C41.7833 22.85 41.8676 22.6166 41.8583 22.3745C41.8302 21.8816 41.3525 21.4666 40.828 21.4666C40.828 21.4666 40.8092 21.4666 40.7999 21.4666C40.5376 21.4666 40.2941 21.5704 40.1161 21.7433C39.9288 21.9249 39.8352 22.167 39.8445 22.435H39.8539Z" fill="#2E3192"/>
<path d="M22.9854 27.5362C23.1821 27.7178 23.4443 27.8215 23.7347 27.8215C24.0157 27.8215 24.2686 27.7264 24.4653 27.5449C24.6526 27.3719 24.7463 27.1558 24.7463 26.9137C24.7463 26.4122 24.2779 25.9799 23.7347 25.9713H23.7253C23.2102 25.9713 22.7231 26.4122 22.7138 26.9137C22.7138 27.1471 22.8074 27.3719 22.9854 27.5362Z" fill="#2E3192"/>
<path d="M32.5015 26.931C32.5015 27.1644 32.6045 27.3892 32.7919 27.5535C32.9886 27.7351 33.2602 27.8215 33.5318 27.8215C33.8222 27.8215 34.0844 27.7178 34.2717 27.5276C34.4497 27.3547 34.5434 27.1298 34.534 26.905C34.5153 26.4122 34.0376 25.9713 33.5224 25.9713C33.5224 25.9713 33.5037 25.9713 33.4943 25.9713C32.9417 25.9885 32.4921 26.4122 32.4921 26.9223L32.5015 26.931Z" fill="#2E3192"/>
<path d="M11.5675 30.4846C11.5675 30.4846 11.5488 30.4846 11.5394 30.4846C11.0149 30.4846 10.5372 30.9083 10.5185 31.3925C10.4997 31.8939 10.9493 32.3435 11.4832 32.3695C11.7267 32.3695 11.989 32.2917 12.1857 32.1187C12.3917 31.9458 12.5135 31.7037 12.5229 31.4616C12.5322 31.2195 12.4292 30.9688 12.2325 30.7699C12.0452 30.5884 11.8017 30.4846 11.5675 30.476V30.4846Z" fill="#2E3192"/>
<path d="M23.5286 31.453C23.5286 31.2109 23.4162 30.9601 23.2195 30.7699C23.0135 30.5797 22.77 30.4673 22.4796 30.4846C21.9925 30.4932 21.5336 30.9342 21.5242 31.4097C21.5242 31.6605 21.6273 31.9112 21.8146 32.0928C22.0019 32.2657 22.2361 32.3608 22.489 32.3695C23.0416 32.3695 23.5099 31.9545 23.5193 31.453H23.5286Z" fill="#2E3192"/>
<path d="M34.7491 30.4846C34.2152 30.4846 33.7376 30.9169 33.7188 31.4098C33.7001 31.9026 34.159 32.3436 34.7117 32.3609C34.9645 32.3781 35.2081 32.283 35.4048 32.1188C35.6015 31.9458 35.7232 31.7037 35.7232 31.453C35.7232 31.2023 35.6108 30.9515 35.4141 30.7613C35.2268 30.5884 34.9926 30.4846 34.7491 30.4846Z" fill="#2E3192"/>
<path d="M45.7078 32.3695C45.9513 32.3868 46.2135 32.283 46.4102 32.1101C46.6163 31.9285 46.7287 31.6951 46.738 31.453C46.7474 30.9515 46.2978 30.5106 45.7452 30.4846C45.7359 30.4846 45.7171 30.4846 45.7078 30.4846C45.4923 30.4846 45.2582 30.5711 45.0708 30.7354C44.8554 30.9169 44.7337 31.1677 44.7243 31.4098C44.7149 31.9199 45.1551 32.3609 45.7078 32.3781V32.3695Z" fill="#2E3192"/>
<path d="M24.9613 21.4666C24.6897 21.4666 24.4462 21.5617 24.2495 21.7346C24.0621 21.9076 23.9591 22.141 23.9591 22.3918C23.9591 22.9278 24.3806 23.3083 24.9519 23.3169C25.2329 23.3169 25.4952 23.2218 25.6825 23.0489C25.8698 22.876 25.9635 22.6511 25.9635 22.4091C25.9635 21.9162 25.4858 21.4666 24.9613 21.4666Z" fill="#2E3192"/>
<path d="M32.2861 21.4666C31.7615 21.4666 31.2839 21.9249 31.2839 22.4177C31.2839 22.6598 31.3869 22.8846 31.5648 23.0575C31.7522 23.2304 32.0238 23.3256 32.3048 23.3256C32.8761 23.3256 33.2976 22.9278 33.2882 22.4004C33.2882 22.1497 33.1759 21.9162 32.9885 21.7433C32.8012 21.5704 32.5577 21.4753 32.2861 21.4753V21.4666Z" fill="#2E3192"/>
<path d="M13.9655 25.9713C13.722 25.9713 13.4691 26.075 13.2724 26.2566C13.0757 26.4468 12.954 26.6889 12.9633 26.931C12.9633 27.4239 13.3942 27.8129 13.9468 27.8216C14.2372 27.8216 14.4994 27.7351 14.6867 27.5708C14.8647 27.4066 14.9677 27.1731 14.9771 26.9137C14.9771 26.6716 14.8647 26.4295 14.668 26.248C14.4713 26.0664 14.2278 25.9626 13.9749 25.9626L13.9655 25.9713Z" fill="#2E3192"/>
<path d="M42.5609 27.5622C42.7389 27.7351 43.0011 27.8216 43.2821 27.8216C43.5725 27.8216 43.8347 27.7265 44.022 27.5449C44.2 27.372 44.2937 27.1472 44.2937 26.8964C44.2843 26.4123 43.8253 25.9799 43.3196 25.9626C43.3196 25.9626 43.3008 25.9626 43.2915 25.9626C43.0573 25.9626 42.8138 26.0578 42.6171 26.2307C42.411 26.4123 42.2893 26.6543 42.2893 26.8878C42.2893 27.1472 42.3829 27.3806 42.5609 27.5536V27.5622Z" fill="#2E3192"/>
<path d="M10.4626 23.0661C10.4626 23.4985 10.1067 23.8011 9.62898 23.7924C9.2075 23.7838 8.84221 23.4379 8.84221 23.0575C8.84221 22.6511 9.2356 22.2966 9.66645 22.3053C10.1254 22.3053 10.4626 22.6425 10.4532 23.0748L10.4626 23.0661Z" fill="#2E3192"/>
<path d="M53.4071 47.9586H3.84055C2.82149 47.9586 1.99538 48.7212 1.99538 49.6619V53.5268C1.99538 54.4675 2.82149 55.2301 3.84055 55.2301H53.4071C54.4261 55.2301 55.2522 54.4675 55.2522 53.5268V49.6619C55.2522 48.7212 54.4261 47.9586 53.4071 47.9586Z" stroke="#2E3192" stroke-width="2" stroke-miterlimit="10"/>
<path d="M42.4578 0.923096H14.8085C13.7894 0.923096 12.9633 1.68569 12.9633 2.62641V16.3048C12.9633 17.2455 13.7894 18.0081 14.8085 18.0081H42.4578C43.4769 18.0081 44.303 17.2455 44.303 16.3048V2.62641C44.303 1.68569 43.4769 0.923096 42.4578 0.923096Z" stroke="#2E3192" stroke-width="2" stroke-miterlimit="10"/>
<path d="M26.5912 10.1746H17.0375C16.0185 10.1746 15.1924 10.9372 15.1924 11.8779V16.3047C15.1924 17.2455 16.0185 18.0081 17.0375 18.0081H26.5912C27.6102 18.0081 28.4363 17.2455 28.4363 16.3047V11.8779C28.4363 10.9372 27.6102 10.1746 26.5912 10.1746Z" fill="white" stroke="#2E3192" stroke-width="2" stroke-miterlimit="10"/>
<path d="M39.7978 10.1746H30.2441C29.2251 10.1746 28.399 10.9372 28.399 11.8779V16.3047C28.399 17.2455 29.2251 18.0081 30.2441 18.0081H39.7978C40.8168 18.0081 41.6429 17.2455 41.6429 16.3047V11.8779C41.6429 10.9372 40.8168 10.1746 39.7978 10.1746Z" fill="white" stroke="#2E3192" stroke-width="2" stroke-miterlimit="10"/>
</svg>
