<svg width="52" height="55" viewBox="0 0 52 55" fill="none" xmlns="http://www.w3.org/2000/svg">
<g clip-path="url(#clip0_496_10782)">
<path d="M3.17181 7.86978V46.153C3.17181 47.202 3.85098 48.0986 4.76249 48.2599C4.76249 48.2599 4.79824 48.2599 4.81611 48.2599H6.29062C6.47828 48.2599 6.6302 48.0896 6.6302 47.8744L6.65701 13.3567C6.65701 13.294 6.66594 13.2402 6.69275 13.1864L7.64895 10.9808C7.72938 10.8015 7.67576 10.5953 7.53277 10.4877L3.69906 7.54701C3.47565 7.37667 3.17181 7.55598 3.17181 7.86081V7.86978Z" fill="#C8D8FB"/>
<path d="M7.20213 6.77592C6.16551 6.87454 5.14676 7.12558 4.22631 7.56489C3.8063 7.76214 3.4131 7.99524 3.17181 8.23732L9.21282 11.8325L11.0626 10.8284L45.1639 7.72628L45.4052 7.05385L45.0388 5.71797C44.3686 4.98279 43.5286 4.38209 42.5724 3.96968L42.2596 3.83519C41.5179 3.61105 40.7315 3.53036 39.954 3.61105L7.20213 6.77592Z" fill="#C8D8FB"/>
<path d="M0.839417 9.10699C0.839417 6.68626 2.80542 4.71382 5.21825 4.71382L40.1864 1.30688C42.5992 1.30688 44.5652 3.27036 44.5652 5.70004V40.7557C44.5652 43.1764 42.5992 45.1488 40.1864 45.1488L5.21825 48.5558C2.80542 48.5558 0.839417 46.5923 0.839417 44.1626V13.2043" stroke="#2E3192" stroke-width="1.8" stroke-linecap="round" stroke-linejoin="round"/>
<path d="M7.78298 11.2408L1.38452 6.30078" stroke="#2E3192" stroke-width="1.6" stroke-miterlimit="10"/>
<path d="M8.53364 53.0207L2.8501 47.8475" stroke="#2E3192" stroke-width="1.5" stroke-linecap="round" stroke-linejoin="round"/>
<path d="M48.247 7.13455L43.6269 2.98346" stroke="#2E3192" stroke-width="1.5" stroke-linecap="round" stroke-linejoin="round"/>
<path d="M46.2185 49.6585L10.9644 53.0117C8.52475 53.0117 6.5498 51.0751 6.5498 48.6903V14.1726C6.5498 11.7877 8.52475 9.85113 10.9644 9.85113L46.2185 6.49799C48.6581 6.49799 50.633 8.43456 50.633 10.8194V45.3461C50.633 47.7309 48.6581 49.6675 46.2185 49.6675" fill="white"/>
<path d="M43.4571 50.331L18.6854 52.9041L10.6605 53.7379C8.3907 53.7379 6.5498 51.7744 6.5498 49.3447V14.2891C6.5498 11.8684 8.3907 9.89595 10.6605 9.89595L43.4571 6.48901C45.727 6.48901 47.5679 8.45249 47.5679 10.8822V45.9378C47.5679 48.3585 45.727 50.331 43.4571 50.331Z" fill="#E7ECFB"/>
<path d="M43.5912 50.5551L45.8967 50.331C48.3096 50.331 50.2756 48.3675 50.2756 45.9378V10.8822C50.2756 8.46145 48.3096 6.48901 45.8967 6.48901L10.9286 9.89595C8.51581 9.89595 6.5498 11.8594 6.5498 14.2891V49.3447C6.5498 51.7655 8.51581 53.7379 10.9286 53.7379L20.9553 52.7606L35.4233 51.2813" stroke="#2E3192" stroke-width="1.7" stroke-linecap="round" stroke-linejoin="round"/>
<path d="M30.0436 18.0816C30.0436 18.5478 29.6682 18.9154 29.2035 18.9154C28.7389 18.9154 28.3635 18.5388 28.3635 18.0816C28.3635 17.6244 28.7389 17.2388 29.2035 17.2388C29.6682 17.2388 30.0436 17.6154 30.0436 18.0816Z" fill="#2E3192"/>
<path d="M27.3805 20.0989L30.9461 15.8492" stroke="#2E3192" stroke-width="0.5" stroke-linecap="round" stroke-linejoin="round"/>
<path d="M31.3304 19.8927L27.0052 16.0554" stroke="#2E3192" stroke-width="0.5" stroke-linecap="round" stroke-linejoin="round"/>
<path d="M17.7739 19.2202C17.7739 19.6864 17.3986 20.054 16.9339 20.054C16.4692 20.054 16.0939 19.6775 16.0939 19.2202C16.0939 18.763 16.4692 18.3774 16.9339 18.3774C17.3986 18.3774 17.7739 18.754 17.7739 19.2202Z" fill="#2E3192"/>
<path d="M15.1108 21.2375L18.6854 16.9788" stroke="#2E3192" stroke-width="0.5" stroke-linecap="round" stroke-linejoin="round"/>
<path d="M19.0607 21.0223L14.7355 17.194" stroke="#2E3192" stroke-width="0.5" stroke-linecap="round" stroke-linejoin="round"/>
<path d="M42.3132 16.7637C42.3132 17.2299 41.9379 17.5975 41.4732 17.5975C41.0085 17.5975 40.6332 17.2209 40.6332 16.7637C40.6332 16.3064 41.0085 15.9209 41.4732 15.9209C41.9379 15.9209 42.3132 16.2975 42.3132 16.7637Z" fill="#2E3192"/>
<path d="M39.6412 18.781L43.2158 14.5223" stroke="#2E3192" stroke-width="0.5" stroke-linecap="round" stroke-linejoin="round"/>
<path d="M43.5911 18.5658L39.2659 14.7374" stroke="#2E3192" stroke-width="0.5" stroke-linecap="round" stroke-linejoin="round"/>
<path d="M30.0436 28.5983C30.0436 29.0645 29.6682 29.4321 29.2035 29.4321C28.7389 29.4321 28.3635 29.0555 28.3635 28.5983C28.3635 28.141 28.7389 27.7555 29.2035 27.7555C29.6682 27.7555 30.0436 28.1321 30.0436 28.5983Z" fill="#2E3192"/>
<path d="M27.3805 30.6156L30.9461 26.3658" stroke="#2E3192" stroke-width="0.5" stroke-linecap="round" stroke-linejoin="round"/>
<path d="M31.3304 30.4094L27.0052 26.5721" stroke="#2E3192" stroke-width="0.5" stroke-linecap="round" stroke-linejoin="round"/>
<path d="M17.7739 29.7369C17.7739 30.2031 17.3986 30.5707 16.9339 30.5707C16.4692 30.5707 16.0939 30.1942 16.0939 29.7369C16.0939 29.2797 16.4692 28.8942 16.9339 28.8942C17.3986 28.8942 17.7739 29.2707 17.7739 29.7369Z" fill="#2E3192"/>
<path d="M15.1108 31.7542L18.6854 27.4955" stroke="#2E3192" stroke-width="0.5" stroke-linecap="round" stroke-linejoin="round"/>
<path d="M19.0607 31.539L14.7355 27.7107" stroke="#2E3192" stroke-width="0.5" stroke-linecap="round" stroke-linejoin="round"/>
<path d="M42.3132 27.2803C42.3132 27.7465 41.9379 28.1141 41.4732 28.1141C41.0085 28.1141 40.6332 27.7376 40.6332 27.2803C40.6332 26.8231 41.0085 26.4376 41.4732 26.4376C41.9379 26.4376 42.3132 26.8141 42.3132 27.2803Z" fill="#2E3192"/>
<path d="M39.6412 29.2976L43.2158 25.0389" stroke="#2E3192" stroke-width="0.5" stroke-linecap="round" stroke-linejoin="round"/>
<path d="M43.5911 29.0824L39.2659 25.2541" stroke="#2E3192" stroke-width="0.5" stroke-linecap="round" stroke-linejoin="round"/>
<path d="M40.6153 50.4565C40.6153 50.9138 40.2668 51.2455 39.8021 51.2276C39.391 51.2186 39.0247 50.842 39.0247 50.4386C39.0247 50.0082 39.4089 49.6227 39.8379 49.6317C40.2847 49.6317 40.6243 49.9903 40.6153 50.4565Z" fill="#2E3192"/>
</g>
<defs>
<clipPath id="clip0_496_10782">
<rect width="51" height="54" fill="white" transform="translate(0.0351562 0.5)"/>
</clipPath>
</defs>
</svg>
