<svg width="26" height="29" viewBox="0 0 26 29" fill="none" xmlns="http://www.w3.org/2000/svg">
<g clip-path="url(#clip0_1292_4591)">
<path d="M3.35339 28.5002C3.31321 28.4527 3.27303 28.4045 3.23212 28.3577C3.1145 28.2226 3.02172 28.0794 3.10939 27.8917C3.20582 27.6856 3.36069 27.5673 3.59885 27.5688C4.21031 27.571 4.82176 27.5695 5.44564 27.5695C5.4566 27.4541 5.37916 27.3898 5.32218 27.316C5.00075 26.8981 4.86267 26.4087 4.78232 25.9009C4.74798 25.684 4.99855 25.4064 5.21625 25.3888C5.48582 25.3677 5.67211 25.5086 5.71083 25.7724C5.84525 26.676 6.31206 27.2912 7.22085 27.5381C7.32312 27.5658 7.41663 27.5556 7.51452 27.5578C7.60511 27.5615 7.69569 27.5688 7.78701 27.5688C11.1584 27.5688 14.5291 27.5695 17.9006 27.5688C18.3469 27.5688 18.7933 27.5629 19.2396 27.56C19.3624 27.598 19.4734 27.5322 19.5859 27.5096C20.247 27.3744 20.822 26.7776 20.9476 26.1303C21.0528 25.5868 21.0572 25.0331 21.0937 24.4852C21.1478 23.6735 21.207 22.8619 21.2647 22.0503C21.3209 21.2474 21.3713 20.4438 21.4276 19.641C21.5021 18.5766 21.5737 17.5115 21.6453 16.4471C21.6986 15.653 21.7746 14.8596 21.8082 14.0655C21.8498 13.0793 21.9645 12.0982 21.9945 11.1105C22.0033 10.8336 22.0252 10.5516 22.0464 10.2719C22.1011 9.56908 22.1523 8.86557 22.2085 8.16279C22.221 8.00938 22.1428 7.97797 22.0113 7.98089C21.7651 7.98673 21.5182 7.98527 21.272 7.986C21.2084 7.98381 21.1449 7.9787 21.0806 7.9787C15.9566 7.9787 10.8326 7.9787 5.70791 7.9787C5.63485 7.9787 5.56253 7.98527 5.48947 7.98893C5.23452 7.98454 4.97883 7.98527 4.72387 7.97432C4.57411 7.96774 4.5427 8.03349 4.54562 8.17083C4.56315 9.04747 4.65009 9.91973 4.71218 10.7935C4.73702 11.1441 4.7509 11.4977 4.77866 11.8491C4.83418 12.5504 4.84076 13.2546 4.935 13.953C4.97591 14.2562 4.96933 14.5667 4.98394 14.872C5.01828 15.5682 5.07964 16.2623 5.1169 16.9577C5.17388 18.0024 5.25863 19.0456 5.33314 20.0895C5.36967 20.6031 5.39158 21.1167 5.43395 21.6295C5.44783 21.7997 5.48655 21.9699 5.48655 22.1401C5.48655 22.3878 5.26155 22.5902 5.00805 22.5945C4.75456 22.5997 4.58361 22.4294 4.55804 22.1562C4.48133 21.3468 4.43677 20.5359 4.38563 19.725C4.33523 18.9236 4.27751 18.1222 4.2198 17.3208C4.16428 16.5472 4.12483 15.7721 4.06201 14.9992C3.99407 14.1525 3.959 13.3036 3.8896 12.4576C3.82604 11.692 3.79244 10.9257 3.73619 10.1601C3.68797 9.50333 3.61419 8.84877 3.58058 8.19128C3.56963 7.97651 3.46808 7.98308 3.32416 7.99258C2.9852 8.01523 2.67618 7.94656 2.43145 7.69306C2.25612 7.51189 2.14654 7.30222 2.15165 7.04142C2.15969 6.61406 2.11001 6.1772 2.17795 5.76006C2.32041 4.88707 3.1072 4.25662 4.00722 4.22959C4.25341 4.22228 4.50033 4.22374 4.74652 4.22959C4.87436 4.23251 4.92112 4.20402 4.94742 4.05572C5.08768 3.26747 5.50628 2.69546 6.29891 2.45073C6.50638 2.38644 6.72189 2.36233 6.94105 2.36307C8.00909 2.36599 9.07714 2.36453 10.1459 2.36453C10.5251 2.36453 10.5141 2.36453 10.5309 1.99707C10.5557 1.45501 10.7639 1.00208 11.2366 0.703286C11.4711 0.554987 11.7399 0.50458 12.0139 0.503119C12.9088 0.499467 13.8037 0.497275 14.6979 0.503119C15.5884 0.508233 16.1904 1.12846 16.1728 1.98465C16.1648 2.36453 16.1714 2.36526 16.5425 2.36526C17.6288 2.36526 18.7158 2.35649 19.8021 2.36818C20.5436 2.37621 21.1551 2.64797 21.5437 3.31642C21.673 3.53923 21.7534 3.77884 21.7556 4.0338C21.7571 4.19452 21.8148 4.22666 21.9623 4.23251C22.3685 4.24858 22.7732 4.19452 23.1823 4.31287C24.0137 4.55248 24.5528 5.15883 24.5945 6.02817C24.6135 6.41608 24.6485 6.80911 24.5623 7.19629C24.4586 7.66311 24.1079 7.96628 23.6353 7.99258C23.59 7.9955 23.544 7.99258 23.4987 7.99258C23.1356 7.99258 23.1531 7.99404 23.1305 8.3447C23.0888 8.98319 23.0165 9.61948 22.9712 10.258C22.9456 10.6189 22.9573 10.9805 22.9186 11.3435C22.8397 12.088 22.7864 12.836 22.7579 13.5834C22.7469 13.8829 22.6951 14.1766 22.6907 14.4746C22.6797 15.2074 22.6125 15.935 22.5344 16.6633C22.4964 17.014 22.5132 17.3676 22.4825 17.7219C22.3999 18.6672 22.3714 19.6176 22.3035 20.5644C22.2473 21.3482 22.1917 22.1321 22.1355 22.916C22.0778 23.7181 22.0317 24.521 21.977 25.3238C21.9295 26.0251 21.8652 26.7272 21.4196 27.3196C21.3713 27.3839 21.3217 27.4482 21.2727 27.5118C21.3217 27.6031 21.4042 27.5644 21.4692 27.5651C21.9894 27.5688 22.5102 27.5673 23.0304 27.5673C23.2649 27.5673 23.4987 27.5848 23.609 27.8318C23.7105 28.0575 23.6046 28.3022 23.3496 28.4987H3.35339V28.5002ZM6.85412 4.21351C6.97246 4.21717 7.09081 4.22374 7.20916 4.22374C10.7866 4.22374 14.3648 4.22374 17.9422 4.22374C18.8181 4.22374 19.6948 4.22447 20.5707 4.22374C20.8541 4.22374 20.8863 4.17333 20.7891 3.90084C20.651 3.51439 20.3135 3.29377 19.8467 3.29377C15.6943 3.29304 11.5412 3.29304 7.38887 3.29523C7.3034 3.29523 7.20477 3.25651 7.13318 3.34344C6.96954 3.34344 6.80663 3.33687 6.64372 3.34271C6.30694 3.35367 5.93729 3.73282 5.9183 4.06741C5.91172 4.18648 5.94679 4.23324 6.06514 4.22959C6.32813 4.22155 6.59039 4.21863 6.85339 4.21351H6.85412ZM22.4708 5.218C22.3335 5.15956 22.1895 5.15664 22.0427 5.15664C16.2393 5.1581 10.4359 5.15737 4.63182 5.1581C4.53174 5.1581 4.43166 5.1654 4.33157 5.16979C3.66459 5.13691 3.34681 5.28959 3.14737 5.79878C3.00565 6.15966 3.105 6.54904 3.09405 6.92526C3.09039 7.04507 3.20217 7.02535 3.2796 7.02535C3.52506 7.02535 3.76979 7.02023 4.01525 7.01658C4.05178 7.01804 4.08831 7.02024 4.12483 7.02024C10.2234 7.02024 16.3219 7.02024 22.4204 7.02024C22.53 7.02024 22.6395 7.01512 22.7484 7.01293C23.0413 7.09548 23.3745 7.13347 23.6192 7.00562C23.7814 6.92161 23.6528 6.58484 23.6762 6.36348C23.6769 6.35472 23.6762 6.34522 23.6762 6.33645C23.6762 5.47296 23.3314 5.15298 22.4708 5.21873V5.218ZM13.3668 2.36526C13.9221 2.36526 14.478 2.36672 15.0332 2.36307C15.1048 2.36307 15.1968 2.40544 15.2414 2.2922C15.405 1.87653 15.1143 1.43601 14.6665 1.43455C13.8468 1.43236 13.0271 1.43455 12.2075 1.43455C11.607 1.43455 11.5018 1.55144 11.5076 2.15778C11.5091 2.32946 11.5624 2.37256 11.7268 2.36964C12.2732 2.36087 12.8197 2.36599 13.3661 2.36599L13.3668 2.36526Z" fill="#2E3192"/>
<path d="M1.05222 28.5C0.87981 28.3553 0.689871 28.2055 0.754889 27.9499C0.828673 27.6606 1.00546 27.5693 1.39119 27.5685C1.47301 27.5685 1.55556 27.5671 1.63738 27.5685C1.87918 27.5736 2.06328 27.6854 2.1356 27.9126C2.22692 28.1997 2.02602 28.3575 1.81855 28.5H1.05222Z" fill="#2E3192"/>
<path d="M24.8859 28.5002C24.6098 28.2766 24.5228 28.0085 24.6711 27.7784C24.8764 27.4584 25.2088 27.5928 25.4937 27.5709C25.6917 27.5556 25.8502 27.6367 25.943 27.8186C26.0716 28.0706 25.9832 28.2759 25.6522 28.5002H24.8852H24.8859Z" fill="#2E3192"/>
<path d="M5.49097 7.98923C5.56402 7.98558 5.63634 7.979 5.7094 7.979C10.8334 7.979 15.9574 7.979 21.0821 7.979C21.1456 7.979 21.2092 7.98339 21.2735 7.98631C21.2625 8.30336 21.2508 8.61895 21.2253 8.93601C21.1617 9.7206 21.1142 10.5067 21.0594 11.292C20.9849 12.3666 20.9184 13.4412 20.8388 14.5151C20.7804 15.3004 20.7263 16.0858 20.6774 16.8711C20.608 17.964 20.5291 19.0561 20.4545 20.149C20.4012 20.9343 20.3493 21.7197 20.2902 22.505C20.2178 23.462 20.1799 24.4219 20.1178 25.3797C20.079 25.9794 20.0089 26.5704 19.632 27.0796C19.5085 27.2469 19.3018 27.3441 19.2404 27.5588C18.794 27.5618 18.3477 27.5676 17.9013 27.5676C14.5299 27.5683 11.1592 27.5676 7.78777 27.5676C7.69719 27.5676 7.6066 27.5603 7.51528 27.5566C7.51309 27.4515 7.42835 27.4018 7.36625 27.3382C6.94327 26.9043 6.7285 26.3929 6.68832 25.7807C6.61672 24.6886 6.53636 23.5964 6.46769 22.5035C6.41802 21.7182 6.36396 20.9329 6.30625 20.1483C6.22662 19.0744 6.16014 17.9998 6.08562 16.9259C6.03083 16.1406 5.98189 15.3552 5.92491 14.5706C5.84601 13.4785 5.7693 12.3871 5.70209 11.2942C5.65388 10.5089 5.5874 9.72426 5.53699 8.93893C5.51654 8.62261 5.48877 8.30701 5.4917 7.98923H5.49097ZM7.30124 17.2773H7.30197C7.30197 19.3454 7.29831 21.4128 7.30416 23.481C7.30635 24.2532 8.18957 24.9267 8.93691 24.7404C9.71201 24.5476 10.0992 24.0574 10.0992 23.2596C10.0999 19.2877 10.0992 15.3158 10.1007 11.3439C10.1007 11.1327 10.0575 10.9377 9.99326 10.736C9.78506 10.0851 9.12831 9.74617 8.42042 9.86671C7.71691 9.98652 7.29466 10.6477 7.29685 11.1554C7.30635 13.1958 7.30124 15.2362 7.30124 17.2773ZM16.6601 17.2912H16.6623C16.6623 19.3491 16.6558 21.4077 16.666 23.4656C16.6696 24.1925 17.3914 24.85 18.1154 24.7755C18.8934 24.6959 19.4508 24.2028 19.4537 23.3057C19.4676 19.2987 19.4632 15.2909 19.4537 11.284C19.453 10.8391 19.2988 10.4263 18.9263 10.1407C18.4748 9.79439 17.9685 9.73667 17.4615 9.97702C16.9494 10.2196 16.6558 10.6287 16.6572 11.2255C16.6623 13.2476 16.6594 15.269 16.6594 17.2912H16.6601ZM11.9679 17.305C11.9679 19.2899 11.9774 21.2755 11.9635 23.2604C11.9569 24.1808 12.6919 24.8412 13.429 24.7733C14.2187 24.701 14.7849 24.1947 14.787 23.2611C14.7965 19.2906 14.7914 15.3202 14.7914 11.3497C14.7914 11.3132 14.7929 11.2766 14.79 11.2401C14.7432 10.6886 14.524 10.2261 14.0046 9.9909C13.5313 9.77685 13.0381 9.76078 12.5852 10.0829C12.1418 10.3993 11.9635 10.8391 11.965 11.3753C11.9701 13.3514 11.9672 15.3275 11.9672 17.3036L11.9679 17.305Z" fill="#EAEAF4"/>
<path d="M5.60044 23.9839C5.59825 24.282 5.42 24.461 5.12924 24.4559C4.8962 24.4522 4.66389 24.2119 4.66827 23.9803C4.67266 23.7633 4.91739 23.5069 5.13216 23.5354C5.38785 23.569 5.6282 23.6771 5.60044 23.9832V23.9839Z" fill="#2E3192"/>
<path d="M22.7491 7.01254C22.6395 7.01547 22.5299 7.01985 22.4211 7.01985C16.3225 7.01985 10.224 7.01985 4.1255 7.01985C4.08898 7.01985 4.05245 7.01766 4.01592 7.0162C4.00058 6.3799 3.9531 5.73849 4.33225 5.1694C4.43233 5.16502 4.53241 5.15771 4.6325 5.15771C10.4359 5.15771 16.2393 5.15771 22.0434 5.15625C22.1902 5.15625 22.3341 5.15917 22.4715 5.21762C22.5365 5.43239 22.6578 5.62306 22.703 5.85026C22.7798 6.23817 22.7286 6.62536 22.7498 7.01254H22.7491Z" fill="#A8C3E4"/>
<path d="M19.2396 27.5598C19.301 27.345 19.5077 27.2471 19.6312 27.0805C20.0081 26.5713 20.0783 25.9803 20.117 25.3806C20.1791 24.4228 20.2171 23.4629 20.2894 22.5059C20.3486 21.7206 20.4004 20.9353 20.4538 20.1499C20.5276 19.057 20.6072 17.9649 20.6766 16.872C20.7263 16.0867 20.7803 15.3006 20.838 14.516C20.9177 13.4421 20.9841 12.3668 21.0587 11.2929C21.1134 10.5076 21.1602 9.72152 21.2245 8.93692C21.2501 8.61987 21.2617 8.30355 21.2727 7.98723C21.5189 7.98577 21.7658 7.98723 22.012 7.98211C22.1428 7.97919 22.2209 8.01061 22.2093 8.16402C22.153 8.86679 22.1019 9.5703 22.0471 10.2731C22.0252 10.5521 22.0032 10.8349 21.9952 11.1117C21.9653 12.0994 21.8506 13.0805 21.8089 14.0668C21.7753 14.8608 21.6993 15.6542 21.646 16.4483C21.5744 17.5127 21.5028 18.5778 21.4283 19.6422C21.3721 20.4451 21.3224 21.2487 21.2654 22.0515C21.2084 22.8631 21.1492 23.6748 21.0945 24.4864C21.0579 25.0343 21.0535 25.5873 20.9483 26.1316C20.8227 26.7788 20.2478 27.3757 19.5866 27.5108C19.4741 27.5335 19.3631 27.5999 19.2404 27.5612L19.2396 27.5598Z" fill="#A8C3E4"/>
<path d="M7.1339 3.34418C7.20476 3.25651 7.30338 3.29596 7.38959 3.29596C11.542 3.29377 15.6951 3.29377 19.8474 3.2945C20.3135 3.2945 20.651 3.51512 20.7898 3.90158C20.887 4.17334 20.8548 4.22374 20.5714 4.22447C19.6955 4.22593 18.8188 4.22447 17.9429 4.22447C14.3655 4.22447 10.7873 4.22447 7.20987 4.22447C7.09153 4.22447 6.97318 4.2179 6.85483 4.21424C6.82488 3.88477 6.99217 3.61886 7.13463 3.34491L7.1339 3.34418Z" fill="#7DA6D7"/>
<path d="M22.7492 7.01256C22.728 6.6261 22.7791 6.23819 22.7024 5.85027C22.6571 5.62308 22.5358 5.43241 22.4708 5.21763C23.3314 5.15261 23.6762 5.47186 23.6762 6.33608C23.6762 6.34485 23.6769 6.35434 23.6762 6.36311C23.6528 6.58519 23.7814 6.92124 23.6192 7.00525C23.3745 7.13236 23.0414 7.09438 22.7484 7.01256H22.7492Z" fill="#7DA6D7"/>
<path d="M7.30114 17.2769C7.30114 15.2365 7.30699 13.1954 7.29676 11.155C7.29457 10.6473 7.71609 9.98615 8.42033 9.86634C9.12895 9.74581 9.78497 10.0848 9.99317 10.7357C10.0575 10.9373 10.1006 11.1331 10.1006 11.3435C10.0991 15.3154 10.0998 19.2873 10.0991 23.2593C10.0991 24.057 9.71118 24.5472 8.93682 24.7401C8.18948 24.9264 7.30626 24.2528 7.30407 23.4806C7.29822 21.4125 7.30188 19.3451 7.30188 17.2769H7.30114ZM9.16328 17.309C9.16328 16.2249 9.16328 15.1415 9.16328 14.0574C9.16328 13.1282 9.1662 12.1997 9.16182 11.2704C9.16036 10.9227 8.90905 10.7167 8.59127 10.7861C8.36334 10.8358 8.23185 11.0403 8.23112 11.3588C8.23112 15.33 8.23112 19.3012 8.23112 23.2724C8.23112 23.3272 8.22308 23.3849 8.23769 23.4353C8.2954 23.6413 8.39476 23.7969 8.64606 23.7999C9.0106 23.8042 9.16182 23.6589 9.16255 23.2666C9.16401 21.281 9.16255 19.2954 9.16255 17.3098L9.16328 17.309Z" fill="#2E3192"/>
<path d="M16.66 17.2907C16.66 15.2686 16.6637 13.2472 16.6578 11.225C16.6564 10.6282 16.9501 10.2191 17.4622 9.97655C17.9692 9.7362 18.4754 9.79392 18.9269 10.1402C19.2995 10.4258 19.4536 10.8386 19.4543 11.2835C19.4631 15.2905 19.4675 19.2982 19.4543 23.3052C19.4514 24.2023 18.894 24.6954 18.116 24.775C17.392 24.8495 16.6703 24.1921 16.6666 23.4652C16.6564 21.4073 16.663 19.3486 16.663 17.2907H16.6608H16.66ZM17.5959 17.2812C17.5959 19.239 17.5959 21.1976 17.5959 23.1554C17.5959 23.2372 17.5907 23.3198 17.5988 23.4009C17.6214 23.6288 17.8435 23.8516 18.0415 23.8494C18.2753 23.8472 18.4959 23.6478 18.5244 23.4075C18.5331 23.3359 18.5273 23.2621 18.5273 23.189C18.5273 21.8682 18.5273 20.5481 18.5273 19.2273C18.5273 16.6588 18.5273 14.0909 18.5273 11.5224C18.5273 11.4493 18.5287 11.3763 18.5273 11.3039C18.5171 10.981 18.3359 10.7794 18.0583 10.7801C17.7624 10.7801 17.5966 10.9606 17.5966 11.2974C17.5951 13.2917 17.5959 15.2868 17.5959 17.2812Z" fill="#2E3192"/>
<path d="M11.9678 17.3047C11.9678 15.3286 11.9707 13.3525 11.9656 11.3764C11.9642 10.8402 12.1424 10.3996 12.5858 10.0841C13.038 9.76189 13.5319 9.77796 14.0053 9.99201C14.5247 10.2265 14.7438 10.6897 14.7906 11.2412C14.7935 11.2778 14.7921 11.3143 14.7921 11.3508C14.7921 15.3213 14.7979 19.2917 14.7877 23.2622C14.7855 24.1958 14.2186 24.7021 13.4296 24.7744C12.6925 24.8424 11.9576 24.1819 11.9642 23.2615C11.9773 21.2766 11.9685 19.291 11.9685 17.3061L11.9678 17.3047ZM13.8657 17.2901C13.8657 15.349 13.8657 13.408 13.8657 11.4677C13.8657 11.3946 13.8701 11.3216 13.8643 11.2493C13.8416 10.9812 13.6378 10.7839 13.385 10.781C13.1316 10.7781 12.9219 10.9724 12.8956 11.239C12.8883 11.3114 12.8934 11.3844 12.8934 11.4575C12.8934 15.3483 12.8934 19.2391 12.8934 23.13C12.8934 23.2118 12.8868 23.2951 12.8978 23.3754C12.954 23.7728 13.3529 23.9621 13.6627 23.7334C13.8402 23.6019 13.8672 23.4039 13.8665 23.195C13.8643 21.2269 13.865 19.2589 13.865 17.2901H13.8657Z" fill="#2E3192"/>
<path d="M9.16337 17.309C9.16337 19.2946 9.16337 21.2802 9.16337 23.2658C9.16337 23.6581 9.01215 23.8035 8.64689 23.7991C8.39558 23.7962 8.29623 23.6406 8.23852 23.4346C8.22391 23.3834 8.23194 23.3257 8.23194 23.2717C8.23194 19.3005 8.23194 15.3293 8.23194 11.3581C8.23194 11.0396 8.36344 10.835 8.5921 10.7853C8.90988 10.7159 9.16118 10.9227 9.16264 11.2697C9.16703 12.1989 9.16411 13.1274 9.16411 14.0567C9.16411 15.1408 9.16411 16.2242 9.16411 17.3083L9.16337 17.309Z" fill="#7DA6D7"/>
<path d="M17.596 17.2813C17.596 15.287 17.5952 13.2919 17.5967 11.2975C17.5967 10.9607 17.7625 10.781 18.0584 10.7803C18.336 10.7803 18.5172 10.9812 18.5274 11.3041C18.5296 11.3771 18.5274 11.4494 18.5274 11.5225C18.5274 14.0911 18.5274 16.6589 18.5274 19.2275C18.5274 20.5483 18.5274 21.8684 18.5274 23.1892C18.5274 23.2622 18.5325 23.336 18.5245 23.4076C18.496 23.6479 18.2754 23.8466 18.0416 23.8496C17.8436 23.8518 17.6208 23.629 17.5989 23.401C17.5909 23.3199 17.596 23.2374 17.596 23.1556C17.596 21.1977 17.596 19.2392 17.596 17.2813Z" fill="#7DA6D7"/>
<path d="M13.8658 17.2899C13.8658 19.2579 13.8651 21.226 13.8672 23.1948C13.8672 23.4037 13.8409 23.6017 13.6634 23.7332C13.3537 23.9618 12.9541 23.7734 12.8986 23.3752C12.8876 23.2949 12.8942 23.2116 12.8942 23.1298C12.8942 19.2389 12.8942 15.3481 12.8942 11.4573C12.8942 11.3842 12.8891 11.3111 12.8964 11.2388C12.9219 10.9729 13.1323 10.7786 13.3858 10.7808C13.6386 10.7837 13.8424 10.9809 13.8651 11.2491C13.8709 11.3214 13.8665 11.3944 13.8665 11.4675C13.8665 13.4085 13.8665 15.3496 13.8665 17.2899H13.8658Z" fill="#7DA6D7"/>
</g>
<defs>
<clipPath id="clip0_1292_4591">
<rect width="25.2583" height="28" fill="white" transform="translate(0.741699 0.5)"/>
</clipPath>
</defs>
</svg>
