<svg width="64" height="64" viewBox="0 0 64 64" fill="none" xmlns="http://www.w3.org/2000/svg">
<g clip-path="url(#clip0_68_930)">
<path d="M63.9999 63.3516C63.5271 63.9021 62.9192 63.9882 62.2201 63.9882C42.0283 63.973 21.8364 63.9662 1.64455 63.9949C-0.0457009 63.9966 -0.172343 63.257 0.124844 61.8319C0.465934 60.2007 1.39127 58.9343 2.91942 58.1778C3.16257 58.0563 3.14738 57.8823 3.15751 57.6696C3.18284 57.1782 3.05957 56.6801 3.26895 56.1955C3.50535 55.6501 3.95789 55.3478 4.47797 55.4863C5.00817 55.6264 5.31718 55.927 5.28679 56.5534C5.23951 57.5885 5.27159 57.5902 6.33032 57.5902C7.11269 57.5902 7.50387 57.199 7.50387 56.4167C7.50387 44.8635 7.50387 33.3103 7.50387 21.7572C7.50387 20.7136 7.83821 20.2273 8.54572 20.2375C9.26336 20.2476 9.63315 20.7778 9.63315 21.8044C9.63315 33.4404 9.63315 45.0763 9.63484 56.7138C9.63484 57.7337 9.49976 57.5767 10.5399 57.5902C11.347 57.6003 12.1525 57.5514 12.9495 57.7523C15.0737 58.2842 16.3807 59.6165 16.9126 61.7289C16.9024 61.8083 16.9379 61.8437 17.0172 61.8336C20.1816 61.8386 23.3443 61.842 26.5087 61.8538C26.8227 61.8538 26.9494 61.7829 27.0406 61.43C27.4289 59.9052 27.868 58.394 28.3205 56.8878C28.4201 56.5568 28.3357 56.5028 28.0385 56.4656C25.6239 56.1532 23.5182 53.9277 23.5098 51.5029C23.4963 47.7982 23.5351 44.0918 23.4845 40.3888C23.4642 38.9451 24.918 37.3139 26.5391 37.3443C27.434 37.3595 28.3306 37.3038 29.2239 37.3561C29.8048 37.3916 29.8993 37.1788 29.8959 36.6537C29.8774 33.1567 29.8622 29.6597 29.9094 26.1643C29.9365 24.1127 31.7804 21.9378 33.9519 21.4921C34.5885 21.362 35.2234 21.3502 35.865 21.3502C41.2769 21.3502 46.6887 21.3502 52.1006 21.3502C54.088 21.3502 55.6601 22.1658 56.7492 23.8206C57.3503 24.7324 57.6171 25.7726 57.6154 26.8769C57.6104 30.124 57.6323 33.3711 57.5968 36.6182C57.5901 37.243 57.7775 37.395 58.3651 37.3561C59.152 37.3038 59.9456 37.3342 60.7376 37.346C62.129 37.3646 63.1252 38.0062 63.7179 39.2727C63.8108 39.4719 63.8158 39.7134 63.9982 39.8687V52.2375C63.8479 52.3033 63.8023 52.4519 63.7652 52.5819C63.1286 54.8193 61.5971 56.0502 59.3648 56.4724C59.0727 56.5281 58.9967 56.5349 59.0963 56.8692C59.5455 58.3703 59.9642 59.8799 60.3627 61.3946C60.464 61.7829 60.6633 61.8758 61.0213 61.8589C61.5177 61.837 62.0209 61.8876 62.5139 61.8454C63.186 61.7863 63.6554 62.0531 63.9948 62.6069V63.3567L63.9999 63.3516ZM2.52767 61.8251C3.19297 61.8218 3.85657 61.8167 4.52187 61.8133C7.89056 61.8167 11.2576 61.8218 14.6262 61.8218C14.6482 61.8218 14.6718 61.7643 14.7073 61.7171C14.1737 60.4827 13.223 59.7718 11.8891 59.7381C9.76993 59.6857 7.6474 59.733 5.52656 59.7381C4.00179 59.6992 2.95657 60.3679 2.42636 61.7272C2.40778 61.815 2.45506 61.8353 2.52936 61.8251H2.52767ZM32.9877 61.5533C32.8948 61.6563 32.7564 61.7643 33.0164 61.8302C34.3909 61.8353 35.7637 61.8471 37.1382 61.8454C42.9249 61.842 48.7133 61.8353 54.5 61.8302C54.7297 61.761 54.6132 61.6698 54.5152 61.5786C53.6304 60.0217 52.7422 58.4666 51.8642 56.9063C51.7105 56.6328 51.5484 56.4859 51.1938 56.4876C46.2176 56.5028 41.2414 56.4994 36.2652 56.4926C35.9917 56.4926 35.7992 56.5484 35.6539 56.8067C34.7641 58.3872 33.8033 59.9289 32.9877 61.5516V61.5533ZM46.3139 41.5607C48.7707 41.7481 51.1769 41.1233 53.3535 42.6549C53.3535 41.8494 53.3569 41.1689 53.3535 40.4901C53.345 39.222 53.9428 38.3051 55.0269 37.7141C55.373 37.525 55.4844 37.3207 55.4828 36.9407C55.4693 33.5687 55.4811 30.1983 55.4726 26.8262C55.4676 24.881 54.142 23.5133 52.1985 23.4981C48.5985 23.4711 44.9968 23.4812 41.3968 23.4778C39.2945 23.4778 37.1922 23.4778 35.09 23.4812C33.5466 23.4812 32.0117 24.8135 32.0134 26.5831C32.0168 30.0379 32.0202 33.4927 32.0066 36.9475C32.0066 37.3241 32.1012 37.5368 32.4541 37.7209C33.3271 38.1751 33.8404 38.8927 34.038 39.894C34.2119 40.7738 34.0447 41.6569 34.19 42.6059C36.3192 41.0642 38.739 41.7886 41.0979 41.5539C40.9256 41.3648 40.7956 41.2128 40.6555 41.071C40.0256 40.4361 39.3857 39.8096 38.7626 39.168C38.4451 38.8404 38.2374 38.4824 38.5009 38.0012C38.9146 37.243 39.666 37.0978 40.2992 37.7158C41.0506 38.452 41.7682 39.222 42.5281 40.0055C42.7172 39.7066 42.653 39.4972 42.6547 39.3014C42.6615 37.991 42.6514 36.679 42.6615 35.367C42.6666 34.6409 43.1258 34.1124 43.7033 34.1259C44.3821 34.1411 44.7823 34.5886 44.7857 35.3687C44.7925 36.7415 44.7857 38.116 44.7925 39.4888C44.7925 39.6374 44.7047 39.8231 45.017 40.0038C45.7701 39.2152 46.5452 38.4081 47.3169 37.5942C47.6225 37.2717 47.994 37.3004 48.357 37.4135C48.7471 37.5351 48.948 37.8424 49.0071 38.246C49.0747 38.7002 48.8906 39.043 48.5681 39.352C47.8386 40.0494 47.1261 40.762 46.3155 41.5607H46.3139ZM32.0134 47.3828C32.0134 45.24 32.0151 43.0973 32.0134 40.9545C32.0134 39.8198 31.7027 39.4888 30.6034 39.477C29.3353 39.4635 28.0655 39.4635 26.7957 39.4736C26.019 39.4804 25.634 39.8518 25.634 40.6184C25.6289 44.2168 25.6391 47.8168 25.634 51.4151C25.6323 52.8116 26.9359 54.0729 28.1736 54.3414C29.2256 54.5694 30.2961 54.3262 31.3498 54.4799C31.8716 54.5559 32.0303 54.3296 32.0252 53.8112C32.0016 51.6684 32.0151 49.5256 32.0151 47.3828H32.0134ZM55.4861 47.2984C55.4861 47.2984 55.4946 47.2984 55.4996 47.2984C55.4996 49.4817 55.5182 51.665 55.4861 53.8484C55.4777 54.3819 55.6381 54.5288 56.1497 54.4883C57.1173 54.4123 58.0899 54.3887 59.0591 54.3397C59.1605 54.3347 59.2618 54.3043 59.3614 54.2789C61.0567 53.8517 61.8048 52.6664 61.8487 50.9406C61.8976 49.0917 61.8588 47.2393 61.8588 45.3886C61.8588 43.8284 61.8655 42.2699 61.8554 40.7096C61.8503 39.8653 61.4687 39.4905 60.6363 39.4854C59.3259 39.477 58.0173 39.4719 56.707 39.482C55.812 39.4905 55.4878 39.8316 55.4861 40.7468C55.4811 42.9301 55.4861 45.1134 55.4861 47.2967V47.2984ZM43.7641 50.1149C40.7889 50.1149 37.8153 50.1335 34.8401 50.0997C34.2457 50.093 34.1106 50.2787 34.1325 50.8326C34.1748 51.8288 34.1579 52.8301 34.1376 53.8281C34.1292 54.208 34.2035 54.3786 34.6425 54.3769C40.696 54.3634 46.7495 54.3651 52.803 54.3752C53.1931 54.3752 53.2994 54.2418 53.2927 53.8703C53.2741 52.8099 53.2606 51.7478 53.2978 50.6874C53.3146 50.1994 53.1357 50.1031 52.6882 50.1065C49.7129 50.1251 46.7394 50.1149 43.7641 50.1149ZM43.7118 47.9536C45.3564 47.9536 47.0011 47.9536 48.6458 47.9536C50.0203 47.9536 51.3931 47.9553 52.7676 47.9502C52.9567 47.9502 53.2302 48.0312 53.2167 47.6918C53.1948 47.1127 53.3146 46.5267 53.1407 45.956C52.7507 44.6778 51.545 43.7676 50.1925 43.7659C46.0285 43.7575 41.8645 43.8233 37.7022 43.7355C35.7029 43.6933 34.0228 45.2232 34.1596 47.3406C34.19 47.8151 34.2778 47.9705 34.781 47.9671C37.7579 47.9418 40.7348 47.9553 43.7118 47.9553V47.9536ZM32.059 56.4977C31.6588 56.4977 31.3245 56.5078 30.9918 56.4943C30.7706 56.4859 30.6153 56.5855 30.5612 56.778C30.107 58.3737 29.6646 59.9728 29.2138 61.5702C29.185 61.6698 29.1259 61.7491 29.2593 61.8251C29.543 61.9872 30.3383 61.7795 30.5089 61.4857C31.2333 60.2328 31.9678 58.985 32.6736 57.7219C32.8796 57.3555 33.3507 56.9384 33.1667 56.6058C33.0063 56.317 32.3984 56.5365 32.0573 56.4977H32.059ZM54.1015 56.4977C54.473 57.1529 54.7753 57.6898 55.0826 58.2251C55.7175 59.3345 56.3608 60.4388 56.9839 61.555C57.2676 62.0632 57.7522 61.8893 58.0899 61.8015C58.4985 61.6968 58.1169 61.3422 58.0663 61.1463C57.6999 59.7229 57.2625 58.3163 56.8927 56.8928C56.81 56.5754 56.6952 56.4893 56.4013 56.4926C55.6769 56.5045 54.9526 56.496 54.1015 56.496V56.4977Z" fill="#2E3192"/>
<path d="M17.146 0.00506592C17.9261 0.408633 18.8177 0.457601 19.6164 0.852726C22.1391 2.10226 23.6909 4.0762 24.2549 6.81843C24.3663 7.36214 24.547 7.68973 25.0958 7.93626C25.9975 8.34151 26.4652 9.15709 26.6476 10.1246C26.7421 10.6261 26.8147 11.1327 26.9076 11.6359C27.0157 12.2185 27.5948 12.3755 27.9545 12.7149C28.9018 13.6048 29.9217 14.417 30.9281 15.2444C31.7622 15.9299 32.2215 16.7523 31.8787 17.8431C31.568 18.8359 30.7373 19.2007 29.8086 19.3645C27.8887 19.7022 25.9603 19.9977 24.0404 20.3388C22.7689 20.565 21.4941 20.7913 20.2158 20.9855C18.5424 21.2405 17.379 20.1767 17.5394 18.5489C17.6053 17.8903 18.0578 17.3905 18.3668 16.8384C18.9984 15.7053 19.6434 14.5757 20.3475 13.4866C20.8254 12.7504 20.535 12.0192 20.3509 11.364C19.9879 10.0706 20.9048 8.4766 21.8419 7.97678C22.1948 7.78766 22.2556 7.6205 22.1762 7.21355C21.6545 4.57095 19.7076 2.66624 17.0937 2.28969C13.2302 1.73416 10.5724 3.79083 9.68423 7.36383C9.56772 7.83157 9.59812 8.36178 9.62176 8.87341C9.67748 10.0993 9.64371 11.3286 9.63527 12.5562C9.6302 13.2924 9.10843 13.8868 8.50899 13.8699C7.96865 13.8547 7.51105 13.2823 7.51105 12.5883C7.51105 11.0061 7.49585 9.42388 7.53131 7.84339C7.57522 5.92855 8.37391 4.30753 9.60994 2.88914C10.9608 1.34072 12.6713 0.425519 14.6976 0.0945599C14.7263 0.0894942 14.7482 0.0354601 14.7719 0.00506592C15.5638 0.00506592 16.3541 0.00506592 17.146 0.00506592ZM21.8909 18.4813C23.1607 18.3783 24.395 18.066 25.6496 17.8735C27.0157 17.6624 28.3783 17.426 29.7376 17.2014C29.7258 16.9414 29.5553 16.8671 29.4354 16.7675C28.5185 15.9924 27.5374 15.2798 26.6898 14.4355C26.0397 13.7905 25.4098 13.4393 24.5132 13.7736C24.2515 13.8091 23.9712 13.7973 23.7331 13.8918C23.2519 14.0826 22.6001 13.8209 22.2691 14.3781C21.3978 15.8489 20.5502 17.3348 19.6299 18.9238C20.4539 18.7633 21.1715 18.6232 21.8909 18.4813ZM23.4697 9.62651C22.8821 9.60456 22.6068 9.99631 22.4498 10.4117C22.2691 10.8896 22.5308 11.3607 22.6929 11.8149C22.7064 11.8554 22.8466 11.8791 22.9192 11.8655C23.4393 11.7761 23.9594 11.6781 24.4761 11.5717C24.5487 11.5565 24.6382 11.4958 24.6703 11.4316C25.0046 10.746 24.2262 9.61469 23.4697 9.62651Z" fill="#2E3192"/>
<path d="M9.52564 17.0848C9.51382 17.6572 9.01231 18.1536 8.48042 18.1199C8.01437 18.0895 7.34739 17.4326 7.41831 17.0139C7.50442 16.509 7.91812 15.9078 8.58679 15.9855C9.24871 16.0632 9.54083 16.3519 9.52564 17.0865V17.0848Z" fill="#2E3192"/>
<path d="M17.0224 61.8302C16.943 61.8403 16.9076 61.8065 16.9177 61.7255C16.9532 61.761 16.9869 61.7947 17.0224 61.8302Z" fill="#D7E3F3"/>
<path d="M46.3158 41.5607C47.1263 40.7637 47.8388 40.0494 48.5683 39.352C48.8908 39.043 49.0749 38.7019 49.0073 38.246C48.9482 37.8424 48.7473 37.5351 48.3572 37.4135C47.9959 37.3021 47.6227 37.2734 47.3171 37.5942C46.5471 38.4081 45.7704 39.2169 45.0173 40.0038C44.7049 39.8231 44.7944 39.6374 44.7927 39.4888C44.7842 38.116 44.7927 36.7415 44.7859 35.3687C44.7825 34.5886 44.3824 34.1428 43.7035 34.1259C43.1261 34.1124 42.6668 34.6409 42.6617 35.367C42.6516 36.6773 42.6617 37.9893 42.6549 39.3014C42.6549 39.4972 42.7174 39.7083 42.5283 40.0055C41.7685 39.222 41.0525 38.452 40.2994 37.7158C39.6679 37.0978 38.9165 37.243 38.5011 38.0012C38.2377 38.4841 38.4454 38.8421 38.7628 39.168C39.3859 39.8096 40.0259 40.4361 40.6557 41.071C40.7958 41.2128 40.9242 41.3648 41.0981 41.5539C38.7392 41.7903 36.3178 41.0642 34.1902 42.6059C34.045 41.6569 34.2121 40.7721 34.0382 39.894C33.8406 38.8927 33.3273 38.1768 32.4543 37.7209C32.0997 37.5368 32.0052 37.3241 32.0069 36.9475C32.0204 33.4927 32.0187 30.0379 32.0136 26.5831C32.0119 24.8135 33.5468 23.4829 35.0902 23.4812C37.1924 23.4795 39.2947 23.4761 41.397 23.4778C44.997 23.4812 48.5987 23.4711 52.1987 23.4981C54.1423 23.5133 55.4678 24.881 55.4728 26.8262C55.4813 30.1983 55.4695 33.5704 55.483 36.9407C55.483 37.3207 55.3732 37.525 55.0271 37.7141C53.943 38.3051 53.3453 39.222 53.3537 40.4901C53.3588 41.1689 53.3537 41.8477 53.3537 42.6549C51.1771 41.1233 48.7692 41.7464 46.3141 41.5607H46.3158Z" fill="#D7E3F3"/>
<path d="M32.0151 47.3828C32.0151 49.5256 32.0016 51.6684 32.0253 53.8112C32.0303 54.3296 31.8716 54.5559 31.3498 54.4799C30.2962 54.3262 29.2256 54.5694 28.1736 54.3414C26.9376 54.0729 25.6323 52.8133 25.634 51.4151C25.6391 47.8168 25.629 44.2168 25.634 40.6184C25.634 39.8518 26.019 39.4804 26.7958 39.4736C28.0656 39.4635 29.3337 39.4652 30.6035 39.477C31.701 39.4888 32.0117 39.8198 32.0134 40.9545C32.0168 43.0973 32.0134 45.2401 32.0134 47.3828H32.0151Z" fill="#D7E3F3"/>
<path d="M55.4859 47.2983C55.4859 45.115 55.4825 42.9316 55.4859 40.7483C55.4876 39.8331 55.8118 39.492 56.7067 39.4836C58.017 39.4718 59.3257 39.4785 60.636 39.487C61.4702 39.492 61.8501 39.8669 61.8551 40.7112C61.8653 42.2714 61.8585 43.83 61.8585 45.3902C61.8585 47.2409 61.8957 49.0915 61.8484 50.9422C61.8028 52.6679 61.0564 53.8516 59.3611 54.2805C59.2615 54.3058 59.1602 54.3362 59.0589 54.3413C58.0896 54.3902 57.117 54.4156 56.1495 54.4899C55.6395 54.5304 55.4791 54.3818 55.4859 53.8499C55.518 51.6666 55.4994 49.4833 55.4994 47.3C55.4943 47.3 55.4909 47.3 55.4859 47.3V47.2983Z" fill="#D7E3F3"/>
<path d="M43.7659 50.1149C46.7412 50.1149 49.7148 50.1234 52.69 50.1065C53.1375 50.1031 53.3165 50.1993 53.2996 50.6873C53.2624 51.7478 53.2759 52.8082 53.2945 53.8703C53.3013 54.2418 53.1949 54.3752 52.8048 54.3752C46.7513 54.365 40.6978 54.3633 34.6443 54.3769C34.2053 54.3769 34.1327 54.208 34.1394 53.8281C34.1597 52.8301 34.1766 51.8305 34.1344 50.8326C34.1107 50.2804 34.2458 50.093 34.8419 50.0997C37.8154 50.1335 40.7907 50.1149 43.7659 50.1149Z" fill="#D7E3F3"/>
<path d="M43.7124 47.9537C40.7354 47.9537 37.7585 47.9418 34.7815 47.9655C34.28 47.9689 34.1905 47.8152 34.1602 47.339C34.0234 45.2216 35.7018 43.6917 37.7028 43.7339C41.8651 43.8234 46.0291 43.7559 50.1931 43.7643C51.5456 43.7677 52.7513 44.6762 53.1413 45.9544C53.3152 46.5251 53.1954 47.1111 53.2173 47.6903C53.2308 48.0297 52.9573 47.9486 52.7681 47.9486C51.3937 47.9537 50.0208 47.952 48.6464 47.952C47.0017 47.952 45.357 47.952 43.7124 47.952V47.9537Z" fill="#D7E3F3"/>
<path d="M5.52496 59.7364C7.6458 59.7313 9.76833 59.6857 11.8875 59.7364C13.2214 59.7701 14.1721 60.481 14.7057 61.7154C14.6702 61.7626 14.6483 61.82 14.6246 61.82C11.256 61.82 7.88895 61.8167 4.52027 61.8116C4.49663 61.5533 4.58274 61.3219 4.71107 61.1058C4.98124 60.6482 5.2531 60.1923 5.52327 59.7364H5.52496Z" fill="#D7E3F3"/>
<path d="M32.0604 56.4979C32.4014 56.5367 33.0093 56.3172 33.1697 56.606C33.3538 56.9386 32.881 57.3557 32.6767 57.7221C31.9692 58.9852 31.2363 60.233 30.5119 61.4859C30.3414 61.7797 29.5478 61.9874 29.2624 61.8253C29.129 61.7493 29.1881 61.6683 29.2168 61.5703C29.666 59.973 30.1084 58.3739 30.5643 56.7782C30.6183 56.5857 30.7737 56.4861 30.9949 56.4945C31.3275 56.5063 31.6602 56.4979 32.062 56.4979H32.0604Z" fill="#D7E3F3"/>
<path d="M54.1016 56.496C54.9526 56.496 55.677 56.5028 56.4014 56.4926C56.6952 56.4876 56.8117 56.5754 56.8928 56.8928C57.2626 58.3163 57.6982 59.7229 58.0663 61.1463C58.117 61.3439 58.4986 61.6968 58.09 61.8015C57.7522 61.8876 57.2676 62.0632 56.9839 61.555C56.3609 60.4388 55.7158 59.3345 55.0826 58.2251C54.777 57.6898 54.4747 57.1529 54.1016 56.4977V56.496Z" fill="#D7E3F3"/>
<path d="M32.9882 61.5534C32.9983 61.6463 33.0085 61.7392 33.0169 61.8303C32.7569 61.7645 32.8953 61.6564 32.9882 61.5534Z" fill="#D7E3F3"/>
<path d="M54.5002 61.8302C54.5053 61.7458 54.5104 61.663 54.5154 61.5786C54.6134 61.6681 54.7299 61.7593 54.5002 61.8302Z" fill="#D7E3F3"/>
<path d="M2.4247 61.7255C2.45847 61.7576 2.49393 61.7914 2.5277 61.8234C2.45341 61.8336 2.40613 61.8133 2.4247 61.7255Z" fill="#D7E3F3"/>
<path d="M24.5149 13.7722C25.4115 13.4395 26.0431 13.789 26.6915 14.4341C27.5408 15.2784 28.5202 15.9909 29.4371 16.766C29.5553 16.8656 29.7275 16.9399 29.7393 17.2C28.38 17.4245 27.0174 17.6592 25.6513 17.872C24.3967 18.0662 23.1607 18.3769 21.8926 18.4799C22.0597 18.1726 22.2252 17.8652 22.3941 17.5596C23.0948 16.2932 23.9205 15.0977 24.5149 13.7722Z" fill="#D7E3F3"/>
</g>
<defs>
<clipPath id="clip0_68_930">
<rect width="64" height="63.9899" fill="white" transform="translate(0 0.00506592)"/>
</clipPath>
</defs>
</svg>
