<svg width="65" height="64" viewBox="0 0 65 64" fill="none" xmlns="http://www.w3.org/2000/svg">
<g clip-path="url(#clip0_68_949)">
<path d="M0.513385 59.245V36.55C0.893385 35.4967 1.53172 34.6583 2.61172 34.27C2.97505 34.14 3.13005 33.9183 3.28005 33.6167C5.10672 29.9583 6.93672 26.3 8.77839 22.6483C8.96339 22.2817 9.03839 21.9217 9.03672 21.5167C9.02672 19.1067 9.03172 16.6967 9.03172 14.2867C9.03172 14.0167 9.02005 13.7467 9.11505 13.485C9.25172 13.1067 9.46839 12.8633 9.91505 12.8517C10.8034 12.83 11.1567 13.1483 11.1601 14.0667C11.1684 15.9567 11.1634 17.8483 11.1634 19.7383C11.1634 20.8494 11.7201 21.3717 12.8334 21.305C12.8951 21.3017 12.9584 21.3017 13.0201 21.2983C13.1667 21.29 13.2367 21.2183 13.2534 21.0683C13.2901 20.7417 13.3417 20.4183 13.3884 20.0933C14.2867 17.9317 15.8934 16.9817 18.2484 17.03C21.8267 17.105 25.4084 17.05 28.9884 17.05C30.2134 17.05 31.3301 17.3517 32.2217 18.2383C32.4334 18.45 32.5651 18.45 32.7751 18.2383C33.5917 17.4117 34.6084 17.0567 35.7534 17.055C39.6251 17.05 43.4967 17.0367 47.3684 17.06C49.4034 17.0717 50.8384 18.195 51.5084 20.1067C51.6434 20.4933 51.3784 21.0783 51.8817 21.2483C52.2751 21.3817 52.7467 21.2867 53.1834 21.2933C53.2034 21.2933 53.2251 21.2917 53.2451 21.2933C53.6701 21.3483 53.8417 21.1867 53.8267 20.7383C53.7984 19.8467 53.8184 18.9517 53.8184 18.0583C53.8184 13.925 53.8201 9.78999 53.8167 5.65665C53.8167 4.66499 53.4401 4.29332 52.4667 4.28166C51.8834 4.27332 51.3017 4.26666 50.7184 4.26666C38.5617 4.26666 26.4067 4.26666 14.2501 4.26666C14.0001 4.26666 13.7517 4.27999 13.5017 4.28666C13.1267 4.27999 12.7534 4.25832 12.3784 4.26999C11.6067 4.29499 11.2084 4.67499 11.1367 5.43166C11.0817 6.00332 10.6834 6.37499 10.1134 6.38499C9.38172 6.39832 8.85672 5.66332 9.02005 4.85499C9.34339 3.25166 10.6567 2.14666 12.3134 2.14666C25.7401 2.13999 39.1651 2.13999 52.5917 2.15166C53.2267 2.15166 53.8584 2.27832 54.4217 2.62499C55.5651 3.32832 55.9601 4.41332 55.9634 5.67499C55.9734 10.9717 55.9701 16.2683 55.9634 21.5667C55.9634 21.9517 56.0401 22.2917 56.2151 22.6367C57.9634 26.1017 59.7051 29.5717 61.4301 33.0483C61.7467 33.6867 62.0484 34.2233 62.8117 34.4983C63.5384 34.76 64.0434 35.3917 64.2501 36.1933C64.2934 36.3633 64.4051 36.5167 64.4867 36.6783V59.2483C64.4151 59.345 64.3201 59.4333 64.2734 59.5417C63.6017 61.11 62.6734 61.7333 60.9884 61.7367C60.0717 61.7367 59.1501 61.6683 58.2417 61.7517C56.5184 61.9067 54.7084 60.1567 54.8701 58.4167C54.9367 57.695 54.8867 56.9633 54.8801 56.235C54.8701 55.2467 55.0051 55.3617 54.0301 55.3617C39.6834 55.3583 25.3351 55.36 10.9884 55.36C10.8634 55.36 10.7367 55.3733 10.6134 55.3583C10.2401 55.3133 10.0984 55.4533 10.1101 55.8433C10.1351 56.695 10.1367 57.5483 10.1134 58.3983C10.0601 60.3883 8.69172 61.7417 6.74005 61.7367C5.76172 61.7333 4.78172 61.745 3.80339 61.7317C3.49839 61.7283 3.20005 61.7383 2.88672 61.6417C1.65839 61.26 0.931719 60.4133 0.511719 59.2483L0.513385 59.245ZM4.88172 59.5817C5.50505 59.575 6.12839 59.58 6.75172 59.56C7.51672 59.5367 7.86672 59.2 7.88172 58.4583C7.89839 57.6083 7.87672 56.7583 7.89172 55.9083C7.89839 55.5317 7.75005 55.3983 7.37505 55.405C6.50339 55.4217 5.63005 55.405 4.75839 55.4033C4.20005 55.3883 3.64005 55.3867 3.08172 55.3517C2.70672 55.3283 2.63172 55.5017 2.63839 55.8317C2.65505 56.7433 2.65672 57.6567 2.64005 58.5683C2.63505 58.8417 2.74172 59.03 2.90839 59.225C3.47339 59.8833 4.20839 59.5533 4.88172 59.58V59.5817ZM9.00172 30.9083C8.46505 30.8933 7.92839 30.8883 7.39172 30.8617C7.12339 30.8483 6.98172 30.97 6.87005 31.2017C6.47339 32.0183 6.06505 32.83 5.64672 33.6367C5.49005 33.9383 5.50172 34.0817 5.89672 34.0633C6.43339 34.0383 6.97172 34.045 7.51005 34.0367C7.63505 34.0433 7.75839 34.0567 7.88339 34.0567C24.3317 34.0567 40.7784 34.0567 57.2267 34.0567C57.9617 34.0567 58.6967 34.0567 59.5384 34.0567C59.0467 33.0683 58.6034 32.2267 58.2084 31.3617C58.0334 30.9783 57.7917 30.8633 57.3867 30.87C56.3467 30.89 55.3051 30.86 54.2651 30.86C42.9801 30.86 31.6967 30.86 20.4117 30.86C20.1417 30.86 19.8667 30.8733 19.6017 30.8383C19.0434 30.7633 18.7101 30.4417 18.6334 29.8717C18.5534 29.2667 18.9051 28.9533 19.4001 28.7417C19.6784 28.6233 19.9751 28.6683 20.2651 28.6683C31.4667 28.6667 42.6667 28.6683 53.8684 28.6683C54.0351 28.6683 54.2017 28.6583 54.3684 28.67C54.7301 28.695 54.8117 28.5833 54.6401 28.245C53.8951 26.7817 53.1634 25.3133 52.4317 23.8433C52.3201 23.62 52.1817 23.4933 51.9084 23.4833C51.5967 23.4733 51.5367 23.68 51.4467 23.8917C50.6651 25.7383 49.2234 26.6667 47.2601 26.69C43.4917 26.735 39.7234 26.7133 35.9551 26.6967C34.7767 26.6917 33.6934 26.3583 32.8201 25.52C32.5984 25.3067 32.4551 25.2617 32.2101 25.5017C31.3467 26.3483 30.2617 26.6917 29.0834 26.6967C25.2951 26.715 21.5051 26.735 17.7151 26.69C15.8317 26.6667 14.3984 25.7867 13.6334 24.0233C13.4351 23.5683 13.1934 23.4217 12.7484 23.4933C12.2767 23.3717 11.7934 23.4833 11.3217 23.43C10.9034 23.3817 10.6884 23.55 10.5101 23.9233C9.95672 25.085 9.35839 26.225 8.79172 27.3817C8.58505 27.8033 8.31005 28.1983 8.19505 28.7367C8.91005 28.6667 9.59172 28.885 10.2534 28.5967C10.4917 28.6983 10.7451 28.6667 10.9917 28.6683C12.0717 28.6717 13.1534 28.6533 14.2334 28.6767C15.1534 28.6967 15.6634 29.3783 15.3701 30.165C15.1667 30.7133 14.7201 30.86 14.1734 30.8667C12.4501 30.8883 10.7267 30.8033 9.00505 30.91L9.00172 30.9083ZM4.75672 53.1967C5.06839 53.2067 5.38005 53.2267 5.69172 53.2267C23.5601 53.2267 41.4267 53.2267 59.2951 53.2267C60.1284 53.2267 60.9617 53.195 61.7934 53.2183C62.2301 53.23 62.3584 53.0833 62.3584 52.65C62.3451 47.6 62.3517 42.55 62.3467 37.5C62.3467 36.605 61.9584 36.2267 61.0467 36.2017C60.4017 36.185 59.7551 36.1833 59.1101 36.1833C41.3467 36.1833 23.5834 36.1833 5.82005 36.1833C5.55005 36.1833 5.28005 36.1983 5.01005 36.205C4.61505 36.1983 4.22172 36.1767 3.82672 36.1867C3.07505 36.205 2.64839 36.6383 2.64672 37.3767C2.64339 39.5533 2.64505 41.7317 2.64505 43.9083C2.64505 46.8117 2.65672 49.7133 2.63339 52.6167C2.63005 53.1167 2.78005 53.275 3.26505 53.2333C3.76005 53.19 4.26005 53.205 4.75839 53.195L4.75672 53.1967ZM23.3984 24.4733C23.3984 24.4733 23.3984 24.46 23.3984 24.4517C25.3767 24.4517 27.3551 24.4667 29.3334 24.4467C30.5401 24.435 31.3667 23.5717 31.3651 22.39C31.3651 22.0367 31.3651 21.6833 31.3651 21.33C31.3651 20.0583 30.5634 19.2133 29.2767 19.2067C25.4034 19.185 21.5301 19.19 17.6567 19.175C16.6984 19.1717 16.0367 19.6267 15.6051 20.4417C15.3251 20.9717 15.4101 21.565 15.3784 22.1383C15.3117 23.3667 16.4417 24.5483 17.7134 24.495C19.6051 24.415 21.5034 24.475 23.3984 24.475V24.4733ZM41.4651 24.4733C41.4651 24.4733 41.4651 24.46 41.4651 24.4533C43.4434 24.4533 45.4201 24.4617 47.3984 24.45C48.4851 24.4433 49.3417 23.7533 49.4734 22.7617C49.5317 22.3117 49.4834 21.8483 49.4851 21.3917C49.4917 20.0383 48.7051 19.2117 47.3417 19.205C43.5117 19.185 39.6801 19.1933 35.8501 19.1717C34.8667 19.1667 34.1851 19.6033 33.7317 20.4367C33.4551 20.9467 33.5017 21.5117 33.5034 22.0667C33.5084 23.5283 34.4384 24.4667 35.9067 24.4717C37.7601 24.4783 39.6134 24.4717 41.4651 24.4717V24.4733ZM60.1851 57.2267C60.2001 57.2267 60.2151 57.2267 60.2301 57.2267C60.2301 56.7917 60.2167 56.355 60.2351 55.92C60.2501 55.555 60.1234 55.3933 59.7351 55.405C59.0301 55.4267 58.3217 55.425 57.6167 55.405C57.2267 55.3933 57.1101 55.5617 57.1167 55.9233C57.1317 56.7733 57.1101 57.6233 57.1267 58.4733C57.1417 59.185 57.4884 59.5233 58.2084 59.5583C58.6017 59.5767 59.0001 59.5367 59.3917 59.57C59.9017 59.6133 60.1451 59.3517 60.1767 58.9033C60.2151 58.3467 60.1867 57.7867 60.1867 57.2283L60.1851 57.2267Z" fill="#2E3192"/>
<path d="M5.00668 36.2083C5.27668 36.2 5.54668 36.1867 5.81668 36.1867C23.58 36.1867 41.3433 36.1867 59.1067 36.1867C59.7517 36.1867 60.3983 36.1867 61.0433 36.205C61.9567 36.2283 62.3433 36.6083 62.3433 37.5033C62.3483 42.5533 62.3417 47.6033 62.355 52.6533C62.355 53.0867 62.2267 53.235 61.79 53.2217C60.9583 53.1983 60.125 53.23 59.2917 53.23C41.4233 53.23 23.5567 53.23 5.68834 53.23C5.37668 53.23 5.06501 53.21 4.75334 53.2C4.75834 51.9267 4.76334 50.6533 4.76834 49.38C4.87001 49.4817 4.97668 49.5783 5.07334 49.685C5.36834 50.0117 5.71334 50.115 6.13501 49.95C6.57501 49.7783 6.89168 49.51 6.89334 49C6.89668 46.1317 6.91168 43.265 6.88334 40.3967C6.87501 39.58 6.00668 39.155 5.28168 39.5317C5.04334 39.655 4.99834 39.9417 4.77001 40.0583C4.83501 38.775 4.56001 37.47 5.00668 36.21V36.2083ZM15.4333 44.6733H15.4367C15.4367 46.0833 15.42 47.495 15.4433 48.905C15.455 49.59 15.87 50.0133 16.4317 50.0167C17.0983 50.02 17.565 49.61 17.57 48.8917C17.59 46.0917 17.58 43.2917 17.5717 40.4917C17.5717 40.1017 17.4183 39.7667 17.0517 39.5617C16.2533 39.1183 15.4633 39.5867 15.4417 40.5667C15.4117 41.935 15.4333 43.305 15.4333 44.6733ZM31.4283 44.69C31.4283 46.08 31.4133 47.47 31.435 48.8583C31.4467 49.5933 31.8483 50.0183 32.4417 50.015C33.1033 50.0117 33.56 49.5967 33.565 48.8733C33.585 46.095 33.575 43.315 33.57 40.535C33.57 40.145 33.4383 39.7983 33.0867 39.5783C32.29 39.085 31.455 39.5717 31.435 40.58C31.4067 41.9483 31.4283 43.3183 31.4283 44.6867V44.69ZM49.5717 44.695C49.5717 43.3683 49.5717 42.04 49.5717 40.7133C49.5717 40.2617 49.5 39.8383 49.0717 39.5783C48.2283 39.0667 47.43 39.6083 47.425 40.7217C47.4133 43.3767 47.42 46.0317 47.425 48.6867C47.425 48.8717 47.4433 49.0617 47.4817 49.2417C47.5683 49.635 47.825 49.92 48.2033 50.0017C48.6483 50.0983 49.0733 49.985 49.3483 49.5667C49.5367 49.28 49.58 48.9583 49.5767 48.6183C49.57 47.3117 49.5733 46.005 49.5733 44.6983L49.5717 44.695ZM20.7667 44.655C20.7667 46.0667 20.7633 47.4783 20.7683 48.89C20.77 49.505 21.2217 50.0133 21.7433 50.0167C22.4183 50.0217 22.8867 49.5933 22.8883 48.9C22.9 46.0983 22.9 43.2967 22.8883 40.4933C22.885 39.8017 22.4333 39.3833 21.7967 39.405C21.1617 39.4267 20.7733 39.8483 20.77 40.545C20.765 41.915 20.7683 43.285 20.77 44.655H20.7667ZM38.8883 44.72C38.8883 43.35 38.895 41.98 38.885 40.61C38.88 39.8417 38.495 39.43 37.8433 39.4C37.2667 39.3733 36.7333 39.915 36.7433 40.615C36.7833 43.3333 36.7583 46.0533 36.76 48.7717C36.76 49.4967 37.1783 50.0167 37.745 50.0167C38.4667 50.0167 38.8817 49.5733 38.8867 48.7683C38.895 47.42 38.8883 46.07 38.8883 44.7217V44.72ZM52.755 44.655C52.755 46.0667 52.7517 47.4783 52.7567 48.89C52.7583 49.505 53.21 50.0133 53.7317 50.0167C54.4067 50.0217 54.8733 49.5933 54.8767 48.9C54.8883 46.0983 54.8883 43.2967 54.8767 40.4933C54.8733 39.8017 54.4217 39.3833 53.7833 39.405C53.1483 39.4267 52.76 39.8483 52.7567 40.545C52.7517 41.915 52.755 43.285 52.7567 44.655H52.755ZM58.1033 44.72C58.1033 46.07 58.0983 47.42 58.105 48.77C58.11 49.5667 58.4667 50.0033 59.095 50.0167C59.785 50.03 60.24 49.5517 60.2433 48.7583C60.2517 46.0583 60.2517 43.3567 60.2433 40.6567C60.2417 39.8817 59.805 39.4033 59.1533 39.405C58.485 39.4067 58.1083 39.8517 58.105 40.6683C58.0983 42.0183 58.1033 43.3683 58.105 44.7183L58.1033 44.72ZM10.1217 44.6833C10.1217 46.0533 10.115 47.4233 10.1233 48.7933C10.1283 49.5517 10.475 49.9833 11.0733 50.015C11.7417 50.05 12.23 49.6217 12.2367 48.8533C12.2617 46.0917 12.2633 43.3317 12.2367 40.57C12.23 39.8133 11.7667 39.3883 11.14 39.405C10.4967 39.4233 10.1267 39.8583 10.1217 40.635C10.115 41.985 10.12 43.3333 10.12 44.6833H10.1217ZM26.1167 44.6483C26.1167 46.06 26.1167 47.4717 26.1167 48.8833C26.1167 49.33 26.2767 49.6933 26.6817 49.9133C27.0717 50.125 27.4483 50.0317 27.7917 49.8033C28.1817 49.5433 28.2383 49.1167 28.24 48.7017C28.25 46.045 28.245 43.3867 28.2433 40.73C28.2433 40.3733 28.1833 40.0183 27.94 39.75C27.6367 39.415 27.235 39.3017 26.805 39.4633C26.3517 39.6333 26.12 39.985 26.12 40.475C26.12 41.8667 26.12 43.2567 26.1183 44.6483H26.1167ZM42.1117 44.6583C42.1117 46.07 42.1117 47.4817 42.1117 48.8933C42.1117 49.34 42.2767 49.7 42.6867 49.9167C43.08 50.1233 43.455 50.03 43.795 49.7967C44.1817 49.5317 44.2333 49.105 44.235 48.6917C44.2433 46.035 44.2417 43.3767 44.2383 40.72C44.2383 40.365 44.1783 40.01 43.9283 39.7417C43.6183 39.41 43.2183 39.3017 42.79 39.4667C42.3383 39.6417 42.1133 39.9967 42.1133 40.485C42.1133 41.8767 42.1133 43.2667 42.1133 44.6583H42.1117Z" fill="#F2F6FB"/>
<path d="M13.3917 20.0933C13.2217 19.8767 13.2633 19.62 13.2633 19.375C13.2617 14.855 13.2667 10.3333 13.255 5.81335C13.255 5.28335 13.45 4.79835 13.5033 4.28501C13.7533 4.27835 14.0017 4.26501 14.2517 4.26501C26.4083 4.26501 38.5633 4.26501 50.72 4.26501C51.3033 4.26501 51.885 4.27335 52.4683 4.28001C53.4433 4.29335 53.8183 4.66335 53.8183 5.65501C53.8233 9.78835 53.82 13.9233 53.82 18.0567C53.82 18.95 53.8 19.8433 53.8283 20.7367C53.8433 21.185 53.6717 21.3467 53.2467 21.2917C53.2267 21.2883 53.205 21.2917 53.185 21.2917C52.7483 21.285 52.2767 21.38 51.8833 21.2467C51.38 21.0767 51.6467 20.4917 51.51 20.105C50.84 18.1933 49.405 17.07 47.37 17.0583C43.4983 17.035 39.6267 17.0483 35.755 17.0533C34.6083 17.0533 33.5917 17.41 32.7767 18.2367C32.5667 18.45 32.435 18.4483 32.2233 18.2367C31.3317 17.35 30.215 17.0483 28.99 17.0483C25.41 17.0483 21.8283 17.1033 18.25 17.0283C15.895 16.98 14.2883 17.93 13.39 20.0917L13.3917 20.0933Z" fill="#F2F6FB"/>
<path d="M12.745 23.4933C13.19 23.42 13.4317 23.5683 13.63 24.0233C14.3967 25.7867 15.8284 26.6667 17.7117 26.69C21.5 26.7367 25.29 26.715 29.08 26.6967C30.2584 26.6917 31.3417 26.3483 32.2067 25.5017C32.45 25.2633 32.595 25.3083 32.8167 25.52C33.6884 26.3583 34.7734 26.6917 35.9517 26.6967C39.7201 26.7133 43.4884 26.735 47.2567 26.69C49.22 26.6667 50.6617 25.7383 51.4434 23.8917C51.5334 23.68 51.5934 23.4717 51.905 23.4833C52.1784 23.4917 52.3167 23.62 52.4284 23.8433C53.16 25.3133 53.8917 26.7817 54.6367 28.245C54.8084 28.5833 54.7267 28.6967 54.365 28.67C54.2 28.6583 54.0317 28.6683 53.865 28.6683C42.6634 28.6683 31.4634 28.6683 20.2617 28.6683C19.9717 28.6683 19.675 28.6233 19.3967 28.7417C18.9017 28.9533 18.55 29.265 18.63 29.8717C18.705 30.4433 19.04 30.7633 19.5984 30.8383C19.865 30.875 20.1384 30.86 20.4084 30.86C31.6934 30.86 42.9767 30.86 54.2617 30.86C55.3034 30.86 56.3434 30.89 57.3834 30.87C57.7884 30.8617 58.03 30.9767 58.205 31.3617C58.6 32.2267 59.045 33.07 59.535 34.0567C58.6934 34.0567 57.9584 34.0567 57.2234 34.0567C40.775 34.0567 24.3284 34.0567 7.88005 34.0567C7.75505 34.0567 7.63171 34.0433 7.50671 34.0367C8.00338 32.9933 8.50171 31.95 8.99838 30.9083C10.72 30.8 12.445 30.885 14.1667 30.865C14.7117 30.8583 15.1584 30.7117 15.3634 30.1633C15.6567 29.3767 15.1484 28.695 14.2267 28.675C13.1467 28.6517 12.0667 28.67 10.985 28.6667C10.7367 28.6667 10.485 28.6967 10.2467 28.595C10.9567 26.835 11.8967 25.1867 12.7417 23.4917L12.745 23.4933Z" fill="#F2F6FB"/>
<path d="M23.3967 24.475C21.5017 24.475 19.6034 24.4167 17.7117 24.495C16.4417 24.5483 15.31 23.3683 15.3767 22.1383C15.4084 21.565 15.3234 20.9733 15.6034 20.4417C16.035 19.6267 16.6967 19.1717 17.655 19.175C21.5284 19.19 25.4017 19.185 29.275 19.2067C30.5617 19.2133 31.3634 20.0583 31.3634 21.33C31.3634 21.6833 31.3634 22.0367 31.3634 22.39C31.3634 23.5717 30.5367 24.435 29.3317 24.4467C27.3534 24.4667 25.375 24.4517 23.3967 24.4517C23.3967 24.4583 23.3967 24.465 23.3967 24.4733V24.475Z" fill="#F2F6FB"/>
<path d="M41.4633 24.475C39.61 24.475 37.7566 24.48 35.905 24.475C34.4366 24.47 33.5083 23.5317 33.5016 22.07C33.5 21.515 33.4533 20.9483 33.73 20.44C34.1833 19.6067 34.865 19.17 35.8483 19.175C39.6783 19.1967 43.51 19.1883 47.34 19.2083C48.7033 19.215 49.4883 20.0417 49.4833 21.395C49.4816 21.8517 49.5316 22.315 49.4716 22.765C49.3416 23.7567 48.485 24.4467 47.3966 24.4533C45.4183 24.4667 43.4416 24.4567 41.4633 24.4567C41.4633 24.4633 41.4633 24.47 41.4633 24.4767V24.475Z" fill="#F2F6FB"/>
<path d="M4.75831 55.405C5.62998 55.4083 6.50331 55.4233 7.37498 55.4067C7.74998 55.4 7.89831 55.5333 7.89165 55.91C7.87498 56.76 7.89831 57.61 7.88165 58.46C7.86665 59.2017 7.51665 59.5383 6.75165 59.5617C6.12831 59.5817 5.50498 59.5767 4.88165 59.5833C4.66165 58.1967 4.77331 56.7983 4.75831 55.405Z" fill="#F2F6FB"/>
<path d="M60.1833 57.2283C60.1833 57.7867 60.2116 58.3483 60.1733 58.9033C60.1416 59.3517 59.8983 59.615 59.3883 59.57C58.9966 59.5367 58.5983 59.5767 58.205 59.5583C57.485 59.525 57.1383 59.185 57.1233 58.4733C57.105 57.6233 57.1266 56.7733 57.1133 55.9233C57.1066 55.5617 57.225 55.3933 57.6133 55.405C58.3183 55.425 59.0266 55.4267 59.7316 55.405C60.12 55.3933 60.2466 55.555 60.2316 55.92C60.2133 56.355 60.2266 56.79 60.2266 57.2267C60.2116 57.2267 60.1966 57.2267 60.1816 57.2267L60.1833 57.2283Z" fill="#F2F6FB"/>
<path d="M10.0733 8.61834C10.7633 8.61501 11.1433 8.96501 11.1333 9.59334C11.1249 10.1767 10.5733 10.7583 10.0533 10.7317C9.55161 10.7067 8.99828 10.0733 9.00995 9.54001C9.02161 9.00167 9.46161 8.62001 10.0733 8.61834Z" fill="#2E3192"/>
<path d="M15.435 44.6733C15.435 43.305 15.4117 41.935 15.4434 40.5667C15.465 39.5867 16.255 39.1167 17.0534 39.5617C17.4217 39.7667 17.5734 40.1017 17.5734 40.4917C17.5817 43.2917 17.5917 46.0917 17.5717 48.8917C17.5667 49.61 17.1 50.02 16.4334 50.0167C15.8717 50.0133 15.4584 49.5917 15.445 48.905C15.42 47.495 15.4384 46.085 15.4384 44.6733H15.435Z" fill="#2E3192"/>
<path d="M31.4283 44.69C31.4283 43.3217 31.4067 41.9517 31.435 40.5833C31.4567 39.5733 32.2917 39.0867 33.0867 39.5817C33.44 39.8017 33.57 40.1467 33.57 40.5383C33.575 43.3183 33.585 46.0967 33.565 48.8767C33.56 49.6 33.1033 50.015 32.4417 50.0183C31.8483 50.0217 31.4467 49.5967 31.435 48.8617C31.4133 47.4717 31.4283 46.0817 31.4283 44.6933V44.69Z" fill="#2E3192"/>
<path d="M49.5717 44.695C49.5717 46.0017 49.5667 47.3083 49.575 48.615C49.5767 48.955 49.535 49.2767 49.3467 49.5633C49.0717 49.9817 48.6484 50.095 48.2017 49.9983C47.825 49.9167 47.5667 49.6317 47.48 49.2383C47.44 49.0583 47.4234 48.8683 47.4234 48.6833C47.42 46.0283 47.4134 43.3733 47.4234 40.7183C47.4284 39.605 48.2267 39.0633 49.07 39.575C49.5 39.835 49.57 40.2583 49.57 40.71C49.57 42.0367 49.57 43.365 49.57 44.6917L49.5717 44.695Z" fill="#2E3192"/>
<path d="M4.76998 49.3783C4.76998 46.27 4.76998 43.1633 4.76998 40.055C4.99998 39.9383 5.04331 39.6533 5.28164 39.5283C6.00498 39.1517 6.87498 39.5767 6.88331 40.3933C6.91164 43.26 6.89664 46.1283 6.89331 48.9967C6.89331 49.5067 6.57498 49.775 6.13498 49.9467C5.71498 50.1117 5.36998 50.01 5.07331 49.6817C4.97664 49.575 4.86998 49.4783 4.76831 49.3767L4.76998 49.3783Z" fill="#2E3192"/>
<path d="M20.7667 44.655C20.7667 43.285 20.7633 41.915 20.7683 40.545C20.7717 39.85 21.1617 39.4267 21.795 39.405C22.4333 39.3833 22.885 39.8017 22.8867 40.4933C22.9 43.295 22.9 46.0967 22.8867 48.9C22.8833 49.5933 22.4167 50.0217 21.7417 50.0167C21.22 50.0133 20.7683 49.5033 20.7667 48.89C20.7617 47.4783 20.765 46.0667 20.765 44.655H20.7667Z" fill="#2E3192"/>
<path d="M38.89 44.72C38.89 46.0683 38.895 47.4183 38.8883 48.7667C38.8833 49.5717 38.4683 50.015 37.7467 50.015C37.18 50.015 36.7633 49.495 36.7617 48.77C36.76 46.0517 36.785 43.3317 36.745 40.6133C36.735 39.9133 37.2683 39.3717 37.845 39.3983C38.4967 39.4283 38.8817 39.84 38.8867 40.6083C38.895 41.9783 38.89 43.3483 38.89 44.7183V44.72Z" fill="#2E3192"/>
<path d="M52.755 44.655C52.755 43.285 52.7517 41.915 52.7567 40.545C52.76 39.85 53.15 39.4267 53.7833 39.405C54.4217 39.3833 54.8733 39.8017 54.8767 40.4933C54.89 43.295 54.89 46.0967 54.8767 48.9C54.8733 49.5933 54.4067 50.0217 53.7317 50.0167C53.21 50.0133 52.7583 49.5033 52.7567 48.89C52.7517 47.4783 52.755 46.0667 52.755 44.655Z" fill="#2E3192"/>
<path d="M58.1034 44.7183C58.1034 43.3683 58.0984 42.0183 58.105 40.6683C58.1084 39.8517 58.4867 39.4067 59.1534 39.405C59.805 39.4033 60.2417 39.8817 60.2434 40.6567C60.2517 43.3567 60.2517 46.0583 60.2434 48.7583C60.24 49.5517 59.785 50.03 59.095 50.0167C58.4667 50.005 58.11 49.5667 58.105 48.77C58.0984 47.42 58.1034 46.07 58.1034 44.72V44.7183Z" fill="#2E3192"/>
<path d="M10.12 44.6833C10.12 43.3333 10.115 41.985 10.1216 40.635C10.1266 39.8583 10.4966 39.4233 11.14 39.405C11.765 39.3883 12.2283 39.8133 12.2366 40.57C12.2633 43.3317 12.2633 46.0917 12.2366 48.8533C12.23 49.6217 11.7416 50.05 11.0733 50.015C10.475 49.985 10.1283 49.5517 10.1233 48.7933C10.115 47.4233 10.1216 46.0533 10.1216 44.6833H10.12Z" fill="#2E3192"/>
<path d="M26.1166 44.6483C26.1166 43.2567 26.1166 41.8667 26.1166 40.475C26.1166 39.985 26.3483 39.6333 26.8016 39.4633C27.2316 39.3017 27.6333 39.415 27.9366 39.75C28.1799 40.0183 28.2399 40.3733 28.2399 40.73C28.2416 43.3867 28.2449 46.045 28.2366 48.7017C28.2366 49.1167 28.1783 49.5433 27.7883 49.8033C27.4449 50.0333 27.0683 50.125 26.6783 49.9133C26.2716 49.6933 26.1133 49.33 26.1133 48.8833C26.1133 47.4717 26.1133 46.06 26.1149 44.6483H26.1166Z" fill="#2E3192"/>
<path d="M42.1117 44.6583C42.1117 43.2667 42.1117 41.8767 42.1117 40.485C42.1117 39.995 42.3367 39.64 42.7883 39.4667C43.2167 39.3017 43.6167 39.41 43.9267 39.7417C44.1767 40.01 44.2367 40.3633 44.2367 40.72C44.24 43.3767 44.2433 46.035 44.2333 48.6917C44.2333 49.1067 44.18 49.5333 43.7933 49.7967C43.4533 50.03 43.0783 50.125 42.685 49.9167C42.2767 49.7017 42.1117 49.34 42.11 48.8933C42.11 47.4817 42.11 46.07 42.11 44.6583H42.1117Z" fill="#2E3192"/>
</g>
<defs>
<clipPath id="clip0_68_949">
<rect width="64" height="64" fill="white" transform="translate(0.5)"/>
</clipPath>
</defs>
</svg>
