<svg width="65" height="64" viewBox="0 0 65 64" fill="none" xmlns="http://www.w3.org/2000/svg">
<g clip-path="url(#clip0_68_978)">
<path d="M64.4884 5.12501V7.62002C64.1884 7.79335 64.2484 8.12835 64.1717 8.38668C63.4934 10.6633 61.9184 12.3067 60.245 13.85C58.4067 15.5433 56.48 17.1417 54.6184 18.81C54.1867 19.1983 53.7367 19.1233 53.2817 19.0333C53.07 18.9917 52.97 18.6533 52.5734 18.6533C52.77 19.3133 52.7534 19.9667 52.7534 20.62C52.7534 28.1433 52.7534 35.6667 52.7534 43.19C52.7534 44.2834 52.6584 45.3667 52.5134 46.455C52.2367 48.5284 51.6417 50.4933 50.75 52.38C49.4784 55.0734 47.6984 57.38 45.3867 59.2483C42.6534 61.4567 39.5634 62.895 36.0717 63.54C33.4434 64.0267 30.85 63.98 28.27 63.4317C24.5584 62.6433 21.3167 60.91 18.5817 58.2717C18.3067 58.0067 18.1617 58.015 17.8834 58.275C15.9467 60.08 13.9434 61.8133 11.9184 63.5183C11.3351 64.01 10.9134 63.9917 10.3434 63.4933C8.75339 62.1067 7.11839 60.7684 5.56672 59.3384C4.18339 58.0634 2.78839 56.7817 1.75672 55.1784C1.17672 54.2767 0.808385 53.2867 0.511719 52.2667C0.511719 51.435 0.511719 50.6034 0.511719 49.7717C0.546719 49.7234 0.605052 49.68 0.615052 49.6267C0.955052 47.87 1.89839 46.5334 3.42172 45.595C4.73672 44.785 6.14339 44.5917 7.64339 44.8967C8.89339 45.15 9.96005 45.715 10.8267 46.655C10.9284 46.765 11.0101 46.9483 11.2267 46.8783C11.5634 46.77 12.2551 45.7817 12.2551 45.4C12.2517 37.195 12.2484 28.99 12.2467 20.7867C12.2467 20.5367 12.2251 20.2833 12.2617 20.04C12.3351 19.5683 12.6134 19.265 13.1051 19.2233C13.9684 19.15 14.3784 19.575 14.3784 20.565C14.3784 22.83 14.9951 24.89 16.3717 26.7083C17.6017 28.1867 19.0417 29.42 20.6567 30.4633C21.0634 30.7267 21.3334 30.8133 21.6967 30.3883C22.0151 30.015 22.4217 29.7017 22.8367 29.4334C23.2067 29.1934 23.1967 29.045 22.9101 28.7367C21.9034 27.645 21.1301 26.3967 20.5851 25.0133C20.4634 24.7017 20.3134 24.5317 19.9451 24.4533C18.4201 24.1283 17.3451 23.2283 16.7401 21.7817C16.6851 21.65 16.6017 21.5317 16.5317 21.4067C16.5234 20.5967 16.5167 19.7883 16.5084 18.9783C16.7251 18.85 16.7601 18.6083 16.8617 18.4083C17.4584 17.2383 18.3534 16.3717 19.6501 16.1117C20.2117 15.9983 20.4484 15.785 20.6551 15.2983C23.1217 9.48835 29.1917 6.29835 35.5117 7.79168C39.66 8.77168 42.59 11.34 44.3134 15.24C44.535 15.7417 44.6967 16.1617 45.3834 16.1083C45.6617 16.0867 45.9717 16.2933 46.245 16.4383C47.8234 17.2767 48.72 18.9883 48.5184 20.745C48.3167 22.5067 47.0117 23.9683 45.2384 24.4167C44.905 24.5017 44.5834 24.52 44.425 24.9517C43.895 26.39 43.0817 27.6667 42.0384 28.7917C41.8184 29.0283 41.7867 29.1733 42.0867 29.3667C42.595 29.6933 43.0634 30.0784 43.4684 30.5267C43.7017 30.785 43.8917 30.7567 44.16 30.5783C44.94 30.06 45.7134 29.5334 46.4334 28.9334C48.32 27.36 49.7067 25.465 50.2634 23.0317C50.715 21.06 50.5967 19.0967 50.2784 17.1167C50.1817 16.5217 49.905 16.1633 49.4834 15.7983C48.1484 14.6417 46.8167 13.4767 45.6417 12.1483C44.0867 10.3883 42.9767 8.44501 43.085 6.00001C43.1 5.67668 42.9284 5.51501 42.6934 5.35335C41.225 4.34835 39.645 3.56835 37.9467 3.03501C35.5217 2.27501 33.0334 2.04335 30.5167 2.32335C29.2767 2.46168 28.0117 2.59001 26.865 3.16835C26.6534 3.10501 26.4734 3.17335 26.2717 3.24835C25.4551 3.55001 24.6734 3.92168 23.905 4.32501C21.7867 5.44001 20.0084 6.96335 18.4751 8.78668C17.5684 9.86335 16.8384 11.05 16.2217 12.315C15.8001 13.1817 14.9717 13.3317 14.3734 12.6967C13.9751 12.2733 14.0967 11.8267 14.3134 11.3733C15.4367 9.03502 16.9784 7.01168 18.9001 5.27001C21.4367 2.97168 24.3717 1.44335 27.6934 0.601681C28.6667 0.355015 29.685 0.378348 30.6284 0.0166813C31.8784 0.0166813 33.1267 0.0166813 34.3767 0.0166813C34.445 0.053348 34.51 0.111681 34.5817 0.123348C35.7917 0.320015 36.9967 0.520015 38.18 0.858348C40.0367 1.39001 41.785 2.15501 43.3967 3.21501C43.6984 3.41335 43.8284 3.37168 43.9934 3.06001C44.4234 2.24668 45.0367 1.58835 45.7834 1.04168C46.4567 0.548348 47.27 0.383348 47.9967 0.0166813C48.6634 0.0166813 49.33 0.0166813 49.9967 0.0166813C50.0067 0.0350146 50.0134 0.0650146 50.0284 0.068348C51.4034 0.461681 52.7067 0.981681 53.6717 2.10335C53.8584 2.32001 53.9584 2.12668 54.0567 2.01668C54.5434 1.47668 55.1284 1.06335 55.7534 0.700015C56.2984 0.383348 56.9584 0.356681 57.495 0.0150146H59.37C59.57 0.156681 59.8 0.203348 60.035 0.268348C61.59 0.698348 62.7767 1.60501 63.6367 2.98668C64.0567 3.66168 64.1234 4.45001 64.4934 5.12835L64.4884 5.12501ZM11.8717 60.7134C12.1834 60.4417 12.4934 60.17 12.8051 59.8967C14.2734 58.6084 15.7867 57.3667 17.1401 55.955C18.5917 54.4417 19.7867 52.8334 19.6101 50.5384C19.4817 48.86 18.1217 47.12 16.5884 46.9484C14.7251 46.74 13.3101 47.4784 12.3101 49.0284C11.5434 50.2184 10.7934 50.2184 10.0317 49.0284C9.21172 47.7467 8.07005 46.9717 6.50339 46.9234C5.51672 46.795 4.66172 47.085 3.97005 47.785C2.51839 49.2567 2.22005 51.3817 3.13505 53.2483C3.81339 54.6333 4.84505 55.73 5.95505 56.7533C7.56672 58.2383 9.21839 59.6767 10.8484 61.1417C11.0867 61.355 11.2784 61.33 11.4817 61.1083C11.6067 60.9717 11.7417 60.8417 11.8717 60.71V60.7134ZM16.5034 44.7617C17.5084 44.935 18.4717 45.2333 19.2984 45.8467C20.9134 47.0467 21.7467 48.6367 21.7667 50.675C21.7867 52.695 21.2917 54.5084 19.9267 56.0384C19.6917 56.3017 19.7851 56.4917 20.0167 56.715C20.9767 57.6434 22.0517 58.42 23.1917 59.1083C23.4017 59.235 23.6484 59.5017 23.8434 59.4034C24.0984 59.2717 23.96 58.915 23.96 58.6584C23.9634 55.805 23.8751 52.9417 24.5117 50.1367C25.4451 46.0217 27.2734 42.3783 30.385 39.4533C30.715 39.1433 30.7217 38.9934 30.3334 38.73C28.595 37.5484 26.8134 36.4417 24.9667 35.4384C22.0267 33.84 19.0367 32.32 16.5001 30.0867C15.7084 29.435 15.1117 28.6033 14.3767 27.7183C14.3767 28 14.3767 28.14 14.3767 28.2817C14.3767 33.535 14.3801 38.7867 14.3817 44.04C14.3817 44.2267 14.3801 44.415 14.3951 44.6C14.4101 44.7867 14.5067 44.94 14.7117 44.87C15.3017 44.6717 15.9084 44.8617 16.5017 44.765L16.5034 44.7617ZM50.6067 27.7484C50.2317 28.2034 49.9667 28.5483 49.6767 28.87C47.6867 31.09 45.165 32.5834 42.6 34.0167C40.265 35.3217 37.885 36.5483 35.6367 38.005C31.9001 40.4267 29 43.5234 27.44 47.7784C26.7034 49.785 26.295 51.8533 26.155 53.9567C26.02 55.985 26.1234 58.0284 26.1067 60.065C26.1034 60.4617 26.2484 60.64 26.6334 60.765C27.925 61.1867 29.2334 61.47 30.5867 61.6383C32.5684 61.8833 34.5267 61.7717 36.44 61.315C44.965 59.2784 50.5934 52.1717 50.605 43.4184C50.6084 41.1734 50.605 38.93 50.605 36.685C50.605 33.7567 50.605 30.8267 50.605 27.7484H50.6067ZM36.36 10.3867C36.3267 10.46 36.3084 10.4817 36.3134 10.495C36.37 10.6733 36.4367 10.8467 36.4867 11.0267C36.925 12.605 36.9317 14.0867 35.55 15.2717C34.7534 15.9533 33.2384 16.1717 32.3434 15.7567C30.8867 15.0833 30.2634 13.7067 30.38 12.665C30.4617 11.9217 31.1317 11.5583 31.835 11.8367C32.3567 12.0433 32.4284 12.4783 32.505 12.9233C32.6 13.47 32.9567 13.7883 33.46 13.825C33.9867 13.8633 34.3767 13.6267 34.56 13.0333C34.6734 12.6667 34.5167 12.385 34.4934 12.0717C34.4167 11.0367 32.8684 9.41001 31.7684 9.60335C30.5084 9.82335 29.2517 9.99168 28.08 10.5517C25.145 11.95 23.2017 14.1933 22.245 17.2917C22.06 17.89 21.4984 18.2467 20.8634 18.1533C19.8084 18 18.7351 18.9217 18.6284 19.9833C18.4901 21.3583 19.6784 22.4767 20.9417 22.3533C21.7301 22.275 22.0367 22.5683 22.2851 23.3333C22.6117 24.3417 23.0684 25.2867 23.6534 26.175C25.815 29.455 30.3834 31.675 34.4984 30.68C38.4717 29.72 41.2484 27.4317 42.58 23.515C42.92 22.5133 43.1534 22.335 44.185 22.3283C45.39 22.3217 46.3867 21.4433 46.3334 20.2933C46.275 19.0167 45.6717 18.225 44.185 18.1433C43.1734 18.0867 42.8867 17.95 42.605 16.9967C42.1734 15.535 41.425 14.2567 40.4084 13.1367C39.2834 11.8967 37.9684 10.9267 36.3617 10.3883L36.36 10.3867ZM45.2617 6.35668C45.26 7.52835 45.7934 8.88335 46.8217 10.12C48.8 12.5017 51.245 14.3883 53.5717 16.4C53.775 16.5767 53.9201 16.5367 54.1067 16.3733C56.0717 14.64 58.1284 13.0067 59.935 11.105C61.4284 9.53335 62.6067 7.83001 62.2184 5.45501C61.975 3.96835 60.8167 2.58501 59.3434 2.27668C57.6667 1.92501 55.9117 2.76168 54.9267 4.41001C54.6517 4.87001 54.36 5.17668 53.7567 5.15668C53.1934 5.13835 52.9584 4.80335 52.7234 4.39668C51.7517 2.70835 49.9284 2.04501 48.5534 2.21168C46.51 2.46001 45.3234 4.39168 45.2634 6.35835L45.2617 6.35668ZM41.7267 31.9133C41.485 31.6167 41.1467 31.4133 40.845 31.1667C40.3084 30.725 39.8734 30.685 39.2 31.085C34.9 33.635 30.5134 33.7017 26.115 31.3034C24.8484 30.6134 24.865 30.585 23.715 31.5017C23.1434 31.9567 23.1384 31.9717 23.7667 32.3084C26.6451 33.85 29.515 35.4067 32.1334 37.375C32.435 37.6017 32.64 37.5117 32.905 37.3267C33.7384 36.7417 34.5834 36.1733 35.4334 35.6117C37.31 34.3733 39.325 33.3733 41.2867 32.2833C41.4417 32.1967 41.6434 32.1567 41.7267 31.915V31.9133Z" fill="#2E3192"/>
<path d="M50.607 27.75C50.607 30.8283 50.607 33.7567 50.607 36.6867C50.607 38.9317 50.6086 41.175 50.607 43.42C50.5953 52.1733 44.967 59.2817 36.442 61.3167C34.5286 61.7733 32.5703 61.8867 30.5886 61.64C29.2353 61.4717 27.927 61.1883 26.6353 60.7667C26.2503 60.6417 26.1036 60.4633 26.1086 60.0667C26.127 58.03 26.022 55.9867 26.157 53.9583C26.297 51.855 26.7053 49.7867 27.442 47.78C29.002 43.525 31.902 40.4283 35.6386 38.0067C37.887 36.55 40.2653 35.3217 42.602 34.0183C45.167 32.585 47.6886 31.0917 49.6786 28.8717C49.9686 28.5483 50.232 28.205 50.6086 27.75H50.607Z" fill="#F2F6FB"/>
<path d="M36.3596 10.3884C37.9679 10.9268 39.2812 11.8968 40.4062 13.1368C41.4229 14.2568 42.1712 15.5351 42.6029 16.9968C42.8846 17.9501 43.1712 18.0868 44.1829 18.1434C45.6696 18.2268 46.2729 19.0168 46.3312 20.2934C46.3829 21.4434 45.3862 22.3218 44.1829 22.3284C43.1512 22.3334 42.9179 22.5134 42.5779 23.5151C41.2462 27.4318 38.4696 29.7201 34.4962 30.6801C30.3812 31.6751 25.8129 29.4551 23.6512 26.1751C23.0662 25.2868 22.6096 24.3418 22.2829 23.3334C22.0346 22.5684 21.7279 22.2751 20.9396 22.3534C19.6762 22.4784 18.4879 21.3584 18.6262 19.9834C18.7329 18.9218 19.8079 18.0001 20.8612 18.1534C21.4962 18.2468 22.0579 17.8901 22.2429 17.2918C23.1996 14.1934 25.1429 11.9501 28.0779 10.5518C29.2512 9.99343 30.5079 9.82343 31.7662 9.60343C32.8662 9.41176 34.4146 11.0368 34.4912 12.0718C34.5146 12.3851 34.6712 12.6668 34.5579 13.0334C34.3746 13.6268 33.9846 13.8634 33.4579 13.8251C32.9546 13.7884 32.5979 13.4701 32.5029 12.9234C32.4262 12.4784 32.3562 12.0418 31.8329 11.8368C31.1296 11.5584 30.4596 11.9218 30.3779 12.6651C30.2629 13.7068 30.8862 15.0834 32.3412 15.7568C33.2362 16.1701 34.7512 15.9534 35.5479 15.2718C36.9312 14.0868 36.9229 12.6068 36.4846 11.0268C36.4346 10.8468 36.3679 10.6734 36.3112 10.4951C36.3062 10.4818 36.3246 10.4601 36.3579 10.3868L36.3596 10.3884Z" fill="#D7E3F3"/>
<path d="M16.5099 18.975C16.6633 16.61 17.2566 14.3533 18.2583 12.2117C20.0566 8.36499 22.8249 5.41666 26.5666 3.38666C26.6749 3.32833 26.7649 3.23999 26.8633 3.16499C28.0099 2.58666 29.2749 2.45833 30.5149 2.31999C33.0316 2.03999 35.5199 2.27166 37.9449 3.03166C39.6433 3.56333 41.2233 4.34499 42.6916 5.34999C42.9266 5.51166 43.0983 5.67333 43.0833 5.99666C42.9766 8.44166 44.0849 10.3867 45.6399 12.145C46.8133 13.4733 48.1449 14.6367 49.4816 15.795C49.9033 16.16 50.1816 16.5183 50.2766 17.1133C50.5949 19.0933 50.7116 21.0567 50.2616 23.0283C49.7049 25.4617 48.3183 27.3583 46.4316 28.93C45.7116 29.53 44.9399 30.0583 44.1583 30.575C43.8883 30.7533 43.6999 30.7833 43.4666 30.5233C43.0616 30.075 42.5933 29.6883 42.0849 29.3633C41.7849 29.1717 41.8166 29.0267 42.0366 28.7883C43.0783 27.6633 43.8933 26.3867 44.4233 24.9483C44.5816 24.5167 44.9033 24.4967 45.2366 24.4133C47.0099 23.965 48.3149 22.5033 48.5166 20.7417C48.7183 18.9833 47.8216 17.2733 46.2433 16.435C45.9699 16.29 45.6583 16.0833 45.3816 16.105C44.6966 16.1583 44.5349 15.74 44.3116 15.2367C42.5899 11.3367 39.6583 8.76833 35.5099 7.78833C29.1899 6.29499 23.1199 9.48499 20.6533 15.295C20.4466 15.7817 20.2099 15.995 19.6483 16.1083C18.3516 16.37 17.4549 17.235 16.8599 18.405C16.7583 18.605 16.7233 18.845 16.5066 18.975H16.5099Z" fill="#D7E3F3"/>
<path d="M16.5 30.085C19.0367 32.3183 22.0267 33.84 24.9667 35.4367C26.8133 36.44 28.595 37.5467 30.3333 38.7283C30.7217 38.9933 30.715 39.1417 30.385 39.4517C27.2717 42.3767 25.445 46.02 24.5117 50.135C23.875 52.9417 23.9633 55.805 23.96 58.6567C23.96 58.9133 24.0983 59.27 23.8433 59.4017C23.6483 59.5017 23.4017 59.2333 23.1917 59.1067C22.05 58.4183 20.9767 57.6433 20.0167 56.7133C19.785 56.49 19.6917 56.3 19.9267 56.0367C21.2917 54.505 21.7867 52.6917 21.7667 50.6733C21.7467 48.6333 20.915 47.0433 19.2983 45.845C18.4717 45.2317 17.5083 44.935 16.5033 44.76C16.5033 39.8667 16.5033 34.975 16.5017 30.0817L16.5 30.085Z" fill="#D7E3F3"/>
<path d="M45.2617 6.35834C45.3217 4.39167 46.5083 2.46001 48.5517 2.21167C49.9267 2.04501 51.75 2.70834 52.7217 4.39667C52.9567 4.80501 53.1917 5.14001 53.755 5.15667C54.3583 5.17501 54.65 4.87001 54.925 4.41001C55.91 2.76167 57.665 1.92667 59.3417 2.27667C60.815 2.58501 61.9733 3.96834 62.2167 5.45501C62.6067 7.83001 61.4267 9.53167 59.9333 11.105C58.125 13.0067 56.0683 14.6417 54.105 16.3733C53.92 16.5367 53.7733 16.5767 53.57 16.4C51.2433 14.3883 48.8 12.5017 46.82 10.12C45.7917 8.88334 45.2583 7.52834 45.26 6.35667L45.2617 6.35834Z" fill="#F2F6FB"/>
<path d="M6.50301 46.9266C8.06968 46.9749 9.21135 47.7482 10.0313 49.0316C10.793 50.2216 11.543 50.2199 12.3097 49.0316C13.3097 47.4816 14.7247 46.7432 16.588 46.9516C18.1213 47.1232 19.4813 48.8616 19.6097 50.5416C19.7847 52.8366 18.5913 54.4449 17.1397 55.9582C15.7863 57.3699 14.2747 58.6116 12.8047 59.8999C12.4947 60.1716 12.183 60.4449 11.8713 60.7166C11.713 60.5516 11.568 60.3716 11.3947 60.2249C9.87801 58.9266 8.41135 57.5732 7.04968 56.1149C6.01468 55.0066 5.21468 53.7466 4.89135 52.2416C4.44801 50.1816 5.10135 48.4382 6.50301 46.9282V46.9266Z" fill="#D7E3F3"/>
<path d="M41.727 31.915C41.642 32.1567 41.442 32.1984 41.287 32.2834C39.3254 33.3734 37.312 34.3734 35.4337 35.6117C34.5837 36.1717 33.7387 36.7417 32.9054 37.3267C32.6404 37.5117 32.4354 37.6017 32.1337 37.375C29.5154 35.4084 26.6454 33.85 23.767 32.3084C23.1387 31.9717 23.1437 31.9567 23.7154 31.5017C24.8654 30.585 24.8487 30.6134 26.1154 31.3034C30.5137 33.7017 34.8987 33.635 39.2004 31.085C39.8737 30.685 40.3087 30.725 40.8454 31.1667C41.147 31.415 41.4854 31.6184 41.727 31.9134V31.915Z" fill="#D7E3F3"/>
<path d="M16.373 26.7052C16.5447 26.4652 16.488 26.1885 16.4914 25.9235C16.508 24.4169 16.5197 22.9085 16.533 21.4019C16.603 21.5269 16.6864 21.6452 16.7414 21.7769C17.3464 23.2235 18.4214 24.1235 19.9464 24.4485C20.3147 24.5269 20.4647 24.6985 20.5864 25.0085C21.1297 26.3919 21.9047 27.6385 22.9114 28.7319C23.1964 29.0419 23.2064 29.1902 22.838 29.4285C22.4247 29.6969 22.0164 30.0119 21.698 30.3835C21.3347 30.8102 21.0647 30.7219 20.658 30.4585C19.043 29.4152 17.603 28.1819 16.373 26.7035V26.7052Z" fill="#D7E3F3"/>
<path d="M14.8296 16.0483C14.8296 16.615 14.3263 17.1016 13.7479 17.0966C13.2479 17.0916 12.7513 16.5516 12.7529 16.0183C12.7546 15.405 13.2046 14.9566 13.8129 14.96C14.3929 14.965 14.8296 15.4316 14.8313 16.0483H14.8296Z" fill="#2E3192"/>
</g>
<defs>
<clipPath id="clip0_68_978">
<rect width="64" height="64" fill="white" transform="translate(0.5)"/>
</clipPath>
</defs>
</svg>
