<svg width="65" height="64" viewBox="0 0 65 64" fill="none" xmlns="http://www.w3.org/2000/svg">
<g clip-path="url(#clip0_68_890)">
<path d="M51.77 23.8833C52.7133 23.6283 52.9417 23.715 53.4967 24.5933C56.2 28.8767 58.9 33.1633 61.6 37.4483C62.2917 38.545 62.99 39.6383 63.6667 40.745C64.175 41.5767 64.3484 42.5183 64.355 43.4667C64.38 47.2333 64.3667 51.0017 64.365 54.77C64.365 56.7417 62.8067 58.1317 61.0167 58.13C41.9667 58.1117 22.915 58.1117 3.86501 58.13C2.12835 58.13 1.17001 57.185 0.515015 55.74V42.495C1.01668 40.53 2.32001 39.0033 3.35001 37.3317C5.12335 34.455 6.94668 31.6083 8.75001 28.75C8.93835 28.45 9.13001 28.1417 9.54335 28.1267C9.94001 28.1117 10.3567 28.085 10.595 28.4917C10.8583 28.94 10.8217 29.4217 10.5633 29.8467C9.85502 31.0067 9.11835 32.15 8.39168 33.2983C6.87168 35.7 5.35168 38.1017 3.82668 40.5C3.58168 40.8867 3.59335 41.0883 4.13168 41.0533C4.58501 41.0233 5.04168 41.1517 5.49501 41.0283C5.70001 41.0483 5.90501 41.085 6.11001 41.085C24.3267 41.085 42.5433 41.08 60.76 41.0717C60.93 41.0717 61.13 41.1567 61.2784 40.9883C61.2634 40.94 61.2583 40.8967 61.2383 40.8633C58.08 35.8517 54.9217 30.84 51.7617 25.83C51.0934 24.7717 51.0917 24.74 51.775 23.8833H51.77ZM4.75501 43.2383C4.19668 43.23 3.63668 43.23 3.07835 43.2083C2.77335 43.1967 2.61501 43.2783 2.63335 43.6217C2.65501 44.0567 2.64835 44.495 2.63335 44.93C2.62501 45.205 2.69001 45.3617 3.00835 45.3467C3.58668 45.32 4.16668 45.32 4.74668 45.3083C5.73835 45.3217 6.72835 45.335 7.72001 45.3467C8.58501 45.3567 9.02668 45.74 9.02502 46.4817C9.02502 47.0767 8.48835 47.5083 7.72501 47.5133C6.73335 47.52 5.74001 47.5167 4.74835 47.5183C4.19001 47.5033 3.63001 47.5067 3.07168 47.4683C2.69501 47.4433 2.62835 47.615 2.63001 47.945C2.64168 50.275 2.63335 52.605 2.64001 54.9367C2.64168 55.5117 3.11668 55.98 3.69001 55.985C4.12501 55.99 4.56001 55.9667 4.99501 55.9567C23.0733 55.9567 41.1517 55.9567 59.23 55.9733C59.7634 55.9733 59.9984 55.7883 60.065 55.31C60.0967 55.085 60.11 54.855 60.1117 54.6283C60.115 52.525 60.1133 50.4233 60.1133 48.32C60.1133 47.7844 59.8472 47.5167 59.315 47.5167C44.1867 47.5167 29.06 47.5167 13.9317 47.5167C13.745 47.5167 13.5567 47.5233 13.37 47.515C12.7117 47.485 12.2067 47.02 12.21 46.4517C12.2133 45.7867 12.6467 45.3733 13.3717 45.35C13.58 45.3433 13.7867 45.35 13.995 45.3483C29.5583 45.345 45.1233 45.34 60.6867 45.3367C62.2833 45.3367 62.27 45.3367 62.235 43.7167C62.2267 43.325 62.0967 43.2233 61.7283 43.2283C60.6483 43.2417 59.5684 43.2183 58.4867 43.2183C40.8234 43.2183 23.16 43.2183 5.49835 43.2183C5.25001 43.2183 5.00001 43.2317 4.75168 43.24L4.75501 43.2383Z" fill="#2E3192"/>
<path d="M51.77 23.8833C51.0867 24.74 51.09 24.7717 51.7567 25.83C54.9167 30.84 58.075 35.8517 61.2333 40.8633C61.255 40.8967 61.2583 40.94 61.2733 40.9883C61.125 41.1567 60.9267 41.0717 60.755 41.0717C42.5383 41.08 24.3217 41.0833 6.10499 41.085C5.89999 41.085 5.69499 41.0483 5.48999 41.0283C6.34166 39.655 7.18666 38.275 8.04832 36.9083C10.5917 32.875 13.145 28.8467 15.69 24.8133C15.765 24.6933 15.795 24.545 15.8467 24.41C15.965 24.44 16.0833 24.4933 16.2033 24.4983C18.0767 24.5683 19.775 25.1667 21.4017 26.0867C23.7917 27.4383 26.3783 28.275 29.1133 28.48C31.8517 28.6867 34.5483 28.42 37.1083 27.2833C39.975 26.01 42.2683 24.08 43.93 21.4133C44.3367 20.76 44.0067 19.9367 43.2917 19.7767C42.7867 19.6633 42.415 19.88 42.1283 20.305C41.665 20.9917 41.1867 21.6667 40.6167 22.2717C38.74 24.2583 36.4683 25.4733 33.7817 26.045C31.025 26.6317 28.355 26.42 25.6883 25.635C24.3533 25.2417 23.1317 24.61 21.925 23.9283C19.7317 22.6883 17.3317 22.2717 14.8483 22.225C14.9183 21.425 15.2467 20.7 15.565 19.985C16.4033 18.0983 17.4717 16.3617 18.9117 14.855C19.7 14.03 20.5083 13.2433 21.4333 12.5767C21.5883 12.465 21.725 12.3367 21.6983 12.1167V12.1283C21.7417 12.0967 21.7867 12.065 21.83 12.0333C22.5833 12.0733 23.3267 11.94 24.0917 11.975C25.5267 12.0433 26.8283 12.4933 28.1217 13.0233C29.41 13.5517 30.56 14.32 31.6667 15.1533C32.0733 15.46 32.5233 15.4817 32.9533 15.2833C33.4117 15.07 33.4817 14.63 33.4333 14.1633C33.3917 13.7633 33.0917 13.5583 32.815 13.345C31.285 12.1667 29.6167 11.2333 27.8183 10.535C28.5967 10.05 29.4833 9.83167 30.3267 9.50667C30.785 10.1883 31.35 10.2033 32.0933 9.94334C34.47 9.11334 36.9317 8.64834 39.4317 8.38667C40.86 8.23667 42.2733 8.30334 43.7017 8.48667C45.7517 8.75001 47.6583 9.32501 49.3317 10.5683C49.88 10.975 49.8767 11.0283 49.3117 11.3517C45.5717 13.5017 41.72 15.4067 37.5683 16.64C35.54 17.2433 33.4917 17.73 31.3683 17.8933C29.4283 18.0433 27.5433 17.715 25.6617 17.3517C23.5717 16.9483 21.5217 17.1333 19.48 17.63C18.8217 17.79 18.4683 18.33 18.6083 18.9067C18.7533 19.5 19.355 19.825 20.0083 19.675C22.165 19.1767 24.335 19.0717 26.4833 19.6467C28.3817 20.155 30.3083 20.1367 32.215 19.975C34.65 19.7667 37.0233 19.1317 39.3383 18.3483C43.0933 17.0783 46.6483 15.355 50.0867 13.39C51.5167 12.5733 51.565 12.5767 51.9633 14.195C52.0017 14.3533 51.99 14.5233 52.0067 14.6883C52.1917 16.475 51.4233 17.9133 50.3417 19.235C48.59 21.375 46.37 22.9417 44.035 24.3633C43.5383 24.665 43.01 24.915 42.52 25.2283C42.0017 25.56 41.8683 26.1517 42.1517 26.6433C42.47 27.195 42.97 27.3417 43.5533 27.0533C46.215 25.7367 48.5933 24.0167 50.7567 21.99C50.9167 22.7167 51.52 23.2067 51.765 23.8883L51.77 23.8833ZM26.0417 35.745C25.485 35.7483 24.96 36.2583 24.9567 36.8017C24.9533 37.3267 25.5183 37.8833 26.0367 37.865C26.6517 37.8417 27.0933 37.3967 27.0933 36.8C27.0933 36.1883 26.65 35.7417 26.0417 35.745ZM15.3567 36.845C15.3783 36.1383 14.995 35.8083 14.3 35.7533C13.78 35.7117 13.2217 36.31 13.2333 36.8317C13.245 37.3217 13.7967 37.865 14.2817 37.8667C14.9183 37.8683 15.3533 37.455 15.355 36.8467L15.3567 36.845ZM51.52 36.7683C51.5217 36.1383 51.12 35.7467 50.4667 35.7467C49.98 35.7467 49.4217 36.285 49.4 36.7733C49.3783 37.2683 49.97 37.8767 50.465 37.8683C51.1383 37.8567 51.5167 37.4617 51.5183 36.77L51.52 36.7683ZM37.7633 30.5017C37.09 30.5017 36.685 30.8683 36.68 31.4833C36.675 32.0683 37.1383 32.5133 37.755 32.5133C38.345 32.5133 38.7933 32.0883 38.8067 31.5167C38.8217 30.8983 38.4133 30.5 37.765 30.5017H37.7633ZM39.7983 36.7867C39.7983 36.14 39.4467 35.7533 38.845 35.745C38.235 35.7367 37.7867 36.18 37.785 36.7933C37.7833 37.3867 38.2217 37.8767 38.7467 37.865C39.4333 37.85 39.7967 37.4767 39.7983 36.785V36.7867ZM17.475 31.5383C17.4983 30.845 17.2117 30.5217 16.5533 30.5017C15.86 30.48 15.36 30.8717 15.355 31.4383C15.3517 31.9383 15.8717 32.4883 16.3683 32.51C17.0233 32.5383 17.4533 32.1617 17.475 31.5383ZM48.375 30.5017C47.7733 30.4967 47.3 30.8933 47.28 31.4167C47.2617 31.9367 47.8067 32.505 48.3333 32.5117C49.0067 32.5217 49.4033 32.1217 49.4017 31.435C49.3983 30.79 49.0867 30.5067 48.375 30.5017ZM28.1067 31.4883C28.1283 30.86 27.8483 30.525 27.28 30.5017C26.4867 30.4683 26.1067 30.75 26.0733 31.3967C26.0417 32.015 26.46 32.485 27.065 32.5117C27.6933 32.54 28.085 32.155 28.1067 31.4883Z" fill="#EAEAF4"/>
<path d="M50.7617 21.985C48.5984 24.0117 46.2184 25.7317 43.5584 27.0483C42.975 27.3367 42.475 27.19 42.1567 26.6383C41.8734 26.1467 42.0067 25.555 42.525 25.2233C43.0134 24.91 43.5434 24.66 44.04 24.3583C46.375 22.9367 48.595 21.37 50.3467 19.23C51.4267 17.91 52.1967 16.4717 52.0117 14.6833C51.995 14.52 52.0067 14.3483 51.9684 14.19C51.57 12.5717 51.5217 12.5683 50.0917 13.385C46.6534 15.35 43.1 17.075 39.3434 18.3433C37.0284 19.1267 34.655 19.7617 32.22 19.97C30.3134 20.1333 28.385 20.1517 26.4884 19.6417C24.34 19.0667 22.17 19.1717 20.0134 19.67C19.36 19.8217 18.7584 19.495 18.6134 18.9017C18.4734 18.3267 18.8267 17.785 19.485 17.625C21.5267 17.1283 23.5767 16.9433 25.6667 17.3467C27.5484 17.71 29.4317 18.0383 31.3734 17.8883C33.4967 17.7233 35.545 17.2383 37.5734 16.635C41.725 15.4017 45.5767 13.4967 49.3167 11.3467C49.88 11.0233 49.885 10.97 49.3367 10.5633C47.6634 9.32001 45.7567 8.74668 43.7067 8.48168C42.2784 8.29835 40.865 8.23168 39.4367 8.38168C36.9367 8.64335 34.4734 9.11001 32.0984 9.93835C31.3534 10.1983 30.79 10.185 30.3317 9.50168C30.21 8.57168 30.4967 8.20834 31.45 7.88335C33.45 7.20501 35.5 6.67668 37.5817 6.42168C39.695 6.16334 41.8267 6.00835 43.9834 6.34668C46.4167 6.72835 48.6984 7.37334 50.6834 8.89001C51.0817 9.19334 51.3867 9.79668 51.905 9.72334C52.3517 9.66001 52.7584 9.26168 53.1634 8.98335C54.4584 8.09668 55.7434 7.19668 57.0334 6.30168C57.15 6.22001 57.2634 6.12668 57.3884 6.06168C57.995 5.74668 58.5467 5.85668 58.8634 6.34501C59.1884 6.84668 59.0584 7.48001 58.5034 7.87168C57.3084 8.71501 56.1017 9.54001 54.8967 10.3683C54.4234 10.6933 53.95 11.02 53.465 11.3267C53.2484 11.4633 53.1834 11.6133 53.3067 11.8367C54.8317 14.6 54.3 17.1933 52.6467 19.6867C52.0984 20.5133 51.415 21.2333 50.7634 21.9783L50.7617 21.985Z" fill="#2E3192"/>
<path d="M14.85 22.2233C17.3333 22.27 19.735 22.6867 21.9266 23.9267C23.1333 24.6083 24.3533 25.2417 25.69 25.6333C28.355 26.4167 31.025 26.63 33.7833 26.0433C36.47 25.4717 38.7416 24.2567 40.6183 22.27C41.1883 21.6667 41.6666 20.99 42.13 20.3033C42.4166 19.88 42.7883 19.6617 43.2933 19.775C44.0083 19.9367 44.34 20.76 43.9316 21.4117C42.2683 24.0783 39.9766 26.0083 37.11 27.2817C34.55 28.4183 31.8516 28.685 29.115 28.4783C26.38 28.2717 23.7933 27.4367 21.4033 26.085C19.7766 25.165 18.0783 24.5667 16.205 24.4967C16.085 24.4917 15.9683 24.4383 15.8483 24.4083C14.3466 24.3033 12.895 24.5617 11.4716 25.0117C10.7816 25.2283 10.105 24.7833 10.1233 24.0683C10.155 22.8667 10.5316 21.735 10.9466 20.6233C11.255 19.795 11.6333 18.99 12.0233 18.195C12.2866 17.6583 12.9466 17.4483 13.5016 17.6567C13.965 17.83 14.1383 18.4767 13.895 19.175C13.5816 20.07 13.0716 20.8817 12.8233 21.8067C12.6433 22.4733 12.61 22.4283 13.26 22.3983C13.7983 22.375 14.3233 22.29 14.8533 22.2217L14.85 22.2233Z" fill="#2E3192"/>
<path d="M27.82 10.535C29.6183 11.2333 31.2866 12.1683 32.8166 13.345C33.0933 13.5583 33.3933 13.7617 33.435 14.1633C33.4833 14.63 33.4133 15.07 32.955 15.2833C32.525 15.4817 32.075 15.46 31.6683 15.1533C30.5616 14.32 29.4116 13.55 28.1233 13.0233C26.83 12.4933 25.5283 12.0417 24.0933 11.975C23.3283 11.9383 22.585 12.0733 21.8316 12.0333C21.7883 12.065 21.7433 12.0967 21.7 12.1283V12.1167C20.8433 12.2133 20.0933 12.5817 19.3783 13.0383C18.5216 13.585 17.9966 13.435 17.58 12.6C17.3166 12.07 17.6183 11.725 17.94 11.4767C19.065 10.6083 20.3666 10.1267 21.7633 9.88168C23.8466 9.51668 25.84 9.94501 27.8183 10.5367L27.82 10.535Z" fill="#2E3192"/>
<path d="M16.4834 15.0817C16.495 15.6067 15.985 16.1067 15.4117 16.1333C14.8767 16.1583 14.3784 15.6983 14.3617 15.1667C14.3434 14.58 14.825 14.0167 15.3417 14.0217C15.9367 14.0283 16.4717 14.5233 16.4834 15.08V15.0817Z" fill="#2E3192"/>
<path d="M4.74827 47.5183C5.73994 47.5183 6.73327 47.52 7.72494 47.5133C8.48827 47.5083 9.02328 47.0767 9.02494 46.4817C9.02494 45.74 8.58494 45.3567 7.71994 45.3467C6.72827 45.335 5.73827 45.3217 4.74661 45.3083C4.74994 44.6183 4.75161 43.9283 4.75494 43.2383C5.00327 43.2317 5.25327 43.2183 5.50161 43.2183C23.1649 43.2183 40.8283 43.2183 58.4899 43.2183C59.5699 43.2183 60.6516 43.2417 61.7316 43.2283C62.0999 43.2233 62.2299 43.325 62.2383 43.7167C62.2733 45.3367 62.2866 45.3367 60.6899 45.3367C45.1266 45.34 29.5616 45.345 13.9983 45.3483C13.7899 45.3483 13.5833 45.3433 13.3749 45.35C12.6499 45.3733 12.2149 45.7867 12.2133 46.4517C12.2116 47.02 12.7149 47.485 13.3733 47.515C13.5599 47.5233 13.7466 47.5167 13.9349 47.5167C29.0633 47.5167 44.1899 47.5167 59.3183 47.5167C59.8505 47.5167 60.1166 47.7844 60.1166 48.32C60.1166 50.4233 60.1166 52.525 60.1149 54.6283C60.1149 54.855 60.1016 55.085 60.0683 55.31C59.9999 55.79 59.7649 55.975 59.2333 55.9733C41.1549 55.955 23.0766 55.9567 4.99827 55.9567C4.78827 55.4283 4.73827 54.8817 4.74161 54.3133C4.75827 52.0483 4.74994 49.7833 4.74994 47.5183H4.74827Z" fill="#EAEAF4"/>
<path d="M26.0417 35.745C26.65 35.7417 27.0933 36.1883 27.0933 36.8C27.0933 37.3967 26.6517 37.8417 26.0367 37.865C25.52 37.885 24.9533 37.3267 24.9567 36.8017C24.96 36.2583 25.485 35.7467 26.0417 35.745Z" fill="#2E3192"/>
<path d="M15.3566 36.845C15.3533 37.455 14.92 37.8667 14.2833 37.865C13.7983 37.865 13.2466 37.32 13.235 36.83C13.2216 36.31 13.7816 35.71 14.3016 35.7517C14.9966 35.8067 15.38 36.1367 15.3583 36.8433L15.3566 36.845Z" fill="#2E3192"/>
<path d="M51.5183 36.7667C51.5167 37.46 51.1383 37.8533 50.465 37.865C49.97 37.8733 49.3783 37.2667 49.4 36.77C49.42 36.2817 49.98 35.7417 50.4667 35.7433C51.1183 35.7433 51.5217 36.135 51.52 36.765L51.5183 36.7667Z" fill="#2E3192"/>
<path d="M37.7617 30.5C38.41 30.5 38.8183 30.8967 38.8033 31.515C38.79 32.0867 38.3417 32.5117 37.7517 32.5117C37.1367 32.5117 36.6717 32.0667 36.6767 31.4817C36.6833 30.8667 37.0867 30.5017 37.76 30.5H37.7617Z" fill="#2E3192"/>
<path d="M39.7967 36.7867C39.7967 37.4783 39.4317 37.8517 38.745 37.8667C38.2217 37.8783 37.7817 37.3867 37.7833 36.795C37.785 36.1817 38.2333 35.7383 38.8433 35.7467C39.4433 35.755 39.7967 36.14 39.7967 36.7883V36.7867Z" fill="#2E3192"/>
<path d="M17.4733 31.5367C17.4516 32.16 17.0216 32.5367 16.3666 32.5083C15.87 32.4867 15.35 31.9367 15.3533 31.4367C15.3583 30.87 15.8583 30.4783 16.5516 30.5C17.2116 30.52 17.4983 30.8433 17.4733 31.5367Z" fill="#2E3192"/>
<path d="M48.3733 30.5C49.0866 30.505 49.3983 30.7883 49.3999 31.4333C49.4033 32.12 49.0066 32.52 48.3316 32.51C47.8049 32.5017 47.2599 31.935 47.2783 31.415C47.2966 30.8917 47.7699 30.495 48.3733 30.5Z" fill="#2E3192"/>
<path d="M28.105 31.4867C28.0816 32.1533 27.69 32.5383 27.0633 32.51C26.4583 32.4833 26.04 32.0133 26.0716 31.395C26.105 30.7483 26.485 30.4667 27.2783 30.5C27.8466 30.5233 28.1266 30.8583 28.105 31.4867Z" fill="#2E3192"/>
</g>
<defs>
<clipPath id="clip0_68_890">
<rect width="64" height="64" fill="white" transform="translate(0.5)"/>
</clipPath>
</defs>
</svg>
