<svg width="24" height="24" viewBox="0 0 24 24" fill="none" xmlns="http://www.w3.org/2000/svg">
<path d="M24 23.1105C23.8432 23.2827 23.7892 23.5244 23.599 23.6786C23.3677 23.8689 23.1235 24.0025 22.815 24H1.09245C0.55266 24 0.00516597 23.455 0.00516597 22.9151C0.00516597 21.4061 0.0103018 19.8997 2.01151e-05 18.3933C-0.0025503 17.8817 0.241637 17.4756 0.496109 17.0694C1.83015 14.9614 3.17706 12.8612 4.49054 10.7403C4.82212 10.2056 5.25396 9.98713 5.85286 9.99741C6.4235 10.0051 6.99412 9.99741 7.56475 9.99741C7.83979 9.99741 8.01201 10.1542 8.01458 10.3856C8.01715 10.6478 7.8655 10.7943 7.57504 10.7969C6.98898 10.7969 6.40293 10.8123 5.81687 10.7918C5.50842 10.7815 5.3285 10.9049 5.16913 11.1594C4.26692 12.6067 3.35184 14.0437 2.44192 15.4858C2.04093 16.1234 1.63995 16.7583 1.23639 17.3959C1.15157 17.5295 1.12073 17.6015 1.33921 17.6015C8.47212 17.5964 15.6025 17.6015 22.7354 17.6015C22.7585 17.6015 22.7816 17.5964 22.8228 17.5912C22.7199 17.3239 22.5426 17.1079 22.3986 16.8766C21.4193 15.3187 20.4323 13.766 19.4504 12.2108C19.2267 11.8586 19.0031 11.5038 18.7923 11.1439C18.6484 10.8997 18.4582 10.7866 18.1703 10.7943C17.6228 10.8072 17.0779 10.7995 16.5304 10.7943C16.4533 10.7943 16.3736 10.7943 16.2965 10.7866C16.078 10.7635 15.9392 10.6195 15.934 10.4139C15.9289 10.2056 16.0754 10.0205 16.2887 10.0051C16.5304 9.98713 16.772 9.9897 17.0136 9.99484C17.5123 10.0077 18.0109 9.95114 18.507 10.0283C18.8412 10.0797 19.1239 10.2159 19.3141 10.5167C20.3886 12.2133 21.4681 13.9074 22.5426 15.6041C22.9487 16.2468 23.342 16.8971 23.7507 17.5398C23.8689 17.7275 23.8792 17.9537 23.9949 18.1388V23.1079H24V23.1105ZM12.0013 18.4036H1.41118C1.21583 18.4036 0.956217 18.3367 0.845689 18.437C0.714598 18.5527 0.825128 18.82 0.799424 19.0205C0.778861 19.1876 0.855973 19.2108 0.999916 19.2082C1.57826 19.2005 2.1566 19.2082 2.73495 19.2082C2.89688 19.2082 3.04597 19.2442 3.13593 19.3907C3.31586 19.6838 3.10765 20 2.72209 20.0051C2.16688 20.0128 1.61167 20.0154 1.05903 20.0051C0.866249 20 0.794283 20.0308 0.799424 20.2519C0.814846 21.0565 0.817417 21.8611 0.799424 22.6658C0.791713 23.0591 0.927944 23.2133 1.33664 23.2133C8.44384 23.2056 15.551 23.2082 22.6582 23.2082C23.0567 23.2082 23.2032 23.0642 23.2057 22.6683C23.2057 21.8714 23.1955 21.0745 23.2135 20.2776C23.2186 20.0437 23.1492 20.0051 22.9307 20.0051C16.9648 20.0103 10.9963 20.0102 5.03033 20.0102C4.93779 20.0102 4.84269 20.0154 4.75015 20.0025C4.59079 19.9794 4.45198 19.9074 4.41857 19.7352C4.38001 19.5398 4.41857 19.3573 4.60621 19.2545C4.72445 19.1902 4.86325 19.2133 4.99434 19.2133H22.6608C23.2083 19.2133 23.198 19.2133 23.2135 18.6761C23.2186 18.4653 23.1672 18.4061 22.9487 18.4061C19.3013 18.4139 15.6539 18.4113 12.0064 18.4113L12.0013 18.4061V18.4036Z" fill="#008622"/>
<path d="M12.1427 0C12.4717 0.125964 12.7853 0.280205 13.0629 0.506426C13.2197 0.634961 13.4227 0.63753 13.613 0.60154C14.3301 0.465294 14.821 0.694086 15.0884 1.30077C15.2657 1.70437 15.5202 1.94601 15.9083 2.12082C16.2759 2.28791 16.5484 2.5527 16.6178 3.01028C16.6512 3.2365 16.6023 3.43701 16.5921 3.64524C16.5792 3.91002 16.6589 4.1311 16.8234 4.32133C17.3015 4.87403 17.2681 5.56554 16.8028 6.10539C16.5972 6.34189 16.5612 6.62467 16.6126 6.92544C16.7129 7.50899 16.5227 7.91001 16.0651 8.20307C15.9469 8.28019 15.8132 8.33675 15.6847 8.39587C15.4277 8.51155 15.2503 8.69665 15.1578 8.964C15.1038 9.12338 15.019 9.27248 14.9084 9.39587C14.8108 9.50384 14.8082 9.59124 14.8545 9.72749C15.1346 10.5553 15.4071 11.383 15.6667 12.2159C15.767 12.5398 15.7567 12.8637 15.4688 13.1002C15.1963 13.3239 14.9007 13.3882 14.5614 13.2236C14.3121 13.1028 14.0473 13.018 13.7903 12.9151C13.6798 12.8714 13.595 12.8792 13.4947 12.964C13.3045 13.1285 13.1014 13.2802 12.8932 13.4241C12.6362 13.6015 12.3509 13.6812 12.0553 13.5244C11.955 13.4704 11.8856 13.5295 11.8188 13.5553C11.5155 13.6684 11.2662 13.5681 11.0297 13.3933C10.8395 13.2519 10.6441 13.1182 10.4668 12.964C10.3511 12.8637 10.2508 12.8869 10.13 12.9357C9.85243 13.0514 9.56969 13.1542 9.28951 13.2699C8.97849 13.3984 8.70088 13.293 8.49268 13.09C8.27419 12.8766 8.18423 12.5861 8.29219 12.2673C8.57493 11.4267 8.85254 10.5835 9.13271 9.74034C9.17127 9.62723 9.19954 9.53212 9.08644 9.42158C8.9862 9.32647 8.91937 9.18251 8.87053 9.0514C8.74201 8.70179 8.51324 8.47042 8.16367 8.34703C7.99145 8.28533 7.83722 8.18508 7.70356 8.05397C7.39768 7.75577 7.30515 7.39587 7.3617 6.97685C7.41054 6.61696 7.35398 6.28277 7.10208 5.98714C6.67539 5.48071 6.71138 4.89459 7.10722 4.4113C7.3694 4.08997 7.42852 3.73779 7.32571 3.33676C7.23574 2.99229 7.53906 2.41131 7.89378 2.20822C8.02487 2.13367 8.15852 2.05912 8.29733 2.00514C8.57236 1.89974 8.72659 1.7018 8.83198 1.43188C9.08131 0.786633 9.55426 0.442159 10.328 0.606683C10.4976 0.642673 10.6878 0.63496 10.8395 0.529561C11.1351 0.329048 11.4409 0.143961 11.77 0.0025732H12.1452L12.1427 0ZM8.16109 3.58354C8.15338 4.1748 8.25106 4.15167 7.75754 4.83033C7.59046 5.05912 7.53134 5.30848 7.74211 5.53213C8.14053 5.95629 8.18937 6.46785 8.16367 7.01284C8.14567 7.44729 8.18937 7.51412 8.59549 7.67094C9.00676 7.83032 9.29465 8.09253 9.47972 8.50127C9.72905 9.0514 9.74704 9.06425 10.3537 9.03855C10.842 9.01798 11.2636 9.11824 11.644 9.44728C11.8831 9.65551 12.1015 9.61952 12.3663 9.40358C12.667 9.16194 12.9935 9.00255 13.3945 9.04111C13.5333 9.05397 13.6746 9.04111 13.816 9.04111C14.2041 9.04111 14.2864 8.96657 14.4406 8.59639C14.5511 8.33161 14.6951 8.08739 14.9341 7.89973C15.1372 7.74292 15.3711 7.66323 15.5896 7.55012C15.8081 7.43701 15.8672 7.23906 15.8287 7.05397C15.7104 6.49356 15.8441 6.01284 16.1911 5.57583C16.4198 5.29048 16.4224 5.10539 16.1911 4.82262C15.8544 4.41388 15.7361 3.94344 15.8004 3.42673C15.8466 3.05141 15.8261 2.94344 15.4894 2.80719C14.9573 2.59383 14.5897 2.23393 14.3944 1.69666C14.2838 1.39074 14.0525 1.29563 13.7492 1.36504C13.2145 1.48586 12.7801 1.31362 12.374 0.999998C12.0938 0.781489 11.8548 0.781492 11.5746 1.01028C11.1865 1.32648 10.7341 1.47043 10.2483 1.39331C9.78303 1.31876 9.72905 1.35218 9.55683 1.76349C9.35634 2.24164 9.03247 2.59126 8.53381 2.76092C8.25106 2.85861 8.09684 3.03084 8.15596 3.34704C8.17138 3.42159 8.15596 3.50385 8.15596 3.58097H8.16109V3.58354ZM9.04018 12.5038C9.34863 12.383 9.61595 12.3008 9.86271 12.1774C10.2637 11.9794 10.6133 11.9871 10.9449 12.3187C11.0811 12.4576 11.261 12.5527 11.423 12.6658C11.4692 12.6992 11.5026 12.7892 11.572 12.7429C11.626 12.7069 11.5952 12.6272 11.5977 12.5681C11.5977 11.982 11.5875 11.3959 11.6029 10.8098C11.6106 10.5038 11.6183 10.2288 11.2405 10.1337C11.1659 10.1157 11.1068 10.036 11.0374 9.98713C10.9114 9.89973 10.7804 9.83032 10.6133 9.8406C10.4411 9.85345 10.2688 9.84831 10.0992 9.8406C9.97581 9.83546 9.91926 9.86631 9.87556 10.0026C9.61338 10.82 9.33064 11.6349 9.04018 12.5013V12.5038ZM12.4023 12.7892C12.631 12.6169 12.8161 12.473 13.0063 12.3342C13.212 12.1851 13.397 11.9871 13.6978 12.0437C13.8571 12.0745 13.9934 12.1517 14.1425 12.2005C14.3944 12.2828 14.6257 12.4267 14.9239 12.473C14.6334 11.6067 14.3507 10.7686 14.0705 9.92801C14.0576 9.89202 14.0705 9.8406 14.0165 9.84574C13.6823 9.88173 13.3353 9.75063 13.0166 9.93314C12.8315 10.0385 12.6747 10.1876 12.4743 10.2648C12.392 10.2956 12.4074 10.3625 12.4074 10.419V12.7866H12.4023V12.7892Z" fill="#008622"/>
<path d="M5.5804 16.0128C5.5804 16.2082 5.3799 16.4061 5.17941 16.4061C4.97892 16.4061 4.781 16.2005 4.781 16.0051C4.781 15.7763 4.94294 15.6015 5.16142 15.6092C5.49301 15.6221 5.59582 15.802 5.57783 16.0103L5.5804 16.0128Z" fill="#008622"/>
<path d="M9.5594 15.6092C9.78303 15.6092 9.98609 15.784 9.98609 15.9846C9.98609 16.1953 9.78818 16.4036 9.58768 16.4061C9.38462 16.4061 9.18926 16.2005 9.18926 15.9846C9.18926 15.7686 9.33578 15.6118 9.5594 15.6092Z" fill="#008622"/>
<path d="M14.7671 16.0077C14.7671 16.2442 14.6077 16.4036 14.3687 16.4061C14.1784 16.4061 13.9702 16.1979 13.9702 16.0077C13.9702 15.8072 14.1836 15.6067 14.3944 15.6092C14.6257 15.6092 14.7645 15.7635 14.7671 16.0077Z" fill="#008622"/>
<path d="M19.1728 16.0103C19.1728 16.2236 18.9826 16.4087 18.7692 16.4061C18.5687 16.4061 18.3682 16.1851 18.3759 15.9768C18.3837 15.7943 18.6021 15.6041 18.8026 15.6092C19.0314 15.6144 19.1753 15.7712 19.1728 16.0103Z" fill="#008622"/>
<path d="M5.98652 13.6401C6.241 13.6401 6.3798 13.7738 6.37723 14.0077C6.37466 14.2545 6.22044 14.3959 5.96596 14.3907C5.77061 14.3907 5.58297 14.1954 5.5804 13.9974C5.57783 13.784 5.74234 13.6375 5.98652 13.6401Z" fill="#008622"/>
<path d="M13.9805 13.6401C14.2273 13.6401 14.3944 13.7815 14.3918 13.9923C14.3918 14.1902 14.1939 14.3882 13.9985 14.3882C13.7466 14.3882 13.5975 14.2468 13.595 13.9974C13.5924 13.7429 13.7029 13.6375 13.9805 13.6375V13.6401Z" fill="#008622"/>
<path d="M18.3759 14.0051C18.3759 14.2493 18.2217 14.3933 17.9672 14.3907C17.7719 14.3907 17.5842 14.2005 17.5791 14C17.574 13.7866 17.741 13.6375 17.9827 13.6401C18.2371 13.6401 18.3785 13.7738 18.3759 14.0051Z" fill="#008622"/>
<path d="M6.79364 12.3753C6.5443 12.3753 6.37209 12.2185 6.37723 11.9948C6.38237 11.7815 6.53917 11.6272 6.75765 11.6247C7.01727 11.6247 7.17149 11.7583 7.17406 11.9948C7.17406 12.2365 7.03783 12.3727 6.79364 12.3727V12.3753Z" fill="#008622"/>
<path d="M17.1601 12.3779C16.9468 12.3779 16.79 12.2262 16.7823 12.0077C16.7771 11.784 16.9365 11.6272 17.173 11.6247C17.4197 11.6247 17.574 11.7583 17.5791 11.982C17.5868 12.2339 17.4377 12.3727 17.1601 12.3753V12.3779Z" fill="#008622"/>
<path d="M9.95525 13.6401C10.2611 13.6401 10.3588 13.7249 10.3614 14C10.3614 14.2493 10.22 14.3907 9.96039 14.3907C9.77275 14.3907 9.56455 14.1825 9.56455 13.9948C9.56455 13.8072 9.74191 13.6401 9.95525 13.6401Z" fill="#008622"/>
<path d="M11.955 8.39073C10.202 8.42929 8.76258 6.92287 8.78057 5.18508C8.80113 3.44215 10.1275 2.09254 11.7751 2.02056C13.834 1.92802 15.1192 3.46786 15.1861 5.04883C15.2683 6.96914 13.6952 8.44471 11.955 8.39073ZM11.9345 7.59639C13.2351 7.64009 14.3584 6.57583 14.3866 5.27249C14.4201 3.8946 13.3739 2.87917 12.1067 2.8149C10.603 2.74035 9.59539 3.88945 9.5774 5.19022C9.55941 6.40616 10.5156 7.58354 11.9319 7.59382L11.9345 7.59639Z" fill="#008622"/>
<path d="M11.1736 6.37274C11.0554 6.39588 10.9654 6.36246 10.8832 6.26991C10.7752 6.14652 10.6518 6.03855 10.5387 5.9203C10.3717 5.74549 10.3562 5.47814 10.5002 5.32133C10.6133 5.19793 10.896 5.15938 11.0862 5.35218C11.1839 5.44986 11.2456 5.45243 11.3561 5.35989C11.8599 4.93573 12.3714 4.52442 12.8855 4.11053C13.0577 3.97172 13.397 4.0077 13.5127 4.16452C13.6566 4.35989 13.6001 4.56812 13.3765 4.74806C12.7853 5.22107 12.2018 5.70436 11.6106 6.1748C11.4846 6.27505 11.3613 6.40873 11.1711 6.37274H11.1736Z" fill="#008622"/>
</svg>
