<svg width="136" height="24" viewBox="0 0 136 24" fill="none" xmlns="http://www.w3.org/2000/svg">
<path d="M28.9962 11.6C28.7607 12.0828 28.3832 12.2263 27.8693 12.2244C24.2757 12.2069 20.684 12.2031 17.0904 12.2244C15.9018 12.2302 14.9058 11.823 14.0611 10.9698C13.6668 10.5723 13.2015 10.2969 12.6726 10.1437C12.5754 10.1146 12.4951 10.1166 12.4091 10.2C11.8672 10.71 11.2318 10.9485 10.4955 10.9388C9.49573 10.9233 8.49594 10.9562 7.49616 10.9271C6.86826 10.9077 6.29642 10.6576 5.78999 10.2698C5.07986 9.72683 4.63509 8.98803 4.46691 8.09992C4.28003 7.11679 4.51549 6.20735 5.09294 5.40843C5.66852 4.60758 6.43471 4.14414 7.41207 4.04718C8.02876 3.98707 8.64358 4.02197 9.26027 4.01228C9.99095 4.00064 10.7235 3.99095 11.4542 4.01422C12.1456 4.03555 12.6988 4.33223 13.0146 5.00704C13.1267 5.24749 13.1566 5.50539 13.1361 5.76523C13.1249 5.91648 13.1921 5.97271 13.3099 6.04446C13.8817 6.39544 14.3732 6.15693 14.8591 5.84085C15.1786 5.63337 15.4552 5.3619 15.7934 5.17962C16.1728 4.97601 16.5764 4.87518 17.0007 4.87324C18.2695 4.86936 19.5366 4.85579 20.8054 4.87712C22.1622 4.90039 23.4684 5.21064 24.7429 5.69154C25.4044 5.94169 26.0996 6.05803 26.8023 6.13754C27.1835 6.1802 27.561 6.17826 27.9385 6.1705C28.4412 6.16081 28.8093 6.33727 28.9981 6.84143V11.6H28.9962ZM7.33171 4.9256C6.02732 5.11175 5.03875 6.51954 5.28542 7.87886C5.4424 8.75146 5.90772 9.38361 6.65148 9.7947C6.85891 9.9091 7.0813 10.0216 7.33171 10.0158C7.4102 10.0332 7.4756 10.0836 7.56344 10.0817C8.57069 10.0739 9.57982 10.0739 10.5871 10.0681C11.4168 10.0623 12.1307 9.53486 12.2839 8.76503C12.297 8.70104 12.3288 8.63899 12.3549 8.57694C12.4409 8.36945 12.6091 8.3423 12.7997 8.35588C12.9716 8.36751 13.0426 8.46641 13.1043 8.62735C13.1734 8.81157 13.0819 8.94924 13.0501 9.10631C13.0239 9.23042 12.9978 9.3584 13.166 9.41075C13.8069 9.60466 14.3059 10.0235 14.788 10.485C15.3505 11.0241 16.0196 11.3324 16.7988 11.346C17.1165 11.3518 17.4323 11.3499 17.75 11.3479C21.1325 11.3479 24.5149 11.3421 27.8955 11.3479C28.1048 11.3479 28.1758 11.3053 28.1683 11.0726C28.1497 10.5509 28.1534 10.0274 28.1683 9.50383C28.1739 9.28277 28.1272 9.20327 27.8936 9.20521C26.479 9.2149 25.0643 9.20908 23.6497 9.20327C22.8555 9.19939 22.0687 9.12764 21.3268 8.81157C20.4223 8.42569 19.4805 8.29964 18.5125 8.31903C18.1219 8.32679 17.7313 8.32873 17.3426 8.3171C16.9838 8.30546 16.8063 7.94867 16.9988 7.64423C17.1053 7.47746 17.2828 7.46001 17.4529 7.46001C18.0229 7.45613 18.591 7.43868 19.1591 7.46389C19.8991 7.49491 20.6298 7.61126 21.3231 7.89631C21.794 8.09022 22.2799 8.28607 22.7807 8.29383C24.5112 8.32485 26.2435 8.3074 27.9759 8.31516C28.131 8.31516 28.1702 8.25892 28.1646 8.10961C28.1553 7.81487 28.1553 7.51818 28.1646 7.22344C28.1702 7.07413 28.1141 7.04116 27.9815 7.03922C27.5853 7.03147 27.191 7.03922 26.7929 6.9985C25.9838 6.91318 25.1877 6.77163 24.4234 6.48658C23.2348 6.04446 22.0201 5.74778 20.755 5.7342C19.5197 5.72063 18.2826 5.72839 17.0474 5.7342C16.6325 5.7342 16.2513 5.85443 15.9186 6.12009C15.7448 6.25776 15.5692 6.39544 15.3842 6.51954C14.6423 7.02177 13.8873 7.29906 13.0015 6.84531C12.3381 6.50597 12.3493 6.59711 12.3512 5.8331C12.3512 5.24167 12.0129 4.86742 11.4486 4.87518C10.0769 4.89263 8.70525 4.80925 7.33358 4.92366L7.33171 4.9256Z" fill="#2E3192"/>
<path d="M28.9963 18.9919C28.9271 19.0384 28.9309 19.1237 28.9028 19.1897C28.6842 19.7035 28.2936 19.9537 27.7666 19.9983C27.718 20.0021 27.6694 19.9983 27.6209 19.9983C20.2075 19.9983 12.7942 19.9983 5.3808 19.9983C4.69496 19.9983 4.2558 19.6667 4.04837 19.0151C4.011 18.8969 4.01847 18.7824 4.0166 18.668C4.01287 17.9855 4.01473 17.301 4.0166 16.6184C4.0166 16.3043 4.15863 16.1181 4.39783 16.1123C4.65946 16.1065 4.84259 16.2984 4.84446 16.6145C4.85007 17.3068 4.85194 17.9971 4.84446 18.6894C4.84259 18.9124 4.95846 19.0268 5.13412 19.0985C5.19953 19.1257 5.27615 19.1315 5.34903 19.1334C5.48731 19.1373 5.6256 19.1334 5.76389 19.1295C5.84425 19.1315 5.92647 19.1373 6.00683 19.1373C12.9941 19.1373 19.9795 19.1373 26.9668 19.1373C27.0565 19.1373 27.1462 19.1334 27.234 19.1295C27.363 19.1334 27.4938 19.1392 27.6227 19.1373C28.0077 19.1334 28.1647 18.9667 28.1665 18.5672C28.1665 17.8517 28.1665 17.1381 28.1665 16.4225C28.1665 15.7574 28.1684 15.0943 28.1665 14.4291C28.1665 14.1131 28.0264 13.9735 27.7218 13.9754C27.576 13.9754 27.4302 13.9812 27.2845 13.9851C27.1836 13.9056 27.0658 13.9308 26.9556 13.9308C23.6554 13.9308 20.3551 13.9153 17.0549 13.9386C15.9299 13.9463 14.9096 13.6496 13.9584 13.0563C13.5958 12.8313 13.2165 12.6626 12.796 12.6626C10.4545 12.6549 8.11292 12.6607 5.77323 12.6626C5.61813 12.6607 5.46489 12.6549 5.30978 12.6568C5.00144 12.6607 4.90426 12.7499 4.8482 13.0757C4.81082 13.2986 4.71552 13.4654 4.48192 13.51C4.29131 13.5469 4.16984 13.4344 4.07454 13.2967C3.96241 13.1338 3.99792 12.936 4.04464 12.7654C4.21095 12.1526 4.67814 11.7939 5.29857 11.7939C7.76907 11.792 10.2414 11.7881 12.7119 11.7958C13.3193 11.7978 13.8762 11.9975 14.3975 12.3252C15.132 12.7867 15.915 13.0737 16.7895 13.0737C20.3981 13.0698 24.0086 13.0737 27.6171 13.0757C28.1254 13.0757 28.5515 13.254 28.8243 13.7233C28.8972 13.8494 28.9421 13.9928 29 14.1266V18.9861L28.9963 18.9919Z" fill="#2E3192"/>
<path d="M27.2358 19.1334C27.1461 19.1354 27.0564 19.1412 26.9686 19.1412C19.9813 19.1412 12.9959 19.1412 6.00863 19.1412C5.92827 19.1412 5.84605 19.1354 5.76569 19.1334C5.66851 18.8678 5.67599 18.5905 5.67786 18.3132C5.67786 16.6533 5.67973 14.9915 5.67786 13.3316C5.67786 13.1028 5.68533 12.8779 5.77316 12.6665C8.11471 12.6665 10.4563 12.6607 12.7959 12.6665C13.2164 12.6665 13.5958 12.8352 13.9583 13.0601C14.9095 13.6535 15.9299 13.9502 17.0548 13.9424C20.3551 13.9192 23.6553 13.9347 26.9555 13.9347C27.0676 13.9347 27.1854 13.9095 27.2863 13.989C27.3648 14.3438 27.3386 14.7064 27.3405 15.0652C27.3405 16.1996 27.3386 17.3339 27.3442 18.4683C27.3442 18.6991 27.3274 18.9201 27.2396 19.1315L27.2358 19.1334ZM24.8457 15.6954C24.5915 15.6954 24.4177 15.8563 24.414 16.0987C24.4103 16.3178 24.6252 16.566 24.8139 16.5583C25.0344 16.5505 25.2381 16.3469 25.2419 16.1297C25.2475 15.8699 25.0886 15.6973 24.8457 15.6954ZM13.5808 16.1142C13.5827 15.8641 13.4351 15.7012 13.1959 15.6954C12.9286 15.6896 12.7455 15.8602 12.7492 16.1123C12.7511 16.3178 12.9623 16.5563 13.1417 16.5602C13.3659 16.5641 13.579 16.3489 13.5808 16.1162V16.1142ZM26.4995 17.4192C26.2473 17.4192 26.0622 17.6112 26.0697 17.8614C26.0753 18.0475 26.2902 18.2802 26.4603 18.2822C26.7126 18.2841 26.8994 18.0999 26.9013 17.8497C26.9013 17.5899 26.7425 17.4192 26.4995 17.4192ZM26.5107 15.6954C26.2603 15.6915 26.0753 15.8602 26.0697 16.0948C26.0641 16.3081 26.2828 16.5622 26.4696 16.5583C26.6976 16.5544 26.9013 16.3411 26.9013 16.1065C26.9013 15.8563 26.7518 15.6973 26.5107 15.6954ZM23.1806 15.6954C22.9283 15.6954 22.7545 15.8583 22.7527 16.1026C22.7508 16.3237 22.9639 16.566 23.1545 16.5602C23.3843 16.5525 23.5843 16.3353 23.5805 16.1007C23.5768 15.8641 23.4105 15.6973 23.1806 15.6954ZM9.43219 16.0851C9.42284 16.3062 9.6228 16.5525 9.81715 16.5583C10.0395 16.566 10.2563 16.3489 10.26 16.1162C10.2657 15.8815 10.1049 15.707 9.86948 15.6954C9.6228 15.6818 9.44153 15.8428 9.43032 16.0851H9.43219ZM11.9195 16.1123C11.9214 15.8738 11.7607 15.6993 11.5327 15.6954C11.2785 15.6896 11.101 15.8486 11.0935 16.089C11.086 16.3101 11.2916 16.5563 11.4841 16.5583C11.7102 16.5583 11.9195 16.3469 11.9214 16.1104L11.9195 16.1123ZM21.5006 15.6954C21.267 15.6934 21.1007 15.8563 21.0932 16.091C21.0858 16.314 21.2876 16.5563 21.4838 16.5583C21.7062 16.5622 21.9192 16.343 21.9211 16.1104C21.923 15.866 21.7529 15.6973 21.5006 15.6954ZM14.8329 17.4192C14.6199 17.4231 14.4106 17.6364 14.4087 17.8497C14.4087 18.0456 14.6367 18.288 14.8142 18.2802C15.0852 18.2686 15.2496 18.0882 15.2422 17.8109C15.2347 17.5686 15.0758 17.4154 14.8329 17.4192ZM21.0932 17.8381C21.0914 18.0436 21.2913 18.2744 21.4763 18.2802C21.7006 18.288 21.9155 18.0747 21.9211 17.84C21.9267 17.5957 21.7529 17.4193 21.5081 17.4173C21.2614 17.4173 21.097 17.5841 21.0932 17.8362V17.8381ZM9.862 17.4192C9.61346 17.4115 9.43406 17.5821 9.43219 17.8284C9.43219 18.0436 9.62841 18.2744 9.81715 18.2802C10.0451 18.288 10.2582 18.0727 10.2619 17.8342C10.2638 17.5976 10.0975 17.4251 9.862 17.4173V17.4192ZM13.1884 17.4192C12.9454 17.4115 12.7567 17.5841 12.7511 17.8187C12.7455 18.0243 12.9417 18.2647 13.1248 18.2802C13.3454 18.2977 13.5771 18.0863 13.5827 17.8594C13.5902 17.6015 13.4313 17.427 13.1884 17.4192ZM22.7545 17.8206C22.7489 18.0339 22.9414 18.2705 23.1302 18.2822C23.3563 18.2957 23.5749 18.0844 23.5824 17.8459C23.5899 17.6073 23.4273 17.4309 23.1918 17.4212C22.9414 17.4096 22.7602 17.5763 22.7527 17.8226L22.7545 17.8206ZM24.8401 17.4192C24.5934 17.4154 24.4252 17.5783 24.4159 17.8323C24.4084 18.0359 24.6121 18.2763 24.7971 18.2822C25.0232 18.2899 25.24 18.0785 25.2419 17.8497C25.2437 17.5957 25.083 17.4231 24.8382 17.4192H24.8401ZM13.1622 13.9793C12.9118 13.9793 12.7436 14.1499 12.7511 14.3962C12.7586 14.6347 12.938 14.7976 13.1921 14.7937C13.4313 14.7898 13.5827 14.6308 13.5827 14.3787C13.5827 14.1169 13.4332 13.9754 13.1622 13.9773V13.9793ZM16.8979 17.8478C16.8997 17.5744 16.7577 17.4192 16.5054 17.4192C16.2924 17.4192 16.0644 17.6364 16.0681 17.8362C16.0719 18.0339 16.3129 18.286 16.4905 18.2822C16.7278 18.2763 16.8941 18.0979 16.896 17.8478H16.8979ZM6.89629 17.8575C6.90002 17.555 6.7879 17.4231 6.52253 17.4192C6.27773 17.4154 6.11888 17.5666 6.11141 17.8109C6.10393 18.0747 6.2852 18.3015 6.51319 18.2783C6.74305 18.255 6.94487 18.0979 6.89629 17.8594V17.8575ZM9.85266 13.9793C9.59477 13.9793 9.43406 14.1344 9.43406 14.3826C9.43406 14.6192 9.60038 14.7898 9.82836 14.7937C10.0825 14.7976 10.2563 14.6347 10.2619 14.3923C10.2675 14.1441 10.1031 13.9793 9.85266 13.9773V13.9793ZM11.514 14.7937C11.7476 14.7956 11.9139 14.6347 11.9214 14.3981C11.9288 14.148 11.7681 13.9812 11.5177 13.9793C11.2617 13.9793 11.0954 14.1344 11.0935 14.3787C11.0916 14.6231 11.2617 14.7918 11.514 14.7937ZM16.5054 15.6954C16.2905 15.6954 16.0625 15.9164 16.07 16.1181C16.0775 16.3004 16.3167 16.5563 16.483 16.5583C16.7259 16.5622 16.8997 16.3702 16.8979 16.1026C16.896 15.8466 16.7502 15.6954 16.5054 15.6973V15.6954ZM11.5102 18.2317C11.7663 18.2317 11.9176 18.0921 11.9214 17.8517C11.9251 17.5976 11.7644 17.4231 11.5196 17.4192C11.2729 17.4134 11.0954 17.5841 11.0935 17.8284C11.0935 18.0747 11.2542 18.2337 11.5102 18.2337V18.2317ZM18.5573 17.8303C18.5573 17.5724 18.4153 17.4212 18.1761 17.4173C17.9257 17.4154 17.7687 17.5783 17.7724 17.8381C17.7743 18.0844 17.9612 18.286 18.178 18.2783C18.4116 18.2686 18.5592 18.096 18.5573 17.8284V17.8303ZM20.2168 16.1104C20.2168 15.8137 20.099 15.6915 19.8262 15.6934C19.587 15.6954 19.4356 15.8544 19.4338 16.1026C19.4338 16.3256 19.6412 16.5622 19.8318 16.5583C20.0561 16.5525 20.2186 16.3644 20.2168 16.1104ZM8.55574 16.1181C8.55574 15.8137 8.45109 15.6973 8.17825 15.6954C7.94653 15.6954 7.78021 15.8583 7.7746 16.0968C7.76899 16.3198 7.97456 16.5602 8.16891 16.5602C8.40063 16.5602 8.55574 16.3818 8.55574 16.12V16.1181ZM6.89629 16.122C6.89629 15.8214 6.78603 15.6954 6.51506 15.6934C6.26465 15.6934 6.10954 15.8544 6.11141 16.1142C6.11328 16.3237 6.32258 16.5622 6.49637 16.5544C6.74118 16.5428 6.89442 16.376 6.89629 16.122ZM20.2168 17.8497C20.2168 17.5434 20.1009 17.4134 19.8356 17.4173C19.5889 17.4212 19.4282 17.5957 19.4338 17.8555C19.4375 18.0495 19.6375 18.2725 19.815 18.2802C20.0467 18.2899 20.2168 18.1076 20.2168 17.8497ZM14.8329 16.5098C15.0945 16.5117 15.244 16.3663 15.244 16.1045C15.244 15.8563 15.0926 15.6973 14.8553 15.6954C14.6124 15.6915 14.4218 15.8641 14.4124 16.0948C14.4031 16.3178 14.5956 16.5079 14.8329 16.5098ZM8.55574 17.8614C8.55574 17.5472 8.44922 17.4173 8.1876 17.4173C7.93905 17.4173 7.7746 17.588 7.7746 17.842C7.7746 18.0495 7.98203 18.2802 8.16891 18.2783C8.39503 18.2783 8.55574 18.1057 8.55574 17.8614ZM18.5592 16.1084C18.5592 15.8214 18.4377 15.6915 18.1668 15.6934C17.9276 15.6954 17.7762 15.8525 17.7743 16.0987C17.7743 16.3081 17.9687 16.5505 18.1443 16.5544C18.3835 16.5602 18.5592 16.3702 18.5592 16.1084ZM8.55574 14.3807C8.55574 14.0762 8.46791 13.9793 8.19133 13.9773C7.92223 13.9773 7.769 14.1247 7.77273 14.3787C7.77647 14.6231 7.93531 14.7898 8.16517 14.7918C8.44175 14.7956 8.55387 14.6754 8.55574 14.3787V14.3807ZM6.89629 14.3729C6.89629 14.0898 6.7935 13.9812 6.5188 13.9793C6.25717 13.9773 6.10954 14.1266 6.11328 14.3904C6.11701 14.6366 6.26838 14.7937 6.50945 14.7937C6.78229 14.7937 6.89629 14.6696 6.89629 14.3729Z" fill="#A8C3E4"/>
<path d="M4.01662 14.8073C4.01848 14.5765 4.19228 14.3884 4.40345 14.3865C4.63144 14.3865 4.85195 14.6056 4.84447 14.8286C4.837 15.0516 4.63704 15.2436 4.41092 15.2455C4.19415 15.2494 4.01475 15.0477 4.01662 14.8073Z" fill="#2E3192"/>
<path d="M7.33174 4.92557C8.70153 4.81116 10.0751 4.89261 11.4467 4.87709C12.0111 4.86934 12.3493 5.24358 12.3493 5.83501C12.3493 6.59902 12.3381 6.50982 12.9997 6.84723C13.8873 7.30098 14.6404 7.02368 15.3823 6.52146C15.5655 6.39735 15.7411 6.25968 15.9168 6.122C16.2513 5.85634 16.6325 5.73806 17.0455 5.73612C18.2808 5.73224 19.5179 5.72448 20.7531 5.73612C22.0202 5.74969 23.233 6.04831 24.4215 6.48849C25.1877 6.77354 25.9819 6.91316 26.7911 7.00042C27.1891 7.04308 27.5834 7.03338 27.9796 7.04114C28.1123 7.04308 28.1684 7.07604 28.1628 7.22535C28.1534 7.5201 28.1534 7.81678 28.1628 8.11152C28.1665 8.26084 28.1291 8.31901 27.974 8.31707C26.2417 8.30931 24.5112 8.32677 22.7789 8.29574C22.2762 8.28604 21.7922 8.09213 21.3212 7.89822C20.6261 7.61317 19.8973 7.49683 19.1572 7.4658C18.5891 7.44253 18.0192 7.45804 17.451 7.46192C17.2791 7.46192 17.1035 7.47937 16.9969 7.64614C16.8026 7.95058 16.9801 8.30737 17.3408 8.31901C17.7314 8.33064 18.1219 8.33064 18.5106 8.32095C19.4787 8.30156 20.4205 8.4276 21.325 8.81348C22.0669 9.12956 22.8536 9.2013 23.6478 9.20518C25.0625 9.211 26.4771 9.21682 27.8918 9.20712C28.1254 9.20712 28.174 9.28468 28.1665 9.50574C28.1515 10.0293 28.1497 10.5529 28.1665 11.0745C28.174 11.3052 28.103 11.3498 27.8937 11.3498C24.5112 11.344 21.1288 11.3498 17.7482 11.3498C17.4305 11.3498 17.1147 11.3518 16.797 11.3479C16.0177 11.3343 15.3487 11.0241 14.7862 10.4869C14.3041 10.0254 13.8051 9.60658 13.1641 9.41267C12.9959 9.36225 13.024 9.23427 13.0483 9.10823C13.08 8.95116 13.1735 8.81154 13.1025 8.62927C13.0408 8.46832 12.9698 8.37136 12.7978 8.35779C12.6072 8.34422 12.439 8.37136 12.3531 8.57885C12.3269 8.6409 12.2952 8.70101 12.2821 8.76694C12.127 9.53677 11.415 10.0642 10.5852 10.07C9.57798 10.0758 8.56885 10.0758 7.56159 10.0836C7.47376 10.0836 7.40836 10.0351 7.32987 10.0177C7.32987 9.94204 7.28128 9.89356 7.22709 9.85478C6.92995 9.63954 6.71505 9.35255 6.52817 9.0326C5.76198 7.73534 6.05351 6.03474 7.214 5.10397C7.27194 5.05743 7.32987 5.01089 7.33174 4.92363V4.92557Z" fill="#EAEAF4"/>
<path d="M27.2358 19.1334C27.3236 18.9221 27.3423 18.6991 27.3404 18.4703C27.3348 17.3359 27.3404 16.2015 27.3367 15.0671C27.3367 14.7065 27.3629 14.3458 27.2825 13.9909C27.4283 13.987 27.574 13.9812 27.7198 13.9812C28.0244 13.9812 28.1646 14.1189 28.1646 14.435C28.1683 15.1001 28.1646 15.7633 28.1646 16.4284C28.1646 17.1439 28.1646 17.8575 28.1646 18.573C28.1646 18.9725 28.0057 19.1393 27.6208 19.1431C27.4918 19.1431 27.361 19.1373 27.2321 19.1354L27.2358 19.1334Z" fill="#7DA6D7"/>
<path d="M24.8457 15.6973C25.0886 15.6973 25.2456 15.8719 25.2418 16.1317C25.2381 16.3489 25.0344 16.5525 24.8139 16.5602C24.6252 16.5661 24.4103 16.3198 24.414 16.1007C24.4177 15.8583 24.5915 15.6954 24.8457 15.6973Z" fill="#2E3192"/>
<path d="M13.5809 16.1162C13.579 16.3508 13.366 16.5661 13.1417 16.5602C12.9623 16.5564 12.7511 16.3178 12.7493 16.1123C12.7455 15.8602 12.9305 15.6896 13.1959 15.6954C13.4332 15.7012 13.5827 15.8641 13.5809 16.1142V16.1162Z" fill="#2E3192"/>
<path d="M26.4996 17.4193C26.7426 17.4193 26.9033 17.5899 26.9014 17.8497C26.9014 18.0999 26.7127 18.2841 26.4604 18.2822C26.2903 18.2822 26.0754 18.0495 26.0698 17.8614C26.0623 17.6112 26.2473 17.4212 26.4996 17.4193Z" fill="#2E3192"/>
<path d="M26.5108 15.6973C26.7519 15.6993 26.9014 15.8583 26.9014 16.1084C26.9014 16.3431 26.6977 16.5564 26.4697 16.5602C26.2828 16.5622 26.0623 16.3101 26.0698 16.0968C26.0754 15.8602 26.2604 15.6935 26.5108 15.6973Z" fill="#2E3192"/>
<path d="M23.1807 15.6973C23.4124 15.6973 23.5769 15.866 23.5806 16.1026C23.5844 16.3372 23.3825 16.5544 23.1545 16.5622C22.9639 16.568 22.7509 16.3256 22.7528 16.1045C22.7546 15.8622 22.9284 15.6973 23.1807 15.6973Z" fill="#2E3192"/>
<path d="M9.43225 16.0871C9.44346 15.8447 9.62473 15.6838 9.87141 15.6973C10.105 15.7109 10.2657 15.8835 10.262 16.1181C10.2564 16.3527 10.0396 16.568 9.81908 16.5602C9.62473 16.5544 9.42478 16.3062 9.43412 16.0871H9.43225Z" fill="#2E3192"/>
<path d="M11.9196 16.1143C11.9177 16.3508 11.7084 16.5641 11.4823 16.5622C11.2898 16.5622 11.0843 16.314 11.0918 16.0929C11.1011 15.8505 11.2768 15.6935 11.5309 15.6993C11.7608 15.7032 11.9215 15.8777 11.9177 16.1162L11.9196 16.1143Z" fill="#2E3192"/>
<path d="M21.5007 15.6973C21.7511 15.6993 21.923 15.868 21.9212 16.1123C21.9193 16.3469 21.7063 16.5641 21.4839 16.5602C21.2895 16.5583 21.0877 16.3159 21.0933 16.0929C21.1008 15.8564 21.269 15.6954 21.5007 15.6973Z" fill="#2E3192"/>
<path d="M14.8311 17.4193C15.074 17.4154 15.2329 17.5686 15.2403 17.811C15.2478 18.0902 15.0833 18.2705 14.8124 18.2802C14.6348 18.288 14.4069 18.0437 14.4069 17.8497C14.4069 17.6364 14.618 17.4231 14.8311 17.4193Z" fill="#2E3192"/>
<path d="M21.0914 17.8381C21.0933 17.586 21.2596 17.4173 21.5062 17.4193C21.7529 17.4193 21.9248 17.5977 21.9192 17.842C21.9136 18.0766 21.7006 18.2899 21.4745 18.2822C21.2895 18.2764 21.0895 18.0456 21.0914 17.8401V17.8381Z" fill="#2E3192"/>
<path d="M9.86023 17.4193C10.0957 17.4251 10.262 17.5996 10.2601 17.8362C10.2583 18.0747 10.0452 18.288 9.81538 18.2822C9.62664 18.2763 9.43042 18.0456 9.43042 17.8303C9.43042 17.5841 9.60982 17.4134 9.86023 17.4212V17.4193Z" fill="#2E3192"/>
<path d="M13.1865 17.4193C13.4295 17.427 13.5865 17.6035 13.5809 17.8594C13.5752 18.0863 13.3435 18.2977 13.123 18.2802C12.9399 18.2647 12.7455 18.0243 12.7493 17.8187C12.7549 17.5841 12.9436 17.4096 13.1865 17.4193Z" fill="#2E3192"/>
<path d="M22.7527 17.8207C22.7584 17.5763 22.9415 17.4096 23.1919 17.4193C23.4255 17.429 23.5881 17.6073 23.5825 17.8439C23.575 18.0824 23.3564 18.2938 23.1302 18.2802C22.9415 18.2686 22.749 18.034 22.7546 17.8187L22.7527 17.8207Z" fill="#2E3192"/>
<path d="M24.8382 17.4193C25.0831 17.4231 25.2438 17.5957 25.2419 17.8497C25.24 18.0786 25.0214 18.288 24.7971 18.2822C24.6121 18.2763 24.4084 18.0359 24.4159 17.8323C24.4253 17.5783 24.5916 17.4154 24.8401 17.4193H24.8382Z" fill="#2E3192"/>
<path d="M13.1604 13.9812C13.4314 13.9812 13.579 14.1208 13.5809 14.3826C13.5809 14.6328 13.4314 14.7937 13.1903 14.7976C12.9361 14.8015 12.7549 14.6386 12.7493 14.4001C12.7418 14.1538 12.91 13.9832 13.1604 13.9832V13.9812Z" fill="#2E3192"/>
<path d="M16.8961 17.8478C16.8942 18.0999 16.7279 18.2783 16.4906 18.2822C16.3112 18.286 16.072 18.0339 16.0682 17.8362C16.0645 17.6364 16.2906 17.4193 16.5055 17.4193C16.7578 17.4193 16.8998 17.5744 16.898 17.8478H16.8961Z" fill="#2E3192"/>
<path d="M6.89441 17.8594C6.943 18.098 6.74117 18.257 6.51132 18.2783C6.2852 18.3016 6.10206 18.0747 6.10953 17.811C6.11701 17.5666 6.27585 17.4154 6.52066 17.4193C6.78602 17.4231 6.89815 17.555 6.89441 17.8575V17.8594Z" fill="#2E3192"/>
<path d="M9.85085 13.9812C10.1031 13.9812 10.2657 14.148 10.2601 14.3962C10.2545 14.6386 10.0788 14.7995 9.82656 14.7976C9.59857 14.7957 9.43225 14.6231 9.43225 14.3865C9.43225 14.1364 9.59296 13.9812 9.85085 13.9832V13.9812Z" fill="#2E3192"/>
<path d="M11.5122 14.7956C11.2618 14.7937 11.0899 14.6231 11.0918 14.3807C11.0936 14.1344 11.2599 13.9793 11.516 13.9812C11.7664 13.9812 11.9271 14.1499 11.9196 14.4001C11.9121 14.6366 11.7458 14.7976 11.5122 14.7956Z" fill="#2E3192"/>
<path d="M16.5036 15.6973C16.7484 15.6973 16.8942 15.8466 16.896 16.1026C16.8979 16.3702 16.7241 16.5622 16.4812 16.5583C16.3148 16.5563 16.0756 16.3023 16.0682 16.1181C16.0607 15.9184 16.2887 15.6973 16.5036 15.6954V15.6973Z" fill="#2E3192"/>
<path d="M11.5085 18.2337C11.2525 18.2337 11.0899 18.0766 11.0918 17.8284C11.0918 17.5841 11.2712 17.4154 11.5178 17.4193C11.7608 17.4251 11.9233 17.5977 11.9196 17.8517C11.9159 18.0921 11.7664 18.2317 11.5085 18.2317V18.2337Z" fill="#2E3192"/>
<path d="M18.5555 17.8323C18.5555 18.0999 18.4097 18.2725 18.1762 18.2822C17.9594 18.2899 17.7744 18.0883 17.7706 17.842C17.7669 17.5822 17.9239 17.4173 18.1743 17.4212C18.4135 17.4231 18.5536 17.5744 18.5555 17.8342V17.8323Z" fill="#2E3192"/>
<path d="M20.215 16.1123C20.215 16.3663 20.0543 16.5544 19.8301 16.5602C19.6376 16.5641 19.4302 16.3275 19.432 16.1046C19.432 15.8563 19.5834 15.6993 19.8245 15.6954C20.0973 15.6915 20.2132 15.8156 20.215 16.1123Z" fill="#2E3192"/>
<path d="M8.5539 16.12C8.5539 16.3838 8.39692 16.5602 8.16706 16.5602C7.97271 16.5602 7.76715 16.3198 7.77276 16.0968C7.77836 15.8602 7.94468 15.6954 8.17641 15.6954C8.45111 15.6954 8.55576 15.8137 8.5539 16.1181V16.12Z" fill="#2E3192"/>
<path d="M6.89444 16.1239C6.89444 16.378 6.73933 16.5447 6.49453 16.5564C6.32073 16.5641 6.11143 16.3256 6.10956 16.1162C6.10582 15.8563 6.2628 15.6935 6.51321 15.6954C6.78231 15.6954 6.89444 15.8214 6.89444 16.1239Z" fill="#2E3192"/>
<path d="M20.2149 17.8517C20.2149 18.1096 20.0449 18.2919 19.8131 18.2822C19.6337 18.2744 19.4356 18.0534 19.4319 17.8575C19.4263 17.5996 19.587 17.4251 19.8337 17.4193C20.0991 17.4154 20.2149 17.5453 20.2149 17.8517Z" fill="#2E3192"/>
<path d="M14.8311 16.5118C14.5937 16.5098 14.4013 16.3198 14.4106 16.0968C14.4199 15.866 14.6106 15.6935 14.8535 15.6973C15.0927 15.7012 15.2422 15.8583 15.2422 16.1065C15.2422 16.3683 15.0946 16.5156 14.8311 16.5118Z" fill="#2E3192"/>
<path d="M8.55397 17.8633C8.55397 18.1077 8.39325 18.2802 8.16713 18.2802C7.98026 18.2802 7.77283 18.0514 7.77283 17.8439C7.77283 17.588 7.93915 17.4173 8.18582 17.4193C8.44745 17.4193 8.55584 17.5492 8.55397 17.8633Z" fill="#2E3192"/>
<path d="M18.5555 16.1104C18.5555 16.3721 18.3779 16.5622 18.1406 16.5564C17.9649 16.5525 17.7687 16.3101 17.7706 16.1007C17.7725 15.8525 17.9238 15.6973 18.163 15.6954C18.434 15.6935 18.5573 15.8214 18.5555 16.1104Z" fill="#2E3192"/>
<path d="M8.55389 14.3826C8.55389 14.6793 8.44176 14.7976 8.16332 14.7957C7.93346 14.7937 7.77462 14.627 7.77088 14.3826C7.76714 14.1286 7.92038 13.9812 8.18948 13.9812C8.46606 13.9812 8.55389 14.0801 8.55389 14.3846V14.3826Z" fill="#2E3192"/>
<path d="M6.89453 14.3749C6.89453 14.6716 6.77866 14.7976 6.50769 14.7957C6.26663 14.7957 6.11526 14.6386 6.11152 14.3923C6.10778 14.1286 6.25728 13.9774 6.51704 13.9812C6.79175 13.9832 6.8964 14.0918 6.89453 14.3749Z" fill="#2E3192"/>
<path d="M54.736 7.2H59.874C59.986 7.2 60.084 7.242 60.168 7.326C60.252 7.40067 60.294 7.49867 60.294 7.62C60.294 7.74133 60.252 7.83933 60.168 7.914C60.084 7.98867 59.986 8.026 59.874 8.026H55.058L55.198 7.788V11.722L55.044 11.54H59.244C59.356 11.54 59.454 11.582 59.538 11.666C59.622 11.75 59.664 11.848 59.664 11.96C59.664 12.0813 59.622 12.1793 59.538 12.254C59.454 12.3287 59.356 12.366 59.244 12.366H55.072L55.198 12.226V16.258L55.128 16.174H59.874C59.986 16.174 60.084 16.216 60.168 16.3C60.252 16.384 60.294 16.482 60.294 16.594C60.294 16.7153 60.252 16.8133 60.168 16.888C60.084 16.9627 59.986 17 59.874 17H54.736C54.624 17 54.526 16.958 54.442 16.874C54.358 16.79 54.316 16.692 54.316 16.58V7.62C54.316 7.508 54.358 7.41 54.442 7.326C54.526 7.242 54.624 7.2 54.736 7.2ZM62.483 17C62.3524 17 62.2497 16.958 62.175 16.874C62.1004 16.79 62.063 16.692 62.063 16.58V10.308C62.063 10.196 62.1004 10.098 62.175 10.014C62.259 9.93 62.3617 9.888 62.483 9.888C62.6044 9.888 62.7024 9.93 62.777 10.014C62.861 10.098 62.903 10.196 62.903 10.308V12.408L62.693 12.45C62.721 12.1233 62.8004 11.8013 62.931 11.484C63.071 11.1573 63.2577 10.8587 63.491 10.588C63.7244 10.3173 63.9997 10.098 64.317 9.93C64.6437 9.762 65.0077 9.678 65.409 9.678C65.577 9.678 65.7404 9.71533 65.899 9.79C66.0577 9.85533 66.137 9.96733 66.137 10.126C66.137 10.266 66.0997 10.3733 66.025 10.448C65.9504 10.5227 65.8617 10.56 65.759 10.56C65.675 10.56 65.5817 10.5367 65.479 10.49C65.3857 10.4433 65.2597 10.42 65.101 10.42C64.8397 10.42 64.5784 10.4993 64.317 10.658C64.0557 10.8073 63.8177 11.0127 63.603 11.274C63.3884 11.5353 63.2157 11.8293 63.085 12.156C62.9637 12.4733 62.903 12.7953 62.903 13.122V16.58C62.903 16.692 62.861 16.79 62.777 16.874C62.693 16.958 62.595 17 62.483 17ZM70.2267 9.678C70.6467 9.678 71.034 9.75267 71.3887 9.902C71.7433 10.042 72.0513 10.2287 72.3127 10.462C72.5833 10.686 72.7933 10.9287 72.9427 11.19C73.092 11.442 73.1667 11.6847 73.1667 11.918L72.9287 11.582V10.28C72.9287 10.1587 72.966 10.056 73.0407 9.972C73.1247 9.888 73.2273 9.846 73.3487 9.846C73.4793 9.846 73.582 9.888 73.6567 9.972C73.7313 10.056 73.7687 10.1587 73.7687 10.28V16.342C73.7687 17.0887 73.6147 17.7187 73.3067 18.232C72.9987 18.7453 72.5787 19.1327 72.0467 19.394C71.524 19.6647 70.9267 19.8 70.2547 19.8C69.928 19.8 69.5827 19.758 69.2187 19.674C68.864 19.59 68.556 19.4827 68.2947 19.352C68.0427 19.2213 67.9027 19.086 67.8747 18.946C67.8 18.862 67.7627 18.778 67.7627 18.694C67.772 18.6193 67.814 18.554 67.8887 18.498C67.982 18.4327 68.08 18.4233 68.1827 18.47C68.2853 18.526 68.4393 18.596 68.6447 18.68C68.738 18.708 68.864 18.75 69.0227 18.806C69.1813 18.862 69.368 18.9087 69.5827 18.946C69.8067 18.9927 70.04 19.016 70.2827 19.016C71.1227 19.016 71.7713 18.7733 72.2287 18.288C72.6953 17.812 72.9287 17.182 72.9287 16.398V15.054L73.0827 15.096C72.9987 15.432 72.8587 15.726 72.6627 15.978C72.476 16.23 72.252 16.4447 71.9907 16.622C71.7293 16.79 71.4447 16.916 71.1367 17C70.838 17.0933 70.5393 17.14 70.2407 17.14C69.5967 17.14 69.018 16.9767 68.5047 16.65C67.9913 16.3233 67.5807 15.88 67.2727 15.32C66.974 14.76 66.8247 14.1207 66.8247 13.402C66.8247 12.6927 66.974 12.058 67.2727 11.498C67.5807 10.9287 67.9867 10.4853 68.4907 10.168C69.004 9.84133 69.5827 9.678 70.2267 9.678ZM70.3247 10.462C69.8113 10.462 69.3493 10.5927 68.9387 10.854C68.5373 11.106 68.22 11.456 67.9867 11.904C67.7627 12.3427 67.6507 12.842 67.6507 13.402C67.6507 13.962 67.7627 14.466 67.9867 14.914C68.22 15.362 68.5373 15.7167 68.9387 15.978C69.3493 16.23 69.8113 16.356 70.3247 16.356C70.838 16.356 71.2953 16.23 71.6967 15.978C72.098 15.726 72.4153 15.3807 72.6487 14.942C72.882 14.494 72.9987 13.9807 72.9987 13.402C72.9987 12.8233 72.882 12.3147 72.6487 11.876C72.4153 11.428 72.098 11.0827 71.6967 10.84C71.2953 10.588 70.838 10.462 70.3247 10.462ZM82.3716 13.416C82.3716 14.1253 82.2176 14.7647 81.9096 15.334C81.6016 15.894 81.1816 16.3373 80.6496 16.664C80.1176 16.9813 79.5109 17.14 78.8296 17.14C78.1669 17.14 77.5649 16.9813 77.0236 16.664C76.4916 16.3373 76.0669 15.894 75.7496 15.334C75.4416 14.7647 75.2876 14.1253 75.2876 13.416C75.2876 12.6973 75.4416 12.058 75.7496 11.498C76.0669 10.938 76.4916 10.4947 77.0236 10.168C77.5649 9.84133 78.1669 9.678 78.8296 9.678C79.5109 9.678 80.1176 9.84133 80.6496 10.168C81.1816 10.4947 81.6016 10.938 81.9096 11.498C82.2176 12.058 82.3716 12.6973 82.3716 13.416ZM81.5316 13.416C81.5316 12.8467 81.4149 12.3427 81.1816 11.904C80.9482 11.456 80.6262 11.106 80.2156 10.854C79.8142 10.5927 79.3522 10.462 78.8296 10.462C78.3256 10.462 77.8682 10.5927 77.4576 10.854C77.0469 11.106 76.7202 11.456 76.4776 11.904C76.2442 12.3427 76.1276 12.8467 76.1276 13.416C76.1276 13.9853 76.2442 14.4893 76.4776 14.928C76.7202 15.3667 77.0469 15.7167 77.4576 15.978C77.8682 16.23 78.3256 16.356 78.8296 16.356C79.3522 16.356 79.8142 16.23 80.2156 15.978C80.6262 15.7167 80.9482 15.3667 81.1816 14.928C81.4149 14.4893 81.5316 13.9853 81.5316 13.416ZM87.5308 9.678C88.1468 9.678 88.6368 9.804 89.0008 10.056C89.3741 10.2987 89.6401 10.6347 89.7988 11.064C89.9668 11.484 90.0508 11.9507 90.0508 12.464V16.58C90.0508 16.692 90.0088 16.79 89.9248 16.874C89.8408 16.958 89.7428 17 89.6308 17C89.5001 17 89.3974 16.958 89.3228 16.874C89.2481 16.79 89.2108 16.692 89.2108 16.58V12.506C89.2108 12.1327 89.1501 11.792 89.0288 11.484C88.9074 11.176 88.7068 10.9287 88.4268 10.742C88.1561 10.5553 87.7968 10.462 87.3488 10.462C86.9474 10.462 86.5648 10.5553 86.2008 10.742C85.8461 10.9287 85.5568 11.176 85.3328 11.484C85.1088 11.792 84.9968 12.1327 84.9968 12.506V16.58C84.9968 16.692 84.9548 16.79 84.8708 16.874C84.7868 16.958 84.6888 17 84.5768 17C84.4461 17 84.3434 16.958 84.2688 16.874C84.1941 16.79 84.1568 16.692 84.1568 16.58V10.308C84.1568 10.196 84.1941 10.098 84.2688 10.014C84.3528 9.93 84.4554 9.888 84.5768 9.888C84.6981 9.888 84.7961 9.93 84.8708 10.014C84.9548 10.098 84.9968 10.196 84.9968 10.308V11.484L84.6748 11.988C84.6934 11.6893 84.7868 11.4047 84.9548 11.134C85.1321 10.854 85.3561 10.6067 85.6268 10.392C85.8974 10.168 86.1961 9.99533 86.5228 9.874C86.8588 9.74333 87.1948 9.678 87.5308 9.678ZM98.9145 13.416C98.9145 14.1253 98.7605 14.7647 98.4525 15.334C98.1445 15.894 97.7245 16.3373 97.1925 16.664C96.6605 16.9813 96.0539 17.14 95.3725 17.14C94.7099 17.14 94.1079 16.9813 93.5665 16.664C93.0345 16.3373 92.6099 15.894 92.2925 15.334C91.9845 14.7647 91.8305 14.1253 91.8305 13.416C91.8305 12.6973 91.9845 12.058 92.2925 11.498C92.6099 10.938 93.0345 10.4947 93.5665 10.168C94.1079 9.84133 94.7099 9.678 95.3725 9.678C96.0539 9.678 96.6605 9.84133 97.1925 10.168C97.7245 10.4947 98.1445 10.938 98.4525 11.498C98.7605 12.058 98.9145 12.6973 98.9145 13.416ZM98.0745 13.416C98.0745 12.8467 97.9579 12.3427 97.7245 11.904C97.4912 11.456 97.1692 11.106 96.7585 10.854C96.3572 10.5927 95.8952 10.462 95.3725 10.462C94.8685 10.462 94.4112 10.5927 94.0005 10.854C93.5899 11.106 93.2632 11.456 93.0205 11.904C92.7872 12.3427 92.6705 12.8467 92.6705 13.416C92.6705 13.9853 92.7872 14.4893 93.0205 14.928C93.2632 15.3667 93.5899 15.7167 94.0005 15.978C94.4112 16.23 94.8685 16.356 95.3725 16.356C95.8952 16.356 96.3572 16.23 96.7585 15.978C97.1692 15.7167 97.4912 15.3667 97.7245 14.928C97.9579 14.4893 98.0745 13.9853 98.0745 13.416ZM95.2045 9.174C95.1579 9.174 95.1065 9.15067 95.0505 9.104C95.0039 9.048 94.9805 8.98733 94.9805 8.922C94.9805 8.866 95.0039 8.80067 95.0505 8.726L95.9045 7.396C95.9512 7.32133 96.0119 7.25133 96.0865 7.186C96.1705 7.12067 96.2685 7.088 96.3805 7.088C96.5205 7.088 96.6325 7.12533 96.7165 7.2C96.8005 7.27467 96.8379 7.382 96.8285 7.522C96.8285 7.58733 96.8145 7.648 96.7865 7.704C96.7679 7.75067 96.7352 7.79733 96.6885 7.844L95.6385 8.95C95.5825 9.01533 95.5172 9.07133 95.4425 9.118C95.3679 9.15533 95.2885 9.174 95.2045 9.174ZM103.92 9.79C104.498 9.79 104.993 9.944 105.404 10.252C105.814 10.5507 106.094 10.9987 106.244 11.596L106.048 11.652L106.132 11.4C106.253 11.12 106.454 10.8587 106.734 10.616C107.023 10.364 107.35 10.1633 107.714 10.014C108.078 9.86467 108.446 9.79 108.82 9.79C109.408 9.79 109.879 9.916 110.234 10.168C110.598 10.42 110.859 10.7607 111.018 11.19C111.186 11.61 111.27 12.086 111.27 12.618V16.58C111.27 16.692 111.228 16.79 111.144 16.874C111.069 16.958 110.971 17 110.85 17C110.728 17 110.626 16.958 110.542 16.874C110.467 16.79 110.43 16.692 110.43 16.58V12.66C110.43 12.2773 110.369 11.9273 110.248 11.61C110.126 11.2927 109.935 11.0407 109.674 10.854C109.412 10.6673 109.062 10.574 108.624 10.574C108.241 10.574 107.872 10.6673 107.518 10.854C107.172 11.0407 106.888 11.2927 106.664 11.61C106.449 11.9273 106.342 12.2773 106.342 12.66V16.58C106.342 16.692 106.3 16.79 106.216 16.874C106.141 16.958 106.043 17 105.922 17C105.8 17 105.698 16.958 105.614 16.874C105.539 16.79 105.502 16.692 105.502 16.58V12.618C105.502 12.2353 105.446 11.89 105.334 11.582C105.222 11.274 105.04 11.0313 104.788 10.854C104.536 10.6673 104.195 10.574 103.766 10.574C103.383 10.574 103.019 10.6673 102.674 10.854C102.338 11.0313 102.062 11.274 101.848 11.582C101.642 11.89 101.54 12.2353 101.54 12.618V16.58C101.54 16.692 101.498 16.79 101.414 16.874C101.33 16.958 101.232 17 101.12 17C100.989 17 100.886 16.958 100.812 16.874C100.737 16.79 100.7 16.692 100.7 16.58V10.308C100.7 10.196 100.737 10.098 100.812 10.014C100.896 9.93 100.998 9.888 101.12 9.888C101.241 9.888 101.339 9.93 101.414 10.014C101.498 10.098 101.54 10.196 101.54 10.308V11.61L101.162 12.128C101.19 11.848 101.278 11.568 101.428 11.288C101.586 11.008 101.792 10.756 102.044 10.532C102.296 10.308 102.58 10.1307 102.898 10C103.224 9.86 103.565 9.79 103.92 9.79ZM114.281 16.58C114.281 16.692 114.239 16.79 114.155 16.874C114.071 16.958 113.973 17 113.861 17C113.74 17 113.637 16.958 113.553 16.874C113.479 16.79 113.441 16.692 113.441 16.58V10.14C113.441 10.028 113.479 9.93 113.553 9.846C113.637 9.762 113.74 9.72 113.861 9.72C113.983 9.72 114.081 9.762 114.155 9.846C114.239 9.93 114.281 10.028 114.281 10.14V16.58ZM113.861 8.782C113.665 8.782 113.516 8.74 113.413 8.656C113.32 8.56267 113.273 8.432 113.273 8.264V8.124C113.273 7.956 113.325 7.83 113.427 7.746C113.539 7.65267 113.689 7.606 113.875 7.606C114.053 7.606 114.188 7.65267 114.281 7.746C114.384 7.83 114.435 7.956 114.435 8.124V8.264C114.435 8.432 114.384 8.56267 114.281 8.656C114.188 8.74 114.048 8.782 113.861 8.782ZM119.613 9.678C120.061 9.678 120.472 9.72933 120.845 9.832C121.219 9.92533 121.517 10.056 121.741 10.224C121.975 10.392 122.091 10.574 122.091 10.77C122.091 10.8633 122.059 10.9567 121.993 11.05C121.928 11.134 121.839 11.176 121.727 11.176C121.615 11.176 121.522 11.148 121.447 11.092C121.382 11.036 121.312 10.9707 121.237 10.896C121.172 10.8213 121.074 10.7513 120.943 10.686C120.822 10.63 120.649 10.5787 120.425 10.532C120.201 10.4853 119.945 10.462 119.655 10.462C119.133 10.462 118.661 10.5927 118.241 10.854C117.821 11.1153 117.49 11.47 117.247 11.918C117.005 12.3567 116.883 12.8513 116.883 13.402C116.883 13.962 117 14.466 117.233 14.914C117.467 15.362 117.789 15.7167 118.199 15.978C118.61 16.23 119.091 16.356 119.641 16.356C120.015 16.356 120.304 16.3233 120.509 16.258C120.715 16.1927 120.892 16.118 121.041 16.034C121.219 15.9313 121.345 15.8333 121.419 15.74C121.503 15.6373 121.611 15.586 121.741 15.586C121.863 15.586 121.951 15.6233 122.007 15.698C122.073 15.7633 122.105 15.852 122.105 15.964C122.105 16.1133 121.993 16.2813 121.769 16.468C121.555 16.6453 121.256 16.804 120.873 16.944C120.491 17.0747 120.052 17.14 119.557 17.14C118.857 17.14 118.241 16.9767 117.709 16.65C117.187 16.3233 116.776 15.88 116.477 15.32C116.188 14.7507 116.043 14.1113 116.043 13.402C116.043 12.7207 116.193 12.1 116.491 11.54C116.79 10.98 117.205 10.532 117.737 10.196C118.279 9.85067 118.904 9.678 119.613 9.678ZM130.374 13.416C130.374 14.1253 130.22 14.7647 129.912 15.334C129.604 15.894 129.184 16.3373 128.652 16.664C128.12 16.9813 127.513 17.14 126.832 17.14C126.169 17.14 125.567 16.9813 125.026 16.664C124.494 16.3373 124.069 15.894 123.752 15.334C123.444 14.7647 123.29 14.1253 123.29 13.416C123.29 12.6973 123.444 12.058 123.752 11.498C124.069 10.938 124.494 10.4947 125.026 10.168C125.567 9.84133 126.169 9.678 126.832 9.678C127.513 9.678 128.12 9.84133 128.652 10.168C129.184 10.4947 129.604 10.938 129.912 11.498C130.22 12.058 130.374 12.6973 130.374 13.416ZM129.534 13.416C129.534 12.8467 129.417 12.3427 129.184 11.904C128.95 11.456 128.628 11.106 128.218 10.854C127.816 10.5927 127.354 10.462 126.832 10.462C126.328 10.462 125.87 10.5927 125.46 10.854C125.049 11.106 124.722 11.456 124.48 11.904C124.246 12.3427 124.13 12.8467 124.13 13.416C124.13 13.9853 124.246 14.4893 124.48 14.928C124.722 15.3667 125.049 15.7167 125.46 15.978C125.87 16.23 126.328 16.356 126.832 16.356C127.354 16.356 127.816 16.23 128.218 15.978C128.628 15.7167 128.95 15.3667 129.184 14.928C129.417 14.4893 129.534 13.9853 129.534 13.416Z" fill="#2E3192"/>
</svg>
