<svg width="40" height="40" viewBox="0 0 40 40" fill="none" xmlns="http://www.w3.org/2000/svg">
<rect width="40" height="40" rx="20" fill="#008622"/>
<path d="M20.793 14.799C20.9805 14.6116 21.2348 14.5063 21.5 14.5063C21.7652 14.5063 22.0195 14.6116 22.207 14.799L26.707 19.299C26.8945 19.4866 26.9998 19.7409 26.9998 20.006C26.9998 20.2712 26.8945 20.5255 26.707 20.713L22.207 25.213C22.0184 25.3952 21.7658 25.496 21.5036 25.4937C21.2414 25.4914 20.9906 25.3863 20.8052 25.2009C20.6198 25.0155 20.5146 24.7646 20.5123 24.5024C20.51 24.2402 20.6108 23.9876 20.793 23.799L23.5 21.006H14C13.7348 21.006 13.4804 20.9007 13.2929 20.7131C13.1054 20.5256 13 20.2713 13 20.006C13 19.7408 13.1054 19.4865 13.2929 19.2989C13.4804 19.1114 13.7348 19.006 14 19.006H23.5L20.793 16.213C20.6055 16.0255 20.5002 15.7712 20.5002 15.506C20.5002 15.2409 20.6055 14.9866 20.793 14.799Z" fill="#B0E4BD"/>
</svg>
