<svg width="21" height="20" viewBox="0 0 21 20" fill="none" xmlns="http://www.w3.org/2000/svg">
<path d="M19.0714 2.85714H11.9286V1.42857C11.9286 1.04969 11.7781 0.686328 11.5102 0.418419C11.2422 0.15051 10.8789 0 10.5 0H1.92857C1.54969 0 1.18633 0.15051 0.918419 0.418419C0.65051 0.686328 0.5 1.04969 0.5 1.42857V15.7143C0.5 16.0932 0.65051 16.4565 0.918419 16.7244C1.18633 16.9923 1.54969 17.1429 1.92857 17.1429H9.07143V18.5714C9.07143 18.9503 9.22194 19.3137 9.48985 19.5816C9.75776 19.8495 10.1211 20 10.5 20H19.0714C19.4503 20 19.8137 19.8495 20.0816 19.5816C20.3495 19.3137 20.5 18.9503 20.5 18.5714V4.28571C20.5 3.90683 20.3495 3.54347 20.0816 3.27556C19.8137 3.00765 19.4503 2.85714 19.0714 2.85714ZM1.92857 9.28571H6.33571L4.49286 11.1357L5.5 12.1429L9.07143 8.57143L5.5 5L4.49286 6.00714L6.33571 7.85714H1.92857V1.42857H10.5V15.7143H1.92857V9.28571ZM10.5 18.5714V17.1429C10.8789 17.1429 11.2422 16.9923 11.5102 16.7244C11.7781 16.4565 11.9286 16.0932 11.9286 15.7143V4.28571H19.0714V10.7143H14.6643L16.5071 8.86429L15.5 7.85714L11.9286 11.4286L15.5 15L16.5071 13.9929L14.6643 12.1429H19.0714V18.5714H10.5Z" fill="#2E3192"/>
</svg>
