<svg width="24" height="24" viewBox="0 0 24 24" fill="none" xmlns="http://www.w3.org/2000/svg">
<path d="M11.0792 0H12.9085C13.1419 0.153392 13.4168 0.0973447 13.6709 0.132743C14.8382 0.286135 15.9494 0.619466 17.0162 1.10029C18.4673 1.75221 19.7321 2.67256 20.8108 3.83774C21.8451 4.95278 22.646 6.21532 23.1927 7.64009C23.7808 9.17401 24.0645 10.7492 23.9877 12.3923C23.9581 13.0117 23.9108 13.6253 23.7956 14.233C23.6064 15.2477 23.2961 16.2241 22.8499 17.1533C22.3652 18.1592 21.7505 19.0766 21.0088 19.9144C20.4059 20.5928 19.741 21.1976 19.011 21.7315C18.2161 22.3126 17.3531 22.761 16.4429 23.1356C15.2786 23.6135 14.0581 23.8731 12.8109 23.9704C12.1785 24.0176 11.5343 24.0088 10.896 23.9409C10.2724 23.8731 9.65476 23.7816 9.04893 23.6223C8.01756 23.3539 7.03346 22.9675 6.10552 22.4365C5.06527 21.8436 4.13142 21.1179 3.30691 20.2448C2.3701 19.2536 1.62242 18.1386 1.05206 16.8996C0.55854 15.8229 0.25415 14.702 0.0916123 13.5339C0.0650152 13.3333 0.109344 13.1179 0 12.9292V11.056C0.0827466 10.8141 0.0650152 10.5604 0.103433 10.3126C0.295524 9.07076 0.638331 7.87313 1.20278 6.74924C1.85884 5.44246 2.70404 4.27137 3.77975 3.26842C4.87614 2.24483 6.10847 1.43657 7.50039 0.882002C8.40765 0.519172 9.33854 0.253686 10.3138 0.132743C10.5679 0.100295 10.8428 0.156342 11.0762 0H11.0792ZM17.3206 2.25073C16.771 1.9233 16.1888 1.67256 15.583 1.46902C14.6077 1.14159 13.6089 0.967548 12.5893 0.893802C11.9214 0.846604 11.2535 0.908551 10.5857 0.979347C9.21147 1.12389 7.9289 1.56637 6.72021 2.20648C5.48492 2.8584 4.42399 3.74335 3.51673 4.80824C2.63016 5.84953 1.96819 7.01472 1.50422 8.29495C1.07275 9.48079 0.877705 10.7079 0.88066 11.9705C0.88066 12.764 0.939765 13.5516 1.10821 14.3244C1.35941 15.4808 1.79383 16.5663 2.39079 17.5899C2.95228 18.5574 3.65563 19.4129 4.47423 20.1769C4.53629 20.2359 4.58948 20.2566 4.67814 20.2094C5.88387 19.5427 7.09552 18.8819 8.30126 18.2123C8.59678 18.0501 8.80069 17.8229 8.84502 17.4513C8.8923 17.0678 8.85389 16.6902 8.88048 16.3097C8.89231 16.1356 8.83911 15.997 8.74159 15.8554C8.21556 15.1032 7.80773 14.2949 7.56836 13.407C7.53585 13.2861 7.4531 13.2064 7.37331 13.1209C7.15167 12.882 6.97731 12.6076 6.96549 12.2802C6.94185 11.6578 6.95958 11.0324 6.95072 10.407C6.94776 10.115 7.04528 9.85837 7.21373 9.63123C7.30239 9.51029 7.32603 9.38639 7.33194 9.24185C7.36445 8.41885 7.2551 7.59584 7.33785 6.77578C7.42946 5.84364 7.84615 5.07373 8.57314 4.48081C9.39174 3.81414 10.3729 3.58701 11.3954 3.52506C12.3263 3.47196 13.2572 3.52506 14.1615 3.7994C15.7071 4.26842 16.6705 5.45131 16.7148 7.08847C16.7355 7.81413 16.7207 8.53979 16.7148 9.26545C16.7148 9.39524 16.7385 9.50734 16.8182 9.61353C16.9985 9.84952 17.0813 10.1298 17.0901 10.4188C17.1049 10.9882 17.1138 11.5575 17.0901 12.1268C17.0694 12.5929 16.8833 12.9941 16.4902 13.2861C16.3395 13.3982 16.1711 13.4867 16.1001 13.6991C15.8105 14.5368 15.3761 15.3008 14.8353 16.0029C14.788 16.0648 14.785 16.1297 14.785 16.2005C14.785 16.5899 14.785 16.9822 14.785 17.3716C14.785 17.7816 14.9978 18.0678 15.3436 18.2448C16.5907 18.876 17.8437 19.4955 19.0967 20.1179C19.2445 20.1858 19.3568 20.3893 19.5607 20.1887C19.9331 19.82 20.3054 19.4542 20.6364 19.0471C22.1643 17.1651 23.0006 15.0147 23.1365 12.5958C23.1927 11.6283 23.1218 10.6666 22.9149 9.71973C22.2352 6.63124 20.5418 4.24777 17.8733 2.54866C17.6989 2.43657 17.5305 2.30088 17.3177 2.25663L17.3206 2.25073ZM15.8164 8.09141C15.7957 7.66664 15.8844 7.14452 15.7869 6.63714C15.5741 5.54275 14.853 4.91149 13.8128 4.5988C13.1478 4.39821 12.4681 4.38936 11.7796 4.39526C11.2447 4.39821 10.7186 4.43656 10.2074 4.59585C9.58974 4.78759 9.04893 5.09438 8.65589 5.63125C8.28944 6.13272 8.2126 6.70499 8.20669 7.29791C8.20078 8.01472 8.20078 8.73448 8.20669 9.45129C8.20669 9.67253 8.1535 9.86427 7.99687 10.0265C7.85206 10.174 7.80182 10.3598 7.80182 10.5634C7.80182 11.0324 7.80182 11.5014 7.80182 11.9675C7.80182 12.1858 7.85206 12.3982 8.02938 12.5339C8.26284 12.7138 8.35445 12.9616 8.43129 13.2271C8.64406 13.9763 8.96619 14.6784 9.43016 15.3038C9.67249 15.6283 9.79661 15.9616 9.75819 16.3657C9.73455 16.6283 9.75523 16.8967 9.75228 17.1622C9.74637 17.9999 9.39174 18.6194 8.63815 19.0176C7.66293 19.5309 6.69952 20.0678 5.73316 20.5958C5.29578 20.8347 5.28987 20.8465 5.69769 21.1238C8.10621 22.7698 10.7689 23.3804 13.6473 22.9793C15.3968 22.7344 17.0074 22.0825 18.4495 21.0442C18.6771 20.8819 18.6771 20.879 18.4289 20.7551C17.2881 20.1858 16.1504 19.6164 15.0067 19.053C14.3772 18.7433 13.9724 18.2507 13.9073 17.5575C13.8541 16.9999 13.8896 16.4336 13.8926 15.8731C13.8926 15.7522 13.9635 15.6489 14.0374 15.5575C14.6402 14.823 15.0658 13.994 15.3761 13.1032C15.4441 12.9056 15.5564 12.7669 15.7514 12.6843C16.0469 12.5604 16.1947 12.3333 16.1947 12.0059C16.1917 11.4985 16.1917 10.9911 16.1947 10.4837C16.1947 10.3038 16.1533 10.1475 16.0233 10.0147C15.8667 9.85542 15.8105 9.66073 15.8135 9.43949C15.8194 9.01766 15.8135 8.59584 15.8135 8.08551L15.8164 8.09141Z" fill="#2E3192"/>
<path d="M15.8164 8.09145C15.8164 8.60177 15.8223 9.0236 15.8164 9.44543C15.8135 9.66667 15.8696 9.86431 16.0262 10.0206C16.1563 10.1534 16.2006 10.3097 16.1976 10.4897C16.1947 10.997 16.1947 11.5044 16.1976 12.0118C16.1976 12.3392 16.0528 12.5664 15.7544 12.6903C15.5593 12.7728 15.447 12.9115 15.379 13.1091C15.0717 14 14.6432 14.8289 14.0403 15.5634C13.9664 15.6548 13.8955 15.7581 13.8955 15.879C13.8926 16.4395 13.8571 17.0059 13.9103 17.5634C13.9783 18.2596 14.3802 18.7492 15.0096 19.059C16.1533 19.6224 17.2911 20.1917 18.4318 20.761C18.68 20.8849 18.6771 20.8879 18.4525 21.0501C17.0103 22.0855 15.3997 22.7404 13.6502 22.9852C10.7718 23.3893 8.10917 22.7758 5.70065 21.1297C5.29283 20.8525 5.29874 20.8407 5.73612 20.6017C6.70248 20.0737 7.66588 19.5368 8.64111 19.0236C9.39765 18.6253 9.75228 18.0059 9.75524 17.1681C9.75524 16.9026 9.7375 16.6342 9.76115 16.3717C9.79661 15.9675 9.67249 15.6312 9.43312 15.3097C8.96619 14.6843 8.64407 13.9823 8.43425 13.233C8.35741 12.9675 8.2658 12.7198 8.03233 12.5398C7.85502 12.4041 7.80478 12.1917 7.80478 11.9734C7.80478 11.5044 7.80478 11.0354 7.80478 10.5693C7.80478 10.3687 7.85502 10.1829 7.99983 10.0324C8.15645 9.8702 8.2126 9.67847 8.20965 9.45723C8.20669 8.74042 8.20374 8.02065 8.20965 7.30384C8.21556 6.71093 8.29239 6.13866 8.65884 5.63718C9.05189 5.10326 9.58974 4.79353 10.2103 4.60179C10.7216 4.44545 11.2476 4.4071 11.7825 4.4012C12.4681 4.3953 13.1508 4.4012 13.8157 4.60474C14.856 4.91742 15.5741 5.54869 15.7898 6.64308C15.8903 7.15045 15.8016 7.67257 15.8194 8.09735L15.8164 8.09145Z" fill="#97B8DF"/>
<path d="M19.0967 20.1091C19.6346 19.6135 20.0542 19.0206 20.4443 18.407C21.3279 17.0177 21.8805 15.5044 22.1406 13.882C22.5159 11.531 22.1997 9.27137 21.254 7.09144C20.6925 5.79646 19.8976 4.65487 18.9194 3.64013C18.485 3.19175 17.9974 2.79942 17.4979 2.42479C17.43 2.37465 17.3413 2.34515 17.3206 2.2478C17.5334 2.29205 17.7018 2.42774 17.8762 2.53984C20.5418 4.23895 22.2381 6.62537 22.9178 9.7109C23.1247 10.6578 23.1956 11.6194 23.1395 12.587C23.0006 15.0029 22.1643 17.1563 20.6393 19.0383C20.3084 19.4454 19.936 19.8112 19.5636 20.1799C19.3627 20.3805 19.2474 20.1769 19.0997 20.1091H19.0967Z" fill="#97B8DF"/>
</svg>
