<svg width="65" height="51" viewBox="0 0 65 51" fill="none" xmlns="http://www.w3.org/2000/svg">
<g clip-path="url(#clip0_68_801)">
<path d="M0.499714 5.23088C0.879714 4.23921 1.24471 3.24755 2.04805 2.48588C3.31471 1.28255 4.74971 0.795881 6.51805 1.07255C7.46638 1.22088 8.44305 1.27755 9.40805 1.36255C10.7397 1.48088 12.0714 1.61588 13.403 1.72421C14.143 1.78421 14.8897 1.80255 15.6297 1.83588C18.7847 1.97921 21.9447 1.95088 25.1047 1.97588C26.6847 1.98755 28.258 1.89921 29.8297 1.82921C31.8014 1.74088 33.778 1.60588 35.748 1.39755C37.1614 1.24921 38.5714 1.02421 39.9964 0.989214C43.018 0.917548 45.2381 3.40255 45.2614 6.21421C45.2697 7.25421 44.9597 8.23755 44.8564 9.25755C44.7531 10.2742 44.5981 11.2859 44.4864 12.3042C44.2947 14.0559 44.238 15.8075 44.248 17.5642C44.248 17.6892 44.2631 17.8125 44.2714 17.9375C44.2747 19.3442 44.2397 20.7475 44.3514 22.1575C44.4614 23.5375 44.6997 24.8975 44.8164 26.2725C44.9297 27.5859 45.3464 28.8642 45.2514 30.2009C45.0414 33.1775 42.3914 35.2959 39.5297 35.0142C38.898 34.9525 38.2564 34.8942 37.623 34.8175C35.7797 34.5959 33.9297 34.3992 32.0764 34.3242C29.7164 34.2292 27.358 34.0259 24.993 34.0575C23.2664 34.0575 21.5347 33.9792 19.813 34.0742C17.8914 34.1809 15.963 34.1409 14.048 34.3092C11.8764 34.5009 9.70138 34.6342 7.53471 34.8959C6.35138 35.0392 5.14971 35.2359 3.94305 34.7292C2.18971 33.9942 1.09805 32.7575 0.628047 30.9442C0.603047 30.8442 0.613047 30.7375 0.50138 30.6825V28.6859C0.769714 28.1059 0.768047 27.4659 0.874714 26.8542C1.22638 24.8509 1.34638 22.8192 1.48471 20.7942C1.59805 19.1375 1.55971 17.4725 1.50638 15.8109C1.47971 14.9825 1.84138 14.5875 2.55138 14.5875C3.30305 14.5875 3.58305 14.9759 3.63805 15.8442C3.73971 17.4425 3.71471 19.0375 3.62471 20.6325C3.54971 21.9659 3.35305 23.2925 3.29305 24.6259C3.21305 26.3942 2.68971 28.0992 2.62971 29.8659C2.57305 31.5792 4.52971 33.3292 6.26471 32.8492C7.18471 32.5942 8.18638 32.6276 9.15138 32.5426C10.5464 32.4192 11.943 32.2992 13.3397 32.1875C14.123 32.1259 14.913 32.1025 15.6947 32.0742C19.2664 31.9492 22.843 31.7692 26.4147 31.9392C28.338 32.0309 30.263 32.0425 32.183 32.1792C34.1147 32.3175 36.048 32.4659 37.9714 32.6875C38.558 32.7559 39.163 32.7325 39.7364 32.9125C41.6614 33.0292 43.138 31.6359 43.1464 29.7092C43.1514 28.7092 42.8447 27.7575 42.7064 26.7792C42.4514 24.9859 42.1947 23.1825 42.1647 21.3842C42.1147 18.3242 41.9897 15.2592 42.363 12.1992C42.5864 10.3625 42.8164 8.53088 43.1114 6.70421C43.4564 4.56588 41.563 2.78421 39.8564 3.13088C38.4064 3.28921 36.9564 3.45755 35.5047 3.60255C34.9297 3.65921 34.348 3.69088 33.7764 3.71755C31.7914 3.81088 29.808 3.92755 27.8247 4.02588C23.7497 4.22755 19.6814 4.01755 15.6114 3.96588C13.3897 3.93755 11.1697 3.67088 8.95305 3.48088C7.95138 3.39588 6.95638 3.23255 5.95971 3.10588C4.37638 2.90588 2.70638 4.30921 2.63971 5.90255C2.62471 6.25588 2.62805 6.60922 2.62471 6.96088C2.61805 7.75422 2.38305 8.12588 1.72305 8.20588C1.12138 8.27921 0.768047 7.92755 0.61138 7.36255C0.59638 7.31088 0.53638 7.27088 0.498047 7.22588C0.498047 6.56088 0.498047 5.89588 0.498047 5.22921L0.499714 5.23088Z" fill="#2E3192"/>
<path d="M46.342 17.9308C46.4954 17.0641 46.7687 16.8874 47.6154 16.8224C49.9354 16.6458 52.2604 16.6041 54.5804 16.3808C56.217 16.2241 57.8437 15.9574 59.502 15.9358C61.6887 15.9074 63.837 17.7724 64.262 19.7174C64.3087 19.9324 64.3537 20.1491 64.5004 20.3241V22.1958C64.0104 23.1224 64.042 24.1691 63.902 25.1591C63.612 27.2158 63.477 29.2891 63.4554 31.3724C63.437 33.2191 63.4554 35.0641 63.5237 36.9058C63.582 38.4974 63.7804 40.0924 64.0387 41.6658C64.147 42.3258 64.0904 43.0541 64.4987 43.6541V45.6508C64.0537 46.1574 64.0487 46.8524 63.702 47.4208C62.697 49.0708 61.1587 49.7991 59.3504 49.9874C58.532 50.0724 57.6654 49.9074 56.847 49.7341C56.2137 49.5991 55.5704 49.5858 54.947 49.5441C52.6187 49.3841 50.2954 49.1741 47.957 49.1124C45.3887 49.0458 42.8204 48.8741 40.2487 48.9274C38.1987 48.9691 36.147 49.0258 34.1004 49.1574C31.527 49.3224 28.952 49.4974 26.3937 49.8108C25.007 49.9808 23.7137 50.0191 22.467 49.3124C20.5687 48.2358 19.672 46.5558 19.6487 44.4391C19.6387 43.5958 19.922 42.7508 20.0537 41.9041C20.2504 40.6491 20.4304 39.3924 20.507 38.1208C20.5437 37.5074 20.4654 36.8274 21.062 36.3841C21.4604 36.0874 21.882 36.1341 22.2654 36.3941C22.632 36.6441 22.8304 37.0191 22.7387 37.4691C22.532 38.4974 22.5487 39.5474 22.4004 40.5858C22.2287 41.7791 22.0954 42.9858 21.8354 44.1574C21.462 45.8308 23.1854 47.8824 24.6754 47.7824C24.862 47.7691 25.0487 47.7724 25.237 47.7674C25.9837 47.7624 26.7137 47.6041 27.452 47.5374C29.4937 47.3524 31.537 47.1624 33.5837 47.0458C35.822 46.9174 38.0654 46.8408 40.307 46.7991C41.9704 46.7674 43.6337 46.8308 45.297 46.8608C47.622 46.9024 49.9387 47.0874 52.2604 47.1824C52.8737 47.2074 53.5004 47.2308 54.117 47.3024C55.8404 47.4991 57.5604 47.7358 59.297 47.7641C61.2937 47.7974 62.5504 45.9874 62.332 44.2158C62.1987 43.1308 61.9804 42.0558 61.8304 40.9691C61.4937 38.5274 61.2987 36.0774 61.247 33.6141C61.2154 32.1824 61.2487 30.7508 61.3687 29.3241C61.492 27.8624 61.6287 26.4024 61.8087 24.9474C61.9554 23.7591 62.2554 22.5841 62.3387 21.3941C62.4637 19.6124 61.202 17.6991 58.3354 18.0991C56.0804 18.4141 53.8137 18.5741 51.5454 18.7424C50.452 18.8241 49.3537 18.7491 48.2604 18.9424C47.1354 19.1408 46.6937 18.8591 46.342 17.9391V17.9308Z" fill="#2E3192"/>
<path d="M39.86 3.12917C41.5667 2.78251 43.46 4.56417 43.115 6.70251C42.82 8.52917 42.59 10.3608 42.3667 12.1975C41.9933 15.2575 42.1183 18.3225 42.1683 21.3825C42.1983 23.1825 42.455 24.9842 42.71 26.7775C42.8483 27.7558 43.155 28.7075 43.15 29.7075C43.1417 31.6342 41.665 33.0275 39.74 32.9108C40.24 32.1608 40.8417 31.4642 40.9567 30.5208C40.9733 30.3792 40.98 30.2342 40.99 30.0925C41.075 29.5942 40.84 29.1475 40.7567 28.6775C40.9633 28.5108 40.8733 28.3025 40.835 28.1042C40.3767 25.7292 40.1133 23.3225 40.0367 20.9142C39.9633 18.6392 39.93 16.3558 40.1067 14.0742C40.25 12.2208 40.445 10.3792 40.72 8.54084C40.7833 8.12417 41.0967 7.67584 40.7583 7.23417C40.815 6.80417 41.06 6.40751 40.9883 5.95417C41.0383 5.12084 40.6483 4.44084 40.235 3.76584C40.1067 3.55584 39.985 3.34251 39.86 3.12917Z" fill="#D7E3F3"/>
<path d="M6.88998 18.2325C6.78665 14.8075 6.41665 11.6992 5.47165 8.67751C5.26331 8.01251 5.08998 7.33751 4.79831 6.69751C4.59498 6.24917 4.91165 5.55584 5.34165 5.38251C5.90165 5.15584 6.68498 5.44084 6.85665 5.97084C7.55498 8.11417 8.20665 10.2642 8.53165 12.5125C8.84165 14.6592 9.08331 16.8058 8.99498 18.9708C8.86998 21.9875 8.46331 24.9658 7.54998 27.8608C7.33498 28.5442 7.13998 29.2325 6.89498 29.9058C6.68498 30.4825 6.11831 30.9125 5.65165 30.7725C4.97665 30.5708 4.59331 29.9258 4.82831 29.2842C5.46998 27.5308 5.97331 25.7392 6.30998 23.9042C6.53165 22.6942 6.70498 21.4758 6.74331 20.2425C6.76665 19.4808 6.95165 18.7258 6.88998 18.2325Z" fill="#2E3192"/>
<path d="M40.9867 5.95416C41.0584 6.40749 40.8134 6.80416 40.7567 7.23416C40.645 7.49749 40.5067 7.75249 40.4267 8.02416C39.5984 10.8292 38.99 13.6725 38.9184 16.6125C38.88 18.1758 38.885 19.7408 39.03 21.2958C39.1417 22.4758 39.375 23.6442 39.6334 24.8042C39.9267 26.1208 40.2167 27.4342 40.755 28.6775C40.8384 29.1492 41.0734 29.5942 40.9884 30.0925C40.7017 30.5375 40.2867 30.8892 39.7684 30.7792C39.28 30.6758 39.005 30.2508 38.815 29.7392C37.9367 27.3892 37.3467 24.9625 37.02 22.4892C36.76 20.5225 36.71 18.5275 36.7767 16.5358C36.8834 13.4142 37.4667 10.3792 38.3784 7.39916C38.5034 6.98749 38.6684 6.58749 38.83 6.18749C38.985 5.80416 39.125 5.39416 39.6334 5.33583C40.2084 5.27083 40.7134 5.35749 40.9867 5.95083V5.95416Z" fill="#2E3192"/>
<path d="M2.27335 10.3442C3.09335 10.3025 3.32835 10.8475 3.36502 11.3942C3.40002 11.9092 2.81169 12.4492 2.26669 12.4625C1.76502 12.4758 1.24002 11.8725 1.25002 11.2942C1.26002 10.6975 1.64669 10.3392 2.27335 10.3442Z" fill="#2E3192"/>
<path d="M46.3416 17.9308C46.6933 18.8508 47.135 19.1342 48.26 18.9342C49.3516 18.7408 50.4516 18.8158 51.545 18.7342C53.8133 18.5658 56.0816 18.4058 58.335 18.0908C61.2016 17.6908 62.4633 19.6042 62.3383 21.3858C62.255 22.5775 61.955 23.7508 61.8083 24.9392C61.6283 26.3942 61.4916 27.8558 61.3683 29.3158C61.2483 30.7425 61.215 32.1742 61.2466 33.6058C61.3 36.0692 61.4933 38.5192 61.83 40.9608C61.98 42.0475 62.1983 43.1208 62.3316 44.2075C62.55 45.9792 61.2933 47.7892 59.2966 47.7558C57.56 47.7275 55.84 47.4908 54.1166 47.2942C53.5 47.2242 52.8733 47.1992 52.26 47.1742C49.9383 47.0792 47.6216 46.8942 45.2966 46.8525C43.6333 46.8225 41.9683 46.7608 40.3066 46.7908C38.065 46.8325 35.8216 46.9108 33.5833 47.0375C31.5366 47.1542 29.495 47.3458 27.4516 47.5292C26.7133 47.5958 25.9816 47.7525 25.2366 47.7592C24.735 47.0542 24.2033 46.3625 24.0466 45.4775C24.0266 45.3608 24.0516 45.2375 24.055 45.1158C25.24 45.9675 25.7383 45.8008 26.2583 44.4475C26.75 43.1658 27.1466 41.8558 27.4216 40.5175C27.65 39.4075 27.94 38.3025 27.8783 37.1475C27.8483 36.5925 27.615 36.3042 27.045 36.2892C26.2166 36.2675 25.8283 36.5608 25.76 37.3808C25.6583 38.6008 25.3966 39.7892 25.1033 40.9692C24.8516 41.9858 24.6033 43.0142 24.0733 43.9392C24.1033 42.8275 24.3983 41.7492 24.52 40.6508C24.655 39.4242 24.7966 38.1942 24.8583 36.9625C24.9083 35.9942 25.0916 35.0292 24.99 34.0542C27.355 34.0225 29.7133 34.2258 32.0733 34.3208C33.9266 34.3958 35.7783 34.5908 37.62 34.8142C38.2533 34.8908 38.8933 34.9492 39.5266 35.0108C42.3883 35.2925 45.0383 33.1742 45.2483 30.1975C45.3416 28.8608 44.925 27.5842 44.8133 26.2692C44.695 24.8958 44.4583 23.5342 44.3483 22.1542C44.2366 20.7442 44.2716 19.3408 44.2683 17.9342C44.9583 17.9325 45.6483 17.9292 46.34 17.9275L46.3416 17.9308ZM55.9966 32.9058C55.9383 35.7208 56.3083 38.5408 57.01 41.3192C57.315 42.5258 57.6666 43.7192 58.1216 44.8792C58.3616 45.4925 58.8616 45.7592 59.39 45.6192C59.9183 45.4792 60.215 44.9908 60.1316 44.3492C60.1 44.1058 60.0083 43.8692 59.93 43.6342C58.9283 40.6208 58.1766 37.5558 58.1366 34.3608C58.1183 32.8292 58.0566 31.2958 58.2416 29.7642C58.3916 28.5142 58.5433 27.2658 58.8333 26.0442C59.1966 24.5125 59.6416 23.0008 60.165 21.5142C60.395 20.8608 59.9516 20.2408 59.27 20.1925C58.6116 20.1458 58.3066 20.3892 58.0166 21.2375C56.7266 25.0025 55.9116 28.8508 55.9983 32.9075L55.9966 32.9058Z" fill="#D7E3F3"/>
<path d="M24.0783 43.9408C24.6083 43.0158 24.8566 41.9875 25.1083 40.9708C25.4016 39.7908 25.6633 38.6025 25.7649 37.3825C25.8333 36.5608 26.2199 36.2692 27.0499 36.2908C27.6183 36.3058 27.8533 36.5942 27.8833 37.1492C27.9449 38.3042 27.6533 39.4108 27.4266 40.5192C27.1516 41.8592 26.7566 43.1692 26.2633 44.4492C25.7433 45.8025 25.2449 45.9675 24.0599 45.1175C23.9633 44.7242 23.9783 44.3308 24.0799 43.9408H24.0783Z" fill="#2E3192"/>
<path d="M55.9967 32.9042C55.9101 28.8458 56.7251 24.9992 58.0151 21.2342C58.3051 20.3858 58.6117 20.1425 59.2684 20.1892C59.9501 20.2375 60.3934 20.8575 60.1634 21.5108C59.6401 22.9992 59.1951 24.5092 58.8317 26.0408C58.5417 27.2625 58.3901 28.5125 58.2401 29.7608C58.0551 31.2925 58.1167 32.8258 58.1351 34.3575C58.1751 37.5508 58.9267 40.6175 59.9284 43.6308C60.0067 43.8658 60.0984 44.1025 60.1301 44.3458C60.2134 44.9875 59.9167 45.4758 59.3884 45.6158C58.8601 45.7558 58.3601 45.4892 58.1201 44.8758C57.6651 43.7158 57.3134 42.5225 57.0084 41.3158C56.3084 38.5358 55.9384 35.7175 55.9951 32.9025L55.9967 32.9042Z" fill="#2E3192"/>
</g>
<defs>
<clipPath id="clip0_68_801">
<rect width="64" height="49.0217" fill="white" transform="translate(0.5 0.989166)"/>
</clipPath>
</defs>
</svg>
