<svg width="143" height="24" viewBox="0 0 143 24" fill="none" xmlns="http://www.w3.org/2000/svg">
<path d="M4 7.54475C4.15188 7.28015 4.31008 7.02825 4.64336 6.9584C4.75305 6.93512 4.85852 6.92877 4.96821 6.92877C8.23353 6.92877 11.4989 6.95205 14.7642 6.91183C15.7218 6.89913 16.6352 6.56679 17.4705 6.06934C18.2573 5.60153 18.9766 5.02365 19.7761 4.57488C20.7464 4.02875 21.7779 3.7959 22.8326 4.21503C23.9674 4.66379 24.6952 5.52533 24.9757 6.74249C25.1445 7.4749 25.1508 8.2052 24.9799 8.93549C24.9462 9.08155 25.0052 9.1133 25.1339 9.11119C25.5558 9.10695 25.9798 9.10907 26.4038 9.11119C27.5323 9.11542 28.2621 9.84571 28.2642 10.9761C28.2642 11.9964 28.2748 13.0167 28.2579 14.037C28.2537 14.2931 28.3317 14.3587 28.568 14.3354C28.7852 14.3164 29.0131 14.3058 29.2261 14.3439C29.7492 14.4371 29.9855 14.7567 29.9897 15.2817C30.0024 16.5412 30.0045 17.7985 29.9897 19.058C29.9834 19.6677 29.6142 19.9937 29.0363 19.9937C20.9995 19.9979 12.9628 19.9937 4.92813 20C4.46195 20 4.21727 19.7333 4.00211 19.3861V11.1158C4.14344 10.9083 4.33328 10.7983 4.58008 10.8766C4.83321 10.957 4.86906 11.1772 4.86906 11.41C4.86906 12.3668 4.87328 13.3236 4.87539 14.2804C4.86906 14.3143 4.88383 14.327 4.91758 14.3227C5.18758 14.3227 5.45758 14.3227 5.72758 14.3227C5.98493 14.3369 6.12063 14.2176 6.13469 13.965C6.13469 13.9481 6.13469 13.9311 6.13469 13.9142C6.17266 13.639 6.3836 13.4485 6.6304 13.4654C6.8772 13.4824 6.99954 13.639 6.99743 13.9417C6.99743 14.2028 7.1261 14.3333 7.38345 14.3333C7.40876 14.3333 7.43407 14.3333 7.45939 14.3333C7.70829 14.3333 7.84189 14.2077 7.86017 13.9565C7.87915 13.6962 8.06689 13.4824 8.29259 13.4676C8.52462 13.4506 8.6997 13.6052 8.76509 13.8676C8.80306 14.02 8.67861 14.2338 8.83681 14.3122C8.97392 14.3799 9.16799 14.3312 9.33674 14.3333C9.37893 14.3333 9.42111 14.3291 9.4633 14.3333C9.60885 14.3545 9.68057 14.3016 9.7333 14.1534C9.94002 13.5692 10.3387 13.1691 10.923 12.9574C11.4039 12.7838 11.8807 12.8981 12.3553 12.9743C13.1294 13.0971 13.8993 13.2432 14.6735 13.3554C15.281 13.4422 15.5932 13.6433 15.667 14.1132C15.6965 14.2973 15.7556 14.2889 15.8927 14.255C16.6668 14.0687 17.2638 13.6157 17.7511 13.0082C18.6792 11.8482 19.1327 10.4765 19.485 9.06038C19.6031 8.58199 19.6601 8.08877 19.9111 7.64636C20.4237 6.74249 21.318 6.30431 22.263 6.52446C22.5204 6.58373 22.6385 6.73402 22.6132 6.96263C22.5837 7.21665 22.4402 7.33731 22.1681 7.34154C21.9572 7.34366 21.7378 7.31402 21.5374 7.36271C20.9426 7.50242 20.3604 8.3449 20.3983 8.96301C20.4026 9.04345 20.4194 9.09213 20.5101 9.09425C20.6283 9.09637 20.7464 9.1133 20.8645 9.1133C21.7357 9.1133 22.6069 9.1133 23.478 9.10907C24.0455 9.10907 24.0708 9.1133 24.172 8.55235C24.3534 7.55534 24.2311 6.6049 23.573 5.79628C22.9908 5.08292 22.2377 4.78233 21.3096 4.93262C20.7422 5.02365 20.2654 5.29883 19.7887 5.58671C19.1665 5.96139 18.5969 6.4165 17.9725 6.78906C17.0022 7.36694 15.9497 7.75432 14.8338 7.78395C12.6696 7.84111 10.5032 7.79877 8.33689 7.80089C7.46571 7.80089 6.59454 7.80512 5.72337 7.80935C5.48711 7.80724 5.25086 7.803 5.01461 7.80089C4.95133 7.80089 4.8986 7.79242 4.8543 7.87709C4.59274 8.36607 4.35649 8.38512 4 7.95541V7.54687V7.54475ZM5.72337 19.1152C5.77399 19.1194 5.82462 19.1258 5.87524 19.1258C13.5471 19.1258 21.2189 19.1215 28.8928 19.1258C29.089 19.1258 29.1291 19.0644 29.1291 18.8802C29.1206 17.7498 29.1164 16.6174 29.1312 15.487C29.1354 15.2393 29.051 15.2012 28.8316 15.2012C24.5517 15.2055 20.2718 15.2012 15.9918 15.2012C15.9412 15.2012 15.8906 15.2055 15.84 15.2012C15.7239 15.1906 15.6818 15.2309 15.6754 15.3579C15.6564 15.705 15.4708 15.9506 15.1523 16.0712C14.9498 16.1474 14.7325 16.1834 14.5174 16.2194C13.7116 16.357 12.8974 16.4607 12.0979 16.6301C11.0685 16.8481 10.21 16.4099 9.89362 15.6881C9.70588 15.2584 9.46752 15.1504 9.04564 15.1927C8.8347 15.2139 8.73767 15.2393 8.76509 15.4743C8.78619 15.6627 8.75666 15.8532 8.59001 15.9781C8.45501 16.0776 8.29892 16.1199 8.14072 16.0289C7.94243 15.9146 7.83908 15.7283 7.86228 15.5018C7.8897 15.252 7.80111 15.1589 7.55853 15.2012C7.51845 15.2076 7.47415 15.2012 7.43196 15.2012C6.99743 15.2012 6.98478 15.2012 6.99954 15.6415C7.00798 15.8744 6.89407 15.9992 6.70212 16.0543C6.50384 16.1114 6.33931 16.0331 6.2254 15.8532C6.13891 15.7177 6.1136 15.5717 6.13259 15.415C6.15157 15.2541 6.09883 15.1737 5.92586 15.1991C5.86047 15.2097 5.79087 15.2055 5.72337 15.2076C5.49555 15.2055 5.26774 15.2076 5.03992 15.197C4.91547 15.1927 4.86063 15.2224 4.86063 15.3642C4.86485 16.5602 4.86485 17.7583 4.86063 18.9564C4.86063 19.0961 4.91125 19.1321 5.03992 19.1258C5.26774 19.1152 5.49555 19.1173 5.72337 19.1131V19.1152ZM17.6962 14.3185C17.7743 14.327 17.8038 14.3312 17.8333 14.3312C20.9531 14.3312 24.075 14.327 27.1948 14.3312C27.3762 14.3312 27.3994 14.255 27.3994 14.1026C27.3952 13.0146 27.3994 11.9265 27.3952 10.8385C27.3952 10.4257 27.1188 10.1082 26.718 9.99389C26.4354 9.91345 26.1633 9.99389 25.887 9.99177C24.094 9.98754 22.301 9.99601 20.508 9.98331C20.2338 9.98331 20.1136 10.0574 20.0334 10.3262C19.7065 11.4121 19.2508 12.4409 18.5737 13.3596C18.3227 13.6983 18.019 13.9883 17.6941 14.3206L17.6962 14.3185ZM14.8148 14.7736C14.8148 14.7313 14.8148 14.689 14.8148 14.6466C14.8148 14.291 14.8148 14.2931 14.4646 14.2317C13.8086 14.1153 13.1547 13.9756 12.4966 13.8825C12.0979 13.8253 11.7035 13.6856 11.2879 13.766C10.691 13.8803 10.2459 14.6699 10.6256 15.2541C11.0221 15.8638 11.3681 15.868 12.0283 15.7558C12.7856 15.6288 13.5386 15.4828 14.2959 15.3536C14.8148 15.2668 14.8169 15.2732 14.8169 14.7736H14.8148Z" fill="#2E3192"/>
<path d="M4 9.38212C4.11813 9.27417 4.1814 9.10694 4.39656 9.11964C4.62859 9.13234 4.80367 9.20643 4.84797 9.43716C4.89016 9.65096 4.80789 9.8203 4.59484 9.93249C4.37547 10.0468 4.22992 9.96424 4.09281 9.80337C4.06117 9.76526 4.02953 9.72716 4 9.68906C4 9.58745 4 9.48585 4 9.38212Z" fill="#2E3192"/>
<path d="M5.72339 14.3228C5.72339 12.1509 5.72339 9.97908 5.72339 7.80724C6.59456 7.80513 7.46574 7.79878 8.33691 7.79878C10.5032 7.79878 12.6696 7.83899 14.8338 7.78184C15.9497 7.75221 17.0023 7.36483 17.9726 6.78695C18.5969 6.41439 19.1665 5.95928 19.7887 5.5846C20.2655 5.29672 20.7422 5.02154 21.3096 4.93051C22.2377 4.78022 22.9929 5.08081 23.573 5.79417C24.2311 6.60067 24.3535 7.55323 24.172 8.55024C24.0687 9.11119 24.0455 9.10696 23.4781 9.10696C22.6069 9.10696 21.7357 9.11119 20.8645 9.11119C20.7464 9.11119 20.6283 9.09426 20.5102 9.09214C20.4195 9.09214 20.4026 9.04134 20.3984 8.9609C20.3583 8.34068 20.9426 7.49819 21.5374 7.3606C21.7378 7.31403 21.9572 7.34366 22.1681 7.33943C22.4402 7.3352 22.5858 7.21242 22.6132 6.96052C22.6385 6.73191 22.5204 6.58162 22.2631 6.52235C21.3181 6.3022 20.4237 6.74038 19.9111 7.64425C19.6601 8.08878 19.6031 8.57987 19.485 9.05827C19.1327 10.4744 18.6792 11.8482 17.7511 13.0061C17.2638 13.6157 16.6669 14.0666 15.8927 14.2529C15.7556 14.2868 15.6965 14.2931 15.667 14.1111C15.5911 13.6411 15.281 13.4422 14.6735 13.3533C13.8994 13.2411 13.1273 13.095 12.3553 12.9722C11.8786 12.896 11.4018 12.7817 10.923 12.9553C10.3387 13.1649 9.94004 13.5671 9.73332 14.1513C9.68059 14.2995 9.60887 14.3524 9.46332 14.3312C9.42113 14.3249 9.37895 14.3312 9.33676 14.3312C9.16801 14.3291 8.97395 14.3778 8.83684 14.3101C8.67863 14.2317 8.80309 14.0179 8.76512 13.8655C8.69973 13.603 8.52465 13.4485 8.29261 13.4654C8.06902 13.4824 7.87918 13.6962 7.86019 13.9544C7.84191 14.2056 7.70832 14.3312 7.45941 14.3312C7.4341 14.3312 7.40878 14.3312 7.38347 14.3312C7.12472 14.3312 6.99605 14.2007 6.99745 13.9396C6.99745 13.639 6.87933 13.4824 6.63042 13.4633C6.38574 13.4464 6.17269 13.6369 6.13472 13.9121C6.13261 13.929 6.13472 13.946 6.13472 13.9629C6.12066 14.2169 5.98495 14.3362 5.72761 14.3206L5.72339 14.3228Z" fill="#EAEAF4"/>
<path d="M5.72546 15.2097C5.79296 15.2076 5.86047 15.2097 5.92797 15.2012C6.10094 15.1758 6.15367 15.2562 6.13468 15.4171C6.1157 15.5716 6.14101 15.7177 6.2275 15.8553C6.3414 16.0352 6.50594 16.1135 6.70422 16.0564C6.89617 16.0014 7.01008 15.8765 7.00164 15.6436C6.98688 15.2033 6.99742 15.2033 7.43407 15.2033C7.47625 15.2033 7.52055 15.2097 7.56063 15.2033C7.80321 15.1589 7.8918 15.252 7.86438 15.5039C7.83907 15.7304 7.94243 15.9167 8.14282 16.031C8.29891 16.122 8.455 16.0797 8.59211 15.9802C8.76086 15.8553 8.7904 15.6648 8.76719 15.4764C8.73977 15.2414 8.8368 15.216 9.04774 15.1949C9.46962 15.1525 9.70798 15.2605 9.89571 15.6902C10.2121 16.412 11.0706 16.8523 12.1 16.6322C12.8995 16.4628 13.7137 16.3591 14.5195 16.2215C14.7325 16.1855 14.9519 16.1495 15.1544 16.0733C15.4729 15.9548 15.6585 15.7071 15.6775 15.36C15.6839 15.2351 15.726 15.1927 15.8421 15.2033C15.8927 15.2076 15.9433 15.2033 15.9939 15.2033C20.2739 15.2033 24.5538 15.2076 28.8338 15.2033C29.0531 15.2033 29.1354 15.2414 29.1333 15.4891C29.1185 16.6195 29.1227 17.7519 29.1312 18.8823C29.1312 19.0665 29.0932 19.1279 28.8949 19.1279C21.2231 19.1236 13.5513 19.1279 5.87734 19.1279C5.82671 19.1279 5.77609 19.1215 5.72546 19.1173C5.72546 17.8155 5.72546 16.5136 5.72546 15.2118V15.2097Z" fill="#EAEAF4"/>
<path d="M17.6963 14.3185C18.0211 13.9862 18.3249 13.6962 18.5759 13.3575C19.2551 12.4388 19.7086 11.4122 20.0356 10.3241C20.1157 10.0553 20.2381 9.97908 20.5102 9.9812C22.3032 9.9939 24.0962 9.98543 25.8891 9.98967C26.1655 9.98967 26.4376 9.91134 26.7202 9.99178C27.121 10.1061 27.3952 10.4215 27.3973 10.8364C27.3994 11.9244 27.3973 13.0125 27.4016 14.1005C27.4016 14.2529 27.3805 14.3291 27.1969 14.3291C24.0772 14.3249 20.9553 14.3291 17.8355 14.3291C17.806 14.3291 17.7743 14.3228 17.6984 14.3164L17.6963 14.3185ZM23.0415 13.0103C23.0415 12.7584 22.8643 12.5912 22.6048 12.5954C22.3876 12.5997 22.1682 12.8283 22.1745 13.0421C22.1808 13.2411 22.4129 13.4655 22.609 13.4655C22.8748 13.4655 23.0436 13.2855 23.0415 13.0103ZM22.6301 10.8597C22.4044 10.8597 22.1829 11.065 22.1745 11.2809C22.1661 11.4841 22.4065 11.7318 22.609 11.7297C22.8664 11.7276 23.0436 11.537 23.0415 11.2682C23.0394 11.0163 22.8812 10.8597 22.6301 10.8597ZM20.9047 10.8597C20.6452 10.8512 20.449 11.0375 20.4469 11.2936C20.4469 11.4799 20.6621 11.717 20.8393 11.7297C21.084 11.7445 21.3054 11.5476 21.3118 11.3063C21.3202 11.0459 21.1557 10.8703 20.9047 10.8618V10.8597ZM21.3118 13.0506C21.3223 12.7902 21.1599 12.6081 20.911 12.5976C20.6811 12.587 20.4469 12.8029 20.4448 13.0294C20.4448 13.2305 20.6621 13.457 20.8625 13.4655C21.1029 13.476 21.3012 13.2919 21.3118 13.0506ZM24.7627 11.2957C24.7669 11.0184 24.6193 10.8597 24.3598 10.8597C24.1088 10.8597 23.9485 11.0163 23.9443 11.2661C23.9401 11.5286 24.1151 11.7339 24.3408 11.7318C24.5961 11.7276 24.7606 11.5582 24.7627 11.2978V11.2957ZM24.7627 13.0357C24.7627 12.7669 24.6087 12.5976 24.3577 12.5976C24.1194 12.5976 23.9485 12.7669 23.9443 13.0082C23.9422 13.2622 24.1004 13.457 24.3176 13.4655C24.5792 13.476 24.7606 13.3025 24.7606 13.0357H24.7627ZM26.4987 13.0357C26.5008 12.7775 26.3532 12.606 26.1169 12.5976C25.8512 12.5891 25.6719 12.7648 25.674 13.0336C25.674 13.2644 25.8427 13.457 26.0494 13.4655C26.3089 13.476 26.4966 13.2961 26.4987 13.0357Z" fill="#EAEAF4"/>
<path d="M14.8148 14.7736C14.8148 15.2732 14.8148 15.2647 14.2938 15.3536C13.5365 15.4806 12.7835 15.6288 12.0262 15.7558C11.366 15.8659 11.02 15.8617 10.6235 15.2541C10.2438 14.672 10.691 13.8825 11.2858 13.766C11.7014 13.6856 12.0937 13.8253 12.4945 13.8825C13.1547 13.9756 13.8065 14.1153 14.4625 14.2317C14.8127 14.2952 14.8127 14.291 14.8127 14.6466C14.8127 14.689 14.8127 14.7313 14.8127 14.7736H14.8148ZM11.7646 14.3333C11.5537 14.3355 11.3639 14.5387 11.3639 14.7652C11.3639 14.9811 11.5664 15.2012 11.7667 15.1991C12.0389 15.1991 12.2329 15.0044 12.2245 14.7398C12.2182 14.5217 12.0009 14.3312 11.7646 14.3333Z" fill="#EAEAF4"/>
<path d="M4.87328 14.2825C4.88805 14.2973 4.9007 14.31 4.91547 14.3248C4.88172 14.3312 4.86906 14.3164 4.87328 14.2825Z" fill="#EAEAF4"/>
<path d="M23.0413 13.0103C23.0413 13.2855 22.8726 13.4633 22.6089 13.4655C22.4127 13.4655 22.1807 13.2432 22.1744 13.0421C22.1659 12.8304 22.3874 12.5997 22.6047 12.5954C22.8641 12.5912 23.0413 12.7563 23.0413 13.0103Z" fill="#2E3192"/>
<path d="M22.63 10.8575C22.881 10.8575 23.0392 11.0142 23.0413 11.2661C23.0434 11.5349 22.8662 11.7254 22.6089 11.7275C22.4064 11.7275 22.1659 11.4799 22.1743 11.2788C22.1828 11.0629 22.4043 10.8575 22.63 10.8575Z" fill="#2E3192"/>
<path d="M20.9067 10.8576C21.1599 10.866 21.3223 11.0438 21.3138 11.3021C21.3075 11.5434 21.086 11.7424 20.8413 11.7254C20.662 11.7149 20.4469 11.4757 20.449 11.2894C20.449 11.0333 20.6473 10.847 20.9067 10.8554V10.8576Z" fill="#2E3192"/>
<path d="M21.3139 13.0505C21.3054 13.2919 21.1071 13.4739 20.8646 13.4654C20.6642 13.457 20.4469 13.2305 20.4469 13.0294C20.4469 12.8029 20.681 12.587 20.9131 12.5975C21.162 12.6081 21.3223 12.7923 21.3139 13.0505Z" fill="#2E3192"/>
<path d="M24.7647 11.2936C24.7605 11.554 24.596 11.7233 24.3429 11.7276C24.1172 11.7318 23.9421 11.5243 23.9463 11.2619C23.9505 11.0121 24.1108 10.8554 24.3619 10.8554C24.6234 10.8554 24.769 11.0142 24.7647 11.2915V11.2936Z" fill="#2E3192"/>
<path d="M24.7626 13.0336C24.7626 13.3003 24.5812 13.4739 24.3197 13.4633C24.1024 13.4548 23.9442 13.2601 23.9463 13.0061C23.9484 12.7648 24.1193 12.5954 24.3597 12.5954C24.6108 12.5954 24.7669 12.7648 24.7648 13.0336H24.7626Z" fill="#2E3192"/>
<path d="M26.4987 13.0336C26.4966 13.2961 26.3088 13.4739 26.0494 13.4633C25.8427 13.4548 25.676 13.2622 25.6739 13.0315C25.6718 12.7626 25.8511 12.5869 26.1169 12.5954C26.351 12.6039 26.5008 12.7732 26.4987 13.0336Z" fill="#2E3192"/>
<path d="M11.7647 14.3333C12.0009 14.3312 12.2182 14.5238 12.2245 14.7398C12.233 15.0022 12.0389 15.197 11.7668 15.1991C11.5664 15.1991 11.3618 14.9811 11.3639 14.7652C11.3639 14.5387 11.5538 14.3354 11.7647 14.3333Z" fill="#2E3192"/>
<path d="M56.198 16.566C56.1887 16.6873 56.1373 16.79 56.044 16.874C55.96 16.958 55.862 17 55.75 17C55.6193 17 55.512 16.958 55.428 16.874C55.3533 16.79 55.316 16.6873 55.316 16.566V7.634C55.316 7.51267 55.358 7.41 55.442 7.326C55.526 7.242 55.6333 7.2 55.764 7.2C55.876 7.2 55.974 7.242 56.058 7.326C56.1513 7.41 56.198 7.51267 56.198 7.634V16.566ZM61.98 9.678C62.596 9.678 63.086 9.804 63.45 10.056C63.8233 10.2987 64.0893 10.6347 64.248 11.064C64.416 11.484 64.5 11.9507 64.5 12.464V16.58C64.5 16.692 64.458 16.79 64.374 16.874C64.29 16.958 64.192 17 64.08 17C63.9493 17 63.8467 16.958 63.772 16.874C63.6973 16.79 63.66 16.692 63.66 16.58V12.506C63.66 12.1327 63.5993 11.792 63.478 11.484C63.3567 11.176 63.156 10.9287 62.876 10.742C62.6053 10.5553 62.246 10.462 61.798 10.462C61.3967 10.462 61.014 10.5553 60.65 10.742C60.2953 10.9287 60.006 11.176 59.782 11.484C59.558 11.792 59.446 12.1327 59.446 12.506V16.58C59.446 16.692 59.404 16.79 59.32 16.874C59.236 16.958 59.138 17 59.026 17C58.8953 17 58.7927 16.958 58.718 16.874C58.6433 16.79 58.606 16.692 58.606 16.58V10.308C58.606 10.196 58.6433 10.098 58.718 10.014C58.802 9.93 58.9047 9.888 59.026 9.888C59.1473 9.888 59.2453 9.93 59.32 10.014C59.404 10.098 59.446 10.196 59.446 10.308V11.484L59.124 11.988C59.1427 11.6893 59.236 11.4047 59.404 11.134C59.5813 10.854 59.8053 10.6067 60.076 10.392C60.3467 10.168 60.6453 9.99533 60.972 9.874C61.308 9.74333 61.644 9.678 61.98 9.678ZM69.8498 9.678C70.2978 9.678 70.7084 9.72933 71.0818 9.832C71.4551 9.92533 71.7538 10.056 71.9778 10.224C72.2111 10.392 72.3278 10.574 72.3278 10.77C72.3278 10.8633 72.2951 10.9567 72.2298 11.05C72.1644 11.134 72.0758 11.176 71.9638 11.176C71.8518 11.176 71.7584 11.148 71.6838 11.092C71.6184 11.036 71.5484 10.9707 71.4738 10.896C71.4084 10.8213 71.3104 10.7513 71.1798 10.686C71.0584 10.63 70.8858 10.5787 70.6618 10.532C70.4378 10.4853 70.1811 10.462 69.8918 10.462C69.3691 10.462 68.8978 10.5927 68.4778 10.854C68.0578 11.1153 67.7264 11.47 67.4838 11.918C67.2411 12.3567 67.1198 12.8513 67.1198 13.402C67.1198 13.962 67.2364 14.466 67.4698 14.914C67.7031 15.362 68.0251 15.7167 68.4358 15.978C68.8464 16.23 69.3271 16.356 69.8778 16.356C70.2511 16.356 70.5404 16.3233 70.7458 16.258C70.9511 16.1927 71.1284 16.118 71.2778 16.034C71.4551 15.9313 71.5811 15.8333 71.6558 15.74C71.7398 15.6373 71.8471 15.586 71.9778 15.586C72.0991 15.586 72.1878 15.6233 72.2438 15.698C72.3091 15.7633 72.3418 15.852 72.3418 15.964C72.3418 16.1133 72.2298 16.2813 72.0058 16.468C71.7911 16.6453 71.4924 16.804 71.1098 16.944C70.7271 17.0747 70.2884 17.14 69.7938 17.14C69.0938 17.14 68.4778 16.9767 67.9458 16.65C67.4231 16.3233 67.0124 15.88 66.7138 15.32C66.4244 14.7507 66.2798 14.1113 66.2798 13.402C66.2798 12.7207 66.4291 12.1 66.7278 11.54C67.0264 10.98 67.4418 10.532 67.9738 10.196C68.5151 9.85067 69.1404 9.678 69.8498 9.678ZM74.8698 16.58C74.8698 16.692 74.8278 16.79 74.7438 16.874C74.6598 16.958 74.5618 17 74.4498 17C74.3285 17 74.2258 16.958 74.1418 16.874C74.0672 16.79 74.0298 16.692 74.0298 16.58V7.06C74.0298 6.948 74.0718 6.85 74.1558 6.766C74.2398 6.682 74.3378 6.64 74.4498 6.64C74.5712 6.64 74.6692 6.682 74.7438 6.766C74.8278 6.85 74.8698 6.948 74.8698 7.06V16.58ZM82.452 9.888C82.5734 9.888 82.6714 9.93 82.746 10.014C82.83 10.098 82.872 10.196 82.872 10.308V14.256C82.872 15.18 82.6107 15.8847 82.088 16.37C81.5654 16.8553 80.8607 17.098 79.974 17.098C79.0967 17.098 78.3967 16.8553 77.874 16.37C77.3607 15.8847 77.104 15.18 77.104 14.256V10.308C77.104 10.196 77.1414 10.098 77.216 10.014C77.3 9.93 77.4027 9.888 77.524 9.888C77.6454 9.888 77.7434 9.93 77.818 10.014C77.902 10.098 77.944 10.196 77.944 10.308V14.256C77.944 14.928 78.1214 15.4413 78.476 15.796C78.84 16.1413 79.3394 16.314 79.974 16.314C80.618 16.314 81.122 16.1413 81.486 15.796C81.85 15.4413 82.032 14.928 82.032 14.256V10.308C82.032 10.196 82.0694 10.098 82.144 10.014C82.2187 9.93 82.3214 9.888 82.452 9.888ZM90.4088 9.72C90.5301 9.72 90.6281 9.762 90.7028 9.846C90.7868 9.93 90.8288 10.028 90.8288 10.14V16.314C90.8288 17.07 90.6794 17.7047 90.3808 18.218C90.0821 18.7407 89.6808 19.1327 89.1768 19.394C88.6728 19.6647 88.0988 19.8 87.4548 19.8C87.0534 19.8 86.6801 19.7533 86.3348 19.66C85.9988 19.576 85.7234 19.464 85.5088 19.324C85.3968 19.2587 85.3128 19.1793 85.2568 19.086C85.2008 18.9927 85.1961 18.8947 85.2428 18.792C85.2894 18.6613 85.3594 18.5727 85.4528 18.526C85.5554 18.4887 85.6581 18.4933 85.7608 18.54C85.9194 18.624 86.1481 18.7267 86.4468 18.848C86.7454 18.9693 87.0861 19.03 87.4688 19.03C87.9821 19.03 88.4254 18.9227 88.7988 18.708C89.1814 18.4933 89.4754 18.1807 89.6808 17.77C89.8861 17.3687 89.9888 16.888 89.9888 16.328V15.32L90.0868 15.656C89.9468 15.9453 89.7461 16.202 89.4848 16.426C89.2328 16.65 88.9388 16.8273 88.6028 16.958C88.2761 17.0793 87.9261 17.14 87.5528 17.14C86.9928 17.14 86.5261 17.028 86.1528 16.804C85.7888 16.5707 85.5181 16.2533 85.3408 15.852C85.1634 15.4507 85.0748 14.9793 85.0748 14.438V10.14C85.0748 10.028 85.1121 9.93 85.1868 9.846C85.2614 9.762 85.3641 9.72 85.4948 9.72C85.6161 9.72 85.7141 9.762 85.7888 9.846C85.8728 9.93 85.9148 10.028 85.9148 10.14V14.312C85.9148 14.9653 86.0548 15.4693 86.3348 15.824C86.6241 16.1787 87.0908 16.356 87.7348 16.356C88.1361 16.356 88.5048 16.2627 88.8408 16.076C89.1768 15.88 89.4521 15.628 89.6668 15.32C89.8814 15.0027 89.9888 14.6667 89.9888 14.312V10.14C89.9888 10.028 90.0261 9.93 90.1008 9.846C90.1848 9.762 90.2874 9.72 90.4088 9.72ZM96.1974 17.14C95.4788 17.14 94.8441 16.986 94.2934 16.678C93.7428 16.37 93.3134 15.9407 93.0054 15.39C92.6974 14.8393 92.5434 14.1953 92.5434 13.458C92.5434 12.6647 92.6974 11.988 93.0054 11.428C93.3228 10.868 93.7288 10.4387 94.2234 10.14C94.7274 9.832 95.2594 9.678 95.8194 9.678C96.2301 9.678 96.6268 9.75267 97.0094 9.902C97.4014 10.042 97.7468 10.2567 98.0454 10.546C98.3534 10.826 98.5961 11.1713 98.7734 11.582C98.9601 11.9927 99.0628 12.4687 99.0814 13.01C99.0721 13.122 99.0254 13.22 98.9414 13.304C98.8574 13.3787 98.7594 13.416 98.6474 13.416H93.0334L92.8654 12.66H98.3814L98.1994 12.828V12.548C98.1621 12.1093 98.0221 11.736 97.7794 11.428C97.5368 11.12 97.2428 10.8867 96.8974 10.728C96.5521 10.5693 96.1928 10.49 95.8194 10.49C95.5394 10.49 95.2501 10.546 94.9514 10.658C94.6621 10.77 94.3961 10.9473 94.1534 11.19C93.9201 11.4233 93.7288 11.7267 93.5794 12.1C93.4301 12.464 93.3554 12.898 93.3554 13.402C93.3554 13.9527 93.4674 14.452 93.6914 14.9C93.9154 15.348 94.2374 15.7027 94.6574 15.964C95.0868 16.2253 95.5954 16.356 96.1834 16.356C96.5101 16.356 96.8041 16.3093 97.0654 16.216C97.3268 16.1227 97.5554 16.0013 97.7514 15.852C97.9474 15.6933 98.1108 15.53 98.2414 15.362C98.3441 15.278 98.4468 15.236 98.5494 15.236C98.6428 15.236 98.7221 15.2733 98.7874 15.348C98.8621 15.4227 98.8994 15.5067 98.8994 15.6C98.8994 15.712 98.8528 15.81 98.7594 15.894C98.4794 16.23 98.1154 16.524 97.6674 16.776C97.2194 17.0187 96.7294 17.14 96.1974 17.14ZM105.352 17C105.221 17 105.114 16.958 105.03 16.874C104.955 16.79 104.918 16.692 104.918 16.58V7.62C104.918 7.508 104.96 7.41 105.044 7.326C105.128 7.242 105.226 7.2 105.338 7.2H110.434C110.555 7.2 110.653 7.242 110.728 7.326C110.812 7.40067 110.854 7.49867 110.854 7.62C110.854 7.732 110.812 7.83 110.728 7.914C110.653 7.98867 110.555 8.026 110.434 8.026H105.716L105.772 7.942V11.666L105.702 11.54H109.804C109.925 11.54 110.023 11.582 110.098 11.666C110.182 11.7407 110.224 11.834 110.224 11.946C110.224 12.0673 110.182 12.1653 110.098 12.24C110.023 12.3147 109.925 12.352 109.804 12.352H105.674L105.772 12.24V16.58C105.772 16.692 105.73 16.79 105.646 16.874C105.571 16.958 105.473 17 105.352 17ZM119.096 13.416C119.096 14.1253 118.942 14.7647 118.634 15.334C118.326 15.894 117.906 16.3373 117.374 16.664C116.842 16.9813 116.236 17.14 115.554 17.14C114.892 17.14 114.29 16.9813 113.748 16.664C113.216 16.3373 112.792 15.894 112.474 15.334C112.166 14.7647 112.012 14.1253 112.012 13.416C112.012 12.6973 112.166 12.058 112.474 11.498C112.792 10.938 113.216 10.4947 113.748 10.168C114.29 9.84133 114.892 9.678 115.554 9.678C116.236 9.678 116.842 9.84133 117.374 10.168C117.906 10.4947 118.326 10.938 118.634 11.498C118.942 12.058 119.096 12.6973 119.096 13.416ZM118.256 13.416C118.256 12.8467 118.14 12.3427 117.906 11.904C117.673 11.456 117.351 11.106 116.94 10.854C116.539 10.5927 116.077 10.462 115.554 10.462C115.05 10.462 114.593 10.5927 114.182 10.854C113.772 11.106 113.445 11.456 113.202 11.904C112.969 12.3427 112.852 12.8467 112.852 13.416C112.852 13.9853 112.969 14.4893 113.202 14.928C113.445 15.3667 113.772 15.7167 114.182 15.978C114.593 16.23 115.05 16.356 115.554 16.356C116.077 16.356 116.539 16.23 116.94 15.978C117.351 15.7167 117.673 15.3667 117.906 14.928C118.14 14.4893 118.256 13.9853 118.256 13.416ZM121.301 17C121.171 17 121.068 16.958 120.993 16.874C120.919 16.79 120.881 16.692 120.881 16.58V10.308C120.881 10.196 120.919 10.098 120.993 10.014C121.077 9.93 121.18 9.888 121.301 9.888C121.423 9.888 121.521 9.93 121.595 10.014C121.679 10.098 121.721 10.196 121.721 10.308V12.408L121.511 12.45C121.539 12.1233 121.619 11.8013 121.749 11.484C121.889 11.1573 122.076 10.8587 122.309 10.588C122.543 10.3173 122.818 10.098 123.135 9.93C123.462 9.762 123.826 9.678 124.227 9.678C124.395 9.678 124.559 9.71533 124.717 9.79C124.876 9.85533 124.955 9.96733 124.955 10.126C124.955 10.266 124.918 10.3733 124.843 10.448C124.769 10.5227 124.68 10.56 124.577 10.56C124.493 10.56 124.4 10.5367 124.297 10.49C124.204 10.4433 124.078 10.42 123.919 10.42C123.658 10.42 123.397 10.4993 123.135 10.658C122.874 10.8073 122.636 11.0127 122.421 11.274C122.207 11.5353 122.034 11.8293 121.903 12.156C121.782 12.4733 121.721 12.7953 121.721 13.122V16.58C121.721 16.692 121.679 16.79 121.595 16.874C121.511 16.958 121.413 17 121.301 17ZM126.688 17C126.557 17 126.455 16.958 126.38 16.874C126.305 16.79 126.268 16.692 126.268 16.58V10.308C126.268 10.196 126.305 10.098 126.38 10.014C126.464 9.93 126.567 9.888 126.688 9.888C126.809 9.888 126.907 9.93 126.982 10.014C127.066 10.098 127.108 10.196 127.108 10.308V12.408L126.898 12.45C126.926 12.1233 127.005 11.8013 127.136 11.484C127.276 11.1573 127.463 10.8587 127.696 10.588C127.929 10.3173 128.205 10.098 128.522 9.93C128.849 9.762 129.213 9.678 129.614 9.678C129.782 9.678 129.945 9.71533 130.104 9.79C130.263 9.85533 130.342 9.96733 130.342 10.126C130.342 10.266 130.305 10.3733 130.23 10.448C130.155 10.5227 130.067 10.56 129.964 10.56C129.88 10.56 129.787 10.5367 129.684 10.49C129.591 10.4433 129.465 10.42 129.306 10.42C129.045 10.42 128.783 10.4993 128.522 10.658C128.261 10.8073 128.023 11.0127 127.808 11.274C127.593 11.5353 127.421 11.8293 127.29 12.156C127.169 12.4733 127.108 12.7953 127.108 13.122V16.58C127.108 16.692 127.066 16.79 126.982 16.874C126.898 16.958 126.8 17 126.688 17ZM138.004 13.416C138.004 14.1253 137.85 14.7647 137.542 15.334C137.234 15.894 136.814 16.3373 136.282 16.664C135.75 16.9813 135.144 17.14 134.462 17.14C133.8 17.14 133.198 16.9813 132.656 16.664C132.124 16.3373 131.7 15.894 131.382 15.334C131.074 14.7647 130.92 14.1253 130.92 13.416C130.92 12.6973 131.074 12.058 131.382 11.498C131.7 10.938 132.124 10.4947 132.656 10.168C133.198 9.84133 133.8 9.678 134.462 9.678C135.144 9.678 135.75 9.84133 136.282 10.168C136.814 10.4947 137.234 10.938 137.542 11.498C137.85 12.058 138.004 12.6973 138.004 13.416ZM137.164 13.416C137.164 12.8467 137.048 12.3427 136.814 11.904C136.581 11.456 136.259 11.106 135.848 10.854C135.447 10.5927 134.985 10.462 134.462 10.462C133.958 10.462 133.501 10.5927 133.09 10.854C132.68 11.106 132.353 11.456 132.11 11.904C131.877 12.3427 131.76 12.8467 131.76 13.416C131.76 13.9853 131.877 14.4893 132.11 14.928C132.353 15.3667 132.68 15.7167 133.09 15.978C133.501 16.23 133.958 16.356 134.462 16.356C134.985 16.356 135.447 16.23 135.848 15.978C136.259 15.7167 136.581 15.3667 136.814 14.928C137.048 14.4893 137.164 13.9853 137.164 13.416Z" fill="#2E3192"/>
</svg>
