<svg width="65" height="64" viewBox="0 0 65 64" fill="none" xmlns="http://www.w3.org/2000/svg">
<g clip-path="url(#clip0_68_813)">
<path d="M0.512451 26.95C0.764014 26.4 0.982764 25.8391 1.31558 25.3234C1.77808 24.6062 2.44526 24.1594 3.19995 23.8859C3.66401 23.7187 3.72808 23.4875 3.72808 23.075C3.72808 20.5406 3.70308 18.0047 3.77495 15.4703C3.83745 13.2422 6.00308 11.0281 8.2562 10.8672C11.6359 10.6234 15.0234 10.7734 18.4078 10.7844C20.0093 10.7891 21.4906 11.2812 22.5453 12.6234C22.7328 12.8609 22.8984 12.9094 23.1296 12.6297C24.2859 11.2359 25.8343 10.7594 27.5843 10.7625C30.6593 10.7687 33.7359 10.7812 36.8109 10.7578C38.7453 10.7437 40.5 11.1328 41.8109 12.6953C41.9921 12.9109 42.0578 12.8219 42.2171 12.6453C43.3875 11.3391 44.8812 10.7641 46.6171 10.7641C49.5671 10.7641 52.5187 10.7391 55.4687 10.7719C57.7593 10.7984 59.5812 11.7 60.614 13.8469C61 14.6469 61.1593 15.5156 61.1562 16.4109C61.1515 18.6547 61.1671 20.9 61.1437 23.1437C61.139 23.5859 61.2828 23.7953 61.6875 23.95C63.1531 24.5141 63.9828 25.5891 64.2515 27.1453C64.3953 27.9734 64.3578 28.7953 64.3593 29.6203C64.3671 35.5844 64.3671 41.5484 64.3593 47.5125C64.3593 48.1781 64.3218 48.8437 63.4625 49.0547C63.1125 49.1406 63.2312 49.5109 63.25 49.7562C63.3343 50.8312 63.0484 51.7484 62.2296 52.4906C61.6062 53.0562 60.8937 53.3578 60.0578 53.3609C58.9781 53.3656 57.8968 53.3437 56.8171 53.3562C55.3921 53.375 53.9421 52.0844 53.775 50.725C53.7421 50.4594 53.6265 50.2203 53.6296 49.939C53.639 49.1078 53.6218 49.1078 52.7593 49.1078C39.1687 49.1078 25.5796 49.1078 11.989 49.1078C10.989 49.1078 11.0781 49.0031 11.1234 49.9562C11.214 51.8516 9.6437 53.4344 7.7187 53.3687C6.64058 53.3328 5.55151 53.4531 4.4812 53.3562C3.18276 53.2375 1.98745 52.3297 1.64526 50.8125C1.6187 50.6922 1.60933 50.5672 1.58745 50.4453C1.57183 50.3578 0.587451 48.4922 0.512451 48.3984V40.1672C0.774951 40.0687 0.803076 39.7453 1.08745 39.6297C1.91714 39.2937 2.62339 39.8234 2.63276 40.8594C2.64839 42.5422 2.63745 44.225 2.63745 45.9078C2.63745 46.6349 3.01089 46.9693 3.75776 46.9109C4.60776 46.9187 5.45933 46.9016 6.3062 46.9453C6.78276 46.9703 6.8937 46.8015 6.8937 46.3453C6.87964 40.2265 6.88745 34.1078 6.8812 27.9906C6.8812 26.4531 5.91089 25.5922 4.37339 25.7328C3.1687 26.0672 2.63901 26.7594 2.63745 28.0062C2.63745 29.2469 2.64214 30.4859 2.63433 31.7266C2.6312 32.2047 2.55151 32.6656 2.08901 32.9375C1.48901 33.2922 1.0812 33.1578 0.512451 32.4359V26.9484V26.95ZM60.1109 29.5734C60.2156 28.7078 60.1312 27.8453 59.9968 26.9953C59.9281 26.5609 59.8062 25.9656 59.3453 25.8969C58.9125 25.8312 58.575 26.2969 58.3156 26.6828C58.1171 26.9781 57.9859 27.2812 58 27.6562C58.0281 28.4187 58.0156 29.1844 58.0203 29.9469C58.0203 31.3578 58.0171 32.7687 58.0171 34.1781C58.0093 37.9109 58.0015 41.6453 57.9953 45.3781C57.9921 46.9719 57.9953 46.9562 59.5953 46.9453C60.0359 46.9422 60.1562 46.8 60.1531 46.3719C60.1359 44.0281 60.1484 41.6844 60.1437 39.3391C60.1406 37.6187 60.125 35.8969 60.114 34.1766C60.114 32.6406 60.1125 31.1062 60.1109 29.5703V29.5734ZM8.25308 13.0297C6.78901 13.4312 5.87808 14.5469 5.85933 16.0703C5.8312 18.2859 5.84995 20.5016 5.84839 22.7172C5.84839 23.4109 6.18901 23.8677 6.87026 24.0875C6.99526 24.1703 7.1187 24.2531 7.2437 24.3359C8.24214 25.0875 8.76245 26.1234 9.01245 27.3187V29.4687C10.1968 28.7609 11.4218 28.8312 12.639 28.8391C14.0718 28.8469 15.5062 28.825 16.939 28.8453C18.5593 28.8687 20.2125 28.6125 21.7687 29.4297V25.3156C21.8328 24.1594 21.8375 23.0031 21.7671 21.8469C21.7796 19.9656 21.8171 18.0844 21.7875 16.2047C21.7796 15.7547 21.7062 15.2719 21.4812 14.8469C21.1156 13.9578 20.4812 13.3859 19.5515 13.0984C18.5734 12.7953 17.5906 12.9109 16.6031 12.9672C16.4359 12.8469 16.2437 12.8922 16.0609 12.8922C13.8031 12.8891 11.5468 12.8922 9.28901 12.8891C8.93589 12.8891 8.58901 12.9312 8.24995 13.0297H8.25308ZM56.8921 16.0984C56.95 15.0953 56.5734 14.2469 55.9921 13.4562C55.7437 13.1187 55.4828 12.8844 55.0312 12.8859C52.1484 12.8953 49.2656 12.8672 46.3843 12.9016C44.9578 12.9187 43.8984 13.6016 43.3156 14.9344C42.8296 16.0453 43.1218 17.2109 43.1093 18.3547C43.039 19.5125 43.0406 20.6687 43.1093 21.8266C43.0218 24.3156 43.0718 26.8047 43.0875 29.2937C43.0875 29.3203 43.1359 29.3484 43.1796 29.3953C43.8843 29.05 44.6234 28.8344 45.4265 28.8359C48.125 28.8453 50.8234 28.8437 53.5218 28.8359C54.1328 28.8344 54.7296 28.9594 55.2609 29.2062C55.8546 29.4828 55.9078 29.2781 55.8656 28.7672C55.7468 27.3406 55.9593 26.0062 56.9921 24.9141C57.0625 24.8406 57.1312 24.7656 57.1062 24.6437C56.8625 23.3922 57.064 22.1266 56.9937 20.8687C56.9687 20.4406 57.0953 20.0016 56.9 19.5859C56.8984 18.4234 56.8953 17.2609 56.8937 16.0969L56.8921 16.0984ZM40.9078 22.2078C40.9078 21.0469 40.9078 19.8844 40.9078 18.7234C40.9109 17.7687 40.9562 16.8109 40.9062 15.8578C40.839 14.5937 39.8906 13.3828 38.689 13.0891C38.1781 12.9641 37.6796 12.8781 37.1593 12.8922C35.6687 12.9297 34.175 12.8172 32.6843 12.9469C30.8843 12.8359 29.0828 12.8969 27.2828 12.9047C26.1875 12.9094 25.2187 13.2531 24.5796 14.2281C24.1734 14.6969 23.964 15.2469 23.9625 15.8641C23.9578 17.7328 23.9656 19.6016 23.9687 21.4687C23.9687 22.6297 23.9687 23.7922 23.9687 24.9531V29.4484C25.0734 28.7875 26.2171 28.8375 27.3593 28.8406C30.9734 28.8469 34.5874 28.8516 38.2015 28.8359C38.9999 28.8328 39.7656 28.9562 40.5015 29.2469C40.8609 29.3891 40.9359 29.275 40.9343 28.9391C40.9218 26.6969 40.9171 24.4531 40.9109 22.2109L40.9078 22.2078ZM32.4453 46.9375C39.9875 46.9375 47.5296 46.9375 55.0718 46.9375C55.601 46.9375 55.8656 46.6656 55.8656 46.1219C55.8656 44.1484 55.8437 42.1734 55.8796 40.2C55.8906 39.6375 55.7203 39.5156 55.1812 39.5172C49.3843 39.5359 43.5875 39.5297 37.7906 39.5297C28.4406 39.5297 19.0906 39.5359 9.74058 39.5156C9.1312 39.5156 8.98276 39.6844 8.9937 40.2781C9.03276 42.2516 9.03276 44.2266 8.9937 46.1984C8.9812 46.8047 9.16089 46.9516 9.75464 46.95C17.3171 46.9297 24.8812 46.9359 32.4437 46.9359L32.4453 46.9375ZM32.3984 37.4031C35.0562 37.4031 37.714 37.3953 40.3734 37.4109C40.7968 37.414 40.9546 37.3062 40.9453 36.8578C40.9171 35.6328 40.9515 34.4078 40.9296 33.1828C40.9078 31.9094 40.0625 30.9953 38.7953 30.9875C34.5593 30.9594 30.3234 30.9734 26.0859 30.9797C25.0203 30.9797 23.8625 31.9203 23.9281 33.2312C23.9875 34.4125 23.9609 35.5984 23.9281 36.7812C23.9156 37.2641 24.0453 37.4203 24.5484 37.4156C27.164 37.3906 29.7812 37.4047 32.3984 37.4047V37.4031ZM15.4375 37.4031C17.3703 37.4031 19.3031 37.3875 21.2359 37.4141C21.7125 37.4203 21.8375 37.2734 21.825 36.8141C21.7937 35.6516 21.8218 34.4875 21.8124 33.3234C21.8015 31.9141 20.9328 30.9953 19.5312 30.9828C16.789 30.9594 14.0453 30.9594 11.3015 30.9828C9.89995 30.9953 9.02495 31.9141 9.01089 33.3141C8.99995 34.4781 9.03745 35.6422 8.99526 36.8047C8.97651 37.3312 9.17495 37.4187 9.63901 37.4125C11.5718 37.3906 13.5046 37.4031 15.4375 37.4031ZM49.45 37.4031C51.4015 37.4031 53.3531 37.3922 55.3046 37.4125C55.7296 37.4172 55.8859 37.3094 55.875 36.8594C55.8453 35.6766 55.8734 34.4922 55.8625 33.3094C55.8515 31.9328 54.9984 31.0016 53.6343 30.9859C50.8531 30.9547 48.0703 30.9531 45.289 30.9859C43.914 31.0031 43.0781 31.9062 43.0625 33.2844C43.0484 34.4672 43.0828 35.6516 43.0484 36.8344C43.0343 37.325 43.2125 37.4172 43.6578 37.4125C45.5875 37.3906 47.5187 37.4031 49.45 37.4031ZM5.31245 49.1156C4.87651 49.1156 4.43901 49.1141 4.00308 49.1156C3.83589 49.1156 3.65933 49.114 3.63589 49.3484C3.54839 50.2015 3.77026 51.2078 4.97495 51.2359C5.34839 51.2437 5.72964 51.1937 6.09526 51.2484C6.65776 51.3297 6.81401 51.0219 6.88745 50.5656C7.10151 49.225 7.01245 49.114 5.68745 49.114C5.56245 49.114 5.43745 49.114 5.31401 49.114L5.31245 49.1156ZM57.7765 51.239C58.6109 51.239 59.027 50.813 59.025 49.9609C59.025 49.8156 59.0171 49.6687 59.025 49.525C59.0421 49.2422 58.9359 49.1078 58.6328 49.1109C57.8015 49.1219 56.9703 49.1125 56.139 49.1156C55.975 49.1156 55.7906 49.1062 55.7656 49.3406C55.664 50.2734 55.9281 51.1766 57.089 51.2344C57.3171 51.2453 57.5468 51.2359 57.775 51.2375L57.7765 51.239Z" fill="#2E3192"/>
<path d="M0.512451 35.9281C0.667139 35.7719 0.803076 35.5875 0.981201 35.4641C1.43433 35.1516 2.09526 35.2516 2.36714 35.6484C2.6687 36.0875 2.62651 36.8063 2.2812 37.0922C1.72808 37.55 1.2312 37.5219 0.781201 37.0063C0.687451 36.9 0.601514 36.7875 0.512451 36.6766C0.512451 36.4266 0.512451 36.1781 0.512451 35.9281Z" fill="#2E3192"/>
<path d="M32.4454 46.936C24.8829 46.936 17.3188 46.9297 9.75629 46.95C9.16254 46.9516 8.98285 46.8047 8.99535 46.1985C9.03442 44.225 9.03442 42.25 8.99535 40.2781C8.98442 39.6844 9.13129 39.5141 9.74223 39.5156C19.0922 39.5359 28.4422 39.5297 37.7922 39.5297C43.5891 39.5297 49.386 39.5375 55.1829 39.5172C55.7219 39.5156 55.8922 39.6375 55.8813 40.2C55.8454 42.1734 55.8672 44.1469 55.8672 46.1219C55.8672 46.6656 55.6026 46.9375 55.0735 46.9375C47.5313 46.9375 39.9891 46.9375 32.4469 46.9375L32.4454 46.936Z" fill="#F2F6FB"/>
<path d="M32.6844 12.9438C34.175 12.8156 35.6672 12.9266 37.1594 12.8891C37.6797 12.8766 38.1781 12.9625 38.6891 13.0859C39.8906 13.3797 40.8391 14.5891 40.9062 15.8547C40.9578 16.8078 40.9109 17.7656 40.9078 18.7203C38.8359 19.0547 36.7625 19.3844 34.6922 19.7234C32.4984 20.0813 30.3078 20.45 28.1141 20.8078C26.7328 21.0328 25.35 21.2469 23.9672 21.4656C23.9641 19.5969 23.9562 17.7281 23.9609 15.8609C23.9625 15.2453 24.1719 14.6953 24.5781 14.225C24.6453 14.3188 24.7344 14.3438 24.8484 14.325C26.8516 13.9969 28.8578 13.6969 30.8531 13.3281C31.4625 13.2156 32.1125 13.2531 32.6828 12.9438H32.6844Z" fill="#F2F6FB"/>
<path d="M56.8984 19.5859C57.0937 20.0016 56.9672 20.4406 56.9922 20.8687C57.064 22.1266 56.8625 23.3922 57.1047 24.6438C57.1281 24.7672 57.0593 24.8406 56.9906 24.9141C55.9562 26.0062 55.7453 27.3406 55.864 28.7672C55.9062 29.2781 55.8531 29.4828 55.2593 29.2062C54.7281 28.9594 54.1312 28.8344 53.5203 28.8359C50.8218 28.8438 48.1234 28.8453 45.425 28.8359C44.6234 28.8328 43.8828 29.05 43.1781 29.3953C43.1328 29.3469 43.0859 29.3203 43.0859 29.2937C43.0703 26.8047 43.0203 24.3156 43.1078 21.8266C43.8359 21.7047 44.5625 21.5797 45.2922 21.4594C47.4578 21.1016 49.625 20.7422 51.7922 20.3922C53.4937 20.1172 55.1968 19.8547 56.9 19.5859H56.8984Z" fill="#F2F6FB"/>
<path d="M32.3984 37.4016C29.7812 37.4016 27.1656 37.3875 24.5484 37.4125C24.0453 37.4172 23.9156 37.2609 23.9281 36.7781C23.9609 35.5953 23.9859 34.4094 23.9281 33.2281C23.8625 31.9172 25.0187 30.9781 26.0859 30.9766C30.3218 30.9703 34.5593 30.9562 38.7953 30.9844C40.064 30.9922 40.9078 31.9062 40.9296 33.1797C40.9515 34.4047 40.9171 35.6312 40.9453 36.8547C40.9562 37.3031 40.7968 37.4109 40.3734 37.4078C37.7156 37.3906 35.0578 37.4 32.3984 37.4V37.4016Z" fill="#F2F6FB"/>
<path d="M7.24526 24.3344C7.12026 24.2516 6.99682 24.1687 6.87182 24.0859C6.87182 22.0312 6.90307 19.975 6.85307 17.9203C6.83901 17.3234 7.10463 17.1656 7.57807 17.1016C8.02807 17.0406 8.47963 16.9984 8.92651 16.925C11.1218 16.5687 13.3171 16.2078 15.5109 15.8437C17.5015 15.5141 19.4921 15.1781 21.4828 14.8453C21.7078 15.2703 21.7812 15.7531 21.789 16.2031C21.8187 18.0828 21.7812 19.9641 21.7687 21.8453C20.1218 22.1016 18.4718 22.35 16.8265 22.6156C14.3468 23.0156 11.864 23.4047 9.3937 23.8531C8.67651 23.9828 7.90463 23.9234 7.24682 24.3344H7.24526Z" fill="#F2F6FB"/>
<path d="M40.9078 22.2062C40.914 24.4484 40.9187 26.6922 40.9312 28.9344C40.9328 29.2703 40.8578 29.3844 40.4984 29.2422C39.764 28.9516 38.9984 28.8281 38.1984 28.8312C34.5843 28.8469 30.9703 28.8422 27.3562 28.8359C26.2156 28.8344 25.0703 28.7828 23.9656 29.4437C23.9656 27.8766 23.9656 26.4125 23.9656 24.9484C25.9343 24.6172 27.9015 24.2781 29.8703 23.9562C32.1046 23.5906 34.3406 23.2375 36.575 22.8828C38.0171 22.6531 39.4609 22.4312 40.9046 22.2047L40.9078 22.2062Z" fill="#F2F6FB"/>
<path d="M15.4391 37.4016C13.5063 37.4016 11.5734 37.3891 9.64063 37.4109C9.17657 37.4156 8.97657 37.3297 8.99688 36.8031C9.03907 35.6406 9.00157 34.4766 9.01251 33.3125C9.02501 31.9125 9.90157 30.9938 11.3031 30.9813C14.0453 30.9578 16.7891 30.9578 19.5328 30.9813C20.9344 30.9938 21.8016 31.9125 21.8141 33.3219C21.8234 34.4859 21.7953 35.65 21.8266 36.8125C21.8391 37.2735 21.7141 37.4203 21.2375 37.4125C19.3047 37.386 17.3719 37.4016 15.4391 37.4016Z" fill="#F2F6FB"/>
<path d="M49.4516 37.4016C47.5203 37.4016 45.5906 37.3891 43.6594 37.4109C43.2141 37.4156 43.0344 37.3234 43.05 36.8328C43.0859 35.65 43.05 34.4656 43.0641 33.2828C43.0797 31.9047 43.9156 31 45.2906 30.9844C48.0719 30.95 50.8547 30.9516 53.6359 30.9844C55 31 55.8516 31.9312 55.8641 33.3078C55.8734 34.4906 55.8469 35.675 55.8766 36.8578C55.8875 37.3062 55.7313 37.4141 55.3063 37.4109C53.3547 37.3906 51.4031 37.4016 49.4516 37.4016Z" fill="#F2F6FB"/>
<path d="M3.75623 46.9125C3.75623 40.4922 3.75623 34.0703 3.74841 27.65C3.74841 26.9328 4.0656 26.3391 4.37185 25.7328C5.90935 25.5922 6.8781 26.4531 6.87966 27.9906C6.88591 34.1094 6.8781 40.2281 6.89216 46.3453C6.89216 46.8 6.78279 46.9688 6.30466 46.9453C5.45623 46.9016 4.60623 46.9203 3.75623 46.9109V46.9125Z" fill="#F2F6FB"/>
<path d="M43.1094 18.3531C43.1219 17.2094 42.8281 16.0438 43.3156 14.9328C43.8984 13.6016 44.9578 12.9172 46.3844 12.9C49.2672 12.8656 52.15 12.8938 55.0313 12.8844C55.4828 12.8844 55.7438 13.1156 55.9922 13.4547C56.575 14.2453 56.9516 15.0938 56.8922 16.0969C55.0203 16.3969 53.1484 16.6891 51.2766 16.9969C48.5531 17.4438 45.8313 17.9016 43.1078 18.3531H43.1094Z" fill="#F2F6FB"/>
<path d="M9.01245 27.3172C10.0281 27.2859 11.0093 27.0266 12.0062 26.8734C14.225 26.5312 16.4421 26.175 18.6593 25.8219C19.6968 25.6562 20.7328 25.4844 21.7703 25.3141C21.7703 26.6594 21.7703 28.0031 21.7703 29.4281C20.2156 28.6109 18.5625 28.8687 16.9406 28.8437C15.5078 28.8219 14.0734 28.8453 12.6406 28.8375C11.4218 28.8312 10.1968 28.7609 9.01401 29.4672V27.3172H9.01245Z" fill="#F2F6FB"/>
<path d="M60.1141 34.1781C60.1235 35.8984 60.1391 37.6203 60.1438 39.3406C60.1485 41.6844 60.136 44.0281 60.1532 46.3734C60.1563 46.8016 60.036 46.9438 59.5954 46.9469C57.9938 46.9578 57.9922 46.9734 57.9954 45.3797C58.0016 41.6469 58.0094 37.9125 58.0172 34.1797C58.7172 34.1797 59.4157 34.1797 60.1157 34.1797L60.1141 34.1781Z" fill="#F2F6FB"/>
<path d="M16.6047 12.9672C15.7563 13.2891 14.8516 13.3234 13.9704 13.4781C12.0485 13.8141 10.1219 14.1187 8.19692 14.4359C7.97974 14.4719 7.70474 14.5969 7.57349 14.375C7.46411 14.1906 7.69849 14.0125 7.79849 13.8375C7.95317 13.5703 8.17661 13.3422 8.25161 13.0297C8.59067 12.9312 8.93755 12.8891 9.29067 12.8891C11.5485 12.8906 13.8047 12.8891 16.0625 12.8922C16.2454 12.8922 16.4375 12.8469 16.6047 12.9672Z" fill="#F2F6FB"/>
<path d="M60.111 29.5719C59.4141 29.6969 58.7172 29.8219 58.0204 29.9453C58.0157 29.1812 58.0282 28.4172 58.0001 27.6547C57.986 27.2797 58.1172 26.9781 58.3157 26.6812C58.5751 26.2953 58.9141 25.8297 59.3454 25.8953C59.8063 25.9656 59.9282 26.5609 59.9969 26.9937C60.1313 27.8437 60.2157 28.7062 60.111 29.5719Z" fill="#F2F6FB"/>
<path d="M5.31249 49.114H5.68593C7.01093 49.114 7.09999 49.225 6.88593 50.5656C6.81249 51.0234 6.6578 51.3312 6.09374 51.2484C5.72811 51.1953 5.34686 51.2453 4.97343 51.2359C3.7703 51.2078 3.54686 50.2015 3.63436 49.3484C3.6578 49.114 3.83436 49.1172 4.00155 49.1156C4.43749 49.1125 4.87499 49.1156 5.31093 49.1125L5.31249 49.114Z" fill="#F2F6FB"/>
<path d="M57.7766 51.2391C57.5485 51.2391 57.3188 51.2484 57.0907 51.2375C55.9297 51.1797 55.6657 50.275 55.7672 49.3438C55.7922 49.1094 55.9766 49.1188 56.1407 49.1188C56.9719 49.1156 57.8032 49.125 58.6344 49.1141C58.9375 49.1094 59.0438 49.2453 59.0266 49.5281C59.0172 49.6734 59.0266 49.8188 59.0266 49.9641C59.0287 50.8162 58.6125 51.2417 57.7782 51.2406L57.7766 51.2391Z" fill="#F2F6FB"/>
</g>
<defs>
<clipPath id="clip0_68_813">
<rect width="64" height="64" fill="white" transform="translate(0.5)"/>
</clipPath>
</defs>
</svg>
