<svg width="36" height="36" viewBox="0 0 36 36" fill="none" xmlns="http://www.w3.org/2000/svg">
<path d="M0.00281257 34.5594C0.00281257 34.2791 0.00281257 33.9978 0.00281257 33.7175C0.0262507 33.694 0.0628141 33.6762 0.0721894 33.6481C0.395635 32.7246 1.06878 32.3571 2.02224 32.3703C3.15196 32.3862 4.28261 32.3656 5.41233 32.3609C5.54077 32.3656 5.66921 32.3749 5.79765 32.3749C11.1153 32.3749 16.4329 32.3749 21.7506 32.3749C22.0556 32.3749 22.2081 32.2243 22.2081 31.9231C22.2081 27.7492 22.2081 23.5763 22.2109 19.4024C22.2109 19.1493 22.1837 18.8933 22.2821 18.644C22.6084 17.8171 23.1812 17.4055 24.1103 17.3971C25.6329 17.3839 27.1554 17.383 28.6779 17.3971C29.5498 17.4046 30.1967 17.7824 30.507 18.6355C30.628 19.1408 30.5914 19.6556 30.5924 20.1674C30.5933 23.9907 30.5924 27.813 30.5924 31.6362C30.5924 32.1306 30.8377 32.3774 31.3283 32.3768C31.6377 32.3768 31.7927 32.2265 31.7933 31.9259C31.7933 26.7939 31.7915 21.6619 31.799 16.5298C31.799 16.2683 31.7502 16.0995 31.4839 16.0067C31.2289 15.9176 30.9917 15.7742 30.808 15.5754C30.6299 15.3823 30.5042 15.4039 30.3786 15.6139C30.2633 15.6917 30.1517 15.7742 30.0336 15.8473C29.6183 16.1051 29.1533 16.2608 28.6761 16.2289C28.1107 16.1914 27.5923 15.9598 27.1816 15.5501C27.0382 15.4076 26.9623 15.4283 26.816 15.5529C25.7969 16.4239 24.6147 16.467 23.6022 15.5679C23.4494 15.4329 23.3772 15.4133 23.2094 15.5595C22.2278 16.4155 21.0052 16.483 20.0021 15.5698C19.824 15.4076 19.749 15.4508 19.5868 15.582C18.5799 16.3948 17.4239 16.4895 16.4076 15.5754C16.2379 15.4226 16.1629 15.4376 15.9914 15.5754C14.9207 16.4361 13.8482 16.4652 12.8028 15.5689C12.62 15.4123 12.546 15.4479 12.3838 15.5811C11.3544 16.4267 10.2256 16.467 9.19805 15.5661C9.04149 15.4283 8.97023 15.4198 8.80523 15.5604C7.80302 16.4145 6.61517 16.4811 5.59327 15.5586C5.40108 15.3851 5.30545 15.4236 5.19201 15.6064C4.96044 15.7104 4.78794 15.913 4.53106 15.9814C4.27699 16.0489 4.1973 16.2148 4.19823 16.4942C4.21042 20.2828 4.20667 24.0704 4.20573 27.8589C4.20573 27.9873 4.21323 28.1186 4.19167 28.2433C4.14011 28.5367 3.94792 28.7289 3.66947 28.7908C3.41165 28.848 3.23071 28.6727 3.08633 28.4814C2.96351 28.3192 3.00852 28.1214 3.00852 27.9386C3.0057 24.1622 3.00008 20.3849 3.01695 16.6086C3.01883 16.2439 2.89414 16.0976 2.58194 15.9561C1.77286 15.5904 1.28441 14.937 1.21128 14.0576C1.15034 13.3263 1.19441 12.5857 1.20284 11.8488C1.21128 11.1353 1.89286 10.3694 2.60819 10.2794C2.88101 10.2447 2.97289 10.1341 2.95976 9.85842C2.93445 9.34934 3.06289 8.87589 3.40228 8.47745C3.78854 8.02368 4.28636 7.81837 4.87794 7.81837C6.75205 7.82024 8.6271 7.81743 10.5012 7.82118C10.7262 7.82118 10.835 7.80055 10.9306 7.52211C11.2906 6.46927 12.0172 5.76238 13.131 5.50268C13.9719 5.30674 14.7398 5.51862 15.471 5.92644C15.5132 5.96676 15.5554 6.04926 15.5948 5.92457C15.5985 4.3589 15.5995 2.7923 15.607 1.22663C15.6098 0.747558 15.801 0.374423 16.2557 0.16348C16.326 0.130667 16.417 0.119416 16.4536 0.0322266H24.2584C24.9588 0.281608 25.2072 0.796309 25.2016 1.51445C25.1847 3.50107 25.2016 5.48862 25.1894 7.47523C25.1875 7.75274 25.2691 7.8268 25.5438 7.82587C27.371 7.81368 29.1973 7.82212 31.0246 7.81743C31.2833 7.81743 31.5299 7.87087 31.7765 7.92993C32.3812 8.07712 33.0477 8.78496 32.9737 9.69154C32.9446 10.0459 32.9962 10.2503 33.4359 10.2934C34.0912 10.3591 34.6378 11.0059 34.7418 11.6669C34.8572 12.3991 34.8225 13.1351 34.7878 13.8645C34.7409 14.8385 34.2637 15.5942 33.344 15.9767C33.0365 16.1051 32.9887 16.2533 32.9887 16.5383C32.9962 20.7815 32.9934 25.0238 32.9934 29.267C32.9934 30.1671 33.0046 31.0671 32.9868 31.9671C32.9802 32.2746 33.0459 32.4162 33.3871 32.3815C33.6881 32.3515 33.9965 32.359 34.2993 32.3834C34.7878 32.4228 35.1947 32.6206 35.5406 32.9918C35.7637 33.2309 35.7975 33.5525 36 33.7878V34.5594C35.9662 34.6053 35.9184 34.6456 35.9006 34.6972C35.5716 35.631 34.8759 35.9675 33.9271 35.9675C23.3003 35.961 12.6735 35.9638 2.04568 35.9619C1.82536 35.9619 1.60504 35.9788 1.38472 35.9244C0.646892 35.7453 0.245631 35.2325 0 34.5594H0.00281257ZM31.2936 11.4138C31.2514 11.4091 31.2252 11.426 31.2224 11.471C31.2196 12.2735 31.2083 13.076 31.2158 13.8776C31.2205 14.396 31.543 14.7785 32.0615 14.9257C32.7674 15.1329 33.3834 14.7739 33.5502 14.0735C33.6628 13.6001 33.5821 13.1238 33.6074 12.6485C33.674 11.4119 33.3927 11.3481 32.2715 11.4185C31.9452 11.4166 31.6189 11.4147 31.2927 11.4128L31.2936 11.4138ZM3.95167 14.9332C4.37074 14.8189 4.61637 14.5432 4.72419 14.127C4.87044 13.5645 4.78137 12.9944 4.79075 12.4291C4.80763 11.3585 4.79544 11.3585 3.72572 11.4194C3.49228 11.4156 3.2579 11.4016 3.02445 11.41C2.64663 11.425 2.40194 11.6772 2.40006 12.0475C2.39725 12.6551 2.39162 13.2626 2.40288 13.8691C2.41788 14.6585 3.20165 15.192 3.95167 14.9332ZM5.41139 10.1969H11.375C11.1912 9.85842 10.9915 9.57623 10.9165 9.2509C10.8706 9.05215 10.7825 9.01184 10.6072 9.01277C8.92148 9.01934 7.23581 9.02215 5.54921 9.0259C5.38608 9.02215 5.22201 9.03246 5.06076 9.01184C4.34074 8.91808 4.11761 9.41216 4.14386 9.95124C4.15323 10.1406 4.19261 10.2241 4.39793 10.2128C4.7345 10.195 5.07294 10.2006 5.41045 10.1959L5.41139 10.1969ZM30.5117 9.03434C28.7942 9.02777 27.0757 9.02215 25.3582 9.01465C25.2297 9.01465 25.1238 9.03715 25.091 9.18059C25.0085 9.53216 24.8266 9.84248 24.6316 10.1997H30.5858C30.7949 10.2034 31.0039 10.2091 31.213 10.2091C31.7774 10.21 31.964 9.9278 31.7493 9.38872C31.6536 9.14871 31.4633 9.02496 31.2083 9.01934C30.9767 9.01465 30.7442 9.02871 30.5117 9.03434ZM13.2922 11.4138C13.25 11.4091 13.2238 11.426 13.221 11.471C13.2182 12.2763 13.2069 13.0826 13.2153 13.8879C13.221 14.4092 13.6982 14.9407 14.166 14.9792C14.8935 15.0392 15.427 14.7101 15.5404 14.0904C15.6932 13.2588 15.576 12.415 15.6032 11.5778C15.6098 11.3735 15.4513 11.4072 15.3285 11.4072C14.6498 11.4072 13.971 11.411 13.2922 11.4138ZM16.8783 11.4138C16.8342 11.4081 16.8136 11.4278 16.8145 11.4719C16.8126 12.2885 16.7995 13.1041 16.8117 13.9207C16.8192 14.4504 17.3751 14.9923 17.9273 15.0429C18.4261 15.0889 19.0458 14.6314 19.1321 14.1185C19.2793 13.241 19.1789 12.355 19.1902 11.4719C19.1921 11.4278 19.1714 11.4081 19.1274 11.4138C18.3783 11.4138 17.6283 11.4138 16.8792 11.4138H16.8783ZM22.7828 11.471C22.78 11.4269 22.7547 11.41 22.7125 11.4138C22.0337 11.411 21.3549 11.4156 20.6762 11.4025C20.4615 11.3988 20.3912 11.4691 20.3949 11.6838C20.4052 12.385 20.4183 13.0863 20.393 13.7866C20.3724 14.3539 20.8796 15.0157 21.5931 15.042C22.2053 15.0645 22.7762 14.4748 22.7893 13.8195C22.8053 13.0376 22.7875 12.2547 22.7837 11.4719L22.7828 11.471ZM33.4687 33.5844C33.3402 33.5806 33.2118 33.5722 33.0834 33.5722C23.0162 33.5722 12.9491 33.5722 2.88195 33.5722C2.76476 33.5722 2.64851 33.5806 2.53132 33.5844C2.28756 33.5806 2.04287 33.5684 1.79911 33.575C1.41566 33.5853 1.20097 33.7953 1.20097 34.1422C1.20097 34.4956 1.47004 34.7638 1.83286 34.7647C2.06537 34.7656 2.29787 34.7581 2.53038 34.7544C2.63538 34.7581 2.74132 34.7656 2.84632 34.7656C12.936 34.7656 23.0265 34.7656 33.1162 34.7656C33.2334 34.7656 33.3506 34.7572 33.4668 34.7534C33.6993 34.7581 33.9328 34.7731 34.1653 34.7638C34.5468 34.7488 34.7718 34.5247 34.7709 34.1834C34.77 33.799 34.5647 33.5853 34.1671 33.5731C33.9346 33.5656 33.7012 33.5787 33.4687 33.5825V33.5844ZM28.1895 32.3618C28.4117 32.3674 28.6339 32.3759 28.8561 32.3768C29.3951 32.3787 29.3961 32.3768 29.3961 31.8537C29.3961 27.752 29.3961 23.6494 29.3961 19.5477C29.3961 18.7368 29.2245 18.569 28.4014 18.5802C28.2861 18.5821 28.1707 18.6065 28.0554 18.6196C26.8029 18.6149 25.5504 18.6093 24.2978 18.6065C23.5553 18.6046 23.4081 18.7508 23.4081 19.4793C23.4081 23.2416 23.4081 27.0039 23.4081 30.7662C23.4081 31.1984 23.4156 31.6306 23.4053 32.0627C23.4006 32.2756 23.4512 32.3815 23.695 32.3796C25.1932 32.3665 26.6913 32.3665 28.1895 32.3618ZM20.394 3.62013C19.2933 3.62013 18.1927 3.62388 17.092 3.61638C16.8923 3.61544 16.7986 3.65295 16.8004 3.88264C16.8108 5.10986 16.8089 6.33708 16.8014 7.56336C16.8004 7.76118 16.8623 7.82587 17.0611 7.82212C17.6695 7.8118 18.2799 7.79774 18.8874 7.82774C19.163 7.84181 19.2671 7.74337 19.3439 7.50336C19.9571 5.59925 22.104 4.88767 23.7531 5.88144C23.9753 6.01551 24.0006 5.93582 23.9988 5.73144C23.9931 5.13517 23.9838 4.53891 24.0025 3.94358C24.0109 3.67263 23.9153 3.61076 23.6603 3.61451C22.5718 3.62763 21.4824 3.62013 20.394 3.62013ZM15.5423 8.42869C15.6923 7.52398 14.8382 6.63802 13.7975 6.6249C12.8516 6.61365 11.9834 7.37586 11.9712 8.40244C11.96 9.37278 12.8553 10.2091 13.7375 10.2147C14.7998 10.2222 15.6838 9.31091 15.5423 8.42776V8.42869ZM22.1321 10.2072C23.1578 10.21 23.9612 9.45528 23.9856 8.50182C24.0119 7.46867 23.2909 6.63427 22.1321 6.62771C21.2096 6.62302 20.4146 7.4668 20.3893 8.42026C20.3649 9.3531 21.354 10.2991 22.1321 10.2081V10.2072ZM20.4258 1.22663C19.4902 1.22663 18.5545 1.22663 17.6189 1.22663C16.8014 1.22663 16.8183 1.22663 16.7967 2.05072C16.7882 2.37698 16.9026 2.43041 17.1951 2.42854C19.1714 2.41635 21.1487 2.42198 23.125 2.42198C24.0156 2.42198 24.0034 2.42198 24.0025 1.54445C24.0025 1.26882 23.9003 1.21819 23.6528 1.22101C22.5765 1.23226 21.5012 1.2257 20.4249 1.2257L20.4258 1.22663ZM8.39741 12.8229C8.39741 12.386 8.38897 12.0354 8.40022 11.6847C8.40678 11.4728 8.32897 11.396 8.11521 11.4016C7.65864 11.4138 7.20206 11.4053 6.74549 11.4053C5.99641 11.4053 5.98703 11.4053 5.99922 12.1619C6.00953 12.8032 5.94484 13.4463 6.04141 14.0857C6.11735 14.591 6.63861 14.9829 7.14862 15.042C7.58832 15.0926 8.14146 14.6717 8.30272 14.2282C8.48085 13.7379 8.34865 13.2326 8.39647 12.8229H8.39741ZM26.3979 12.821C26.3979 12.3841 26.3894 12.0325 26.4007 11.6828C26.4073 11.4681 26.3238 11.3969 26.1129 11.4025C25.6797 11.4147 25.2466 11.4063 24.8135 11.4063C23.9969 11.4063 23.9875 11.4063 23.9997 12.235C24.0091 12.8651 23.9359 13.4979 24.0503 14.1232C24.1394 14.6126 24.6475 14.9848 25.1519 15.042C25.5794 15.0907 26.1447 14.6764 26.2985 14.2601C26.4823 13.7595 26.3557 13.2419 26.3979 12.821ZM9.60963 12.7919H9.61056C9.61056 13.1304 9.60213 13.4698 9.61431 13.8073C9.61994 13.9667 9.60588 14.1317 9.68463 14.2835C9.91057 14.7167 10.5125 15.1048 10.8584 15.0354C11.5409 14.8995 11.9806 14.456 12.0022 13.8195C12.0266 13.0966 12.0059 12.3719 12.0125 11.6482C12.0144 11.4672 11.9478 11.4016 11.7659 11.4035C11.134 11.41 10.5021 11.4119 9.87026 11.4035C9.66775 11.4006 9.60306 11.4803 9.60681 11.6716C9.61525 12.0447 9.60963 12.4188 9.60963 12.7929V12.7919ZM30.0102 12.7404C30.0102 12.3785 30.0055 12.0166 30.012 11.6547C30.0158 11.4803 29.9595 11.4016 29.7711 11.4044C29.1279 11.4119 28.4839 11.41 27.8407 11.4053C27.6776 11.4044 27.6073 11.4663 27.6092 11.6313C27.6204 12.4479 27.6092 13.2663 27.642 14.082C27.6607 14.5423 28.3845 15.1189 28.8176 15.0411C29.5873 14.9032 29.9848 14.442 30.0073 13.722C30.0177 13.3957 30.0092 13.0685 30.0092 12.7413L30.0102 12.7404ZM17.978 10.2091C18.4936 10.2091 19.0092 10.2053 19.5249 10.2109C19.7293 10.2128 19.7911 10.1575 19.6571 9.97655C19.4818 9.73935 19.3843 9.46372 19.2924 9.18997C19.2455 9.05027 19.1761 9.01277 19.0421 9.01371C18.3389 9.01746 17.6358 9.01559 16.9326 9.01559C16.8061 9.01559 16.6964 9.03715 16.6748 9.18997C16.6326 9.48716 16.4929 9.74404 16.3354 9.99061C16.2248 10.1659 16.2839 10.2109 16.4657 10.21C16.9692 10.2062 17.4736 10.2091 17.977 10.2091H17.978Z" fill="#2E3192"/>
<path d="M5.49108 18.4893C5.39358 18.3683 5.41795 18.2249 5.41795 18.088C5.41608 17.3802 5.41795 16.6723 5.41702 15.9636C5.41702 15.7995 5.43295 15.6233 5.19482 15.6054C5.3092 15.4226 5.40389 15.3833 5.59608 15.5576C6.61798 16.4802 7.80489 16.4136 8.80804 15.5595C8.97305 15.4189 9.0443 15.4273 9.20086 15.5651C10.2275 16.467 11.3572 16.4258 12.3866 15.5801C12.5488 15.447 12.6228 15.4114 12.8056 15.5679C13.851 16.4642 14.9235 16.4352 15.9942 15.5745C16.1657 15.4367 16.2407 15.4217 16.4104 15.5745C17.4258 16.4886 18.5827 16.3939 19.5896 15.5811C19.7527 15.4498 19.8277 15.4067 20.0049 15.5689C21.0071 16.482 22.2296 16.4145 23.2122 15.5586C23.38 15.4123 23.4522 15.432 23.605 15.567C24.6175 16.467 25.7997 16.423 26.8188 15.552C26.9651 15.4273 27.041 15.4067 27.1845 15.5492C27.5951 15.9589 28.1135 16.1905 28.6789 16.228C29.157 16.2598 29.6211 16.1042 30.0364 15.8464C30.1545 15.7733 30.267 15.6908 30.3814 15.6129C30.6317 15.6298 30.5886 15.8201 30.5895 15.9758C30.5924 16.7417 30.5914 17.5067 30.5895 18.2727C30.5895 18.3993 30.6036 18.5305 30.5089 18.6365C30.1986 17.7833 29.5517 17.4064 28.6798 17.398C27.1573 17.3839 25.6347 17.3849 24.1122 17.398C23.1822 17.4064 22.6103 17.818 22.284 18.6449C22.1856 18.8943 22.2128 19.1502 22.2128 19.4034C22.209 23.5772 22.2109 27.7501 22.21 31.924C22.21 32.2246 22.0575 32.3753 21.7524 32.3759C16.4348 32.3759 11.1172 32.3759 5.79953 32.3759C5.67109 32.3759 5.54264 32.3665 5.4142 32.3618C5.41514 31.7093 5.41514 31.0568 5.41889 30.4043C5.41889 30.2665 5.39545 30.1221 5.48639 29.9993C5.89234 30.798 6.51111 31.1946 7.44207 31.189C11.2953 31.1674 15.1485 31.1805 19.0017 31.1796C20.2543 31.1796 21.009 30.4305 21.0099 29.1808C21.0127 25.9079 21.0137 22.635 21.0099 19.3612C21.009 18.1611 20.2749 17.4017 19.0777 17.3989C15.1654 17.3896 11.254 17.3971 7.34175 17.3942C6.57486 17.3942 5.98891 17.6924 5.60827 18.3674C5.58108 18.4152 5.53139 18.4499 5.49202 18.4911L5.49108 18.4893Z" fill="#EAEAF4"/>
<path d="M28.1914 32.3618C26.6932 32.3665 25.195 32.3665 23.6969 32.3796C23.4522 32.3815 23.4015 32.2756 23.4072 32.0627C23.4175 31.6306 23.41 31.1984 23.41 30.7662C23.41 27.0039 23.41 23.2416 23.41 19.4793C23.41 18.7508 23.5581 18.6046 24.2997 18.6065C25.5522 18.6093 26.8048 18.6149 28.0573 18.6196C28.1473 18.8249 28.2017 19.034 28.2017 19.2627C28.197 21.2465 28.197 23.2313 28.196 25.2151C28.0685 25.2188 27.9401 25.2235 27.8126 25.2254C27.731 25.2273 27.6495 25.2235 27.5679 25.2254C27.2379 25.2357 27.0195 25.4279 27.0073 25.7148C26.9923 26.0851 27.2491 26.3767 27.6382 26.4142C27.8229 26.432 28.0104 26.4254 28.196 26.4292C28.1942 28.4064 28.1932 30.3836 28.1914 32.3618Z" fill="#BEBFDD"/>
<path d="M2.53225 33.5853C2.64944 33.5806 2.7657 33.5731 2.88289 33.5731C12.95 33.5731 23.0172 33.5731 33.0843 33.5731C33.2127 33.5731 33.3412 33.5806 33.4696 33.5853C33.6421 33.9753 33.6506 34.3662 33.4677 34.7553C33.3506 34.76 33.2334 34.7675 33.1171 34.7675C23.0275 34.7675 12.9369 34.7675 2.84726 34.7675C2.74226 34.7675 2.63632 34.76 2.53132 34.7563C2.36069 34.3653 2.36537 33.9753 2.53132 33.5853H2.53225Z" fill="#EAEAF4"/>
<path d="M30.5089 18.6365C30.6045 18.5305 30.5895 18.3993 30.5895 18.2727C30.5895 17.5067 30.5914 16.7417 30.5895 15.9758C30.5895 15.8201 30.6317 15.6298 30.3814 15.6129C30.507 15.4029 30.6327 15.3814 30.8108 15.5745C30.9946 15.7733 31.2318 15.9167 31.4868 16.0058C31.753 16.0986 31.8027 16.2683 31.8018 16.5289C31.7943 21.6609 31.7961 26.7929 31.7961 31.9249C31.7961 32.2256 31.6411 32.3759 31.3311 32.3759C30.8405 32.3765 30.5952 32.1296 30.5952 31.6352C30.5952 27.812 30.5952 23.9897 30.5952 20.1665C30.5952 19.6546 30.6308 19.1399 30.5099 18.6346L30.5089 18.6365Z" fill="#BEBFDD"/>
<path d="M28.1951 25.2151C28.196 23.2313 28.1951 21.2465 28.2007 19.2627C28.2007 19.0349 28.1473 18.8249 28.0564 18.6196C28.1717 18.6055 28.287 18.5821 28.4023 18.5802C29.2255 18.569 29.397 18.7368 29.397 19.5477C29.397 23.6494 29.397 27.752 29.397 31.8537C29.397 32.3778 29.397 32.3787 28.857 32.3768C28.6348 32.3768 28.4126 32.3674 28.1904 32.3618C28.1923 30.3846 28.1932 28.4073 28.1951 26.4292C28.2467 26.4039 28.2954 26.3682 28.3507 26.3542C28.7192 26.2548 28.7998 25.9848 28.7595 25.6557C28.7192 25.3304 28.4961 25.2179 28.1951 25.2151Z" fill="#BEBFDD"/>
<path d="M15.5423 8.42869C15.6838 9.31091 14.7998 10.2222 13.7375 10.2156C12.8544 10.21 11.9591 9.37372 11.9712 8.40338C11.9834 7.37679 12.8506 6.61459 13.7975 6.62584C14.8391 6.63802 15.6923 7.52492 15.5423 8.42963V8.42869Z" fill="#EAEAF4"/>
<path d="M22.1321 10.2081C21.3549 10.2991 20.3649 9.3531 20.3893 8.42026C20.4146 7.4668 21.2096 6.62302 22.1321 6.62771C23.2909 6.63427 24.0119 7.46867 23.9856 8.50182C23.9612 9.45528 23.1578 10.2109 22.1321 10.2072V10.2081Z" fill="#EAEAF4"/>
<path d="M20.4258 1.22757C21.5021 1.22757 22.5784 1.23413 23.6537 1.22288C23.9003 1.22007 24.0025 1.2707 24.0034 1.54633C24.0044 2.42385 24.0166 2.42385 23.1259 2.42385C21.1496 2.42385 19.1724 2.41823 17.1961 2.43041C16.9036 2.43229 16.7882 2.37885 16.7976 2.05259C16.8192 1.22851 16.8014 1.22851 17.6198 1.22851C18.5555 1.22851 19.4911 1.22851 20.4268 1.22851L20.4258 1.22757Z" fill="#EAEAF4"/>
<path d="M22.7847 11.471C22.7884 12.2538 22.8072 13.0366 22.7903 13.8185C22.7762 14.4739 22.2062 15.0626 21.594 15.0411C20.8805 15.0148 20.3733 14.3529 20.394 13.7857C20.4193 13.0854 20.4062 12.3841 20.3958 11.6828C20.3921 11.4691 20.4633 11.3978 20.6771 11.4016C21.3559 11.4147 22.0346 11.411 22.7134 11.4128C22.7368 11.4316 22.7603 11.4513 22.7837 11.47L22.7847 11.471Z" fill="#EAEAF4"/>
<path d="M8.39741 12.8238C8.34959 13.2335 8.48272 13.7388 8.30365 14.2292C8.1424 14.6717 7.58926 15.0936 7.14956 15.0429C6.63955 14.9839 6.11828 14.5929 6.04234 14.0867C5.94578 13.4473 6.01047 12.8041 6.00016 12.1629C5.98797 11.4072 5.99734 11.4063 6.74643 11.4063C7.203 11.4063 7.65957 11.4147 8.11615 11.4025C8.3299 11.3969 8.40772 11.4738 8.40116 11.6857C8.38991 12.0363 8.39834 12.3869 8.39834 12.8238H8.39741Z" fill="#EAEAF4"/>
<path d="M26.3979 12.8219C26.3557 13.2429 26.4823 13.7604 26.2985 14.261C26.1457 14.6773 25.5794 15.0917 25.1519 15.0429C24.6466 14.9857 24.1394 14.6126 24.0503 14.1242C23.9359 13.4988 24.0091 12.8651 23.9997 12.236C23.9875 11.4072 23.9969 11.4072 24.8135 11.4072C25.2466 11.4072 25.6797 11.4156 26.1129 11.4035C26.3238 11.3978 26.4073 11.4691 26.4007 11.6838C26.3894 12.0344 26.3979 12.385 26.3979 12.8219Z" fill="#EAEAF4"/>
<path d="M9.60963 12.7929C9.60963 12.4188 9.61525 12.0457 9.60681 11.6716C9.60306 11.4803 9.66775 11.4006 9.87026 11.4035C10.5021 11.4128 11.134 11.411 11.7659 11.4035C11.9478 11.4016 12.0144 11.4682 12.0125 11.6482C12.0059 12.3719 12.0266 13.0966 12.0022 13.8195C11.9806 14.457 11.5409 14.8995 10.8584 15.0354C10.5125 15.1048 9.91057 14.7167 9.68463 14.2835C9.60588 14.1317 9.61994 13.9657 9.61431 13.8073C9.60213 13.4688 9.61056 13.1304 9.61056 12.7919H9.60963V12.7929Z" fill="#EAEAF4"/>
<path d="M30.0102 12.7404C30.0102 13.0676 30.0186 13.3948 30.0083 13.721C29.9858 14.442 29.5883 14.9023 28.8186 15.0401C28.3854 15.1179 27.6617 14.5404 27.6429 14.081C27.6092 13.2654 27.6204 12.4469 27.6101 11.6303C27.6082 11.4663 27.6785 11.4035 27.8417 11.4044C28.4848 11.4091 29.1289 11.411 29.772 11.4035C29.9595 11.4016 30.0158 11.4794 30.013 11.6538C30.0055 12.0157 30.0111 12.3775 30.0111 12.7394L30.0102 12.7404Z" fill="#EAEAF4"/>
<path d="M19.1911 11.4719C19.1799 12.3541 19.2802 13.241 19.133 14.1185C19.0467 14.6314 18.427 15.0889 17.9283 15.0429C17.377 14.9923 16.8201 14.4504 16.8126 13.9207C16.8004 13.1051 16.8126 12.2885 16.8154 11.4719C16.837 11.4522 16.8576 11.4335 16.8792 11.4138C17.6283 11.4138 18.3783 11.4138 19.1274 11.4138C19.148 11.4335 19.1696 11.4522 19.1902 11.4719H19.1911Z" fill="#EAEAF4"/>
<path d="M13.2932 11.4138C13.9719 11.411 14.6507 11.4072 15.3295 11.4072C15.4513 11.4072 15.6107 11.3725 15.6042 11.5778C15.577 12.416 15.6932 13.2588 15.5413 14.0904C15.4279 14.7101 14.8954 15.0392 14.1669 14.9792C13.6991 14.9407 13.2219 14.4092 13.2163 13.8879C13.2078 13.0826 13.2191 12.2763 13.2219 11.471C13.2453 11.4522 13.2697 11.4325 13.2932 11.4138Z" fill="#EAEAF4"/>
<path d="M30.5858 10.1987H24.6316C24.8266 9.84155 25.0085 9.53122 25.091 9.17965C25.1247 9.03621 25.2297 9.01371 25.3582 9.01371C27.0757 9.02121 28.7942 9.02684 30.5117 9.0334C30.6008 9.41778 30.598 9.80779 30.5858 10.1978V10.1987Z" fill="#BEBFDD"/>
<path d="M5.55108 9.02684C7.23675 9.02309 8.92242 9.02027 10.609 9.01371C10.7843 9.01371 10.8725 9.05309 10.9184 9.25184C10.9934 9.57716 11.1931 9.85842 11.3769 10.1978H5.41327C5.43014 9.80404 5.35701 9.39997 5.55202 9.02777L5.55108 9.02684Z" fill="#BEBFDD"/>
<path d="M32.2733 11.4203C33.3937 11.35 33.6759 11.4138 33.6093 12.6504C33.584 13.1248 33.6646 13.602 33.5521 14.0754C33.3852 14.7757 32.7693 15.1339 32.0633 14.9276C32.6062 13.7866 32.489 12.6072 32.2743 11.4213L32.2733 11.4203Z" fill="#BEBFDD"/>
<path d="M32.2733 11.4203C32.488 12.6063 32.6052 13.7857 32.0624 14.9267C31.543 14.7795 31.2214 14.397 31.2168 13.8785C31.2093 13.076 31.2196 12.2735 31.2233 11.4719C31.2468 11.4531 31.2711 11.4335 31.2946 11.4147C31.6208 11.4166 31.9471 11.4185 32.2733 11.4203Z" fill="#EAEAF4"/>
<path d="M3.95167 14.9332C3.38165 13.7932 3.54103 12.6072 3.72572 11.4185C4.79544 11.3575 4.80763 11.3575 4.79075 12.4282C4.78231 12.9935 4.87044 13.5645 4.72419 14.126C4.61637 14.5423 4.37074 14.8179 3.95167 14.9323L3.95167 14.9332Z" fill="#EAEAF4"/>
<path d="M17.978 10.2091C17.4745 10.2091 16.9701 10.2062 16.4667 10.21C16.2857 10.2109 16.2257 10.1659 16.3364 9.99061C16.4929 9.7431 16.6336 9.48622 16.6757 9.18997C16.6973 9.03715 16.807 9.01559 16.9336 9.01559C17.6367 9.01559 18.3399 9.01746 19.043 9.01371C19.1771 9.01371 19.2464 9.05027 19.2933 9.18997C19.3861 9.46372 19.4836 9.73935 19.658 9.97655C19.7911 10.1575 19.7293 10.2137 19.5258 10.2109C19.0102 10.2053 18.4945 10.2091 17.9789 10.2091H17.978Z" fill="#BEBFDD"/>
<path d="M30.5858 10.1987C30.598 9.80779 30.6017 9.41778 30.5117 9.03434C30.7442 9.02871 30.9758 9.01465 31.2083 9.01934C31.4643 9.02496 31.6536 9.14871 31.7493 9.38872C31.964 9.92686 31.7774 10.21 31.213 10.2091C31.0039 10.2091 30.7949 10.2025 30.5858 10.1997V10.1987Z" fill="#BEBFDD"/>
<path d="M33.4687 34.7544C33.6515 34.3644 33.6431 33.9744 33.4706 33.5844C33.7031 33.5806 33.9365 33.5675 34.169 33.575C34.5665 33.5872 34.7709 33.8009 34.7728 34.1853C34.7737 34.5266 34.5487 34.7497 34.1671 34.7656C33.9346 34.775 33.7012 34.76 33.4687 34.7553V34.7544Z" fill="#BEBFDD"/>
<path d="M15.4738 5.92644C15.5151 5.92644 15.5563 5.92551 15.5976 5.92457C15.5582 6.04926 15.516 5.96676 15.4738 5.92644Z" fill="#EAEAF4"/>
<path d="M22.7847 11.471C22.7612 11.4522 22.7378 11.4325 22.7143 11.4138C22.7565 11.41 22.7818 11.426 22.7847 11.471Z" fill="#BEBFDD"/>
<path d="M19.1911 11.4719C19.1705 11.4522 19.1489 11.4335 19.1283 11.4138C19.1724 11.4081 19.193 11.4278 19.1911 11.4719Z" fill="#BEBFDD"/>
<path d="M16.8154 11.4719C16.837 11.4522 16.8576 11.4335 16.8792 11.4138C16.8351 11.4081 16.8136 11.4278 16.8154 11.4719Z" fill="#BEBFDD"/>
<path d="M31.2936 11.4138C31.2702 11.4325 31.2458 11.4522 31.2224 11.471C31.2252 11.426 31.2514 11.41 31.2936 11.4138Z" fill="#BEBFDD"/>
<path d="M13.2219 11.471C13.2453 11.4522 13.2697 11.4325 13.2932 11.4138C13.251 11.41 13.2247 11.426 13.2219 11.471Z" fill="#BEBFDD"/>
<path d="M5.49108 18.4893C5.53046 18.448 5.58015 18.4133 5.60733 18.3655C5.98797 17.6896 6.57486 17.3914 7.34082 17.3924C11.2531 17.3961 15.1645 17.3877 19.0767 17.3971C20.274 17.3999 21.008 18.1593 21.009 19.3593C21.0127 22.6322 21.0127 25.9051 21.009 29.1789C21.008 30.4286 20.2533 31.1768 19.0008 31.1777C15.1476 31.1796 11.2944 31.1655 7.44113 31.1871C6.51017 31.1927 5.89234 30.7952 5.48546 29.9974C5.40389 29.7621 5.40764 29.5174 5.40764 29.2736C5.40764 25.9426 5.40764 22.6125 5.40764 19.2815C5.40764 19.0143 5.42077 18.748 5.49108 18.4883V18.4893ZM18.4955 18.6261C18.3783 18.6196 18.262 18.6065 18.1448 18.6065C14.571 18.6055 10.9981 18.6065 7.42426 18.6065C7.34269 18.6065 7.26019 18.6046 7.17862 18.6121C6.81205 18.6458 6.6133 18.8577 6.60955 19.2252C6.60486 19.6227 6.60767 20.0202 6.60767 20.4178C6.60767 23.341 6.60861 26.2642 6.6058 29.1883C6.6058 29.4714 6.63674 29.7302 6.90768 29.8868C7.09894 29.9974 7.31363 29.9824 7.52457 29.9824C11.18 29.9833 14.8354 29.9843 18.4908 29.9861C18.5611 29.9899 18.6314 29.9955 18.7017 29.9964C19.643 30.0086 19.8174 29.8399 19.8174 28.9145C19.8174 25.7916 19.8174 22.6697 19.8174 19.5468C19.8174 19.4184 19.8258 19.2871 19.8052 19.1615C19.7546 18.8521 19.5708 18.6458 19.2596 18.599C19.0074 18.5615 18.7477 18.538 18.4955 18.6261Z" fill="#2E3192"/>
<path d="M4.1523 30.5552C4.14667 30.9321 3.9076 31.1965 3.57666 31.1899C3.29821 31.1843 2.95039 30.8252 2.95789 30.5505C2.96539 30.2796 3.29634 29.9946 3.59822 29.9983C3.95167 30.003 4.15698 30.2102 4.1523 30.5552Z" fill="#2E3192"/>
<path d="M28.1951 25.2151C28.4961 25.2188 28.7192 25.3304 28.7595 25.6557C28.7998 25.9848 28.7192 26.2557 28.3507 26.3542C28.2964 26.3692 28.2467 26.4039 28.1951 26.4292C28.0095 26.4245 27.822 26.432 27.6373 26.4142C27.2482 26.3767 26.9913 26.0851 27.0063 25.7148C27.0176 25.4279 27.237 25.2357 27.567 25.2254C27.6485 25.2226 27.7301 25.2254 27.8117 25.2254C27.9392 25.2226 28.0676 25.2188 28.1951 25.2151Z" fill="#2E3192"/>
<path d="M18.4917 29.9871C14.8363 29.9861 11.1809 29.9843 7.52551 29.9833C7.31457 29.9833 7.09987 29.9983 6.90862 29.8877C6.63767 29.7302 6.6058 29.4724 6.60673 29.1892C6.61049 26.266 6.60861 23.3428 6.60861 20.4187C6.60861 20.0212 6.6058 19.6237 6.61049 19.2262C6.61423 18.8587 6.81299 18.6468 7.17956 18.613C7.26113 18.6055 7.34363 18.6074 7.42519 18.6074C10.999 18.6074 14.5719 18.6074 18.1458 18.6074C18.263 18.6074 18.3792 18.6196 18.4964 18.6271C18.623 18.973 18.638 19.3312 18.637 19.6959C18.6324 22.6294 18.6342 25.5629 18.6342 28.4973C18.6342 28.998 18.6708 29.5033 18.4927 29.9871H18.4917ZM12.59 20.3821C12.5685 20.1365 12.4616 19.9621 12.2516 19.8693C11.9891 19.7531 11.7453 19.8037 11.5428 20.0052C10.3662 21.1762 9.19055 22.3462 8.01958 23.5238C7.74208 23.8022 7.73833 24.1472 7.97927 24.3966C8.23522 24.6629 8.56616 24.6582 8.87086 24.3563C10.0334 23.205 11.1875 22.0444 12.3491 20.8921C12.5 20.7421 12.546 20.5574 12.59 20.3812V20.3821ZM9.56275 20.3896C9.58712 20.1524 9.47462 19.9818 9.27118 19.8796C9.0443 19.7652 8.80992 19.7765 8.61585 19.949C8.38897 20.1506 8.16865 20.3615 7.96802 20.5884C7.7402 20.8471 7.75708 21.1875 7.98021 21.4106C8.20146 21.6319 8.55022 21.6506 8.80617 21.4265C9.02555 21.2353 9.2243 21.0187 9.42775 20.8096C9.53931 20.6943 9.58525 20.5518 9.56275 20.3887V20.3896Z" fill="#BEBFDD"/>
<path d="M18.4917 29.9871C18.6699 29.5033 18.6333 28.998 18.6333 28.4973C18.6333 25.5638 18.6314 22.6303 18.6361 19.6959C18.6361 19.3312 18.622 18.973 18.4955 18.6271C18.7467 18.539 19.0074 18.5624 19.2596 18.5999C19.5708 18.6468 19.7546 18.854 19.8052 19.1624C19.8258 19.288 19.8174 19.4193 19.8174 19.5477C19.8174 22.6706 19.8174 25.7926 19.8174 28.9155C19.8174 29.8399 19.643 30.0096 18.7017 29.9974C18.6314 29.9974 18.5611 29.9908 18.4908 29.9871H18.4917Z" fill="#BEBFDD"/>
<path d="M12.59 20.3821C12.546 20.5584 12.5 20.7421 12.3491 20.8931C11.1875 22.0453 10.0334 23.206 8.87086 24.3572C8.56616 24.6591 8.23522 24.6638 7.97927 24.3976C7.73833 24.1472 7.74208 23.8032 8.01958 23.5247C9.18961 22.3481 10.3662 21.1772 11.5428 20.0062C11.7453 19.8046 11.9891 19.754 12.2516 19.8702C12.4616 19.9631 12.5685 20.1374 12.59 20.3831V20.3821Z" fill="#2E3192"/>
<path d="M9.56275 20.3896C9.58525 20.5528 9.53931 20.6953 9.42775 20.8106C9.2243 21.0196 9.02555 21.2362 8.80617 21.4275C8.55022 21.6506 8.20146 21.6328 7.98021 21.4115C7.75708 21.1884 7.7402 20.8481 7.96802 20.5893C8.16865 20.3624 8.38897 20.1515 8.61585 19.9499C8.80992 19.7774 9.04336 19.7652 9.27118 19.8806C9.47462 19.9837 9.58806 20.1534 9.56275 20.3906V20.3896Z" fill="#2E3192"/>
</svg>
