<svg width="65" height="36" viewBox="0 0 65 36" fill="none" xmlns="http://www.w3.org/2000/svg">
<path d="M14.525 1.34668H29.298L31.6609 2.73945L32.5061 9.98183V13.7951L31.6609 15.9083L29.298 13.7951H23.5156L14.0544 13.3533L11.4033 13.4205L8.22398 10.6542V7.53248C8.22398 6.43748 8.38727 5.34248 8.70424 4.30511C9.08845 3.03721 10.0202 2.06708 11.1824 1.69247L12.2486 1.35628H14.5346L14.525 1.34668Z" fill="#E7ECFB"/>
<path d="M32.4773 27.6364C24.1399 27.6364 17.9829 27.6364 9.65516 27.6364C7.59002 27.6364 5.97634 26.8487 4.9966 24.9661C4.6316 24.2649 4.49712 23.5061 4.49712 22.7281C4.49712 19.5968 4.49712 16.4654 4.49712 13.3341C4.49712 12.2775 5.0062 11.7685 6.07239 11.7588C7.49397 11.7492 6.73515 11.7588 8.15674 11.7588C9.34779 11.7588 9.83766 12.2487 9.83766 13.4206C9.83766 15.8891 9.83766 18.3481 9.83766 20.8166C9.83766 21.8636 10.1258 22.1518 11.1728 22.1518C22.4302 22.1518 33.6876 22.1518 44.945 22.1518C45.1083 22.1518 45.2812 22.1518 45.4445 22.1326C45.9151 22.0461 46.1841 21.7579 46.2225 21.2873C46.2513 20.8166 46.0304 20.4708 45.5693 20.346C45.3292 20.2787 45.0794 20.2787 44.8297 20.2787C41.2565 20.2787 37.6834 20.2595 34.1102 20.2883C33.5243 20.2883 33.4474 20.1154 33.4474 19.5968C33.4282 18.0599 33.7836 16.7056 35.0227 15.697C35.7815 15.0823 36.646 14.7557 37.6161 14.7557C42.7165 14.7461 47.8074 14.7557 52.9078 14.7365C53.2247 14.7365 53.34 14.8037 53.3304 15.1495C53.3112 16.7152 53.3112 18.2808 53.3304 19.8465C53.3304 20.2211 53.2055 20.2883 52.8693 20.2787C51.7455 20.2595 50.6121 20.2691 49.4883 20.2787C49.277 20.2787 49.0656 20.2787 48.8639 20.3364C48.3741 20.4612 48.1147 20.7878 48.1531 21.2969C48.1916 21.806 48.4893 22.1326 48.9888 22.1422C50.7658 22.171 52.5428 22.171 54.3101 22.1422C54.896 22.1422 55.1938 21.7099 55.1938 20.9991C55.1938 18.5306 55.1938 16.0716 55.1938 13.6031C55.1938 12.2007 55.626 11.7588 57.0092 11.7588C58.3636 11.7588 59.7275 11.7588 61.0819 11.7588C62.2249 11.7588 62.7147 12.2583 62.7147 13.411C62.7147 16.4174 62.7147 19.4239 62.7147 22.4303C62.7147 25.6385 60.7361 27.6268 57.5375 27.6364C49.1809 27.6364 40.8243 27.6364 32.4677 27.6364H32.4773Z" fill="#C8D8FB"/>
<path d="M46.1072 21.2873H46.2129H48.1531L49.9109 20.8646H53.3784L54.1949 17.6661L53.4649 13.8336C53.4649 13.8336 50.4488 13.7183 49.7476 13.8336C49.0464 13.9488 41.6792 14.237 41.6792 14.237L38.2501 14.0353L35.9352 14.285C35.9352 14.285 34.0718 15.3704 33.9181 15.5049C33.7644 15.6394 33.5627 16.1196 33.3418 16.7536C33.1209 17.3875 32.7367 15.9275 32.9384 17.9927C33.1401 20.0674 32.9576 19.9425 33.2361 20.3748C33.5147 20.807 35.3205 21.2489 35.4838 21.2777C35.6471 21.3065 41.0164 21.2296 41.1989 21.2777C41.3814 21.3257 46.1072 21.2777 46.1072 21.2777V21.2873Z" fill="#E7ECFB"/>
<path d="M33.4859 14.554C33.4667 14.2178 33.4571 14.0353 33.4571 13.8528C33.4571 11.0961 33.4571 8.33933 33.4571 5.58262C33.4571 3.21972 34.7249 1.96143 37.0975 1.96143C43.0047 1.96143 48.9216 1.96143 54.8288 1.96143C56.5193 1.96143 57.7584 2.85472 58.1426 4.35314C58.2387 4.72775 58.2483 5.14077 58.2483 5.53459C58.2579 6.74486 58.2291 7.95512 58.2675 9.16539C58.2867 9.70328 58.181 9.95302 57.5759 9.88578C57.086 9.83776 56.5674 9.84736 56.0775 9.93381C54.6655 10.1739 53.7338 10.9904 53.4072 12.4024C53.3208 12.7962 53.1575 12.873 52.7925 12.873C48.1147 12.8634 43.4369 12.8922 38.7592 12.8538C36.8477 12.8346 35.0611 13.1036 33.4859 14.554Z" fill="#E7ECFB"/>
<path d="M50.6217 29.519C52.2354 29.519 53.7242 29.519 55.2226 29.519C55.4531 29.519 55.5396 29.6247 55.6164 29.8264C55.9814 30.8445 56.3753 31.8531 56.7306 32.8712C56.9612 33.5436 56.6058 34.0239 55.895 34.0527C55.482 34.0719 55.0593 34.0527 54.6463 34.0527C54.2333 34.0623 53.9355 33.8894 53.6858 33.5628C52.6964 32.2469 51.7071 30.9406 50.6313 29.5094L50.6217 29.519Z" fill="#C8D8FB"/>
<path d="M33.3514 5.58262C33.3514 3.15249 34.6481 1.86538 37.0975 1.86538H40.0559C44.9834 1.86538 49.9109 1.86538 54.8288 1.86538C56.577 1.86538 57.8449 2.78749 58.2387 4.33394C58.3347 4.72775 58.3443 5.14078 58.3443 5.5346C58.3443 6.01486 58.3443 6.48552 58.3443 6.96579C58.3443 7.68618 58.3443 8.43539 58.3636 9.16539C58.3636 9.43434 58.3636 9.70329 58.1907 9.86658C58.0658 9.99145 57.8641 10.0299 57.5567 10.0011C57.0668 9.95303 56.5578 9.96263 56.0871 10.0491C54.6847 10.2892 53.8106 11.0961 53.5033 12.4408C53.3976 12.9018 53.1863 12.9883 52.8021 12.9883C51.0443 12.9883 49.2962 12.9883 47.5384 12.9883C44.6664 12.9883 41.6888 12.9883 38.7688 12.9691C37.0398 12.9691 35.186 13.1516 33.5627 14.6404L33.3994 14.7845V14.5636C33.3802 14.4387 33.3802 14.3426 33.3706 14.2562C33.3706 14.0929 33.3514 13.9776 33.3514 13.8624V12.6809C33.3514 10.318 33.3514 7.95513 33.3514 5.59223V5.58262ZM11.5954 15.1879C11.5954 15.0342 11.605 14.8709 11.7107 14.7557C11.8163 14.65 11.9892 14.6308 12.1333 14.6308C14.2081 14.6308 16.2828 14.6308 18.3575 14.6308C21.2872 14.6308 24.3128 14.6308 27.2809 14.6404C29.8359 14.65 31.5936 16.4654 31.6513 19.1549C31.6609 19.7408 31.6705 20.029 31.5072 20.2019C31.3439 20.3748 31.0461 20.3748 30.4602 20.3748H19.3469C17.032 20.3748 14.6499 20.3748 12.2966 20.3748H12.2774C12.0181 20.3748 11.8356 20.3459 11.7107 20.2211C11.605 20.1154 11.557 19.9425 11.5666 19.6736C11.605 18.204 11.5954 16.7632 11.5666 15.1687L11.5954 15.1879ZM13.7278 30.5756C12.9017 31.6706 12.1045 32.7272 11.2977 33.7741C11.1056 34.0239 10.8366 34.1487 10.51 34.1487C10.4908 34.1487 10.4716 34.1487 10.4524 34.1487C10.3179 34.1487 10.1738 34.1487 10.0394 34.1487C9.9049 34.1487 9.76082 34.1487 9.62634 34.1487C9.44384 34.1487 9.25174 34.1487 9.06924 34.1391C8.72345 34.1199 8.43529 33.9758 8.272 33.7261C8.11832 33.4956 8.0895 33.1882 8.19516 32.8808C8.40647 32.2661 8.637 31.6514 8.85792 31.0558C9.02121 30.614 9.19411 30.1625 9.34779 29.7111C9.44384 29.4421 9.62634 29.4037 9.81845 29.4037C10.9327 29.4037 12.0469 29.4037 13.2091 29.4037H14.6211L13.7374 30.566L13.7278 30.5756ZM56.7499 33.7357C56.577 33.9854 56.2792 34.1295 55.8854 34.1487C55.6645 34.1583 55.4339 34.1487 55.2226 34.1487C55.0305 34.1487 54.8288 34.1487 54.6367 34.1487C54.6175 34.1487 54.6079 34.1487 54.5887 34.1487C54.1853 34.1487 53.8587 33.9758 53.5993 33.6204C52.8693 32.6407 52.1297 31.6706 51.3613 30.6524L50.42 29.4037H51.832C52.9942 29.4037 54.1084 29.4037 55.2322 29.4037C55.5204 29.4037 55.6357 29.5574 55.7125 29.7783C55.8662 30.2106 56.0199 30.6332 56.1832 31.0558C56.3945 31.6321 56.625 32.2277 56.8267 32.8232C56.942 33.169 56.9228 33.4956 56.7595 33.7261L56.7499 33.7357ZM57.5375 27.7324C51.5726 27.7324 45.5981 27.7324 39.6333 27.7324H25.8016C19.6927 27.7324 13.5741 27.7324 7.46516 27.7324C5.22713 27.7324 3.67107 26.8391 2.71054 25.0141C2.36475 24.3513 2.20146 23.6021 2.19186 22.7281C2.19186 19.6832 2.19186 16.5134 2.19186 13.3245C2.19186 12.2103 2.73936 11.6532 3.87278 11.6532C5.25594 11.6436 6.66792 11.6532 8.03187 11.6532H8.13753C9.38621 11.6532 9.9145 12.1815 9.9145 13.4205C9.9145 14.7941 9.9145 16.158 9.9145 17.5316C9.9145 18.6266 9.9145 19.7216 9.9145 20.8166C9.9145 21.8156 10.1546 22.0557 11.144 22.0557C22.4014 22.0557 33.6588 22.0557 44.9162 22.0557H45.0122C45.1467 22.0557 45.2812 22.0557 45.3964 22.0365C45.8287 21.9596 46.0592 21.7003 46.088 21.2873C46.1168 20.855 45.9151 20.5669 45.5117 20.4516C45.2908 20.394 45.0506 20.3844 44.8009 20.3844H42.8414C39.9694 20.3844 37.0014 20.3748 34.0814 20.394C33.4282 20.4132 33.3226 20.1538 33.313 19.5967C33.2938 17.8005 33.8028 16.5326 34.9267 15.6105C35.7047 14.9766 36.6076 14.65 37.5873 14.6404C40.2192 14.6404 42.8414 14.6404 45.4733 14.6404C47.9418 14.6404 50.4104 14.6404 52.8789 14.6404C53.0326 14.6404 53.1863 14.6596 53.2824 14.7557C53.3592 14.8325 53.3976 14.9574 53.3976 15.1495C53.3784 16.8208 53.3784 18.3577 53.3976 19.8465C53.3976 20.0578 53.3592 20.1827 53.2824 20.2691C53.1767 20.3748 53.0038 20.394 52.8405 20.3844C51.8608 20.3652 50.8618 20.3748 49.9013 20.3844H49.4595C49.2577 20.3844 49.056 20.3844 48.8639 20.442C48.4125 20.5477 48.2012 20.8358 48.23 21.2969C48.2684 21.7675 48.5277 22.0461 48.96 22.0461C50.8618 22.0749 52.6004 22.0749 54.2813 22.0461C54.9249 22.0365 55.0593 21.4698 55.0593 20.9991C55.0593 19.2798 55.0593 17.5604 55.0593 15.8507V13.6126C55.0593 12.1622 55.5396 11.6724 56.9804 11.6724H57.8929C58.9399 11.6724 59.9965 11.6724 61.053 11.6724C62.2537 11.6724 62.782 12.2199 62.782 13.4301C62.782 16.4366 62.782 19.443 62.782 22.4495C62.782 25.7153 60.7553 27.7516 57.4991 27.7516L57.5375 27.7324ZM64.3188 24.4954C64.3765 24.3321 64.4341 24.1688 64.5013 24.0056V12.5176C64.4341 12.3736 64.3765 12.2295 64.3188 12.0854C64.1844 11.7684 64.0691 11.4611 63.8578 11.1921C63.147 10.2892 62.1384 9.905 60.6976 9.99145C60.4383 10.0011 60.2846 9.97224 60.179 9.86658C60.0733 9.76092 60.0253 9.60724 60.0349 9.33829C60.0637 8.18566 60.0637 6.92736 60.0349 5.39052C59.9868 2.23038 57.9217 0.184455 54.752 0.17485C52.2738 0.17485 49.786 0.17485 47.3079 0.17485C43.8308 0.17485 40.3633 0.17485 36.8861 0.17485H36.8669C35.1956 0.17485 33.8893 0.751167 32.8615 1.93262C32.7463 2.06709 32.6406 2.18235 32.4965 2.18235C32.3909 2.18235 32.2852 2.11512 32.1603 1.96143C31.1614 0.760772 29.8263 0.17485 28.1069 0.17485C28.0877 0.17485 28.0685 0.17485 28.0493 0.17485C25.8305 0.194061 23.5636 0.184455 21.3832 0.184455C20.4323 0.184455 19.4814 0.184455 18.5304 0.184455C18.3672 0.184455 18.2039 0.184455 18.0502 0.184455C17.6564 0.184455 17.4931 0.15564 17.0897 0.17485C16.5902 0.194061 16.254 0.50143 16.2348 0.962483C16.2156 1.38512 16.5614 1.75972 17.0224 1.82696C17.1569 1.84617 17.0416 1.86538 17.1857 1.86538H17.3202H21.4024C23.6116 1.86538 25.8209 1.86538 28.0397 1.86538C30.3449 1.86538 31.6705 3.19091 31.6801 5.49618C31.6801 8.39697 31.6801 11.3458 31.6801 13.9584C31.6801 13.9872 31.6801 14.0161 31.6801 14.0449C31.6897 14.1794 31.7089 14.3715 31.4784 14.5347L31.4111 14.5828L31.3535 14.5251C29.7782 13.0555 27.7611 12.9499 25.8401 12.9595C23.1122 12.9787 20.3362 12.9787 17.6468 12.9787C15.8698 12.9787 14.0832 12.9787 12.3062 12.9787C11.874 12.9787 11.6338 12.8922 11.509 12.3736C11.1824 11.0576 10.2987 10.2508 8.95397 10.0395C8.50253 9.97224 8.03187 9.97224 7.57081 9.98184C7.27305 9.98184 6.95608 10.0491 6.78318 9.86658C6.70634 9.78974 6.66792 9.66487 6.66792 9.48237C6.67752 8.85803 6.66792 8.22408 6.66792 7.60934C6.66792 6.8025 6.66792 5.97644 6.68713 5.15039C6.75436 3.16209 8.0991 1.86538 10.1354 1.84617C10.51 1.84617 10.875 1.84617 11.2496 1.84617C11.826 1.84617 12.4311 1.84617 13.017 1.83656C13.5357 1.81735 13.8815 1.48117 13.8719 0.991299C13.8719 0.50143 13.5165 0.184455 12.9882 0.17485H12.4503C11.5378 0.15564 10.5965 0.136429 9.67437 0.194061C7.13858 0.347745 5.1887 2.27841 5.03502 4.8046C4.97739 5.74591 4.98699 6.70644 4.98699 7.63815C4.98699 8.00316 4.98699 8.36816 4.98699 8.74276C4.98699 9.905 4.93897 9.94342 3.80554 9.97224C1.9037 10.0107 0.558957 11.2593 0.539746 13.0171V13.19C0.501325 16.4846 0.462904 19.8849 0.558957 23.2275C0.626194 25.4752 1.7308 27.2617 3.84396 28.5393C4.84291 29.1444 6.00515 29.4229 7.50358 29.4229H7.64766L7.59963 29.5574C7.49397 29.8552 7.37871 30.1529 7.27305 30.4411C7.04252 31.0654 6.8216 31.6514 6.61989 32.2565C6.32213 33.1402 6.43739 34.0431 6.91765 34.725C7.39792 35.407 8.21437 35.8201 9.15569 35.8393C9.29977 35.8393 9.45345 35.8393 9.59753 35.8393C9.69358 35.8393 9.78963 35.8393 9.88569 35.8393C10.001 35.8393 10.1162 35.8393 10.2219 35.8393C11.2881 35.8969 12.1525 35.4647 12.8537 34.5233C13.4012 33.7837 13.9487 33.0537 14.5058 32.3237C15.111 31.5169 15.7449 30.6908 16.35 29.8648C16.5902 29.5382 16.8495 29.4037 17.2529 29.4037C27.3097 29.4133 37.5777 29.4133 47.7689 29.4037C48.1531 29.4037 48.4029 29.5286 48.6238 29.8264C49.3058 30.7389 49.9877 31.6418 50.6793 32.5543C51.1884 33.2266 51.6975 33.899 52.2066 34.581C52.7541 35.311 53.3592 35.7048 54.0796 35.7912C54.4542 35.8393 54.8576 35.8393 55.2418 35.8297C55.3475 35.8297 55.4628 35.8297 55.5684 35.8297C56.7114 35.8297 57.6143 35.4262 58.1234 34.7058C58.6229 33.9854 58.6901 33.0057 58.2963 31.9395C58.0946 31.392 57.8929 30.8349 57.6912 30.2874L57.403 29.519L57.5663 29.4614C57.5663 29.4614 57.6143 29.4421 57.6432 29.4421C57.7392 29.4421 57.8161 29.4229 57.8929 29.4229C60.6496 29.3269 62.6571 28.0302 63.877 25.5808C64.0499 25.235 64.1748 24.87 64.3092 24.505L64.3188 24.4954Z" fill="#2E3192"/>
</svg>
