<svg width="33" height="33" viewBox="0 0 33 33" fill="none" xmlns="http://www.w3.org/2000/svg">
<path d="M21.9943 11.9554C21.9943 12.5009 21.5544 12.9407 21.009 12.9407C20.4636 12.9407 20.0237 12.4965 20.0237 11.9554C20.0237 11.4144 20.468 10.9702 21.009 10.9702C21.55 10.9702 21.9943 11.4144 21.9943 11.9554ZM20.7671 16.3804C20.7671 18.6677 18.9065 20.5282 16.6192 20.5282C14.332 20.5282 12.4714 18.6677 12.4714 16.3804C12.4714 14.0931 14.332 12.2325 16.6192 12.2325C18.9065 12.2325 20.7671 14.0931 20.7671 16.3804ZM19.276 16.3804C19.276 14.9157 18.084 13.7237 16.6192 13.7237C15.1545 13.7237 13.9625 14.9157 13.9625 16.3804C13.9625 17.8451 15.1545 19.0371 16.6192 19.0371C18.084 19.0371 19.276 17.8451 19.276 16.3804ZM25.0117 13.0507C25.0117 10.2576 22.7464 7.99233 19.9534 7.99233H13.052C10.2589 7.99233 7.99364 10.2576 7.99364 13.0507V19.952C7.99364 22.7451 10.2589 25.0104 13.052 25.0104H19.9534C22.7464 25.0104 25.0117 22.7451 25.0117 19.952V13.0507ZM23.349 19.8773C23.349 21.795 21.792 23.3521 19.8742 23.3521H13.1224C11.2046 23.3521 9.6475 21.795 9.6475 19.8773V13.1255C9.6475 11.2077 11.2046 9.65059 13.1224 9.65059H19.8742C21.792 9.65059 23.349 11.2077 23.349 13.1255V19.8773Z" fill="#2E3192"/>
</svg>
