<svg width="30" height="24" viewBox="0 0 30 24" fill="none" xmlns="http://www.w3.org/2000/svg">
<path d="M0 1.33942C0.147437 1.0413 0.278998 0.729196 0.544384 0.519576C0.864209 0.268032 1.23167 0.181855 1.63768 0.184184C4.752 0.191171 7.86632 0.188842 10.9806 0.188842C13.2648 0.188842 15.5512 0.202817 17.8353 0.181855C18.8288 0.172539 19.5297 0.868943 19.507 1.89142C19.4957 2.42246 19.5161 2.9535 19.5002 3.48454C19.4934 3.70813 19.5569 3.77335 19.777 3.77102C21.4464 3.7617 23.1158 3.78033 24.7853 3.7617C26.3413 3.7454 26.5092 4.23451 26.9424 5.29659C27.5752 6.85243 28.199 8.41294 28.816 9.97577C29.2288 11.0215 29.6983 12.044 30 13.1317V19.5088C29.8231 19.7278 29.7959 20.0282 29.5713 20.2355C29.2379 20.543 28.8818 20.72 28.4304 20.7176C27.5231 20.7083 26.6158 20.7246 25.7107 20.7083C25.4975 20.7037 25.4272 20.7852 25.3909 20.9715C25.1958 21.9847 24.6492 22.7416 23.794 23.2703C22.3923 24.1344 20.8748 23.9598 19.659 22.8628C19.0829 22.3434 18.7268 21.6819 18.5748 20.9063C18.5657 20.8597 18.5339 20.8178 18.5113 20.7735C18.5158 20.7363 18.4977 20.7176 18.4614 20.7223C15.9436 20.72 13.4258 20.7176 10.9081 20.7153C10.3705 20.7153 9.83517 20.727 9.2976 20.7107C9.04582 20.7013 8.95282 20.7549 8.8825 21.0414C8.52412 22.4738 7.61908 23.3705 6.21957 23.7175C5.25102 23.9574 4.35959 23.7478 3.54075 23.1749C2.73325 22.6089 2.25011 21.8263 2.06185 20.8481C2.04143 20.7433 2.0006 20.72 1.90987 20.713C0.905035 20.6431 0.319824 20.0538 0.0317555 19.1036C0.0317555 19.0966 0.0158775 19.0942 0.0068045 19.0896C0.0068045 18.8078 0.0068045 18.5283 0.0068045 18.2465C0.136095 17.9437 0.244973 17.6269 0.458189 17.366C0.494482 17.3241 0.546652 17.2519 0.462727 17.1867C0.222291 16.9957 0.149705 16.6953 0.0068045 16.4414V15.901C0.161046 15.6705 0.362922 15.5354 0.641918 15.6099C0.880085 15.6728 0.968546 15.8731 1.00257 16.099C1.0502 16.4204 1.21125 16.5905 1.53108 16.6114C1.72388 16.6231 1.91895 16.6068 2.11402 16.6044C2.20248 16.6091 2.28867 16.6184 2.37714 16.6184C7.33782 16.6184 12.2985 16.6184 17.2615 16.6184C17.3499 16.6184 17.4361 16.6091 17.5246 16.6044C17.7491 16.6091 17.9737 16.5998 18.196 16.6231C18.4478 16.651 18.5271 16.5695 18.5249 16.297C18.5113 14.9158 18.5181 13.5323 18.5181 12.1512C18.5181 8.746 18.5181 5.34084 18.5181 1.93568C18.5181 1.39066 18.3502 1.21831 17.8195 1.22064C17.6834 1.22064 17.5473 1.22763 17.4112 1.22996C17.334 1.2253 17.2547 1.21831 17.1775 1.21831C12.2259 1.21831 7.27431 1.21831 2.3227 1.21831C2.25465 1.21831 2.1866 1.2253 2.11855 1.22763C1.98246 1.22297 1.84637 1.21598 1.71027 1.21598C1.12506 1.21598 1.00937 1.33244 1.00937 1.92636C1.00937 4.49071 1.00937 7.05274 1.00937 9.61709C1.00937 10.3671 1.00937 11.1194 1.00937 11.8693C1.00937 12.0813 0.982157 12.2839 0.773477 12.4097C0.442311 12.6077 0.337971 12.5774 0.011342 12.1698V1.33942H0ZM2.34085 17.6455C2.2229 17.6455 2.10721 17.6386 1.98926 17.6409C1.49705 17.6549 1.04567 18.0392 0.998036 18.484C0.94133 19.0081 1.25888 19.5344 1.73295 19.6719C1.83275 19.6998 1.99607 19.7767 2.04824 19.5857C2.0868 19.4436 2.09814 19.2945 2.12309 19.1478C2.36126 18.6354 2.57901 18.1114 3.05308 17.6455C2.75594 17.6455 2.54726 17.6455 2.34085 17.6455ZM3.04174 20.1633C2.9442 20.2541 2.98276 20.3729 2.99637 20.4731C3.04854 20.8714 3.17556 21.2487 3.39332 21.5841C3.84016 22.2688 4.44125 22.702 5.2669 22.7533C5.5096 22.7533 5.75004 22.7719 5.99274 22.723C7.01799 22.525 8.04552 21.4769 7.98654 20.0585C7.94118 18.9615 7.00439 17.7108 5.69107 17.6479C4.3596 17.585 3.37744 18.3606 3.04627 19.7021C3.00771 19.8582 2.94647 20.0073 3.04174 20.1633ZM21.8728 13.5416C21.5734 13.1573 21.485 12.7195 21.494 12.228C21.5144 10.8678 21.5008 9.50529 21.5008 8.14509C21.5008 7.13425 21.494 6.12342 21.5054 5.11259C21.5076 4.87036 21.4351 4.79583 21.2082 4.81446C20.9746 4.83309 20.741 4.82378 20.5073 4.82611C20.2737 4.82145 20.0378 4.83309 19.8064 4.8098C19.5592 4.78418 19.498 4.882 19.5002 5.12889C19.507 8.8578 19.507 12.5844 19.5002 16.3133C19.5002 16.5741 19.5819 16.6184 19.8155 16.6231C20.7387 16.6417 21.6687 16.5276 22.5873 16.6859C23.3926 16.8234 24.0776 17.1937 24.622 17.8482C25.0121 18.3163 25.273 18.8311 25.3909 19.432C25.4181 19.5717 25.4453 19.7045 25.6631 19.6998C26.4048 19.6789 27.1465 19.6858 27.8883 19.6835C28.0742 19.6858 28.258 19.6905 28.444 19.6928C28.7388 19.6928 28.9362 19.5461 28.977 19.2503C29.0133 18.9848 28.9884 18.7123 29.0065 18.4444C29.0178 18.2558 28.9657 18.1579 28.7661 18.1882C28.4939 18.2301 28.2739 18.1137 28.072 17.946C28.0017 17.7783 27.9926 17.6059 28.0221 17.4266C28.1332 17.3218 28.2058 17.1751 28.3918 17.1611C28.5869 17.1471 28.8387 17.2729 28.9679 17.0796C29.0791 16.9119 28.9929 16.6696 29.0042 16.4624C29.0065 16.4228 28.9997 16.3808 29.0042 16.3436C29.0247 16.1805 28.943 16.1246 28.8001 16.1456C28.5211 16.1829 28.2875 16.0804 28.0788 15.901C28.0039 15.7357 27.9971 15.561 28.0221 15.3816C28.1355 15.2792 28.2035 15.1301 28.3918 15.1161C29.0065 15.0719 29.0065 15.0649 29.0065 14.4174C29.0065 14.3685 29.002 14.3172 29.0065 14.2683C29.0246 14.1053 28.9679 14.0308 28.7956 14.0401C28.5324 14.054 28.2693 14.0517 28.0062 14.054C26.3799 14.0494 24.7535 14.0331 23.1272 14.0494C22.6282 14.054 22.2221 13.898 21.8751 13.5463L21.8728 13.5416ZM22.4989 8.75998C22.4989 9.9618 22.4989 11.1636 22.4989 12.3678C22.4989 12.815 22.6871 13.0106 23.1204 13.0106C24.9441 13.0106 26.77 13.0106 28.5937 13.0106C28.9271 13.0106 28.9385 12.9943 28.8114 12.6729C28.3487 11.506 27.8814 10.3414 27.4165 9.17689C26.8857 7.85395 26.3526 6.53334 25.8264 5.21041C25.7175 4.93557 25.5429 4.81213 25.2457 4.81679C24.4269 4.83076 23.6058 4.83076 22.7869 4.81679C22.5488 4.81213 22.4921 4.89132 22.4943 5.12423C22.5034 6.33537 22.4989 7.54884 22.4989 8.76231V8.75998ZM19.507 17.6595H7.97293C8.44927 18.1673 8.76456 18.7286 8.89385 19.3737C8.94375 19.6276 9.02994 19.6952 9.27264 19.6952C11.9651 19.6858 14.6598 19.6905 17.3522 19.6905C17.6743 19.6905 17.9964 19.6858 18.3185 19.6858C18.4296 19.6858 18.5385 19.6905 18.5634 19.5391C18.6791 18.8287 19.0103 18.2278 19.507 17.6618V17.6595ZM21.9431 22.7603C23.286 22.7999 24.4677 21.7471 24.4881 20.2425C24.5085 18.7728 23.4243 17.6688 22.0248 17.6432C20.6003 17.6176 19.5411 18.8031 19.5025 20.1284C19.4594 21.5468 20.6071 22.7649 21.9431 22.7579V22.7603Z" fill="#2E3192"/>
<path d="M0 13.8537C0.131559 13.6977 0.254045 13.5393 0.492212 13.5486C0.743989 13.5579 0.927718 13.6581 0.988961 13.912C1.0434 14.1425 0.966279 14.3475 0.762135 14.4756C0.582943 14.5897 0.247242 14.5152 0.111146 14.3452C0.0748538 14.3009 0.0385626 14.2567 0.00227047 14.2124C0.00227047 14.0913 0.00227047 13.9725 0.00227047 13.8514L0 13.8537Z" fill="#2E3192"/>
<path d="M18.4568 20.7223C18.4954 20.7177 18.5113 20.734 18.5068 20.7736C18.4909 20.7573 18.4727 20.741 18.4568 20.7223Z" fill="#F2F6FB"/>
<path d="M2.10725 16.602C2.00518 16.3365 1.99156 16.0617 1.99156 15.7799C1.9961 11.6504 1.99157 7.52317 1.9961 3.39365C1.9961 3.27021 1.94393 3.13046 2.05735 3.02565C2.22066 3.21664 2.42027 3.28418 2.67431 3.27254C3.09167 3.25158 3.5113 3.27021 3.93093 3.26555C4.29158 3.26089 4.45489 3.09786 4.45489 2.74849C4.45489 2.40844 4.29158 2.24773 3.92186 2.24307C3.47274 2.23841 3.02589 2.25006 2.57678 2.23841C2.35449 2.23375 2.18437 2.30829 2.05281 2.4853C1.93486 2.05907 1.97795 1.63983 2.11178 1.22758C2.17983 1.22292 2.24788 1.21826 2.31593 1.21826C7.26754 1.21826 12.2191 1.21826 17.1708 1.21826C17.2479 1.21826 17.3273 1.22525 17.4044 1.22991C17.4293 1.33472 17.4611 1.43953 17.477 1.54667C17.5291 1.86575 17.5881 2.18484 17.4475 2.49694C17.3091 2.32459 17.1413 2.24074 16.9144 2.24074C13.3034 2.2454 9.69004 2.24307 6.07897 2.2454C5.70471 2.2454 5.50283 2.43872 5.50737 2.77178C5.51191 3.07922 5.72285 3.26788 6.06989 3.26788C9.67189 3.26788 13.2739 3.26788 16.8759 3.27254C17.1095 3.27254 17.2955 3.20499 17.4384 3.01867C17.5428 3.08621 17.5178 3.19335 17.5178 3.29117C17.5178 7.73046 17.5178 12.1697 17.5155 16.609C17.4271 16.6137 17.3409 16.623 17.2524 16.623C12.2917 16.623 7.33105 16.623 2.3681 16.623C2.27963 16.623 2.19344 16.6137 2.10498 16.609L2.10725 16.602Z" fill="#F2F6FB"/>
<path d="M28.0176 15.377C27.9903 15.554 27.9994 15.7287 28.0743 15.8964C28.0039 15.9406 28.0062 16.0105 28.0062 16.0804C28.0108 16.5276 28.0153 16.9771 28.0198 17.4243C27.9903 17.6013 27.9994 17.776 28.0697 17.9437C27.9631 18.0368 28.013 18.1649 28.0085 18.2767C27.9835 18.7449 28.0788 19.2247 27.8883 19.6789C27.1465 19.6812 26.4048 19.6742 25.6631 19.6952C25.4476 19.7022 25.4204 19.5671 25.3909 19.4273C25.273 18.8264 25.0098 18.314 24.622 17.8435C24.0776 17.189 23.3926 16.821 22.5873 16.6813C21.6687 16.5229 20.7387 16.637 19.8155 16.6184C19.5819 16.6138 19.5002 16.5695 19.5002 16.3086C19.5093 12.5797 19.5093 8.85315 19.5002 5.12424C19.5002 4.87736 19.5592 4.78186 19.8065 4.80515C20.0378 4.82844 20.2737 4.8168 20.5073 4.82146C20.5073 7.37649 20.5073 9.93153 20.5051 12.4866C20.5051 12.7824 20.5958 13.0316 20.8113 13.2342C21.1175 13.5207 21.4804 13.5743 21.8728 13.537C22.2199 13.8887 22.6259 14.0447 23.1249 14.0401C24.7513 14.0238 26.3776 14.0401 28.0039 14.0447C28.0085 14.4873 28.013 14.9298 28.0198 15.3723L28.0176 15.377Z" fill="#F2F6FB"/>
<path d="M22.4989 8.75992C22.4989 7.54645 22.5034 6.33531 22.4943 5.12184C22.4943 4.88893 22.5488 4.80974 22.7869 4.8144C23.6058 4.82838 24.4269 4.82838 25.2457 4.8144C25.5451 4.80974 25.7175 4.93319 25.8264 5.20802C26.3526 6.53096 26.8879 7.85156 27.4165 9.1745C27.8837 10.3391 28.3487 11.5059 28.8114 12.6705C28.9385 12.9919 28.9271 13.0082 28.5937 13.0082C26.77 13.0082 24.944 13.0082 23.1204 13.0082C22.6871 13.0082 22.4989 12.8126 22.4989 12.3654C22.4989 11.1636 22.4989 9.96174 22.4989 8.75759V8.75992Z" fill="#A8C3E4"/>
<path d="M19.507 17.6596C19.0103 18.2255 18.6791 18.8264 18.5634 19.5368C18.5385 19.6882 18.4273 19.6836 18.3184 19.6836C17.9963 19.6836 17.6742 19.6882 17.3522 19.6882C14.6597 19.6882 11.965 19.6859 9.27261 19.6929C9.0299 19.6929 8.94371 19.6253 8.89381 19.3715C8.76452 18.724 8.44923 18.165 7.9729 17.6572H19.507V17.6596Z" fill="#A8C3E4"/>
<path d="M17.5132 16.5997C17.5132 12.1605 17.5155 7.72116 17.5155 3.28187C17.5155 3.18405 17.5404 3.07691 17.4361 3.00937C17.4701 2.83701 17.4633 2.66233 17.4429 2.48998C17.5835 2.17788 17.5223 1.85879 17.4724 1.5397C17.4542 1.43256 17.4247 1.32775 17.3998 1.22294C17.5359 1.22061 17.672 1.21362 17.8081 1.21362C18.3388 1.21362 18.5067 1.38365 18.5067 1.92866C18.5067 5.33382 18.5067 8.73899 18.5067 12.1441C18.5067 13.5253 18.4999 14.9088 18.5135 16.29C18.5158 16.5625 18.4364 16.644 18.1846 16.616C17.9623 16.5928 17.7378 16.6021 17.5132 16.5974V16.5997Z" fill="#97B8DF"/>
<path d="M21.9432 22.7579C20.6072 22.7649 19.4594 21.5468 19.5025 20.1283C19.5411 18.8031 20.6004 17.6199 22.0248 17.6432C23.4243 17.6665 24.5086 18.7728 24.4882 20.2425C24.4677 21.7471 23.286 22.7998 21.9432 22.7602V22.7579ZM21.9772 21.7331C22.7711 21.7447 23.4856 21.1648 23.4856 20.2145C23.4856 19.3411 22.9457 18.6982 21.9772 18.6656C21.1878 18.64 20.5096 19.3434 20.5051 20.1679C20.5006 21.053 21.1334 21.7261 21.9749 21.7308L21.9772 21.7331Z" fill="#A8C3E4"/>
<path d="M3.04171 20.1633C2.94644 20.0096 3.00768 19.8582 3.04624 19.7021C3.37741 18.3605 4.35957 17.585 5.69103 17.6478C7.00436 17.7107 7.94342 18.9615 7.98651 20.0585C8.04549 21.4746 7.01796 22.525 5.99271 22.723C5.75001 22.7696 5.50957 22.7556 5.26687 22.7533C5.22831 22.6554 5.13077 22.6182 5.06273 22.5529C4.6 22.1081 4.20986 21.6166 4.1282 20.9389C4.24161 21.06 4.35049 21.1858 4.46617 21.3045C4.96746 21.8146 5.74774 21.8868 6.34883 21.4792C6.90909 21.0996 7.14726 20.2588 6.87507 19.609C6.60061 18.9498 5.91786 18.5562 5.26687 18.6796C4.54556 18.8171 4.01479 19.4319 3.97623 20.1773C3.66321 20.31 3.35246 20.1982 3.03944 20.1633H3.04171Z" fill="#A8C3E4"/>
<path d="M21.8728 13.5416C21.4827 13.5789 21.1175 13.5253 20.8113 13.2388C20.5958 13.0362 20.5051 12.787 20.5051 12.4912C20.5051 9.93615 20.5051 7.38112 20.5073 4.82608C20.741 4.82375 20.9769 4.8354 21.2082 4.81443C21.4351 4.7958 21.5076 4.87266 21.5054 5.11256C21.4918 6.1234 21.5008 7.13423 21.5008 8.14507C21.5008 9.5076 21.5144 10.8678 21.494 12.228C21.4872 12.7194 21.5757 13.155 21.8728 13.5416Z" fill="#97B8DF"/>
<path d="M27.886 19.6788C28.0765 19.2246 27.9813 18.7448 28.0062 18.2767C28.013 18.1649 27.9608 18.0368 28.0675 17.9436C28.2693 18.1113 28.4894 18.2278 28.7615 18.1858C28.9612 18.1556 29.0133 18.2534 29.002 18.442C28.9838 18.7099 29.0088 18.9847 28.9725 19.2479C28.9317 19.5437 28.7343 19.6904 28.4394 19.6904C28.2535 19.6904 28.0697 19.6835 27.8837 19.6811L27.886 19.6788Z" fill="#97B8DF"/>
<path d="M28.0175 15.377C28.013 14.9345 28.0085 14.4919 28.0016 14.0494C28.2648 14.0448 28.5279 14.0494 28.791 14.0354C28.9634 14.0261 29.0201 14.1007 29.002 14.2637C28.9974 14.3126 29.002 14.3638 29.002 14.4128C29.002 15.0603 29.002 15.0672 28.3873 15.1115C28.199 15.1255 28.1309 15.2745 28.0175 15.377Z" fill="#97B8DF"/>
<path d="M28.0198 17.4243C28.0153 16.9771 28.0108 16.5276 28.0062 16.0804C28.0062 16.0105 28.0062 15.9383 28.0743 15.8964C28.283 16.0757 28.5166 16.1782 28.7956 16.1409C28.9407 16.1223 29.0201 16.1759 28.9997 16.3389C28.9952 16.3785 28.9997 16.4181 28.9997 16.4577C28.9861 16.665 29.0746 16.9072 28.9634 17.0749C28.8341 17.2705 28.5846 17.1424 28.3873 17.1564C28.2013 17.1704 28.131 17.3195 28.0176 17.4219L28.0198 17.4243Z" fill="#97B8DF"/>
<path d="M2.12307 19.1478C1.87129 18.7053 2.021 18.2883 2.21153 17.8784C2.24783 17.7969 2.29773 17.7224 2.34309 17.6455C2.5495 17.6455 2.75592 17.6455 3.05533 17.6455C2.58126 18.1113 2.36351 18.6354 2.12534 19.1478H2.12307Z" fill="#A8C3E4"/>
<path d="M2.05054 2.48304C2.18209 2.30603 2.35221 2.22917 2.5745 2.23615C3.02135 2.2478 3.47046 2.23615 3.91958 2.24081C4.28931 2.24547 4.45489 2.40618 4.45262 2.74623C4.45262 3.0956 4.28931 3.25863 3.92865 3.26329C3.50903 3.26795 3.0894 3.24932 2.67204 3.27028C2.42026 3.28425 2.22065 3.21671 2.05507 3.02339C1.96888 2.84405 1.97341 2.66471 2.04827 2.48304H2.05054Z" fill="#2E3192"/>
<path d="M17.4452 2.4923C17.4656 2.66698 17.4724 2.83933 17.4384 3.01169C17.2955 3.20035 17.1095 3.26789 16.8759 3.26556C13.2739 3.2609 9.67186 3.26323 6.06986 3.2609C5.72055 3.2609 5.51187 3.07225 5.50734 2.7648C5.5028 2.42941 5.70467 2.23842 6.07894 2.23842C9.69001 2.23842 13.3033 2.23842 16.9144 2.23376C17.1412 2.23376 17.3091 2.31761 17.4475 2.48997L17.4452 2.4923Z" fill="#2E3192"/>
<path d="M21.9749 21.7355C21.1334 21.7308 20.4983 21.0577 20.5051 20.1726C20.5097 19.3481 21.1856 18.6447 21.9772 18.6704C22.9435 18.7006 23.4856 19.3458 23.4856 20.2192C23.4856 21.1672 22.7711 21.7494 21.9772 21.7378L21.9749 21.7355ZM21.984 20.7107C22.2494 20.7037 22.4944 20.4591 22.4944 20.2006C22.4944 19.9327 22.2222 19.6765 21.9523 19.6905C21.696 19.7045 21.4963 19.9397 21.5032 20.2169C21.51 20.4847 21.7345 20.7176 21.984 20.7107Z" fill="#2E3192"/>
<path d="M4.12822 20.9366C4.01027 20.6967 3.98759 20.4381 3.97852 20.175C4.01708 19.4296 4.54785 18.8148 5.26915 18.6773C5.92014 18.5539 6.60289 18.9475 6.87735 19.6067C7.14954 20.2565 6.91138 21.0973 6.35112 21.4769C5.75003 21.8845 4.96974 21.8123 4.46846 21.3022C4.35278 21.1835 4.24163 21.0577 4.13049 20.9366H4.12822ZM5.97912 20.2122C5.98139 19.9048 5.78859 19.6928 5.50052 19.6905C5.24647 19.6882 4.98562 19.942 4.98109 20.1959C4.97882 20.4335 5.22606 20.706 5.45061 20.7106C5.77271 20.72 5.97458 20.5267 5.97685 20.2122H5.97912Z" fill="#2E3192"/>
<path d="M21.984 20.7106C21.7345 20.7176 21.5099 20.4847 21.5031 20.2168C21.4963 19.9397 21.6982 19.7067 21.9522 19.6904C22.2221 19.6741 22.4943 19.9303 22.4943 20.2005C22.4943 20.459 22.2494 20.7036 21.984 20.7106Z" fill="#F2F6FB"/>
<path d="M5.97686 20.2122C5.97459 20.5266 5.77045 20.7199 5.45062 20.7106C5.22606 20.7036 4.97883 20.4334 4.98109 20.1959C4.98336 19.942 5.24648 19.6881 5.50053 19.6904C5.7886 19.6928 5.9814 19.9047 5.97913 20.2122H5.97686Z" fill="#F2F6FB"/>
</svg>
