<svg width="9" height="6" viewBox="0 0 9 6" fill="none" xmlns="http://www.w3.org/2000/svg">
<path fill-rule="evenodd" clip-rule="evenodd" d="M8.77999 1.22005C8.63936 1.0796 8.44874 1.00071 8.24999 1.00071C8.05124 1.00071 7.86061 1.0796 7.71999 1.22005L4.99999 3.94005L2.27999 1.22005C2.21133 1.14636 2.12853 1.08726 2.03653 1.04627C1.94453 1.00528 1.84521 0.983235 1.74451 0.981458C1.64381 0.979682 1.54378 0.998206 1.45039 1.03593C1.357 1.07365 1.27217 1.12979 1.20095 1.20101C1.12973 1.27223 1.07359 1.35706 1.03587 1.45045C0.998145 1.54384 0.97962 1.64387 0.981396 1.74457C0.983173 1.84528 1.00522 1.94459 1.04621 2.03659C1.0872 2.12859 1.1463 2.21139 1.21999 2.28005L4.46999 5.53005C4.61061 5.6705 4.80124 5.74939 4.99999 5.74939C5.19874 5.74939 5.38936 5.6705 5.52999 5.53005L8.77999 2.28005C8.92044 2.13942 8.99933 1.9488 8.99933 1.75005C8.99933 1.5513 8.92044 1.36068 8.77999 1.22005Z" fill="#fff"/>
</svg>
