<svg width="33" height="33" viewBox="0 0 33 33" fill="none" xmlns="http://www.w3.org/2000/svg">
<path d="M9.15412 13.9548H12.3079V24.0803H9.15412V13.9548ZM10.7288 8.92279C11.7361 8.92279 12.5542 9.74092 12.5542 10.7482C12.5542 11.7555 11.7361 12.5736 10.7288 12.5736C9.72153 12.5736 8.9034 11.7555 8.9034 10.7482C8.9034 9.74092 9.72153 8.92279 10.7288 8.92279ZM14.2785 24.0847H17.4234V19.0747C17.4234 17.7551 17.6742 16.4751 19.3104 16.4751C20.9467 16.4751 20.9467 17.9838 20.9467 19.1627V24.0847H24.0917V18.5293C24.0917 15.8022 23.5023 13.704 20.3177 13.704C18.7826 13.704 17.7577 14.5442 17.3355 15.3403H17.2959V13.9548H14.2741V24.0803L14.2785 24.0847Z" fill="#2E3192"/>
</svg>
